<svg height="480pt" viewBox="0 0 480 480" width="480pt" xmlns="http://www.w3.org/2000/svg">
    <path d="m240 8c-128.128906 0-232 103.871094-232 232s103.871094 232 232 232 232-103.871094 232-232-103.871094-232-232-232zm-39.601562 407.359375-135.757813-135.757813 214.960937-214.960937 96.167969 39.589844 39.589844 96.167969zm0 0"
          fill="#78b9eb"/>
    <g fill="#006df0">
        <path d="m240 0c-132.546875 0-240 107.453125-240 240s107.453125 240 240 240 240-107.453125 240-240c-.148438-132.484375-107.515625-239.851562-240-240zm0 464c-123.710938 0-224-100.289062-224-224s100.289062-224 224-224 224 100.289062 224 224c-.140625 123.652344-100.347656 223.859375-224 224zm0 0"/>
        <path d="m324.847656 166.464844-11.3125-11.3125-11.648437 11.648437c-10.53125-8.632812-23.425781-13.882812-36.992188-15.066406-15.464843-1.6875-30.863281 3.730469-41.867187 14.730469-11 11.003906-16.417969 26.402344-14.722656 41.871094 1.179687 13.5625 6.433593 26.453124 15.070312 36.976562l-56.4375 56.441406c-13.753906-18.28125-14.457031-42.113281-.472656-56.097656l-11.3125-11.3125c-20.152344 20.152344-19.496094 54.121094.34375 78.847656l-11.664063 11.65625 11.320313 11.320313 11.648437-11.65625c10.53125 8.632812 23.425781 13.882812 36.992188 15.0625 1.597656.125 3.164062.1875 4.695312.1875 13.890625.222656 27.285157-5.148438 37.167969-14.914063 20.152344-20.152344 19.496094-54.113281-.34375-78.847656l56.441406-56.398438c13.75 18.285157 14.453125 42.117188.46875 56.09375l11.3125 11.3125c20.160156-20.152343 19.496094-54.113281-.34375-78.847656zm-100.589844 40.640625c-1.335937-10.808594 2.386719-21.628907 10.085938-29.328125 7.699219-7.703125 18.519531-11.421875 29.328125-10.089844 9.75.894531 19.039063 4.554688 26.777344 10.550781l-55.632813 55.632813c-6.007812-7.730469-9.671875-17.019532-10.558594-26.765625zm10.085938 106.398437c-7.808594 7.527344-18.542969 11.21875-29.328125 10.089844-9.75-.894531-19.039063-4.554688-26.777344-10.554688l55.625-55.625c13.761719 18.3125 14.457031 42.136719.480469 56.121094zm0 0"/>
        <path d="m422.761719 197.351562-39.5625-96.167968c-.816407-1.96875-2.382813-3.535156-4.351563-4.351563l-96.199218-39.59375c-2.988282-1.226562-6.421876-.539062-8.703126 1.746094l-214.960937 214.960937c-3.125 3.121094-3.125 8.1875 0 11.3125l135.757813 135.757813c3.125 3.125 8.191406 3.125 11.3125 0l214.960937-214.960937c2.285156-2.28125 2.972656-5.714844 1.746094-8.703126zm-222.363281 206.695313-124.445313-124.445313 205.535156-205.539062 88.152344 36.335938 36.289063 88.152343zm0 0"/>
        <path d="m336.167969 121.207031c-6.246094 6.25-6.246094 16.382813.003906 22.628907 6.25 6.246093 16.378906 6.246093 22.628906-.003907 6.246094-6.25 6.238281-16.382812-.011719-22.628906-6.253906-6.246094-16.382812-6.238281-22.628906.011719zm0 0"/>
    </g>
</svg>