<?xml version="1.0" encoding="iso-8859-1"?>
<!-- Generator: Adobe Illustrator 19.0.0, SVG Export Plug-In . SVG Version: 6.00 Build 0)  -->
<svg xmlns="http://www.w3.org/2000/svg" xmlns:xlink="http://www.w3.org/1999/xlink" version="1.1" id="Capa_1" x="0px" y="0px" viewBox="0 0 46.071 46.071" style="enable-background:new 0 0 46.071 46.071;" xml:space="preserve" width="512px" height="512px">
<g>
	<g>
		<polygon points="32.122,18.67 32.604,17.842 20.924,18.67 3.348,18.67 3.348,19.18 21.748,19.18 31.346,20.008 31.827,19.18     42.722,19.18 42.722,18.67   " fill="#FFFFFF"/>
	</g>
</g>
<g>
	<g>
		<polygon points="30.729,21.219 31.213,20.39 21.352,21.219 3.348,21.219 3.348,21.729 21.993,21.729 29.951,22.557 30.431,21.729     42.722,21.729 42.722,21.219   " fill="#FFFFFF"/>
	</g>
</g>
<g>
	<g>
		<path d="M8.272,45.071c0-1.461,0-2.904,0-4.349c-0.449,0-0.885,0-1.321,0c0,1.754,0,3.496,0,5.237c1.095,0,2.077,0,3.164,0    c0.042-0.292,0.184-0.571,0.229-0.888C9.644,45.071,8.965,45.071,8.272,45.071z" fill="#FFFFFF"/>
	</g>
</g>
<g>
	<g>
		<polygon points="40.682,3.378 41.164,2.549 18.402,3.378 3.348,3.378 3.348,3.888 20.333,3.888 39.905,4.716 40.385,3.888     42.723,3.888 42.723,3.378   " fill="#FFFFFF"/>
	</g>
</g>
<g>
	<g>
		<polygon points="17.975,0.829 3.348,0.829 3.348,1.339 20.088,1.339 41.298,2.167 42.559,0   " fill="#FFFFFF"/>
	</g>
</g>
<g>
	<g>
		<polygon points="37.894,8.475 38.378,7.648 19.256,8.475 3.347,8.475 3.347,8.985 20.823,8.985 37.115,9.814 37.597,8.985     42.722,8.985 42.722,8.475   " fill="#FFFFFF"/>
	</g>
</g>
<g>
	<g>
		<path d="M18.114,45.893c-0.558-1.669-1.117-3.408-1.673-5.077c-0.031-0.095-0.084-0.11-0.17-0.11    c-0.408,0.003-1.283,0.009-1.692-0.002c-0.143-0.003,0.229,0.194,0.182,0.331c-0.498,1.428-0.972,2.697-1.475,4.123    c-0.091,0.254-0.18,0.546-0.273,0.816l1.166,0.023l0.061-0.104c0.114-0.354,0.233-0.705,0.358-1.055    c0.016-0.045,0.025-0.104,0.066-0.104c0.538-0.009,1.127-0.007,1.671-0.007c0.023,0.065,0.046,0.119,0.063,0.18    c0.098,0.327,0.196,0.652,0.289,0.98l0.041,0.115L18.14,46C18.131,45.961,18.125,45.924,18.114,45.893z M14.899,43.886    c0.204-0.634,0.405-1.252,0.612-1.893c0.195,0.645,0.383,1.264,0.572,1.893C15.687,43.886,15.306,43.886,14.899,43.886z" fill="#FFFFFF"/>
	</g>
</g>
<g>
	<g>
		<polygon points="36.5,11.024 36.984,10.196 19.682,11.024 3.348,11.024 3.348,11.534 21.068,11.534 35.724,12.363 36.206,11.534     42.723,11.534 42.723,11.024   " fill="#FFFFFF"/>
	</g>
</g>
<g>
	<g>
		<polygon points="39.287,5.927 39.769,5.099 18.829,5.927 3.348,5.927 3.348,6.437 20.578,6.437 38.511,7.266 38.992,6.437     42.722,6.437 42.722,5.927   " fill="#FFFFFF"/>
	</g>
</g>
<g>
	<g>
		<polygon points="23.811,33.965 24.243,33.221 22.317,33.965 3.348,33.965 3.348,34.475 21.862,34.475 22.983,35.387     23.515,34.475 42.723,34.475 42.723,33.965   " fill="#FFFFFF"/>
	</g>
</g>
<g>
	<g>
		<polygon points="29.335,23.767 29.817,22.938 21.78,23.767 3.348,23.767 3.348,24.278 22.237,24.278 28.558,25.105 29.038,24.278     42.723,24.278 42.723,23.767   " fill="#FFFFFF"/>
	</g>
</g>
<g>
	<g>
		<polygon points="26.549,28.865 27.03,28.036 22.634,28.865 3.348,28.865 3.348,29.375 22.727,29.375 25.769,30.203 26.251,29.375     42.723,29.375 42.723,28.865   " fill="#FFFFFF"/>
	</g>
</g>
<g>
	<g>
		<polygon points="27.942,26.315 28.426,25.487 22.208,26.315 3.348,26.315 3.348,26.826 22.482,26.826 27.164,27.654     27.646,26.826 42.723,26.826 42.723,26.315   " fill="#FFFFFF"/>
	</g>
</g>
<g>
	<g>
		<polygon points="34.973,13.573 35.392,12.85 22.035,13.573 3.348,13.573 3.348,14.083 19.609,14.083 34.133,15.018 34.676,14.083     42.724,14.083 42.724,13.573   " fill="#FFFFFF"/>
	</g>
</g>
<g>
	<g>
		<polygon points="33.515,16.122 33.999,15.293 20.499,16.122 3.348,16.122 3.348,16.632 21.503,16.632 32.738,17.461 33.22,16.632     42.723,16.632 42.723,16.122   " fill="#FFFFFF"/>
	</g>
</g>
<g>
	<g>
		<path d="M37.397,43.358c0.024-0.009,0.048-0.013,0.073-0.022c0.024-0.008,0.049-0.018,0.071-0.024    c0.41-0.155,0.726-0.412,0.837-0.851c0.161-0.64,0.022-1.296-0.679-1.567c-0.166-0.065-0.291-0.113-0.469-0.145    c-0.107-0.019-0.27-0.031-0.377-0.044l-2.361,0.006v5.261h1.334l-0.002-4.397c0.299-0.032,0.59-0.042,0.873,0.063    c0.191,0.069,0.32,0.209,0.357,0.412c0.09,0.482-0.047,0.909-0.676,0.969c-0.115,0.011-0.387,0.009-0.506,0.006l1.695,2.988    l1.385,0.002L37.397,43.358z" fill="#FFFFFF"/>
	</g>
</g>
<g>
	<g>
		<polygon points="25.155,31.414 25.639,30.585 22.367,31.414 3.349,31.414 3.349,31.926 22.347,31.926 24.378,32.753 24.86,31.926     42.723,31.926 42.723,31.414   " fill="#FFFFFF"/>
	</g>
</g>
<g>
	<g>
		<path d="M28.971,45.075c0-0.466,0-0.913,0-1.378c0.606,0,1.205,0,1.803,0c0-0.298,0-0.578,0-0.87c-0.606,0-1.2,0-1.801,0    c0-0.423,0-0.825,0-1.241c0.64,0,1.269,0,1.901,0c0.043-0.297,0.086-0.579,0.129-0.864c-1.135,0-2.249,0-3.366,0    c0,1.754,0,3.496,0,5.236c1.178,0,2.241,0,3.41,0c0.045-0.296,0.088-0.578,0.133-0.883C30.399,45.075,29.74,45.075,28.971,45.075z    " fill="#FFFFFF"/>
	</g>
</g>
<g>
	<g>
		<path d="M23.448,43.041c-0.28-0.133-0.562-0.261-0.839-0.397c-0.138-0.067-0.278-0.139-0.4-0.232    c-0.177-0.135-0.225-0.324-0.171-0.542c0.052-0.207,0.192-0.317,0.393-0.342c0.167-0.021,0.34-0.029,0.508-0.013    c0.291,0.031,0.581,0.084,0.887,0.129c0.066-0.276,0.135-0.558,0.211-0.875c-0.33-0.055-0.644-0.125-0.959-0.158    c-0.488-0.051-0.969-0.02-1.435,0.166c-1.167,0.465-1.226,2.014-0.479,2.584c0.208,0.158,0.445,0.277,0.677,0.402    s0.481,0.217,0.707,0.351c0.271,0.159,0.343,0.358,0.274,0.644c-0.054,0.221-0.23,0.369-0.526,0.375    c-0.292,0.006-0.588-0.013-0.878-0.056c-0.242-0.036-0.477-0.12-0.724-0.185c-0.082,0.289-0.163,0.574-0.248,0.871    c0.563,0.207,1.125,0.318,1.711,0.307c0.478-0.01,0.928-0.11,1.348-0.354C24.333,45.232,24.62,43.595,23.448,43.041z" fill="#FFFFFF"/>
	</g>
</g>
<g>
	<g>
		<polygon points="22.368,36.51 22.85,35.682 21.132,36.51 3.348,36.51 3.348,37.02 20.958,37.02 21.59,37.848 22.072,37.02     42.723,37.02 42.723,36.51   " fill="#FFFFFF"/>
	</g>
</g>
<g>
</g>
<g>
</g>
<g>
</g>
<g>
</g>
<g>
</g>
<g>
</g>
<g>
</g>
<g>
</g>
<g>
</g>
<g>
</g>
<g>
</g>
<g>
</g>
<g>
</g>
<g>
</g>
<g>
</g>
</svg>
