<?xml version="1.0" encoding="UTF-8"?>
<svg width="129px" height="37px" viewBox="0 0 129 37" version="1.1" xmlns="http://www.w3.org/2000/svg" xmlns:xlink="http://www.w3.org/1999/xlink">
    <!-- Generator: Sketch 42 (36781) - http://www.bohemiancoding.com/sketch -->
    <title>amex-logo</title>
    <desc>Created with Sketch.</desc>
    <defs></defs>
    <g id="Page-1" stroke="none" stroke-width="1" fill="none" fill-rule="evenodd">
        <path d="M122.984758,36.4688141 L115.968246,36.4688141 L115.968246,32.9402918 L122.091964,32.9402918 C122.091964,32.9402918 124.324799,33.1995235 124.324799,31.7266915 C124.324799,30.3463244 120.9866,30.4536496 120.9866,30.4536496 C120.9866,30.4536496 115.546507,30.920927 115.546507,25.8898519 C115.546507,20.8851954 120.461126,21.1708455 120.461126,21.1708455 L128.008213,21.1708455 L128.008213,24.7489025 L121.933812,24.7489025 C121.933812,24.7489025 119.830219,24.3311598 119.830219,25.8403172 C119.830219,27.1051034 122.695663,26.9251273 122.695663,26.9251273 C122.695663,26.9251273 128.713946,26.4859195 128.713946,31.1009031 C128.713946,36.0477691 124.836668,36.488628 123.460915,36.488628 C123.165017,36.488628 122.984758,36.4688141 122.984758,36.4688141 L122.984758,36.4688141 Z M87.9787239,36.4935815 L87.9787239,21.197264 L100.275475,21.197264 L100.275475,24.7489025 L91.9444305,24.7489025 L91.9444305,27.1051034 L100.068007,27.1051034 L100.068007,30.5824398 L91.9444305,30.5824398 L91.9444305,33.1780584 L100.275475,33.1780584 L100.275475,36.4935815 L87.9787239,36.4935815 Z M109.082677,36.4688141 L102.064465,36.4688141 L102.064465,32.9402918 L108.215392,32.9402918 C108.215392,32.9402918 110.422719,33.1995235 110.422719,31.7266915 C110.422719,30.3463244 107.084519,30.4536496 107.084519,30.4536496 C107.084519,30.4536496 101.644427,30.920927 101.644427,25.8898519 C101.644427,20.8851954 106.559046,21.1708455 106.559046,21.1708455 L114.131641,21.1708455 L114.131641,24.7489025 L108.033432,24.7489025 C108.033432,24.7489025 105.928138,24.3311598 105.928138,25.8403172 C105.928138,27.1051034 108.790181,26.9251273 108.790181,26.9251273 C108.790181,26.9251273 114.811865,26.4859195 114.811865,31.1009031 C114.811865,36.0477691 110.934588,36.488628 109.558834,36.488628 C109.261236,36.488628 109.082677,36.4688141 109.082677,36.4688141 L109.082677,36.4688141 Z M55.9129586,36.4952326 L52.4710245,36.4952326 L48.2910473,31.9545512 L44.0872622,36.4952326 L41.6945738,36.4952326 L29.42163,36.4952326 L29.42163,21.1460781 L41.6945738,21.1460781 L43.7709579,21.1460781 L48.2910473,26.0202933 L52.8383455,21.1724967 L55.8619418,21.1724967 L55.8619418,21.1460781 L65.4275935,21.1460781 C65.4275935,21.1460781 70.4221392,20.6011964 70.4221392,25.6537365 C70.4221392,30.1663483 68.7623923,31.5681805 63.6675136,31.5681805 L59.8038406,31.5681805 L59.8038406,36.4952326 L55.9129586,36.4952326 L55.9129586,36.4952326 Z M50.9728309,28.9527479 L55.8619418,34.2909382 L55.8619418,23.6343716 L50.9728309,28.9527479 L50.9728309,28.9527479 Z M33.3907378,33.1764073 L41.6945738,33.1764073 L45.5854558,28.9527479 L41.6945738,24.7505536 L33.3907378,24.7505536 L33.3907378,27.1067545 L41.4854049,27.1067545 L41.4854049,30.584091 L33.3907378,30.584091 L33.3907378,33.1764073 L33.3907378,33.1764073 Z M59.8038406,27.5723808 L63.8766825,27.5723808 C65.0602725,27.5723808 66.032993,26.9251273 66.032993,26.1210139 C66.032993,25.3202028 65.0602725,24.669647 63.8766825,24.669647 L59.8038406,24.669647 L59.8038406,27.5723808 L59.8038406,27.5723808 Z M82.1968188,36.52 L82.1968188,33.5380106 C82.1968188,33.5380106 82.0352656,31.204926 79.5643514,31.204926 L75.7312885,31.204926 L75.7312885,36.52 L71.7859885,36.52 L71.7859885,21.197264 L81.3550414,21.197264 C81.3550414,21.197264 86.3478865,20.6011964 86.3478865,25.6818061 C86.3478865,28.3269595 84.1405592,29.2598631 84.1405592,29.2598631 C84.1405592,29.2598631 86.0332829,30.1415809 86.0332829,32.7322461 L86.0332829,36.52 L82.1968188,36.52 L82.1968188,36.52 Z M75.7312885,27.6004504 L79.8041304,27.6004504 C80.9877204,27.6004504 81.9587403,26.9531969 81.9587403,26.1490835 C81.9587403,25.3449701 80.9877204,24.6977166 79.8041304,24.6977166 L75.7312885,24.6977166 L75.7312885,27.6004504 L75.7312885,27.6004504 Z M72.7604096,15.5453539 L76.7261163,15.5453539 L76.7261163,0.173083246 L72.7604096,0.173083246 L72.7604096,15.5453539 Z M42.2200469,15.4925169 L42.2200469,0.171432089 L54.5201997,0.171432089 L54.5201997,3.74783793 L46.1891547,3.74783793 L46.1891547,6.10734113 L54.3110308,6.10734113 L54.3110308,9.58137524 L46.1891547,9.58137524 L46.1891547,12.1769939 L54.5201997,12.1769939 L54.5201997,15.4925169 L42.2200469,15.4925169 Z M36.0436119,15.4941681 L36.0436119,4.91520585 L31.1034842,15.4941681 L27.870719,15.4941681 L22.9033823,4.96639172 L22.9033823,15.4941681 L19.4597477,15.4941681 L18.9342746,15.4941681 L15.1233189,15.4941681 L13.7560684,12.2793656 L6.55589604,12.2793656 L5.16313714,15.4941681 L0.852216749,15.4941681 L7.39597284,0.169780932 L12.9415,0.169780932 L18.9342746,14.2491958 L18.9342746,0.169780932 L25.163427,0.169780932 L29.4998558,9.68539812 L33.8090756,0.169780932 L40.0382281,0.169780932 L40.0382281,15.4941681 L36.0436119,15.4941681 Z M8.23775019,8.36282145 L12.0742143,8.36282145 L10.1559822,3.80067495 L8.23775019,8.36282145 Z M113.495631,15.4941681 L107.244372,5.25204186 L107.244372,15.4941681 L103.853454,15.4941681 L103.219145,15.4941681 L99.5170256,15.4941681 L98.1242667,12.2793656 L90.9223938,12.2793656 L89.5534427,15.4941681 L85.9261476,15.4941681 L85.2697313,15.4941681 L83.3770076,15.4941681 C83.3770076,15.4941681 78.0712595,14.7412405 78.0712595,8.26044972 C78.0712595,-0.244659449 84.0895424,0.0921765579 84.2970108,0.0409906941 L89.1589127,0.169780932 L89.1589127,3.61904769 L85.1676977,3.67023355 C85.1676977,3.67023355 82.5641398,3.67023355 82.246135,7.01547742 C82.2121238,7.40184814 82.1934177,7.7518934 82.1968188,8.08047362 C82.2121238,13.2601528 86.7526199,11.6535771 86.9022692,11.6040424 L91.7896795,0.169780932 L97.3062972,0.169780932 L103.219145,14.0675685 L103.219145,0.169780932 L108.791882,0.169780932 L114.968317,10.2566984 L114.968317,0.169780932 L118.939125,0.169780932 L118.939125,15.4941681 L113.495631,15.4941681 L113.495631,15.4941681 Z M92.6042479,8.36282145 L96.4424125,8.36282145 L94.5496889,3.80067495 L92.6042479,8.36282145 L92.6042479,8.36282145 Z M66.976804,15.4941681 L66.976804,12.5121787 C66.976804,12.5121787 66.8203524,10.179094 64.3494383,10.179094 L60.5129742,10.179094 L60.5129742,15.4941681 L56.5693749,15.4941681 L56.5693749,0.169780932 L66.1367272,0.169780932 C66.1367272,0.169780932 71.1295723,-0.426286707 71.1295723,4.65597422 C71.1295723,7.30112757 68.922245,8.23403121 68.922245,8.23403121 C68.922245,8.23403121 70.840477,9.115749 70.840477,11.7080653 L70.840477,15.4941681 L66.976804,15.4941681 Z M60.5129742,6.57461853 L64.5858162,6.57461853 C65.7694062,6.57461853 66.7404261,5.92571387 66.7404261,5.12160046 C66.7404261,4.31913821 65.7694062,3.67023355 64.5858162,3.67023355 L60.5129742,3.67023355 L60.5129742,6.57461853 Z" id="amex-logo" fill="#FFFFFF"></path>
    </g>
</svg>