<?xml version="1.0" encoding="UTF-8"?>
<svg width="109px" height="36px" viewBox="0 0 109 36" version="1.1" xmlns="http://www.w3.org/2000/svg" xmlns:xlink="http://www.w3.org/1999/xlink">
    <!-- Generator: Sketch 42 (36781) - http://www.bohemiancoding.com/sketch -->
    <title>visa-logo</title>
    <desc>Created with Sketch.</desc>
    <defs></defs>
    <g id="Page-1" stroke="none" stroke-width="1" fill="none" fill-rule="evenodd">
        <path d="M27.4555419,35.03344 L18.0896453,35.03344 L11.0663645,7.67344 C10.7330099,6.41488 10.025202,5.30224 8.98403941,4.77784 C6.38569951,3.46 3.52250246,2.4112 0.399014778,1.88224 L0.399014778,0.82888 L15.4867389,0.82888 C17.569064,0.82888 19.1308079,2.4112 19.3910985,4.24888 L23.0351675,23.98456 L32.3964975,0.82888 L41.5021034,0.82888 L27.4555419,35.03344 Z M46.7079163,35.03344 L37.862601,35.03344 L45.1461724,0.82888 L53.9914877,0.82888 L46.7079163,35.03344 Z M65.4351429,10.30456 C65.6954335,8.46232 67.2571773,7.40896 69.0792118,7.40896 C71.9424089,7.14448 75.06133,7.67344 77.6642365,8.98672 L79.2259803,1.62232 C76.6230739,0.56896 73.7598768,0.04 71.1615369,0.04 C62.5765123,0.04 56.3295369,4.77784 56.3295369,11.35336 C56.3295369,16.35568 60.7544778,18.98224 63.8779655,20.56456 C67.2571773,22.14232 68.5586305,23.19568 68.2983399,24.77344 C68.2983399,27.14008 65.6954335,28.19344 63.0970936,28.19344 C59.9736059,28.19344 56.8501182,27.40456 53.9914877,26.08672 L52.4297438,33.45568 C55.5532315,34.76896 58.9324433,35.29792 62.055931,35.29792 C71.6821182,35.55784 77.6642365,30.82456 77.6642365,23.72008 C77.6642365,14.77336 65.4351429,14.24896 65.4351429,10.30456 L65.4351429,10.30456 Z M108.620557,35.03344 L101.597276,0.82888 L94.0534138,0.82888 C92.49167,0.82888 90.9299261,1.88224 90.4093448,3.46 L77.4039458,35.03344 L86.5095517,35.03344 L88.3270197,30.03568 L99.5149507,30.03568 L100.556113,35.03344 L108.620557,35.03344 Z M95.354867,10.04008 L97.9532069,22.9312 L90.6696355,22.9312 L95.354867,10.04008 Z" id="visa-logo" fill="#FFFFFF"></path>
    </g>
</svg>