<?xml version="1.0" encoding="UTF-8"?>
<svg width="132px" height="24px" viewBox="0 0 132 24" version="1.1" xmlns="http://www.w3.org/2000/svg" xmlns:xlink="http://www.w3.org/1999/xlink">
    <!-- Generator: Sketch 42 (36781) - http://www.bohemiancoding.com/sketch -->
    <title>discover-logo</title>
    <desc>Created with Sketch.</desc>
    <defs></defs>
    <g id="Page-1" stroke="none" stroke-width="1" fill="none" fill-rule="evenodd">
        <path d="M121.839258,11.1756212 L120.630907,11.1756212 L120.630907,4.7582178 L121.839258,4.7582178 C124.497629,4.7582178 125.705979,5.94662583 125.705979,7.84807868 C125.705979,9.98721314 124.497629,11.1756212 121.839258,11.1756212 L121.839258,11.1756212 Z M130.056041,7.61039707 C130.056041,3.56980976 127.39767,1.43067531 122.564268,1.43067531 L116.522516,1.43067531 L116.522516,22.5843383 L120.630907,22.5843383 L120.630907,14.0278004 L121.114247,14.0278004 L126.672659,22.5843383 L131.747731,22.5843383 L125.222639,13.7901188 C128.12268,13.3147556 130.297711,10.700258 130.056041,7.61039707 L130.056041,7.61039707 Z M102.26398,22.5843383 L113.864145,22.5843383 L113.864145,19.0191142 L106.372372,19.0191142 L106.372372,13.3147556 L113.622474,13.3147556 L113.622474,9.74953153 L106.372372,9.74953153 L106.372372,4.9958994 L113.864145,4.9958994 L113.864145,1.43067531 L102.26398,1.43067531 L102.26398,22.5843383 L102.26398,22.5843383 Z M90.1804755,15.6915717 L84.6220634,1.43067531 L80.2720017,1.43067531 L89.2137951,23.0597015 L91.3888259,23.0597015 L100.330619,1.43067531 L95.9805577,1.43067531 L90.1804755,15.6915717 L90.1804755,15.6915717 Z M41.1214467,12.1263476 C41.1214467,18.0683878 45.9548485,23.0597015 51.9966009,23.0597015 C53.9299616,23.0597015 55.6216522,22.5843383 57.3133429,21.8712935 L57.3133429,17.1176613 C56.1049924,18.543751 54.4133018,19.4944774 52.479941,19.4944774 C48.6132196,19.4944774 45.4715084,16.6422981 45.4715084,12.8393924 L45.4715084,12.3640292 C45.2298383,8.5611235 48.3715495,5.23358101 52.2382709,4.9958994 C54.1716317,4.9958994 56.1049924,5.94662583 57.3133429,7.37271547 L57.3133429,2.61908334 C55.8633223,1.66835691 53.9299616,1.43067531 52.2382709,1.43067531 C45.9548485,0.955312093 41.1214467,5.94662583 41.1214467,12.1263476 L41.1214467,12.1263476 Z M33.6296738,9.51184992 C31.2129729,8.5611235 30.4879626,8.08576029 30.4879626,6.89735225 C30.7296327,5.47126262 31.9379832,4.28285458 33.3880037,4.52053619 C34.5963542,4.52053619 35.8047047,5.23358101 36.771385,6.18430743 L38.9464159,3.33212816 C37.2547252,1.90603852 35.0796944,0.955312093 32.9046635,0.955312093 C29.5212822,0.717630486 26.6212411,3.33212816 26.379571,6.65967065 L26.379571,6.89735225 C26.379571,9.74953153 27.5879215,11.4133028 31.454643,12.6017108 C32.4213234,12.8393924 33.3880037,13.3147556 34.3546841,13.7901188 C35.0796944,14.2654821 35.5630346,14.9785269 35.5630346,15.9292533 C35.5630346,17.5930245 34.113014,19.0191142 32.6629935,19.0191142 L32.4213234,19.0191142 C30.4879626,19.0191142 28.796272,17.8307062 28.0712617,16.1669349 L25.4128907,18.7814326 C26.8629112,21.3959302 29.7629523,22.8220199 32.6629935,22.8220199 C36.5297149,23.0597015 39.6714261,20.2075222 39.9130962,16.4046165 L39.9130962,15.6915717 C39.6714261,12.8393924 38.4630757,11.4133028 33.6296738,9.51184992 L33.6296738,9.51184992 Z M19.6128085,22.5843383 L23.7212,22.5843383 L23.7212,1.43067531 L19.6128085,1.43067531 L19.6128085,22.5843383 L19.6128085,22.5843383 Z M11.3960253,17.3553429 C9.94600475,18.543751 7.77097392,19.2567958 5.83761318,19.0191142 L4.62926272,19.0191142 L4.62926272,4.9958994 L5.83761318,4.9958994 C7.77097392,4.7582178 9.94600475,5.47126262 11.3960253,6.65967065 C12.8460459,8.08576029 13.5710561,9.98721314 13.5710561,11.888666 C13.5710561,14.0278004 12.8460459,15.9292533 11.3960253,17.3553429 L11.3960253,17.3553429 Z M6.56262346,1.43067531 L0.520871143,1.43067531 L0.520871143,22.5843383 L6.56262346,22.5843383 C9.22099448,22.8220199 11.8793655,21.8712935 14.0543963,20.2075222 C16.4710973,18.0683878 17.9211178,15.2162085 17.9211178,12.1263476 C18.1627879,6.42198904 13.5710561,1.66835691 7.77097392,1.43067531 L6.56262346,1.43067531 L6.56262346,1.43067531 Z M69.6385176,0.940298507 C63.5967653,0.940298507 58.5216934,5.69393064 58.5216934,11.8736524 C58.5216934,17.8156926 63.3550952,22.8070063 69.6385176,23.0446879 C75.92194,23.2823695 80.7553419,18.2910558 80.997012,12.111334 C80.7553419,5.93161224 75.92194,0.940298507 69.6385176,0.940298507 L69.6385176,0.940298507 Z" id="discover-logo" fill="#FFFFFF"></path>
    </g>
</svg>