<svg height="512" viewBox="0 0 64 64" width="512" xmlns="http://www.w3.org/2000/svg"><g id="Access_denied" data-name="Access denied"><path d="m57 17a2.006 2.006 0 0 0 -2-2h-2v26h-42v-26h-2a2.006 2.006 0 0 0 -2 2v28h50z" class="product-icon-9bc9ff"/><path d="m51 3h-38a2 2 0 0 0 -2 2v6h42v-6a2 2 0 0 0 -2-2z" class="product-icon-9bc9ff"/><path d="m57 45h-50l-4 12h22l1-4h12l1 4h22z" class="product-icon-9bc9ff"/><path d="m25 57h-22v2a2.006 2.006 0 0 0 2 2h54a2.006 2.006 0 0 0 2-2v-2z" class="product-icon-9bc9ff"/><circle cx="32" cy="26" class="product-icon-9bc9ff" r="11"/><g class="product-icon-1e81ce"><path d="m58 44.838v-27.838a3 3 0 0 0 -3-3h-1v-9a3 3 0 0 0 -3-3h-38a3 3 0 0 0 -3 3v9h-1a3 3 0 0 0 -3 3v27.838l-4 12v2.162a3 3 0 0 0 3 3h54a3 3 0 0 0 3-3v-2.162zm-18.22 11.162-.81-3.243a1 1 0 0 0 -.97-.757h-12a1 1 0 0 0 -.97.757l-.81 3.243h-19.833l3.334-10h48.558l3.334 10zm-2.061 0h-11.438l.5-2h10.438zm-25.719-44h40v28h-40zm0-7a1 1 0 0 1 1-1h38a1 1 0 0 1 1 1v5h-40zm-3 11h1v25a1 1 0 0 0 1 1h42a1 1 0 0 0 1-1v-25h1a1 1 0 0 1 1 1v27h-48v-27a1 1 0 0 1 1-1zm50 44h-54a1 1 0 0 1 -1-1v-1h56v1a1 1 0 0 1 -1 1z"/><path d="m37 48h2v2h-2z"/><path d="m9 48h2v2h-2z"/><path d="m13 48h2v2h-2z"/><path d="m17 48h2v2h-2z"/><path d="m21 48h2v2h-2z"/><path d="m41 48h2v2h-2z"/><path d="m49 48h2v2h-2z"/><path d="m45 48h2v2h-2z"/><path d="m25 48h2v2h-2z"/><path d="m29 48h2v2h-2z"/><path d="m33 48h2v2h-2z"/><path d="m53 48h2v2h-2z"/><path d="m41 52h6v2h-6z"/><path d="m49 52h2v2h-2z"/><path d="m53 52h2v2h-2z"/><path d="m9 52h2v2h-2z"/><path d="m13 52h2v2h-2z"/><path d="m17 52h6v2h-6z"/><path d="m49 6h-18a1 1 0 0 0 0 2h18a1 1 0 0 0 0-2z"/><path d="m16 6h-1a1 1 0 0 0 0 2h1a1 1 0 0 0 0-2z"/><path d="m20 6h-1a1 1 0 0 0 0 2h1a1 1 0 0 0 0-2z"/><path d="m24 6h-1a1 1 0 0 0 0 2h1a1 1 0 0 0 0-2z"/><path d="m32 14a12 12 0 1 0 12 12 12.013 12.013 0 0 0 -12-12zm0 22a10 10 0 1 1 10-10 10.011 10.011 0 0 1 -10 10z"/><path d="m32 18a1 1 0 0 0 -1 1v9a1 1 0 0 0 2 0v-9a1 1 0 0 0 -1-1z"/><path d="m32 31a1 1 0 0 0 -1 1v1a1 1 0 0 0 2 0v-1a1 1 0 0 0 -1-1z"/></g></g></svg>