<svg height="512" viewBox="0 0 512 512" width="512" xmlns="http://www.w3.org/2000/svg">
    <g>
        <g class="product-icon-9bc9ff">
            <path d="m376 432h32v32h-32z"/>
            <g>
                <path d="m160 432h32v32h-32z"/>
                <path d="m160 16h32v32h-32z"/>
                <circle cx="64" cy="192" r="16"/>
                <circle cx="120" cy="192" r="16"/>
                <circle cx="64" cy="96" r="16"/>
                <circle cx="120" cy="96" r="16"/>
                <circle cx="64" cy="288" r="16"/>
                <circle cx="120" cy="288" r="16"/>
            </g>
            <path d="m400 15a96 96 0 1 0 96 96 96 96 0 0 0 -96-96zm-24 88v49h-32v-49h-16l32-48 32 48zm56 73-32-48h16v-55h32v55h16z"/>
        </g>
        <g class="product-icon-1e81ce">
            <path d="m64 168a24 24 0 1 0 24 24 24.027 24.027 0 0 0 -24-24zm0 32a8 8 0 1 1 8-8 8.009 8.009 0 0 1 -8 8z"/>
            <path d="m120 168a24 24 0 1 0 24 24 24.027 24.027 0 0 0 -24-24zm0 32a8 8 0 1 1 8-8 8.009 8.009 0 0 1 -8 8z"/>
            <path d="m312 176a8 8 0 0 0 -8-8h-96a8 8 0 0 0 0 16h96a8 8 0 0 0 8-8z"/>
            <path d="m304 200h-40a8 8 0 0 0 0 16h40a8 8 0 0 0 0-16z"/>
            <path d="m184 168h-8a8 8 0 0 0 0 16h8a8 8 0 0 0 0-16z"/>
            <path d="m64 72a24 24 0 1 0 24 24 24.027 24.027 0 0 0 -24-24zm0 32a8 8 0 1 1 8-8 8.009 8.009 0 0 1 -8 8z"/>
            <path d="m120 72a24 24 0 1 0 24 24 24.027 24.027 0 0 0 -24-24zm0 32a8 8 0 1 1 8-8 8.009 8.009 0 0 1 -8 8z"/>
            <path d="m184 80h-8a8 8 0 0 0 0 16h8a8 8 0 0 0 0-16z"/>
            <path d="m64 264a24 24 0 1 0 24 24 24.027 24.027 0 0 0 -24-24zm0 32a8 8 0 1 1 8-8 8.009 8.009 0 0 1 -8 8z"/>
            <path d="m120 264a24 24 0 1 0 24 24 24.027 24.027 0 0 0 -24-24zm0 32a8 8 0 1 1 8-8 8.009 8.009 0 0 1 -8 8z"/>
            <path d="m208 280h96a8 8 0 0 0 0-16h-96a8 8 0 0 0 0 16z"/>
            <path d="m304 296h-40a8 8 0 0 0 0 16h40a8 8 0 0 0 0-16z"/>
            <path d="m184 280a8 8 0 0 0 0-16h-8a8 8 0 0 0 0 16z"/>
            <path d="m496 296a8 8 0 0 0 0-16h-104a8 8 0 0 0 -8 8v136h-8a8 8 0 0 0 -8 8v24h-40a8 8 0 0 0 -8 8v8h-72v-8a8 8 0 0 0 -8-8h-40v-24a8 8 0 0 0 -8-8h-8v-80h128a32.036 32.036 0 0 0 32-32v-48a31.92 31.92 0 0 0 -10.87-24 31.92 31.92 0 0 0 10.87-24v-17.4a104 104 0 1 0 -21.54-156.83 31.868 31.868 0 0 0 -10.46-1.77h-112v-24a8 8 0 0 0 -8-8h-32a8 8 0 0 0 -8 8v24h-112a32.036 32.036 0 0 0 -32 32v48a31.92 31.92 0 0 0 10.87 24 31.92 31.92 0 0 0 -10.87 24v48a31.92 31.92 0 0 0 10.87 24 31.92 31.92 0 0 0 -10.87 24v48a32.036 32.036 0 0 0 32 32h128v80h-8a8 8 0 0 0 -8 8v24h-40a8 8 0 0 0 -8 8v8h-88a8 8 0 0 0 0 16h88v8a8 8 0 0 0 8 8h128a8 8 0 0 0 8-8v-8h72v8a8 8 0 0 0 8 8h128a8 8 0 0 0 8-8v-8h32a8 8 0 0 0 0-16h-32v-8a8 8 0 0 0 -8-8h-40v-24a8 8 0 0 0 -8-8h-8v-128zm-96-273a88 88 0 1 1 -88 88 88.1 88.1 0 0 1 88-88zm-232 1h16v16h-16zm-144 48a16.021 16.021 0 0 1 16-16h271.77a104.058 104.058 0 0 0 -11.05 24h-92.72a8 8 0 0 0 0 16h89.09c-.39 2.64-.67 5.3-.85 8h-32.24a8 8 0 0 0 0 16h32.39a104.128 104.128 0 0 0 2.65 16h-259.04a16.021 16.021 0 0 1 -16-16zm0 96a16.021 16.021 0 0 1 16-16h264.43a104.4 104.4 0 0 0 23.57 33.97v30.03a16.021 16.021 0 0 1 -16 16h-272a16.021 16.021 0 0 1 -16-16zm16 160a16.021 16.021 0 0 1 -16-16v-48a16.021 16.021 0 0 1 16-16h272a16.021 16.021 0 0 1 16 16v48a16.021 16.021 0 0 1 -16 16zm128 112h16v16h-16zm64 48h-112v-16h112zm152-48h16v16h-16zm64 32v16h-112v-16z"/>
            <path d="m471.05 124.23a7.98 7.98 0 0 0 -7.05-4.23h-8v-47a8 8 0 0 0 -8-8h-32a8 8 0 0 0 -8 8v47h-8a8.009 8.009 0 0 0 -6.66 12.44l32 48a8.01 8.01 0 0 0 13.32 0l32-48a7.993 7.993 0 0 0 .39-8.21zm-39.05 37.35-17.05-25.58h1.05a8 8 0 0 0 8-8v-47h16v47a8 8 0 0 0 8 8h1.05z"/>
            <path d="m398.66 98.56-32-48a8.01 8.01 0 0 0 -13.32 0l-32 48a8.009 8.009 0 0 0 6.66 12.44h8v41a8 8 0 0 0 8 8h32a8 8 0 0 0 8-8v-41h8a8.009 8.009 0 0 0 6.66-12.44zm-22.66-3.56a8 8 0 0 0 -8 8v41h-16v-41a8 8 0 0 0 -8-8h-1.05l17.05-25.58 17.05 25.58z"/>
        </g>
    </g>
</svg>