<svg id="Capa_1" enable-background="new 0 0 512 512" height="512" viewBox="0 0 512 512" width="512" xmlns="http://www.w3.org/2000/svg"><g><g class="product-icon-9bc9ff"><path d="m464 40v24h-448v-24c.003-13.253 10.747-23.997 24-24h400c13.253.003 23.997 10.747 24 24z"/><circle cx="39" cy="40" r="8"/><circle cx="64" cy="40" r="8"/><circle cx="88" cy="40" r="8"/><path d="m495.88 368.12v-32l-33.42-1.86c-2.763-17.229-9.535-33.568-19.77-47.7l22.33-24.95-22.63-22.63-24.95 22.33c-14.132-10.235-30.471-17.007-47.7-19.77l-1.86-33.42h-32l-1.85 33.42c-17.229 2.761-33.569 9.533-47.7 19.77l-24.96-22.33-22.62 22.63 22.32 24.95c-10.232 14.133-17 30.472-19.76 47.7l-33.43 1.86v32l33.43 1.85c2.758 17.229 9.527 33.568 19.76 47.7l-22.32 24.96 22.62 22.62 24.96-22.32c14.132 10.233 30.471 17.002 47.7 19.76l1.85 33.43h32l1.86-33.43c17.228-2.76 33.567-9.528 47.7-19.76l24.95 22.32 22.63-22.62-22.33-24.96c10.237-14.131 17.009-30.471 19.77-47.7zm-104.4 23.6c-21.87 21.868-57.328 21.866-79.196-.004s-21.866-57.328.004-79.196c21.869-21.867 57.323-21.867 79.192 0 21.87 21.868 21.872 57.326.004 79.196-.001.001-.003.003-.004.004z"/><path d="m408.45 295.55c-31.243-31.241-81.896-31.24-113.137.003s-31.24 81.896.003 113.137c31.242 31.24 81.893 31.24 113.134 0 31.24-31.244 31.24-81.896 0-113.14zm-16.97 96.17c-21.87 21.868-57.328 21.866-79.196-.004s-21.866-57.328.004-79.196c21.869-21.867 57.323-21.867 79.192 0 21.87 21.868 21.872 57.325.004 79.196-.001.001-.003.003-.004.004z"/></g><g class="product-icon-1e81ce"><circle cx="39" cy="40" r="8"/><circle cx="64" cy="40" r="8"/><circle cx="88" cy="40" r="8"/><path d="m496.33 328.13-24.33-1.35v-286.78c-.023-17.664-14.336-31.977-32-32h-400c-17.664.023-31.977 14.336-32 32v368c.023 17.664 14.336 31.977 32 32h191.19c-1.007 2.896-.269 6.113 1.9 8.28l22.62 22.63c3.002 3.009 7.833 3.145 11 .31l20.28-18.15c12.055 7.74 25.394 13.267 39.39 16.32l1.51 27.17c.24 4.239 3.744 7.555 7.99 7.56h32c4.247-.001 7.754-3.319 7.99-7.56l1.51-27.17c13.996-3.053 27.335-8.58 39.39-16.32l20.29 18.15c3.165 2.829 7.989 2.693 10.99-.31l22.63-22.63c3-3.004 3.132-7.827.3-10.99l-18.15-20.29c7.741-12.052 13.271-25.387 16.33-39.38l27.17-1.51c4.235-.244 7.546-3.748 7.55-7.99v-32c.001-4.244-3.312-7.751-7.55-7.99zm-472.33-288.13c.012-8.832 7.168-15.988 16-16h400c8.832.012 15.988 7.168 16 16v16h-432zm16 384c-8.832-.012-15.988-7.168-16-16v-336h432v169.27l-7.95-7.95c-3.004-3-7.827-3.132-10.99-.3l-20.29 18.15c-12.056-7.739-25.395-13.269-39.39-16.33l-1.51-27.17c-.239-4.238-3.746-7.551-7.99-7.55h-32c-4.242.004-7.746 3.315-7.99 7.55l-1.51 27.17c-13.995 3.061-27.334 8.591-39.39 16.33l-20.28-18.15c-3.167-2.831-7.992-2.699-11 .3l-22.62 22.63c-3.003 3.001-3.139 7.825-.31 10.99l18.15 20.29c-7.74 12.055-13.267 25.394-16.32 39.39l-27.17 1.51c-4.241.236-7.559 3.743-7.56 7.99v32c.005 4.246 3.321 7.75 7.56 7.99l27.17 1.51c3.053 13.996 8.58 27.335 16.32 39.39l-6.25 6.99zm447.88-63.45-25.86 1.44c-3.758.206-6.864 3.004-7.46 6.72-2.588 15.987-8.871 31.149-18.35 44.28-2.203 3.047-1.987 7.217.52 10.02l17.28 19.31-11.92 11.93-19.32-17.28c-2.801-2.512-6.974-2.728-10.02-.52-13.132 9.476-28.294 15.756-44.28 18.34-3.714.6-6.51 3.704-6.72 7.46l-1.44 25.87h-16.86l-1.44-25.87c-.206-3.758-3.004-6.864-6.72-7.46-15.987-2.58-31.151-8.86-44.28-18.34-3.046-2.208-7.219-1.992-10.02.52l-19.31 17.28-11.93-11.93 17.28-19.31c2.512-2.801 2.728-6.974.52-10.02-9.475-13.133-15.758-28.294-18.35-44.28-.592-3.714-3.695-6.513-7.45-6.72l-25.87-1.44v-16.86l25.87-1.44c3.754-.211 6.854-3.008 7.45-6.72 2.592-15.986 8.875-31.147 18.35-44.28 2.208-3.046 1.992-7.219-.52-10.02l-17.28-19.32 11.93-11.92 19.31 17.28c2.803 2.507 6.973 2.723 10.02.52 13.131-9.479 28.293-15.762 44.28-18.35 3.716-.596 6.514-3.702 6.72-7.46l1.44-25.86h16.86l1.44 25.87c.214 3.753 3.009 6.851 6.72 7.45 15.987 2.588 31.149 8.871 44.28 18.35 3.047 2.203 7.217 1.987 10.02-.52l19.32-17.28 11.92 11.92-17.28 19.32c-2.507 2.803-2.723 6.973-.52 10.02 9.479 13.131 15.762 28.293 18.35 44.28.599 3.711 3.697 6.506 7.45 6.72l25.87 1.44zm-31.88-76.86v8.77c-1.01-1.77-2.067-3.513-3.17-5.23z"/><path d="m306.627 306.862c-24.993 24.994-24.993 65.516.001 90.51s65.516 24.993 90.51-.001c24.993-24.993 24.993-65.515 0-90.508-25.011-24.954-65.5-24.954-90.511-.001zm79.2 79.2c-18.745 18.745-49.137 18.745-67.882 0s-18.745-49.137 0-67.882 49.137-18.745 67.882 0c18.712 18.758 18.71 49.123-.004 67.879z"/><path d="m289.656 289.892c-34.366 34.366-34.365 90.085.001 124.451s90.085 34.365 124.451-.001c34.365-34.366 34.365-90.084 0-124.45-33.914-34.366-89.267-34.733-123.634-.818-.274.271-.547.543-.818.818zm113.138 113.137c-28.118 28.092-73.685 28.071-101.777-.046s-28.071-73.685.046-101.777c28.1-28.074 73.631-28.074 101.73 0 28.118 27.746 28.419 73.032.674 101.149-.222.226-.447.451-.673.674z"/></g></g></svg>