<svg height="512" viewBox="0 0 64 64" width="512" xmlns="http://www.w3.org/2000/svg"><g id="Cloud_database" data-name="Cloud database"><path d="m53.95 19.74a5.969 5.969 0 0 0 -5.95-6.74 5.835 5.835 0 0 0 -2.44.52 14 14 0 0 0 -27.12 0 5.835 5.835 0 0 0 -2.44-.52 5.969 5.969 0 0 0 -5.95 6.74 11 11 0 0 0 3.95 21.26h2v-18a4 4 0 0 1 4-4h24a4 4 0 0 1 4 4v18h2c.34 0 .67-.02 1-.05a10.993 10.993 0 0 0 2.95-21.21z" class="product-icon-9bc9ff"/><path d="m44 19h-24a4 4 0 0 0 -4 4v34a4 4 0 0 0 4 4h24a4 4 0 0 0 4-4v-34a4 4 0 0 0 -4-4zm-3 36h-18v-6h18zm2.073-11.931a2.23 2.23 0 0 1 -3.54-.52l-1.048-1.946a10.037 10.037 0 1 1 1.935-2.223l2.133 1.149a2.23 2.23 0 0 1 .52 3.54z" class="product-icon-9bc9ff"/><circle cx="32" cy="33" class="product-icon-9bc9ff" r="2"/><g class="product-icon-1e81ce"><path d="m19 22h2v2h-2z"/><path d="m43 22h2v2h-2z"/><path d="m19 56h2v2h-2z"/><path d="m43 56h2v2h-2z"/><path d="m41 48h-18a1 1 0 0 0 -1 1v6a1 1 0 0 0 1 1h18a1 1 0 0 0 1-1v-6a1 1 0 0 0 -1-1zm-1 6h-16v-4h16z"/><path d="m32 36a3 3 0 1 0 -3-3 3 3 0 0 0 3 3zm0-4a1 1 0 1 1 -1 1 1 1 0 0 1 1-1z"/><path d="m32 44a10.966 10.966 0 0 0 6.152-1.894l.5.921a3.2 3.2 0 0 0 2.375 1.665 3.25 3.25 0 0 0 .48.035 3.193 3.193 0 0 0 2.273-.947 3.23 3.23 0 0 0 -.753-5.128l-1.248-.672a10.9 10.9 0 0 0 1.221-4.98 11 11 0 1 0 -11 11zm10.713-2.687a1.219 1.219 0 0 1 -.347 1.049 1.23 1.23 0 0 1 -1.953-.287l-1.948-3.618 3.618 1.948a1.22 1.22 0 0 1 .63.908zm-10.713-17.313a9.011 9.011 0 0 1 9 9 8.9 8.9 0 0 1 -.978 4.03l-3.548-1.91a1 1 0 0 0 -1.354 1.354l2.08 3.867a9 9 0 1 1 -5.2-16.341z"/><path d="m55 19.1c0-.032 0-.063 0-.095a7.014 7.014 0 0 0 -8.78-6.774 15 15 0 0 0 -28.44 0 7.014 7.014 0 0 0 -8.78 6.769v.095a12 12 0 0 0 5 22.905h1v15a5.006 5.006 0 0 0 5 5h24a5.006 5.006 0 0 0 5-5v-15s1.73-.021 2.089-.054a11.994 11.994 0 0 0 3.911-22.846zm-8 37.9a3 3 0 0 1 -3 3h-24a3 3 0 0 1 -3-3v-34a3 3 0 0 1 3-3h24a3 3 0 0 1 3 3zm3.91-17.046c-.3.027-1.91.046-1.91.046v-17a5.006 5.006 0 0 0 -5-5h-24a5.006 5.006 0 0 0 -5 5v17h-1a10 10 0 0 1 -3.6-19.325 1 1 0 0 0 .637-1.058 5.21 5.21 0 0 1 -.037-.617 5.006 5.006 0 0 1 5-5 4.8 4.8 0 0 1 2.022.429 1 1 0 0 0 1.387-.661 13 13 0 0 1 25.182 0 1 1 0 0 0 1.387.661 4.8 4.8 0 0 1 2.022-.429 5.006 5.006 0 0 1 5 5 5.21 5.21 0 0 1 -.042.617 1 1 0 0 0 .637 1.058 9.993 9.993 0 0 1 -2.685 19.279z"/></g></g></svg>