<svg height="512" viewBox="0 0 512 512" width="512" xmlns="http://www.w3.org/2000/svg"><g><g class="product-icon-9bc9ff"><path d="m480 40v24h-464v-24a24.006 24.006 0 0 1 24-24h416a24.006 24.006 0 0 1 24 24z"/><circle cx="128" cy="152" r="16"/><path d="m144 320h144v16h-144z"/><path d="m328 120h96v32h-96z"/><path d="m480 320v8a23.793 23.793 0 0 1 -1.37 8h-126.63v-16z"/><circle cx="64" cy="40" r="8"/><circle cx="40" cy="40" r="8"/><circle cx="88" cy="40" r="8"/><path d="m168 344h96v32h-96z"/><path d="m144 320h144v16h-144z"/><path d="m168 344h96v32h-96z"/><path d="m328 120h96v32h-96z"/><path d="m328 120h96v32h-96z"/><path d="m352 320h144v176h-144z"/><circle cx="128" cy="152" r="16"/><circle cx="128" cy="152" r="16"/><path d="m24 384h80v80h-80z"/></g><g class="product-icon-1e81ce"><circle cx="64" cy="40" r="8"/><circle cx="40" cy="40" r="8"/><circle cx="88" cy="40" r="8"/><path d="m264 336h-96a8 8 0 0 0 -8 8v32a8 8 0 0 0 8 8h96a8 8 0 0 0 8-8v-32a8 8 0 0 0 -8-8zm-8 32h-80v-16h80z"/><path d="m264 392h-96a8 8 0 0 0 0 16h96a8 8 0 0 0 0-16z"/><path d="m264 416h-96a8 8 0 0 0 0 16h96a8 8 0 0 0 0-16z"/><path d="m264 440h-96a8 8 0 0 0 0 16h96a8 8 0 0 0 0-16z"/><path d="m216 464h-48a8 8 0 0 0 0 16h48a8 8 0 0 0 0-16z"/><path d="m248 464h-8a8 8 0 0 0 0 16h8a8 8 0 0 0 0-16z"/><path d="m328 160h96a8 8 0 0 0 8-8v-32a8 8 0 0 0 -8-8h-96a8 8 0 0 0 -8 8v32a8 8 0 0 0 8 8zm8-32h80v16h-80z"/><path d="m328 184h96a8 8 0 0 0 0-16h-96a8 8 0 0 0 0 16z"/><path d="m328 208h96a8 8 0 0 0 0-16h-96a8 8 0 0 0 0 16z"/><path d="m328 232h96a8 8 0 0 0 0-16h-96a8 8 0 0 0 0 16z"/><path d="m384 248a8 8 0 0 0 -8-8h-48a8 8 0 0 0 0 16h48a8 8 0 0 0 8-8z"/><path d="m408 240h-8a8 8 0 0 0 0 16h8a8 8 0 0 0 0-16z"/><path d="m496 312h-8v-272a32.042 32.042 0 0 0 -32-32h-416a32.042 32.042 0 0 0 -32 32v272a32.042 32.042 0 0 0 32 32h96v72h-24v-32a8 8 0 0 0 -8-8h-80a8 8 0 0 0 -8 8v80a8 8 0 0 0 8 8h80a8 8 0 0 0 8-8v-32h24v64a8 8 0 0 0 8 8h144a8 8 0 0 0 8-8v-152h48v152a8 8 0 0 0 8 8h144a8 8 0 0 0 8-8v-176a8 8 0 0 0 -8-8zm-400 144h-64v-64h64zm-72-416a16.021 16.021 0 0 1 16-16h416a16.021 16.021 0 0 1 16 16v16h-448zm112 280v8h-96a16.021 16.021 0 0 1 -16-16v-240h448v240h-24v-16a8 8 0 0 0 -8-8h-56v-8h64a8 8 0 0 0 8-8v-176a8 8 0 0 0 -8-8h-144a8 8 0 0 0 -8 8v112h-120v-80a24.032 24.032 0 0 0 -24-24h-48a24.032 24.032 0 0 0 -24 24v128a24.032 24.032 0 0 0 24 24h48a24.032 24.032 0 0 0 24-24v-32h120v48a8 8 0 0 0 8 8h64v8h-168a8 8 0 0 0 -8 8v16h-48a8 8 0 0 0 -8 8zm176-56v-160h128v160zm-152-136v128a8.011 8.011 0 0 1 -8 8h-48a8.011 8.011 0 0 1 -8-8v-128a8.011 8.011 0 0 1 8-8h48a8.011 8.011 0 0 1 8 8zm120 360h-128v-160h128zm64-168v8h-48v-8a8 8 0 0 0 -8-8h-80v-8h224v8h-80a8 8 0 0 0 -8 8zm144 168h-128v-160h128z"/><path d="m472 392h-96a8 8 0 0 0 0 16h96a8 8 0 0 0 0-16z"/><path d="m472 416h-96a8 8 0 0 0 0 16h96a8 8 0 0 0 0-16z"/><path d="m368 352a8 8 0 0 0 8 8h96a8 8 0 0 0 0-16h-96a8 8 0 0 0 -8 8z"/><path d="m472 368h-96a8 8 0 0 0 0 16h96a8 8 0 0 0 0-16z"/><path d="m472 440h-96a8 8 0 0 0 0 16h96a8 8 0 0 0 0-16z"/><path d="m424 464h-48a8 8 0 0 0 0 16h48a8 8 0 0 0 0-16z"/><path d="m456 464h-8a8 8 0 0 0 0 16h8a8 8 0 0 0 0-16z"/><path d="m128 128a24 24 0 1 0 24 24 24.028 24.028 0 0 0 -24-24zm0 32a8 8 0 1 1 8-8 8.009 8.009 0 0 1 -8 8z"/><path d="m136 240h-16a8 8 0 0 0 0 16h16a8 8 0 0 0 0-16z"/><path d="m136 216h-16a8 8 0 0 0 0 16h16a8 8 0 0 0 0-16z"/><path d="m136 192h-16a8 8 0 0 0 0 16h16a8 8 0 0 0 0-16z"/><path d="m80 400h-32a8 8 0 0 0 0 16h32a8 8 0 0 0 0-16z"/><path d="m80 424h-32a8 8 0 0 0 0 16h32a8 8 0 0 0 0-16z"/></g></g></svg>