<svg height="512" viewBox="0 0 512 512" width="512" xmlns="http://www.w3.org/2000/svg"><g><g class="product-icon-9bc9ff"><path d="m464 40v24h-448v-24a24.006 24.006 0 0 1 24-24h400a24.006 24.006 0 0 1 24 24z"/><path d="m48 232h48v24h-48z"/><path d="m48 288h48v24h-48z"/><path d="m48 344h48v24h-48z"/><path d="m232 232h48v24h-48z"/><path d="m48 96h384v104h-384z"/><path d="m464 305.62-181.21 126.38a112.007 112.007 0 0 1 181.21-126.38z"/><circle cx="39" cy="40" r="8"/><circle cx="64" cy="40" r="8"/><circle cx="88" cy="40" r="8"/><path d="m48 232h48v24h-48z"/><path d="m48 288h48v24h-48z"/><path d="m48 344h48v24h-48z"/><path d="m232 232h48v24h-48z"/><path d="m496 384a112.006 112.006 0 1 1 -32-78.38 111.995 111.995 0 0 1 32 78.38z"/><path d="m48 96h384v104h-384z"/></g><g class="product-icon-1e81ce"><circle cx="39" cy="40" r="8"/><circle cx="64" cy="40" r="8"/><circle cx="88" cy="40" r="8"/><path d="m96 224h-48a8 8 0 0 0 -8 8v24a8 8 0 0 0 8 8h48a8 8 0 0 0 8-8v-24a8 8 0 0 0 -8-8zm-8 24h-32v-8h32z"/><path d="m200 224h-80a8 8 0 0 0 0 16h80a8 8 0 0 0 0-16z"/><path d="m120 264h24a8 8 0 0 0 0-16h-24a8 8 0 0 0 0 16z"/><path d="m96 280h-48a8 8 0 0 0 -8 8v24a8 8 0 0 0 8 8h48a8 8 0 0 0 8-8v-24a8 8 0 0 0 -8-8zm-8 24h-32v-8h32z"/><path d="m200 280h-80a8 8 0 0 0 0 16h80a8 8 0 0 0 0-16z"/><path d="m120 320h24a8 8 0 0 0 0-16h-24a8 8 0 0 0 0 16z"/><path d="m96 336h-48a8 8 0 0 0 -8 8v24a8 8 0 0 0 8 8h48a8 8 0 0 0 8-8v-24a8 8 0 0 0 -8-8zm-8 24h-32v-8h32z"/><path d="m200 336h-80a8 8 0 0 0 0 16h80a8 8 0 0 0 0-16z"/><path d="m144 360h-24a8 8 0 0 0 0 16h24a8 8 0 0 0 0-16z"/><path d="m288 256v-24a8 8 0 0 0 -8-8h-48a8 8 0 0 0 -8 8v24a8 8 0 0 0 8 8h48a8 8 0 0 0 8-8zm-16-8h-32v-8h32z"/><path d="m384 224h-80a8 8 0 0 0 0 16h80a8 8 0 0 0 0-16z"/><path d="m328 248h-24a8 8 0 0 0 0 16h24a8 8 0 0 0 0-16z"/><path d="m472 302.51v-262.51a32.042 32.042 0 0 0 -32-32h-400a32.036 32.036 0 0 0 -32 32v368a32.036 32.036 0 0 0 32 32h237.9a119.965 119.965 0 1 0 194.1-137.49zm-448-262.51a16.021 16.021 0 0 1 16-16h400a16.021 16.021 0 0 1 16 16v16h-432zm246.86 384h-230.86a16.021 16.021 0 0 1 -16-16v-336h432v216.06a119.976 119.976 0 0 0 -185.14 135.94zm113.14 64a104 104 0 1 1 104-104 104.112 104.112 0 0 1 -104 104z"/><path d="m427.562 425.344c-29.312 19.541-57.812 19.541-87.124 0a8 8 0 1 0 -8.876 13.312c17.4 11.6 34.917 17.4 52.438 17.4s35.04-5.8 52.438-17.4a8 8 0 0 0 -8.876-13.312z"/><path d="m346.343 381.657a8 8 0 0 0 11.314-11.314c-13.763-13.762-29.551-13.762-43.314 0a8 8 0 0 0 11.314 11.314c7.543-7.541 13.143-7.541 20.686 0z"/><path d="m410.343 370.343a8 8 0 0 0 11.314 11.314c7.539-7.541 13.147-7.541 20.686 0a8 8 0 0 0 11.314-11.314c-13.763-13.762-29.551-13.762-43.314 0z"/><path d="m48 208h384a8 8 0 0 0 8-8v-104a8 8 0 0 0 -8-8h-384a8 8 0 0 0 -8 8v104a8 8 0 0 0 8 8zm8-104h368v88h-368z"/></g></g></svg>