<svg height="512" viewBox="0 0 64 64" width="512" xmlns="http://www.w3.org/2000/svg"><g id="Cloud_network" data-name="Cloud network"><g class="product-icon-9bc9ff"><path d="m39 57v2a2 2 0 0 0 2 2h18a2 2 0 0 0 2-2v-2z"/><path d="m59 57v-10a2 2 0 0 0 -2-2h-14a2 2 0 0 0 -2 2v10zm-15-9h12v6h-12z"/><path d="m3 57v2a2 2 0 0 0 2 2h18a2 2 0 0 0 2-2v-2z"/><path d="m21 45h-14a2 2 0 0 0 -2 2v10h18v-10a2 2 0 0 0 -2-2zm-1 9h-12v-6h12z"/><path d="m51 40.95a10.993 10.993 0 0 0 2.95-21.21 5.969 5.969 0 0 0 -5.95-6.74 5.835 5.835 0 0 0 -2.44.52 14 14 0 0 0 -27.12 0 5.835 5.835 0 0 0 -2.44-.52 5.969 5.969 0 0 0 -5.95 6.74 11 11 0 0 0 3.95 21.26h18v-6h-9a2 2 0 0 1 -2-2v-2h2v-10a2 2 0 0 1 2-2h14a2 2 0 0 1 2 2v10h2v2a2 2 0 0 1 -2 2h-9v6h18c.34 0 .67-.02 1-.05z"/><path d="m43 33v-2h-22v2a2 2 0 0 0 2 2h18a2 2 0 0 0 2-2z"/><path d="m41 21a2 2 0 0 0 -2-2h-14a2 2 0 0 0 -2 2v10h18zm-3 7h-12v-6h12z"/><path d="m51 41v-.05c-.33.03-.66.05-1 .05z"/></g><path d="m61 56h-1v-9a3 3 0 0 0 -3-3h-14a3 3 0 0 0 -3 3v3h-5.184a3 3 0 0 0 -1.816-1.816v-6.184s17.73-.021 18.089-.054a11.994 11.994 0 0 0 3.911-22.846c0-.032 0-.063 0-.095a7.014 7.014 0 0 0 -8.78-6.774 15 15 0 0 0 -28.44 0 7.014 7.014 0 0 0 -8.78 6.769v.095a12 12 0 0 0 5 22.905h17v6.184a3 3 0 0 0 -1.816 1.816h-5.184v-3a3 3 0 0 0 -3-3h-14a3 3 0 0 0 -3 3v9h-1a1 1 0 0 0 -1 1v2a3 3 0 0 0 3 3h18a3 3 0 0 0 3-3v-2a1 1 0 0 0 -1-1h-1v-4h5.184a2.982 2.982 0 0 0 5.632 0h5.184v4h-1a1 1 0 0 0 -1 1v2a3 3 0 0 0 3 3h18a3 3 0 0 0 3-3v-2a1 1 0 0 0 -1-1zm-47-16a10 10 0 0 1 -3.6-19.325 1 1 0 0 0 .637-1.058 5.21 5.21 0 0 1 -.037-.617 5.006 5.006 0 0 1 5-5 4.8 4.8 0 0 1 2.022.429 1 1 0 0 0 1.387-.661 13 13 0 0 1 25.182 0 1 1 0 0 0 1.387.661 4.8 4.8 0 0 1 2.022-.429 5.006 5.006 0 0 1 5 5 5.21 5.21 0 0 1 -.042.617 1 1 0 0 0 .637 1.058 9.993 9.993 0 0 1 -2.685 19.279c-.3.027-17.91.046-17.91.046v-4h8a3 3 0 0 0 3-3v-2a1 1 0 0 0 -1-1h-1v-9a3 3 0 0 0 -3-3h-14a3 3 0 0 0 -3 3v9h-1a1 1 0 0 0 -1 1v2a3 3 0 0 0 3 3h8v4zm26-10h-16v-9a1 1 0 0 1 1-1h14a1 1 0 0 1 1 1zm2 2v1a1 1 0 0 1 -1 1h-18a1 1 0 0 1 -1-1v-1zm-18 27a1 1 0 0 1 -1 1h-18a1 1 0 0 1 -1-1v-1h20zm-18-3v-9a1 1 0 0 1 1-1h14a1 1 0 0 1 1 1v9zm26-4a1 1 0 1 1 1-1 1 1 0 0 1 -1 1zm10-5a1 1 0 0 1 1-1h14a1 1 0 0 1 1 1v9h-16zm18 12a1 1 0 0 1 -1 1h-18a1 1 0 0 1 -1-1v-1h20z" class="product-icon-1e81ce"/><path d="m56 47h-12a1 1 0 0 0 -1 1v6a1 1 0 0 0 1 1h12a1 1 0 0 0 1-1v-6a1 1 0 0 0 -1-1zm-1 6h-10v-4h10z" class="product-icon-1e81ce"/><path d="m38 21h-12a1 1 0 0 0 -1 1v6a1 1 0 0 0 1 1h12a1 1 0 0 0 1-1v-6a1 1 0 0 0 -1-1zm-1 6h-10v-4h10z" class="product-icon-1e81ce"/><path d="m20 47h-12a1 1 0 0 0 -1 1v6a1 1 0 0 0 1 1h12a1 1 0 0 0 1-1v-6a1 1 0 0 0 -1-1zm-1 6h-10v-4h10z" class="product-icon-1e81ce"/></g></svg>