<svg height="512" viewBox="0 0 64 64" width="512" xmlns="http://www.w3.org/2000/svg"><g id="Cloud_server_network" data-name="Cloud server network"><path d="m53.95 19.74a5.969 5.969 0 0 0 -5.95-6.74 5.835 5.835 0 0 0 -2.44.52 14 14 0 0 0 -27.12 0 5.835 5.835 0 0 0 -2.44-.52 5.969 5.969 0 0 0 -5.95 6.74 11 11 0 0 0 3.95 21.26h2.278a1.991 1.991 0 0 1 1.722-1h2v-3h-2a2 2 0 0 1 -2-2v-4a2 2 0 0 1 2-2h2v-3h-2a2 2 0 0 1 -2-2v-4a2 2 0 0 1 2-2h28a2 2 0 0 1 2 2v4a2 2 0 0 1 -2 2h-2v3h2a2 2 0 0 1 2 2v4a2 2 0 0 1 -2 2h-2v3h2a1.994 1.994 0 0 1 1.7.965c1.988-.005 3.237-.01 3.3-.015a10.993 10.993 0 0 0 2.95-21.21z" class="product-icon-9bc9ff"/><path d="m46 18h-28a2 2 0 0 0 -2 2v4a2 2 0 0 0 2 2h28a2 2 0 0 0 2-2v-4a2 2 0 0 0 -2-2z" class="product-icon-9bc9ff"/><path d="m46 29h-28a2 2 0 0 0 -2 2v4a2 2 0 0 0 2 2h28a2 2 0 0 0 2-2v-4a2 2 0 0 0 -2-2z" class="product-icon-9bc9ff"/><path d="m47.7 40.965c-7.386.018-25.121.03-31.426.034a1.979 1.979 0 0 0 -.274 1.001v4a2 2 0 0 0 2 2h28a2 2 0 0 0 2-2v-4a1.987 1.987 0 0 0 -.3-1.035z" class="product-icon-9bc9ff"/><path d="m46 40h-28a1.991 1.991 0 0 0 -1.722 1c6.305 0 24.04-.016 31.426-.034a1.994 1.994 0 0 0 -1.704-.966z" class="product-icon-9bc9ff"/><g class="product-icon-1e81ce"><path d="m33 56.184v-4.184h11a1 1 0 0 0 1-1v-2h1a3 3 0 0 0 3-3v-4s1.73-.021 2.089-.054a11.994 11.994 0 0 0 3.911-22.846c0-.032 0-.063 0-.095a7.014 7.014 0 0 0 -8.78-6.774 15 15 0 0 0 -28.44 0 7.014 7.014 0 0 0 -8.78 6.769v.095a12 12 0 0 0 5 22.905h1v4a3 3 0 0 0 3 3h1v2a1 1 0 0 0 1 1h11v4.184a3 3 0 0 0 -1.816 1.816h-27.184v2h27.184a2.982 2.982 0 0 0 5.632 0h27.184v-2h-27.184a3 3 0 0 0 -1.816-1.816zm-19-16.184a10 10 0 0 1 -3.6-19.325 1 1 0 0 0 .637-1.06 4.97 4.97 0 0 1 4.963-5.615 4.8 4.8 0 0 1 2.023.429 1 1 0 0 0 1.386-.661 13 13 0 0 1 25.182 0 1 1 0 0 0 1.386.661 4.8 4.8 0 0 1 2.023-.429 4.97 4.97 0 0 1 4.958 5.615 1 1 0 0 0 .637 1.06 9.993 9.993 0 0 1 -2.685 19.279c-.3.027-2.69.046-2.69.046a2.985 2.985 0 0 0 -2.22-1h-1v-1h1a3 3 0 0 0 3-3v-4a3 3 0 0 0 -3-3h-1v-1h1a3 3 0 0 0 3-3v-4a3 3 0 0 0 -3-3h-28a3 3 0 0 0 -3 3v4a3 3 0 0 0 3 3h1v1h-1a3 3 0 0 0 -3 3v4a3 3 0 0 0 3 3h1v1h-1a2.985 2.985 0 0 0 -2.22 1zm4-15a1 1 0 0 1 -1-1v-4a1 1 0 0 1 1-1h28a1 1 0 0 1 1 1v4a1 1 0 0 1 -1 1zm25 2v1h-22v-1zm3 3a1 1 0 0 1 1 1v4a1 1 0 0 1 -1 1h-28a1 1 0 0 1 -1-1v-4a1 1 0 0 1 1-1zm-3 8v1h-22v-1zm-26 8v-4a1 1 0 0 1 1-1h28a1 1 0 0 1 1 1v4a1 1 0 0 1 -1 1h-28a1 1 0 0 1 -1-1zm4 3h22v1h-22zm11 11a1 1 0 1 1 1-1 1 1 0 0 1 -1 1z"/><path d="m19 20h2v4h-2z"/><path d="m23 20h2v4h-2z"/><path d="m27 20h2v4h-2z"/><path d="m31 20h2v4h-2z"/><path d="m19 31h2v4h-2z"/><path d="m23 31h2v4h-2z"/><path d="m27 31h2v4h-2z"/><path d="m31 31h2v4h-2z"/><path d="m19 42h2v4h-2z"/><path d="m23 42h2v4h-2z"/><path d="m27 42h2v4h-2z"/><path d="m31 42h2v4h-2z"/><path d="m43 21h2v2h-2z"/><path d="m39 21h2v2h-2z"/><path d="m43 32h2v2h-2z"/><path d="m39 32h2v2h-2z"/><path d="m43 43h2v2h-2z"/><path d="m39 43h2v2h-2z"/></g></g></svg>