<svg height="512" viewBox="0 0 512 512" width="512" xmlns="http://www.w3.org/2000/svg"><g><g class="product-icon-9bc9ff"><path d="m240 16h32v48h-32z"/><path d="m240 448h32v48h-32z"/><path d="m448 240h48v32h-48z"/><path d="m16 240h48v32h-48z"/><g><path d="m312 232v56a48 48 0 0 1 -48 48h-8v-104z"/><path d="m256 232v104h-8a48 48 0 0 1 -48-48v-56z"/></g></g><g class="product-icon-1e81ce"><path d="m496 232h-17.29a224.007 224.007 0 0 0 -198.71-198.71v-17.29a8 8 0 0 0 -8-8h-32a8 8 0 0 0 -8 8v17.29a224.007 224.007 0 0 0 -198.71 198.71h-17.29a8 8 0 0 0 -8 8v32a8 8 0 0 0 8 8h17.29a224.007 224.007 0 0 0 198.71 198.71v17.29a8 8 0 0 0 8 8h32a8 8 0 0 0 8-8v-17.29a224.007 224.007 0 0 0 198.71-198.71h17.29a8 8 0 0 0 8-8v-32a8 8 0 0 0 -8-8zm-248-208h16v32h-16zm-224 240v-16h32v16zm240 224h-16v-32h16zm139.08-84.92a207.819 207.819 0 0 1 -123.08 59.54v-14.62a8 8 0 0 0 -8-8h-32a8 8 0 0 0 -8 8v14.62a208.033 208.033 0 0 1 -182.62-182.62h14.62a8 8 0 0 0 8-8v-32a8 8 0 0 0 -8-8h-14.62a208.033 208.033 0 0 1 182.62-182.62v14.62a8 8 0 0 0 8 8h32a8 8 0 0 0 8-8v-14.62a208.033 208.033 0 0 1 182.62 182.62h-14.62a8 8 0 0 0 -8 8v32a8 8 0 0 0 8 8h14.62a207.819 207.819 0 0 1 -59.54 123.08zm84.92-139.08h-32v-16h32z"/><path d="m320.01 232a8.021 8.021 0 0 0 3.57-.84l32-16a8.011 8.011 0 0 0 4.42-7.16v-40a8 8 0 0 0 -16 0v35.06l-24.66 12.33a55.422 55.422 0 0 0 -5.86-17.57 9.954 9.954 0 0 0 .77-.82l12-15a8 8 0 1 0 -12.5-10l-10.04 12.56a55.816 55.816 0 0 0 -39.71-16.56h-16a55.859 55.859 0 0 0 -39.64 16.48l-9.96-13.28a8 8 0 0 0 -12.8 9.6l12 16a8.056 8.056 0 0 0 .92 1.01 55.563 55.563 0 0 0 -5.86 17.58l-24.66-12.33v-35.06a8 8 0 0 0 -16 0v40a8.011 8.011 0 0 0 4.42 7.16l32 16a8.021 8.021 0 0 0 3.57.84h.01v16h-24a8 8 0 0 0 0 16h24v24.01a8.05 8.05 0 0 0 -3.58.83l-32 16a8.011 8.011 0 0 0 -4.42 7.16v40a8 8 0 0 0 16 0v-35.06l26.28-13.14a56.1 56.1 0 0 0 53.72 40.2h16a56.1 56.1 0 0 0 53.72-40.2l26.28 13.14v35.06a8 8 0 0 0 16 0v-40a8.011 8.011 0 0 0 -4.42-7.16l-32-16a8.05 8.05 0 0 0 -3.58-.83v-24.01h24a8 8 0 0 0 0-16h-24v-16zm-72.01 96a40.04 40.04 0 0 1 -40-40v-48h40zm56-40a40.04 40.04 0 0 1 -40 40v-88h40zm-96-64a40.04 40.04 0 0 1 40-40h16a40.04 40.04 0 0 1 40 40z"/><path d="m136 248h-48a8 8 0 0 0 0 16h48a8 8 0 0 0 0-16z"/><path d="m424 248h-48a8 8 0 0 0 0 16h48a8 8 0 0 0 0-16z"/><path d="m256 368a8 8 0 0 0 -8 8v48a8 8 0 0 0 16 0v-48a8 8 0 0 0 -8-8z"/><path d="m256 144a8 8 0 0 0 8-8v-48a8 8 0 0 0 -16 0v48a8 8 0 0 0 8 8z"/></g></g></svg>