<?xml version="1.0"?>
<svg xmlns="http://www.w3.org/2000/svg" viewBox="0 0 64 64" width="512" height="512">
    <g id="Cloud_service" data-name="Cloud service">
        <path d="M14,41V38h4.32a13.969,13.969,0,0,1,1.89-4.55l-3.06-3.06,4.24-4.24,3.06,3.06A13.969,13.969,0,0,1,29,27.32V23h6v4.32a13.969,13.969,0,0,1,4.55,1.89l3.06-3.06,4.24,4.24-3.06,3.06A13.969,13.969,0,0,1,45.68,38H50v3c.34,0,.67-.02,1-.05a10.993,10.993,0,0,0,2.95-21.21A5.969,5.969,0,0,0,48,13a5.835,5.835,0,0,0-2.44.52,14,14,0,0,0-27.12,0A5.835,5.835,0,0,0,16,13a5.969,5.969,0,0,0-5.95,6.74A11,11,0,0,0,14,41Z"
              style="fill:#fff"/>
        <path d="M45.68,38a13.969,13.969,0,0,0-1.89-4.55l3.06-3.06-4.24-4.24-3.06,3.06A13.969,13.969,0,0,0,35,27.32V23H29v4.32a13.969,13.969,0,0,0-4.55,1.89l-3.06-3.06-4.24,4.24,3.06,3.06A13.969,13.969,0,0,0,18.32,38H14v6h4.32a13.969,13.969,0,0,0,1.89,4.55l-3.06,3.06,4.24,4.24,3.06-3.06A13.969,13.969,0,0,0,29,54.68V59h6V54.68a13.969,13.969,0,0,0,4.55-1.89l3.06,3.06,4.24-4.24-3.06-3.06A13.969,13.969,0,0,0,45.68,44H50V38ZM32,50a9,9,0,1,1,9-9A9,9,0,0,1,32,50Z"
              style="fill:#fff"/>
        <circle cx="32" cy="41" r="4" class="product-icon-9bc9ff"/>
        <path d="M32,31A10,10,0,1,0,42,41,10.011,10.011,0,0,0,32,31Zm0,18a8,8,0,1,1,8-8A8.009,8.009,0,0,1,32,49Z"
              class="product-icon-1e81ce"/>
        <path d="M32,36a5,5,0,1,0,5,5A5.006,5.006,0,0,0,32,36Zm0,8a3,3,0,1,1,3-3A3,3,0,0,1,32,44Z"
              class="product-icon-1e81ce"/>
        <path d="M55,19.1c0-.032,0-.063,0-.095a7.014,7.014,0,0,0-8.78-6.774,15,15,0,0,0-28.44,0A7.014,7.014,0,0,0,9,19c0,.032,0,.063,0,.095a11.991,11.991,0,0,0,4,22.854V44a1,1,0,0,0,1,1h3.538a14.885,14.885,0,0,0,1.411,3.4L16.443,50.9a1,1,0,0,0,0,1.414l4.24,4.24a1,1,0,0,0,1.414,0L24.6,54.051A14.886,14.886,0,0,0,28,55.462V59a1,1,0,0,0,1,1h6a1,1,0,0,0,1-1V55.462a14.9,14.9,0,0,0,3.4-1.411L41.9,56.557a1.028,1.028,0,0,0,1.414,0l4.24-4.24a1,1,0,0,0,0-1.414L45.051,48.4A14.885,14.885,0,0,0,46.462,45H50a1,1,0,0,0,1-1V41.951c.029,0,.06,0,.089-.005A11.994,11.994,0,0,0,55,19.1ZM49,43H45.68a1,1,0,0,0-.977.786,12.9,12.9,0,0,1-1.755,4.223,1,1,0,0,0,.135,1.248l2.353,2.353L42.61,54.436l-2.353-2.353a1,1,0,0,0-1.247-.134A12.96,12.96,0,0,1,34.785,53.7,1,1,0,0,0,34,54.68V58H30V54.68a1,1,0,0,0-.785-.976,12.96,12.96,0,0,1-4.225-1.755,1,1,0,0,0-1.247.134L21.39,54.436,18.564,51.61l2.353-2.353a1,1,0,0,0,.135-1.248A12.9,12.9,0,0,1,19.3,43.786,1,1,0,0,0,18.32,43H15V39h3.32a1,1,0,0,0,.977-.786,12.9,12.9,0,0,1,1.755-4.223,1,1,0,0,0-.135-1.248L18.564,30.39l2.826-2.826,2.353,2.353a1,1,0,0,0,1.247.134A12.96,12.96,0,0,1,29.215,28.3,1,1,0,0,0,30,27.32V24h4v3.32a1,1,0,0,0,.785.976,12.96,12.96,0,0,1,4.225,1.755,1,1,0,0,0,1.247-.134l2.353-2.353,2.826,2.826-2.353,2.353a1,1,0,0,0-.135,1.248A12.9,12.9,0,0,1,44.7,38.214,1,1,0,0,0,45.68,39H49Zm2-3.058V38a1,1,0,0,0-1-1H46.462a14.885,14.885,0,0,0-1.411-3.4L47.557,31.1a1,1,0,0,0,0-1.414l-4.24-4.24a1,1,0,0,0-1.414,0L39.4,27.949A14.9,14.9,0,0,0,36,26.538V23a1,1,0,0,0-1-1H29a1,1,0,0,0-1,1v3.538a14.886,14.886,0,0,0-3.4,1.411L22.1,25.443a1.029,1.029,0,0,0-1.414,0l-4.24,4.24a1,1,0,0,0,0,1.414L18.949,33.6A14.885,14.885,0,0,0,17.538,37H14a1,1,0,0,0-1,1v1.949a10,10,0,0,1-2.6-19.274,1,1,0,0,0,.637-1.06A4.97,4.97,0,0,1,16,14a4.8,4.8,0,0,1,2.023.429,1,1,0,0,0,1.386-.661,13,13,0,0,1,25.182,0,1,1,0,0,0,1.386.661A4.8,4.8,0,0,1,48,14a4.97,4.97,0,0,1,4.958,5.615,1,1,0,0,0,.637,1.06A9.991,9.991,0,0,1,51,39.942Z"
              class="product-icon-1e81ce"/>
    </g>
</svg>
