<svg height="512" viewBox="0 0 512 512" width="512" xmlns="http://www.w3.org/2000/svg"><g><g class="product-icon-9bc9ff"><path d="m496 40v24h-480v-24a24.006 24.006 0 0 1 24-24h432a24.006 24.006 0 0 1 24 24z"/><g><path d="m312 256v56a48 48 0 0 1 -48 48h-8v-104z"/><path d="m256 256v104h-8a48 48 0 0 1 -48-48v-56z"/></g></g><g class="product-icon-1e81ce"><path d="m472 8h-432a32.03 32.03 0 0 0 -32 32v432a32.03 32.03 0 0 0 32 32h432a32.03 32.03 0 0 0 32-32v-432a32.03 32.03 0 0 0 -32-32zm16 464a16.021 16.021 0 0 1 -16 16h-432a16.021 16.021 0 0 1 -16-16v-400h464zm0-416h-464v-16a16.021 16.021 0 0 1 16-16h432a16.021 16.021 0 0 1 16 16z"/><circle cx="39" cy="40" r="8"/><circle cx="64" cy="40" r="8"/><circle cx="88" cy="40" r="8"/><path d="m320.01 256a8.021 8.021 0 0 0 3.57-.84l32-16a8.011 8.011 0 0 0 4.42-7.16v-40a8 8 0 0 0 -16 0v35.06l-24.66 12.33a55.422 55.422 0 0 0 -5.86-17.57 9.954 9.954 0 0 0 .77-.82l12-15a8 8 0 1 0 -12.5-10l-10.04 12.56a55.816 55.816 0 0 0 -39.71-16.56h-16a55.859 55.859 0 0 0 -39.64 16.48l-9.96-13.28a8 8 0 0 0 -12.8 9.6l12 16a8.056 8.056 0 0 0 .92 1.01 55.563 55.563 0 0 0 -5.86 17.58l-24.66-12.33v-35.06a8 8 0 0 0 -16 0v40a8.011 8.011 0 0 0 4.42 7.16l32 16a8.021 8.021 0 0 0 3.57.84h.01v16h-24a8 8 0 0 0 0 16h24v24.01a8.05 8.05 0 0 0 -3.58.83l-32 16a8.011 8.011 0 0 0 -4.42 7.16v40a8 8 0 0 0 16 0v-35.06l26.28-13.14a56.1 56.1 0 0 0 53.72 40.2h16a56.1 56.1 0 0 0 53.72-40.2l26.28 13.14v35.06a8 8 0 0 0 16 0v-40a8.011 8.011 0 0 0 -4.42-7.16l-32-16a8.05 8.05 0 0 0 -3.58-.83v-24.01h24a8 8 0 0 0 0-16h-24v-16zm-72.01 96a40.04 40.04 0 0 1 -40-40v-48h40zm56-40a40.04 40.04 0 0 1 -40 40v-88h40zm-96-64a40.04 40.04 0 0 1 40-40h16a40.04 40.04 0 0 1 40 40z"/><path d="m48 104v56a8 8 0 0 0 16 0v-64a8 8 0 0 0 -8-8h-8a8 8 0 0 0 0 16z"/><path d="m80 168h32a8 8 0 0 0 8-8v-64a8 8 0 0 0 -8-8h-32a8 8 0 0 0 -8 8v64a8 8 0 0 0 8 8zm8-64h16v48h-16z"/><path d="m192 104v56a8 8 0 0 0 16 0v-64a8 8 0 0 0 -8-8h-8a8 8 0 0 0 0 16z"/><path d="m160 104v56a8 8 0 0 0 16 0v-64a8 8 0 0 0 -8-8h-8a8 8 0 0 0 0 16z"/><path d="m224 168h32a8 8 0 0 0 8-8v-64a8 8 0 0 0 -8-8h-32a8 8 0 0 0 -8 8v64a8 8 0 0 0 8 8zm8-64h16v48h-16z"/><path d="m424 104v56a8 8 0 0 0 16 0v-64a8 8 0 0 0 -8-8h-8a8 8 0 0 0 0 16z"/><path d="m464 88h-8a8 8 0 0 0 0 16v56a8 8 0 0 0 16 0v-64a8 8 0 0 0 -8-8z"/><path d="m368 168h32a8 8 0 0 0 8-8v-64a8 8 0 0 0 -8-8h-32a8 8 0 0 0 -8 8v64a8 8 0 0 0 8 8zm8-64h16v48h-16z"/><path d="m280 168h32a8 8 0 0 0 8-8v-64a8 8 0 0 0 -8-8h-32a8 8 0 0 0 -8 8v64a8 8 0 0 0 8 8zm8-64h16v48h-16z"/><path d="m376 192a8 8 0 0 0 -8 8v64a8 8 0 0 0 8 8h32a8 8 0 0 0 8-8v-64a8 8 0 0 0 -8-8zm24 64h-16v-48h16z"/><path d="m464 192h-32a8 8 0 0 0 -8 8v64a8 8 0 0 0 8 8h32a8 8 0 0 0 8-8v-64a8 8 0 0 0 -8-8zm-8 64h-16v-48h16z"/><path d="m416 296a8 8 0 0 0 -8-8h-32a8 8 0 0 0 -8 8v64a8 8 0 0 0 8 8h32a8 8 0 0 0 8-8zm-16 56h-16v-48h16z"/><path d="m464 288h-32a8 8 0 0 0 -8 8v64a8 8 0 0 0 8 8h32a8 8 0 0 0 8-8v-64a8 8 0 0 0 -8-8zm-8 64h-16v-48h16z"/><path d="m56 392h-8a8 8 0 0 0 0 16v56a8 8 0 0 0 16 0v-64a8 8 0 0 0 -8-8z"/><path d="m136 392h-32a8 8 0 0 0 -8 8v64a8 8 0 0 0 8 8h32a8 8 0 0 0 8-8v-64a8 8 0 0 0 -8-8zm-8 64h-16v-48h16z"/><path d="m200 392h-8a8 8 0 0 0 0 16v56a8 8 0 0 0 16 0v-64a8 8 0 0 0 -8-8z"/><path d="m168 392h-8a8 8 0 0 0 0 16v56a8 8 0 0 0 16 0v-64a8 8 0 0 0 -8-8z"/><path d="m80 288h-32a8 8 0 0 0 -8 8v64a8 8 0 0 0 8 8h32a8 8 0 0 0 8-8v-64a8 8 0 0 0 -8-8zm-8 64h-16v-48h16z"/><path d="m112 368a8 8 0 0 0 8-8v-64a8 8 0 0 0 -8-8h-8a8 8 0 0 0 0 16v56a8 8 0 0 0 8 8z"/><path d="m256 392h-32a8 8 0 0 0 -8 8v64a8 8 0 0 0 8 8h32a8 8 0 0 0 8-8v-64a8 8 0 0 0 -8-8zm-8 64h-16v-48h16z"/><path d="m400 392h-8a8 8 0 0 0 0 16v56a8 8 0 0 0 16 0v-64a8 8 0 0 0 -8-8z"/><path d="m432 392h-8a8 8 0 0 0 0 16v56a8 8 0 0 0 16 0v-64a8 8 0 0 0 -8-8z"/><path d="m368 392h-32a8 8 0 0 0 -8 8v64a8 8 0 0 0 8 8h32a8 8 0 0 0 8-8v-64a8 8 0 0 0 -8-8zm-8 64h-16v-48h16z"/><path d="m312 392h-32a8 8 0 0 0 -8 8v64a8 8 0 0 0 8 8h32a8 8 0 0 0 8-8v-64a8 8 0 0 0 -8-8zm-8 64h-16v-48h16z"/><path d="m144 120h-8a8 8 0 0 0 0 16h8a8 8 0 0 0 0-16z"/><path d="m336 136h8a8 8 0 0 0 0-16h-8a8 8 0 0 0 0 16z"/><path d="m464 424h-8a8 8 0 0 0 0 16h8a8 8 0 0 0 0-16z"/><path d="m48 208v56a8 8 0 0 0 16 0v-64a8 8 0 0 0 -8-8h-8a8 8 0 0 0 0 16z"/><path d="m96 200a8 8 0 0 0 -8-8h-8a8 8 0 0 0 0 16v56a8 8 0 0 0 16 0z"/><path d="m112 224a8 8 0 0 0 0 16h8a8 8 0 0 0 0-16z"/><path d="m80 424h-8a8 8 0 0 0 0 16h8a8 8 0 0 0 0-16z"/></g></g></svg>