<svg height="512" viewBox="0 0 512 512" width="512" xmlns="http://www.w3.org/2000/svg"><g><g class="product-icon-9bc9ff"><circle cx="112" cy="440" r="16"/><circle cx="168" cy="440" r="16"/><circle cx="112" cy="72" r="16"/><circle cx="168" cy="72" r="16"/><path d="m240 208h-24v176h-32v-176h-24l40-48z"/><path d="m272 304h24v-175h32v175h24l-40 48z"/></g><g class="product-icon-1e81ce"><path d="m424 376h-200v-160h16a8 8 0 0 0 6.15-13.12l-40-48a8.006 8.006 0 0 0 -12.3 0l-40 48a8 8 0 0 0 6.15 13.12h16v160h-88a32.036 32.036 0 0 0 -32 32v64a32.036 32.036 0 0 0 32 32h336a32.042 32.042 0 0 0 32-32v-64a32.042 32.042 0 0 0 -32-32zm-224-203.5 22.92 27.5h-6.92a8 8 0 0 0 -8 8v168h-16v-168a8 8 0 0 0 -8-8h-6.92zm240 299.5a16.021 16.021 0 0 1 -16 16h-336a16.021 16.021 0 0 1 -16-16v-64a16.021 16.021 0 0 1 16-16h336a16.021 16.021 0 0 1 16 16z"/><path d="m112 416a24 24 0 1 0 24 24 24.028 24.028 0 0 0 -24-24zm0 32a8 8 0 1 1 8-8 8.009 8.009 0 0 1 -8 8z"/><path d="m168 416a24 24 0 1 0 24 24 24.028 24.028 0 0 0 -24-24zm0 32a8 8 0 1 1 8-8 8.009 8.009 0 0 1 -8 8z"/><path d="m416 416h-96a8 8 0 0 0 0 16h96a8 8 0 0 0 0-16z"/><path d="m416 448h-40a8 8 0 0 0 0 16h40a8 8 0 0 0 0-16z"/><path d="m296 416h-8a8 8 0 0 0 0 16h8a8 8 0 0 0 0-16z"/><path d="m424 8h-336a32.036 32.036 0 0 0 -32 32v64a32.036 32.036 0 0 0 32 32h200v160h-16a8 8 0 0 0 -6.146 13.121l40 48a8 8 0 0 0 12.292 0l40-48a8 8 0 0 0 -6.146-13.121h-16v-160h88a32.036 32.036 0 0 0 32-32v-64a32.036 32.036 0 0 0 -32-32zm-112 331.5-22.92-27.5h6.92a8 8 0 0 0 8-8v-167h16v167a8 8 0 0 0 8 8h6.92zm128-235.5a16.019 16.019 0 0 1 -16 16h-336a16.019 16.019 0 0 1 -16-16v-64a16.019 16.019 0 0 1 16-16h336a16.019 16.019 0 0 1 16 16z"/><path d="m112 48a24 24 0 1 0 24 24 24.028 24.028 0 0 0 -24-24zm0 32a8 8 0 1 1 8-8 8.009 8.009 0 0 1 -8 8z"/><path d="m168 48a24 24 0 1 0 24 24 24.028 24.028 0 0 0 -24-24zm0 32a8 8 0 1 1 8-8 8.009 8.009 0 0 1 -8 8z"/><path d="m416 48h-96a8 8 0 0 0 0 16h96a8 8 0 0 0 0-16z"/><path d="m416 80h-40a8 8 0 0 0 0 16h40a8 8 0 0 0 0-16z"/><path d="m296 48h-8a8 8 0 0 0 0 16h8a8 8 0 0 0 0-16z"/><path d="m160 328a8 8 0 0 0 8-8v-80a8 8 0 0 0 -16 0v80a8 8 0 0 0 8 8z"/><path d="m152 352a8 8 0 0 0 16 0v-8a8 8 0 0 0 -16 0z"/><path d="m240 224a8 8 0 0 0 -8 8v24a8 8 0 0 0 16 0v-24a8 8 0 0 0 -8-8z"/><path d="m272 280a8 8 0 0 0 8-8v-88a8 8 0 0 0 -16 0v88a8 8 0 0 0 8 8z"/><path d="m344 280a8 8 0 0 0 16 0v-32a8 8 0 0 0 -16 0z"/><path d="m352 232a8 8 0 0 0 8-8v-8a8 8 0 0 0 -16 0v8a8 8 0 0 0 8 8z"/></g></g></svg>