<svg height="512" viewBox="0 0 64 64" width="512" xmlns="http://www.w3.org/2000/svg"><g id="Could_server" data-name="Could server"><path d="m14 41v-6a2 2 0 0 1 2-2h2v-4h-2a2 2 0 0 1 -2-2v-6a2 2 0 0 1 2-2h32a2 2 0 0 1 2 2v6a2 2 0 0 1 -2 2h-2v4h2a2 2 0 0 1 2 2v6c.34 0 .67-.02 1-.05a10.993 10.993 0 0 0 2.95-21.21 5.969 5.969 0 0 0 -5.95-6.74 5.835 5.835 0 0 0 -2.44.52 14 14 0 0 0 -27.12 0 5.835 5.835 0 0 0 -2.44-.52 5.969 5.969 0 0 0 -5.95 6.74 11 11 0 0 0 3.95 21.26z" class="product-icon-9bc9ff"/><path d="m48 33h-32a2 2 0 0 0 -2 2v6a2 2 0 0 0 2 2h32a2 2 0 0 0 2-2v-6a2 2 0 0 0 -2-2zm-2 7h-8v-4h8z" class="product-icon-9bc9ff"/><path d="m48 47h-32a2 2 0 0 0 -2 2v6a2 2 0 0 0 2 2h32a2 2 0 0 0 2-2v-6a2 2 0 0 0 -2-2zm-2 7h-8v-4h8z" class="product-icon-9bc9ff"/><path d="m48 19h-32a2 2 0 0 0 -2 2v6a2 2 0 0 0 2 2h32a2 2 0 0 0 2-2v-6a2 2 0 0 0 -2-2zm-2 7h-8v-4h8z" class="product-icon-9bc9ff"/><g class="product-icon-1e81ce"><path d="m17 22h2v4h-2z"/><path d="m21 22h2v4h-2z"/><path d="m25 22h2v4h-2z"/><path d="m33 22h2v4h-2z"/><path d="m29 22h2v4h-2z"/><path d="m21 36h2v4h-2z"/><path d="m17 36h2v4h-2z"/><path d="m25 36h2v4h-2z"/><path d="m29 36h2v4h-2z"/><path d="m33 36h2v4h-2z"/><path d="m17 50h2v4h-2z"/><path d="m21 50h2v4h-2z"/><path d="m25 50h2v4h-2z"/><path d="m29 50h2v4h-2z"/><path d="m33 50h2v4h-2z"/><path d="m47 22a1 1 0 0 0 -1-1h-8a1 1 0 0 0 -1 1v4a1 1 0 0 0 1 1h8a1 1 0 0 0 1-1zm-2 3h-6v-2h6z"/><path d="m46 35h-8a1 1 0 0 0 -1 1v4a1 1 0 0 0 1 1h8a1 1 0 0 0 1-1v-4a1 1 0 0 0 -1-1zm-1 4h-6v-2h6z"/><path d="m38 55h8a1 1 0 0 0 1-1v-4a1 1 0 0 0 -1-1h-8a1 1 0 0 0 -1 1v4a1 1 0 0 0 1 1zm1-4h6v2h-6z"/><path d="m55 19.1c0-.032 0-.063 0-.095a7.014 7.014 0 0 0 -8.78-6.774 15 15 0 0 0 -28.44 0 7.014 7.014 0 0 0 -8.78 6.769v.095a11.989 11.989 0 0 0 4.17 22.863 3 3 0 0 0 2.83 2.042h1v2h-1a3 3 0 0 0 -3 3v6a3 3 0 0 0 3 3h1v3a1 1 0 0 0 1 1h28a1 1 0 0 0 1-1v-3h1a3 3 0 0 0 3-3v-6a3 3 0 0 0 -3-3h-1v-2h1a2.992 2.992 0 0 0 2.828-2.041c.086-.006.175-.005.261-.013a11.994 11.994 0 0 0 3.911-22.846zm-10 40.9h-26v-2h26zm3-12a1 1 0 0 1 1 1v6a1 1 0 0 1 -1 1h-32a1 1 0 0 1 -1-1v-6a1 1 0 0 1 1-1zm-3-2h-26v-2h26zm3-4h-32a1 1 0 0 1 -1-1v-6a1 1 0 0 1 1-1h32a1 1 0 0 1 1 1v6a1 1 0 0 1 -1 1zm-29-12h26v2h-26zm-3-2a1 1 0 0 1 -1-1v-6a1 1 0 0 1 1-1h32a1 1 0 0 1 1 1v6a1 1 0 0 1 -1 1zm35 11.942v-4.942a3 3 0 0 0 -3-3h-1v-2h1a3 3 0 0 0 3-3v-6a3 3 0 0 0 -3-3h-32a3 3 0 0 0 -3 3v6a3 3 0 0 0 3 3h1v2h-1a3 3 0 0 0 -3 3v4.949a10 10 0 0 1 -2.6-19.274 1 1 0 0 0 .637-1.06 4.97 4.97 0 0 1 4.963-5.615 4.8 4.8 0 0 1 2.023.429 1 1 0 0 0 1.386-.661 13 13 0 0 1 25.182 0 1 1 0 0 0 1.386.661 4.8 4.8 0 0 1 2.023-.429 4.97 4.97 0 0 1 4.958 5.615 1 1 0 0 0 .637 1.06 9.991 9.991 0 0 1 -2.595 19.267z"/></g></g></svg>