<svg height="512" viewBox="0 0 64 64" width="512" xmlns="http://www.w3.org/2000/svg">
    <g id="Cound_computing" data-name="Cound computing">
        <path d="m25 57h-22v2a2 2 0 0 0 2 2h54a2 2 0 0 0 2-2v-2z" class="product-icon-9bc9ff"/>
        <path d="m57 45h-50l-4 12h22l1-4h12l1 4h22z" class="product-icon-9bc9ff"/>
        <path d="m43 10a6.914 6.914 0 0 0 -2.15.34 9.005 9.005 0 0 0 -17.7 0 6.914 6.914 0 0 0 -2.15-.34 7 7 0 0 0 0 14h22a7 7 0 0 0 0-14z"
              class="product-icon-9bc9ff"/>
        <path d="m55 15h-46a2 2 0 0 0 -2 2v28h50v-28a2 2 0 0 0 -2-2zm-2 26h-42v-22h42z" class="product-icon-9bc9ff"/>
        <g class="product-icon-1e81ce">
            <path d="m58 44.838v-27.838a3 3 0 0 0 -3-3h-4.589a8 8 0 0 0 -8.828-4.875 10.008 10.008 0 0 0 -19.167 0 8 8 0 0 0 -8.827 4.875h-4.589a3 3 0 0 0 -3 3v27.838l-4 12v2.162a3 3 0 0 0 3 3h54a3 3 0 0 0 3-3v-2.162zm-18.22 11.162-.81-3.243a1 1 0 0 0 -.97-.757h-12a1 1 0 0 0 -.97.757l-.811 3.243h-19.832l3.334-10h48.558l3.334 10zm-2.061 0h-11.438l.5-2h10.438zm-16.719-31h2v4.586l-2.715 2.714a2.951 2.951 0 0 0 -1.285-.3 3 3 0 1 0 3 3 2.951 2.951 0 0 0 -.3-1.285l3.3-3.3v-5.415h6v7.184a3 3 0 1 0 2 0v-7.184h6v5.414l3.3 3.3a2.951 2.951 0 0 0 -.3 1.286 3 3 0 1 0 3-3 2.951 2.951 0 0 0 -1.285.3l-2.715-2.714v-4.586h2a8.009 8.009 0 0 0 7.411-5h1.589v20h-40v-20h1.589a8.009 8.009 0 0 0 7.411 5zm-1 10a1 1 0 1 1 -1-1 1 1 0 0 1 1 1zm13 0a1 1 0 1 1 -1-1 1 1 0 0 1 1 1zm12-1a1 1 0 1 1 -1 1 1 1 0 0 1 1-1zm-24-23a5.9 5.9 0 0 1 1.838.29 1 1 0 0 0 1.295-.767 8 8 0 0 1 15.733 0 1 1 0 0 0 1.3.767 5.9 5.9 0 0 1 1.834-.29 6 6 0 0 1 0 12h-22a6 6 0 0 1 0-12zm-13 6a1 1 0 0 1 1-1h4.069a7.281 7.281 0 0 0 0 2h-2.069a1 1 0 0 0 -1 1v22a1 1 0 0 0 1 1h42a1 1 0 0 0 1-1v-22a1 1 0 0 0 -1-1h-2.069a7.281 7.281 0 0 0 0-2h4.069a1 1 0 0 1 1 1v27h-48zm51 43h-54a1 1 0 0 1 -1-1v-1h56v1a1 1 0 0 1 -1 1z"/>
            <path d="m37 48h2v2h-2z"/>
            <path d="m9 48h2v2h-2z"/>
            <path d="m13 48h2v2h-2z"/>
            <path d="m17 48h2v2h-2z"/>
            <path d="m21 48h2v2h-2z"/>
            <path d="m41 48h2v2h-2z"/>
            <path d="m45 48h2v2h-2z"/>
            <path d="m49 48h2v2h-2z"/>
            <path d="m25 48h2v2h-2z"/>
            <path d="m29 48h2v2h-2z"/>
            <path d="m33 48h2v2h-2z"/>
            <path d="m53 48h2v2h-2z"/>
            <path d="m41 52h6v2h-6z"/>
            <path d="m49 52h2v2h-2z"/>
            <path d="m53 52h2v2h-2z"/>
            <path d="m9 52h2v2h-2z"/>
            <path d="m13 52h2v2h-2z"/>
            <path d="m17 52h6v2h-6z"/>
        </g>
    </g>
</svg>