<svg height="512" viewBox="0 0 512 512" width="512" xmlns="http://www.w3.org/2000/svg"><g><g class="product-icon-9bc9ff"><path d="m240 424h32v32h-32z"/><ellipse cx="256" cy="80" rx="112" ry="40"/><path d="m368 176.9a75.984 75.984 0 0 1 51.583 33.032 59.723 59.723 0 1 1 12.703 118.068h-64.286z"/><path d="m139 88.9a75.984 75.984 0 0 0 -51.583 33.032 59.723 59.723 0 1 0 -12.703 118.068h64.286z"/></g><g class="product-icon-1e81ce"><path d="m337.89 371.82c17.38-6.21 38.11-17.47 38.11-35.82h56.29a67.715 67.715 0 0 0 0-135.43 69.274 69.274 0 0 0 -9.12.61 84.245 84.245 0 0 0 -47.17-30.83v-90.35c0-10.13-6.61-24.57-38.11-35.82-22-7.85-51.08-12.18-81.89-12.18s-59.89 4.33-81.89 12.18c-31.5 11.25-38.11 25.69-38.11 35.82v1.31a84.137 84.137 0 0 0 -52.17 31.87 69.274 69.274 0 0 0 -9.12-.61 67.715 67.715 0 1 0 0 135.43h61.29v88c0 18.35 20.73 29.61 38.11 35.82 20.08 7.17 46.07 11.39 73.89 12.07v32.11h-8a8 8 0 0 0 -8 8v24h-40a8 8 0 0 0 -8 8v8h-168a8 8 0 0 0 0 16h168v8a8 8 0 0 0 8 8h128a8 8 0 0 0 8-8v-8h136a8 8 0 0 0 0-16h-136v-8a8 8 0 0 0 -8-8h-40v-24a8 8 0 0 0 -8-8h-8v-32.11c27.82-.68 53.81-4.9 73.89-12.07zm38.11-184.89a68.19 68.19 0 0 1 36.92 27.43 8.007 8.007 0 0 0 8.36 3.39 51.72 51.72 0 1 1 11.01 102.25h-56.29zm-240 45.07h-61.29a51.715 51.715 0 1 1 11.01-102.25 8.007 8.007 0 0 0 8.36-3.39 68.158 68.158 0 0 1 41.92-28.75zm43.49-172.75c20.32-7.25 47.49-11.25 76.51-11.25 63.49 0 104 18.95 104 32 0 5.28-7.22 13.51-27.49 20.75-20.32 7.25-47.49 11.25-76.51 11.25-63.49 0-104-18.95-104-32 0-5.28 7.22-13.51 27.49-20.75zm-27.49 45.78a96.23 96.23 0 0 0 22.11 10.79c22 7.85 51.08 12.18 81.89 12.18s59.89-4.33 81.89-12.18a96.23 96.23 0 0 0 22.11-10.79v38.97c0 5.28-7.22 13.51-27.49 20.75-20.32 7.25-47.49 11.25-76.51 11.25-63.49 0-104-18.95-104-32zm0 64a96.23 96.23 0 0 0 22.11 10.79c22 7.85 51.08 12.18 81.89 12.18s59.89-4.33 81.89-12.18a96.23 96.23 0 0 0 22.11-10.79v38.97c0 5.28-7.22 13.51-27.49 20.75-20.32 7.25-47.49 11.25-76.51 11.25-63.49 0-104-18.95-104-32zm0 64a96.23 96.23 0 0 0 22.11 10.79c22 7.85 51.08 12.18 81.89 12.18s59.89-4.33 81.89-12.18a96.23 96.23 0 0 0 22.11-10.79v38.97c0 5.28-7.22 13.51-27.49 20.75-20.32 7.25-47.49 11.25-76.51 11.25-63.49 0-104-18.95-104-32zm96 198.97h16v16h-16zm64 32v16h-112v-16zm-56-96c-29.02 0-56.19-4-76.51-11.25-20.27-7.24-27.49-15.47-27.49-20.75v-38.97a96.23 96.23 0 0 0 22.11 10.79c22 7.85 51.08 12.18 81.89 12.18s59.89-4.33 81.89-12.18a96.23 96.23 0 0 0 22.11-10.79v38.97c0 5.28-7.22 13.51-27.49 20.75-20.32 7.25-47.49 11.25-76.51 11.25z"/><path d="m496 464h-8a8 8 0 0 0 0 16h8a8 8 0 0 0 0-16z"/></g></g></svg>