<svg height="512" viewBox="0 0 64 64" width="512" xmlns="http://www.w3.org/2000/svg"><g id="Cyber_security" data-name="Cyber security"><path d="m57 11h-17v4h17v30h-50v-30h17v-4h-17a4 4 0 0 0 -4 4v32a4 4 0 0 0 4 4h50a4 4 0 0 0 4-4v-32a4 4 0 0 0 -4-4z" class="product-icon-9bc9ff"/><path d="m27 11h10v4h-10z" class="product-icon-9bc9ff"/><path d="m37 11a5 5 0 0 0 -10 0v4h10z" style="fill:none"/><path d="m37 20.21a10.936 10.936 0 0 0 -10 0 11.033 11.033 0 0 0 -3 2.256 11 11 0 1 0 16 0 11.033 11.033 0 0 0 -3-2.256z" style="fill:none"/><g class="product-icon-9bc9ff"><path d="m27 20.21v-9.21a5 5 0 0 1 10 0v9.21a11.033 11.033 0 0 1 3 2.256v-11.466a8 8 0 0 0 -16 0v11.466a11.033 11.033 0 0 1 3-2.256z"/><path d="m32 19a11 11 0 1 0 11 11 11 11 0 0 0 -11-11zm0 10a2 2 0 1 1 2-2 2 2 0 0 1 -2 2z"/><path d="m26 51h12v6h-12z"/><path d="m18 57a2 2 0 0 0 0 4h28a2 2 0 0 0 0-4z"/></g><path d="m57 10h-16.06a9 9 0 0 0 -17.881 0h-16.059a5.006 5.006 0 0 0 -5 5v32a5.006 5.006 0 0 0 5 5h18v4h-7a3 3 0 0 0 0 6h28a3 3 0 0 0 0-6h-7v-4h18a5.006 5.006 0 0 0 5-5v-32a5.006 5.006 0 0 0 -5-5zm-29 2h8v2h-8zm.142-2a3.981 3.981 0 0 1 7.716 0zm-.142 6h8v2.7a11.779 11.779 0 0 0 -8 0zm4 4a10 10 0 1 1 -10 10 10.011 10.011 0 0 1 10-10zm-9 2.089a12 12 0 1 0 18 0v-6.089h15v28h-48v-28h15zm9-18.089a6.987 6.987 0 0 1 7 7v9.273q-.483-.348-1-.649v-8.624a6 6 0 0 0 -12 0v8.624q-.517.3-1 .649v-9.273a7.008 7.008 0 0 1 7-7zm15 55a1 1 0 0 1 -1 1h-28a1 1 0 0 1 0-2h28a1 1 0 0 1 1 1zm-10-3h-10v-4h10zm23-9a3 3 0 0 1 -3 3h-50a3 3 0 0 1 -3-3v-32a3 3 0 0 1 3-3h16v2h-16a1 1 0 0 0 -1 1v30a1 1 0 0 0 1 1h50a1 1 0 0 0 1-1v-30a1 1 0 0 0 -1-1h-16v-2h16a3 3 0 0 1 3 3z" class="product-icon-1e81ce"/><path d="m33 47h-2a1 1 0 0 0 0 2h2a1 1 0 0 0 0-2z" class="product-icon-1e81ce"/><path d="m31 29.816v5.184a1 1 0 0 0 2 0v-5.184a3 3 0 1 0 -2 0zm1-3.816a1 1 0 1 1 -1 1 1 1 0 0 1 1-1z" class="product-icon-1e81ce"/></g></svg>