<svg height="512" viewBox="0 0 512 512" width="512" xmlns="http://www.w3.org/2000/svg"><g><g class="product-icon-9bc9ff"><path d="m160 448-8 24h-32l-8-24z"/><path d="m224 304h-176a16 16 0 0 0 -16 16v128h208v-128a16 16 0 0 0 -16-16zm-8 120h-160v-96h160z"/><path d="m160 448-8 24h-32l-8-24z"/><path d="m456 288-8 24h-32l-8-24z"/><path d="m456 288-8 24h-32l-8-24z"/><path d="m240 128h32v24h-32z"/><path d="m240 200h32v24h-32z"/></g><g class="product-icon-1e81ce"><path d="m64 464h-24a8 8 0 0 0 0 16h24a8 8 0 0 0 0-16z"/><path d="m96 464h-8a8 8 0 0 0 0 16h8a8 8 0 0 0 0-16z"/><path d="m48 328v96a8 8 0 0 0 8 8h160a8 8 0 0 0 8-8v-96a8 8 0 0 0 -8-8h-160a8 8 0 0 0 -8 8zm16 8h144v80h-144z"/><path d="m472 280h-32v-40a8 8 0 0 0 -8-8h-128v-8a8 8 0 0 0 -8-8h-16v-16a8 8 0 0 0 -8-8h-8v-32h8a8 8 0 0 0 8-8v-16h41.5a54.5 54.5 0 0 0 0-109 54.119 54.119 0 0 0 -17.15 2.75 63.514 63.514 0 0 0 -107.23 19.22 45.009 45.009 0 1 0 -16.12 87.03h51v16a8 8 0 0 0 8 8h8v32h-8a8 8 0 0 0 -8 8v16h-16a8 8 0 0 0 -8 8v8h-128a8 8 0 0 0 -8 8v56h-24a24.032 24.032 0 0 0 -24 24v120h-8a8 8 0 0 0 -8 8v32a24.032 24.032 0 0 0 24 24h208a24.032 24.032 0 0 0 24-24v-32a8 8 0 0 0 -8-8h-8v-120a24.032 24.032 0 0 0 -24-24h-136v-48h120v8a8 8 0 0 0 8 8h80a8 8 0 0 0 8-8v-8h120v32h-32a32.042 32.042 0 0 0 -32 32v160a32.042 32.042 0 0 0 32 32h80a32.042 32.042 0 0 0 32-32v-160a32.042 32.042 0 0 0 -32-32zm-224 176v24a8.011 8.011 0 0 1 -8 8h-208a8.011 8.011 0 0 1 -8-8v-24h82.23l6.18 18.53a8 8 0 0 0 7.59 5.47h32a8 8 0 0 0 7.59-5.47l6.18-18.53zm-124.9 0h25.8l-2.67 8h-20.46zm100.9-144a8.011 8.011 0 0 1 8 8v120h-192v-120a8.011 8.011 0 0 1 8-8zm40-168h-16v-8h16zm-83-24a29 29 0 1 1 16.5-52.84 8 8 0 0 0 12.43-5 47.5 47.5 0 0 1 85.32-18.14 8.006 8.006 0 0 0 9.92 2.6 38.549 38.549 0 0 1 54.46 40.27 38.634 38.634 0 0 1 -38.13 33.11zm67 88h16v8h-16zm40 40h-64v-16h64zm156.9 48-2.67 8h-20.46l-2.67-8zm43.1 176a16.021 16.021 0 0 1 -16 16h-80a16.021 16.021 0 0 1 -16-16v-160a16.021 16.021 0 0 1 16-16h10.23l6.18 18.53a8 8 0 0 0 7.59 5.47h32a8 8 0 0 0 7.59-5.47l6.18-18.53h10.23a16.021 16.021 0 0 1 16 16z"/><path d="m416 464h-24a8 8 0 0 0 0 16h24a8 8 0 0 0 0-16z"/><path d="m448 464h-8a8 8 0 0 0 0 16h8a8 8 0 0 0 0-16z"/></g></g></svg>