<svg height="512" viewBox="0 0 64 64" width="512" xmlns="http://www.w3.org/2000/svg"><g id="Data_backup" data-name="Data backup"><path d="m33 3h-28a2 2 0 0 0 -2 2v4a2 2 0 0 0 2 2h28a2 2 0 0 0 2-2v-4a2 2 0 0 0 -2-2z" class="product-icon-9bc9ff"/><path d="m33 14h-28a2 2 0 0 0 -2 2v4a2 2 0 0 0 2 2h28a2 2 0 0 0 2-2v-4a2 2 0 0 0 -2-2z" class="product-icon-9bc9ff"/><path d="m33 25h-28a2 2 0 0 0 -2 2v4a2 2 0 0 0 2 2h28a2 2 0 0 0 2-2v-4a2 2 0 0 0 -2-2z" class="product-icon-9bc9ff"/><path d="m32.247 43a1 1 0 0 0 -.977 1.217l3.382 15.217a2 2 0 0 0 1.948 1.566h18.8a2 2 0 0 0 1.952-1.566l3.378-15.217a1 1 0 0 0 -.977-1.217z" class="product-icon-9bc9ff"/><g class="product-icon-1e81ce"><path d="m61.313 42.749a1.989 1.989 0 0 0 -1.56-.749h-.753v-2a3 3 0 0 0 -3-3h-8a3 3 0 0 0 -3-3h-4a3 3 0 0 0 -3 3h-1a3 3 0 0 0 -3 3v2h-1.753a2 2 0 0 0 -1.953 2.434l3.382 15.217a2.982 2.982 0 0 0 2.924 2.349h18.8a2.982 2.982 0 0 0 2.928-2.349l3.382-15.217a1.989 1.989 0 0 0 -.397-1.685zm-25.313-2.749a1 1 0 0 1 1-1h2a1 1 0 0 0 1-1v-1a1 1 0 0 1 1-1h4a1 1 0 0 1 1 1v1a1 1 0 0 0 1 1h9a1 1 0 0 1 1 1v2h-21zm20.372 19.217a.994.994 0 0 1 -.972.783h-18.8a.994.994 0 0 1 -.976-.783l-3.377-15.217h27.506z"/><path d="m54 35a1 1 0 0 1 -.814-.419l-5-7a1 1 0 0 1 .814-1.581h2v-5h-12a1 1 0 0 1 -1-1v-4a1 1 0 0 1 1-1h13a5.006 5.006 0 0 1 5 5v6h2a1 1 0 0 1 .814 1.581l-5 7a1 1 0 0 1 -.814.419zm-3.057-7 3.057 4.279 3.057-4.279h-1.057a1 1 0 0 1 -1-1v-7a3 3 0 0 0 -3-3h-12v2h11a2 2 0 0 1 2 2v6a1 1 0 0 1 -1 1z"/><path d="m29 59h-15a5.006 5.006 0 0 1 -5-5v-6h-2a1 1 0 0 1 -.814-1.581l5-7a1.037 1.037 0 0 1 1.628 0l5 7a1 1 0 0 1 -.814 1.581h-2v5h14a1 1 0 0 1 1 1v4a1 1 0 0 1 -1 1zm-20.057-13h1.057a1 1 0 0 1 1 1v7a3 3 0 0 0 3 3h14v-2h-13a2 2 0 0 1 -2-2v-6a1 1 0 0 1 1-1h1.057l-3.057-4.279z"/><path d="m33 12a3 3 0 0 0 3-3v-4a3 3 0 0 0 -3-3h-28a3 3 0 0 0 -3 3v4a3 3 0 0 0 3 3h1v1h-1a3 3 0 0 0 -3 3v4a3 3 0 0 0 3 3h1v1h-1a3 3 0 0 0 -3 3v4a3 3 0 0 0 3 3h1v2a1 1 0 0 0 1 1h24a1 1 0 0 0 1-1v-2h1a3 3 0 0 0 3-3v-4a3 3 0 0 0 -3-3h-1v-1h1a3 3 0 0 0 3-3v-4a3 3 0 0 0 -3-3h-1v-1zm-29-3v-4a1 1 0 0 1 1-1h28a1 1 0 0 1 1 1v4a1 1 0 0 1 -1 1h-28a1 1 0 0 1 -1-1zm26 26h-22v-1h22zm4-8v4a1 1 0 0 1 -1 1h-28a1 1 0 0 1 -1-1v-4a1 1 0 0 1 1-1h28a1 1 0 0 1 1 1zm-4-3h-22v-1h22zm4-8v4a1 1 0 0 1 -1 1h-28a1 1 0 0 1 -1-1v-4a1 1 0 0 1 1-1h28a1 1 0 0 1 1 1zm-4-3h-22v-1h22z"/><path d="m6 5h2v4h-2z"/><path d="m10 5h2v4h-2z"/><path d="m14 5h2v4h-2z"/><path d="m18 5h2v4h-2z"/><path d="m6 16h2v4h-2z"/><path d="m10 16h2v4h-2z"/><path d="m14 16h2v4h-2z"/><path d="m18 16h2v4h-2z"/><path d="m6 27h2v4h-2z"/><path d="m10 27h2v4h-2z"/><path d="m14 27h2v4h-2z"/><path d="m18 27h2v4h-2z"/><path d="m26 6h2v2h-2z"/><path d="m30 6h2v2h-2z"/><path d="m26 17h2v2h-2z"/><path d="m30 17h2v2h-2z"/><path d="m26 28h2v2h-2z"/><path d="m30 28h2v2h-2z"/></g></g></svg>