<svg id="Capa_1" enable-background="new 0 0 512 512" height="512" viewBox="0 0 512 512" width="512" xmlns="http://www.w3.org/2000/svg"><g><g class="product-icon-9bc9ff"><circle cx="112" cy="184" r="24"/><circle cx="400" cy="184" r="24"/><path d="m496 152v216h-480v-216c.003-13.253 10.747-23.997 24-24h1.38c-.919 2.567-1.386 5.274-1.38 8v104h144v-48h144v48h144v-104c.006-2.726-.461-5.433-1.38-8h1.38c13.253.003 23.997 10.747 24 24z"/><path d="m312 464h-112l16-48h80z"/><path d="m280 136c0 13.255-10.745 24-24 24s-24-10.745-24-24c-.006-2.726.461-5.433 1.38-8 4.413-12.493 18.118-19.042 30.611-14.629 6.836 2.415 12.214 7.793 14.629 14.629.919 2.567 1.386 5.274 1.38 8z"/><path d="m184 192h144v176h-144z"/><path d="m280 136c0 13.255-10.745 24-24 24s-24-10.745-24-24c-.006-2.726.461-5.433 1.38-8 4.413-12.493 18.118-19.042 30.611-14.629 6.836 2.415 12.214 7.793 14.629 14.629.919 2.567 1.386 5.274 1.38 8z"/><circle cx="112" cy="184" r="24"/><path d="m40 240h144v128h-144z"/><circle cx="112" cy="184" r="24"/><circle cx="400" cy="184" r="24"/><path d="m328 240h144v128h-144z"/><circle cx="400" cy="184" r="24"/></g><g class="product-icon-1e81ce"><path d="m475.83 120.24c-5.676-10.03-16.306-16.233-27.83-16.24h-96c-5.62-.006-11.14 1.478-16 4.3v-20.3c-.017-17.666-14.334-31.983-32-32h-96c-17.666.017-31.983 14.334-32 32v20.3c-4.86-2.822-10.38-4.306-16-4.3h-96c-11.524.007-22.154 6.21-27.83 16.24-16.064 1.951-28.15 15.578-28.17 31.76v240c.017 17.666 14.334 31.983 32 32h164.9l-10.67 32h-26.23c-4.418 0-8 3.582-8 8v16h-80c-4.418 0-8 3.582-8 8s3.582 8 8 8h352c4.418 0 8-3.582 8-8s-3.582-8-8-8h-80v-16c0-4.418-3.582-8-8-8h-26.23l-10.67-32h164.9c17.666-.017 31.983-14.334 32-32v-240c-.02-16.182-12.106-29.809-28.17-31.76zm-139.83 15.76c.012-8.832 7.168-15.988 16-16h96c8.832.012 15.988 7.168 16 16v96h-128zm0 112h128v112h-128zm-144-160c.012-8.832 7.168-15.988 16-16h96c8.832.012 15.988 7.168 16 16v96h-128zm0 112h128v160h-128zm-144-64c.012-8.832 7.168-15.988 16-16h96c8.832.012 15.988 7.168 16 16v96h-128zm0 112h128v112h-128zm-24-96c.01-5.709 3.058-10.982 8-13.84v221.84h-8zm312 320v8h-160v-8zm-124.9-16 10.67-32h68.46l10.67 32zm276.9-64c-.012 8.832-7.168 15.988-16 16h-432c-8.832-.012-15.988-7.168-16-16v-16h464zm0-32h-8v-221.84c4.942 2.858 7.99 8.131 8 13.84z"/><path d="m96 384h-48c-4.418 0-8 3.582-8 8s3.582 8 8 8h48c4.418 0 8-3.582 8-8s-3.582-8-8-8z"/><path d="m128 384h-8c-4.418 0-8 3.582-8 8s3.582 8 8 8h8c4.418 0 8-3.582 8-8s-3.582-8-8-8z"/><path d="m256 168c17.673 0 32-14.327 32-32s-14.327-32-32-32-32 14.327-32 32c.02 17.665 14.335 31.98 32 32zm0-48c8.837 0 16 7.163 16 16s-7.163 16-16 16-16-7.163-16-16c.01-8.832 7.168-15.99 16-16z"/><path d="m208 96h8c4.418 0 8-3.582 8-8s-3.582-8-8-8h-8c-4.418 0-8 3.582-8 8s3.582 8 8 8z"/><path d="m296 96h8c4.418 0 8-3.582 8-8s-3.582-8-8-8h-8c-4.418 0-8 3.582-8 8s3.582 8 8 8z"/><path d="m216 336h-8c-4.418 0-8 3.582-8 8s3.582 8 8 8h8c4.418 0 8-3.582 8-8s-3.582-8-8-8z"/><path d="m304 336h-8c-4.418 0-8 3.582-8 8s3.582 8 8 8h8c4.418 0 8-3.582 8-8s-3.582-8-8-8z"/><path d="m304 216h-96c-4.418 0-8 3.582-8 8s3.582 8 8 8h96c4.418 0 8-3.582 8-8s-3.582-8-8-8z"/><path d="m112 216c17.673 0 32-14.327 32-32s-14.327-32-32-32-32 14.327-32 32c.02 17.665 14.335 31.98 32 32zm0-48c8.837 0 16 7.163 16 16s-7.163 16-16 16-16-7.163-16-16c.01-8.832 7.168-15.99 16-16z"/><path d="m64 144h8c4.418 0 8-3.582 8-8s-3.582-8-8-8h-8c-4.418 0-8 3.582-8 8s3.582 8 8 8z"/><path d="m152 144h8c4.418 0 8-3.582 8-8s-3.582-8-8-8h-8c-4.418 0-8 3.582-8 8s3.582 8 8 8z"/><path d="m160 264h-96c-4.418 0-8 3.582-8 8s3.582 8 8 8h96c4.418 0 8-3.582 8-8s-3.582-8-8-8z"/><path d="m400 216c17.673 0 32-14.327 32-32s-14.327-32-32-32-32 14.327-32 32c.02 17.665 14.335 31.98 32 32zm0-48c8.837 0 16 7.163 16 16s-7.163 16-16 16-16-7.163-16-16c.01-8.832 7.168-15.99 16-16z"/><path d="m352 144h8c4.418 0 8-3.582 8-8s-3.582-8-8-8h-8c-4.418 0-8 3.582-8 8s3.582 8 8 8z"/><path d="m440 144h8c4.418 0 8-3.582 8-8s-3.582-8-8-8h-8c-4.418 0-8 3.582-8 8s3.582 8 8 8z"/><path d="m448 264h-96c-4.418 0-8 3.582-8 8s3.582 8 8 8h96c4.418 0 8-3.582 8-8s-3.582-8-8-8z"/><path d="m304 240h-96c-4.418 0-8 3.582-8 8s3.582 8 8 8h96c4.418 0 8-3.582 8-8s-3.582-8-8-8z"/><path d="m160 288h-96c-4.418 0-8 3.582-8 8s3.582 8 8 8h96c4.418 0 8-3.582 8-8s-3.582-8-8-8z"/><path d="m448 288h-96c-4.418 0-8 3.582-8 8s3.582 8 8 8h96c4.418 0 8-3.582 8-8s-3.582-8-8-8z"/><path d="m296 272c0-4.418-3.582-8-8-8h-64c-4.418 0-8 3.582-8 8s3.582 8 8 8h64c4.418 0 8-3.582 8-8z"/><path d="m144 312h-64c-4.418 0-8 3.582-8 8s3.582 8 8 8h64c4.418 0 8-3.582 8-8s-3.582-8-8-8z"/><path d="m432 312h-64c-4.418 0-8 3.582-8 8s3.582 8 8 8h64c4.418 0 8-3.582 8-8s-3.582-8-8-8z"/></g></g></svg>