<svg id="Capa_1" enable-background="new 0 0 512 512" height="512" viewBox="0 0 512 512" width="512" xmlns="http://www.w3.org/2000/svg"><g><g class="product-icon-9bc9ff"><circle cx="400" cy="200" r="24"/><circle cx="112" cy="200" r="24"/><path d="m328 152v104h112v184h-137.29c29.71-58.361 20.566-128.972-23.03-177.84-7.163-8.13-15.093-15.551-23.68-22.16-8.587 6.609-16.517 14.03-23.68 22.16-43.596 48.868-52.74 119.479-23.03 177.84h-137.29v-184h112v-104c-.003-13.253-10.747-23.997-24-24h-88v-56h112v72h144v-72h112v56h-88c-13.253.003-23.997 10.747-24 24z"/><g><path d="m280 88c.008 13.263-10.737 24.022-24 24.03s-24.022-10.737-24.03-24 10.737-24.022 24-24.03c6.837-.004 13.351 2.905 17.91 8 3.938 4.399 6.117 10.096 6.12 16z"/><path d="m328 144v118.16h-48.32c-7.163-8.13-15.093-15.551-23.68-22.16-8.587 6.609-16.517 14.03-23.68 22.16h-48.32v-118.16z"/><path d="m280 88c.008 13.263-10.737 24.022-24 24.03s-24.022-10.737-24.03-24 10.737-24.022 24-24.03c6.837-.004 13.351 2.905 17.91 8 3.938 4.399 6.117 10.096 6.12 16z"/><circle cx="112" cy="200" r="24"/><path d="m184 256v6.16l-55.01 121.84h-64.99c-13.253-.003-23.997-10.747-24-24v-104z"/><circle cx="112" cy="200" r="24"/><circle cx="400" cy="200" r="24"/><path d="m472 256v104c-.003 13.253-10.747 23.997-24 24h-64.99l-55.01-121.84v-6.16z"/><circle cx="400" cy="200" r="24"/><path d="m256 496c-64.509.002-118.941-47.997-127.01-112-.659-5.308-.99-10.651-.99-16-.012-70.681 57.277-127.988 127.958-128h.042c-8.587 6.609-16.517 14.03-23.68 22.16-43.596 48.868-52.74 119.479-23.03 177.84 11.225 21.899 27.18 41.028 46.71 56z"/><path d="m384 368c0 5.349-.331 10.692-.99 16-8.069 64.003-62.501 112.002-127.01 112 19.53-14.972 35.485-34.101 46.71-56 29.71-58.361 20.566-128.972-23.03-177.84-7.163-8.13-15.093-15.551-23.68-22.16 70.681-.012 127.988 57.277 128 127.958z"/></g></g><g class="product-icon-1e81ce"><path d="m256 120c17.673 0 32-14.327 32-32s-14.327-32-32-32-32 14.327-32 32c.02 17.665 14.335 31.98 32 32zm0-48c8.837 0 16 7.163 16 16s-7.163 16-16 16-16-7.163-16-16c.01-8.832 7.168-15.99 16-16z"/><path d="m208 48h8c4.418 0 8-3.582 8-8s-3.582-8-8-8h-8c-4.418 0-8 3.582-8 8s3.582 8 8 8z"/><path d="m296 48h8c4.418 0 8-3.582 8-8s-3.582-8-8-8h-8c-4.418 0-8 3.582-8 8s3.582 8 8 8z"/><path d="m208 184h96c4.418 0 8-3.582 8-8s-3.582-8-8-8h-96c-4.418 0-8 3.582-8 8s3.582 8 8 8z"/><path d="m112 232c17.673 0 32-14.327 32-32s-14.327-32-32-32-32 14.327-32 32c.02 17.665 14.335 31.98 32 32zm0-48c8.837 0 16 7.163 16 16s-7.163 16-16 16-16-7.163-16-16c.01-8.832 7.168-15.99 16-16z"/><path d="m64 160h8c4.418 0 8-3.582 8-8s-3.582-8-8-8h-8c-4.418 0-8 3.582-8 8s3.582 8 8 8z"/><path d="m152 160h8c4.418 0 8-3.582 8-8s-3.582-8-8-8h-8c-4.418 0-8 3.582-8 8s3.582 8 8 8z"/><path d="m64 296h56c4.418 0 8-3.582 8-8s-3.582-8-8-8h-56c-4.418 0-8 3.582-8 8s3.582 8 8 8z"/><path d="m448 120v-48c0-4.418-3.582-8-8-8h-104v-24c-.017-17.666-14.334-31.983-32-32h-96c-17.666.017-31.983 14.334-32 32v24h-104c-4.418 0-8 3.582-8 8v48c-17.666.017-31.983 14.334-32 32v208c.017 17.666 14.334 31.983 32 32v48c0 4.418 3.582 8 8 8h72c.647-.003 1.292-.084 1.92-.24 1.09 1.51 2.217 3 3.38 4.47.343.557.757 1.068 1.23 1.52 25.78 31.793 64.529 50.256 105.46 50.25h.02c20.55.027 40.836-4.638 59.31-13.64 17.861-8.704 33.61-21.198 46.15-36.61.473-.452.887-.963 1.23-1.52 1.16-1.47 2.287-2.96 3.38-4.47.628.156 1.273.237 1.92.24h72c4.418 0 8-3.582 8-8v-48c17.666-.017 31.983-14.334 32-32v-208c-.017-17.666-14.334-31.983-32-32zm-112-40h96v40h-80c-5.62-.006-11.14 1.478-16 4.3zm-72 280v-16.23c15.145-.87 30.038-4.271 44.06-10.06 2.012 8.637 3.257 17.434 3.72 26.29zm47.78 16c-.463 8.856-1.708 17.653-3.72 26.29-14.022-5.789-28.915-9.19-44.06-10.06v-16.23zm-47.78-48.27v-70.35c17.835 16.849 31.394 37.71 39.55 60.85-12.545 5.4-25.921 8.613-39.55 9.5zm15.67-77.38c25.404 5.139 48.462 18.361 65.73 37.69-7.973 8.926-17.236 16.611-27.48 22.8-8.308-22.652-21.348-43.273-38.25-60.49zm-87.67-210.35c.012-8.832 7.168-15.988 16-16h96c8.832.012 15.988 7.168 16 16v96h-128zm40.33 210.35c-16.902 17.217-29.942 37.838-38.25 60.49-10.244-6.189-19.507-13.874-27.48-22.8 17.268-19.329 40.326-32.551 65.73-37.69zm-43.1 76.19c-2.809 10.953-4.491 22.165-5.02 33.46h-47.94c1.396-21.185 8.417-41.614 20.34-59.18 9.493 10.192 20.494 18.867 32.62 25.72zm-109.23-246.54h96v44.3c-4.86-2.822-10.38-4.306-16-4.3h-80zm-32 72c.012-8.832 7.168-15.988 16-16h96c8.832.012 15.988 7.168 16 16v96h-128zm16 224c-8.832-.012-15.988-7.168-16-16v-96h120.47c-6.534 5.512-12.54 11.622-17.94 18.25-.473.452-.887.963-1.23 1.52-19.003 23.959-29.331 53.649-29.3 84.23 0 2.69.09 5.35.24 8zm16 56v-40h42.12c2.503 13.982 7.198 27.481 13.91 40zm76.61 3.18c-11.923-17.566-18.944-37.995-20.34-59.18h47.94c.529 11.295 2.211 22.507 5.02 33.46-12.126 6.853-23.127 15.528-32.62 25.72zm9.99 12.78c7.973-8.926 17.236-16.611 27.48-22.8 8.308 22.652 21.348 43.273 38.25 60.49-25.404-5.139-48.462-18.361-65.73-37.69zm81.4 30.66c-17.835-16.849-31.394-37.71-39.55-60.85 12.545-5.4 25.921-8.613 39.55-9.5zm0-86.39c-15.145.87-30.038 4.271-44.06 10.06-2.012-8.637-3.257-17.434-3.72-26.29h47.78zm0-32.23h-47.78c.463-8.856 1.708-17.653 3.72-26.29 14.022 5.789 28.915 9.19 44.06 10.06zm0-32.27c-13.629-.887-27.005-4.1-39.55-9.5 8.156-23.14 21.715-44.001 39.55-60.85zm8-95.73c-22.33-.023-44.318 5.484-64 16.03v-96.03h128v96.03c-19.682-10.546-41.67-16.053-64-16.03zm8 246.62v-70.35c13.629.887 27.005 4.1 39.55 9.5-8.156 23.14-21.715 44.001-39.55 60.85zm15.67 7.03c16.902-17.217 29.942-37.838 38.25-60.49 10.244 6.189 19.507 13.874 27.48 22.8-17.267 19.329-40.326 32.551-65.73 37.69zm75.72-50.47c-9.493-10.192-20.494-18.867-32.62-25.72 2.809-10.953 4.491-22.165 5.02-33.46h47.94c-1.396 21.185-8.417 41.614-20.34 59.18zm-27.6-75.18c-.529-11.295-2.211-22.507-5.02-33.46 12.126-6.853 23.127-15.528 32.62-25.72 11.923 17.566 18.944 37.995 20.34 59.18zm104.21 72h-56.03c6.712-12.519 11.407-26.018 13.91-40h42.12zm32-72c-.012 8.832-7.168 15.988-16 16h-56.24c.15-2.65.24-5.31.24-8 .031-30.581-10.297-60.271-29.3-84.23-.343-.557-.757-1.068-1.23-1.52-5.4-6.628-11.406-12.738-17.94-18.25h120.47zm0-112h-128v-96c.012-8.832 7.168-15.988 16-16h96c8.832.012 15.988 7.168 16 16z"/><path d="m400 168c-17.673 0-32 14.327-32 32s14.327 32 32 32 32-14.327 32-32c-.02-17.665-14.335-31.98-32-32zm0 48c-8.837 0-16-7.163-16-16s7.163-16 16-16 16 7.163 16 16c-.01 8.832-7.168 15.99-16 16z"/><path d="m360 144h-8c-4.418 0-8 3.582-8 8s3.582 8 8 8h8c4.418 0 8-3.582 8-8s-3.582-8-8-8z"/><path d="m440 144c-4.418 0-8 3.582-8 8s3.582 8 8 8h8c4.418 0 8-3.582 8-8s-3.582-8-8-8z"/><path d="m448 280h-56c-4.418 0-8 3.582-8 8s3.582 8 8 8h56c4.418 0 8-3.582 8-8s-3.582-8-8-8z"/><path d="m208 208h96c4.418 0 8-3.582 8-8s-3.582-8-8-8h-96c-4.418 0-8 3.582-8 8s3.582 8 8 8z"/><path d="m112 320c4.418 0 8-3.582 8-8s-3.582-8-8-8h-48c-4.418 0-8 3.582-8 8s3.582 8 8 8z"/><path d="m448 304h-48c-4.418 0-8 3.582-8 8s3.582 8 8 8h48c4.418 0 8-3.582 8-8s-3.582-8-8-8z"/><path d="m104 328h-24c-4.418 0-8 3.582-8 8s3.582 8 8 8h24c4.418 0 8-3.582 8-8s-3.582-8-8-8z"/><path d="m432 328h-24c-4.418 0-8 3.582-8 8s3.582 8 8 8h24c4.418 0 8-3.582 8-8s-3.582-8-8-8z"/></g></g></svg>