<svg height="512" viewBox="0 0 64 64" width="512" xmlns="http://www.w3.org/2000/svg"><g id="Data_sharing" data-name="Data sharing"><path d="m55 43h-14v-10h-4a2 2 0 0 0 -2 2v24a2 2 0 0 0 2 2h4v-12h14v12h4a2 2 0 0 0 2-2v-21l-6-5z" class="product-icon-9bc9ff"/><path d="m49 36h3v4h-3z" class="product-icon-9bc9ff"/><path d="m10 27h12v4h-12z" style="fill:none"/><path d="m20.673 19.2a7.043 7.043 0 1 0 -2.282 1.371l-1.391-5.571z" style="fill:none"/><path d="m27 3h-22a2 2 0 0 0 -2 2v28a2 2 0 0 0 2 2h22a2 2 0 0 0 2-2v-28a2 2 0 0 0 -2-2zm-5 28h-12v-4h12zm-3-8-.607-2.429a7.011 7.011 0 1 1 2.282-1.371l3.325 3.8z" class="product-icon-9bc9ff"/><g class="product-icon-1e81ce"><path d="m30 33v-28a3 3 0 0 0 -3-3h-22a3 3 0 0 0 -3 3v28a3 3 0 0 0 3 3h22a3 3 0 0 0 3-3zm-26 0v-28a1 1 0 0 1 1-1h22a1 1 0 0 1 1 1v28a1 1 0 0 1 -1 1h-22a1 1 0 0 1 -1-1z"/><path d="m5 5h2v2h-2z"/><path d="m5 31h2v2h-2z"/><path d="m25 5h2v2h-2z"/><path d="m25 31h2v2h-2z"/><path d="m22 26h-12a1 1 0 0 0 -1 1v4a1 1 0 0 0 1 1h12a1 1 0 0 0 1-1v-4a1 1 0 0 0 -1-1zm-1 4h-10v-2h10z"/><path d="m22.033 19.233a7.988 7.988 0 1 0 -6.033 2.767 7.876 7.876 0 0 0 1.673-.185l.357 1.428a1 1 0 0 0 .97.757h5a1 1 0 0 0 .752-1.659zm-6.033.767a6.034 6.034 0 1 1 4.7-2.291l-2.947-3.368a1 1 0 0 0 -1.722.9l1.156 4.626a5.823 5.823 0 0 1 -1.187.133zm3.781 2-.806-3.225.937 1.072c.005 0 .006.012.01.017s.011.007.015.012l1.863 2.124z"/><path d="m61.64 37.232-6-5a1 1 0 0 0 -.64-.232h-18a3 3 0 0 0 -3 3v24a3 3 0 0 0 3 3h22a3 3 0 0 0 3-3v-21a1 1 0 0 0 -.36-.768zm-7.64-3.232v8h-12v-8zm-12 26v-10h12v10zm18-1a1 1 0 0 1 -1 1h-3v-11a1 1 0 0 0 -1-1h-14a1 1 0 0 0 -1 1v11h-3a1 1 0 0 1 -1-1v-24a1 1 0 0 1 1-1h3v9a1 1 0 0 0 1 1h14a1 1 0 0 0 1-1v-7.865l4 3.333z"/><path d="m52 51h-8a1 1 0 0 0 0 2h8a1 1 0 0 0 0-2z"/><path d="m52 54h-8a1 1 0 0 0 0 2h8a1 1 0 0 0 0-2z"/><path d="m52 57h-8a1 1 0 0 0 0 2h8a1 1 0 0 0 0-2z"/><path d="m49 41h3a1 1 0 0 0 1-1v-4a1 1 0 0 0 -1-1h-3a1 1 0 0 0 -1 1v4a1 1 0 0 0 1 1zm1-4h1v2h-1z"/><path d="m48 21h-2a1 1 0 0 0 -.814 1.581l5 7a1 1 0 0 0 1.628 0l5-7a1 1 0 0 0 -.814-1.581h-2v-8a5.006 5.006 0 0 0 -5-5h-16a1 1 0 0 0 -1 1v4a1 1 0 0 0 1 1h15zm-14-9v-2h15a3 3 0 0 1 3 3v9a1 1 0 0 0 1 1h1.057l-3.057 4.279-3.057-4.279h1.057a1 1 0 0 0 1-1v-8a2 2 0 0 0 -2-2z"/><path d="m31 52h-17v-5h2a1 1 0 0 0 .814-1.581l-5-7a1.037 1.037 0 0 0 -1.628 0l-5 7a1 1 0 0 0 .814 1.581h2v6a5.006 5.006 0 0 0 5 5h18a1 1 0 0 0 1-1v-4a1 1 0 0 0 -1-1zm-1 4h-17a3 3 0 0 1 -3-3v-7a1 1 0 0 0 -1-1h-1.057l3.057-4.279 3.057 4.279h-1.057a1 1 0 0 0 -1 1v6a2 2 0 0 0 2 2h16z"/></g></g></svg>