<svg height="512" viewBox="0 0 64 64" width="512" xmlns="http://www.w3.org/2000/svg"><g id="Data_structure" data-name="Data structure"><path d="m48 27h-32a2 2 0 0 0 -2 2v6a2 2 0 0 0 2 2h32a2 2 0 0 0 2-2v-6a2 2 0 0 0 -2-2zm-2 7h-8v-4h8z" class="product-icon-9bc9ff"/><path d="m48 41h-32a2 2 0 0 0 -2 2v6a2 2 0 0 0 2 2h32a2 2 0 0 0 2-2v-6a2 2 0 0 0 -2-2zm-2 7h-8v-4h8z" class="product-icon-9bc9ff"/><path d="m48 13h-32a2 2 0 0 0 -2 2v6a2 2 0 0 0 2 2h32a2 2 0 0 0 2-2v-6a2 2 0 0 0 -2-2zm-2 7h-8v-4h8z" class="product-icon-9bc9ff"/><g class="product-icon-1e81ce"><path d="m48 38a3 3 0 0 0 3-3v-2h3.142a4 4 0 1 0 0-2h-3.142v-2a3 3 0 0 0 -3-3h-1v-2h1a3 3 0 0 0 3-3v-2h5a3 3 0 0 0 3-3v-6.142a4 4 0 1 0 -2 0v6.142a1 1 0 0 1 -1 1h-5v-2a3 3 0 0 0 -3-3h-32a3 3 0 0 0 -3 3v2h-5a1 1 0 0 1 -1-1v-6.142a4 4 0 1 0 -2 0v6.142a3 3 0 0 0 3 3h5v2a3 3 0 0 0 3 3h1v2h-1a3 3 0 0 0 -3 3v2.045l-3.139-.035a4 4 0 1 0 -.006 2l3.145.035v1.955a3 3 0 0 0 3 3h1v2h-1a3 3 0 0 0 -3 3v2h-5a3 3 0 0 0 -3 3v6.142a4 4 0 1 0 2 0v-6.142a1 1 0 0 1 1-1h5v2a3 3 0 0 0 3 3h1v4h30v-4h1a3 3 0 0 0 3-3v-2h5a1 1 0 0 1 1 1v6.142a4 4 0 1 0 2 0v-6.142a3 3 0 0 0 -3-3h-5v-2a3 3 0 0 0 -3-3h-1v-2zm10-8a2 2 0 1 1 -2 2 2 2 0 0 1 2-2zm-2-24a2 2 0 1 1 2 2 2 2 0 0 1 -2-2zm-52 0a2 2 0 1 1 2 2 2 2 0 0 1 -2-2zm2 28a2 2 0 1 1 2-2 2 2 0 0 1 -2 2zm2 24a2 2 0 1 1 -2-2 2 2 0 0 1 2 2zm52 0a2 2 0 1 1 -2-2 2 2 0 0 1 2 2zm-44-36a1 1 0 0 1 -1-1v-6a1 1 0 0 1 1-1h32a1 1 0 0 1 1 1v6a1 1 0 0 1 -1 1zm3 2h26v2h-26zm-3 12a1 1 0 0 1 -1-1v-6a1 1 0 0 1 1-1h32a1 1 0 0 1 1 1v6a1 1 0 0 1 -1 1zm29 18h-26v-2h26zm3-12a1 1 0 0 1 1 1v6a1 1 0 0 1 -1 1h-32a1 1 0 0 1 -1-1v-6a1 1 0 0 1 1-1zm-3-2h-26v-2h26z"/><path d="m17 16h2v4h-2z"/><path d="m21 16h2v4h-2z"/><path d="m25 16h2v4h-2z"/><path d="m33 16h2v4h-2z"/><path d="m29 16h2v4h-2z"/><path d="m21 30h2v4h-2z"/><path d="m17 30h2v4h-2z"/><path d="m25 30h2v4h-2z"/><path d="m29 30h2v4h-2z"/><path d="m33 30h2v4h-2z"/><path d="m17 44h2v4h-2z"/><path d="m21 44h2v4h-2z"/><path d="m25 44h2v4h-2z"/><path d="m29 44h2v4h-2z"/><path d="m33 44h2v4h-2z"/><path d="m47 16a1 1 0 0 0 -1-1h-8a1 1 0 0 0 -1 1v4a1 1 0 0 0 1 1h8a1 1 0 0 0 1-1zm-2 3h-6v-2h6z"/><path d="m47 30a1 1 0 0 0 -1-1h-8a1 1 0 0 0 -1 1v4a1 1 0 0 0 1 1h8a1 1 0 0 0 1-1zm-2 3h-6v-2h6z"/><path d="m38 49h8a1 1 0 0 0 1-1v-4a1 1 0 0 0 -1-1h-8a1 1 0 0 0 -1 1v4a1 1 0 0 0 1 1zm1-4h6v2h-6z"/></g></g></svg>