<svg height="512" viewBox="0 0 512 512" width="512" xmlns="http://www.w3.org/2000/svg"><g><g class="product-icon-9bc9ff"><circle cx="304" cy="208" r="24"/><circle cx="376" cy="272" r="24"/><circle cx="448" cy="208" r="24"/><circle cx="232" cy="120" r="24"/><path d="m144 496a128 128 0 0 1 0-256c-39.01 30.04-64 76.22-64 128s24.99 97.96 64 128z"/><path d="m272 368a128 128 0 0 1 -128 128c39.01-30.04 64-76.22 64-128s-24.99-97.96-64-128a128 128 0 0 1 128 128z"/></g><g class="product-icon-1e81ce"><path d="m472 8h-336a32.036 32.036 0 0 0 -32 32v198.01a136.311 136.311 0 0 0 -65.47 44.24 7.665 7.665 0 0 0 -1.23 1.52 135.72 135.72 0 0 0 0 168.46 7.665 7.665 0 0 0 1.23 1.52 135.749 135.749 0 0 0 105.46 50.25h.02a135 135 0 0 0 59.31-13.64 136.7 136.7 0 0 0 46.15-36.61 7.846 7.846 0 0 0 1.24-1.53 135.745 135.745 0 0 0 23.28-44.22h198.01a32.036 32.036 0 0 0 32-32v-336a32.036 32.036 0 0 0 -32-32zm-351.67 242.35a169.825 169.825 0 0 0 -38.25 60.49 120.171 120.171 0 0 1 -27.48-22.8 120.063 120.063 0 0 1 65.73-37.69zm-75.72 50.47a136.076 136.076 0 0 0 32.62 25.72 165.963 165.963 0 0 0 -5.02 33.46h-47.94a119.348 119.348 0 0 1 20.34-59.18zm0 134.36a119.348 119.348 0 0 1 -20.34-59.18h47.94a165.963 165.963 0 0 0 5.02 33.46 136.076 136.076 0 0 0 -32.62 25.72zm9.99 12.78a120.171 120.171 0 0 1 27.48-22.8 169.825 169.825 0 0 0 38.25 60.49 120.063 120.063 0 0 1 -65.73-37.69zm81.4 30.66a154.25 154.25 0 0 1 -39.55-60.85 119.673 119.673 0 0 1 39.55-9.5zm0-86.39a135.872 135.872 0 0 0 -44.06 10.06 150.553 150.553 0 0 1 -3.72-26.29h47.78zm0-32.23h-47.78a150.553 150.553 0 0 1 3.72-26.29 135.872 135.872 0 0 0 44.06 10.06zm0-32.27a119.673 119.673 0 0 1 -39.55-9.5 154.25 154.25 0 0 1 39.55-60.85zm16 150.89v-70.35a119.673 119.673 0 0 1 39.55 9.5 154.25 154.25 0 0 1 -39.55 60.85zm81.4-190.58a120.171 120.171 0 0 1 -27.48 22.8 169.825 169.825 0 0 0 -38.25-60.49 120.063 120.063 0 0 1 65.73 37.69zm-17.4-168.04a16 16 0 1 1 16 16 16.021 16.021 0 0 1 -16-16zm-24.45 198.23a119.673 119.673 0 0 1 -39.55 9.5v-70.35a154.25 154.25 0 0 1 39.55 60.85zm4.51 15.48a150.553 150.553 0 0 1 3.72 26.29h-47.78v-16.23a135.872 135.872 0 0 0 44.06-10.06zm3.72 42.29a150.553 150.553 0 0 1 -3.72 26.29 135.872 135.872 0 0 0 -44.06-10.06v-16.23zm-32.11 109.65a169.825 169.825 0 0 0 38.25-60.49 120.171 120.171 0 0 1 27.48 22.8 120.063 120.063 0 0 1 -65.73 37.69zm75.72-50.47a136.076 136.076 0 0 0 -32.62-25.72 165.963 165.963 0 0 0 5.02-33.46h47.94a119.348 119.348 0 0 1 -20.34 59.18zm-27.6-75.18a165.963 165.963 0 0 0 -5.02-33.46 136.076 136.076 0 0 0 32.62-25.72 119.348 119.348 0 0 1 20.34 59.18zm272.21 16a16.021 16.021 0 0 1 -16 16h-194.12a135.967 135.967 0 0 0 -27.17-108.22 7.846 7.846 0 0 0 -1.24-1.53 136.415 136.415 0 0 0 -9.47-10.49v-120.77a32.008 32.008 0 0 0 0-61.98v-41.01a8 8 0 0 0 -16 0v41.01a32.008 32.008 0 0 0 0 61.98v107.1a135.956 135.956 0 0 0 -104-23.97v-194.12a16.021 16.021 0 0 1 16-16h336a16.021 16.021 0 0 1 16 16z"/><path d="m312 177.013v-129.013a8 8 0 0 0 -16 0v129.013a32 32 0 0 0 0 61.974v129.013a8 8 0 0 0 16 0v-129.013a32 32 0 0 0 0-61.974zm-8 46.987a16 16 0 1 1 16-16 16.019 16.019 0 0 1 -16 16z"/><path d="m384 241.013v-193.013a8 8 0 0 0 -16 0v193.013a32 32 0 0 0 0 61.974v65.013a8 8 0 0 0 16 0v-65.013a32 32 0 0 0 0-61.974zm-8 46.987a16 16 0 1 1 16-16 16.019 16.019 0 0 1 -16 16z"/><path d="m456 177.013v-129.013a8 8 0 0 0 -16 0v129.013a32 32 0 0 0 0 61.974v129.013a8 8 0 0 0 16 0v-129.013a32 32 0 0 0 0-61.974zm-8 46.987a16 16 0 1 1 16-16 16.019 16.019 0 0 1 -16 16z"/><path d="m160 40a8 8 0 0 0 -8 8v136a8 8 0 0 0 16 0v-136a8 8 0 0 0 -8-8z"/><path d="m160 200a8 8 0 0 0 -8 8v8a8 8 0 0 0 16 0v-8a8 8 0 0 0 -8-8z"/><path d="m32 264a8 8 0 0 0 8-8v-56h48a8 8 0 0 0 0-16h-56a8 8 0 0 0 -8 8v64a8 8 0 0 0 8 8z"/><path d="m304 416a8 8 0 0 0 -8 8v56h-48a8 8 0 0 0 0 16h56a8 8 0 0 0 8-8v-64a8 8 0 0 0 -8-8z"/></g></g></svg>