<svg height="512" viewBox="0 0 64 64" width="512" xmlns="http://www.w3.org/2000/svg"><g id="Database_network" data-name="Database network"><g class="product-icon-9bc9ff"><path d="m32 19c-6.075 0-11-1.343-11-3v5c0 1.657 4.925 3 11 3s11-1.343 11-3v-5c0 1.657-4.925 3-11 3z"/><path d="m56.77 39.36a33.27 33.27 0 0 1 -6.77.64c-6.08 0-11-1.34-11-3v5c0 1.66 4.92 3 11 3a36.194 36.194 0 0 0 5.48-.4c3.3-.51 5.52-1.49 5.52-2.6v-5c0 .96-1.65 1.82-4.23 2.36z"/><path d="m55.48 44.6a36.194 36.194 0 0 1 -5.48.4c-6.08 0-11-1.34-11-3v5c0 1.657 4.925 3 11 3s11-1.343 11-3v-5c0 1.11-2.22 2.09-5.52 2.6z"/><path d="m50 50c-6.075 0-11-1.343-11-3v5c0 1.5 4.029 2.736 9.29 2.96.559.024 1.127.04 1.71.04 6.075 0 11-1.343 11-3v-5c0 1.657-4.925 3-11 3z"/><path d="m25 52v-5c0 1.66-4.92 3-11 3-.96 0-1.89-.03-2.78-.1-4.73-.33-8.22-1.5-8.22-2.9v5c0 1.657 4.925 3 11 3 .583 0 1.151-.016 1.71-.04 5.261-.224 9.29-1.46 9.29-2.96z"/><path d="m11.22 49.9c.89.07 1.82.1 2.78.1 6.08 0 11-1.34 11-3v-5c0 1.66-4.92 3-11 3a36.194 36.194 0 0 1 -5.48-.4c-3.3-.51-5.52-1.49-5.52-2.6v5c0 1.4 3.49 2.57 8.22 2.9z"/><path d="m32 14c6.075 0 11-1.343 11-3v-5c0 1.657-4.925 3-11 3s-11-1.343-11-3v5c0 1.657 4.925 3 11 3z"/><path d="m8.52 44.6a36.194 36.194 0 0 0 5.48.4c6.08 0 11-1.34 11-3v-5c0 1.657-4.925 3-11 3s-11-1.343-11-3v5c0 1.11 2.22 2.09 5.52 2.6z"/><path d="m32 19c6.075 0 11-1.343 11-3v-5c0 1.657-4.925 3-11 3s-11-1.343-11-3v5c0 1.657 4.925 3 11 3z"/></g><path d="m57.905 33.887a26 26 0 0 0 -13.905-20.937v-6.95c0-3.158-7.543-4-12-4s-12 .842-12 4v6.95a26 26 0 0 0 -13.9 20.93c-2.33.611-4.1 1.593-4.1 3.12v15c0 3.158 7.543 4 12 4 .433 0 .9-.011 1.381-.028a25.923 25.923 0 0 0 33.238 0c.481.017.948.028 1.381.028 4.457 0 12-.842 12-4v-15c0-1.355-1.388-2.4-4.095-3.113zm2.1 13.071c-.278.712-3.962 2.042-10.005 2.042s-9.727-1.33-10-2v-2.622c2.547 1.232 6.979 1.622 10 1.622a37.455 37.455 0 0 0 5.633-.412 16.258 16.258 0 0 0 4.37-1.2zm0-5c-.082.21-1.116 1.1-4.679 1.655a35.381 35.381 0 0 1 -5.326.387c-6.049 0-9.729-1.329-10-2v-2.622c2.547 1.232 6.979 1.622 10 1.622a34.166 34.166 0 0 0 6.975-.661 13.516 13.516 0 0 0 3.025-.952zm-.021-4.958c-.158.239-1.008.876-3.423 1.382a32.64 32.64 0 0 1 -6.561.618c-6.025 0-9.7-1.318-10-1.951v-.017c.3-.714 3.975-2.032 10-2.032a32.459 32.459 0 0 1 6.751.656c2.276.509 3.081 1.116 3.233 1.344zm-17.978-16.042c-.279.712-3.963 2.042-10.006 2.042s-9.727-1.33-10-2v-2.622c2.547 1.232 6.979 1.622 10 1.622s7.457-.39 10-1.624zm-20.006-7.58c2.547 1.232 6.979 1.622 10 1.622s7.457-.39 10-1.624v.111a.147.147 0 0 1 0 .021v2.45c-.273.712-3.957 2.042-10 2.042s-9.727-1.33-10-2zm20.006-2.42c-.279.712-3.963 2.042-10.006 2.042s-9.727-1.33-10-2v-2.622c2.547 1.232 6.979 1.622 10 1.622s7.457-.39 10-1.624zm-10.006-6.958c5.925 0 9.582 1.278 9.986 2-.4.722-4.061 2-9.986 2-6.017 0-9.692-1.318-10-1.949v-.018c.308-.715 3.983-2.033 10-2.033zm-18 31c5.925 0 9.582 1.278 9.986 2-.4.722-4.061 2-9.986 2-6.017 0-9.692-1.318-10-1.949v-.018c.308-.715 3.983-2.033 10-2.033zm-10 9.385a16.271 16.271 0 0 0 4.367 1.2 37.455 37.455 0 0 0 5.633.415c3.022 0 7.457-.39 10-1.624v2.583c-.271.712-3.951 2.041-10 2.041-.992 0-1.875-.032-2.71-.1-5.132-.356-7.144-1.547-7.29-1.9zm20-5.009v2.583c-.271.712-3.951 2.041-10 2.041a35.381 35.381 0 0 1 -5.327-.388c-3.563-.551-4.597-1.445-4.673-1.612v-2.622c2.547 1.232 6.979 1.622 10 1.622s7.457-.39 10-1.624zm-20 12.624v-2.611a22.093 22.093 0 0 0 7.142 1.511c.878.069 1.813.1 2.858.1 3.022 0 7.457-.39 10-1.624v2.582c-.273.712-3.957 2.042-10 2.042s-9.727-1.33-10-2zm28 8a23.982 23.982 0 0 1 -13.609-4.251c3.803-.435 7.609-1.506 7.609-3.749v-15c0-3.158-7.543-4-12-4a37.97 37.97 0 0 0 -5.861.452 24.015 24.015 0 0 1 11.861-18.237v5.785c0 3.158 7.543 4 12 4s12-.842 12-4v-5.785a24.014 24.014 0 0 1 11.861 18.242 36.111 36.111 0 0 0 -5.861-.457c-4.457 0-12 .842-12 4v15c0 2.243 3.806 3.314 7.609 3.749a23.982 23.982 0 0 1 -13.609 4.251zm18-6c-.568 0-1.108-.015-1.633-.037-5.067-.211-8.119-1.356-8.367-1.963v-2.622c2.547 1.232 6.979 1.622 10 1.622s7.457-.39 10-1.624v2.582c-.273.712-3.957 2.042-10 2.042z" class="product-icon-1e81ce"/></g></svg>