<svg height="512" viewBox="0 0 64 64" width="512" xmlns="http://www.w3.org/2000/svg"><g id="Database"><g class="product-icon-9bc9ff"><path d="m16 33c-7.18 0-13-1.79-13-4v6c0 2.21 5.82 4 13 4s13-1.79 13-4v-6c0 2.21-5.82 4-13 4z"/><path d="m16 27c7.18 0 13-1.79 13-4v-6c0 1.19-1.7 2.27-4.4 3a34.028 34.028 0 0 1 -8.6 1 34.028 34.028 0 0 1 -8.6-1c-2.7-.73-4.4-1.81-4.4-3v6c0 2.21 5.82 4 13 4z"/><path d="m16 39c-7.18 0-13-1.79-13-4v6c0 2.21 5.82 4 13 4s13-1.79 13-4v-6c0 2.21-5.82 4-13 4z"/><path d="m16 45c-7.18 0-13-1.79-13-4v6c0 2.21 5.82 4 13 4s13-1.79 13-4v-6c0 2.21-5.82 4-13 4z"/><path d="m16 33c7.18 0 13-1.79 13-4v-6c0 2.21-5.82 4-13 4s-13-1.79-13-4v6c0 2.21 5.82 4 13 4z"/><path d="m35 57v2a2 2 0 0 0 2 2h22a2 2 0 0 0 2-2v-2z"/><path d="m37 43v12a2 2 0 0 0 2 2h18a2 2 0 0 0 2-2v-12a2 2 0 0 0 -2-2h-18a2 2 0 0 0 -2 2zm3 1h16v10h-16z"/><path d="m39 19h-4v2a2 2 0 0 0 2 2h22a2 2 0 0 0 2-2v-2z"/><path d="m59 17v-12a2 2 0 0 0 -2-2h-18a2 2 0 0 0 -2 2v12a2 2 0 0 0 2 2h18a2 2 0 0 0 2-2zm-3-1h-16v-10h16z"/></g><path d="m39 54a1 1 0 0 0 1 1h16a1 1 0 0 0 1-1v-10a1 1 0 0 0 -1-1h-16a1 1 0 0 0 -1 1zm2-9h14v8h-14z" class="product-icon-1e81ce"/><path d="m59 24a3 3 0 0 0 3-3v-2a1 1 0 0 0 -1-1h-1.184a2.966 2.966 0 0 0 .184-1v-12a3 3 0 0 0 -3-3h-18a3 3 0 0 0 -3 3v12a2.966 2.966 0 0 0 .184 1h-1.184a1 1 0 0 0 -1 1v2a3 3 0 0 0 3 3h10v5.184a3 3 0 0 0 -1.816 1.816h-15.184v-14c0-3.436-7.257-5-14-5s-14 1.564-14 5v30c0 3.436 7.257 5 14 5s14-1.564 14-5v-14h15.184a3 3 0 0 0 1.816 1.816v5.184h-8a3 3 0 0 0 -3 3v12a2.966 2.966 0 0 0 .184 1h-1.184a1 1 0 0 0 -1 1v2a3 3 0 0 0 3 3h22a3 3 0 0 0 3-3v-2a1 1 0 0 0 -1-1h-1.184a2.966 2.966 0 0 0 .184-1v-12a3 3 0 0 0 -3-3h-8v-5.184a2.982 2.982 0 0 0 0-5.632v-5.184zm-31 17c0 1.058-4.556 3-12 3s-12-1.942-12-3v-3.258c2.621 1.535 7.426 2.258 12 2.258s9.379-.723 12-2.258zm-20.861-20.035a35.219 35.219 0 0 0 8.861 1.035 35.219 35.219 0 0 0 8.861-1.035 13.052 13.052 0 0 0 3.139-1.233v3.268c0 1.058-4.556 3-12 3s-12-1.942-12-3v-3.268a13.052 13.052 0 0 0 3.139 1.233zm8.861 7.035c4.574 0 9.379-.723 12-2.258v3.258c0 1.058-4.556 3-12 3s-12-1.942-12-3v-3.258c2.621 1.535 7.426 2.258 12 2.258zm12 7c0 1.058-4.556 3-12 3s-12-1.942-12-3v-3.258c2.621 1.535 7.426 2.258 12 2.258s9.379-.723 12-2.258zm-12-21c7.444 0 12 1.942 12 3 0 .4-.994 1.313-3.661 2.035a33.2 33.2 0 0 1 -8.339.965 33.2 33.2 0 0 1 -8.339-.965c-2.667-.722-3.661-1.635-3.661-2.035 0-1.058 4.556-3 12-3zm0 36c-7.444 0-12-1.942-12-3v-3.258c2.621 1.535 7.426 2.258 12 2.258s9.379-.723 12-2.258v3.258c0 1.058-4.556 3-12 3zm44 9a1 1 0 0 1 -1 1h-22a1 1 0 0 1 -1-1v-1h24zm-2-16v12a1 1 0 0 1 -1 1h-18a1 1 0 0 1 -1-1v-12a1 1 0 0 1 1-1h18a1 1 0 0 1 1 1zm-10-10a1 1 0 1 1 1-1 1 1 0 0 1 -1 1zm-10-16v-12a1 1 0 0 1 1-1h18a1 1 0 0 1 1 1v12a1 1 0 0 1 -1 1h-18a1 1 0 0 1 -1-1zm-2 4v-1h24v1a1 1 0 0 1 -1 1h-22a1 1 0 0 1 -1-1z" class="product-icon-1e81ce"/><path d="m57 6a1 1 0 0 0 -1-1h-16a1 1 0 0 0 -1 1v10a1 1 0 0 0 1 1h16a1 1 0 0 0 1-1zm-2 9h-14v-8h14z" class="product-icon-1e81ce"/></g></svg>