<svg height="512" viewBox="0 0 512 512" width="512" xmlns="http://www.w3.org/2000/svg"><g><g><g class="product-icon-9bc9ff"><path d="m208 424h32v32h-32z"/><path d="m370.91 269.09a72 72 0 1 0 0 101.82 71.992 71.992 0 0 0 0-101.82zm-16.97 84.85a48 48 0 1 1 0-67.88 47.989 47.989 0 0 1 0 67.88z"/><path d="m391.853 379.61h32v56.485h-32z" transform="matrix(.707 -.707 .707 .707 -168.938 407.853)"/></g><path d="m387.882 387.882-11.313-11.313" style="fill:none"/></g><ellipse cx="224" cy="72" class="product-icon-9bc9ff" rx="112" ry="40"/><g class="product-icon-1e81ce"><path d="m464 464h-168v-8a8 8 0 0 0 -8-8h-40v-24a8 8 0 0 0 -8-8h-8v-40.11c9.87-.24 19.53-.92 28.84-2.05.84.92 1.7 1.84 2.59 2.73a80.116 80.116 0 0 0 107.21 5.36l.27.3 5.66 5.65-5.66 5.66a8 8 0 0 0 0 11.31l39.94 39.94a7.991 7.991 0 0 0 11.32 0l22.62-22.62a8 8 0 0 0 0-11.32l-39.94-39.94a8 8 0 0 0 -11.31 0l-5.66 5.66-5.65-5.66-.3-.27a79.932 79.932 0 0 0 -37.93-126.92v-171.72c0-10.13-6.61-24.57-38.11-35.82-22-7.85-51.08-12.18-81.89-12.18s-59.89 4.33-81.89 12.18c-31.5 11.25-38.11 25.69-38.11 35.82v256c0 18.35 20.73 29.61 38.11 35.82 20.08 7.17 46.07 11.39 73.89 12.07v40.11h-8a8 8 0 0 0 -8 8v24h-40a8 8 0 0 0 -8 8v8h-136a8 8 0 0 0 0 16h136v8a8 8 0 0 0 8 8h128a8 8 0 0 0 8-8v-8h168a8 8 0 0 0 0-16zm-64.8-76.12 28.62 28.63-11.31 11.31-28.63-28.62zm-33.95-113.13a64.049 64.049 0 1 1 -45.25-18.72 64.049 64.049 0 0 1 45.25 18.72zm-217.76-223.5c20.32-7.25 47.49-11.25 76.51-11.25 63.49 0 104 18.95 104 32 0 5.28-7.22 13.51-27.49 20.75-20.32 7.25-47.49 11.25-76.51 11.25-63.49 0-104-18.95-104-32 0-5.28 7.22-13.51 27.49-20.75zm-27.49 45.78a96.23 96.23 0 0 0 22.11 10.79c22 7.85 51.08 12.18 81.89 12.18s59.89-4.33 81.89-12.18a96.23 96.23 0 0 0 22.11-10.79v38.97c0 5.28-7.22 13.51-27.49 20.75-20.32 7.25-47.49 11.25-76.51 11.25-63.49 0-104-18.95-104-32zm0 64a96.23 96.23 0 0 0 22.11 10.79c22 7.85 51.08 12.18 81.89 12.18s59.89-4.33 81.89-12.18a96.23 96.23 0 0 0 22.11-10.79v38.97c0 5.28-7.22 13.51-27.49 20.75-20.32 7.25-47.49 11.25-76.51 11.25-63.49 0-104-18.95-104-32zm0 64a96.23 96.23 0 0 0 22.11 10.79c22 7.85 51.08 12.18 81.89 12.18s59.89-4.33 81.89-12.18a96.23 96.23 0 0 0 22.11-10.79v15.41a79.821 79.821 0 0 0 -84.07 54.9c-6.56.43-13.24.66-19.93.66-63.49 0-104-18.95-104-32zm27.49 123.72c-20.27-7.24-27.49-15.47-27.49-20.75v-38.97a96.23 96.23 0 0 0 22.11 10.79c22 7.85 51.08 12.18 81.89 12.18 5.52 0 11.03-.16 16.49-.44a80.167 80.167 0 0 0 9.61 47.31c-8.47.75-17.2 1.13-26.1 1.13-29.02 0-56.19-4-76.51-11.25zm68.51 83.25h16v16h-16zm64 48h-112v-16h112z"/><path d="m496 464h-8a8 8 0 0 0 0 16h8a8 8 0 0 0 0-16z"/><path d="m280.4 280.4a56 56 0 1 0 39.6-16.4 55.637 55.637 0 0 0 -39.6 16.4zm79.6 39.6a40 40 0 1 1 -11.716-28.284 39.734 39.734 0 0 1 11.716 28.284z"/></g></g></svg>