<svg height="512" viewBox="0 0 512 512" width="512" xmlns="http://www.w3.org/2000/svg"><g><g><g class="product-icon-9bc9ff"><circle cx="312" cy="248" r="47.998"/><path d="m472 128h-121.38a24 24 0 0 1 -22.62 16h-128l16 64-80-64h-64a24 24 0 0 1 -22.62-16h-9.38a24.006 24.006 0 0 0 -24 24v216h393.37l-40.8-40.8 22.63-22.63 63.43 63.43h41.37v-216a24.006 24.006 0 0 0 -24-24zm-109.09 170.91a72 72 0 1 1 0-101.82 71.992 71.992 0 0 1 0 101.82z"/><path d="m312 464h-112l16-48h80z"/><circle cx="312" cy="248" r="47.998"/><circle cx="312" cy="248" r="47.998"/></g><path d="m379.882 315.882-11.313-11.313" style="fill:none"/></g><g class="product-icon-1e81ce"><path d="m351.6 208.4a56 56 0 1 0 16.4 39.6 55.637 55.637 0 0 0 -16.4-39.6zm-11.314 67.883a40 40 0 1 1 11.714-28.283 39.734 39.734 0 0 1 -11.716 28.284z"/><path d="m472 120h-112v-72a32.036 32.036 0 0 0 -32-32h-256a32.036 32.036 0 0 0 -32 32v72a32.036 32.036 0 0 0 -32 32v240a32.036 32.036 0 0 0 32 32h164.9l-10.67 32h-26.23a8 8 0 0 0 -8 8v16h-80a8 8 0 0 0 0 16h352a8 8 0 0 0 0-16h-80v-16a8 8 0 0 0 -8-8h-26.23l-10.67-32h164.9a32.036 32.036 0 0 0 32-32v-240a32.036 32.036 0 0 0 -32-32zm-416-72a16.021 16.021 0 0 1 16-16h256a16.021 16.021 0 0 1 16 16v72a16.021 16.021 0 0 1 -16 16h-128a8 8 0 0 0 -7.76 9.94l10.25 41.01-61.49-49.2a8.028 8.028 0 0 0 -5-1.75h-64a16.021 16.021 0 0 1 -16-16zm280 424v8h-160v-8zm-124.9-16 10.67-32h68.46l10.67 32zm276.9-64a16.021 16.021 0 0 1 -16 16h-432a16.021 16.021 0 0 1 -16-16v-16h382.06l28.79 28.79a7.991 7.991 0 0 0 11.32 0l22.62-22.62a8.018 8.018 0 0 0 2.35-5.66c0-.17-.02-.34-.03-.51h16.89zm-108.12-64.8 11.32-11.32 60.62 60.63-11.31 11.31zm108.12 32.8h-24a7.942 7.942 0 0 0 -4.6 1.46l-62.55-62.55a8 8 0 0 0 -11.31 0l-5.66 5.66-5.65-5.66-.3-.27a79.866 79.866 0 1 0 -11.29 11.29l.27.3 5.66 5.65-5.66 5.66a8 8 0 0 0 0 11.31l27.15 27.15h-366.06v-208a16.021 16.021 0 0 1 16-16 7.87 7.87 0 0 0 3.77-.95 32.024 32.024 0 0 0 28.23 16.95h61.19l77.81 62.25a8 8 0 0 0 12.76-8.19l-13.51-54.06h117.75a32.01 32.01 0 0 0 27.69-16h116.31a16.021 16.021 0 0 1 16 16zm-130.75-66.75a63.97 63.97 0 1 1 0-90.5 64.049 64.049 0 0 1 0 90.5z"/><path d="m96 384h-48a8 8 0 0 0 0 16h48a8 8 0 0 0 0-16z"/><path d="m128 384h-8a8 8 0 0 0 0 16h8a8 8 0 0 0 0-16z"/><path d="m168 120h64a8 8 0 0 0 8-8v-56a8 8 0 0 0 -16 0v48h-16v-24a8 8 0 0 0 -16 0v24h-16v-48a8 8 0 0 0 -16 0v56a8 8 0 0 0 8 8z"/><path d="m80 120h64a8 8 0 0 0 8-8v-56a8 8 0 0 0 -16 0v48h-16v-24a8 8 0 0 0 -16 0v24h-16v-48a8 8 0 0 0 -16 0v56a8 8 0 0 0 8 8z"/><path d="m256 120h64a8 8 0 0 0 8-8v-56a8 8 0 0 0 -16 0v48h-16v-24a8 8 0 0 0 -16 0v24h-16v-48a8 8 0 0 0 -16 0v56a8 8 0 0 0 8 8z"/></g></g></svg>