<svg height="512" viewBox="0 0 64 64" width="512" xmlns="http://www.w3.org/2000/svg"><g id="Domain"><g class="product-icon-9bc9ff"><path d="m59 3h-54a2 2 0 0 0 -2 2v10h58v-10a2 2 0 0 0 -2-2zm-50 8a2 2 0 1 1 2-2 2 2 0 0 1 -2 2zm7 0a2 2 0 1 1 2-2 2 2 0 0 1 -2 2zm7 0a2 2 0 1 1 2-2 2 2 0 0 1 -2 2zm34 0h-28v-4h28z"/><path d="m40.807 29a33.233 33.233 0 0 1 1.193 9h9a19 19 0 0 0 -19-19c3.809 0 7.119 4.047 8.807 10z"/><path d="m32 57c-3.809 0-7.119-4.047-8.807-10a33.233 33.233 0 0 1 -1.193-9h-9a19 19 0 0 0 19 19z"/><path d="m23.193 29c1.688-5.953 5-10 8.807-10a19 19 0 0 0 -19 19h9a33.233 33.233 0 0 1 1.193-9z"/><path d="m40.807 47c-1.688 5.953-5 10-8.807 10a19 19 0 0 0 19-19h-9a33.233 33.233 0 0 1 -1.193 9z"/><path d="m32 47h8.807a33.233 33.233 0 0 0 1.193-9h-10z"/><path d="m42 38a33.233 33.233 0 0 0 -1.193-9h-8.807v9z"/><path d="m32 38h-10a33.233 33.233 0 0 0 1.193 9h8.807z"/><path d="m23.193 47c1.688 5.953 5 10 8.807 10v-10z"/><path d="m32 29h-8.807a33.233 33.233 0 0 0 -1.193 9h10z"/><path d="m40.807 29c-1.688-5.953-5-10-8.807-10v10z"/><path d="m23.193 29h8.807v-10c-3.809 0-7.119 4.047-8.807 10z"/><path d="m40.807 47h-8.807v10c3.809 0 7.119-4.047 8.807-10z"/></g><path d="m59 2h-54a3 3 0 0 0 -3 3v54a3 3 0 0 0 3 3h54a3 3 0 0 0 3-3v-54a3 3 0 0 0 -3-3zm-55 3a1 1 0 0 1 1-1h54a1 1 0 0 1 1 1v9h-56zm56 54a1 1 0 0 1 -1 1h-54a1 1 0 0 1 -1-1v-43h56z" class="product-icon-1e81ce"/><path d="m57 6h-28a1 1 0 0 0 -1 1v4a1 1 0 0 0 1 1h28a1 1 0 0 0 1-1v-4a1 1 0 0 0 -1-1zm-1 4h-26v-2h26z" class="product-icon-1e81ce"/><path d="m9 6a3 3 0 1 0 3 3 3 3 0 0 0 -3-3zm0 4a1 1 0 1 1 1-1 1 1 0 0 1 -1 1z" class="product-icon-1e81ce"/><path d="m16 6a3 3 0 1 0 3 3 3 3 0 0 0 -3-3zm0 4a1 1 0 1 1 1-1 1 1 0 0 1 -1 1z" class="product-icon-1e81ce"/><path d="m23 6a3 3 0 1 0 3 3 3 3 0 0 0 -3-3zm0 4a1 1 0 1 1 1-1 1 1 0 0 1 -1 1z" class="product-icon-1e81ce"/><path d="m32 58a20 20 0 1 0 -20-20 20.023 20.023 0 0 0 20 20zm-14.956-10h5.4a19.066 19.066 0 0 0 3.715 7.006 18.072 18.072 0 0 1 -9.115-7.006zm32.905-11h-6.976a34.818 34.818 0 0 0 -.862-7h5.989a17.834 17.834 0 0 1 1.849 7zm-18.949 11v7.875c-2.641-.615-4.977-3.619-6.432-7.875zm-7.017-2a32.135 32.135 0 0 1 -.957-7h7.974v7zm9.017 9.875v-7.875h6.432c-1.455 4.256-3.791 7.26-6.432 7.875zm0-9.875v-7h7.974a32.135 32.135 0 0 1 -.957 7zm9.973-7h6.976a17.834 17.834 0 0 1 -1.849 7h-5.99a34.818 34.818 0 0 0 .863-7zm-2-2h-7.973v-7h7.017a32.135 32.135 0 0 1 .957 7zm-7.973-9v-7.875c2.641.615 4.977 3.619 6.432 7.875zm-2-7.875v7.875h-6.432c1.455-4.256 3.791-7.26 6.432-7.875zm0 9.875v7h-7.974a32.135 32.135 0 0 1 .957-7zm-9.973 7h-6.976a17.834 17.834 0 0 1 1.849-7h5.99a34.818 34.818 0 0 0 -.863 7zm0 2a34.818 34.818 0 0 0 .862 7h-5.989a17.834 17.834 0 0 1 -1.848-7zm16.819 16.006a19.066 19.066 0 0 0 3.715-7.006h5.4a18.072 18.072 0 0 1 -9.115 7.006zm9.11-27.006h-5.4a19.066 19.066 0 0 0 -3.715-7.006 18.072 18.072 0 0 1 9.115 7.006zm-20.8-7.006a19.066 19.066 0 0 0 -3.717 7.006h-5.395a18.072 18.072 0 0 1 9.11-7.006z" class="product-icon-1e81ce"/></g></svg>