<svg height="512" viewBox="0 0 512 512" width="512" xmlns="http://www.w3.org/2000/svg"><g><g><g class="product-icon-9bc9ff"><circle cx="152" cy="72" r="16"/><circle cx="208" cy="72" r="16"/><circle cx="264" cy="72" r="16"/><circle cx="152" cy="208" r="16"/><circle cx="208" cy="208" r="16"/><circle cx="264" cy="208" r="16"/><path d="m165.86 352a16 16 0 1 0 -27.72 0z"/><path d="m221.86 352a16 16 0 1 0 -27.72 0z"/><circle cx="264" cy="344" r="16"/><path d="m144 128h320v24h-320z"/><path d="m144 264h320v24h-320z"/><path d="m224 352v40l-104 32-104-32v-40z"/></g><path d="m64 408-32 88" style="fill:none"/><path d="m176 408 32 88" style="fill:none"/></g><g class="product-icon-1e81ce"><path d="m504 104v-64a32.042 32.042 0 0 0 -32-32h-336a32.042 32.042 0 0 0 -32 32v64a32.042 32.042 0 0 0 32 32v8a32.042 32.042 0 0 0 -32 32v64a32.042 32.042 0 0 0 32 32v8a32.042 32.042 0 0 0 -32 32v32h-88a8 8 0 0 0 -8 8v144a8 8 0 0 0 8 8h208a8 8 0 0 0 8-8v-88h240a32.042 32.042 0 0 0 32-32v-64a32.042 32.042 0 0 0 -32-32v-8a32.042 32.042 0 0 0 32-32v-64a32.042 32.042 0 0 0 -32-32v-8a32.042 32.042 0 0 0 32-32zm-477.6 384h-2.4v-85.17l30.01 9.24zm17.02 0 25.9-71.22 48.33 14.87a8.064 8.064 0 0 0 4.7 0l48.33-14.87 25.9 71.22zm172.58 0h-2.4l-27.61-75.93 30.01-9.24zm0-101.91-96 29.54-96-29.54v-26.09h192zm-72-42.09a8 8 0 0 1 16 0zm56 0a8 8 0 0 1 16 0zm288-32v64a16.021 16.021 0 0 1 -16 16h-240v-40a8.01 8.01 0 0 0 -.55-2.91 24 24 0 1 0 -47.45-5.09h-8a24 24 0 0 0 -48 0h-8v-32a16.021 16.021 0 0 1 16-16h336a16.021 16.021 0 0 1 16 16zm-336-32v-8h304v8zm336-104v64a16.021 16.021 0 0 1 -16 16h-336a16.021 16.021 0 0 1 -16-16v-64a16.021 16.021 0 0 1 16-16h336a16.021 16.021 0 0 1 16 16zm-336-32v-8h304v8zm-16-24a16.021 16.021 0 0 1 -16-16v-64a16.021 16.021 0 0 1 16-16h336a16.021 16.021 0 0 1 16 16v64a16.021 16.021 0 0 1 -16 16z"/><path d="m176 72a24 24 0 1 0 -24 24 24.028 24.028 0 0 0 24-24zm-32 0a8 8 0 1 1 8 8 8.009 8.009 0 0 1 -8-8z"/><path d="m208 96a24 24 0 1 0 -24-24 24.028 24.028 0 0 0 24 24zm0-32a8 8 0 1 1 -8 8 8.009 8.009 0 0 1 8-8z"/><path d="m264 96a24 24 0 1 0 -24-24 24.028 24.028 0 0 0 24 24zm0-32a8 8 0 1 1 -8 8 8.009 8.009 0 0 1 8-8z"/><path d="m376 72h96a8 8 0 0 0 0-16h-96a8 8 0 0 0 0 16z"/><path d="m472 80h-40a8 8 0 0 0 0 16h40a8 8 0 0 0 0-16z"/><path d="m344 72h8a8 8 0 0 0 0-16h-8a8 8 0 0 0 0 16z"/><path d="m152 184a24 24 0 1 0 24 24 24.028 24.028 0 0 0 -24-24zm0 32a8 8 0 1 1 8-8 8.009 8.009 0 0 1 -8 8z"/><path d="m208 184a24 24 0 1 0 24 24 24.028 24.028 0 0 0 -24-24zm0 32a8 8 0 1 1 8-8 8.009 8.009 0 0 1 -8 8z"/><path d="m264 184a24 24 0 1 0 24 24 24.028 24.028 0 0 0 -24-24zm0 32a8 8 0 1 1 8-8 8.009 8.009 0 0 1 -8 8z"/><path d="m376 192a8 8 0 0 0 0 16h96a8 8 0 0 0 0-16z"/><path d="m472 216h-40a8 8 0 0 0 0 16h40a8 8 0 0 0 0-16z"/><path d="m352 192h-8a8 8 0 0 0 0 16h8a8 8 0 0 0 0-16z"/><path d="m264 320a24 24 0 1 0 24 24 24.028 24.028 0 0 0 -24-24zm0 32a8 8 0 1 1 8-8 8.009 8.009 0 0 1 -8 8z"/><path d="m376 328a8 8 0 0 0 0 16h96a8 8 0 0 0 0-16z"/><path d="m472 352h-40a8 8 0 0 0 0 16h40a8 8 0 0 0 0-16z"/><path d="m352 328h-8a8 8 0 0 0 0 16h8a8 8 0 0 0 0-16z"/></g></g></svg>