<svg height="512" viewBox="0 0 64 64" width="512" xmlns="http://www.w3.org/2000/svg"><g id="Email_Setting" data-name="Email Setting"><g class="product-icon-9bc9ff"><path d="m40.28 46-4.28-3.1-2.827-2.048a2 2 0 0 0 -2.346 0l-2.827 2.048-4.283 3.1-20.717 15h58l-20.717-15z"/><path d="m61 61v-30l-20.717 14.998z"/><path d="m3 31v30l20.717-15.002z"/><path d="m16.5 27a16 16 0 0 0 1.71 4.13l-3.18 3.18 5.66 5.66 3.18-3.18a16 16 0 0 0 4.13 1.71v4.4l2.827-2.048a2 2 0 0 1 2.346 0l2.827 2.048v-4.4a16 16 0 0 0 4.13-1.71l3.18 3.18 5.66-5.66-3.18-3.18a16 16 0 0 0 1.71-4.13h4.5v-8h-4.5a16 16 0 0 0 -1.71-4.13l3.18-3.18-5.66-5.66-3.18 3.18a16 16 0 0 0 -4.13-1.71v-4.5h-8v4.5a16 16 0 0 0 -4.13 1.71l-3.18-3.18-5.66 5.66 3.18 3.18a16 16 0 0 0 -1.71 4.13h-4.5v8zm15.5-15a11 11 0 1 1 -11 11 11 11 0 0 1 11-11z"/></g><path d="m32 31h4a1 1 0 0 0 0-2h-4a6 6 0 1 1 6-6v1a1 1 0 0 1 -2 0v-1a4.033 4.033 0 1 0 -1.286 2.92 2.987 2.987 0 0 0 5.286-1.92v-1a8 8 0 1 0 -8 8zm0-6a2 2 0 1 1 2-2 2 2 0 0 1 -2 2z" class="product-icon-1e81ce"/><path d="m61.587 30.19-8.587-6.221v-4.969a1 1 0 0 0 -1-1h-3.744a17 17 0 0 0 -1.224-2.958l2.645-2.642a1 1 0 0 0 0-1.414l-5.66-5.66a1 1 0 0 0 -1.414 0l-2.645 2.642a17 17 0 0 0 -2.958-1.224v-3.744a1 1 0 0 0 -1-1h-8a1 1 0 0 0 -1 1v3.744a17 17 0 0 0 -2.958 1.224l-2.642-2.645a1 1 0 0 0 -1.414 0l-5.66 5.66a1 1 0 0 0 0 1.414l2.645 2.645a17 17 0 0 0 -1.227 2.958h-3.744a1 1 0 0 0 -1 1v4.969l-8.587 6.221a1 1 0 0 0 -.413.81v30a1 1 0 0 0 1 1h58a1 1 0 0 0 1-1v-30a1 1 0 0 0 -.413-.81zm-39.575 15.81-18.012 13.041v-26.083zm9.4-4.338a1 1 0 0 1 1.172 0l25.33 18.338h-51.828zm10.576 4.338 18.012-13.042v26.083zm17.312-15-19.017 13.763-3.283-2.377v-3.13a17 17 0 0 0 2.958-1.224l2.642 2.645a1 1 0 0 0 1.414 0l5.66-5.66a1 1 0 0 0 0-1.414l-2.645-2.645a17 17 0 0 0 1.227-2.958h3.744a1 1 0 0 0 1-1v-.56zm-46.3-11h3.5a1 1 0 0 0 .968-.75 14.994 14.994 0 0 1 1.6-3.872 1 1 0 0 0 -.154-1.215l-2.47-2.473 4.246-4.246 2.473 2.473a1 1 0 0 0 1.215.154 14.994 14.994 0 0 1 3.872-1.6 1 1 0 0 0 .75-.971v-3.5h6v3.5a1 1 0 0 0 .75.968 14.994 14.994 0 0 1 3.872 1.6 1 1 0 0 0 1.215-.154l2.473-2.47 4.246 4.246-2.473 2.473a1 1 0 0 0 -.154 1.215 14.994 14.994 0 0 1 1.6 3.872 1 1 0 0 0 .971.75h3.5v6h-3.5a1 1 0 0 0 -.968.75 14.994 14.994 0 0 1 -1.6 3.872 1 1 0 0 0 .154 1.215l2.473 2.473-4.249 4.246-2.473-2.473a1 1 0 0 0 -1.215-.154 14.994 14.994 0 0 1 -3.872 1.6 1 1 0 0 0 -.75.971v2.438l-1.241-.9a2.993 2.993 0 0 0 -3.518 0l-1.241.9v-2.438a1 1 0 0 0 -.75-.968 14.994 14.994 0 0 1 -3.872-1.6 1 1 0 0 0 -1.215.154l-2.473 2.47-4.246-4.246 2.473-2.473a1 1 0 0 0 .154-1.215 14.994 14.994 0 0 1 -1.6-3.872 1 1 0 0 0 -.971-.75h-3.5zm-1 8h3.744a17 17 0 0 0 1.224 2.958l-2.645 2.642a1 1 0 0 0 0 1.414l5.66 5.66a1 1 0 0 0 1.414 0l2.645-2.645a17 17 0 0 0 2.958 1.227v3.13l-3.283 2.377-19.012-13.763 6.295-4.56v.56a1 1 0 0 0 1 1z" class="product-icon-1e81ce"/><path d="m32 35a12 12 0 1 0 -12-12 12.013 12.013 0 0 0 12 12zm0-22a10 10 0 1 1 -10 10 10.011 10.011 0 0 1 10-10z" class="product-icon-1e81ce"/></g></svg>