<svg height="512" viewBox="0 0 512 512" width="512" xmlns="http://www.w3.org/2000/svg"><g><path d="m424 16v24h-112l-24 40h-197v-64z" class="product-icon-9bc9ff"/><g class="product-icon-9bc9ff"><path d="m240 432h32v32h-32z"/><path d="m240 288h32v32h-32z"/></g><g class="product-icon-1e81ce"><path d="m464 472h-136v-8a8 8 0 0 0 -8-8h-40v-24a8 8 0 0 0 -8-8h-8v-96h8a8 8 0 0 0 8-8v-24h160a8 8 0 0 0 8-8v-248a8 8 0 0 0 -8-8h-8v-16a8 8 0 0 0 -8-8h-336a8 8 0 0 0 -8 8v56h-8a8 8 0 0 0 -8 8v208a8 8 0 0 0 8 8h160v24a8 8 0 0 0 8 8h8v96h-8a8 8 0 0 0 -8 8v24h-40a8 8 0 0 0 -8 8v8h-168a8 8 0 0 0 0 16h168v8a8 8 0 0 0 8 8h128a8 8 0 0 0 8-8v-8h136a8 8 0 0 0 0-16zm-200-160h-16v-16h16zm-168-288h320v8h-104a8 8 0 0 0 -6.86 3.88l-21.67 36.12h-187.47zm-16 256v-192h208a8 8 0 0 0 6.86-3.88l21.67-36.12h115.47v232zm168 160h16v16h-16zm64 48h-112v-16h112z"/><path d="m496 472h-8a8 8 0 0 0 0 16h8a8 8 0 0 0 0-16z"/><path d="m288 264h88a8 8 0 0 0 0-16h-88a8 8 0 0 0 0 16z"/><path d="m408 248h-8a8 8 0 0 0 0 16h8a8 8 0 0 0 0-16z"/><path d="m288 240h120a8 8 0 0 0 0-16h-120a8 8 0 0 0 0 16z"/></g></g></svg>