<svg height="512" viewBox="0 0 512 512" width="512" xmlns="http://www.w3.org/2000/svg"><g><path d="m328 16v24h-24l-8 16h-112v-40z" class="product-icon-9bc9ff"/><g class="product-icon-9bc9ff"><path d="m240 200h32v24h-32z"/><path d="m208 336h-160a16 16 0 0 0 -16 16v112h192v-112a16 16 0 0 0 -16-16zm-8 104h-144v-80h144z"/><path d="m464 336h-160a16 16 0 0 0 -16 16v112h192v-112a16 16 0 0 0 -16-16zm-8 104h-144v-80h144z"/></g><g class="product-icon-1e81ce"><path d="m48 360v80a8 8 0 0 0 8 8h144a8 8 0 0 0 8-8v-80a8 8 0 0 0 -8-8h-144a8 8 0 0 0 -8 8zm16 8h128v64h-128z"/><path d="m496 456h-8v-104a24.032 24.032 0 0 0 -24-24h-24v-88a8 8 0 0 0 -8-8h-128v-8a8 8 0 0 0 -8-8h-16v-16a8 8 0 0 0 -8-8h-8v-24h80a8 8 0 0 0 8-8v-120a8 8 0 0 0 -8-8h-8v-16a8 8 0 0 0 -8-8h-144a8 8 0 0 0 -8 8v32h-8a8 8 0 0 0 -8 8v104a8 8 0 0 0 8 8h80v24h-8a8 8 0 0 0 -8 8v16h-16a8 8 0 0 0 -8 8v8h-128a8 8 0 0 0 -8 8v88h-24a24.032 24.032 0 0 0 -24 24v104h-8a8 8 0 0 0 -8 8v16a24.032 24.032 0 0 0 24 24h192a24.032 24.032 0 0 0 24-24v-16a8 8 0 0 0 -8-8h-8v-104a24.032 24.032 0 0 0 -24-24h-120v-80h120v8a8 8 0 0 0 8 8h80a8 8 0 0 0 8-8v-8h120v80h-120a24.032 24.032 0 0 0 -24 24v104h-8a8 8 0 0 0 -8 8v16a24.032 24.032 0 0 0 24 24h192a24.032 24.032 0 0 0 24-24v-16a8 8 0 0 0 -8-8zm-264 16v8a8.011 8.011 0 0 1 -8 8h-192a8.011 8.011 0 0 1 -8-8v-8zm-24-128a8.011 8.011 0 0 1 8 8v104h-176v-104a8.011 8.011 0 0 1 8-8zm-16-320h128v8h-16a8.011 8.011 0 0 0 -7.16 4.42l-5.78 11.58h-99.06zm-16 128v-88h120a8.011 8.011 0 0 0 7.16-4.42l5.78-11.58h27.06v104zm72 56h16v8h-16zm40 40h-64v-16h64zm8 104a8.011 8.011 0 0 1 8-8h160a8.011 8.011 0 0 1 8 8v104h-176zm192 128a8.011 8.011 0 0 1 -8 8h-192a8.011 8.011 0 0 1 -8-8v-8h208z"/><path d="m456 352h-144a8 8 0 0 0 -8 8v80a8 8 0 0 0 8 8h144a8 8 0 0 0 8-8v-80a8 8 0 0 0 -8-8zm-8 80h-128v-64h128z"/></g></g></svg>