<svg height="512" viewBox="0 0 512 512" width="512" xmlns="http://www.w3.org/2000/svg"><g><g class="product-icon-9bc9ff"><circle cx="192" cy="136" r="16"/><circle cx="192" cy="56" r="16"/><circle cx="192" cy="216" r="16"/><circle cx="56" cy="376" r="16"/><circle cx="256" cy="376" r="16"/><circle cx="456" cy="376" r="16"/></g><g class="product-icon-1e81ce"><path d="m192 112a24 24 0 1 0 24 24 24.027 24.027 0 0 0 -24-24zm0 32a8 8 0 1 1 8-8 8.009 8.009 0 0 1 -8 8z"/><path d="m344 120a8 8 0 0 0 -8-8h-64a8 8 0 0 0 0 16h64a8 8 0 0 0 8-8z"/><path d="m336 136h-16a8 8 0 0 0 0 16h16a8 8 0 0 0 0-16z"/><path d="m248 112h-8a8 8 0 0 0 0 16h8a8 8 0 0 0 0-16z"/><path d="m192 80a24 24 0 1 0 -24-24 24.027 24.027 0 0 0 24 24zm0-32a8 8 0 1 1 -8 8 8.009 8.009 0 0 1 8-8z"/><path d="m272 48h64a8 8 0 0 0 0-16h-64a8 8 0 0 0 0 16z"/><path d="m336 56h-16a8 8 0 0 0 0 16h16a8 8 0 0 0 0-16z"/><path d="m240 48h8a8 8 0 0 0 0-16h-8a8 8 0 0 0 0 16z"/><path d="m192 192a24 24 0 1 0 24 24 24.027 24.027 0 0 0 -24-24zm0 32a8 8 0 1 1 8-8 8.009 8.009 0 0 1 -8 8z"/><path d="m32 376a24 24 0 1 0 24-24 24.027 24.027 0 0 0 -24 24zm32 0a8 8 0 1 1 -8-8 8.009 8.009 0 0 1 8 8z"/><path d="m272 208h64a8 8 0 0 0 0-16h-64a8 8 0 0 0 0 16z"/><path d="m336 216h-16a8 8 0 0 0 0 16h16a8 8 0 0 0 0-16z"/><path d="m248 192h-8a8 8 0 0 0 0 16h8a8 8 0 0 0 0-16z"/><path d="m64 464h-16a8 8 0 0 0 0 16h16a8 8 0 0 0 0-16z"/><path d="m232 376a24 24 0 1 0 24-24 24.027 24.027 0 0 0 -24 24zm32 0a8 8 0 1 1 -8-8 8.009 8.009 0 0 1 8 8z"/><path d="m264 464h-16a8 8 0 0 0 0 16h16a8 8 0 0 0 0-16z"/><path d="m480 328h-16v-32a8 8 0 0 0 -8-8h-192v-24h80a24.032 24.032 0 0 0 24-24v-48a23.9 23.9 0 0 0 -6.13-16 23.9 23.9 0 0 0 6.13-16v-48a23.9 23.9 0 0 0 -6.13-16 23.9 23.9 0 0 0 6.13-16v-48a24.032 24.032 0 0 0 -24-24h-176a24.032 24.032 0 0 0 -24 24v48a23.9 23.9 0 0 0 6.13 16 23.9 23.9 0 0 0 -6.13 16v48a23.9 23.9 0 0 0 6.13 16 23.9 23.9 0 0 0 -6.13 16v48a24.032 24.032 0 0 0 24 24h80v24h-192a8 8 0 0 0 -8 8v32h-16a24.032 24.032 0 0 0 -24 24v128a24.032 24.032 0 0 0 24 24h48a24.032 24.032 0 0 0 24-24v-128a24.032 24.032 0 0 0 -24-24h-16v-24h184v24h-16a24.032 24.032 0 0 0 -24 24v128a24.032 24.032 0 0 0 24 24h48a24.032 24.032 0 0 0 24-24v-128a24.032 24.032 0 0 0 -24-24h-16v-24h184v24h-16a24.032 24.032 0 0 0 -24 24v128a24.032 24.032 0 0 0 24 24h48a24.032 24.032 0 0 0 24-24v-128a24.032 24.032 0 0 0 -24-24zm-400 16a8.011 8.011 0 0 1 8 8v128a8.011 8.011 0 0 1 -8 8h-48a8.011 8.011 0 0 1 -8-8v-128a8.011 8.011 0 0 1 8-8zm80-312a8.011 8.011 0 0 1 8-8h176a8.011 8.011 0 0 1 8 8v48a8.011 8.011 0 0 1 -8 8h-176a8.011 8.011 0 0 1 -8-8zm0 80a8.011 8.011 0 0 1 8-8h176a8.011 8.011 0 0 1 8 8v48a8.011 8.011 0 0 1 -8 8h-176a8.011 8.011 0 0 1 -8-8zm120 232a8.011 8.011 0 0 1 8 8v128a8.011 8.011 0 0 1 -8 8h-48a8.011 8.011 0 0 1 -8-8v-128a8.011 8.011 0 0 1 8-8zm-112-96a8.011 8.011 0 0 1 -8-8v-48a8.011 8.011 0 0 1 8-8h176a8.011 8.011 0 0 1 8 8v48a8.011 8.011 0 0 1 -8 8zm320 232a8.011 8.011 0 0 1 -8 8h-48a8.011 8.011 0 0 1 -8-8v-128a8.011 8.011 0 0 1 8-8h48a8.011 8.011 0 0 1 8 8z"/><path d="m456 352a24 24 0 1 0 24 24 24.027 24.027 0 0 0 -24-24zm0 32a8 8 0 1 1 8-8 8.009 8.009 0 0 1 -8 8z"/><path d="m464 464h-16a8 8 0 0 0 0 16h16a8 8 0 0 0 0-16z"/><path d="m64 440h-16a8 8 0 0 0 0 16h16a8 8 0 0 0 0-16z"/><path d="m264 440h-16a8 8 0 0 0 0 16h16a8 8 0 0 0 0-16z"/><path d="m464 440h-16a8 8 0 0 0 0 16h16a8 8 0 0 0 0-16z"/><path d="m64 416h-16a8 8 0 0 0 0 16h16a8 8 0 0 0 0-16z"/><path d="m264 416h-16a8 8 0 0 0 0 16h16a8 8 0 0 0 0-16z"/><path d="m464 416h-16a8 8 0 0 0 0 16h16a8 8 0 0 0 0-16z"/></g></g></svg>