<svg height="512" viewBox="0 0 64 64" width="512" xmlns="http://www.w3.org/2000/svg"><g id="Firewall"><g class="product-icon-9bc9ff"><path d="m32 15a17 17 0 1 0 17 17 17 17 0 0 0 -17-17zm9 26a2 2 0 0 1 -2 2h-14a2 2 0 0 1 -2-2v-10a2 2 0 0 1 2-2h1v-4a6 6 0 0 1 12 0v4h1a2 2 0 0 1 2 2z"/><path d="m32 22a3 3 0 0 0 -3 3v4h6v-4a3 3 0 0 0 -3-3z"/><circle cx="32" cy="34" r="2"/><path d="m45 53h16v8h-16z"/><path d="m3 53h16v8h-16z"/><path d="m3 37h8.61a20.8 20.8 0 0 1 0-10h-8.61z"/><path d="m53 32a20.623 20.623 0 0 1 -.61 5h8.61v-10h-8.61a20.623 20.623 0 0 1 .61 5z"/><path d="m44.31 49h16.69v-8h-10.03a21.114 21.114 0 0 1 -6.66 8z"/><path d="m13.03 41h-10.03v8h16.69a21.114 21.114 0 0 1 -6.66-8z"/><path d="m50.97 23h10.03v-8h-16.69a21.114 21.114 0 0 1 6.66 8z"/><path d="m3 23h10.03a21.114 21.114 0 0 1 6.66-8h-16.69z"/><path d="m23 53h18v8h-18z"/><path d="m45 3h16v8h-16z"/><path d="m3 3h16v8h-16z"/><path d="m23 3h18v8h-18z"/></g><path d="m32 50a18 18 0 1 1 18-18 18.021 18.021 0 0 1 -18 18zm0-34a16 16 0 1 0 16 16 16.019 16.019 0 0 0 -16-16z" class="product-icon-1e81ce"/><path d="m39 28v-3a7 7 0 0 0 -14 0v3a3 3 0 0 0 -3 3v10a3 3 0 0 0 3 3h14a3 3 0 0 0 3-3v-10a3 3 0 0 0 -3-3zm-12-3a5 5 0 0 1 10 0v3h-1v-3a4 4 0 0 0 -8 0v3h-1zm7 3h-4v-3a2 2 0 0 1 4 0zm6 13a1 1 0 0 1 -1 1h-14a1 1 0 0 1 -1-1v-10a1 1 0 0 1 1-1h14a1 1 0 0 1 1 1z" class="product-icon-1e81ce"/><path d="m32 31a2.993 2.993 0 0 0 -1 5.816v3.184a1 1 0 0 0 2 0v-3.184a2.993 2.993 0 0 0 -1-5.816zm0 4a1 1 0 1 1 1-1 1 1 0 0 1 -1 1z" class="product-icon-1e81ce"/><path d="m61 62h-16a1 1 0 0 1 -1-1v-8a1 1 0 0 1 1-1h16a1 1 0 0 1 1 1v8a1 1 0 0 1 -1 1zm-15-2h14v-6h-14z" class="product-icon-1e81ce"/><path d="m19 62h-16a1 1 0 0 1 -1-1v-8a1 1 0 0 1 1-1h16a1 1 0 0 1 1 1v8a1 1 0 0 1 -1 1zm-15-2h14v-6h-14z" class="product-icon-1e81ce"/><path d="m11.61 38h-8.61a1 1 0 0 1 -1-1v-10a1 1 0 0 1 1-1h8.61a1 1 0 0 1 .97 1.243 19.8 19.8 0 0 0 0 9.514 1 1 0 0 1 -.97 1.243zm-7.61-2h6.369a21.865 21.865 0 0 1 0-8h-6.369z" class="product-icon-1e81ce"/><path d="m61 38h-8.61a1 1 0 0 1 -.97-1.243 19.8 19.8 0 0 0 0-9.514 1 1 0 0 1 .97-1.243h8.61a1 1 0 0 1 1 1v10a1 1 0 0 1 -1 1zm-7.369-2h6.369v-8h-6.369a21.865 21.865 0 0 1 0 8z" class="product-icon-1e81ce"/><path d="m61 50h-16.69a1 1 0 0 1 -.587-1.81 20.143 20.143 0 0 0 6.344-7.62 1 1 0 0 1 .9-.57h10.033a1 1 0 0 1 1 1v8a1 1 0 0 1 -1 1zm-13.919-2h12.919v-6h-8.409a22.187 22.187 0 0 1 -4.51 6z" class="product-icon-1e81ce"/><path d="m19.69 50h-16.69a1 1 0 0 1 -1-1v-8a1 1 0 0 1 1-1h10.03a1 1 0 0 1 .9.57 20.143 20.143 0 0 0 6.344 7.62 1 1 0 0 1 -.584 1.81zm-15.69-2h12.919a22.187 22.187 0 0 1 -4.51-6h-8.409z" class="product-icon-1e81ce"/><path d="m61 24h-10.03a1 1 0 0 1 -.9-.57 20.143 20.143 0 0 0 -6.344-7.62 1 1 0 0 1 .584-1.81h16.69a1 1 0 0 1 1 1v8a1 1 0 0 1 -1 1zm-9.409-2h8.409v-6h-12.919a22.187 22.187 0 0 1 4.51 6z" class="product-icon-1e81ce"/><path d="m13.03 24h-10.03a1 1 0 0 1 -1-1v-8a1 1 0 0 1 1-1h16.69a1 1 0 0 1 .587 1.81 20.143 20.143 0 0 0 -6.344 7.62 1 1 0 0 1 -.903.57zm-9.03-2h8.409a22.187 22.187 0 0 1 4.51-6h-12.919z" class="product-icon-1e81ce"/><path d="m41 62h-18a1 1 0 0 1 -1-1v-8a1 1 0 0 1 1-1h18a1 1 0 0 1 1 1v8a1 1 0 0 1 -1 1zm-17-2h16v-6h-16z" class="product-icon-1e81ce"/><path d="m61 12h-16a1 1 0 0 1 -1-1v-8a1 1 0 0 1 1-1h16a1 1 0 0 1 1 1v8a1 1 0 0 1 -1 1zm-15-2h14v-6h-14z" class="product-icon-1e81ce"/><path d="m19 12h-16a1 1 0 0 1 -1-1v-8a1 1 0 0 1 1-1h16a1 1 0 0 1 1 1v8a1 1 0 0 1 -1 1zm-15-2h14v-6h-14z" class="product-icon-1e81ce"/><path d="m41 12h-18a1 1 0 0 1 -1-1v-8a1 1 0 0 1 1-1h18a1 1 0 0 1 1 1v8a1 1 0 0 1 -1 1zm-17-2h16v-6h-16z" class="product-icon-1e81ce"/></g></svg>