<svg height="512" viewBox="0 0 64 64" width="512" xmlns="http://www.w3.org/2000/svg"><g id="Hosting_service" data-name="Hosting service"><path d="m11 61h8v-3-12-3h-8v2 14z" class="product-icon-9bc9ff"/><path d="m3 45h8v14h-8z" class="product-icon-9bc9ff"/><path d="m59 17h-32a2 2 0 0 0 -2 2v6a2 2 0 0 0 2 2h32a2 2 0 0 0 2-2v-6a2 2 0 0 0 -2-2zm-2 7h-8v-4h8z" class="product-icon-9bc9ff"/><path d="m59 31h-32a2 2 0 0 0 -2 2v6a2 2 0 0 0 2 2h32a2 2 0 0 0 2-2v-6a2 2 0 0 0 -2-2zm-2 7h-8v-4h8z" class="product-icon-9bc9ff"/><path d="m59 3h-32a2 2 0 0 0 -2 2v6a2 2 0 0 0 2 2h32a2 2 0 0 0 2-2v-6a2 2 0 0 0 -2-2zm-2 7h-8v-4h8z" class="product-icon-9bc9ff"/><g class="product-icon-1e81ce"><path d="m59 14a3 3 0 0 0 3-3v-6a3 3 0 0 0 -3-3h-32a3 3 0 0 0 -3 3v6a3 3 0 0 0 3 3h1v2h-1a3 3 0 0 0 -3 3v6a3 3 0 0 0 3 3h1v2h-1a3 3 0 0 0 -3 3v6a3 3 0 0 0 3 3h1v1.284a7 7 0 0 0 -2.75.123l-5.25 1.312v-1.719a1 1 0 0 0 -1-1h-8a1 1 0 0 0 -1 1v1h-7a1 1 0 0 0 -1 1v14a1 1 0 0 0 1 1h7v1a1 1 0 0 0 1 1h8a1 1 0 0 0 1-1v-1.382l1.286.643a7.028 7.028 0 0 0 3.131.739h14.976a7.011 7.011 0 0 0 3.5-.938l16.8-9.7a4 4 0 0 0 -1.693-7.441v-.921h1a3 3 0 0 0 3-3v-6a3 3 0 0 0 -3-3h-1v-2h1a3 3 0 0 0 3-3v-6a3 3 0 0 0 -3-3h-1v-2zm-55 44v-12h6v12zm14 2h-6v-16h6zm41.414-14.1a2.008 2.008 0 0 1 -.724 2.735l-16.8 9.7a5 5 0 0 1 -2.5.67h-14.973a5.036 5.036 0 0 1 -2.237-.528l-2.18-1.095v-10.6l5.735-1.434a5.009 5.009 0 0 1 2.507.021l14.92 4a2 2 0 1 1 -1.035 3.863l-11.927-3.198a1 1 0 0 0 -.517 1.932l11.925 3.2a4.043 4.043 0 0 0 1.042.138 3.952 3.952 0 0 0 3.965-4.317l10.072-5.815a2.035 2.035 0 0 1 2.727.728zm-28.551-1.9-.863-.231v-1.769h26v1.281c-.1.049-.209.095-.31.153l-.981.566zm20.382 2-5.306 3.063a3.964 3.964 0 0 0 -2.259-1.629l-5.352-1.434zm7.755-14a1 1 0 0 1 1 1v6a1 1 0 0 1 -1 1h-32a1 1 0 0 1 -1-1v-6a1 1 0 0 1 1-1zm-29-2v-2h26v2zm29-12a1 1 0 0 1 1 1v6a1 1 0 0 1 -1 1h-32a1 1 0 0 1 -1-1v-6a1 1 0 0 1 1-1zm-29-2v-2h26v2zm-3-4a1 1 0 0 1 -1-1v-6a1 1 0 0 1 1-1h32a1 1 0 0 1 1 1v6a1 1 0 0 1 -1 1z"/><path d="m28 6h2v4h-2z"/><path d="m32 6h2v4h-2z"/><path d="m36 6h2v4h-2z"/><path d="m44 6h2v4h-2z"/><path d="m40 6h2v4h-2z"/><path d="m32 20h2v4h-2z"/><path d="m28 20h2v4h-2z"/><path d="m36 20h2v4h-2z"/><path d="m40 20h2v4h-2z"/><path d="m44 20h2v4h-2z"/><path d="m28 34h2v4h-2z"/><path d="m32 34h2v4h-2z"/><path d="m36 34h2v4h-2z"/><path d="m40 34h2v4h-2z"/><path d="m44 34h2v4h-2z"/><path d="m58 6a1 1 0 0 0 -1-1h-8a1 1 0 0 0 -1 1v4a1 1 0 0 0 1 1h8a1 1 0 0 0 1-1zm-2 3h-6v-2h6z"/><path d="m49 25h8a1 1 0 0 0 1-1v-4a1 1 0 0 0 -1-1h-8a1 1 0 0 0 -1 1v4a1 1 0 0 0 1 1zm1-4h6v2h-6z"/><path d="m49 39h8a1 1 0 0 0 1-1v-4a1 1 0 0 0 -1-1h-8a1 1 0 0 0 -1 1v4a1 1 0 0 0 1 1zm1-4h6v2h-6z"/></g></g></svg>