<svg height="512" viewBox="0 0 512 512" width="512" xmlns="http://www.w3.org/2000/svg"><g><g class="product-icon-9bc9ff"><path d="m464 40v24h-448v-24a24.006 24.006 0 0 1 24-24h400a24.006 24.006 0 0 1 24 24z"/><path d="m48 96h200v120h-200z"/><path d="m368 240c-39.01 30.04-64 76.22-64 128a159.576 159.576 0 0 0 2.61 28.76l-49.86 34.58a128.028 128.028 0 0 1 111.25-191.34z"/><path d="m464 283.34v4.28l-40.8 28.29a164.4 164.4 0 0 0 -55.2-75.91 127.668 127.668 0 0 1 96 43.34z"/><circle cx="39" cy="40" r="8"/><circle cx="64" cy="40" r="8"/><circle cx="88" cy="40" r="8"/><path d="m48 96h200v120h-200z"/><path d="m368 496a128 128 0 0 1 0-256c-39.01 30.04-64 76.22-64 128a159.576 159.576 0 0 0 2.61 28.76c7.36 39.94 29.77 74.89 61.39 99.24z"/><path d="m496 368a128 128 0 0 1 -128 128c39.01-30.04 64-76.22 64-128a157.743 157.743 0 0 0 -8.8-52.09 164.4 164.4 0 0 0 -55.2-75.91 128.006 128.006 0 0 1 128 128z"/></g><g class="product-icon-1e81ce"><path d="m474.7 283.77a7.665 7.665 0 0 0 -1.23-1.52c-.48-.6-.97-1.19-1.47-1.78v-240.47a32.036 32.036 0 0 0 -32-32h-400a32.036 32.036 0 0 0 -32 32v368a32.036 32.036 0 0 0 32 32h212.67a138 138 0 0 0 8.63 12.23 7.665 7.665 0 0 0 1.23 1.52 135.764 135.764 0 0 0 105.46 50.25h.02a135 135 0 0 0 59.31-13.64 136.7 136.7 0 0 0 46.15-36.61 7.665 7.665 0 0 0 1.23-1.52 135.72 135.72 0 0 0 0-168.46zm-7.31 17.05a119.348 119.348 0 0 1 20.34 59.18h-47.94a165.963 165.963 0 0 0 -5.02-33.46 136.076 136.076 0 0 0 32.62-25.72zm-37.47 10.01a169.874 169.874 0 0 0 -38.25-60.48 120 120 0 0 1 64.33 36.16v1.11a8.282 8.282 0 0 0 .19 1.74 119.9 119.9 0 0 1 -26.27 21.47zm-53.92 49.17v-16.23a135.872 135.872 0 0 0 44.06-10.06 150.553 150.553 0 0 1 3.72 26.29zm47.78 16a150.553 150.553 0 0 1 -3.72 26.29 135.872 135.872 0 0 0 -44.06-10.06v-16.23zm-47.78-48.27v-70.35a154.25 154.25 0 0 1 39.55 60.85 119.673 119.673 0 0 1 -39.55 9.5zm-352-287.73a16.021 16.021 0 0 1 16-16h400a16.021 16.021 0 0 1 16 16v16h-432zm244.61 395.18a119.348 119.348 0 0 1 -20.34-59.18h47.94a165.963 165.963 0 0 0 5.02 33.46 136.076 136.076 0 0 0 -32.62 25.72zm32.62-108.64a165.963 165.963 0 0 0 -5.02 33.46h-47.94a119.348 119.348 0 0 1 20.34-59.18 136.076 136.076 0 0 0 32.62 25.72zm-22.63-38.5a120.063 120.063 0 0 1 65.73-37.69 169.874 169.874 0 0 0 -38.25 60.48 119.869 119.869 0 0 1 -27.48-22.79zm0 159.92a119.869 119.869 0 0 1 27.48-22.79 169.874 169.874 0 0 0 38.25 60.48 120.063 120.063 0 0 1 -65.73-37.69zm81.4 30.66a154.25 154.25 0 0 1 -39.55-60.85 119.673 119.673 0 0 1 39.55-9.5zm0-86.39a135.872 135.872 0 0 0 -44.06 10.06 150.553 150.553 0 0 1 -3.72-26.29h47.78zm0-32.23h-47.78a150.553 150.553 0 0 1 3.72-26.29 135.872 135.872 0 0 0 44.06 10.06zm0-32.27a119.673 119.673 0 0 1 -39.55-9.5 154.25 154.25 0 0 1 39.55-60.85zm8-95.73a135.769 135.769 0 0 0 -105.47 50.25 7.665 7.665 0 0 0 -1.23 1.52 135.806 135.806 0 0 0 -17.23 140.23h-204.07a16.021 16.021 0 0 1 -16-16v-336h432v192.4a135.423 135.423 0 0 0 -88-32.4zm8 246.62v-70.35a119.673 119.673 0 0 1 39.55 9.5 154.25 154.25 0 0 1 -39.55 60.85zm15.67 7.03a169.874 169.874 0 0 0 38.25-60.48 119.869 119.869 0 0 1 27.48 22.79 120.063 120.063 0 0 1 -65.73 37.69zm75.72-50.47a136.076 136.076 0 0 0 -32.62-25.72 165.963 165.963 0 0 0 5.02-33.46h47.94a119.348 119.348 0 0 1 -20.34 59.18z"/><circle cx="39" cy="40" r="8"/><circle cx="64" cy="40" r="8"/><circle cx="88" cy="40" r="8"/><path d="m48 224h200a8 8 0 0 0 8-8v-120a8 8 0 0 0 -8-8h-200a8 8 0 0 0 -8 8v120a8 8 0 0 0 8 8zm8-120h184v104h-184z"/><path d="m48 248h200a8 8 0 0 0 0-16h-200a8 8 0 0 0 0 16z"/><path d="m224 264h-176a8 8 0 0 0 0 16h176a8 8 0 0 0 0-16z"/><path d="m208 296h-160a8 8 0 0 0 0 16h160a8 8 0 0 0 0-16z"/><path d="m208 328h-160a8 8 0 0 0 0 16h160a8 8 0 0 0 0-16z"/><path d="m208 360h-160a8 8 0 0 0 0 16h160a8 8 0 0 0 0-16z"/><path d="m128 392h-80a8 8 0 0 0 0 16h80a8 8 0 0 0 0-16z"/><path d="m160 392h-8a8 8 0 0 0 0 16h8a8 8 0 0 0 0-16z"/><path d="m272 104h160a8 8 0 0 0 0-16h-160a8 8 0 0 0 0 16z"/><path d="m272 136h160a8 8 0 0 0 0-16h-160a8 8 0 0 0 0 16z"/><path d="m272 168h160a8 8 0 0 0 0-16h-160a8 8 0 0 0 0 16z"/><path d="m272 200h64a8 8 0 0 0 0-16h-64a8 8 0 0 0 0 16z"/><path d="m368 184h-8a8 8 0 0 0 0 16h8a8 8 0 0 0 0-16z"/></g></g></svg>