<svg height="512" viewBox="0 0 64 64" width="512" xmlns="http://www.w3.org/2000/svg"><g id="Internet_conection" data-name="Internet conection"><g class="product-icon-9bc9ff"><path d="m20.744 20c2.248-7.172 6.445-12 11.256-12a24 24 0 0 0 -24 24h11a40.447 40.447 0 0 1 1.744-12z"/><path d="m20.744 44a40.447 40.447 0 0 1 -1.744-12h-11a24 24 0 0 0 24 24c-4.811 0-9.008-4.828-11.256-12z"/><path d="m43.256 20a40.447 40.447 0 0 1 1.744 12h11a24 24 0 0 0 -24-24c4.811 0 9.008 4.828 11.256 12z"/><path d="m56 32h-11a40.447 40.447 0 0 1 -1.744 12c-2.248 7.172-6.445 12-11.256 12a24 24 0 0 0 24-24z"/><path d="m43.25 20h-11.25v12h13a40.447 40.447 0 0 0 -1.744-12z"/><path d="m19 32a40.447 40.447 0 0 0 1.744 12h11.256v-12z"/><path d="m43.25 20h.006c-2.248-7.172-6.445-12-11.256-12v12z"/><path d="m32 44h11.256a40.447 40.447 0 0 0 1.744-12h-13z"/><path d="m43.256 44h-11.256v12c4.811 0 9.008-4.828 11.256-12z"/><path d="m32 20h-11.256a40.447 40.447 0 0 0 -1.744 12h13z"/><path d="m20.744 20h11.256v-12c-4.811 0-9.008 4.828-11.256 12z"/><path d="m20.75 44h-.006c2.248 7.172 6.445 12 11.256 12v-12z"/></g><path d="m62 57h-2v-1h-5a3 3 0 0 0 -2.816 2h-5.207a29.964 29.964 0 0 0 14.97-27.807c-.84-14.343-13.662-27.226-28-28.131a29.778 29.778 0 0 0 -22.478 8.062 30 30 0 0 0 20.531 51.876 1 1 0 0 0 1-1v-4.025a25 25 0 1 0 -2 0v3.007a28.033 28.033 0 0 1 -27-27.982 28 28 0 0 1 29.82-27.942c13.38.842 25.347 12.867 26.131 26.253a27.957 27.957 0 0 1 -17.735 27.758 1 1 0 0 0 .364 1.931h9.6a3 3 0 0 0 2.82 2h5v-1h2zm-52.975-24h8.989a42.2 42.2 0 0 0 1.366 10h-7.574a22.857 22.857 0 0 1 -2.781-10zm45.95-2h-8.989a42.2 42.2 0 0 0 -1.366-10h7.574a22.857 22.857 0 0 1 2.781 10zm-21.975 23.914v-9.914h8.892c-1.987 5.538-5.205 9.328-8.892 9.914zm0-11.914v-10h10.987a39.992 39.992 0 0 1 -1.451 10zm12.986-10h8.989a22.857 22.857 0 0 1 -2.781 10h-7.574a42.2 42.2 0 0 0 1.366-10zm-2-2h-10.986v-10h9.536a39.992 39.992 0 0 1 1.451 10zm-10.986-12v-9.914c3.687.586 6.905 4.376 8.892 9.914zm-2-9.914v9.914h-8.892c1.992-5.538 5.205-9.328 8.892-9.914zm0 11.914v10h-10.987a39.992 39.992 0 0 1 1.451-10zm-12.986 10h-8.989a22.857 22.857 0 0 1 2.781-10h7.574a42.2 42.2 0 0 0 -1.366 10zm2 2h10.986v10h-9.536a39.992 39.992 0 0 1 -1.451-10zm10.986 12v9.914c-3.687-.586-6.9-4.376-8.892-9.914zm7.768 8.983a22.307 22.307 0 0 0 5.251-8.983h6.941a23.094 23.094 0 0 1 -12.192 8.983zm12.192-34.983h-6.941a22.307 22.307 0 0 0 -5.251-8.983 23.094 23.094 0 0 1 12.192 8.983zm-25.728-8.983a22.307 22.307 0 0 0 -5.251 8.983h-6.941a23.094 23.094 0 0 1 12.192-8.983zm-12.192 34.983h6.941a22.307 22.307 0 0 0 5.251 8.983 23.094 23.094 0 0 1 -12.192-8.983zm40.96 14a1 1 0 0 1 1-1h3v2h-3a1 1 0 0 1 -1-1z" class="product-icon-1e81ce"/></g></svg>