<svg height="512" viewBox="0 0 512 512" width="512" xmlns="http://www.w3.org/2000/svg"><g><g class="product-icon-9bc9ff"><g><path d="m240 424h32v32h-32z"/><path d="m240 8h32v32h-32z"/><circle cx="112" cy="184" r="16"/><circle cx="168" cy="184" r="16"/><circle cx="112" cy="88" r="16"/><circle cx="168" cy="88" r="16"/><circle cx="112" cy="280" r="16"/><circle cx="168" cy="280" r="16"/></g><circle cx="416" cy="400" r="16"/><path d="m376 360v-56a24 24 0 0 1 24-24h32a24 24 0 0 1 24 24v56h-24v-56h-32v56z"/></g><g class="product-icon-1e81ce"><path d="m496 464h-8a8 8 0 0 0 0 16h8a8 8 0 0 0 0-16z"/><path d="m112 160a24 24 0 1 0 24 24 24.027 24.027 0 0 0 -24-24zm0 32a8 8 0 1 1 8-8 8.009 8.009 0 0 1 -8 8z"/><path d="m168 160a24 24 0 1 0 24 24 24.027 24.027 0 0 0 -24-24zm0 32a8 8 0 1 1 8-8 8.009 8.009 0 0 1 -8 8z"/><path d="m424 168a8 8 0 0 0 -8-8h-96a8 8 0 0 0 0 16h96a8 8 0 0 0 8-8z"/><path d="m416 192h-40a8 8 0 0 0 0 16h40a8 8 0 0 0 0-16z"/><path d="m296 160h-8a8 8 0 0 0 0 16h8a8 8 0 0 0 0-16z"/><path d="m112 64a24 24 0 1 0 24 24 24.027 24.027 0 0 0 -24-24zm0 32a8 8 0 1 1 8-8 8.009 8.009 0 0 1 -8 8z"/><path d="m168 64a24 24 0 1 0 24 24 24.027 24.027 0 0 0 -24-24zm0 32a8 8 0 1 1 8-8 8.009 8.009 0 0 1 -8 8z"/><path d="m424 80a8 8 0 0 0 -8-8h-96a8 8 0 0 0 0 16h96a8 8 0 0 0 8-8z"/><path d="m416 96h-40a8 8 0 0 0 0 16h40a8 8 0 0 0 0-16z"/><path d="m296 72h-8a8 8 0 0 0 0 16h8a8 8 0 0 0 0-16z"/><path d="m112 256a24 24 0 1 0 24 24 24.027 24.027 0 0 0 -24-24zm0 32a8 8 0 1 1 8-8 8.009 8.009 0 0 1 -8 8z"/><path d="m168 256a24 24 0 1 0 24 24 24.027 24.027 0 0 0 -24-24zm0 32a8 8 0 1 1 8-8 8.009 8.009 0 0 1 -8 8z"/><path d="m376 264a8 8 0 0 0 -8-8h-48a8 8 0 0 0 0 16h48a8 8 0 0 0 8-8z"/><path d="m296 256h-8a8 8 0 0 0 0 16h8a8 8 0 0 0 0-16z"/><path d="m472 352h-8v-48a31.868 31.868 0 0 0 -8.38-21.56 7.886 7.886 0 0 0 .38-2.44v-24a31.92 31.92 0 0 0 -10.87-24 31.92 31.92 0 0 0 10.87-24v-48a31.92 31.92 0 0 0 -10.87-24 31.92 31.92 0 0 0 10.87-24v-48a32.036 32.036 0 0 0 -32-32h-144v-24a8 8 0 0 0 -8-8h-32a8 8 0 0 0 -8 8v24h-144a32.036 32.036 0 0 0 -32 32v48a31.92 31.92 0 0 0 10.87 24 31.92 31.92 0 0 0 -10.87 24v48a31.92 31.92 0 0 0 10.87 24 31.92 31.92 0 0 0 -10.87 24v48a32.036 32.036 0 0 0 32 32h160v80h-8a8 8 0 0 0 -8 8v24h-40a8 8 0 0 0 -8 8v8h-168a8 8 0 0 0 0 16h168v8a8 8 0 0 0 8 8h128a8 8 0 0 0 8-8v-8h136a8 8 0 0 0 0-16h-136v-8a8 8 0 0 0 -8-8h-40v-24a8 8 0 0 0 -8-8h-8v-80h104v16h-8a8 8 0 0 0 -8 8v88a8 8 0 0 0 8 8h112a8 8 0 0 0 8-8v-88a8 8 0 0 0 -8-8zm-24-48v48h-8v-48a8 8 0 0 0 -8-8h-32a8 8 0 0 0 -8 8v48h-8v-48a16.021 16.021 0 0 1 16-16h32a16.021 16.021 0 0 1 16 16zm-24 8v40h-16v-40zm-176-296h16v16h-16zm-176 48a16.021 16.021 0 0 1 16-16h336a16.021 16.021 0 0 1 16 16v48a16.021 16.021 0 0 1 -16 16h-336a16.021 16.021 0 0 1 -16-16zm0 96a16.021 16.021 0 0 1 16-16h336a16.021 16.021 0 0 1 16 16v48a16.021 16.021 0 0 1 -16 16h-336a16.021 16.021 0 0 1 -16-16zm176 272h16v16h-16zm64 32v16h-112v-16zm-224-144a16.021 16.021 0 0 1 -16-16v-48a16.021 16.021 0 0 1 16-16h336a16.021 16.021 0 0 1 16 16v17.01a32 32 0 0 0 -8-1.01h-32a32.036 32.036 0 0 0 -32 32v16zm376 120h-96v-72h96z"/><path d="m416 376a24 24 0 0 0 -8 46.624v1.376a8 8 0 0 0 16 0v-1.376a24 24 0 0 0 -8-46.624zm0 32a8 8 0 1 1 8-8 8.009 8.009 0 0 1 -8 8z"/></g></g></svg>