<svg id="Capa_1" enable-background="new 0 0 512 512" height="512" viewBox="0 0 512 512" width="512" xmlns="http://www.w3.org/2000/svg"><g><g class="product-icon-9bc9ff"><circle cx="56" cy="216" r="16"/><circle cx="56" cy="136" r="16"/><path d="m490.68 457.74-33.94 33.94c-6.253 6.24-16.377 6.24-22.63 0l-135.77-135.77c-1.874-1.87-3.255-4.176-4.02-6.71l53.88-53.88c2.534.765 4.84 2.146 6.71 4.02l135.77 135.77c6.24 6.253 6.24 16.377 0 22.63z"/><circle cx="56" cy="216" r="16"/><circle cx="56" cy="136" r="16"/></g><g class="product-icon-1e81ce"><path d="m496.34 429.45-135.48-135.47 69.2-69.2c31.012 5.27 60.425-15.598 65.695-46.611.545-3.207.814-6.456.805-9.709.007-8.184-1.757-16.272-5.17-23.71-1.846-4.014-6.596-5.772-10.611-3.926-.863.397-1.648.944-2.319 1.616l-23.35 23.35-8.49-2.83-2.83-8.48 23.85-23.85c3.122-3.127 3.117-8.192-.01-11.314-.587-.586-1.262-1.078-2-1.456-28.019-14.374-62.385-3.312-76.759 24.707-5.994 11.685-7.771 25.08-5.031 37.923l-85.21 85.21-34.63-34.63v-39.07c.004-5.908-2.179-11.608-6.13-16 3.951-4.392 6.134-10.092 6.13-16v-48c.004-5.908-2.179-11.608-6.13-16 3.951-4.392 6.134-10.092 6.13-16v-48c-.018-13.248-10.752-23.982-24-24h-208c-13.248.018-23.982 10.752-24 24v48c-.004 5.908 2.179 11.608 6.13 16-3.951 4.392-6.134 10.092-6.13 16v48c-.004 5.908 2.179 11.608 6.13 16-3.951 4.392-6.134 10.092-6.13 16v48c.018 13.248 10.752 23.982 24 24h197.07l35.63 35.63-136.23 136.23c-12.498 12.495-12.5 32.757-.005 45.255s32.757 12.5 45.255.005l119.26-119.26 135.48 135.48c9.383 9.347 24.557 9.347 33.94 0l33.94-33.95c9.34-9.386 9.34-24.554 0-33.94zm-472.34-397.45c.006-4.416 3.584-7.994 8-8h208c4.416.006 7.994 3.584 8 8v48c-.006 4.416-3.584 7.994-8 8h-208c-4.416-.006-7.994-3.584-8-8zm0 80c.006-4.416 3.584-7.994 8-8h208c4.416.006 7.994 3.584 8 8v48c-.006 4.416-3.584 7.994-8 8h-36.82c2.316-3.487 1.553-8.169-1.75-10.74l-50.91-39.59c-3.183-2.48-7.715-2.201-10.57.65l-22.63 22.63c-2.851 2.855-3.13 7.387-.65 10.57l12.81 16.48h-97.48c-4.416-.006-7.994-3.584-8-8zm224 80v23.07l-31.07-31.07h23.07c4.416.006 7.994 3.584 8 8zm-63.54-27.67-21.13 21.13-29.7-38.19 12.64-12.64zm-152.46 83.67c-4.416-.006-7.994-3.584-8-8v-48c.006-4.416 3.584-7.994 8-8h109.93l14.33 18.43c1.41 1.811 3.529 2.929 5.82 3.07.17.01.33.02.5.02 2.121-.003 4.156-.844 5.66-2.34l44.83 44.82zm206.04 2.35v-.01l-58.49-58.48 7.86-7.86h6.9l56.03 56.04h.01l36.97 36.97-11.31 11.31zm50.67 93.15c-.046.041-.089.084-.13.13l-126.17 126.18c-6.249 6.249-16.381 6.249-22.63 0s-6.249-16.381 0-22.63l258.6-258.6c2.09-2.094 2.858-5.169 2-8-6.661-21.63 5.475-44.565 27.105-51.225 6.434-1.981 13.256-2.347 19.865-1.065l-18.37 18.37c-2.141 2.141-2.889 5.308-1.93 8.18l5.66 16.98c.801 2.386 2.674 4.259 5.06 5.06l16.97 5.65c2.875.957 6.045.21 8.19-1.93l17.31-17.32c2.93 22.453-12.897 43.03-35.35 45.96-5.162.674-10.405.358-15.449-.93-2.734-.699-5.634.095-7.63 2.09l-79.17 79.18c-.052.044-.103.091-.15.14zm196.31 108.58-33.93 33.94c-3.128 3.12-8.192 3.12-11.32 0l-135.48-135.47 45.26-45.26 135.47 135.47c3.12 3.128 3.12 8.192 0 11.32z"/><path d="m360.569 372.882c-3.125-3.124-8.192-3.123-11.316.002s-3.123 8.192.002 11.316l56.568 56.569c3.125 3.125 8.19 3.125 11.315 0s3.125-8.19 0-11.315z"/><path d="m388.854 355.911c-3.125-3.125-8.19-3.125-11.315 0s-3.125 8.19 0 11.315l45.255 45.254c3.124 3.124 8.19 3.124 11.314 0s3.124-8.19 0-11.314z"/><path d="m354.911 344.6c3.124 3.125 8.189 3.125 11.314.001s3.125-8.189.001-11.314l-5.657-5.657c-3.089-3.159-8.154-3.216-11.313-.127s-3.216 8.154-.127 11.313c.042.043.084.085.126.126z"/><path d="m269.112 339.473c-3.124-3.124-8.189-3.124-11.314 0l-79.2 79.195c-3.124 3.124-3.124 8.19 0 11.314s8.19 3.124 11.314 0l79.2-79.2c3.121-3.124 3.121-8.185 0-11.309z"/><path d="m161.631 435.639-5.657 5.657c-3.124 3.124-3.124 8.19 0 11.314s8.19 3.124 11.314 0l5.657-5.657c3.124-3.124 3.124-8.19 0-11.314s-8.19-3.124-11.314 0z"/><path d="m168 48h64c4.418 0 8-3.582 8-8s-3.582-8-8-8h-64c-4.418 0-8 3.582-8 8s3.582 8 8 8z"/><path d="m232 56h-16c-4.418 0-8 3.582-8 8s3.582 8 8 8h16c4.418 0 8-3.582 8-8s-3.582-8-8-8z"/><path d="m136 48h8c4.418 0 8-3.582 8-8s-3.582-8-8-8h-8c-4.418 0-8 3.582-8 8s3.582 8 8 8z"/><path d="m56 192c-13.255 0-24 10.745-24 24s10.745 24 24 24 24-10.745 24-24c-.015-13.248-10.752-23.985-24-24zm0 32c-4.418 0-8-3.582-8-8s3.582-8 8-8 8 3.582 8 8c-.005 4.416-3.584 7.995-8 8z"/><path d="m56 112c-13.255 0-24 10.745-24 24s10.745 24 24 24 24-10.745 24-24c-.015-13.248-10.752-23.985-24-24zm0 32c-4.418 0-8-3.582-8-8s3.582-8 8-8 8 3.582 8 8c-.005 4.416-3.584 7.995-8 8z"/><path d="m200 128h32c4.418 0 8-3.582 8-8s-3.582-8-8-8h-32c-4.418 0-8 3.582-8 8s3.582 8 8 8z"/><path d="m232 136h-16c-4.418 0-8 3.582-8 8s3.582 8 8 8h16c4.418 0 8-3.582 8-8s-3.582-8-8-8z"/><path d="m168 224h-24c-4.418 0-8 3.582-8 8s3.582 8 8 8h24c4.418 0 8-3.582 8-8s-3.582-8-8-8z"/></g></g></svg>