<svg height="512" viewBox="0 0 64 64" width="512" xmlns="http://www.w3.org/2000/svg"><g id="Laptop_and_mobile_conection" data-name="Laptop and mobile conection"><path d="m45 27v14h-34v-20h34v-4h-36a2.006 2.006 0 0 0 -2 2v26h42v-14a4 4 0 0 1 -4-4z" class="product-icon-9bc9ff"/><path d="m49 45h-42l-4 12h20l1-4h8l1 4h20z" class="product-icon-9bc9ff"/><path d="m23 57h-20v2a2 2 0 0 0 2 2h46a2 2 0 0 0 2-2v-2z" class="product-icon-9bc9ff"/><path d="m25.879 35.879a3 3 0 0 1 4.242 0 3 3 0 0 0 -4.242 0z" class="product-icon-9bc9ff"/><path d="m57 3h-8a4 4 0 0 0 -4 4v2h16v-2a4 4 0 0 0 -4-4z" class="product-icon-9bc9ff"/><path d="m45 24.951v2.049a4 4 0 0 0 4 4h8a4 4 0 0 0 4-4v-2.049z" class="product-icon-9bc9ff"/><g class="product-icon-1e81ce"><path d="m29 48h2v2h-2z"/><path d="m9 48h2v2h-2z"/><path d="m13 48h2v2h-2z"/><path d="m17 48h2v2h-2z"/><path d="m21 48h2v2h-2z"/><path d="m33 48h2v2h-2z"/><path d="m37 48h2v2h-2z"/><path d="m41 48h2v2h-2z"/><path d="m25 48h2v2h-2z"/><path d="m45 48h2v2h-2z"/><path d="m35 52h4v2h-4z"/><path d="m41 52h2v2h-2z"/><path d="m45 52h2v2h-2z"/><path d="m9 52h2v2h-2z"/><path d="m13 52h2v2h-2z"/><path d="m17 52h4v2h-4z"/><path d="m57 2h-8a5.006 5.006 0 0 0 -5 5v9h-35a3 3 0 0 0 -3 3v25.838l-4 12v2.162a3 3 0 0 0 3 3h46a3 3 0 0 0 3-3v-2.162l-4-12v-12.838h7a5.006 5.006 0 0 0 5-5v-20a5.006 5.006 0 0 0 -5-5zm-13 25v13h-32v-18h32zm2-17h14v13.951h-14zm3-6h8a3 3 0 0 1 3 3v1h-14v-1a3 3 0 0 1 3-3zm-41 15a1 1 0 0 1 1-1h35v2h-33a1 1 0 0 0 -1 1v20a1 1 0 0 0 1 1h34a1 1 0 0 0 1-1v-10.026a4.954 4.954 0 0 0 2 .925v12.101h-40zm25.781 37-.811-3.243a1 1 0 0 0 -.97-.757h-8a1 1 0 0 0 -.97.757l-.811 3.243h-17.832l3.334-10h40.558l3.334 10zm-2.062 0h-7.438l.5-2h6.438zm19.281 4h-46a1 1 0 0 1 -1-1v-1h48v1a1 1 0 0 1 -1 1zm6-30h-8a3 3 0 0 1 -3-3v-1.049h14v1.049a3 3 0 0 1 -3 3z"/><path d="m52 5h2v2h-2z"/><path d="m52 27h2v2h-2z"/><path d="m57 38a1 1 0 0 1 -1 1h-4v2h4a3 3 0 0 0 3-3v-4h-2z"/><path d="m29 10a1 1 0 0 1 1-1h12v-2h-12a3 3 0 0 0 -3 3v4h2z"/><path d="m35.071 30.929 1.414-1.414a12.013 12.013 0 0 0 -16.97 0l1.414 1.414a10.011 10.011 0 0 1 14.142 0z"/><path d="m22.343 32.343 1.414 1.414a6.008 6.008 0 0 1 8.486 0l1.414-1.414a8.008 8.008 0 0 0 -11.314 0z"/><path d="m25.172 35.172 1.414 1.414a2.051 2.051 0 0 1 2.828 0l1.414-1.414a4.093 4.093 0 0 0 -5.656 0z"/></g></g></svg>