<svg height="512" viewBox="0 0 64 64" width="512" xmlns="http://www.w3.org/2000/svg"><g id="Lock_pattern" data-name="Lock pattern"><g class="product-icon-9bc9ff"><path d="m47 3h-30a4 4 0 0 0 -4 4v50a4 4 0 0 0 4 4h30a4 4 0 0 0 4-4v-50a4 4 0 0 0 -4-4zm-15 55a2 2 0 1 1 2-2 2 2 0 0 1 -2 2zm16-7h-32v-42h32z"/><path d="m29 33h3v3h-3z"/><path d="m35 30h-6v3h3v3h3z"/><path d="m32 39h3v3h-3z"/><path d="m32 39h-3v6h6v-3h-3z"/><path d="m38 42h3-3v3h6v-6h-6z"/><path d="m38 30h6v6h-6z"/><path d="m29 21h6v6h-6z"/><path d="m23 30h-3v6h6v-3h-3z"/><path d="m23 30h3v3h-3z"/><path d="m20 39h6v6h-6z"/><path d="m26 21h-6v6h3v-3 3h3z"/><path d="m38 21h6v6h-6z"/></g><path d="m47 62h-30a5.006 5.006 0 0 1 -5-5v-50a5.006 5.006 0 0 1 5-5h30a5.006 5.006 0 0 1 5 5v50a5.006 5.006 0 0 1 -5 5zm-30-58a3 3 0 0 0 -3 3v50a3 3 0 0 0 3 3h30a3 3 0 0 0 3-3v-50a3 3 0 0 0 -3-3z" class="product-icon-1e81ce"/><path d="m32 59a3 3 0 1 1 3-3 3 3 0 0 1 -3 3zm0-4a1 1 0 1 0 1 1 1 1 0 0 0 -1-1z" class="product-icon-1e81ce"/><path d="m34 7h-4a1 1 0 0 1 0-2h4a1 1 0 0 1 0 2z" class="product-icon-1e81ce"/><path d="m48 52h-32a1 1 0 0 1 -1-1v-42a1 1 0 0 1 1-1h32a1 1 0 0 1 1 1v42a1 1 0 0 1 -1 1zm-31-2h30v-40h-30z" class="product-icon-1e81ce"/><path d="m44 38h-6a1 1 0 0 0 -1 1v2h-1v-2a1 1 0 0 0 -1-1h-2v-1h2a1 1 0 0 0 1-1v-6a1 1 0 0 0 -1-1h-6a1 1 0 0 0 -1 1v2h-1v-2a1 1 0 0 0 -1-1h-2v-1h2a1 1 0 0 0 1-1v-6a1 1 0 0 0 -1-1h-6a1 1 0 0 0 -1 1v6a1 1 0 0 0 1 1h2v1h-2a1 1 0 0 0 -1 1v6a1 1 0 0 0 1 1h6a1 1 0 0 0 1-1v-2h1v2a1 1 0 0 0 1 1h2v1h-2a1 1 0 0 0 -1 1v6a1 1 0 0 0 1 1h6a1 1 0 0 0 1-1v-2h1v2a1 1 0 0 0 1 1h6a1 1 0 0 0 1-1v-6a1 1 0 0 0 -1-1zm-23-12v-4h4v4h-1v-2a1 1 0 0 0 -2 0v2zm4 5v1h-1v-1zm0 4h-4v-4h1v2a1 1 0 0 0 1 1h2zm5-4h4v4h-1v-2a1 1 0 0 0 -1-1h-2zm0 4v-1h1v1zm4 5v1h-1v-1zm0 4h-4v-4h1v2a1 1 0 0 0 1 1h2zm9 0h-4v-1h2a1 1 0 0 0 0-2h-2v-1h4z" class="product-icon-1e81ce"/><path d="m44 29h-6a1 1 0 0 0 -1 1v6a1 1 0 0 0 1 1h6a1 1 0 0 0 1-1v-6a1 1 0 0 0 -1-1zm-1 6h-4v-4h4z" class="product-icon-1e81ce"/><path d="m29 28h6a1 1 0 0 0 1-1v-6a1 1 0 0 0 -1-1h-6a1 1 0 0 0 -1 1v6a1 1 0 0 0 1 1zm1-6h4v4h-4z" class="product-icon-1e81ce"/><path d="m26 38h-6a1 1 0 0 0 -1 1v6a1 1 0 0 0 1 1h6a1 1 0 0 0 1-1v-6a1 1 0 0 0 -1-1zm-1 6h-4v-4h4z" class="product-icon-1e81ce"/><path d="m44 20h-6a1 1 0 0 0 -1 1v6a1 1 0 0 0 1 1h6a1 1 0 0 0 1-1v-6a1 1 0 0 0 -1-1zm-1 6h-4v-4h4z" class="product-icon-1e81ce"/></g></svg>