<svg height="512" viewBox="0 0 512 512" width="512" xmlns="http://www.w3.org/2000/svg"><g><g class="product-icon-9bc9ff"><path d="m424 240h64v32h-64z"/><rect height="224" rx="16" width="80" x="416" y="272"/><g><path d="m184 432h32v32h-32z"/><path d="m184 16h32v32h-32z"/><circle cx="72" cy="192" r="16"/><circle cx="128" cy="192" r="16"/><circle cx="72" cy="96" r="16"/><circle cx="128" cy="96" r="16"/><circle cx="72" cy="288" r="16"/><circle cx="128" cy="288" r="16"/></g></g><g class="product-icon-1e81ce"><path d="m384 120v-48a32.03 32.03 0 0 0 -32-32h-128v-24a8 8 0 0 0 -8-8h-32a8 8 0 0 0 -8 8v24h-128a32.03 32.03 0 0 0 -32 32v48a31.92 31.92 0 0 0 10.87 24 31.92 31.92 0 0 0 -10.87 24v48a31.92 31.92 0 0 0 10.87 24 31.92 31.92 0 0 0 -10.87 24v48a32.03 32.03 0 0 0 32 32h144v80h-8a8 8 0 0 0 -8 8v24h-40a8 8 0 0 0 -8 8v8h-112a8 8 0 0 0 0 16h112v8a8 8 0 0 0 8 8h128a8 8 0 0 0 8-8v-8h80a8 8 0 0 0 0-16h-80v-8a8 8 0 0 0 -8-8h-40v-24a8 8 0 0 0 -8-8h-8v-80h144a32.03 32.03 0 0 0 32-32v-48a31.92 31.92 0 0 0 -10.87-24 31.92 31.92 0 0 0 10.87-24v-48a31.92 31.92 0 0 0 -10.87-24 31.92 31.92 0 0 0 10.87-24zm-192-96h16v16h-16zm0 416h16v16h-16zm64 32v16h-112v-16zm112-160a16.021 16.021 0 0 1 -16 16h-304a16.021 16.021 0 0 1 -16-16v-48a16.021 16.021 0 0 1 16-16h304a16.021 16.021 0 0 1 16 16zm0-96a16.021 16.021 0 0 1 -16 16h-304a16.021 16.021 0 0 1 -16-16v-48a16.021 16.021 0 0 1 16-16h304a16.021 16.021 0 0 1 16 16zm0-96a16.021 16.021 0 0 1 -16 16h-304a16.021 16.021 0 0 1 -16-16v-48a16.021 16.021 0 0 1 16-16h304a16.021 16.021 0 0 1 16 16z"/><path d="m384 472h-8a8 8 0 0 0 0 16h8a8 8 0 0 0 0-16z"/><path d="m72 168a24 24 0 1 0 24 24 24.027 24.027 0 0 0 -24-24zm0 32a8 8 0 1 1 8-8 8.009 8.009 0 0 1 -8 8z"/><path d="m128 168a24 24 0 1 0 24 24 24.027 24.027 0 0 0 -24-24zm0 32a8 8 0 1 1 8-8 8.009 8.009 0 0 1 -8 8z"/><path d="m352 176a8 8 0 0 0 -8-8h-96a8 8 0 0 0 0 16h96a8 8 0 0 0 8-8z"/><path d="m344 200h-40a8 8 0 0 0 0 16h40a8 8 0 0 0 0-16z"/><path d="m224 168h-8a8 8 0 0 0 0 16h8a8 8 0 0 0 0-16z"/><path d="m72 72a24 24 0 1 0 24 24 24.027 24.027 0 0 0 -24-24zm0 32a8 8 0 1 1 8-8 8.009 8.009 0 0 1 -8 8z"/><path d="m128 72a24 24 0 1 0 24 24 24.027 24.027 0 0 0 -24-24zm0 32a8 8 0 1 1 8-8 8.009 8.009 0 0 1 -8 8z"/><path d="m352 88a8 8 0 0 0 -8-8h-96a8 8 0 0 0 0 16h96a8 8 0 0 0 8-8z"/><path d="m344 104h-40a8 8 0 0 0 0 16h40a8 8 0 0 0 0-16z"/><path d="m224 80h-8a8 8 0 0 0 0 16h8a8 8 0 0 0 0-16z"/><path d="m72 264a24 24 0 1 0 24 24 24.027 24.027 0 0 0 -24-24zm0 32a8 8 0 1 1 8-8 8.009 8.009 0 0 1 -8 8z"/><path d="m128 264a24 24 0 1 0 24 24 24.027 24.027 0 0 0 -24-24zm0 32a8 8 0 1 1 8-8 8.009 8.009 0 0 1 -8 8z"/><path d="m248 280h96a8 8 0 0 0 0-16h-96a8 8 0 0 0 0 16z"/><path d="m344 296h-40a8 8 0 0 0 0 16h40a8 8 0 0 0 0-16z"/><path d="m216 280h8a8 8 0 0 0 0-16h-8a8 8 0 0 0 0 16z"/><path d="m496 270.13v-30.13a8 8 0 0 0 -8-8h-8v-144a8 8 0 0 0 7.94-8.99l-8-64a8 8 0 0 0 -7.94-7.01h-32a8 8 0 0 0 -7.94 7.01l-8 64a8 8 0 0 0 7.94 8.99v144h-8a8 8 0 0 0 -8 8v30.13a23.937 23.937 0 0 0 -8 17.87v192a24.032 24.032 0 0 0 24 24h48a24.032 24.032 0 0 0 24-24v-192a23.937 23.937 0 0 0 -8-17.87zm-48.94-246.13h17.88l6 48h-29.88zm16.94 64v144h-16v-144zm-32 160h48v16h-48zm56 232a8.011 8.011 0 0 1 -8 8h-48a8.011 8.011 0 0 1 -8-8v-192a8.011 8.011 0 0 1 8-8h48a8.011 8.011 0 0 1 8 8z"/><path d="m440 336a8 8 0 0 0 -8 8v80a8 8 0 0 0 16 0v-80a8 8 0 0 0 -8-8z"/><path d="m472 344a8 8 0 0 0 -8 8v64a8 8 0 0 0 16 0v-64a8 8 0 0 0 -8-8z"/><path d="m472 304a8 8 0 0 0 -8 8v8a8 8 0 0 0 16 0v-8a8 8 0 0 0 -8-8z"/></g></g></svg>