<svg height="512" viewBox="0 0 64 64" width="512" xmlns="http://www.w3.org/2000/svg"><g id="Mobile_network" data-name="Mobile network"><circle cx="32" cy="43" style="fill:none" r="2"/><path d="m41 3h-18a4 4 0 0 0 -4 4v16a2.441 2.441 0 0 1 .335.151l2.665 1.54v-15.691h20v30h-17.234a2.49 2.49 0 0 1 -3.6 2.982l-2.166-1.25v.268a2.441 2.441 0 0 1 .335.151l4.33 2.5a2.5 2.5 0 0 1 .945 3.349h16.39a4 4 0 0 0 4-4v-36a4 4 0 0 0 -4-4zm-9 42a2 2 0 1 1 2-2 2 2 0 0 1 -2 2z" class="product-icon-9bc9ff"/><path d="m22 36.691v-.417a2.465 2.465 0 0 1 -.835-.292l-2.165-1.25v.268a2.441 2.441 0 0 1 .335.151z" class="product-icon-9bc9ff"/><path d="m22 30.691v-.417a2.465 2.465 0 0 1 -.835-.292l-2.165-1.25v.268a2.441 2.441 0 0 1 .335.151z" class="product-icon-9bc9ff"/><g class="product-icon-1e81ce"><path d="m50.252 19.242-1.422-1.406a4.022 4.022 0 0 0 0-5.672l1.422-1.406a6.021 6.021 0 0 1 0 8.484z"/><path d="m55.937 24.871-1.421-1.408a12.021 12.021 0 0 0 0-16.926l1.421-1.408a14.022 14.022 0 0 1 0 19.742z"/><path d="m53.1 22.057-1.422-1.408a8.02 8.02 0 0 0 0-11.3l1.422-1.406a10.024 10.024 0 0 1 0 14.114z"/><path d="m13.748 19.242a6.021 6.021 0 0 1 0-8.484l1.422 1.406a4.022 4.022 0 0 0 0 5.672z"/><path d="m8.062 24.871a14.025 14.025 0 0 1 0-19.742l1.422 1.408a12.021 12.021 0 0 0 0 16.926z"/><path d="m10.905 22.057a10.024 10.024 0 0 1 0-14.114l1.422 1.408a8.02 8.02 0 0 0 0 11.3z"/><path d="m50 24h-1a4.948 4.948 0 0 0 -3 1.026v-18.026a5.006 5.006 0 0 0 -5-5h-18a5.006 5.006 0 0 0 -5 5v14.828a3.529 3.529 0 0 0 -.82.108 3.5 3.5 0 0 0 -.88 6.387 3.474 3.474 0 0 0 0 6 3.474 3.474 0 0 0 0 6 3.477 3.477 0 0 0 .035 6.025l1.653.955.012 2.374a5.032 5.032 0 0 0 1 2.984l1.4 1.872a3.018 3.018 0 0 1 .6 1.8v4.667a1 1 0 0 0 2 0v-4.667a5.028 5.028 0 0 0 -1-3l-1.4-1.872a3.018 3.018 0 0 1 -.6-1.791v-1.211l.673.389a3.482 3.482 0 0 0 1.744.47 3.54 3.54 0 0 0 .911-.12 3.468 3.468 0 0 0 1.808-1.198h15.864a5.006 5.006 0 0 0 5-5v-14a3 3 0 0 1 3-3h1v16.131a10.927 10.927 0 0 1 -4.247 8.682l-2.823 2.2a4.967 4.967 0 0 0 -1.93 3.944v4.043a1 1 0 0 0 2 0v-4.043a3.022 3.022 0 0 1 1.158-2.369l2.823-2.2a12.917 12.917 0 0 0 5.019-10.257v-16.131a2 2 0 0 0 -2-2zm-26.286 22.567a1.5 1.5 0 0 1 -2.049.549l-4.33-2.5a1.5 1.5 0 0 1 .753-2.8 1.483 1.483 0 0 1 .747.2l4.33 2.5a1.5 1.5 0 0 1 .549 2.051zm0-6a1.5 1.5 0 0 1 -2.049.549l-4.33-2.5a1.5 1.5 0 0 1 .753-2.8 1.483 1.483 0 0 1 .747.2l4.33 2.5a1.5 1.5 0 0 1 .549 2.051zm0-6a1.5 1.5 0 0 1 -2.049.549l-4.33-2.5a1.5 1.5 0 0 1 .753-2.8 1.483 1.483 0 0 1 .747.2l4.33 2.5a1.5 1.5 0 0 1 .549 2.051zm0-6a1.5 1.5 0 0 1 -2.049.549l-4.33-2.5a1.5 1.5 0 0 1 .753-2.8 1.483 1.483 0 0 1 .747.2l4.33 2.5a1.5 1.5 0 0 1 .549 2.051zm-.714-4.454v-14.113h18v28h-15.614a3.451 3.451 0 0 0 -1.186-1.189 3.474 3.474 0 0 0 0-6 3.477 3.477 0 0 0 -.035-6.025zm21 18.887a3 3 0 0 1 -3 3h-15.1a3.492 3.492 0 0 0 -1.7-3.189 3.379 3.379 0 0 0 1.7-2.811h16.1a1 1 0 0 0 1-1v-30a1 1 0 0 0 -1-1h-20a1 1 0 0 0 -1 1v13.959l-1-.578v-15.381a3 3 0 0 1 3-3h18a3 3 0 0 1 3 3z"/><path d="m32 46a3 3 0 1 1 3-3 3 3 0 0 1 -3 3zm0-4a1 1 0 1 0 1 1 1 1 0 0 0 -1-1z"/><path d="m33 7h-2a1 1 0 0 1 0-2h2a1 1 0 0 1 0 2z"/></g></g></svg>