<svg height="512" viewBox="0 0 512 512" width="512" xmlns="http://www.w3.org/2000/svg"><g><g><g class="product-icon-9bc9ff"><path d="m160 336-8 24h-32l-8-24z"/><path d="m224 192h-176a16 16 0 0 0 -16 16v128h208v-128a16 16 0 0 0 -16-16zm-8 120h-160v-96h160z"/><path d="m496 40v80h-160v-79l47.86 23.33 32.14 15.67z"/><path d="m160 336-8 24h-32l-8-24z"/></g><path d="m448 64 24 56" style="fill:none"/><path d="m384 64-24 56" style="fill:none"/><path d="m488 352v24h-32l-8 16h-104v-40z" class="product-icon-9bc9ff"/><circle cx="135.857" cy="152.376" class="product-icon-9bc9ff" r="16"/></g><g class="product-icon-1e81ce"><path d="m64 352h-24a8 8 0 0 0 0 16h24a8 8 0 0 0 0-16z"/><path d="m96 352h-8a8 8 0 0 0 0 16h8a8 8 0 0 0 0-16z"/><path d="m216 208h-160a8 8 0 0 0 -8 8v96a8 8 0 0 0 8 8h160a8 8 0 0 0 8-8v-96a8 8 0 0 0 -8-8zm-8 96h-144v-80h144z"/><path d="m496 128a8 8 0 0 0 8-8v-104a8 8 0 0 0 -8-8h-160a8 8 0 0 0 -8 8v104a8 8 0 0 0 8 8h72v120h-160v-40a24.032 24.032 0 0 0 -24-24h-176a24.032 24.032 0 0 0 -24 24v120h-8a8 8 0 0 0 -8 8v32a24.032 24.032 0 0 0 24 24h208a24.032 24.032 0 0 0 24-24v-32a8 8 0 0 0 -8-8h-8v-64h160v80h-64a8 8 0 0 0 -8 8v32a8 8 0 0 0 -8 8v104a8 8 0 0 0 8 8h160a8 8 0 0 0 8-8v-120a8 8 0 0 0 -8-8v-16a8 8 0 0 0 -8-8h-64v-216zm-456 80a8.011 8.011 0 0 1 8-8h176a8.011 8.011 0 0 1 8 8v120h-192zm108.9 136-2.67 8h-20.46l-2.67-8zm99.1 24a8.011 8.011 0 0 1 -8 8h-208a8.011 8.011 0 0 1 -8-8v-24h82.23l6.18 18.53a8 8 0 0 0 7.59 5.47h32a8 8 0 0 0 7.59-5.47l6.18-18.53h82.23zm240-256h-10.72l-18.96-44.22 29.68-14.84zm-144-88h144v11.06l-72.04 36.02-71.96-35.08zm0 88v-58.2l29.51 14.39-18.78 43.81zm144 376h-144v-88h104a8.011 8.011 0 0 0 7.16-4.42l5.78-11.58h27.06zm-8-128v8h-24a8.011 8.011 0 0 0 -7.16 4.42l-5.78 11.58h-91.06v-24zm-107.87-248 15.77-36.8 24.59 11.99a8.03 8.03 0 0 0 7.09-.03l24.41-12.21 15.88 37.05z"/><path d="m152.046 134.658a24 24 0 1 0 -16.2 41.719c.362 0 .727-.008 1.092-.024a24 24 0 0 0 15.108-41.7zm-15.828 25.71a8 8 0 1 1 -.721-15.983 8 8 0 0 1 8.352 7.631 8.009 8.009 0 0 1 -7.631 8.352z"/><path d="m159.858 116.968a31.995 31.995 0 0 0 -46.624-1.464 8 8 0 1 0 11.314 11.312 16 16 0 0 1 23.311.736 8 8 0 0 0 12-10.584z"/><path d="m173.319 107.087a8 8 0 0 0 -.806-11.285 55.992 55.992 0 0 0 -74.936 1.466 8 8 0 0 0 10.942 11.673 39.993 39.993 0 0 1 53.516-1.047 8 8 0 0 0 11.284-.807z"/><path d="m93.193 90.44a63.992 63.992 0 0 1 85.336.006 8 8 0 0 0 10.671-11.92 79.991 79.991 0 0 0 -106.682 0 8 8 0 1 0 10.675 11.914z"/></g></g></svg>