<svg id="Capa_1" enable-background="new 0 0 512 512" height="512" viewBox="0 0 512 512" width="512" xmlns="http://www.w3.org/2000/svg"><g><g class="product-icon-9bc9ff"><path d="m128 144c-.001-10.985 7.46-20.567 18.11-23.26 1.924-.496 3.903-.745 5.89-.74 13.255 0 24 10.745 24 24s-10.745 24-24 24c-1.987.005-3.966-.244-5.89-.74-10.65-2.693-18.111-12.275-18.11-23.26z"/><path d="m190.55 200c-2.038 11.088-6.204 21.677-12.27 31.18-.16.28-.34.55-.52.82-26.517 40.733-81.033 52.258-121.767 25.742s-52.258-81.033-25.742-121.767c11.607-17.83 29.281-30.852 49.749-36.655v100.68z"/><circle cx="360" cy="144" r="24"/><path d="m496 188c.004 50.807-41.181 91.997-91.987 92.001-22.926.002-45.027-8.558-61.973-24.001-1.04-.95-2.06-1.92-3.05-2.91-14.362-14.315-23.579-32.984-26.21-53.09h119.22v-99.65c38.126 12.187 64.001 47.623 64 87.65z"/><circle cx="360" cy="144" r="24"/><path d="m387.13 200c-10.691 21.902-27.386 40.314-48.14 53.09-1.64 1.01-3.303 1.98-4.99 2.91-14.23 7.905-29.847 13-46 15.01-5.308.659-10.651.99-16 .99-35.17.039-68.799-14.433-92.95-40-.26-.27-.51-.54-.77-.82-8.637-9.279-15.852-19.786-21.41-31.18h67.13v-104c-.003-13.253-10.747-23.997-24-24h-33.84c39.775-58.454 119.405-73.596 177.859-33.821 13.298 9.049 24.772 20.523 33.821 33.821h-65.84c-13.253.003-23.997 10.747-24 24v104z"/></g><g class="product-icon-9bc9ff"><path d="m80 200h144v128h-144z"/><path d="m288 200h144v128h-144z"/><circle cx="360" cy="144" r="24"/><circle cx="360" cy="144" r="24"/><path d="m136 424h32v32h-32z"/><path d="m344 424h32v32h-32z"/></g><g class="product-icon-1e81ce"><path d="m152 176c17.673 0 32-14.327 32-32s-14.327-32-32-32-32 14.327-32 32c.02 17.665 14.335 31.98 32 32zm0-48c8.837 0 16 7.163 16 16s-7.163 16-16 16-16-7.163-16-16c.01-8.832 7.168-15.99 16-16z"/><path d="m104 104h8c4.418 0 8-3.582 8-8s-3.582-8-8-8h-8c-4.418 0-8 3.582-8 8s3.582 8 8 8z"/><path d="m192 104h8c4.418 0 8-3.582 8-8s-3.582-8-8-8h-8c-4.418 0-8 3.582-8 8s3.582 8 8 8z"/><path d="m112 344h-8c-4.418 0-8 3.582-8 8s3.582 8 8 8h8c4.418 0 8-3.582 8-8s-3.582-8-8-8z"/><path d="m192 360h8c4.418 0 8-3.582 8-8s-3.582-8-8-8h-8c-4.418 0-8 3.582-8 8s3.582 8 8 8z"/><path d="m104 240h96c4.418 0 8-3.582 8-8s-3.582-8-8-8h-96c-4.418 0-8 3.582-8 8s3.582 8 8 8z"/><path d="m200 248h-96c-4.418 0-8 3.582-8 8s3.582 8 8 8h96c4.418 0 8-3.582 8-8s-3.582-8-8-8z"/><path d="m184 272h-64c-4.418 0-8 3.582-8 8s3.582 8 8 8h64c4.418 0 8-3.582 8-8s-3.582-8-8-8z"/><path d="m439.97 94.69c-.72-17.14-14.815-30.671-31.97-30.69h-26.05c-44.165-60.732-129.2-74.163-189.932-29.998-11.507 8.368-21.63 18.491-29.998 29.998h-58.02c-16.675.021-30.544 12.83-31.89 29.45-50.009 17.611-76.273 72.428-58.662 122.437 9.646 27.391 31.172 48.944 58.552 58.623v77.49c.02 17.665 14.335 31.98 32 32h40v32h-8c-4.418 0-8 3.582-8 8v24h-40c-4.418 0-8 3.582-8 8v8h-64c-4.418 0-8 3.582-8 8s3.582 8 8 8h64v8c0 4.418 3.582 8 8 8h128c4.418 0 8-3.582 8-8v-8h64v8c0 4.418 3.582 8 8 8h128c4.418 0 8-3.582 8-8v-8h32c4.418 0 8-3.582 8-8s-3.582-8-8-8h-32v-8c0-4.418-3.582-8-8-8h-40v-24c0-4.418-3.582-8-8-8h-8v-32h40c17.665-.02 31.98-14.335 32-32v-72h1.56c1.127-.001 2.241-.239 3.27-.7 36.003-16.101 59.179-51.861 59.17-91.3.113-41.385-25.375-78.528-64.03-93.31zm-367.97 162.63c-40.494-17.675-58.992-64.829-41.317-105.323 8.07-18.489 22.828-33.247 41.317-41.317zm200-233.32c34.149-.023 66.684 14.529 89.43 40h-49.43c-17.666.017-31.983 14.334-32 32v168h-48v-168c-.017-17.666-14.334-31.983-32-32h-17.42c22.79-25.404 55.291-39.943 89.42-40zm-184 72c.012-8.832 7.168-15.988 16-16h96c8.832.012 15.988 7.168 16 16v96h-128zm0 112h128v112h-128zm16 160c-8.832-.012-15.988-7.168-16-16v-16h128v16c-.012 8.832-7.168 15.988-16 16zm40 64h16v16h-16zm64 48h-112v-16h112zm80-24v8h-64v-8c0-4.418-3.582-8-8-8h-40v-24c0-4.418-3.582-8-8-8h-8v-32h40c17.665-.02 31.98-14.335 32-32v-72h48v72c.02 17.665 14.335 31.98 32 32h40v32h-8c-4.418 0-8 3.582-8 8v24h-40c-4.418 0-8 3.582-8 8zm80-24v16h-16v-16zm48 32v16h-112v-16zm8-112c-.012 8.832-7.168 15.988-16 16h-96c-8.832-.012-15.988-7.168-16-16v-16h128zm0-32h-128v-112h128zm0-128h-128v-96c.012-8.832 7.168-15.988 16-16h96c8.832.012 15.988 7.168 16 16zm53.79 36.17c-8.534 15.584-21.755 28.087-37.79 35.74v-151.82c41.934 19.912 59.787 70.049 39.875 111.983-.658 1.384-1.353 2.751-2.085 4.097z"/><path d="m360 112c-17.673 0-32 14.327-32 32s14.327 32 32 32 32-14.327 32-32c-.02-17.665-14.335-31.98-32-32zm0 48c-8.837 0-16-7.163-16-16s7.163-16 16-16 16 7.163 16 16c-.01 8.832-7.168 15.99-16 16z"/><path d="m320 88h-8c-4.418 0-8 3.582-8 8s3.582 8 8 8h8c4.418 0 8-3.582 8-8s-3.582-8-8-8z"/><path d="m400 104h8c4.418 0 8-3.582 8-8s-3.582-8-8-8h-8c-4.418 0-8 3.582-8 8s3.582 8 8 8z"/><path d="m320 344h-8c-4.418 0-8 3.582-8 8s3.582 8 8 8h8c4.418 0 8-3.582 8-8s-3.582-8-8-8z"/><path d="m408 344h-8c-4.418 0-8 3.582-8 8s3.582 8 8 8h8c4.418 0 8-3.582 8-8s-3.582-8-8-8z"/><path d="m312 240h96c4.418 0 8-3.582 8-8s-3.582-8-8-8h-96c-4.418 0-8 3.582-8 8s3.582 8 8 8z"/><path d="m408 248h-96c-4.418 0-8 3.582-8 8s3.582 8 8 8h96c4.418 0 8-3.582 8-8s-3.582-8-8-8z"/><path d="m392 272h-64c-4.418 0-8 3.582-8 8s3.582 8 8 8h64c4.418 0 8-3.582 8-8s-3.582-8-8-8z"/><path d="m496 464h-8c-4.418 0-8 3.582-8 8s3.582 8 8 8h8c4.418 0 8-3.582 8-8s-3.582-8-8-8z"/></g></g></svg>