<svg height="512" viewBox="0 0 64 64" width="512" xmlns="http://www.w3.org/2000/svg"><g id="Network_security" data-name="Network security"><g class="product-icon-9bc9ff"><path d="m15.7 41a41.557 41.557 0 0 1 -1.7-12h-11a25.783 25.783 0 0 0 2.94 12z"/><path d="m15.7 17c2.5-8.318 7.517-14 13.3-14a26 26 0 0 0 -26 26h11a41.913 41.913 0 0 1 1.7-12z"/><path d="m15.7 17h13.3v-14c-5.783 0-10.8 5.682-13.3 14z"/><path d="m15.7 41c2.49 8.32 7.52 14 13.3 14v-14z"/><path d="m41 44.59c-2.65 6.12-6.82 10.15-11.54 10.4a25.686 25.686 0 0 0 12.08-3.22 12.037 12.037 0 0 1 -.54-3.56z"/><path d="m41 44.59v-3.59h-12v14c.15 0 .31 0 .46-.01 4.72-.25 8.89-4.28 11.54-10.4z"/><path d="m15.7 41h-9.76a25.973 25.973 0 0 0 23.06 14c-5.78 0-10.81-5.68-13.3-14z"/><path d="m29 17h-13.3a41.913 41.913 0 0 0 -1.7 12h15z"/><path d="m42.3 17h.005c-2.505-8.318-7.522-14-13.305-14v14z"/><path d="m42.305 17a41.913 41.913 0 0 1 1.695 12h11a26 26 0 0 0 -26-26c5.783 0 10.8 5.682 13.305 14z"/><path d="m43.31 36.76a7.986 7.986 0 0 0 7.05-1.3l.6-.46.69.51a7.979 7.979 0 0 0 2.2 1.15 25.821 25.821 0 0 0 1.15-7.66h-11a43.082 43.082 0 0 1 -.69 7.76z"/><path d="m29 29h-15a41.557 41.557 0 0 0 1.7 12h13.3z"/><path d="m29 41h12v-5l2 .67c.1.03.2.06.31.09a43.082 43.082 0 0 0 .69-7.76h-15z"/><path d="m44 29a41.913 41.913 0 0 0 -1.7-12h-13.3v12z"/><path d="m50.96 35-.6.46a7.986 7.986 0 0 1 -7.05 1.3c-.11-.03-.21-.06-.31-.09l-2-.67v12.21a11.993 11.993 0 0 0 5.83 10.29l4.17 2.5 4.17-2.5a12 12 0 0 0 5.83-10.29v-12.21l-2.05.68a8.04 8.04 0 0 1 -7.3-1.17zm5.472 5.09a10.931 10.931 0 0 0 1.568-.112v8.232a9.044 9.044 0 0 1 -4.372 7.717l-2.628 1.573-2.627-1.575a8.992 8.992 0 0 1 -4.373-7.715v-8.24a11.03 11.03 0 0 0 6.973-1.328 11.073 11.073 0 0 0 5.459 1.448z"/></g><path d="m61.585 35.189a.993.993 0 0 0 -.9-.138l-2.05.68a6.951 6.951 0 0 1 -3.555.21 26.984 26.984 0 1 0 -26.08 20.059c.172 0 .354 0 .476-.01h.042a26.874 26.874 0 0 0 11.471-2.811 13 13 0 0 0 5.326 6.181l4.17 2.5a1 1 0 0 0 1.03 0l4.169-2.5a13.063 13.063 0 0 0 6.316-11.15v-12.21a1 1 0 0 0 -.415-.811zm-31.585 18.741v-11.93h10v2.372c-2.473 5.607-6.08 9.046-10 9.558zm-25.975-25.93a24.824 24.824 0 0 1 2.532-10h7.837a42.686 42.686 0 0 0 -1.379 10zm12.407-10h11.568v10h-12.986a41.237 41.237 0 0 1 1.418-10zm37.543 10h-8.99a42.686 42.686 0 0 0 -1.379-10h7.837a24.824 24.824 0 0 1 2.532 10zm-10.989 0h-12.986v-10h11.568a41.237 41.237 0 0 1 1.418 10zm-12.986-12v-11.929c4.636.588 8.656 5.217 10.954 11.929zm-2-11.929v11.929h-10.954c2.298-6.712 6.318-11.341 10.954-11.929zm0 25.929v10h-11.527a40.856 40.856 0 0 1 -1.438-10zm0 12v11.934c-4.49-.576-8.551-5.008-10.924-11.934zm13.317-6.948a1 1 0 0 0 -1.317.948v4h-10v-10h12.978a42.177 42.177 0 0 1 -.471 5.444zm3.661-5.052h8.985a24.9 24.9 0 0 1 -.78 5.292 7.3 7.3 0 0 1 -.939-.587l-.69-.51a1 1 0 0 0 -1.2.012l-.6.457a6.993 6.993 0 0 1 -5.31 1.322 44.1 44.1 0 0 0 .534-5.986zm5.368-14h-7.328a24.966 24.966 0 0 0 -6.534-10.855 25.122 25.122 0 0 1 13.862 10.855zm-28.83-10.855a24.966 24.966 0 0 0 -6.534 10.855h-7.328a25.122 25.122 0 0 1 13.862-10.855zm-17.487 24.855h9.005a42.434 42.434 0 0 0 1.373 10h-7.842a24.555 24.555 0 0 1 -2.536-10zm3.624 12h7.322a24.593 24.593 0 0 0 6.442 10.816 24.887 24.887 0 0 1 -13.764-10.816zm32.363 6.634a12.989 12.989 0 0 0 .349 2.616 24.451 24.451 0 0 1 -3.765 1.558 19.522 19.522 0 0 0 3.416-4.174zm19.984-.424a11.05 11.05 0 0 1 -5.345 9.432l-3.655 2.192-3.656-2.192a10.988 10.988 0 0 1 -5.344-9.432v-10.821l.709.238c.108.033.219.065.321.093a9 9 0 0 0 7.939-1.467l.086.064a9.032 9.032 0 0 0 8.21 1.313l.735-.245z" class="product-icon-1e81ce"/><path d="m57.856 38.988a9.964 9.964 0 0 1 -4.64-.431 9.689 9.689 0 0 1 -1.747-.784 1 1 0 0 0 -.99 0 10.074 10.074 0 0 1 -6.34 1.207 1 1 0 0 0 -1.139.99v8.24a10 10 0 0 0 4.859 8.575l2.626 1.574a1 1 0 0 0 1.029 0l2.629-1.576a10.047 10.047 0 0 0 4.857-8.573v-8.232a1 1 0 0 0 -1.144-.99zm-.856 9.222a8.038 8.038 0 0 1 -3.886 6.859l-2.114 1.267-2.112-1.267a7.99 7.99 0 0 1 -3.888-6.859v-7.145a11.988 11.988 0 0 0 5.971-1.288 11.668 11.668 0 0 0 1.6.675 11.8 11.8 0 0 0 4.429.625z" class="product-icon-1e81ce"/><path d="m54.293 45.293-4.293 4.293-2.121-2.122a1 1 0 1 0 -1.414 1.414l2.828 2.829a1 1 0 0 0 1.414 0l5-5a1 1 0 0 0 -1.414-1.414z" class="product-icon-1e81ce"/></g></svg>