<svg height="512" viewBox="0 0 512 512" width="512" xmlns="http://www.w3.org/2000/svg"><g><g class="product-icon-9bc9ff"><g><path d="m240 432h32v32h-32z"/><path d="m240 16h32v32h-32z"/><circle cx="112" cy="192" r="16"/><circle cx="168" cy="192" r="16"/><circle cx="112" cy="96" r="16"/><circle cx="168" cy="96" r="16"/><circle cx="112" cy="288" r="16"/><circle cx="168" cy="288" r="16"/></g><path d="m416 280-80 24v71.25a71.99 71.99 0 0 0 45.26 66.85l34.74 13.9 34.74-13.9a71.99 71.99 0 0 0 45.26-66.85v-71.25zm56 95.25a47.761 47.761 0 0 1 -30.17 44.57l-25.83 10.33-25.83-10.33a47.761 47.761 0 0 1 -30.17-44.57v-53.39l56-16.8 56 16.8z"/></g><g class="product-icon-1e81ce"><path d="m496 472h-8a8 8 0 0 0 0 16h8a8 8 0 0 0 0-16z"/><path d="m112 168a24 24 0 1 0 24 24 24.027 24.027 0 0 0 -24-24zm0 32a8 8 0 1 1 8-8 8.009 8.009 0 0 1 -8 8z"/><path d="m168 168a24 24 0 1 0 24 24 24.027 24.027 0 0 0 -24-24zm0 32a8 8 0 1 1 8-8 8.009 8.009 0 0 1 -8 8z"/><path d="m424 176a8 8 0 0 0 -8-8h-96a8 8 0 0 0 0 16h96a8 8 0 0 0 8-8z"/><path d="m416 200h-40a8 8 0 0 0 0 16h40a8 8 0 0 0 0-16z"/><path d="m296 168h-8a8 8 0 0 0 0 16h8a8 8 0 0 0 0-16z"/><path d="m112 72a24 24 0 1 0 24 24 24.027 24.027 0 0 0 -24-24zm0 32a8 8 0 1 1 8-8 8.009 8.009 0 0 1 -8 8z"/><path d="m168 72a24 24 0 1 0 24 24 24.027 24.027 0 0 0 -24-24zm0 32a8 8 0 1 1 8-8 8.009 8.009 0 0 1 -8 8z"/><path d="m424 88a8 8 0 0 0 -8-8h-96a8 8 0 0 0 0 16h96a8 8 0 0 0 8-8z"/><path d="m416 104h-40a8 8 0 0 0 0 16h40a8 8 0 0 0 0-16z"/><path d="m296 80h-8a8 8 0 0 0 0 16h8a8 8 0 0 0 0-16z"/><path d="m112 264a24 24 0 1 0 24 24 24.027 24.027 0 0 0 -24-24zm0 32a8 8 0 1 1 8-8 8.009 8.009 0 0 1 -8 8z"/><path d="m168 264a24 24 0 1 0 24 24 24.027 24.027 0 0 0 -24-24zm0 32a8 8 0 1 1 8-8 8.009 8.009 0 0 1 -8 8z"/><path d="m352 272a8 8 0 0 0 -8-8h-24a8 8 0 0 0 0 16h24a8 8 0 0 0 8-8z"/><path d="m296 264h-8a8 8 0 0 0 0 16h8a8 8 0 0 0 0-16z"/><path d="m498.3 296.34-42.3-12.69v-19.65a31.92 31.92 0 0 0 -10.87-24 31.92 31.92 0 0 0 10.87-24v-48a31.92 31.92 0 0 0 -10.87-24 31.92 31.92 0 0 0 10.87-24v-48a32.036 32.036 0 0 0 -32-32h-144v-24a8 8 0 0 0 -8-8h-32a8 8 0 0 0 -8 8v24h-144a32.03 32.03 0 0 0 -32 32v48a31.92 31.92 0 0 0 10.87 24 31.92 31.92 0 0 0 -10.87 24v48a31.92 31.92 0 0 0 10.87 24 31.92 31.92 0 0 0 -10.87 24v48a32.03 32.03 0 0 0 32 32h160v80h-8a8 8 0 0 0 -8 8v24h-40a8 8 0 0 0 -8 8v8h-168a8 8 0 0 0 0 16h168v8a8 8 0 0 0 8 8h128a8 8 0 0 0 8-8v-8h136a8 8 0 0 0 0-16h-136v-8a8 8 0 0 0 -8-8h-40v-24a8 8 0 0 0 -8-8h-8v-80h64v31.25a79.613 79.613 0 0 0 50.29 74.28l34.74 13.9a8.023 8.023 0 0 0 5.94 0l34.74-13.9a79.613 79.613 0 0 0 50.29-74.28v-71.25a8 8 0 0 0 -5.7-7.66zm-250.3-272.34h16v16h-16zm-176 48a16.021 16.021 0 0 1 16-16h336a16.021 16.021 0 0 1 16 16v48a16.021 16.021 0 0 1 -16 16h-336a16.021 16.021 0 0 1 -16-16zm0 96a16.021 16.021 0 0 1 16-16h336a16.021 16.021 0 0 1 16 16v48a16.021 16.021 0 0 1 -16 16h-336a16.021 16.021 0 0 1 -16-16zm176 272h16v16h-16zm64 32v16h-112v-16zm16-168v24h-240a16.021 16.021 0 0 1 -16-16v-48a16.021 16.021 0 0 1 16-16h336a16.021 16.021 0 0 1 16 16v14.85l-21.7-6.51a8.006 8.006 0 0 0 -4.6 0l-80 24a8 8 0 0 0 -5.7 7.66zm160 71.25a63.7 63.7 0 0 1 -40.23 59.43l-31.77 12.7-31.77-12.7a63.7 63.7 0 0 1 -40.23-59.43v-65.3l72-21.6 72 21.6z"/><path d="m413.7 297.394-56 16.8a8 8 0 0 0 -5.7 7.663v53.4a55.732 55.732 0 0 0 35.2 52l25.827 10.331a8 8 0 0 0 5.942 0l25.828-10.33a55.735 55.735 0 0 0 35.2-52v-53.4a8 8 0 0 0 -5.7-7.663l-56-16.8a8 8 0 0 0 -4.597-.001zm50.3 30.415v47.444a39.81 39.81 0 0 1 -25.144 37.14l-14.856 5.942v-90.335a8 8 0 0 0 -16 0v90.335l-14.856-5.942a39.808 39.808 0 0 1 -25.144-37.14v-47.444l48-14.4z"/></g></g></svg>