<svg height="512" viewBox="0 0 512 512" width="512" xmlns="http://www.w3.org/2000/svg"><g><g class="product-icon-9bc9ff"><path d="m368 248v64c0 22.09-50.14 40-112 40s-112-17.91-112-40v-64c0 22.09 50.14 40 112 40s112-17.91 112-40z"/><ellipse cx="256" cy="56" rx="112" ry="40"/></g><g class="product-icon-1e81ce"><path d="m168.33 364.5-70.63-65.054a24.027 24.027 0 0 0 -17.7-6.877v-68.569a24.027 24.027 0 0 0 -24-24h-16a24.028 24.028 0 0 0 -24 24v176.47a23.925 23.925 0 0 0 6.871 16.814l54.834 55.664a7.94 7.94 0 0 1 2.3 5.613v17.439a8 8 0 0 0 8 8h80a8 8 0 0 0 8-8v-79.983l.07-33.82a24.02 24.02 0 0 0 -7.745-17.697zm-8.26 17.668-.07 33.832v72h-64v-9.439a23.841 23.841 0 0 0 -6.9-16.845l-54.807-55.636a7.991 7.991 0 0 1 -2.293-5.61v-176.47a8.009 8.009 0 0 1 8-8h16a8.009 8.009 0 0 1 8 8v75.467c-.037.037-.08.069-.117.106l-11.31 11.31a24 24 0 0 0 0 33.944l50.91 50.91a8 8 0 1 0 11.317-11.314l-50.91-50.91a8.01 8.01 0 0 1 0-11.316l11.31-11.311a7.969 7.969 0 0 1 11.314 0q.115.117.237.228l70.749 65.158a7.986 7.986 0 0 1 2.571 5.89z"/><path d="m472.07 200h-16a24.027 24.027 0 0 0 -24 24v68.569a24 24 0 0 0 -17.7 6.876l-70.623 65.042a24.026 24.026 0 0 0 -7.747 17.713l.07 33.8v80a8 8 0 0 0 8 8h80a8 8 0 0 0 8-8v-17.44a8.051 8.051 0 0 1 2.3-5.616l54.853-55.684a23.9 23.9 0 0 0 6.847-16.79v-176.47a24.027 24.027 0 0 0 -24-24zm8 200.47a7.973 7.973 0 0 1 -2.269 5.586l-54.825 55.656a23.838 23.838 0 0 0 -6.906 16.848v9.44h-64v-72.017l-.07-33.82a7.988 7.988 0 0 1 2.58-5.9l70.74-65.151c.08-.074.159-.15.237-.227a7.973 7.973 0 0 1 11.317 0l11.31 11.309a8.012 8.012 0 0 1 0 11.316l-50.911 50.91a8 8 0 0 0 11.314 11.314l50.91-50.91a24 24 0 0 0 0-33.944l-11.308-11.308c-.038-.037-.081-.07-.119-.107v-75.465a8.009 8.009 0 0 1 8-8h16a8.009 8.009 0 0 1 8 8z"/><path d="m337.89 20.18c-22-7.85-51.08-12.18-81.89-12.18s-59.89 4.33-81.89 12.18c-31.5 11.25-38.11 25.69-38.11 35.82v256c0 18.35 20.73 29.61 38.11 35.82 22 7.85 51.08 12.18 81.89 12.18s59.89-4.33 81.89-12.18c17.38-6.21 38.11-17.47 38.11-35.82v-256c0-10.13-6.61-24.57-38.11-35.82zm22.11 291.82c0 5.28-7.22 13.51-27.49 20.75-20.32 7.25-47.49 11.25-76.51 11.25s-56.19-4-76.51-11.25c-20.27-7.24-27.49-15.47-27.49-20.75v-38.97a96.23 96.23 0 0 0 22.11 10.79c22 7.85 51.08 12.18 81.89 12.18s59.89-4.33 81.89-12.18a96.23 96.23 0 0 0 22.11-10.79zm0-64c0 5.28-7.22 13.51-27.49 20.75-20.32 7.25-47.49 11.25-76.51 11.25-63.49 0-104-18.95-104-32v-38.97a96.23 96.23 0 0 0 22.11 10.79c22 7.85 51.08 12.18 81.89 12.18s59.89-4.33 81.89-12.18a96.23 96.23 0 0 0 22.11-10.79zm0-64c0 5.28-7.22 13.51-27.49 20.75-20.32 7.25-47.49 11.25-76.51 11.25-63.49 0-104-18.95-104-32v-38.97a96.23 96.23 0 0 0 22.11 10.79c22 7.85 51.08 12.18 81.89 12.18s59.89-4.33 81.89-12.18a96.23 96.23 0 0 0 22.11-10.79zm0-64c0 5.28-7.22 13.51-27.49 20.75-20.32 7.25-47.49 11.25-76.51 11.25-63.49 0-104-18.95-104-32v-38.97a96.23 96.23 0 0 0 22.11 10.79c22 7.85 51.08 12.18 81.89 12.18s59.89-4.33 81.89-12.18a96.23 96.23 0 0 0 22.11-10.79zm-27.49-43.25c-20.32 7.25-47.49 11.25-76.51 11.25-63.49 0-104-18.95-104-32 0-5.28 7.22-13.51 27.49-20.75 20.32-7.25 47.49-11.25 76.51-11.25 63.49 0 104 18.95 104 32 0 5.28-7.22 13.51-27.49 20.75z"/><circle cx="176" cy="112" r="8"/><circle cx="176" cy="176" r="8"/><circle cx="176" cy="240" r="8"/><circle cx="176" cy="304" r="8"/><path d="m234.343 69.657a8 8 0 0 0 11.314 0l24-24a8 8 0 0 0 -11.314-11.314l-24 24a8 8 0 0 0 0 11.314z"/><path d="m216 64a7.976 7.976 0 0 0 5.657-2.343l16-16a8 8 0 0 0 -11.314-11.314l-16 16a8 8 0 0 0 5.657 13.657z"/><path d="m266.343 69.657a8 8 0 0 0 11.314 0l8-8a8 8 0 0 0 -11.314-11.314l-8 8a8 8 0 0 0 0 11.314z"/></g></g></svg>