<svg height="512" viewBox="0 0 512 512" width="512" xmlns="http://www.w3.org/2000/svg"><g><g class="product-icon-9bc9ff"><path d="m496 40v24h-480v-24a24.006 24.006 0 0 1 24-24h432a24.006 24.006 0 0 1 24 24z"/><path d="m256 111.7-120 40v76.8a151.7 151.7 0 0 0 67.69 126.47l52.31 34.87 52.31-34.87a151.7 151.7 0 0 0 67.69-126.47v-76.8zm-39 223.3a128.006 128.006 0 0 1 -57-106.5v-59.5l96-32v224z"/></g><g class="product-icon-1e81ce"><path d="m472 8h-432a32.036 32.036 0 0 0 -32 32v432a32.036 32.036 0 0 0 32 32h432a32.036 32.036 0 0 0 32-32v-432a32.036 32.036 0 0 0 -32-32zm16 464a16.021 16.021 0 0 1 -16 16h-432a16.021 16.021 0 0 1 -16-16v-400h464zm0-416h-464v-16a16.021 16.021 0 0 1 16-16h432a16.021 16.021 0 0 1 16 16z"/><circle cx="39" cy="40" r="8"/><circle cx="64" cy="40" r="8"/><circle cx="88" cy="40" r="8"/><path d="m378.53 144.11-120-40a7.965 7.965 0 0 0 -5.06 0l-120 40a8 8 0 0 0 -5.47 7.59v76.8a159.659 159.659 0 0 0 71.25 133.12l52.31 34.88a8.026 8.026 0 0 0 8.88 0l52.31-34.88a159.659 159.659 0 0 0 71.25-133.12v-76.8a8 8 0 0 0 -5.47-7.59zm-10.53 84.39a143.715 143.715 0 0 1 -64.12 119.81l-47.88 31.92-47.88-31.92a143.715 143.715 0 0 1 -64.12-119.81v-71.03l112-37.34 112 37.34z"/><path d="m354.53 161.41-96-32a7.965 7.965 0 0 0 -5.06 0l-96 32a8 8 0 0 0 -5.47 7.59v59.5a135.751 135.751 0 0 0 60.56 113.16l39 26a8.026 8.026 0 0 0 8.88 0l39-26a135.751 135.751 0 0 0 60.56-113.16v-59.5a8 8 0 0 0 -5.47-7.59zm-106.53 184.64-26.56-17.71a119.749 119.749 0 0 1 -53.44-99.84v-53.73l80-26.67zm96-117.55a119.749 119.749 0 0 1 -53.44 99.84l-26.56 17.71v-197.95l80 26.67z"/><path d="m368 432h-224a8 8 0 0 0 0 16h224a8 8 0 0 0 0-16z"/><path d="m288 456h-96a8 8 0 0 0 0 16h96a8 8 0 0 0 0-16z"/><path d="m320 456h-8a8 8 0 0 0 0 16h8a8 8 0 0 0 0-16z"/></g></g></svg>