<svg height="512" viewBox="0 0 512 512" width="512" xmlns="http://www.w3.org/2000/svg"><g><g><path d="m336 360-12-16" style="fill:none"/><g class="product-icon-9bc9ff"><path d="m328 388.57v1.63c.01-.01.03-.02.04-.03l32.38-41.81a41.153 41.153 0 0 0 -32.42 40.21zm-104-372.57-176 48v222.52a160 160 0 0 0 65.89 129.4l110.11 80.08 104-75.64 20.25-24.93h-20.25v-5.23q-3.87 3.3-8.01 6.31l-95.99 69.81v-226.32h-152v-157.67l152-41.45v199.12h152v46.52a136.054 136.054 0 0 1 -13.75 59.48l-1.83 2.36a41.086 41.086 0 0 1 8.72-.93h13.72a41.936 41.936 0 0 1 4.21.21l1.58-1.95a159.625 159.625 0 0 0 11.35-59.17v-222.52z"/><path d="m376 82.33v157.67h-152v-199.12z"/><path d="m224 240v226.32l-95.99-69.81a136.4 136.4 0 0 1 -56.01-109.99v-46.52z"/><path d="m360.42 348.36-32.38 41.81c-.01.01-.03.02-.04.03v-1.63a41.153 41.153 0 0 1 32.42-40.21z"/><g><path d="m424 395.43v48a41.141 41.141 0 0 1 -41.14 41.14h-6.86v-89.14z"/><path d="m376 395.43v89.14h-6.86a41.141 41.141 0 0 1 -41.14-41.14v-48z"/></g></g></g><g class="product-icon-1e81ce"><path d="m432 400h.01a8.021 8.021 0 0 0 3.57-.84l32-16a8.011 8.011 0 0 0 4.42-7.16v-23a8 8 0 0 0 -16 0v18.06l-24.66 12.33a55.84 55.84 0 0 0 -7.91-21.12l9.82-12.27a8 8 0 0 0 -12.5-10l-7.9 9.88a56.539 56.539 0 0 0 -13.91-8.95 166.98 166.98 0 0 0 9.06-54.41v-222.52a8.006 8.006 0 0 0 -5.9-7.72l-176-48a8.085 8.085 0 0 0 -4.2 0l-176 48a8.006 8.006 0 0 0 -5.9 7.72v222.52a168.512 168.512 0 0 0 69.18 135.87l110.11 80.08a8.015 8.015 0 0 0 9.42 0l91.29-66.4v3.93a57.383 57.383 0 0 0 .58 8.03 8.064 8.064 0 0 0 -4.16.81l-32 16a8.011 8.011 0 0 0 -4.42 7.16v24a8 8 0 0 0 16 0v-19.06l27.58-13.78a8.624 8.624 0 0 0 1.13-.71 55.98 55.98 0 0 0 102.58 0 8.624 8.624 0 0 0 1.13.71l27.58 13.78v19.06a8 8 0 0 0 16 0v-24a8.011 8.011 0 0 0 -4.42-7.16l-32-16a8.064 8.064 0 0 0 -4.16-.81 57.383 57.383 0 0 0 .58-8.03zm-112 16.29-96 69.82-105.41-76.66a152.473 152.473 0 0 1 -62.59-122.93v-216.41l168-45.82 168 45.82v216.41a150.946 150.946 0 0 1 -8.47 50 56.561 56.561 0 0 0 -7.53-.52c-.28 0-.56.02-.85.02a144.458 144.458 0 0 0 8.85-49.5v-204.19a8.006 8.006 0 0 0 -5.9-7.72l-152-41.45a8.085 8.085 0 0 0 -4.2 0l-152 41.45a8.006 8.006 0 0 0 -5.9 7.72v204.19a144.43 144.43 0 0 0 59.3 116.46l95.99 69.81a8.015 8.015 0 0 0 9.42 0l91.29-66.4zm-96-320.29a8 8 0 0 0 -8 8v128h-136v-143.56l144-39.27 144 39.27v143.56h-136v-128a8 8 0 0 0 -8-8zm106.4 243.2a8 8 0 0 0 -12.8 9.6l10.57 14.1a55.754 55.754 0 0 0 -7.51 20.49l-24.66-12.33v-19.06a8 8 0 0 0 -16 0v24a8.011 8.011 0 0 0 4.42 7.16l23.9 11.94-84.32 61.33-91.29-66.39a128.39 128.39 0 0 1 -52.71-103.52v-38.52h136v184a8 8 0 0 0 16 0v-184h136v38.52a128.767 128.767 0 0 1 -11.55 53.01 56.1 56.1 0 0 0 -17.75 10.74zm37.6 140a40.069 40.069 0 0 1 -32-39.2v-32h32zm48-39.2a40.069 40.069 0 0 1 -32 39.2v-71.2h32zm-80-48a40 40 0 0 1 80 0z"/><path d="m216 64v16a8 8 0 0 0 16 0v-16a8 8 0 0 0 -16 0z"/></g></g></svg>