<svg height="512" viewBox="0 0 64 64" width="512" xmlns="http://www.w3.org/2000/svg"><g id="Server_control" data-name="Server control"><path d="m55 3h-46a2 2 0 0 0 -2 2v4h50v-4a2 2 0 0 0 -2-2z" class="product-icon-9bc9ff"/><path d="m56 51h-6v10h6a5 5 0 0 0 0-10z" class="product-icon-9bc9ff"/><path d="m48 51a5 5 0 0 0 0 10h2v-10z" class="product-icon-9bc9ff"/><path d="m46 13h-28a2 2 0 0 0 -2 2v4a2 2 0 0 0 2 2h28a2 2 0 0 0 2-2v-4a2 2 0 0 0 -2-2z" class="product-icon-9bc9ff"/><path d="m46 24h-28a2 2 0 0 0 -2 2v4a2 2 0 0 0 2 2h28a2 2 0 0 0 2-2v-4a2 2 0 0 0 -2-2z" class="product-icon-9bc9ff"/><path d="m46 35h-28a2 2 0 0 0 -2 2v4a2 2 0 0 0 2 2h28a2 2 0 0 0 2-2v-4a2 2 0 0 0 -2-2z" class="product-icon-9bc9ff"/><g class="product-icon-1e81ce"><path d="m56 50h-8a6.006 6.006 0 0 0 -5.91 5h-8.09a3 3 0 0 0 -3 3v1a1 1 0 0 1 -1 1h-23a3 3 0 0 1 0-6h11a3 3 0 0 0 3-3v-3h34a3 3 0 0 0 3-3v-40a3 3 0 0 0 -3-3h-46a3 3 0 0 0 -3 3v40a3 3 0 0 0 3 3h10v3a1 1 0 0 1 -1 1h-11a5 5 0 0 0 0 10h23a3 3 0 0 0 3-3v-1a1 1 0 0 1 1-1h8.09a6.006 6.006 0 0 0 5.91 5h8a6 6 0 0 0 0-12zm-48-45a1 1 0 0 1 1-1h46a1 1 0 0 1 1 1v3h-48zm0 40v-35h48v35a1 1 0 0 1 -1 1h-46a1 1 0 0 1 -1-1zm36 11a4 4 0 0 1 4-4h1v8h-1a4 4 0 0 1 -4-4zm12 4h-5v-8h5a4 4 0 0 1 0 8z"/><path d="m47 55h-1a1 1 0 0 0 0 2h1a1 1 0 0 0 0-2z"/><path d="m10 5h2v2h-2z"/><path d="m14 5h2v2h-2z"/><path d="m18 5h2v2h-2z"/><path d="m39 16h2v2h-2z"/><path d="m43 16h2v2h-2z"/><path d="m39 27h2v2h-2z"/><path d="m43 27h2v2h-2z"/><path d="m39 38h2v2h-2z"/><path d="m43 38h2v2h-2z"/><path d="m46 12h-28a3 3 0 0 0 -3 3v4a3 3 0 0 0 3 3h1v1h-1a3 3 0 0 0 -3 3v4a3 3 0 0 0 3 3h1v1h-1a3 3 0 0 0 -3 3v4a3 3 0 0 0 3 3h28a3 3 0 0 0 3-3v-4a3 3 0 0 0 -3-3h-1v-1h1a3 3 0 0 0 3-3v-4a3 3 0 0 0 -3-3h-1v-1h1a3 3 0 0 0 3-3v-4a3 3 0 0 0 -3-3zm1 25v4a1 1 0 0 1 -1 1h-28a1 1 0 0 1 -1-1v-4a1 1 0 0 1 1-1h28a1 1 0 0 1 1 1zm-4-3h-22v-1h22zm4-8v4a1 1 0 0 1 -1 1h-28a1 1 0 0 1 -1-1v-4a1 1 0 0 1 1-1h28a1 1 0 0 1 1 1zm-4-3h-22v-1h22zm4-4a1 1 0 0 1 -1 1h-28a1 1 0 0 1 -1-1v-4a1 1 0 0 1 1-1h28a1 1 0 0 1 1 1z"/><path d="m19 15h2v4h-2z"/><path d="m23 15h2v4h-2z"/><path d="m27 15h2v4h-2z"/><path d="m31 15h2v4h-2z"/><path d="m19 26h2v4h-2z"/><path d="m23 26h2v4h-2z"/><path d="m27 26h2v4h-2z"/><path d="m31 26h2v4h-2z"/><path d="m19 37h2v4h-2z"/><path d="m23 37h2v4h-2z"/><path d="m27 37h2v4h-2z"/><path d="m31 37h2v4h-2z"/></g></g></svg>