<svg height="512" viewBox="0 0 64 64" width="512" xmlns="http://www.w3.org/2000/svg"><g id="Server"><path d="m54 7h-44a2 2 0 0 0 -2 2v10a2 2 0 0 0 2 2h44a2 2 0 0 0 2-2v-10a2 2 0 0 0 -2-2zm-18 10h-12v-6h12zm6-1a2 2 0 1 1 2-2 2 2 0 0 1 -2 2zm8 0a2 2 0 1 1 2-2 2 2 0 0 1 -2 2z" class="product-icon-9bc9ff"/><path d="m54 25h-44a2 2 0 0 0 -2 2v10a2 2 0 0 0 2 2h44a2 2 0 0 0 2-2v-10a2 2 0 0 0 -2-2zm-18 10h-12v-6h12zm6-1a2 2 0 1 1 2-2 2 2 0 0 1 -2 2zm8 0a2 2 0 1 1 2-2 2 2 0 0 1 -2 2z" class="product-icon-9bc9ff"/><path d="m54 43h-44a2 2 0 0 0 -2 2v10a2 2 0 0 0 2 2h44a2 2 0 0 0 2-2v-10a2 2 0 0 0 -2-2zm-18 10h-12v-6h12zm6-1a2 2 0 1 1 2-2 2 2 0 0 1 -2 2zm8 0a2 2 0 1 1 2-2 2 2 0 0 1 -2 2z" class="product-icon-9bc9ff"/><g class="product-icon-1e81ce"><path d="m54 22a3 3 0 0 0 3-3v-10a3 3 0 0 0 -3-3h-1v-1a3 3 0 0 0 -3-3h-36a3 3 0 0 0 -3 3v1h-1a3 3 0 0 0 -3 3v10a3 3 0 0 0 3 3h1v2h-1a3 3 0 0 0 -3 3v10a3 3 0 0 0 3 3h1v2h-1a3 3 0 0 0 -3 3v10a3 3 0 0 0 3 3h1v1a3 3 0 0 0 3 3h36a3 3 0 0 0 3-3v-1h1a3 3 0 0 0 3-3v-10a3 3 0 0 0 -3-3h-1v-2h1a3 3 0 0 0 3-3v-10a3 3 0 0 0 -3-3h-1v-2zm-41-17a1 1 0 0 1 1-1h36a1 1 0 0 1 1 1v1h-38zm-3 15a1 1 0 0 1 -1-1v-10a1 1 0 0 1 1-1h43s2 .449 2 1v10a1 1 0 0 1 -1 1zm41 39a1 1 0 0 1 -1 1h-36a1 1 0 0 1 -1-1v-1h38zm3-15a1 1 0 0 1 1 1v10a1 1 0 0 1 -1 1h-44a1 1 0 0 1 -1-1v-10a1 1 0 0 1 1-1zm-3-2h-38v-2h38zm3-16a1 1 0 0 1 1 1v10a1 1 0 0 1 -1 1h-44a1 1 0 0 1 -1-1v-10a1 1 0 0 1 1-1zm-3-2h-38v-2h38z"/><path d="m11 15h2v3h-2z"/><path d="m11 10h2v3h-2z"/><path d="m15 15h2v3h-2z"/><path d="m15 10h2v3h-2z"/><path d="m19 15h2v3h-2z"/><path d="m19 10h2v3h-2z"/><path d="m36 10h-12a1 1 0 0 0 -1 1v6a1 1 0 0 0 1 1h12a1 1 0 0 0 1-1v-6a1 1 0 0 0 -1-1zm-1 6h-10v-4h10z"/><path d="m50 11a3 3 0 1 0 3 3 3 3 0 0 0 -3-3zm0 4a1 1 0 1 1 1-1 1 1 0 0 1 -1 1z"/><path d="m42 11a3 3 0 1 0 3 3 3 3 0 0 0 -3-3zm0 4a1 1 0 1 1 1-1 1 1 0 0 1 -1 1z"/><path d="m24 36h12a1 1 0 0 0 1-1v-6a1 1 0 0 0 -1-1h-12a1 1 0 0 0 -1 1v6a1 1 0 0 0 1 1zm1-6h10v4h-10z"/><path d="m42 35a3 3 0 1 0 -3-3 3 3 0 0 0 3 3zm0-4a1 1 0 1 1 -1 1 1 1 0 0 1 1-1z"/><path d="m24 54h12a1 1 0 0 0 1-1v-6a1 1 0 0 0 -1-1h-12a1 1 0 0 0 -1 1v6a1 1 0 0 0 1 1zm1-6h10v4h-10z"/><path d="m42 53a3 3 0 1 0 -3-3 3 3 0 0 0 3 3zm0-4a1 1 0 1 1 -1 1 1 1 0 0 1 1-1z"/><path d="m11 33h2v3h-2z"/><path d="m11 28h2v3h-2z"/><path d="m15 33h2v3h-2z"/><path d="m15 28h2v3h-2z"/><path d="m19 33h2v3h-2z"/><path d="m19 28h2v3h-2z"/><path d="m50 35a3 3 0 1 0 -3-3 3 3 0 0 0 3 3zm0-4a1 1 0 1 1 -1 1 1 1 0 0 1 1-1z"/><path d="m11 51h2v3h-2z"/><path d="m11 46h2v3h-2z"/><path d="m15 51h2v3h-2z"/><path d="m15 46h2v3h-2z"/><path d="m19 51h2v3h-2z"/><path d="m19 46h2v3h-2z"/><path d="m50 53a3 3 0 1 0 -3-3 3 3 0 0 0 3 3zm0-4a1 1 0 1 1 -1 1 1 1 0 0 1 1-1z"/></g></g></svg>