<svg id="Capa_1" enable-background="new 0 0 512 512" height="512" viewBox="0 0 512 512" width="512" xmlns="http://www.w3.org/2000/svg"><g><path d="m240 432.023h32v32h-32z" class="product-icon-9bc9ff"/><path d="m240 16.023h32v32h-32z" class="product-icon-9bc9ff"/><circle cx="112" cy="192.023" class="product-icon-9bc9ff" r="16"/><circle cx="168" cy="192.023" class="product-icon-9bc9ff" r="16"/><circle cx="112" cy="96.023" class="product-icon-9bc9ff" r="16"/><circle cx="168" cy="96.023" class="product-icon-9bc9ff" r="16"/><circle cx="112" cy="288.023" class="product-icon-9bc9ff" r="16"/><circle cx="168" cy="288.023" class="product-icon-9bc9ff" r="16"/><circle cx="352" cy="336" class="product-icon-9bc9ff" r="48"/><path d="m423.853 395.61h32v56.485h-32z" class="product-icon-9bc9ff" transform="matrix(.707 -.707 .707 .707 -170.879 435.167)"/><path d="m419.882 403.882-11.313-11.313" style="fill:none"/><g class="product-icon-1e81ce"><path d="m496 472h-8c-4.418 0-8 3.582-8 8s3.582 8 8 8h8c4.418 0 8-3.582 8-8s-3.582-8-8-8z"/><path d="m112 168c-13.255 0-24 10.745-24 24s10.745 24 24 24 24-10.745 24-24c-.015-13.249-10.751-23.985-24-24zm0 32c-4.418 0-8-3.582-8-8s3.582-8 8-8 8 3.582 8 8c-.005 4.416-3.584 7.995-8 8z"/><path d="m168 168c-13.255 0-24 10.745-24 24s10.745 24 24 24 24-10.745 24-24c-.015-13.249-10.751-23.985-24-24zm0 32c-4.418 0-8-3.582-8-8s3.582-8 8-8 8 3.582 8 8c-.005 4.416-3.584 7.995-8 8z"/><path d="m424 176c0-4.418-3.582-8-8-8h-96c-4.418 0-8 3.582-8 8s3.582 8 8 8h96c4.418 0 8-3.582 8-8z"/><path d="m416 200h-40c-4.418 0-8 3.582-8 8s3.582 8 8 8h40c4.418 0 8-3.582 8-8s-3.582-8-8-8z"/><path d="m296 168h-8c-4.418 0-8 3.582-8 8s3.582 8 8 8h8c4.418 0 8-3.582 8-8s-3.582-8-8-8z"/><path d="m112 72c-13.255 0-24 10.745-24 24s10.745 24 24 24 24-10.745 24-24c-.015-13.249-10.751-23.985-24-24zm0 32c-4.418 0-8-3.582-8-8s3.582-8 8-8 8 3.582 8 8c-.005 4.416-3.584 7.995-8 8z"/><path d="m168 72c-13.255 0-24 10.745-24 24s10.745 24 24 24 24-10.745 24-24c-.015-13.249-10.751-23.985-24-24zm0 32c-4.418 0-8-3.582-8-8s3.582-8 8-8 8 3.582 8 8c-.005 4.416-3.584 7.995-8 8z"/><path d="m424 88c0-4.418-3.582-8-8-8h-96c-4.418 0-8 3.582-8 8s3.582 8 8 8h96c4.418 0 8-3.582 8-8z"/><path d="m416 104h-40c-4.418 0-8 3.582-8 8s3.582 8 8 8h40c4.418 0 8-3.582 8-8s-3.582-8-8-8z"/><path d="m296 80h-8c-4.418 0-8 3.582-8 8s3.582 8 8 8h8c4.418 0 8-3.582 8-8s-3.582-8-8-8z"/><path d="m112 264c-13.255 0-24 10.745-24 24s10.745 24 24 24 24-10.745 24-24c-.015-13.249-10.751-23.985-24-24zm0 32c-4.418 0-8-3.582-8-8s3.582-8 8-8 8 3.582 8 8c-.005 4.416-3.584 7.995-8 8z"/><path d="m168 264c-13.255 0-24 10.745-24 24s10.745 24 24 24 24-10.745 24-24c-.015-13.249-10.751-23.985-24-24zm0 32c-4.418 0-8-3.582-8-8s3.582-8 8-8 8 3.582 8 8c-.005 4.416-3.584 7.995-8 8z"/><path d="m391.6 296.4c-21.868-21.87-57.325-21.872-79.196-.004-21.87 21.868-21.872 57.326-.004 79.196s57.325 21.872 79.196.004c10.502-10.501 16.403-24.744 16.404-39.596.041-14.86-5.864-29.12-16.4-39.6zm-11.315 67.882c-15.621 15.621-40.947 15.622-56.569.001s-15.622-40.947-.001-56.569 40.947-15.622 56.569-.001c7.502 7.502 11.716 17.677 11.716 28.287.029 10.614-4.19 20.799-11.716 28.284z"/><path d="m400.57 415.2c-.001 2.119.841 4.152 2.34 5.65l39.94 39.94c3.115 3.126 8.175 3.134 11.301.019l.019-.019 22.62-22.62c3.126-3.122 3.129-8.188.006-11.314-.002-.002-.004-.004-.006-.006l-39.94-39.94c-3.124-3.122-8.186-3.122-11.31 0l-5.66 5.66-5.65-5.66-.3-.27c10.155-12.409 16.328-27.595 17.71-43.57 14.294-3.531 24.342-16.347 24.36-31.07v-48c.001-9.192-3.96-17.938-10.87-24 6.91-6.062 10.871-14.808 10.87-24v-48c.001-9.192-3.96-17.938-10.87-24 6.91-6.062 10.871-14.808 10.87-24v-48c-.02-17.665-14.335-31.98-32-32h-144v-24c0-4.418-3.582-8-8-8h-32c-4.418 0-8 3.582-8 8v24h-144c-17.665.02-31.98 14.335-32 32v48c-.001 9.192 3.96 17.938 10.87 24-6.91 6.062-10.871 14.808-10.87 24v48c-.001 9.192 3.96 17.938 10.87 24-6.91 6.062-10.871 14.808-10.87 24v48c.02 17.665 14.335 31.98 32 32h160v80h-8c-4.418 0-8 3.582-8 8v24h-40c-4.418 0-8 3.582-8 8v8h-168c-4.418 0-8 3.582-8 8s3.582 8 8 8h168v8c0 4.418 3.582 8 8 8h128c4.418 0 8-3.582 8-8v-8h136c4.418 0 8-3.582 8-8s-3.582-8-8-8h-136v-8c0-4.418-3.582-8-8-8h-40v-24c0-4.418-3.582-8-8-8h-8v-80h8.44c4.445 43.964 43.689 75.999 87.652 71.554 15.603-1.578 30.399-7.706 42.548-17.624l.27.3 5.66 5.65-5.66 5.66c-1.501 1.501-2.343 3.537-2.34 5.66zm30.63-11.32 28.62 28.63-11.31 11.31-28.63-28.62zm-183.2-379.88h16v16h-16zm-176 48c.012-8.832 7.168-15.988 16-16h336c8.832.012 15.988 7.168 16 16v48c-.012 8.832-7.168 15.988-16 16h-336c-8.832-.012-15.988-7.168-16-16zm0 96c.012-8.832 7.168-15.988 16-16h336c8.832.012 15.988 7.168 16 16v48c-.012 8.832-7.168 15.988-16 16h-336c-8.832-.012-15.988-7.168-16-16zm176 272h16v16h-16zm64 32v16h-112v-16zm-224-144c-8.832-.012-15.988-7.168-16-16v-48c.012-8.832 7.168-15.988 16-16h336c8.832.012 15.988 7.168 16 16v48c-.008 5.979-3.348 11.455-8.66 14.2-5.372-43.824-45.253-74.995-89.077-69.623-37.113 4.55-66.115 34.216-69.823 71.423zm309.25 53.25c-24.991 24.973-65.494 24.958-90.467-.033s-24.958-65.494.033-90.467c24.978-24.96 65.456-24.96 90.434 0 24.96 25.004 24.96 65.496 0 90.5z"/></g></g></svg>