<svg height="512" viewBox="0 0 64 64" width="512" xmlns="http://www.w3.org/2000/svg"><g id="Setting"><path d="m35.13 37.96-.009-.009-1.414 1.413 7.071 7.071a4 4 0 0 0 5.657 0 4 4 0 0 0 0-5.657l-7.071-7.071-1.413 1.413.009.01-.009-.01-2.83 2.831z" class="product-icon-9bc9ff"/><path d="m16.41 43.35 3.08-3.08.005.007a14.923 14.923 0 0 1 -1.814-3.8 6.973 6.973 0 0 0 -1.271 6.873z" style="fill:none"/><path d="m43.35 16.41a6.973 6.973 0 0 0 -6.873 1.271 14.878 14.878 0 0 1 3.792 1.81z" style="fill:none"/><path d="m46.319 27.523a6.973 6.973 0 0 0 1.271-6.873l-3.08 3.08a14.878 14.878 0 0 1 1.809 3.793z" style="fill:none"/><g class="product-icon-9bc9ff"><path d="m17.069 33.365c-.041-.45-.069-.9-.069-1.365 0 .46.028.914.069 1.365z"/><path d="m17 32c0-.466.028-.925.07-1.38-.042.455-.07.914-.07 1.38z"/><path d="m17.255 34.7c-.052-.286-.1-.574-.132-.866.036.287.077.576.132.866z"/><path d="m17.573 36.068c-.078-.277-.153-.555-.215-.838.063.283.142.561.215.838z"/><path d="m23.941 19.363c.241-.155.484-.306.735-.446-.251.14-.494.291-.735.446z"/><path d="m17.116 30.214q.059-.5.15-.982-.091.486-.15.982z"/><path d="m18.317 25.874c.107-.239.221-.474.34-.706q-.178.348-.34.706z"/><path d="m25.167 18.658c.233-.12.468-.234.708-.341-.24.107-.475.221-.708.341z"/><path d="m18.917 24.675c.14-.25.291-.493.446-.734-.155.241-.306.484-.446.734z"/><path d="m17.343 28.828c.09-.416.193-.827.316-1.23-.123.402-.226.814-.316 1.23z"/><path d="m17.729 27.391c.114-.355.243-.7.383-1.047q-.212.515-.383 1.047z"/><path d="m30.17 46.877c-.292-.035-.58-.08-.866-.132.286.055.574.096.866.132z"/><path d="m46.658 35.169c-.079.365-.173.724-.278 1.079.105-.355.199-.714.278-1.079z"/><path d="m38.872 45.323c-.252.131-.508.254-.768.371.26-.117.516-.24.768-.371z"/><path d="m46.9 33.689c-.049.436-.112.868-.2 1.292.087-.424.15-.856.2-1.292z"/><path d="m46.268 36.617c-.123.38-.258.754-.41 1.12.152-.366.287-.737.41-1.12z"/><path d="m46.931 30.635c.041.45.069.9.069 1.365 0-.46-.028-.914-.069-1.365z"/><path d="m47 32c0 .46-.028.913-.069 1.362.041-.449.069-.902.069-1.362z"/><path d="m33.362 46.931c-.449.041-.9.069-1.362.069.46 0 .913-.028 1.362-.069z"/><path d="m32 47c-.461 0-.915-.028-1.365-.069.451.041.905.069 1.365.069z"/><path d="m28.77 46.642c-.283-.062-.561-.137-.838-.215.277.078.555.152.838.215z"/><path d="m26.344 18.112c.344-.14.693-.269 1.049-.384q-.534.172-1.049.384z"/><path d="m37.737 45.859c-.366.151-.74.286-1.12.409.383-.123.754-.258 1.12-.409z"/><path d="m34.981 46.7c-.424.085-.856.148-1.291.2.436-.05.867-.113 1.291-.2z"/><path d="m36.248 46.38c-.355.1-.714.2-1.079.278.365-.079.724-.173 1.079-.278z"/><path d="m45.694 38.1c-.117.26-.24.516-.371.768.131-.248.254-.504.371-.768z"/><path d="m46.745 29.3c.052.286.1.574.132.866-.036-.288-.077-.576-.132-.866z"/><path d="m46.427 27.932c.078.277.153.555.215.838-.063-.283-.137-.561-.215-.838z"/><path d="m33.83 17.123c.292.035.58.08.866.132-.286-.055-.574-.096-.866-.132z"/><path d="m30.62 17.07c.455-.042.914-.07 1.38-.07-.466 0-.925.028-1.38.07z"/><path d="m32 17c.461 0 .915.028 1.365.069-.451-.041-.905-.069-1.365-.069z"/><path d="m44.51 23.73-.005-.007.004.008z"/><path d="m35.23 17.358c.283.062.561.137.838.215-.277-.073-.555-.152-.838-.215z"/><path d="m29.232 17.266q.486-.091.982-.15-.496.059-.982.15z"/><path d="m27.6 17.66c.4-.124.815-.227 1.233-.317-.423.09-.833.193-1.233.317z"/><path d="m23.723 44.505.007.005.001-.001z"/><path d="m19.5 40.277v-.008a15.02 15.02 0 0 0 4.211 4.231 15.03 15.03 0 0 1 -4.211-4.223z"/><path d="m23.723 44.505-.012-.009z"/><path d="m38.1 45.694c-.123.054-.243.113-.367.165.128-.052.248-.111.367-.165z"/><path d="m19.5 40.277a15.065 15.065 0 0 0 4.228 4.228 15.025 15.025 0 0 1 -4.228-4.228z"/><path d="m39.311 45.092c-.144.081-.292.155-.439.231.147-.076.295-.151.439-.231z"/><path d="m35.169 46.658c-.063.013-.125.031-.188.044.064-.013.125-.031.188-.044z"/><path d="m46.931 30.635c-.014-.156-.035-.31-.054-.465.023.155.04.309.054.465z"/><path d="m19.545 23.641c-.065.1-.119.2-.182.3.062-.1.119-.2.184-.3z"/><path d="m36.617 46.268c-.122.04-.246.076-.369.112.124-.036.247-.072.369-.112z"/><path d="m46.38 36.248c-.036.123-.072.247-.112.369.04-.122.076-.245.112-.369z"/><path d="m46.7 34.981c-.013.063-.031.125-.044.188.015-.063.033-.124.044-.188z"/><path d="m46.931 33.362c-.01.109-.02.219-.032.327.012-.108.022-.217.032-.327z"/><path d="m45.323 38.872c-.076.147-.15.3-.231.439.08-.144.155-.292.231-.439z"/><path d="m33.69 46.9c-.109.012-.219.022-.328.032.11-.011.219-.021.328-.032z"/><path d="m45.858 37.737c-.051.124-.11.244-.164.367.054-.123.113-.243.164-.367z"/><path d="m17.659 27.6c.022-.07.047-.138.07-.207-.023.067-.048.135-.07.207z"/><path d="m17.07 30.62c.012-.136.03-.271.046-.406-.016.135-.034.269-.046.406z"/><path d="m34.7 17.255c.179.033.357.064.534.1-.181-.036-.359-.068-.534-.1z"/><path d="m17.123 33.83c-.019-.155-.04-.309-.054-.465.014.156.031.31.054.465z"/><path d="m27.393 17.728c.068-.022.134-.047.2-.068-.066.021-.132.046-.2.068z"/><path d="m30.214 17.116c.135-.016.27-.034.406-.046-.136.012-.271.03-.406.046z"/><path d="m17.266 29.232c.025-.135.048-.271.077-.4-.029.129-.052.268-.077.4z"/><path d="m18.112 26.344c.065-.159.135-.314.205-.47-.07.156-.14.311-.205.47z"/><path d="m18.657 25.168c.085-.165.169-.331.26-.493-.091.162-.175.325-.26.493z"/><path d="m33.365 17.069c.156.014.31.035.465.054-.155-.023-.309-.04-.465-.054z"/><path d="m25.875 18.317c.155-.07.311-.14.469-.205-.158.065-.313.135-.469.205z"/><path d="m17.358 35.23c-.039-.177-.07-.355-.1-.534.029.179.061.357.1.534z"/><path d="m29.3 46.745c-.179-.033-.357-.064-.534-.1.181.036.359.068.534.1z"/><path d="m30.635 46.931c-.156-.014-.31-.035-.465-.054.155.023.309.04.465.054z"/><path d="m23.941 19.363c-.1.063-.2.117-.3.182.1-.063.202-.12.3-.182z"/><path d="m44.505 23.723a15.065 15.065 0 0 0 -4.228-4.223 15.012 15.012 0 0 1 4.228 4.223z"/><path d="m46.642 28.77c.039.177.07.355.1.534-.029-.179-.061-.357-.1-.534z"/><path d="m24.676 18.917c.161-.091.326-.174.491-.259-.167.084-.33.168-.491.259z"/><path d="m28.828 17.343c.133-.029.269-.052.4-.077-.128.025-.267.048-.4.077z"/></g><path d="m47.524 20.476-3.124 3.124a15.011 15.011 0 0 0 -4-4l3.126-3.126a6.964 6.964 0 0 0 -7.061 1.2 15 15 0 0 0 -13.046 2.034l.581.292 2 3 5 5-3 3-5-5-3-2-.291-.583a15 15 0 0 0 -2.034 13.046 6.964 6.964 0 0 0 -1.2 7.061l3.125-3.124a15.011 15.011 0 0 0 4 4l-3.126 3.126a6.964 6.964 0 0 0 7.061-1.2 15.012 15.012 0 0 0 18.79-18.789 6.964 6.964 0 0 0 1.2-7.061z" style="fill:none"/><path d="m61 37v-10h-6.56a22.743 22.743 0 0 0 -3.03-7.34l4.63-4.63-7.07-7.07-4.63 4.63a22.743 22.743 0 0 0 -7.34-3.03v-6.56h-10v6.56a22.743 22.743 0 0 0 -7.34 3.03l-4.63-4.63-7.07 7.07 4.63 4.63a22.855 22.855 0 0 0 -3.04 7.34h-6.55v10h6.54a22.875 22.875 0 0 0 3.05 7.34l-4.63 4.63 7.07 7.07 4.63-4.63a23.2 23.2 0 0 0 7.34 3.03v6.56h10v-6.54a22.875 22.875 0 0 0 7.34-3.05l4.63 4.63 7.07-7.07-4.63-4.63a23.2 23.2 0 0 0 3.03-7.34zm-14-5a15.012 15.012 0 0 1 -19.463 14.325 6.964 6.964 0 0 1 -7.061 1.2l3.124-3.125a15.011 15.011 0 0 1 -4-4l-3.126 3.126a6.964 6.964 0 0 1 1.2-7.061 15 15 0 0 1 2.034-13.046l-2.708-5.419 1-1 5.417 2.709a15 15 0 0 1 13.046-2.034 6.964 6.964 0 0 1 7.061-1.2l-3.124 3.125a15.011 15.011 0 0 1 4 4l3.126-3.126a6.964 6.964 0 0 1 -1.2 7.061 15.022 15.022 0 0 1 .674 4.465z" class="product-icon-9bc9ff"/><path d="m47.81 19.674a1 1 0 0 0 -.927.269l-2.259 2.257a16.083 16.083 0 0 0 -2.824-2.824l2.259-2.259a1 1 0 0 0 -.371-1.649 7.927 7.927 0 0 0 -7.464 1.112 15.829 15.829 0 0 0 -12.632 1.82l-4.875-2.438a1 1 0 0 0 -1.155.188l-1.409 1.41a1 1 0 0 0 -.187 1.154l2.434 4.878a15.831 15.831 0 0 0 -1.82 12.631 7.926 7.926 0 0 0 -1.112 7.463 1 1 0 0 0 1.649.371l2.259-2.257a16.083 16.083 0 0 0 2.824 2.824l-2.259 2.259a1 1 0 0 0 .371 1.649 8.086 8.086 0 0 0 2.719.474 7.89 7.89 0 0 0 4.733-1.589 15.826 15.826 0 0 0 11.439-1.141l.866.866a5 5 0 0 0 7.071-7.071l-.866-.865a15.828 15.828 0 0 0 1.146-11.429 7.929 7.929 0 0 0 1.112-7.463 1 1 0 0 0 -.722-.64zm-4.61 3.956-.4.4-2.353-.473-.473-2.353.4-.4a14.093 14.093 0 0 1 2.826 2.826zm-8.621-5.385a8 8 0 0 0 -1.3 6.817l-1.989 1.984-4.957-4.957-1.2-2.264a14.1 14.1 0 0 1 9.442-1.58zm-16.108-.168 4.683 2.341c.016.009.031.018.048.026l1.438 2.714a1.011 1.011 0 0 0 .176.239l5.064 5.063-1.42 1.416-5.06-5.063a1 1 0 0 0 -.239-.177l-2.72-1.436-2.364-4.73zm1.341 7.047 2.282 1.209 4.956 4.957-1.984 1.984a8 8 0 0 0 -6.813 1.3 13.825 13.825 0 0 1 1.559-9.448zm1 15.246.4-.4 2.353.473.473 2.353-.4.4a14.093 14.093 0 0 1 -2.838-2.826zm1.858 6.622 3.165-3.165a1 1 0 0 0 .274-.9l-.71-3.53a1 1 0 0 0 -.784-.784l-3.53-.71a1 1 0 0 0 -.9.274l-3.165 3.165a5.994 5.994 0 0 1 7.98-5.991 1 1 0 0 0 1.047-.234l9.07-9.07a1 1 0 0 0 .234-1.047 5.995 5.995 0 0 1 5.987-7.993l-3.165 3.166a1 1 0 0 0 -.274.9l.71 3.53a1 1 0 0 0 .784.784l3.53.71a1 1 0 0 0 .9-.274l3.165-3.165a5.994 5.994 0 0 1 -7.988 5.991 1 1 0 0 0 -1.047.234l-9.07 9.07a1 1 0 0 0 -.234 1.047 5.994 5.994 0 0 1 -5.987 7.992zm12.45-10.456-1-1 1.416-1.416 1 1zm-5.692 9.213a8 8 0 0 0 1.3-6.811l1.984-1.984 1 1-.712.703a1 1 0 0 0 0 1.414l4.706 4.706a14.154 14.154 0 0 1 -8.278.972zm16.3-.021a3.073 3.073 0 0 1 -4.243 0l-6.364-6.364 4.243-4.243 6.364 6.364a3 3 0 0 1 0 4.243zm-5.657-12.728a1 1 0 0 0 -1.414 0l-.706.707-1-1 1.984-1.984a8.005 8.005 0 0 0 6.813-1.3 13.755 13.755 0 0 1 -.975 8.278z" class="product-icon-1e81ce"/><path d="m61 26h-5.769a23.691 23.691 0 0 0 -2.556-6.19l4.072-4.073a1 1 0 0 0 0-1.414l-7.07-7.07a1 1 0 0 0 -1.414 0l-4.074 4.073a23.631 23.631 0 0 0 -6.189-2.556v-5.77a1 1 0 0 0 -1-1h-10a1 1 0 0 0 -1 1v5.77a23.631 23.631 0 0 0 -6.189 2.556l-4.074-4.073a1 1 0 0 0 -1.414 0l-7.07 7.07a1 1 0 0 0 0 1.414l4.072 4.073a23.709 23.709 0 0 0 -2.565 6.19h-5.76a1 1 0 0 0 -1 1v10a1 1 0 0 0 1 1h5.752a23.8 23.8 0 0 0 2.572 6.191l-4.071 4.072a1 1 0 0 0 0 1.414l7.07 7.07a1 1 0 0 0 1.414 0l4.075-4.074a24.137 24.137 0 0 0 6.188 2.555v5.772a1 1 0 0 0 1 1h10a1 1 0 0 0 1-1v-5.752a23.775 23.775 0 0 0 6.191-2.572l4.072 4.071a1 1 0 0 0 1.414 0l7.07-7.07a1 1 0 0 0 0-1.414l-4.074-4.075a24.16 24.16 0 0 0 2.556-6.188h5.771a1 1 0 0 0 1-1v-10a1 1 0 0 0 -1-1zm-1 10h-5.56a1 1 0 0 0 -.975.782 22.221 22.221 0 0 1 -2.9 7.025 1 1 0 0 0 .139 1.24l3.923 3.923-5.657 5.656-3.923-3.926a1 1 0 0 0 -1.246-.135 21.83 21.83 0 0 1 -7.019 2.916 1 1 0 0 0 -.782.979v5.54h-8v-5.56a1 1 0 0 0 -.783-.976 22.153 22.153 0 0 1 -7.024-2.9 1 1 0 0 0 -1.24.139l-3.923 3.923-5.656-5.656 3.926-3.923a1 1 0 0 0 .136-1.246 21.787 21.787 0 0 1 -2.917-7.019 1 1 0 0 0 -.979-.782h-5.54v-8h5.55a1 1 0 0 0 .976-.785 21.77 21.77 0 0 1 2.908-7.015 1 1 0 0 0 -.137-1.243l-3.923-3.927 5.656-5.656 3.923 3.926a1 1 0 0 0 1.243.137 21.721 21.721 0 0 1 7.018-2.9 1 1 0 0 0 .786-.977v-5.56h8v5.56a1 1 0 0 0 .786.977 21.721 21.721 0 0 1 7.018 2.9 1 1 0 0 0 1.243-.137l3.923-3.926 5.656 5.656-3.926 3.923a1 1 0 0 0 -.137 1.243 21.736 21.736 0 0 1 2.9 7.018 1 1 0 0 0 .977.786h5.56z" class="product-icon-1e81ce"/></g></svg>