<svg height="512" viewBox="0 0 512 512" width="512" xmlns="http://www.w3.org/2000/svg"><g><g class="product-icon-9bc9ff"><circle cx="72" cy="216" r="16"/><circle cx="128" cy="216" r="16"/><circle cx="184" cy="216" r="16"/><circle cx="72" cy="328" r="16"/><circle cx="128" cy="328" r="16"/><circle cx="184" cy="328" r="16"/><circle cx="72" cy="440" r="16"/><circle cx="128" cy="440" r="16"/><circle cx="184" cy="440" r="16"/><path d="m392 16a88 88 0 1 0 88 88 88 88 0 0 0 -88-88zm37.27 136.54-35.27-16.54-35.27 16.54 4.84-38.65-26.63-28.43 38.25-7.35 18.81-34.11 18.81 34.11 38.25 7.35-26.63 28.43z"/></g><g class="product-icon-1e81ce"><path d="m392 8a95.961 95.961 0 0 0 -83.11 144h-252.89a32.03 32.03 0 0 0 -32 32v64a31.92 31.92 0 0 0 10.87 24 31.92 31.92 0 0 0 -10.87 24v64a31.92 31.92 0 0 0 10.87 24 31.92 31.92 0 0 0 -10.87 24v64a32.03 32.03 0 0 0 32 32h336a32.03 32.03 0 0 0 32-32v-64a31.92 31.92 0 0 0 -10.87-24 31.92 31.92 0 0 0 10.87-24v-64a31.92 31.92 0 0 0 -10.87-24 31.92 31.92 0 0 0 10.87-24v-53.49a96 96 0 0 0 -32-186.51zm16 464a16.021 16.021 0 0 1 -16 16h-336a16.021 16.021 0 0 1 -16-16v-64a16.021 16.021 0 0 1 16-16h336a16.021 16.021 0 0 1 16 16zm0-112a16.021 16.021 0 0 1 -16 16h-336a16.021 16.021 0 0 1 -16-16v-64a16.021 16.021 0 0 1 16-16h336a16.021 16.021 0 0 1 16 16zm0-112a16.021 16.021 0 0 1 -16 16h-336a16.021 16.021 0 0 1 -16-16v-64a16.021 16.021 0 0 1 16-16h264.51a95.909 95.909 0 0 0 87.49 30.66zm-16-64a80 80 0 1 1 80-80 80.093 80.093 0 0 1 -80 80z"/><path d="m72 192a24 24 0 1 0 24 24 24.027 24.027 0 0 0 -24-24zm0 32a8 8 0 1 1 8-8 8.009 8.009 0 0 1 -8 8z"/><path d="m128 192a24 24 0 1 0 24 24 24.027 24.027 0 0 0 -24-24zm0 32a8 8 0 1 1 8-8 8.009 8.009 0 0 1 -8 8z"/><path d="m184 192a24 24 0 1 0 24 24 24.027 24.027 0 0 0 -24-24zm0 32a8 8 0 1 1 8-8 8.009 8.009 0 0 1 -8 8z"/><path d="m288 208a8 8 0 0 0 8 8h96a8 8 0 0 0 0-16h-96a8 8 0 0 0 -8 8z"/><path d="m392 224h-40a8 8 0 0 0 0 16h40a8 8 0 0 0 0-16z"/><path d="m272 200h-8a8 8 0 0 0 0 16h8a8 8 0 0 0 0-16z"/><path d="m48 328a24 24 0 1 0 24-24 24.027 24.027 0 0 0 -24 24zm24-8a8 8 0 1 1 -8 8 8.009 8.009 0 0 1 8-8z"/><path d="m128 352a24 24 0 1 0 -24-24 24.027 24.027 0 0 0 24 24zm0-32a8 8 0 1 1 -8 8 8.009 8.009 0 0 1 8-8z"/><path d="m184 352a24 24 0 1 0 -24-24 24.027 24.027 0 0 0 24 24zm0-32a8 8 0 1 1 -8 8 8.009 8.009 0 0 1 8-8z"/><path d="m296 328h96a8 8 0 0 0 0-16h-96a8 8 0 0 0 0 16z"/><path d="m392 336h-40a8 8 0 0 0 0 16h40a8 8 0 0 0 0-16z"/><path d="m264 328h8a8 8 0 0 0 0-16h-8a8 8 0 0 0 0 16z"/><path d="m48 440a24 24 0 1 0 24-24 24.027 24.027 0 0 0 -24 24zm24-8a8 8 0 1 1 -8 8 8.009 8.009 0 0 1 8-8z"/><path d="m128 464a24 24 0 1 0 -24-24 24.027 24.027 0 0 0 24 24zm0-32a8 8 0 1 1 -8 8 8.009 8.009 0 0 1 8-8z"/><path d="m184 464a24 24 0 1 0 -24-24 24.027 24.027 0 0 0 24 24zm0-32a8 8 0 1 1 -8 8 8.009 8.009 0 0 1 8-8z"/><path d="m296 440h96a8 8 0 0 0 0-16h-96a8 8 0 0 0 0 16z"/><path d="m392 448h-40a8 8 0 0 0 0 16h40a8 8 0 0 0 0-16z"/><path d="m264 440h8a8 8 0 0 0 0-16h-8a8 8 0 0 0 0 16z"/><path d="m458.67 82.99a8 8 0 0 0 -6.1-5.39l-34.57-6.64-16.99-30.82a8 8 0 0 0 -14.02 0l-16.99 30.82-34.57 6.64a8 8 0 0 0 -4.33 13.33l24.06 25.69-4.37 34.93a8 8 0 0 0 11.34 8.23l31.87-14.94 31.87 14.94a8 8 0 0 0 11.34-8.23l-4.37-34.93 24.06-25.69a8.007 8.007 0 0 0 1.77-7.94zm-40.08 25.43a7.983 7.983 0 0 0 -2.09 6.46l3.03 24.26-22.13-10.38a7.985 7.985 0 0 0 -6.8 0l-22.13 10.38 3.03-24.26a7.983 7.983 0 0 0 -2.09-6.46l-16.72-17.84 24.01-4.61a8.009 8.009 0 0 0 5.5-4l11.8-21.4 11.8 21.4a8.009 8.009 0 0 0 5.5 4l24.01 4.61z"/><path d="m472 176a8 8 0 0 0 -8 8v248h-24a8 8 0 0 0 0 16h32a8 8 0 0 0 8-8v-256a8 8 0 0 0 -8-8z"/><path d="m96 144a8 8 0 0 0 8-8v-56h176a8 8 0 0 0 0-16h-184a8 8 0 0 0 -8 8v64a8 8 0 0 0 8 8z"/></g></g></svg>