<?xml version="1.0"?>
<svg xmlns="http://www.w3.org/2000/svg" viewBox="0 0 64 64" width="512" height="512"><g id="Solution"><path d="M24,48H23a2,2,0,0,0-2,2v4a2,2,0,0,0,2,2H41a2,2,0,0,0,2-2V50a2,2,0,0,0-2-2H24Z" class="product-icon-9bc9ff"/><path d="M46,27a3,3,0,0,1-6,0,2.965,2.965,0,0,1,.77-2H32v8.77A2.965,2.965,0,0,0,30,33a3,3,0,0,0,0,6,2.965,2.965,0,0,0,2-.77V48h8v-.918a6.064,6.064,0,0,1,2.949-5.159A20.972,20.972,0,0,0,52.965,25H45.23A2.965,2.965,0,0,1,46,27Z" class="product-icon-9bc9ff"/><path d="M11,24c0,.336.017.668.033,1H18.77A2.965,2.965,0,0,1,18,23a3,3,0,0,1,6,0,2.965,2.965,0,0,1-.77,2H32V16.23A2.965,2.965,0,0,0,34,17a3,3,0,0,0,0-6,2.965,2.965,0,0,0-2,.77V3A21,21,0,0,0,11,24Z" class="product-icon-9bc9ff"/><path d="M43.471,42.776a22.029,22.029,0,0,0,10.5-19.887h0A22.187,22.187,0,0,0,33.24,2.034,22,22,0,0,0,10,24,21.853,21.853,0,0,0,20.548,42.787,5.019,5.019,0,0,1,23,47a3,3,0,0,0-3,3v4a3,3,0,0,0,3,3h2v2a3,3,0,0,0,3,3h8a3,3,0,0,0,3-3V57h2a3,3,0,0,0,3-3V50a3,3,0,0,0-2.995-3A5.043,5.043,0,0,1,43.471,42.776Zm8.5-19.789h0c.016.339.015.675.015,1.012H45.23a1,1,0,0,0-.741,1.671A1.979,1.979,0,0,1,45,27a2,2,0,0,1-4,0,1.979,1.979,0,0,1,.511-1.329A1,1,0,0,0,40.77,24H33V17.873a4,4,0,1,0,0-7.746v-6.1c.044,0,.087,0,.131,0A20.167,20.167,0,0,1,51.975,22.987ZM18.253,9.472A19.81,19.81,0,0,1,31,4.028V11.77a1,1,0,0,0,1.671.741A1.98,1.98,0,0,1,34,12a2,2,0,0,1,0,4,1.98,1.98,0,0,1-1.329-.511A1,1,0,0,0,31,16.23V24H24.873a4,4,0,1,0-7.746,0H12A19.82,19.82,0,0,1,18.253,9.472ZM12.108,26H18.77a1,1,0,0,0,.741-1.671A1.979,1.979,0,0,1,19,23a2,2,0,0,1,4,0,1.979,1.979,0,0,1-.511,1.329A1,1,0,0,0,23.23,26H31v6.127a4,4,0,1,0,0,7.746V47H25a7,7,0,0,0-3.411-5.92A19.844,19.844,0,0,1,12.108,26ZM37,59a1,1,0,0,1-1,1H28a1,1,0,0,1-1-1V57H37Zm5-9v4a1,1,0,0,1-1,1H23a1,1,0,0,1-1-1V50a1,1,0,0,1,1-1H41A1,1,0,0,1,42,50Zm-3-3H33V38.23a1,1,0,0,0-1.671-.741A1.98,1.98,0,0,1,30,38a2,2,0,0,1,0-4,1.98,1.98,0,0,1,1.329.511A1,1,0,0,0,33,33.77V26h6.127a4,4,0,1,0,7.746,0H51.89a20.014,20.014,0,0,1-9.462,15.07A7.03,7.03,0,0,0,39,47Z" class="product-icon-1e81ce"/></g></svg>
