<svg height="512" viewBox="0 0 64 64" width="512" xmlns="http://www.w3.org/2000/svg"><g id="Stratup"><g class="product-icon-9bc9ff"><path d="m57 11h-50a4 4 0 0 0 -4 4v32a4 4 0 0 0 4 4h50a4 4 0 0 0 4-4v-32a4 4 0 0 0 -4-4zm0 34h-50v-30h50z"/><path d="m20 40a.57.57 0 0 0 -.13.01 4.171 4.171 0 0 0 .13-1.01 4 4 0 0 0 -4-4 4.712 4.712 0 0 0 -.1-1 5 5 0 0 0 -8.9-2v13h16.87a3.657 3.657 0 0 0 .13-1 4 4 0 0 0 -4-4z"/><path d="m53 30a5 5 0 0 0 -4.9 4 4.712 4.712 0 0 0 -.1 1 4 4 0 0 0 -4 4 4.171 4.171 0 0 0 .13 1.01.57.57 0 0 0 -.13-.01 4 4 0 0 0 -4 4 3.657 3.657 0 0 0 .13 1h16.87v-13a5.01 5.01 0 0 0 -4-2z"/><path d="m35.714 7.7a5.97 5.97 0 0 1 -7.428 0 17.98 17.98 0 0 0 -2.286 8.756v12.544h12v-12.544a17.98 17.98 0 0 0 -2.286-8.756zm-2.714 18.3h-2l-1-4h4z"/><path d="m32 35a3 3 0 0 0 -3 3c0 1.657 3 5 3 5s3-3.343 3-5a3 3 0 0 0 -3-3z"/><path d="m26 51h12v6h-12z"/><path d="m18 57a2 2 0 0 0 0 4h28a2 2 0 0 0 0-4z"/></g><path d="m29.212 21.385a1 1 0 0 0 -.182.858l1 4a1 1 0 0 0 .97.757h2a1 1 0 0 0 .97-.757l1-4a1 1 0 0 0 -.97-1.243h-4a1 1 0 0 0 -.788.385zm3.507 1.615-.5 2h-.438l-.5-2z" class="product-icon-1e81ce"/><path d="m31 13v4a1 1 0 0 0 2 0v-4a1 1 0 0 0 -2 0z" class="product-icon-1e81ce"/><path d="m36 38a4 4 0 0 0 -8 0c0 1.941 2.712 5.062 3.256 5.668a1 1 0 0 0 1.488 0c.544-.606 3.256-3.727 3.256-5.668zm-6 0a2 2 0 0 1 4 0c0 .637-.939 2.125-2 3.451-1.063-1.332-2-2.831-2-3.451z" class="product-icon-1e81ce"/><path d="m33 47h-2a1 1 0 0 0 0 2h2a1 1 0 0 0 0-2z" class="product-icon-1e81ce"/><path d="m57 10h-19.144a18.911 18.911 0 0 0 -4.42-6.979l-.729-.728a1 1 0 0 0 -1.414 0l-.728.728a18.9 18.9 0 0 0 -4.421 6.979h-19.144a5.006 5.006 0 0 0 -5 5v32a5.006 5.006 0 0 0 5 5h18v4h-7a3 3 0 0 0 0 6h28a3 3 0 0 0 0-6h-7v-4h18a5.006 5.006 0 0 0 5-5v-32a5.006 5.006 0 0 0 -5-5zm-19 20a1 1 0 0 0 1-1v-1h5a1 1 0 0 0 1-1 7.006 7.006 0 0 0 -6-6.92v-3.624c0-.153-.019-.3-.022-.456h17.022v13.82a5.976 5.976 0 0 0 -8.878 3.968c-.021.1-.032.2-.048.306a5 5 0 0 0 -4.074 4.906c0 .033.006.067.007.1a5.009 5.009 0 0 0 -4.007 4.9h-14a5.009 5.009 0 0 0 -4.007-4.9c0-.033.007-.067.007-.1a5 5 0 0 0 -4.074-4.906c-.016-.1-.027-.208-.048-.306a5.976 5.976 0 0 0 -8.878-3.968v-13.82h17.022c0 .153-.022.3-.022.456v3.624a7 7 0 0 0 -6 6.92 1 1 0 0 0 1 1h5v1a1 1 0 0 0 1 1h2.279l.772 2.316a1 1 0 0 0 .949.684h4a1 1 0 0 0 .948-.684l.772-2.316zm1-4v-3.9a5.013 5.013 0 0 1 3.9 3.9zm8.308 14.25a4.979 4.979 0 0 0 -2.293-1.136c0-.037-.015-.078-.015-.114a3 3 0 0 1 5.013-2.225 1 1 0 1 0 1.343-1.482 4.977 4.977 0 0 0 -2.256-1.158 3.972 3.972 0 0 1 6.9-1.745v11.61h-15a3.006 3.006 0 0 1 2.992-3 .979.979 0 0 0 .11.009 2.984 2.984 0 0 1 1.883.741 1 1 0 0 0 1.323-1.5zm-34.734-3.544a1 1 0 0 0 1.413.069 3 3 0 0 1 5.013 2.225c0 .036-.013.077-.015.114a4.979 4.979 0 0 0 -2.293 1.136 1 1 0 0 0 1.323 1.5 2.984 2.984 0 0 1 1.883-.741.979.979 0 0 0 .11-.009 3.006 3.006 0 0 1 2.992 3h-15v-11.61a3.972 3.972 0 0 1 6.9 1.745 4.977 4.977 0 0 0 -2.257 1.158 1 1 0 0 0 -.069 1.413zm12.426-10.706h-3.9a5.013 5.013 0 0 1 3.9-3.9zm5.387 4h3.225l-.333 1h-2.558zm1.592-25.565.021-.021.021.021a17.172 17.172 0 0 1 2.351 2.959 5.107 5.107 0 0 1 -4.744 0 17.076 17.076 0 0 1 2.351-2.959zm-4.979 12.021a17.026 17.026 0 0 1 .768-5.061l.006-.018a16.731 16.731 0 0 1 .888-2.226 6.99 6.99 0 0 0 6.676 0 16.668 16.668 0 0 1 .889 2.229l.005.012a17.072 17.072 0 0 1 .768 5.064v11.544h-10zm19 41.544a1 1 0 0 1 0 2h-28a1 1 0 0 1 0-2zm-19-2v-4h10v4zm33-9a3 3 0 0 1 -3 3h-50a3 3 0 0 1 -3-3v-32a3 3 0 0 1 3-3h18.545a18.831 18.831 0 0 0 -.369 2h-18.176a1 1 0 0 0 -1 1v30a1 1 0 0 0 1 1h50a1 1 0 0 0 1-1v-30a1 1 0 0 0 -1-1h-18.176a18.831 18.831 0 0 0 -.369-2h18.545a3 3 0 0 1 3 3z" class="product-icon-1e81ce"/></g></svg>