<svg height="512" viewBox="0 0 512 512" width="512" xmlns="http://www.w3.org/2000/svg"><g><g class="product-icon-9bc9ff"><g><circle cx="168" cy="136" r="16"/><circle cx="168" cy="136" r="16"/><circle cx="168" cy="56" r="16"/><circle cx="168" cy="56" r="16"/><circle cx="168" cy="216" r="16"/><circle cx="168" cy="216" r="16"/><path d="m208 336h-160a16 16 0 0 0 -16 16v112h192v-112a16 16 0 0 0 -16-16zm-8 104h-144v-80h144z"/><path d="m464 336h-160a16 16 0 0 0 -16 16v112h192v-112a16 16 0 0 0 -16-16zm-8 104h-144v-80h144z"/></g><path d="m128 42.51v101.49h-43a37 37 0 1 1 21.08-67.4 55.532 55.532 0 0 1 21.92-34.09z"/><path d="m336.5 120a55.441 55.441 0 0 1 45.27 23.38 46.507 46.507 0 1 1 19.73 88.62h-65.5z"/></g><g class="product-icon-1e81ce"><path d="m168 112a24 24 0 1 0 24 24 24.028 24.028 0 0 0 -24-24zm0 32a8 8 0 1 1 8-8 8.009 8.009 0 0 1 -8 8z"/><path d="m320 120a8 8 0 0 0 -8-8h-64a8 8 0 0 0 0 16h64a8 8 0 0 0 8-8z"/><path d="m312 136h-16a8 8 0 0 0 0 16h16a8 8 0 0 0 0-16z"/><path d="m224 112h-8a8 8 0 0 0 0 16h8a8 8 0 0 0 0-16z"/><path d="m168 80a24 24 0 1 0 -24-24 24.028 24.028 0 0 0 24 24zm0-32a8 8 0 1 1 -8 8 8.009 8.009 0 0 1 8-8z"/><path d="m248 48h64a8 8 0 0 0 0-16h-64a8 8 0 0 0 0 16z"/><path d="m312 56h-16a8 8 0 0 0 0 16h16a8 8 0 0 0 0-16z"/><path d="m216 48h8a8 8 0 0 0 0-16h-8a8 8 0 0 0 0 16z"/><path d="m168 192a24 24 0 1 0 24 24 24.028 24.028 0 0 0 -24-24zm0 32a8 8 0 1 1 8-8 8.009 8.009 0 0 1 -8 8z"/><path d="m248 208h64a8 8 0 0 0 0-16h-64a8 8 0 0 0 0 16z"/><path d="m312 216h-16a8 8 0 0 0 0 16h16a8 8 0 0 0 0-16z"/><path d="m224 192h-8a8 8 0 0 0 0 16h8a8 8 0 0 0 0-16z"/><path d="m48 360v80a8 8 0 0 0 8 8h144a8 8 0 0 0 8-8v-80a8 8 0 0 0 -8-8h-144a8 8 0 0 0 -8 8zm16 8h128v64h-128z"/><path d="m496 456h-8v-104a24.032 24.032 0 0 0 -24-24h-40v-32a8 8 0 0 0 -8-8h-176v-24h80a24.032 24.032 0 0 0 24-24h57.5a54.5 54.5 0 0 0 0-109 54.119 54.119 0 0 0 -17.15 2.75 63.689 63.689 0 0 0 -40.35-21.29v-.46a23.9 23.9 0 0 0 -6.13-16 23.9 23.9 0 0 0 6.13-16v-48a24.032 24.032 0 0 0 -24-24h-176a24.032 24.032 0 0 0 -24 24v6.6a63.22 63.22 0 0 0 -18.88 26.37 45.009 45.009 0 1 0 -16.12 87.03h35v8a23.9 23.9 0 0 0 6.13 16 23.9 23.9 0 0 0 -6.13 16v48a24.032 24.032 0 0 0 24 24h80v24h-128a8 8 0 0 0 -8 8v32h-40a24.032 24.032 0 0 0 -24 24v104h-8a8 8 0 0 0 -8 8v16a24.032 24.032 0 0 0 24 24h192a24.032 24.032 0 0 0 24-24v-16a8 8 0 0 0 -8-8h-8v-104a24.032 24.032 0 0 0 -24-24h-104v-24h304v24h-104a24.032 24.032 0 0 0 -24 24v104h-8a8 8 0 0 0 -8 8v16a24.032 24.032 0 0 0 24 24h192a24.032 24.032 0 0 0 24-24v-16a8 8 0 0 0 -8-8zm-152-296v-31.38a47.611 47.611 0 0 1 31.25 19.4 8 8 0 0 0 9.92 2.6 38.549 38.549 0 0 1 54.46 40.27 38.634 38.634 0 0 1 -38.13 33.11h-57.5v-32a23.9 23.9 0 0 0 -6.13-16 23.9 23.9 0 0 0 6.13-16zm-224-48v24h-35a29 29 0 1 1 16.5-52.84 8 8 0 0 0 12.43-5 47.029 47.029 0 0 1 6.07-15.48v17.32a23.9 23.9 0 0 0 6.13 16 23.9 23.9 0 0 0 -6.13 16zm112 360v8a8.011 8.011 0 0 1 -8 8h-192a8.011 8.011 0 0 1 -8-8v-8zm-24-128a8.011 8.011 0 0 1 8 8v104h-176v-104a8.011 8.011 0 0 1 8-8zm-72-312a8.011 8.011 0 0 1 8-8h176a8.011 8.011 0 0 1 8 8v48a8.011 8.011 0 0 1 -8 8h-176a8.011 8.011 0 0 1 -8-8zm0 80a8.011 8.011 0 0 1 8-8h176a8.011 8.011 0 0 1 8 8v48a8.011 8.011 0 0 1 -8 8h-176a8.011 8.011 0 0 1 -8-8zm8 136a8.011 8.011 0 0 1 -8-8v-48a8.011 8.011 0 0 1 8-8h176a8.011 8.011 0 0 1 8 8v48a8.011 8.011 0 0 1 -8 8zm152 104a8.011 8.011 0 0 1 8-8h160a8.011 8.011 0 0 1 8 8v104h-176zm192 128a8.011 8.011 0 0 1 -8 8h-192a8.011 8.011 0 0 1 -8-8v-8h208z"/><path d="m456 352h-144a8 8 0 0 0 -8 8v80a8 8 0 0 0 8 8h144a8 8 0 0 0 8-8v-80a8 8 0 0 0 -8-8zm-8 80h-128v-64h128z"/></g></g></svg>