<svg height="512" viewBox="0 0 64 64" width="512" xmlns="http://www.w3.org/2000/svg"><g id="System_preferance" data-name="System preferance"><path d="m7 53h22a4 4 0 0 0 3.93-3.27l-3.95-3.95 3.16-3.16a9.244 9.244 0 0 1 -.68-1.62h-4.46v-6h4.46a9.244 9.244 0 0 1 .68-1.62l-3.16-3.16 4.02-4.02v-19.2a4 4 0 0 0 -4-4h-22a4 4 0 0 0 -4 4v42a4 4 0 0 0 4 4zm11-6a2 2 0 1 1 2-2 2 2 0 0 1 -2 2zm0-8a2 2 0 1 1 2-2 2 2 0 0 1 -2 2zm-11-20v-10a2 2 0 0 1 2-2h18a2 2 0 0 1 2 2v12a2 2 0 0 1 -2 2h-18a2 2 0 0 1 -2-2z" class="product-icon-9bc9ff"/><path d="m26 56a2 2 0 0 1 -2 2h-12a2 2 0 0 1 -2-2v-3h-3v4a4 4 0 0 0 4 4h14a4 4 0 0 0 4-4v-4h-3z" class="product-icon-9bc9ff"/><path d="m57.41 9.42 2.37-2.37-2.83-2.83-2.37 2.37a3.228 3.228 0 0 0 -.58-.24v-3.35h-4v3.35a3.228 3.228 0 0 0 -.58.24l-2.37-2.37-2.83 2.83 2.37 2.37a3.228 3.228 0 0 0 -.24.58h-3.35v4h3.35a3.228 3.228 0 0 0 .24.58l-2.37 2.37 2.83 2.83 2.37-2.37a3.228 3.228 0 0 0 .58.24v3.35h4v-3.35a3.228 3.228 0 0 0 .58-.24l2.37 2.37 2.83-2.83-2.37-2.37a3.228 3.228 0 0 0 .24-.58h3.35v-4h-3.35a3.228 3.228 0 0 0 -.24-.58zm-5.41 5.58a3 3 0 1 1 3-3 3 3 0 0 1 -3 3z" class="product-icon-9bc9ff"/><path d="m32.14 33.38a9.244 9.244 0 0 0 -.68 1.62h-4.46v6h4.46a9.244 9.244 0 0 0 .68 1.62l-3.16 3.16 3.95 3.95.29.29 3.16-3.16a9.244 9.244 0 0 0 1.62.68v4.46h6v-4.46a9.244 9.244 0 0 0 1.62-.68l3.16 3.16 4.24-4.24-3.16-3.16a9.244 9.244 0 0 0 .68-1.62h4.46v-6h-4.46a9.244 9.244 0 0 0 -.68-1.62l3.16-3.16-4.24-4.24-3.16 3.16a9.244 9.244 0 0 0 -1.62-.68v-4.46h-6v4.46a9.244 9.244 0 0 0 -1.62.68l-3.16-3.16-.22.22-4.02 4.02zm8.86-.38a5 5 0 1 1 -5 5 5 5 0 0 1 5-5z" class="product-icon-9bc9ff"/><g class="product-icon-1e81ce"><path d="m30 21v-12a3 3 0 0 0 -3-3h-18a3 3 0 0 0 -3 3v12a3 3 0 0 0 3 3h18a3 3 0 0 0 3-3zm-2-5v2h-20v-2zm-20-2v-2h20v2zm1-6h18a1 1 0 0 1 1 1v1h-20v-1a1 1 0 0 1 1-1zm-1 13v-1h20v1a1 1 0 0 1 -1 1h-18a1 1 0 0 1 -1-1z"/><path d="m11 26h2v4h-2z"/><path d="m15 26h2v4h-2z"/><path d="m19 26h2v4h-2z"/><path d="m23 26h2v4h-2z"/><path d="m18 34a3 3 0 1 0 3 3 3 3 0 0 0 -3-3zm0 4a1 1 0 1 1 1-1 1 1 0 0 1 -1 1z"/><path d="m18 42a3 3 0 1 0 3 3 3 3 0 0 0 -3-3zm0 4a1 1 0 1 1 1-1 1 1 0 0 1 -1 1z"/><path d="m61 9h-1.756l1.243-1.243a1 1 0 0 0 0-1.414l-2.83-2.83a1 1 0 0 0 -1.414 0l-1.243 1.243v-1.756a1 1 0 0 0 -1-1h-4a1 1 0 0 0 -1 1v1.756l-1.243-1.243a1 1 0 0 0 -1.414 0l-2.83 2.83a1 1 0 0 0 0 1.414l1.243 1.243h-1.756a1 1 0 0 0 -1 1v4a1 1 0 0 0 1 1h1.756l-1.243 1.243a1 1 0 0 0 0 1.414l2.83 2.83a1 1 0 0 0 1.414 0l1.243-1.243v1.756a1 1 0 0 0 1 1h4a1 1 0 0 0 1-1v-1.756l1.243 1.243a1 1 0 0 0 1.414 0l2.83-2.83a1 1 0 0 0 0-1.414l-1.243-1.243h1.756a1 1 0 0 0 1-1v-4a1 1 0 0 0 -1-1zm-1 4h-2.35a1 1 0 0 0 -.958.713 2.262 2.262 0 0 1 -.168.4 1 1 0 0 0 .179 1.171l1.663 1.663-1.416 1.419-1.663-1.666a1 1 0 0 0 -1.171-.179 2.262 2.262 0 0 1 -.4.168 1 1 0 0 0 -.716.961v2.35h-2v-2.35a1 1 0 0 0 -.713-.958 2.262 2.262 0 0 1 -.4-.168 1 1 0 0 0 -1.171.179l-1.666 1.663-1.416-1.416 1.666-1.663a1 1 0 0 0 .178-1.173 2.239 2.239 0 0 1 -.167-.4 1 1 0 0 0 -.961-.714h-2.35v-2h2.35a1 1 0 0 0 .958-.713 2.239 2.239 0 0 1 .167-.4 1 1 0 0 0 -.175-1.174l-1.666-1.663 1.416-1.416 1.663 1.666a1 1 0 0 0 1.171.179 2.262 2.262 0 0 1 .4-.168 1 1 0 0 0 .716-.961v-2.35h2v2.35a1 1 0 0 0 .713.958 2.262 2.262 0 0 1 .4.168 1 1 0 0 0 1.174-.176l1.663-1.666 1.416 1.416-1.666 1.663a1 1 0 0 0 -.179 1.171 2.262 2.262 0 0 1 .168.4 1 1 0 0 0 .961.716h2.35z"/><path d="m55 34h-3.753c-.057-.144-.114-.283-.174-.419l2.654-2.654a1 1 0 0 0 0-1.414l-4.24-4.24a1.029 1.029 0 0 0 -1.414 0l-2.654 2.654c-.136-.06-.275-.117-.419-.174v-3.753a1 1 0 0 0 -1-1h-6a1 1 0 0 0 -1 1v3.753c-.144.057-.283.114-.419.174l-2.581-2.581v-18.346a5.006 5.006 0 0 0 -5-5h-22a5.006 5.006 0 0 0 -5 5v42a5.009 5.009 0 0 0 4 4.9v3.1a5.006 5.006 0 0 0 5 5h14a5.006 5.006 0 0 0 5-5v-3.109a4.981 4.981 0 0 0 3.591-2.945 1 1 0 0 0 .336-.219l2.654-2.654c.136.06.275.117.419.174v3.753a1 1 0 0 0 1 1h6a1 1 0 0 0 1-1v-3.753c.144-.057.283-.114.419-.174l2.654 2.654a1 1 0 0 0 1.414 0l4.24-4.24a1 1 0 0 0 0-1.414l-2.654-2.654c.06-.136.117-.275.174-.419h3.753a1 1 0 0 0 1-1v-6a1 1 0 0 0 -1-1zm-27 23a3 3 0 0 1 -3 3h-14a3 3 0 0 1 -3-3v-3h1v2a3 3 0 0 0 3 3h12a3 3 0 0 0 3-3v-2h1zm-17-3h14v2a1 1 0 0 1 -1 1h-12a1 1 0 0 1 -1-1zm18-2h-22a3 3 0 0 1 -3-3v-42a3 3 0 0 1 3-3h22a3 3 0 0 1 3 3v18.786l-3.727 3.727a1 1 0 0 0 0 1.414l2.654 2.654c-.06.136-.117.275-.174.419h-3.753a1 1 0 0 0 -1 1v6a1 1 0 0 0 1 1h3.753c.057.144.114.283.174.419l-2.654 2.654a1 1 0 0 0 0 1.414l3.541 3.541a2.99 2.99 0 0 1 -2.814 1.972zm25-12h-3.46a1 1 0 0 0 -.952.694 8.259 8.259 0 0 1 -.605 1.445 1 1 0 0 0 .17 1.188l2.453 2.453-2.826 2.826-2.453-2.453a1 1 0 0 0 -1.188-.17 8.259 8.259 0 0 1 -1.445.605 1 1 0 0 0 -.694.952v3.46h-4v-3.46a1 1 0 0 0 -.694-.952 8.259 8.259 0 0 1 -1.445-.605 1 1 0 0 0 -1.188.17l-2.453 2.453-2.826-2.826 2.453-2.453a1 1 0 0 0 .17-1.188 8.259 8.259 0 0 1 -.605-1.445 1 1 0 0 0 -.952-.694h-3.46v-4h3.46a1 1 0 0 0 .952-.694 8.259 8.259 0 0 1 .605-1.445 1 1 0 0 0 -.17-1.188l-2.453-2.453 2.826-2.826 2.453 2.453a1 1 0 0 0 1.188.17 8.259 8.259 0 0 1 1.445-.605 1 1 0 0 0 .694-.952v-3.46h4v3.46a1 1 0 0 0 .694.952 8.259 8.259 0 0 1 1.445.605 1 1 0 0 0 1.188-.17l2.453-2.453 2.826 2.826-2.453 2.453a1 1 0 0 0 -.17 1.188 8.259 8.259 0 0 1 .605 1.445 1 1 0 0 0 .952.694h3.46z"/><path d="m52 8a4 4 0 1 0 4 4 4 4 0 0 0 -4-4zm0 6a2 2 0 1 1 2-2 2 2 0 0 1 -2 2z"/><path d="m41 32a6 6 0 1 0 6 6 6.006 6.006 0 0 0 -6-6zm0 10a4 4 0 1 1 4-4 4 4 0 0 1 -4 4z"/></g></g></svg>