<svg id="Capa_1" enable-background="new 0 0 512 512" height="512" viewBox="0 0 512 512" width="512" xmlns="http://www.w3.org/2000/svg"><g><g class="product-icon-9bc9ff"><path d="m496 40v24h-480v-24c.003-13.253 10.747-23.997 24-24h432c13.253.003 23.997 10.747 24 24z"/><circle cx="39" cy="40" r="8"/><circle cx="64" cy="40" r="8"/><circle cx="88" cy="40" r="8"/><circle cx="176" cy="200" r="16"/><path d="m176 264c-8.837 0-16 7.163-16 16s7.163 16 16 16 16-7.163 16-16-7.163-16-16-16zm80-168c-101.62 0-184 82.38-184 184s82.38 184 184 184 184-82.38 184-184-82.38-184-184-184zm120 128c0 8.837-7.163 16-16 16 8.837 0 16 7.163 16 16v48c0 8.837-7.163 16-16 16 8.837 0 16 7.163 16 16v48c0 8.837-7.163 16-16 16h-208c-8.837 0-16-7.163-16-16v-48c0-8.837 7.163-16 16-16-8.837 0-16-7.163-16-16v-48c0-8.837 7.163-16 16-16-8.837 0-16-7.163-16-16v-48c0-8.837 7.163-16 16-16h208c8.837 0 16 7.163 16 16zm-200 40c-8.837 0-16 7.163-16 16s7.163 16 16 16 16-7.163 16-16m-16 64c-8.837 0-16 7.163-16 16s7.163 16 16 16 16-7.163 16-16-7.163-16-16-16z"/><circle cx="176" cy="200" r="16"/><circle cx="176" cy="200" r="16"/><circle cx="176" cy="360" r="16"/><circle cx="176" cy="360" r="16"/></g><g class="product-icon-1e81ce"><path d="m472 8h-432c-17.665.02-31.98 14.335-32 32v432c.02 17.665 14.335 31.98 32 32h432c17.665-.02 31.98-14.335 32-32v-432c-.02-17.665-14.335-31.98-32-32zm16 464c-.012 8.832-7.168 15.988-16 16h-432c-8.832-.012-15.988-7.168-16-16v-400h464zm0-416h-464v-16c.012-8.832 7.168-15.988 16-16h432c8.832.012 15.988 7.168 16 16z"/><circle cx="39" cy="40" r="8"/><circle cx="64" cy="40" r="8"/><circle cx="88" cy="40" r="8"/><path d="m176 304c13.255 0 24-10.745 24-24s-10.745-24-24-24-24 10.745-24 24c.015 13.249 10.751 23.985 24 24zm0-32c4.418 0 8 3.582 8 8s-3.582 8-8 8-8-3.582-8-8c.005-4.416 3.584-7.995 8-8z"/><path d="m288 272h64c4.418 0 8-3.582 8-8s-3.582-8-8-8h-64c-4.418 0-8 3.582-8 8s3.582 8 8 8z"/><path d="m352 280h-16c-4.418 0-8 3.582-8 8s3.582 8 8 8h16c4.418 0 8-3.582 8-8s-3.582-8-8-8z"/><path d="m256 272h8c4.418 0 8-3.582 8-8s-3.582-8-8-8h-8c-4.418 0-8 3.582-8 8s3.582 8 8 8z"/><path d="m176 224c13.255 0 24-10.745 24-24s-10.745-24-24-24-24 10.745-24 24c.015 13.249 10.751 23.985 24 24zm0-32c4.418 0 8 3.582 8 8s-3.582 8-8 8-8-3.582-8-8c.005-4.416 3.584-7.995 8-8z"/><path d="m288 192h64c4.418 0 8-3.582 8-8s-3.582-8-8-8h-64c-4.418 0-8 3.582-8 8s3.582 8 8 8z"/><path d="m352 200h-16c-4.418 0-8 3.582-8 8s3.582 8 8 8h16c4.418 0 8-3.582 8-8s-3.582-8-8-8z"/><path d="m256 192h8c4.418 0 8-3.582 8-8s-3.582-8-8-8h-8c-4.418 0-8 3.582-8 8s3.582 8 8 8z"/><path d="m176 336c-13.255 0-24 10.745-24 24s10.745 24 24 24 24-10.745 24-24c-.015-13.249-10.751-23.985-24-24zm0 32c-4.418 0-8-3.582-8-8s3.582-8 8-8 8 3.582 8 8c-.005 4.416-3.584 7.995-8 8z"/><path d="m352 336h-64c-4.418 0-8 3.582-8 8s3.582 8 8 8h64c4.418 0 8-3.582 8-8s-3.582-8-8-8z"/><path d="m352 360h-16c-4.418 0-8 3.582-8 8s3.582 8 8 8h16c4.418 0 8-3.582 8-8s-3.582-8-8-8z"/><path d="m264 336h-8c-4.418 0-8 3.582-8 8s3.582 8 8 8h8c4.418 0 8-3.582 8-8s-3.582-8-8-8z"/><path d="m256 88c-105.87 0-192 86.13-192 192s86.13 192 192 192 192-86.13 192-192-86.13-192-192-192zm0 368c-97.05 0-176-78.95-176-176s78.95-176 176-176 176 78.95 176 176-78.95 176-176 176z"/><path d="m384 176c-.018-13.248-10.752-23.982-24-24h-208c-13.248.018-23.982 10.752-24 24v48c-.004 5.908 2.179 11.608 6.13 16-3.951 4.392-6.134 10.092-6.13 16v48c-.004 5.908 2.179 11.608 6.13 16-3.951 4.392-6.134 10.092-6.13 16v48c.018 13.248 10.752 23.982 24 24h208c13.248-.018 23.982-10.752 24-24v-48c.004-5.908-2.179-11.608-6.13-16 3.951-4.392 6.134-10.092 6.13-16v-48c.004-5.908-2.179-11.608-6.13-16 3.951-4.392 6.134-10.092 6.13-16zm-16 208c-.006 4.416-3.584 7.994-8 8h-208c-4.416-.006-7.994-3.584-8-8v-48c.006-4.416 3.584-7.994 8-8h208c4.416.006 7.994 3.584 8 8zm0-80c-.006 4.416-3.584 7.994-8 8h-208c-4.416-.006-7.994-3.584-8-8v-48c.006-4.416 3.584-7.994 8-8h208c4.416.006 7.994 3.584 8 8zm0-80c-.006 4.416-3.584 7.994-8 8h-208c-4.416-.006-7.994-3.584-8-8v-48c.006-4.416 3.584-7.994 8-8h208c4.416.006 7.994 3.584 8 8z"/></g></g></svg>