<svg height="512" viewBox="0 0 512 512" width="512" xmlns="http://www.w3.org/2000/svg"><g><g class="product-icon-9bc9ff"><path d="m480 304.01v63.99a24.006 24.006 0 0 1 -24 24h-80a24.006 24.006 0 0 1 -24-24v-63.99z"/><path d="m480 144v63.99a80.015 80.015 0 0 0 -128 0v-63.99a24.006 24.006 0 0 1 24-24h80a24.006 24.006 0 0 1 24 24z"/><circle cx="56" cy="200" r="16"/><circle cx="56" cy="88" r="16"/><circle cx="56" cy="312" r="16"/><circle cx="56" cy="424" r="16"/><path d="m352 304.01h16v16a80.321 80.321 0 0 1 -16-16z"/><path d="m480 304.01a80.321 80.321 0 0 1 -16 16v-16z"/><path d="m464 304v16.01a80.04 80.04 0 0 1 -96 0v-16.01a48 48 0 0 1 96 0z"/></g><g class="product-icon-1e81ce"><path d="m56 176a24 24 0 1 0 24 24 24.027 24.027 0 0 0 -24-24zm0 32a8 8 0 1 1 8-8 8.009 8.009 0 0 1 -8 8z"/><path d="m232 176h-64a8 8 0 0 0 0 16h64a8 8 0 0 0 0-16z"/><path d="m232 200h-16a8 8 0 0 0 0 16h16a8 8 0 0 0 0-16z"/><path d="m144 176h-8a8 8 0 0 0 0 16h8a8 8 0 0 0 0-16z"/><path d="m56 64a24 24 0 1 0 24 24 24.027 24.027 0 0 0 -24-24zm0 32a8 8 0 1 1 8-8 8.009 8.009 0 0 1 -8 8z"/><path d="m232 64h-64a8 8 0 0 0 0 16h64a8 8 0 0 0 0-16z"/><path d="m232 88h-16a8 8 0 0 0 0 16h16a8 8 0 0 0 0-16z"/><path d="m144 64h-8a8 8 0 0 0 0 16h8a8 8 0 0 0 0-16z"/><path d="m56 288a24 24 0 1 0 24 24 24.027 24.027 0 0 0 -24-24zm0 32a8 8 0 1 1 8-8 8.009 8.009 0 0 1 -8 8z"/><path d="m232 288h-64a8 8 0 0 0 0 16h64a8 8 0 0 0 0-16z"/><path d="m232 312h-16a8 8 0 0 0 0 16h16a8 8 0 0 0 0-16z"/><path d="m144 288h-8a8 8 0 0 0 0 16h8a8 8 0 0 0 0-16z"/><path d="m56 400a24 24 0 1 0 24 24 24.027 24.027 0 0 0 -24-24zm0 32a8 8 0 1 1 8-8 8.009 8.009 0 0 1 -8 8z"/><path d="m232 400h-64a8 8 0 0 0 0 16h64a8 8 0 0 0 0-16z"/><path d="m232 424h-16a8 8 0 0 0 0 16h16a8 8 0 0 0 0-16z"/><path d="m144 400h-8a8 8 0 0 0 0 16h8a8 8 0 0 0 0-16z"/><path d="m488 205.46v-61.46a32.03 32.03 0 0 0 -32-32h-80a32.03 32.03 0 0 0 -32 32v61.46a87.444 87.444 0 0 0 -15.63 42.54h-24.37v-160a8 8 0 0 0 -8-8h-32v-16a24.032 24.032 0 0 0 -24-24h-208a24.032 24.032 0 0 0 -24 24v48a24.032 24.032 0 0 0 24 24h208a24.032 24.032 0 0 0 24-24v-16h24v96h-24v-16a24.032 24.032 0 0 0 -24-24h-208a24.032 24.032 0 0 0 -24 24v48a24.032 24.032 0 0 0 24 24h208a24.032 24.032 0 0 0 24-24v-16h24v96h-24v-16a24.032 24.032 0 0 0 -24-24h-208a24.032 24.032 0 0 0 -24 24v48a24.032 24.032 0 0 0 24 24h208a24.032 24.032 0 0 0 24-24v-16h24v96h-24v-16a24.032 24.032 0 0 0 -24-24h-208a24.032 24.032 0 0 0 -24 24v48a24.032 24.032 0 0 0 24 24h208a24.032 24.032 0 0 0 24-24v-16h32a8 8 0 0 0 8-8v-160h24.37a87.444 87.444 0 0 0 15.63 42.54v61.46a32.036 32.036 0 0 0 32 32h80a32.036 32.036 0 0 0 32-32v-61.46a87.822 87.822 0 0 0 0-101.08zm-240-93.46a8.011 8.011 0 0 1 -8 8h-208a8.011 8.011 0 0 1 -8-8v-48a8.011 8.011 0 0 1 8-8h208a8.011 8.011 0 0 1 8 8zm0 112a8.011 8.011 0 0 1 -8 8h-208a8.011 8.011 0 0 1 -8-8v-48a8.011 8.011 0 0 1 8-8h208a8.011 8.011 0 0 1 8 8zm0 112a8.011 8.011 0 0 1 -8 8h-208a8.011 8.011 0 0 1 -8-8v-48a8.011 8.011 0 0 1 8-8h208a8.011 8.011 0 0 1 8 8zm0 112a8.011 8.011 0 0 1 -8 8h-208a8.011 8.011 0 0 1 -8-8v-48a8.011 8.011 0 0 1 8-8h208a8.011 8.011 0 0 1 8 8zm112-304a16.021 16.021 0 0 1 16-16h80a16.021 16.021 0 0 1 16 16v44.17a87.824 87.824 0 0 0 -112 0zm112 224a16.021 16.021 0 0 1 -16 16h-80a16.021 16.021 0 0 1 -16-16v-44.17c.84.7 1.7 1.37 2.57 2.04a7.771 7.771 0 0 0 1.3.98 87.8 87.8 0 0 0 104.26 0 7.771 7.771 0 0 0 1.3-.98c.87-.67 1.73-1.34 2.57-2.04zm-56-104a40 40 0 0 1 40 40v11.83a71.82 71.82 0 0 1 -80 0v-11.83a40.04 40.04 0 0 1 40-40zm-16-32a16 16 0 1 1 16 16 16.021 16.021 0 0 1 -16-16zm71.93 69.27a56.176 56.176 0 0 0 -32.08-47.97 32 32 0 1 0 -47.67.03 56.1 56.1 0 0 0 -32.11 47.94 72 72 0 1 1 111.86 0z"/></g></g></svg>