<svg height="512" viewBox="0 0 512 512" width="512" xmlns="http://www.w3.org/2000/svg"><g><g class="product-icon-9bc9ff"><path d="m304 80c39.01 30.04 64 76.22 64 128s-24.99 97.96-64 128a128 128 0 0 0 0-256zm-64 128c0-51.78 24.99-97.96 64-128a128 128 0 0 0 -128 128h8a24.006 24.006 0 0 1 24 24v50.36l8 18.59a127.6 127.6 0 0 0 88 35.05c-39.01-30.04-64-76.22-64-128zm-103.1 32h6.1l9-32h-40z"/><path d="m304 336a127.6 127.6 0 0 1 -88-35.05l-8-18.59v-50.36a24.006 24.006 0 0 0 -24-24h-8a128 128 0 0 1 128-128c-39.01 30.04-64 76.22-64 128s24.99 97.96 64 128z"/><path d="m432 208a128 128 0 0 1 -128 128c39.01-30.04 64-76.22 64-128s-24.99-97.96-64-128a128 128 0 0 1 128 128z"/><path d="m152 208-9 32h-63l-8-32z"/><path d="m152 208-9 32h-63l-8-32z"/></g><g class="product-icon-1e81ce"><path d="m496 176h-27.05a168.068 168.068 0 0 0 -25.7-62l19.15-19.13a8.015 8.015 0 0 0 0-11.32l-33.95-33.94a8.015 8.015 0 0 0 -11.32 0l-19.13 19.14a168.207 168.207 0 0 0 -62-25.7v-27.05a8 8 0 0 0 -8-8h-48a8 8 0 0 0 -8 8v27.05a168.207 168.207 0 0 0 -62 25.7l-19.13-19.14a8.015 8.015 0 0 0 -11.32 0l-33.95 33.94a8.015 8.015 0 0 0 0 11.32l19.15 19.13a168.068 168.068 0 0 0 -25.7 62h-27.05a8 8 0 0 0 -8 8v16h-64a32.036 32.036 0 0 0 -32 32v240a32.036 32.036 0 0 0 32 32h144a32.036 32.036 0 0 0 32-32v-120.89a165.672 165.672 0 0 0 56 21.84v27.05a8 8 0 0 0 8 8h48a8 8 0 0 0 8-8v-27.05a168.207 168.207 0 0 0 62-25.7l19.13 19.15a8.015 8.015 0 0 0 11.32 0l33.95-33.95a8.015 8.015 0 0 0 0-11.32l-19.15-19.13a168.068 168.068 0 0 0 25.7-62h27.05a8 8 0 0 0 8-8v-48a8 8 0 0 0 -8-8zm-354.56 40-4.5 16h-50.69l-4-16zm58.56 256a16.021 16.021 0 0 1 -16 16h-144a16.021 16.021 0 0 1 -16-16v-240a16.021 16.021 0 0 1 16-16h25.75l6.49 25.94a8 8 0 0 0 7.76 6.06h63a8 8 0 0 0 7.7-5.83l7.36-26.17h25.94a16.021 16.021 0 0 1 16 16zm-8-272a7.914 7.914 0 0 0 -2.64.46 31.686 31.686 0 0 0 -5.09-.45 119.35 119.35 0 0 1 20.34-59.19 136.076 136.076 0 0 0 32.62 25.72 165.963 165.963 0 0 0 -5.02 33.46zm64.46 57.78a119.611 119.611 0 0 1 39.54-9.51v70.35a154.192 154.192 0 0 1 -39.54-60.84zm23.88 67.88a119.551 119.551 0 0 1 -58.84-30.52 8 8 0 0 0 -5.5-2.18v-9.92a7.89 7.89 0 0 0 5.5-2.18 120.91 120.91 0 0 1 20.58-15.68 169.762 169.762 0 0 0 38.26 60.48zm-28.39-83.34a149.957 149.957 0 0 1 -3.73-26.32h47.78v16.24a135.536 135.536 0 0 0 -44.05 10.08zm-3.73-42.32a150.553 150.553 0 0 1 3.72-26.29 135.872 135.872 0 0 0 44.06 10.06v16.23zm8.23-41.77a154.25 154.25 0 0 1 39.55-60.85v70.35a119.673 119.673 0 0 1 -39.55-9.5zm-14.37-7.4a119.869 119.869 0 0 1 -27.48-22.79 120.063 120.063 0 0 1 65.73-37.69 169.874 169.874 0 0 0 -38.25 60.48zm-30.39 65.17h20.52a167.075 167.075 0 0 0 5.02 33.49 135.518 135.518 0 0 0 -21.23 14.83v-32.32a31.705 31.705 0 0 0 -4.31-16zm276.31 8h-25.79a8 8 0 0 0 -7.91 6.81 151.919 151.919 0 0 1 -27.91 67.33 8.014 8.014 0 0 0 .78 10.41l18.26 18.24-22.64 22.64-18.24-18.26a8.013 8.013 0 0 0 -10.41-.78 152.015 152.015 0 0 1 -67.33 27.91 8 8 0 0 0 -6.81 7.91v25.79h-32v-25.79a7.994 7.994 0 0 0 -6.81-7.91 150.134 150.134 0 0 1 -60.78-23.35 8.028 8.028 0 0 0 -4.41-1.32v-21.94a135.42 135.42 0 0 0 87.99 32.31h.02a135 135 0 0 0 59.31-13.64 136.7 136.7 0 0 0 46.15-36.61 7.665 7.665 0 0 0 1.23-1.52 135.72 135.72 0 0 0 0-168.46 7.665 7.665 0 0 0 -1.23-1.52 135.811 135.811 0 0 0 -210.94 0 7.665 7.665 0 0 0 -1.23 1.52 135.288 135.288 0 0 0 -29.06 76.23h-48.24v-8h25.79a8 8 0 0 0 7.91-6.81 151.919 151.919 0 0 1 27.91-67.33 8.014 8.014 0 0 0 -.78-10.41l-18.25-18.24 22.63-22.63 18.24 18.25a8.013 8.013 0 0 0 10.41.78 152.015 152.015 0 0 1 67.33-27.91 8 8 0 0 0 6.81-7.91v-25.79h32v25.79a8 8 0 0 0 6.81 7.91 152.015 152.015 0 0 1 67.33 27.91 8.013 8.013 0 0 0 10.41-.78l18.24-18.25 22.63 22.63-18.25 18.24a8.014 8.014 0 0 0 -.78 10.41 151.919 151.919 0 0 1 27.91 67.33 8 8 0 0 0 7.91 6.81h25.79zm-117.23 25.46a165.963 165.963 0 0 0 5.02-33.46h47.94a119.348 119.348 0 0 1 -20.34 59.18 136.076 136.076 0 0 0 -32.62-25.72zm22.63 38.5a120.063 120.063 0 0 1 -65.73 37.69 169.874 169.874 0 0 0 38.25-60.48 119.869 119.869 0 0 1 27.48 22.79zm-17.61-87.96a165.963 165.963 0 0 0 -5.02-33.46 136.076 136.076 0 0 0 32.62-25.72 119.348 119.348 0 0 1 20.34 59.18zm-9.87-49.17a169.874 169.874 0 0 0 -38.25-60.48 120.063 120.063 0 0 1 65.73 37.69 119.869 119.869 0 0 1 -27.48 22.79zm-14.37 7.4a119.673 119.673 0 0 1 -39.55 9.5v-70.35a154.25 154.25 0 0 1 39.55 60.85zm4.51 15.48a150.553 150.553 0 0 1 3.72 26.29h-47.78v-16.23a135.872 135.872 0 0 0 44.06-10.06zm3.72 42.29a150.553 150.553 0 0 1 -3.72 26.29 135.872 135.872 0 0 0 -44.06-10.06v-16.23zm-8.23 41.77a154.25 154.25 0 0 1 -39.55 60.85v-70.35a119.673 119.673 0 0 1 39.55 9.5z"/><path d="m96 464h-56a8 8 0 0 0 0 16h56a8 8 0 0 0 0-16z"/><path d="m128 464h-8a8 8 0 0 0 0 16h8a8 8 0 0 0 0-16z"/></g></g></svg>