<?xml version="1.0"?>
<svg xmlns="http://www.w3.org/2000/svg" viewBox="0 0 64 64" width="512" height="512"><g id="Tech_service" data-name="Tech service"><path d="M8,51A5,5,0,0,0,8,61H25V51Z" class="product-icon-9bc9ff"/><path d="M46.14,22H41V38h1.18a14.963,14.963,0,0,0,3.96-16Z" class="product-icon-9bc9ff"/><path d="M35,21V19a5.006,5.006,0,0,0-1-8.59V15l-2,2-2-2V10.41A5.006,5.006,0,0,0,29,19v5h6Z" class="product-icon-9bc9ff"/><path d="M32,39a3,3,0,0,0,3-3H29A3,3,0,0,0,32,39Z" class="product-icon-9bc9ff"/><path d="M39,24H26.5a1.5,1.5,0,0,0,0,3,1.5,1.5,0,0,0,0,3,1.5,1.5,0,0,0,0,3,1.5,1.5,0,0,0,0,3H29a3,3,0,0,0,6,0h6V24Z" style="fill:none"/><path d="M37,21H35V19a5.006,5.006,0,0,0-1-8.59V15l-2,2-2-2V10.41A5.006,5.006,0,0,0,29,19v5H39Z" style="fill:none"/><path d="M34,10.41v1.739a14.931,14.931,0,0,1,2.405.511A5.061,5.061,0,0,0,34,10.41Z" style="fill:none"/><path d="M30,10.41A5.061,5.061,0,0,0,27.6,12.66,14.931,14.931,0,0,1,30,12.149Z" style="fill:none"/><path d="M30.829,12.059c.388-.03.776-.059,1.171-.059C31.6,12,31.216,12.024,30.829,12.059Z" style="fill:none"/><path d="M32,12c.4,0,.783.029,1.171.059C32.784,12.024,32.4,12,32,12Z" style="fill:none"/><path d="M56,31V23H51.6a19.894,19.894,0,0,0-2.92-7.03l3.12-3.11L46.14,7.2l-3.11,3.12A19.971,19.971,0,0,0,36,7.4V3H28V7.4a19.971,19.971,0,0,0-7.03,2.92L17.86,7.2,12.2,12.86l3.12,3.11A19.894,19.894,0,0,0,12.4,23H8v8h4.4a19.971,19.971,0,0,0,2.92,7.03L12.2,41.14l5.66,5.66,3.11-3.12A19.894,19.894,0,0,0,28,46.6V51h8V46.6a19.894,19.894,0,0,0,7.03-2.92l3.11,3.12,5.66-5.66-3.12-3.11A19.971,19.971,0,0,0,51.6,31ZM32,42a14.993,14.993,0,0,1-1.171-29.941C31.216,12.024,31.6,12,32,12s.784.024,1.171.059A14.993,14.993,0,0,1,32,42Z" class="product-icon-9bc9ff"/><path d="M32,43a15.862,15.862,0,0,0,10.856-4.264c.009-.008.017-.017.025-.025l.01-.01a15.957,15.957,0,0,0,4.192-17.034c-.006-.016-.014-.031-.02-.047l-.007-.017A16.013,16.013,0,0,0,37.1,11.858,6.038,6.038,0,0,0,34.405,9.5,1,1,0,0,0,33,10.41v4.176l-1,1-1-1V10.41A1,1,0,0,0,29.6,9.5a6.039,6.039,0,0,0-2.687,2.351A15.991,15.991,0,0,0,32,43Zm-5.5-8a.5.5,0,0,1,0-1H28a1,1,0,0,0,0-2H26.5a.5.5,0,0,1,0-1H28a1,1,0,0,0,0-2H26.5a.5.5,0,0,1,0-1H28a1,1,0,0,0,0-2H26.5a.5.5,0,0,1,0-1H40V35Zm7.231,2a2,2,0,0,1-3.462,0ZM36,22h.465l.667,1H36Zm6,14.756V23h3.4A13.844,13.844,0,0,1,42,36.756ZM44.635,21H41a1,1,0,0,0-1,1v1h-.465l-1.7-2.555A1,1,0,0,0,37,20H36v-.529A6.038,6.038,0,0,0,38,15a5.885,5.885,0,0,0-.048-.652A14.029,14.029,0,0,1,44.635,21ZM29.293,15.707l2,2a1,1,0,0,0,1.414,0l2-2A1,1,0,0,0,35,15V12.356a4,4,0,0,1-.6,5.845,1,1,0,0,0-.4.8v4H30V19a1,1,0,0,0-.4-.8,4,4,0,0,1-.6-5.845V15A1,1,0,0,0,29.293,15.707Zm-3.245-1.364A5.975,5.975,0,0,0,26,15a6.038,6.038,0,0,0,2,4.471V23H26.5A2.5,2.5,0,0,0,24,25.5a2.471,2.471,0,0,0,.513,1.5,2.449,2.449,0,0,0,0,3,2.449,2.449,0,0,0,0,3A2.471,2.471,0,0,0,24,34.5,2.5,2.5,0,0,0,26.5,37h1.642a3.981,3.981,0,0,0,7.716,0H40v1a.985.985,0,0,0,.088.4A13.873,13.873,0,0,1,32,41a13.991,13.991,0,0,1-5.952-26.657Z" class="product-icon-1e81ce"/><path d="M8,32h3.6a20.827,20.827,0,0,0,2.446,5.888l-2.552,2.544a1,1,0,0,0,0,1.415l5.66,5.66a1,1,0,0,0,.707.293h0a1,1,0,0,0,.707-.294l2.543-2.551A20.842,20.842,0,0,0,27,47.4V51a1,1,0,0,0,1,1h8a1,1,0,0,0,1-1V47.4a20.842,20.842,0,0,0,5.889-2.446l2.543,2.551a1,1,0,0,0,.707.294h0a1,1,0,0,0,.707-.293l5.66-5.66a1,1,0,0,0,0-1.415l-2.552-2.544A20.827,20.827,0,0,0,52.4,32H56a1,1,0,0,0,1-1V23a1,1,0,0,0-1-1H52.4a20.76,20.76,0,0,0-2.446-5.889l2.552-2.543a1,1,0,0,0,0-1.415l-5.66-5.66A1,1,0,0,0,46.14,6.2h0a1,1,0,0,0-.707.294L42.889,9.046A20.84,20.84,0,0,0,37,6.6V3a1,1,0,0,0-1-1H28a1,1,0,0,0-1,1V6.6a20.84,20.84,0,0,0-5.889,2.446L18.568,6.494a1,1,0,0,0-.707-.294h0a1,1,0,0,0-.707.293l-5.66,5.66a1,1,0,0,0,0,1.415l2.552,2.543A20.76,20.76,0,0,0,11.6,22H8a1,1,0,0,0-1,1v8A1,1,0,0,0,8,32Zm1-8h3.4a1,1,0,0,0,.981-.8,18.81,18.81,0,0,1,2.773-6.677,1,1,0,0,0-.128-1.261l-2.411-2.4,4.244-4.243,2.4,2.41a1,1,0,0,0,1.259.128A18.893,18.893,0,0,1,28.2,8.38,1,1,0,0,0,29,7.4V4h6V7.4a1,1,0,0,0,.8.98,18.893,18.893,0,0,1,6.679,2.774,1,1,0,0,0,1.259-.128l2.4-2.41,4.244,4.243-2.411,2.4a1,1,0,0,0-.128,1.261A18.81,18.81,0,0,1,50.619,23.2a1,1,0,0,0,.981.8H55v6H51.6a1,1,0,0,0-.98.8,18.869,18.869,0,0,1-2.774,6.678,1,1,0,0,0,.128,1.26l2.411,2.4-4.244,4.243-2.4-2.41a1,1,0,0,0-1.259-.128A18.839,18.839,0,0,1,35.8,45.62a1,1,0,0,0-.8.98V50H29V46.6a1,1,0,0,0-.8-.98,18.839,18.839,0,0,1-6.678-2.774,1,1,0,0,0-1.259.128l-2.4,2.41-4.244-4.243,2.411-2.4a1,1,0,0,0,.128-1.26A18.869,18.869,0,0,1,13.38,30.8a1,1,0,0,0-.98-.8H9Z" class="product-icon-1e81ce"/><path d="M61.316,54.051l-6-2a1,1,0,0,0-.632,0L51.838,53H26V51a1,1,0,0,0-1-1H8A6,6,0,0,0,8,62H25a1,1,0,0,0,1-1V59H51.838l2.846.949a1,1,0,0,0,.632,0l6-2A1,1,0,0,0,62,57V55A1,1,0,0,0,61.316,54.051ZM24,60H8a4,4,0,0,1,0-8H24v8Zm36-3.721-5,1.667-2.684-.895A1,1,0,0,0,52,57H26V55H52a1,1,0,0,0,.316-.051L55,54.054l5,1.667Z" class="product-icon-1e81ce"/><path d="M21,57H7a1,1,0,0,1,0-2H21a1,1,0,0,1,0,2Z" class="product-icon-1e81ce"/></g></svg>
