<svg height="512" viewBox="0 0 512 512" width="512" xmlns="http://www.w3.org/2000/svg"><g><g class="product-icon-9bc9ff"><path d="m496 40v24h-480v-24a24.006 24.006 0 0 1 24-24h432a24.006 24.006 0 0 1 24 24z"/><path d="m408 248a152.072 152.072 0 0 1 -112 146.69v-74.69h40l-80-96-80 96h40v74.69a152.021 152.021 0 1 1 192-146.69z"/></g><g class="product-icon-1e81ce"><path d="m472 8h-432a32.03 32.03 0 0 0 -32 32v432a32.03 32.03 0 0 0 32 32h432a32.036 32.036 0 0 0 32-32v-432a32.036 32.036 0 0 0 -32-32zm16 464a16.021 16.021 0 0 1 -16 16h-432a16.021 16.021 0 0 1 -16-16v-400h464zm0-416h-464v-16a16.021 16.021 0 0 1 16-16h432a16.021 16.021 0 0 1 16 16z"/><circle cx="39" cy="40" r="8"/><circle cx="64" cy="40" r="8"/><circle cx="88" cy="40" r="8"/><path d="m288 456h-96a8 8 0 0 0 0 16h96a8 8 0 0 0 0-16z"/><path d="m368 432h-64v-31.32a160.335 160.335 0 0 0 112-152.68c0-88.22-71.78-160-160-160s-160 71.78-160 160a160.335 160.335 0 0 0 112 152.68v31.32h-64a8 8 0 0 0 0 16h224a8 8 0 0 0 0-16zm-160-48.19a144.32 144.32 0 0 1 -96-135.81c0-79.4 64.6-144 144-144s144 64.6 144 144a144.32 144.32 0 0 1 -96 135.81v-55.81h32a8 8 0 0 0 6.15-13.12l-80-96a8.006 8.006 0 0 0 -12.3 0l-80 96a8 8 0 0 0 6.15 13.12h32zm80-63.81v112h-64v-112a8 8 0 0 0 -8-8h-22.92l62.92-75.5 62.92 75.5h-22.92a8 8 0 0 0 -8 8z"/><path d="m320 456h-8a8 8 0 0 0 0 16h8a8 8 0 0 0 0-16z"/></g></g></svg>