<svg height="512" viewBox="0 0 64 64" width="512" xmlns="http://www.w3.org/2000/svg"><g id="Web_design" data-name="Web design"><g class="product-icon-9bc9ff"><path d="m59 3h-54a2 2 0 0 0 -2 2v10h58v-10a2 2 0 0 0 -2-2zm-50 8a2 2 0 1 1 2-2 2 2 0 0 1 -2 2zm7 0a2 2 0 1 1 2-2 2 2 0 0 1 -2 2zm7 0a2 2 0 1 1 2-2 2 2 0 0 1 -2 2zm34 0h-28v-4h28z"/><circle cx="13" cy="25" r="2"/><path d="m51 27a2 2 0 1 0 -2-2 2 2 0 0 0 2 2z"/><circle cx="16" cy="43" r="2"/><circle cx="48" cy="43" r="2"/><path d="m32 27-7 16 4 6h6l4-6zm0 17a2 2 0 1 1 2-2 2 2 0 0 1 -2 2z"/><path d="m26 53h12v8h-12z"/></g><path d="m59 2h-54a3 3 0 0 0 -3 3v54a3 3 0 0 0 3 3h54a3 3 0 0 0 3-3v-54a3 3 0 0 0 -3-3zm-55 3a1 1 0 0 1 1-1h54a1 1 0 0 1 1 1v9h-56zm28 36a1 1 0 1 1 -1 1 1 1 0 0 1 1-1zm-1-1.816a3 3 0 1 0 2 0v-7.4l4.865 11.116-3.4 5.1h-4.93l-3.4-5.1 4.865-11.119zm-3 10.816h8a1 1 0 0 1 1 1v1h-10v-1a1 1 0 0 1 1-1zm-1 10v-6h10v6zm33-1a1 1 0 0 1 -1 1h-20v-9a3 3 0 0 0 -2.211-2.881l3.043-4.564a1 1 0 0 0 .084-.956l-7-16a1 1 0 0 0 -1.832 0l-7 16a1 1 0 0 0 .084.956l3.043 4.564a3 3 0 0 0 -2.211 2.881v9h-20a1 1 0 0 1 -1-1v-43h56z" class="product-icon-1e81ce"/><path d="m57 6h-28a1 1 0 0 0 -1 1v4a1 1 0 0 0 1 1h28a1 1 0 0 0 1-1v-4a1 1 0 0 0 -1-1zm-1 4h-26v-2h26z" class="product-icon-1e81ce"/><path d="m9 6a3 3 0 1 0 3 3 3 3 0 0 0 -3-3zm0 4a1 1 0 1 1 1-1 1 1 0 0 1 -1 1z" class="product-icon-1e81ce"/><path d="m16 6a3 3 0 1 0 3 3 3 3 0 0 0 -3-3zm0 4a1 1 0 1 1 1-1 1 1 0 0 1 -1 1z" class="product-icon-1e81ce"/><path d="m23 6a3 3 0 1 0 3 3 3 3 0 0 0 -3-3zm0 4a1 1 0 1 1 1-1 1 1 0 0 1 -1 1z" class="product-icon-1e81ce"/><path d="m46.959 40.2a3 3 0 1 0 2-.026 17.005 17.005 0 0 0 -8.976-14.174h8.2a3 3 0 1 0 0-2h-32.367a3 3 0 1 0 0 2h8.2a17.005 17.005 0 0 0 -8.975 14.171 3 3 0 1 0 2 .026 14.979 14.979 0 0 1 29.918 0zm1.041 3.8a1 1 0 1 1 1-1 1 1 0 0 1 -1 1zm3-20a1 1 0 1 1 -1 1 1 1 0 0 1 1-1zm-38 2a1 1 0 1 1 1-1 1 1 0 0 1 -1 1zm3 18a1 1 0 1 1 1-1 1 1 0 0 1 -1 1z" class="product-icon-1e81ce"/></g></svg>