<svg height="512" viewBox="0 0 512 512" width="512" xmlns="http://www.w3.org/2000/svg"><g><g class="product-icon-9bc9ff"><rect height="80" rx="16" width="112" x="200" y="136"/><path d="m128 128v240h-112v-216a24.006 24.006 0 0 1 24-24z"/><path d="m160 272h24v24h-24z"/><path d="m160 320h24v24h-24z"/><path d="m496 152v216h-112v-240h88a24.006 24.006 0 0 1 24 24z"/><path d="m312 464h-112l16-48h80z"/><rect height="80" rx="16" width="112" x="200" y="136"/><path d="m336 24v56h48zm-176 296v24h24v-24zm0-48v24h24v-24z"/><path d="m384 80h-48v-56z"/><rect height="80" rx="16" width="112" x="200" y="136"/><rect height="80" rx="16" width="112" x="200" y="136"/><path d="m240 192v-32l32 16z"/><path d="m160 272h24v24h-24z"/><path d="m160 320h24v24h-24z"/></g><g class="product-icon-1e81ce"><path d="m472 120h-80v-40a7.975 7.975 0 0 0 -1.93-5.21l-48-56a7.992 7.992 0 0 0 -6.07-2.79h-208a8 8 0 0 0 -8 8v96h-80a32.036 32.036 0 0 0 -32 32v240a32.036 32.036 0 0 0 32 32h164.9l-10.67 32h-26.23a8 8 0 0 0 -8 8v16h-80a8 8 0 0 0 0 16h352a8 8 0 0 0 0-16h-80v-16a8 8 0 0 0 -8-8h-26.23l-10.67-32h164.9a32.036 32.036 0 0 0 32-32v-240a32.036 32.036 0 0 0 -32-32zm-128-74.37 22.61 26.37h-22.61zm-208-13.63h192v48a8 8 0 0 0 8 8h40v272h-240zm-112 120a16.021 16.021 0 0 1 16-16h80v224h-96zm312 320v8h-160v-8zm-124.9-16 10.67-32h68.46l10.67 32zm276.9-64a16.021 16.021 0 0 1 -16 16h-432a16.021 16.021 0 0 1 -16-16v-16h464zm0-32h-96v-224h80a16.021 16.021 0 0 1 16 16z"/><path d="m96 384h-48a8 8 0 0 0 0 16h48a8 8 0 0 0 0-16z"/><path d="m128 384h-8a8 8 0 0 0 0 16h8a8 8 0 0 0 0-16z"/><path d="m160 256h192a8 8 0 0 0 8-8v-144a8 8 0 0 0 -8-8h-192a8 8 0 0 0 -8 8v144a8 8 0 0 0 8 8zm8-144h176v128h-176z"/><path d="m296 128h-80a24.028 24.028 0 0 0 -24 24v48a24.028 24.028 0 0 0 24 24h80a24.028 24.028 0 0 0 24-24v-48a24.028 24.028 0 0 0 -24-24zm8 72a8.009 8.009 0 0 1 -8 8h-80a8.009 8.009 0 0 1 -8-8v-48a8.009 8.009 0 0 1 8-8h80a8.009 8.009 0 0 1 8 8z"/><path d="m275.578 168.845-32-16a8 8 0 0 0 -11.578 7.155v32a8 8 0 0 0 11.578 7.155l32-16a8 8 0 0 0 0-14.31zm-27.578 10.211v-6.112l6.111 3.056z"/><path d="m160 304h24a8 8 0 0 0 8-8v-24a8 8 0 0 0 -8-8h-24a8 8 0 0 0 -8 8v24a8 8 0 0 0 8 8zm8-24h8v8h-8z"/><path d="m296 264h-88a8 8 0 0 0 0 16h88a8 8 0 0 0 0-16z"/><path d="m208 304h64a8 8 0 0 0 0-16h-64a8 8 0 0 0 0 16z"/><path d="m160 352h24a8 8 0 0 0 8-8v-24a8 8 0 0 0 -8-8h-24a8 8 0 0 0 -8 8v24a8 8 0 0 0 8 8zm8-24h8v8h-8z"/><path d="m296 312h-88a8 8 0 0 0 0 16h88a8 8 0 0 0 0-16z"/><path d="m272 336h-64a8 8 0 0 0 0 16h64a8 8 0 0 0 0-16z"/></g></g></svg>