<svg height="512" viewBox="0 0 512 512" width="512" xmlns="http://www.w3.org/2000/svg"><g><g class="product-icon-9bc9ff"><path d="m496 40v24h-480v-24a24.006 24.006 0 0 1 24-24h432a24.006 24.006 0 0 1 24 24z"/><circle cx="39" cy="40" r="8"/><circle cx="64" cy="40" r="8"/><circle cx="88" cy="40" r="8"/><path d="m168 136h32v32h-32z"/><path d="m312 136h32v32h-32z"/><path d="m392 232h32v32h-32z"/><path d="m240 232h32v32h-32z"/><path d="m87 232h32v32h-32z"/><path d="m208 440h96v24h-96z"/><path d="m216 464h80v32h-80z"/><circle cx="256" cy="376" r="16"/></g><g class="product-icon-1e81ce"><path d="m472 8h-432a32.042 32.042 0 0 0 -32 32v328a32.042 32.042 0 0 0 32 32h160.46l12 32h-4.46a8 8 0 0 0 -8 8v24a8 8 0 0 0 8 8v24a8 8 0 0 0 8 8h80a8 8 0 0 0 8-8v-24a8 8 0 0 0 8-8v-24a8 8 0 0 0 -8-8h-4.46l12-32h160.46a32.042 32.042 0 0 0 32-32v-328a32.042 32.042 0 0 0 -32-32zm-184 480h-64v-16h64zm8-32h-80v-8h80zm-13.54-24h-52.92l-20.57-54.86 39.03-55.76v30.62a8.451 8.451 0 0 0 .12 1.34 24 24 0 1 0 15.76 0 8.451 8.451 0 0 0 .12-1.34v-30.62l39.03 55.76zm-26.46-64a8 8 0 1 1 -8 8 8.011 8.011 0 0 1 8-8zm232 0a16.021 16.021 0 0 1 -16 16h-154.46l1.95-5.19a7.974 7.974 0 0 0 -.94-7.4l-56-80a8 8 0 0 0 -13.1 0l-56 80a7.974 7.974 0 0 0 -.94 7.4l1.95 5.19h-154.46a16.021 16.021 0 0 1 -16-16v-296h464zm0-312h-464v-16a16.021 16.021 0 0 1 16-16h432a16.021 16.021 0 0 1 16 16z"/><circle cx="39" cy="40" r="8"/><circle cx="64" cy="40" r="8"/><circle cx="88" cy="40" r="8"/><path d="m424 224h-32a8 8 0 0 0 -8 8v8h-80.03a79.855 79.855 0 0 0 32.03-64h8a8 8 0 0 0 8-8v-32a8 8 0 0 0 -8-8h-32a8 8 0 0 0 -8 8v32a8 8 0 0 0 8 8h8a63.266 63.266 0 0 1 -14.2 40.2 64.452 64.452 0 0 1 -25.8 19.13v-3.33a8 8 0 0 0 -8-8h-32a8 8 0 0 0 -8 8v3.33a64.452 64.452 0 0 1 -25.8-19.13 63.266 63.266 0 0 1 -14.2-40.2h8a8 8 0 0 0 8-8v-32a8 8 0 0 0 -8-8h-32a8 8 0 0 0 -8 8v32a8 8 0 0 0 8 8h8a79.855 79.855 0 0 0 32.03 64h-80.03a8.258 8.258 0 0 0 -1 .07v-8.07a8 8 0 0 0 -8-8h-32a8 8 0 0 0 -8 8v32a8 8 0 0 0 8 8h32a8 8 0 0 0 8-8v-8.07a8.258 8.258 0 0 0 1 .07h104v8a8 8 0 0 0 8 8h32a8 8 0 0 0 8-8v-8h104v8a8 8 0 0 0 8 8h32a8 8 0 0 0 8-8v-32a8 8 0 0 0 -8-8zm-104-80h16v16h-16zm-144 0h16v16h-16zm-65 112h-16v-16h16zm153 0h-16v-16h16zm152 0h-16v-16h16z"/></g></g></svg>