<svg height="512" viewBox="0 0 512 512" width="512" xmlns="http://www.w3.org/2000/svg"><g><g class="product-icon-9bc9ff"><path d="m496 40v24h-480v-24a24.006 24.006 0 0 1 24-24h432a24.006 24.006 0 0 1 24 24z"/><circle cx="39" cy="40" r="8"/><circle cx="64" cy="40" r="8"/><circle cx="88" cy="40" r="8"/><path d="m48 96h416v96h-416z"/><path d="m48 224h200v96h-200z"/><path d="m200 352h112v64h-112z"/><path d="m48 352h112v64h-112z"/><path d="m352 352h112v64h-112z"/></g><g class="product-icon-1e81ce"><path d="m472 8h-432a32.036 32.036 0 0 0 -32 32v432a32.036 32.036 0 0 0 32 32h432a32.036 32.036 0 0 0 32-32v-432a32.036 32.036 0 0 0 -32-32zm-432 16h432a16.019 16.019 0 0 1 16 16v16h-464v-16a16.019 16.019 0 0 1 16-16zm432 464h-432a16.019 16.019 0 0 1 -16-16v-400h464v400a16.019 16.019 0 0 1 -16 16z"/><circle cx="39" cy="40" r="8"/><circle cx="64" cy="40" r="8"/><circle cx="88" cy="40" r="8"/><path d="m464 88h-416a8 8 0 0 0 -8 8v96a8 8 0 0 0 8 8h416a8 8 0 0 0 8-8v-96a8 8 0 0 0 -8-8zm-8 96h-400v-80h400z"/><path d="m48 328h200a8 8 0 0 0 8-8v-96a8 8 0 0 0 -8-8h-200a8 8 0 0 0 -8 8v96a8 8 0 0 0 8 8zm8-96h184v80h-184z"/><path d="m464 216h-184a8 8 0 0 0 0 16h184a8 8 0 0 0 0-16z"/><path d="m464 240h-184a8 8 0 0 0 0 16h184a8 8 0 0 0 0-16z"/><path d="m464 264h-184a8 8 0 0 0 0 16h184a8 8 0 0 0 0-16z"/><path d="m464 288h-184a8 8 0 0 0 0 16h184a8 8 0 0 0 0-16z"/><path d="m416 328a8 8 0 0 0 0-16h-136a8 8 0 0 0 0 16z"/><path d="m448 328a8 8 0 0 0 0-16h-8a8 8 0 0 0 0 16z"/><path d="m312 344h-112a8 8 0 0 0 -8 8v64a8 8 0 0 0 8 8h112a8 8 0 0 0 8-8v-64a8 8 0 0 0 -8-8zm-8 64h-96v-48h96z"/><path d="m312 432h-112a8 8 0 0 0 0 16h112a8 8 0 0 0 0-16z"/><path d="m240 456h-40a8 8 0 0 0 0 16h40a8 8 0 0 0 0-16z"/><path d="m160 344h-112a8 8 0 0 0 -8 8v64a8 8 0 0 0 8 8h112a8 8 0 0 0 8-8v-64a8 8 0 0 0 -8-8zm-8 64h-96v-48h96z"/><path d="m160 432h-112a8 8 0 0 0 0 16h112a8 8 0 0 0 0-16z"/><path d="m88 456h-40a8 8 0 0 0 0 16h40a8 8 0 0 0 0-16z"/><path d="m464 344h-112a8 8 0 0 0 -8 8v64a8 8 0 0 0 8 8h112a8 8 0 0 0 8-8v-64a8 8 0 0 0 -8-8zm-8 64h-96v-48h96z"/><path d="m464 432h-112a8 8 0 0 0 0 16h112a8 8 0 0 0 0-16z"/><path d="m392 456h-40a8 8 0 0 0 0 16h40a8 8 0 0 0 0-16z"/></g></g></svg>