<svg height="512" viewBox="0 0 64 64" width="512" xmlns="http://www.w3.org/2000/svg"><g id="Wireless_server" data-name="Wireless server"><path d="m52 37h-40a2 2 0 0 0 -2 2v6a2 2 0 0 0 2 2h40a2 2 0 0 0 2-2v-6a2 2 0 0 0 -2-2z" class="product-icon-9bc9ff"/><path d="m52 51h-40a2 2 0 0 0 -2 2v6a2 2 0 0 0 2 2h40a2 2 0 0 0 2-2v-6a2 2 0 0 0 -2-2z" class="product-icon-9bc9ff"/><path d="m52 23h-40a2 2 0 0 0 -2 2v6a2 2 0 0 0 2 2h40a2 2 0 0 0 2-2v-6a2 2 0 0 0 -2-2z" class="product-icon-9bc9ff"/><path d="m32 12a1 1 0 1 0 -1-1 1 1 0 0 0 1 1z" class="product-icon-9bc9ff"/><g class="product-icon-1e81ce"><path d="m52 34a3 3 0 0 0 3-3v-6a3 3 0 0 0 -3-3h-19.005v-9.278a2 2 0 1 0 -2 0l.005 9.278h-19a3 3 0 0 0 -3 3v6a3 3 0 0 0 3 3h3v2h-3a3 3 0 0 0 -3 3v6a3 3 0 0 0 3 3h3v2h-3a3 3 0 0 0 -3 3v6a3 3 0 0 0 3 3h40a3 3 0 0 0 3-3v-6a3 3 0 0 0 -3-3h-3v-2h3a3 3 0 0 0 3-3v-6a3 3 0 0 0 -3-3h-3v-2zm-40-2a1 1 0 0 1 -1-1v-6a1 1 0 0 1 1-1h40a1 1 0 0 1 1 1v6a1 1 0 0 1 -1 1zm40 20a1 1 0 0 1 1 1v6a1 1 0 0 1 -1 1h-40a1 1 0 0 1 -1-1v-6a1 1 0 0 1 1-1zm-5-2h-30v-2h30zm5-12a1 1 0 0 1 1 1v6a1 1 0 0 1 -1 1h-40a1 1 0 0 1 -1-1v-6a1 1 0 0 1 1-1zm-5-2h-30v-2h30z"/><path d="m48 27h2v2h-2z"/><path d="m44 27h2v2h-2z"/><path d="m40 27h2v2h-2z"/><path d="m48 41h2v2h-2z"/><path d="m44 41h2v2h-2z"/><path d="m40 41h2v2h-2z"/><path d="m48 55h2v2h-2z"/><path d="m44 55h2v2h-2z"/><path d="m40 55h2v2h-2z"/><path d="m15 26h2v4h-2z"/><path d="m23 26h2v4h-2z"/><path d="m19 26h2v4h-2z"/><path d="m27 26h2v4h-2z"/><path d="m31 26h2v4h-2z"/><path d="m23 40h2v4h-2z"/><path d="m19 40h2v4h-2z"/><path d="m15 40h2v4h-2z"/><path d="m27 40h2v4h-2z"/><path d="m31 40h2v4h-2z"/><path d="m15 54h2v4h-2z"/><path d="m23 54h2v4h-2z"/><path d="m19 54h2v4h-2z"/><path d="m27 54h2v4h-2z"/><path d="m31 54h2v4h-2z"/><path d="m36.252 15.242a6.021 6.021 0 0 0 0-8.484l-1.422 1.406a4.022 4.022 0 0 1 0 5.672z"/><path d="m40.516 19.463 1.421 1.408a14.022 14.022 0 0 0 0-19.742l-1.421 1.408a12.021 12.021 0 0 1 0 16.926z"/><path d="m37.673 16.649 1.427 1.408a10.024 10.024 0 0 0 0-14.114l-1.427 1.408a8.02 8.02 0 0 1 0 11.3z"/><path d="m27.748 15.242 1.422-1.406a4.022 4.022 0 0 1 0-5.672l-1.422-1.406a6.021 6.021 0 0 0 0 8.484z"/><path d="m23.484 19.463a12.021 12.021 0 0 1 0-16.926l-1.422-1.408a14.025 14.025 0 0 0 0 19.742z"/><path d="m24.905 18.057 1.422-1.408a8.02 8.02 0 0 1 0-11.3l-1.422-1.406a10.024 10.024 0 0 0 0 14.114z"/></g></g></svg>