<svg height="512" viewBox="0 0 512 512" width="512" xmlns="http://www.w3.org/2000/svg"><g><g class="product-icon-9bc9ff"><path d="m496 40v24h-480v-24a24.006 24.006 0 0 1 24-24h432a24.006 24.006 0 0 1 24 24z"/><circle cx="39" cy="40" r="8"/><circle cx="64" cy="40" r="8"/><circle cx="88" cy="40" r="8"/><path d="m48 96h48v24h-48z"/><path d="m256 400a128 128 0 0 1 0-256c-39.01 30.04-64 76.22-64 128s24.99 97.96 64 128z"/><path d="m384 272a128 128 0 0 1 -128 128c39.01-30.04 64-76.22 64-128s-24.99-97.96-64-128a128 128 0 0 1 128 128z"/></g><g class="product-icon-1e81ce"><path d="m472 8h-432a32.042 32.042 0 0 0 -32 32v432a32.042 32.042 0 0 0 32 32h432a32.042 32.042 0 0 0 32-32v-432a32.042 32.042 0 0 0 -32-32zm16 464a16.021 16.021 0 0 1 -16 16h-432a16.021 16.021 0 0 1 -16-16v-400h464zm0-416h-464v-16a16.021 16.021 0 0 1 16-16h432a16.021 16.021 0 0 1 16 16z"/><path d="m362.71 187.78a7.846 7.846 0 0 0 -1.24-1.53 135.811 135.811 0 0 0 -210.94 0 7.846 7.846 0 0 0 -1.24 1.53 135.727 135.727 0 0 0 0 168.44 7.846 7.846 0 0 0 1.24 1.53 135.764 135.764 0 0 0 105.46 50.25h.02a135 135 0 0 0 59.31-13.64 136.7 136.7 0 0 0 46.15-36.61 7.846 7.846 0 0 0 1.24-1.53 135.727 135.727 0 0 0 0-168.44zm-130.38-33.43a169.874 169.874 0 0 0 -38.25 60.48 119.869 119.869 0 0 1 -27.48-22.79 120.063 120.063 0 0 1 65.73-37.69zm-75.72 50.47a136.076 136.076 0 0 0 32.62 25.72 165.963 165.963 0 0 0 -5.02 33.46h-47.94a119.348 119.348 0 0 1 20.34-59.18zm0 134.36a119.348 119.348 0 0 1 -20.34-59.18h47.94a165.963 165.963 0 0 0 5.02 33.46 136.076 136.076 0 0 0 -32.62 25.72zm9.99 12.78a119.869 119.869 0 0 1 27.48-22.79 169.874 169.874 0 0 0 38.25 60.48 120.063 120.063 0 0 1 -65.73-37.69zm81.4 30.66a154.25 154.25 0 0 1 -39.55-60.85 119.673 119.673 0 0 1 39.55-9.5zm0-86.39a135.872 135.872 0 0 0 -44.06 10.06 150.553 150.553 0 0 1 -3.72-26.29h47.78zm0-32.23h-47.78a150.553 150.553 0 0 1 3.72-26.29 135.872 135.872 0 0 0 44.06 10.06zm0-32.27a119.673 119.673 0 0 1 -39.55-9.5 154.25 154.25 0 0 1 39.55-60.85zm107.39-26.91a119.348 119.348 0 0 1 20.34 59.18h-47.94a165.963 165.963 0 0 0 -5.02-33.46 136.076 136.076 0 0 0 32.62-25.72zm-9.99-12.78a119.869 119.869 0 0 1 -27.48 22.79 169.874 169.874 0 0 0 -38.25-60.48 120.063 120.063 0 0 1 65.73 37.69zm-81.4-30.66a154.25 154.25 0 0 1 39.55 60.85 119.673 119.673 0 0 1 -39.55 9.5zm0 86.39a135.872 135.872 0 0 0 44.06-10.06 150.553 150.553 0 0 1 3.72 26.29h-47.78zm0 32.23h47.78a150.553 150.553 0 0 1 -3.72 26.29 135.872 135.872 0 0 0 -44.06-10.06zm0 102.62v-70.35a119.673 119.673 0 0 1 39.55 9.5 154.25 154.25 0 0 1 -39.55 60.85zm15.67 7.03a169.874 169.874 0 0 0 38.25-60.48 119.869 119.869 0 0 1 27.48 22.79 120.063 120.063 0 0 1 -65.73 37.69zm75.72-50.47a136.076 136.076 0 0 0 -32.62-25.72 165.963 165.963 0 0 0 5.02-33.46h47.94a119.348 119.348 0 0 1 -20.34 59.18z"/><circle cx="39" cy="40" r="8"/><circle cx="64" cy="40" r="8"/><circle cx="88" cy="40" r="8"/><path d="m96 88h-48a8 8 0 0 0 -8 8v24a8 8 0 0 0 8 8h48a8 8 0 0 0 8-8v-24a8 8 0 0 0 -8-8zm-8 24h-32v-8h32z"/><path d="m120 104h80a8 8 0 0 0 0-16h-80a8 8 0 0 0 0 16z"/><path d="m144 128a8 8 0 0 0 0-16h-24a8 8 0 0 0 0 16z"/><path d="m464 456h-96a8 8 0 0 0 0 16h96a8 8 0 0 0 0-16z"/><path d="m464 432h-40a8 8 0 0 0 0 16h40a8 8 0 0 0 0-16z"/><path d="m343 456h-7a8 8 0 0 0 0 16h7a8 8 0 0 0 0-16z"/></g></g></svg>