<svg height="512" viewBox="0 0 64 64" width="512" xmlns="http://www.w3.org/2000/svg"><g id="Workstation"><path d="m53 3h-42a4 4 0 0 0 -4 4v28a4 4 0 0 0 4 4h42a4 4 0 0 0 4-4v-28a4 4 0 0 0 -4-4zm0 30h-42v-26h42z" class="product-icon-9bc9ff"/><path d="m27 39h10v6h-10z" class="product-icon-9bc9ff"/><path d="m44 47a2 2 0 0 0 -2-2h-20a2 2 0 0 0 -2 2v2h24z" class="product-icon-9bc9ff"/><path d="m50 49h-36a2 2 0 0 0 -2 2v8a2 2 0 0 0 2 2h36a2 2 0 0 0 2-2v-8a2 2 0 0 0 -2-2z" class="product-icon-9bc9ff"/><path d="m37.41 17.42 2.37-2.37-2.83-2.83-2.37 2.37a3.228 3.228 0 0 0 -.58-.24v-3.35h-4v3.35a3.228 3.228 0 0 0 -.58.24l-2.37-2.37-2.83 2.83 2.37 2.37a3.228 3.228 0 0 0 -.24.58h-3.35v4h3.35a3.228 3.228 0 0 0 .24.58l-2.37 2.37 2.83 2.83 2.37-2.37a3.228 3.228 0 0 0 .58.24v3.35h4v-3.35a3.228 3.228 0 0 0 .58-.24l2.37 2.37 2.83-2.83-2.37-2.37a3.228 3.228 0 0 0 .24-.58h3.35v-4h-3.35a3.228 3.228 0 0 0 -.24-.58zm-5.41 5.58a3 3 0 1 1 3-3 3 3 0 0 1 -3 3z" class="product-icon-9bc9ff"/><g class="product-icon-1e81ce"><path d="m33 35h-2a1 1 0 0 0 0 2h2a1 1 0 0 0 0-2z"/><path d="m54 33v-26a1 1 0 0 0 -1-1h-42a1 1 0 0 0 -1 1v26a1 1 0 0 0 1 1h42a1 1 0 0 0 1-1zm-2-1h-40v-24h40z"/><path d="m15 51h2v2h-2z"/><path d="m15 54h2v2h-2z"/><path d="m15 57h2v2h-2z"/><path d="m19 51h2v2h-2z"/><path d="m19 54h2v2h-2z"/><path d="m19 57h2v2h-2z"/><path d="m23 51h2v2h-2z"/><path d="m23 54h2v2h-2z"/><path d="m27 51h2v2h-2z"/><path d="m27 54h2v2h-2z"/><path d="m31 51h2v2h-2z"/><path d="m31 54h2v2h-2z"/><path d="m35 51h2v2h-2z"/><path d="m35 54h2v2h-2z"/><path d="m39 51h2v2h-2z"/><path d="m39 54h2v2h-2z"/><path d="m43 51h2v2h-2z"/><path d="m43 54h2v2h-2z"/><path d="m43 57h2v2h-2z"/><path d="m47 51h2v2h-2z"/><path d="m47 54h2v2h-2z"/><path d="m47 57h2v2h-2z"/><path d="m23 57h18v2h-18z"/><path d="m57 44h-8a1 1 0 0 1 -1-1v-3h5a5.006 5.006 0 0 0 5-5v-28a5.006 5.006 0 0 0 -5-5h-42a5.006 5.006 0 0 0 -5 5v28a5.006 5.006 0 0 0 5 5h15v4h-4a3 3 0 0 0 -3 3v1h-5a3 3 0 0 0 -3 3v8a3 3 0 0 0 3 3h36a3 3 0 0 0 3-3v-5h4a5 5 0 0 0 0-10zm-49-9v-28a3 3 0 0 1 3-3h42a3 3 0 0 1 3 3v28a3 3 0 0 1 -3 3h-42a3 3 0 0 1 -3-3zm20 5h8v4h-8zm-7 7a1 1 0 0 1 1-1h20a1 1 0 0 1 1 1v1h-22zm30 12a1 1 0 0 1 -1 1h-36a1 1 0 0 1 -1-1v-8a1 1 0 0 1 1-1h36a1 1 0 0 1 1 1zm6-7h-4v-1a3 3 0 0 0 -3-3h-5v-1a3 3 0 0 0 -3-3h-4v-4h8v3a3 3 0 0 0 3 3h8a3 3 0 0 1 0 6z"/><path d="m23 23h1.756l-1.243 1.243a1 1 0 0 0 0 1.414l2.83 2.83a1 1 0 0 0 1.414 0l1.243-1.243v1.756a1 1 0 0 0 1 1h4a1 1 0 0 0 1-1v-1.756l1.243 1.243a1 1 0 0 0 1.414 0l2.83-2.83a1 1 0 0 0 0-1.414l-1.243-1.243h1.756a1 1 0 0 0 1-1v-4a1 1 0 0 0 -1-1h-1.756l1.243-1.243a1 1 0 0 0 0-1.414l-2.83-2.83a1 1 0 0 0 -1.414 0l-1.243 1.243v-1.756a1 1 0 0 0 -1-1h-4a1 1 0 0 0 -1 1v1.756l-1.243-1.243a1 1 0 0 0 -1.414 0l-2.83 2.83a1 1 0 0 0 0 1.414l1.243 1.243h-1.756a1 1 0 0 0 -1 1v4a1 1 0 0 0 1 1zm1-4h2.35a1 1 0 0 0 .958-.713 2.262 2.262 0 0 1 .168-.4 1 1 0 0 0 -.179-1.171l-1.663-1.666 1.416-1.416 1.663 1.666a1 1 0 0 0 1.171.179 2.262 2.262 0 0 1 .4-.168 1 1 0 0 0 .716-.961v-2.35h2v2.35a1 1 0 0 0 .713.958 2.306 2.306 0 0 1 .4.168 1 1 0 0 0 1.171-.179l1.663-1.663 1.416 1.416-1.663 1.663a1 1 0 0 0 -.179 1.171 2.234 2.234 0 0 1 .169.406 1 1 0 0 0 .957.71h2.353v2h-2.35a1 1 0 0 0 -.957.71 2.234 2.234 0 0 1 -.169.406 1 1 0 0 0 .179 1.171l1.663 1.663-1.416 1.416-1.663-1.666a1 1 0 0 0 -1.171-.179 2.306 2.306 0 0 1 -.4.168 1 1 0 0 0 -.716.961v2.35h-2v-2.35a1 1 0 0 0 -.713-.958 2.262 2.262 0 0 1 -.4-.168 1 1 0 0 0 -1.171.179l-1.666 1.663-1.416-1.416 1.666-1.663a1 1 0 0 0 .179-1.171 2.262 2.262 0 0 1 -.168-.4 1 1 0 0 0 -.961-.716h-2.35z"/><path d="m32 24a4 4 0 1 0 -4-4 4 4 0 0 0 4 4zm0-6a2 2 0 1 1 -2 2 2 2 0 0 1 2-2z"/></g></g></svg>