<svg height="512" viewBox="0 0 512 512" width="512" xmlns="http://www.w3.org/2000/svg"><g><path d="m368 16v24h-112l-24 40h-198v-64z" class="product-icon-9bc9ff"/><g class="product-icon-9bc9ff"><circle cx="119" cy="200" r="8"/><circle cx="144" cy="200" r="8"/><circle cx="168" cy="200" r="8"/><path d="m136 256h87.44l-87.44 43.57z"/><path d="m384 176-96.33 48h-191.67v-24a24.006 24.006 0 0 1 24-24z"/><path d="m496 200v24h-400v-24a24.006 24.006 0 0 1 24-24h352a24.006 24.006 0 0 1 24 24z"/><path d="m136 256h248v128h-248z"/><path d="m408 256h48v208h-48z"/><path d="m136 256h248v128h-248z"/><path d="m408 256h48v208h-48z"/></g><g class="product-icon-1e81ce"><path d="m472 168h-80v-128a8 8 0 0 0 -8-8h-8v-16a8 8 0 0 0 -8-8h-336a8 8 0 0 0 -8 8v56h-8a8 8 0 0 0 -8 8v240a8 8 0 0 0 8 8h72v144a32.036 32.036 0 0 0 32 32h352a32.036 32.036 0 0 0 32-32v-272a32.036 32.036 0 0 0 -32-32zm-432-144h320v8h-104a8 8 0 0 0 -6.86 3.88l-21.67 36.12h-187.47zm48 176v112h-64v-224h208a8 8 0 0 0 6.86-3.88l21.67-36.12h115.47v120h-256a32.036 32.036 0 0 0 -32 32zm400 272a16.021 16.021 0 0 1 -16 16h-352a16.021 16.021 0 0 1 -16-16v-240h384zm0-256h-384v-16a16.021 16.021 0 0 1 16-16h352a16.021 16.021 0 0 1 16 16z"/><circle cx="119" cy="200" r="8"/><circle cx="144" cy="200" r="8"/><circle cx="168" cy="200" r="8"/><path d="m384 248h-248a8 8 0 0 0 -8 8v128a8 8 0 0 0 8 8h248a8 8 0 0 0 8-8v-128a8 8 0 0 0 -8-8zm-8 128h-232v-112h232z"/><path d="m456 248h-48a8 8 0 0 0 -8 8v208a8 8 0 0 0 8 8h48a8 8 0 0 0 8-8v-208a8 8 0 0 0 -8-8zm-8 208h-32v-192h32z"/><path d="m384 400h-248a8 8 0 0 0 0 16h248a8 8 0 0 0 0-16z"/><path d="m384 424h-248a8 8 0 0 0 0 16h248a8 8 0 0 0 0-16z"/><path d="m272 448h-136a8 8 0 0 0 0 16h136a8 8 0 0 0 0-16z"/><path d="m304 448h-8a8 8 0 0 0 0 16h8a8 8 0 0 0 0-16z"/></g></g></svg>