<svg height="512" viewBox="0 0 64 64" width="512" xmlns="http://www.w3.org/2000/svg"><g id="Wrieless_modem" data-name="Wrieless modem"><path d="m14 40h36a6 6 0 0 1 5.68 4.077l-3.123-18.735a4 4 0 0 0 -3.945-3.342h-33.224a4 4 0 0 0 -3.945 3.342l-3.123 18.735a6 6 0 0 1 5.68-4.077z" class="product-icon-9bc9ff"/><path d="m8 46 .32-1.923a6 6 0 0 0 -.32 1.923z" class="product-icon-9bc9ff"/><path d="m55.68 44.077.32 1.923a6 6 0 0 0 -.32-1.923z" class="product-icon-9bc9ff"/><path d="m55.68 44.077a6 6 0 0 0 -5.68-4.077h-36a6 6 0 0 0 -5.68 4.077l-.32 1.923a6 6 0 0 0 6 6h36a6 6 0 0 0 6-6zm-15.68 3.923h-10v-4h10zm5-1a1 1 0 1 1 1-1 1 1 0 0 1 -1 1zm6 0a1 1 0 1 1 1-1 1 1 0 0 1 -1 1z" class="product-icon-9bc9ff"/><circle cx="51" cy="46" class="product-icon-9bc9ff" r="1"/><circle cx="45" cy="46" class="product-icon-9bc9ff" r="1"/><circle cx="32" cy="17" class="product-icon-9bc9ff" r="1"/><g class="product-icon-1e81ce"><path d="m36.242 12.748a6.021 6.021 0 0 0 -8.484 0l1.406 1.422a4.118 4.118 0 0 1 5.672 0z"/><path d="m32 5a11.964 11.964 0 0 1 8.464 3.484l1.406-1.422a14.022 14.022 0 0 0 -19.74 0l1.406 1.422a11.962 11.962 0 0 1 8.464-3.484z"/><path d="m39.057 9.9a10.023 10.023 0 0 0 -14.113 0l1.407 1.422a8.021 8.021 0 0 1 11.3 0z"/><path d="m62 58h-27.184a3 3 0 0 0 -1.816-1.816v-3.184h17a7.008 7.008 0 0 0 7-7c0-.757-3.457-20.822-3.457-20.822a4.97 4.97 0 0 0 -4.592-4.148l-.887-17.1a2.069 2.069 0 0 0 -4.129.014l-.884 17.056h-22.1l-.887-17.068a2.069 2.069 0 0 0 -4.129.014l-.886 17.084a4.97 4.97 0 0 0 -4.592 4.148s-3.457 20.065-3.457 20.822a7.008 7.008 0 0 0 7 7h17v3.184a3 3 0 0 0 -1.816 1.816h-27.184v2h27.184a2.982 2.982 0 0 0 5.632 0h27.184zm-16.067-53.951h.134l.88 16.951h-1.894zm-28 0h.134l.88 16.951h-1.894zm-5.5 21.458a2.99 2.99 0 0 1 2.956-2.507h33.222a2.99 2.99 0 0 1 2.959 2.507l2.464 14.782a6.95 6.95 0 0 0 -4.034-1.289h-36a6.944 6.944 0 0 0 -4.034 1.29zm-3.433 20.493a5.006 5.006 0 0 1 5-5h36a5 5 0 0 1 0 10h-36a5.006 5.006 0 0 1 -5-5zm23 14a1 1 0 1 1 1-1 1 1 0 0 1 -1 1z"/><path d="m13 44h2v4h-2z"/><path d="m17 44h2v4h-2z"/><path d="m21 44h2v4h-2z"/><path d="m25 44h2v4h-2z"/><circle cx="51" cy="46" r="2"/><circle cx="45" cy="46" r="2"/><path d="m40 43h-10a1 1 0 0 0 -1 1v4a1 1 0 0 0 1 1h10a1 1 0 0 0 1-1v-4a1 1 0 0 0 -1-1zm-1 4h-8v-2h8z"/><circle cx="32" cy="17" r="2"/></g></g></svg>