<svg height="512" viewBox="0 0 512 512" width="512" xmlns="http://www.w3.org/2000/svg"><g><g class="product-icon-9bc9ff"><path d="m216 448-8 24h-64l-8-24z"/><path d="m296 304v120h-240v-144h104v-24h-112a16 16 0 0 0 -16 16v176h288v-144z"/><path d="m216 448-8 24h-64l-8-24z"/><path d="m496 40v24h-336v-24a24.006 24.006 0 0 1 24-24h288a24.006 24.006 0 0 1 24 24z"/><path d="m200 96h256v96h-256z"/><circle cx="183" cy="40" r="8"/><circle cx="208" cy="40" r="8"/><circle cx="232" cy="40" r="8"/><path d="m88 192v-24h-32v64h-32v-96h64v-24l48 40z"/><path d="m392 368v24h32v-64h32v96h-64v24l-48-40z"/><path d="m200 96h256v96h-256z"/></g><g class="product-icon-1e81ce"><path d="m64 464h-24a8 8 0 0 0 0 16h24a8 8 0 0 0 0-16z"/><path d="m96 464h-8a8 8 0 0 0 0 16h8a8 8 0 0 0 0-16z"/><path d="m472 8h-288a32.036 32.036 0 0 0 -32 32v208h-104a24.032 24.032 0 0 0 -24 24v168h-8a8 8 0 0 0 -8 8v32a24.032 24.032 0 0 0 24 24h288a24.032 24.032 0 0 0 24-24v-32a8 8 0 0 0 -8-8h-8v-128h144a32.036 32.036 0 0 0 32-32v-240a32.036 32.036 0 0 0 -32-32zm-318.99 280a32.058 32.058 0 0 0 30.99 24h104v104h-224v-128zm-113.01-16a8.011 8.011 0 0 1 8-8h104v8h-96a8 8 0 0 0 -8 8v144a8 8 0 0 0 8 8h240a8 8 0 0 0 8-8v-112h8v128h-272zm164.9 184-2.67 8h-52.46l-2.67-8zm123.1 24a8.011 8.011 0 0 1 -8 8h-288a8.011 8.011 0 0 1 -8-8v-24h106.23l6.18 18.53a8 8 0 0 0 7.59 5.47h64a8 8 0 0 0 7.59-5.47l6.18-18.53h106.23zm160-200a16.021 16.021 0 0 1 -16 16h-288a16.021 16.021 0 0 1 -16-16v-208h320zm0-224h-320v-16a16.021 16.021 0 0 1 16-16h288a16.021 16.021 0 0 1 16 16z"/><circle cx="183" cy="40" r="8"/><circle cx="208" cy="40" r="8"/><circle cx="232" cy="40" r="8"/><path d="m141.12 145.85-48-40a8 8 0 0 0 -13.12 6.15v16h-56a8 8 0 0 0 -8 8v96a8 8 0 0 0 8 8h32a8 8 0 0 0 8-8v-56h16v16a8 8 0 0 0 13.12 6.15l48-40a8.006 8.006 0 0 0 0-12.3zm-45.12 29.07v-6.92a8 8 0 0 0 -8-8h-32a8 8 0 0 0 -8 8v56h-16v-80h56a8 8 0 0 0 8-8v-6.92l27.5 22.92z"/><path d="m456 320h-32a8 8 0 0 0 -8 8v56h-16v-16a8 8 0 0 0 -13.12-6.15l-48 40a8.006 8.006 0 0 0 0 12.3l48 40a7.978 7.978 0 0 0 5.12 1.85 7.99 7.99 0 0 0 8-8v-16h56a8 8 0 0 0 8-8v-96a8 8 0 0 0 -8-8zm-8 96h-56a8 8 0 0 0 -8 8v6.92l-27.5-22.92 27.5-22.92v6.92a8 8 0 0 0 8 8h32a8 8 0 0 0 8-8v-56h16z"/><path d="m456 88h-256a8 8 0 0 0 -8 8v96a8 8 0 0 0 8 8h256a8 8 0 0 0 8-8v-96a8 8 0 0 0 -8-8zm-8 96h-240v-80h240z"/><path d="m456 208h-256a8 8 0 0 0 0 16h256a8 8 0 0 0 0-16z"/><path d="m432 232h-208a8 8 0 0 0 0 16h208a8 8 0 0 0 0-16z"/><path d="m392 256h-128a8 8 0 0 0 0 16h128a8 8 0 0 0 0-16z"/></g></g></svg>