<svg height="512" viewBox="0 0 64 64" width="512" xmlns="http://www.w3.org/2000/svg"><g id="WWW"><g class="product-icon-9bc9ff"><path d="m32 7a25.04 25.04 0 0 0 -23.68 17h9.47c2-9.89 7.61-17 14.21-17z"/><path d="m17.79 40h-9.47a25.04 25.04 0 0 0 23.68 17c-6.6 0-12.21-7.11-14.21-17z"/><path d="m44.57 24h1.64c-2-9.89-7.61-17-14.21-17v17z"/><path d="m19.43 40h-1.64c2 9.89 7.61 17 14.21 17v-17z"/><path d="m17.79 24h14.21v-17c-6.6 0-12.21 7.11-14.21 17z"/><path d="m32 7c6.6 0 12.21 7.11 14.21 17h9.47a25.04 25.04 0 0 0 -23.68-17z"/><path d="m32 57a25.04 25.04 0 0 0 23.68-17h-9.47c-2 9.89-7.61 17-14.21 17z"/><path d="m46.21 40h-14.21v17c6.6 0 12.21-7.11 14.21-17z"/></g><path d="m32 2a30 30 0 1 0 30 30 30.034 30.034 0 0 0 -30-30zm0 58a28 28 0 1 1 28-28 28.032 28.032 0 0 1 -28 28z" class="product-icon-1e81ce"/><path d="m32 6a26 26 0 1 0 26 26 26.03 26.03 0 0 0 -26-26zm-12.956 35h11.956v14.932c-5.295-.652-9.939-6.445-11.956-14.932zm13.956 14.932v-14.932h11.956c-2.017 8.487-6.656 14.28-11.956 14.932zm-23.956-16.932a23.989 23.989 0 0 1 0-14h45.912a23.989 23.989 0 0 1 0 14zm35.912-16h-11.956v-14.932c5.3.652 9.939 6.445 11.956 14.932zm-13.956-14.932v14.932h-11.956c2.017-8.487 6.661-14.28 11.956-14.932zm23.242 14.932h-7.236c-1.337-5.943-3.916-10.722-7.177-13.682a24.116 24.116 0 0 1 14.413 13.682zm-30.071-13.682c-3.261 2.96-5.84 7.739-7.177 13.682h-7.236a24.116 24.116 0 0 1 14.413-13.682zm-14.413 31.682h7.236c1.337 5.943 3.916 10.722 7.177 13.682a24.116 24.116 0 0 1 -14.413-13.682zm30.071 13.682c3.261-2.96 5.84-7.739 7.177-13.682h7.236a24.116 24.116 0 0 1 -14.413 13.682z" class="product-icon-1e81ce"/><path d="m37.124 27.008a1 1 0 0 0 -1.116.868l-.591 4.724-2.517-5.047a1.042 1.042 0 0 0 -1.79 0l-2.527 5.047-.591-4.723a1 1 0 1 0 -1.984.248l1 8a1 1 0 0 0 1.887.323l3.105-6.212 3.1 6.211a1 1 0 0 0 .9.553 1.08 1.08 0 0 0 .169-.014 1 1 0 0 0 .823-.862l1-8a1 1 0 0 0 -.868-1.116z" class="product-icon-1e81ce"/><path d="m52.124 27.008a1 1 0 0 0 -1.116.868l-.591 4.724-2.517-5.047a1.042 1.042 0 0 0 -1.79 0l-2.527 5.047-.591-4.723a1 1 0 0 0 -1.984.248l1 8a1 1 0 0 0 1.887.323l3.105-6.212 3.1 6.211a1 1 0 0 0 .9.553 1.08 1.08 0 0 0 .169-.014 1 1 0 0 0 .823-.862l1-8a1 1 0 0 0 -.868-1.116z" class="product-icon-1e81ce"/><path d="m22.124 27.008a1 1 0 0 0 -1.116.868l-.591 4.724-2.517-5.047a1.042 1.042 0 0 0 -1.79 0l-2.527 5.047-.591-4.723a1 1 0 0 0 -1.984.248l1 8a1 1 0 0 0 1.887.323l3.105-6.212 3.105 6.211a1 1 0 0 0 .895.553 1.08 1.08 0 0 0 .169-.014 1 1 0 0 0 .823-.862l1-8a1 1 0 0 0 -.868-1.116z" class="product-icon-1e81ce"/></g></svg>