<?xml version="1.0" encoding="utf-8"?>
<!-- Generator: Adobe Illustrator 25.3.1, SVG Export Plug-In . SVG Version: 6.00 Build 0)  -->
<svg height="512" width="512" xmlns="http://www.w3.org/2000/svg" xmlns:xlink="http://www.w3.org/1999/xlink" x="0px" y="0px"
	 viewBox="0 0 130 130" style="enable-background:new 0 0 130 130;" xml:space="preserve">

<g>
	<path class="st0" d="M36.7,54.4c0,1.6,0.2,2.9,0.5,3.8c0.3,1,0.8,2,1.4,3.1c0.2,0.3,0.3,0.7,0.3,1c0,0.4-0.3,0.9-0.8,1.3l-2.7,1.8
		c-0.4,0.3-0.8,0.4-1.1,0.4c-0.4,0-0.9-0.2-1.3-0.6c-0.6-0.6-1.1-1.3-1.5-2s-0.9-1.5-1.3-2.5c-3.4,4-7.6,6-12.7,6
		c-3.6,0-6.5-1-8.6-3.1s-3.2-4.8-3.2-8.3c0-3.7,1.3-6.6,3.9-8.9c2.6-2.2,6.1-3.4,10.6-3.4c1.5,0,3,0.1,4.6,0.3s3.2,0.6,5,1v-3.1
		c0-3.3-0.7-5.6-2-6.9c-1.4-1.3-3.7-2-7-2c-1.5,0-3.1,0.2-4.7,0.6c-1.6,0.4-3.1,0.9-4.7,1.5c-0.7,0.3-1.2,0.5-1.5,0.6
		s-0.5,0.1-0.7,0.1c-0.6,0-0.9-0.4-0.9-1.3v-2.1c0-0.7,0.1-1.2,0.3-1.5c0-0.6,0.4-0.9,1-1.2c1.5-0.8,3.3-1.4,5.4-1.9
		c2.1-0.6,4.4-0.8,6.7-0.8c5.1,0,8.9,1.2,11.3,3.5s3.6,5.9,3.6,10.6L36.7,54.4L36.7,54.4z M19.2,60.9c1.4,0,2.9-0.3,4.5-0.8
		c1.5-0.5,2.9-1.5,4.1-2.8c0.7-0.8,1.2-1.7,1.5-2.8c0.3-1,0.4-2.3,0.4-3.8v-1.8c-1.3-0.3-2.6-0.6-4-0.7c-1.4-0.2-2.7-0.3-4.1-0.3
		c-2.9,0-5,0.6-6.4,1.7c-1.4,1.2-2.1,2.8-2.1,5c0,2,0.5,3.5,1.6,4.6C15.7,60.4,17.2,60.9,19.2,60.9z M53.8,65.6
		c-0.8,0-1.3-0.1-1.6-0.4s-0.6-0.9-0.9-1.7L41.1,30.1c-0.3-0.9-0.4-1.4-0.4-1.7c0-0.7,0.3-1.1,1-1.1H46c0.8,0,1.4,0.1,1.7,0.4
		s0.6,0.9,0.9,1.7L55.8,58l6.7-28.6c0.2-0.9,0.5-1.4,0.8-1.7c0.3-0.3,1-0.4,1.7-0.4h3.5c0.8,0,1.4,0.1,1.7,0.4
		c0.3,0.3,0.6,0.9,0.8,1.7l6.8,28.9l7.5-28.9c0.3-0.9,0.6-1.4,0.9-1.7c0.3-0.3,0.9-0.4,1.7-0.4h4c0.7,0,1.1,0.3,1.1,1.1
		c0,0.2,0,0.4-0.1,0.7c0,0.3-0.1,0.6-0.3,1.1L82.2,63.5c-0.3,0.9-0.6,1.4-0.9,1.7c-0.3,0.3-0.9,0.4-1.6,0.4H76
		c-0.8,0-1.4-0.1-1.7-0.4c-0.3-0.3-0.6-0.9-0.8-1.7l-6.7-27.8l-6.6,27.8c-0.2,0.9-0.5,1.4-0.8,1.7s-1,0.4-1.7,0.4
		C57.5,65.6,53.8,65.6,53.8,65.6z M109.3,66.8c-2.2,0-4.5-0.3-6.6-0.8c-2.2-0.5-3.8-1.1-5-1.7c-0.7-0.4-1.2-0.8-1.3-1.2
		c-0.2-0.4-0.3-0.8-0.3-1.2v-2.2c0-0.9,0.3-1.3,1-1.3c0.3,0,0.5,0,0.8,0.1s0.6,0.3,1.1,0.4c1.5,0.6,3.1,1.2,4.7,1.5
		c1.7,0.3,3.4,0.5,5.1,0.5c2.7,0,4.8-0.5,6.3-1.4c1.5-1,2.2-2.3,2.2-4.1c0-1.2-0.4-2.2-1.2-3c-0.8-0.8-2.2-1.5-4.4-2.2l-6.3-1.9
		c-3.1-1-5.5-2.5-6.9-4.4s-2.2-4-2.2-6.3c0-1.8,0.4-3.4,1.2-4.8c0.8-1.4,1.8-2.6,3.1-3.5c1.3-1,2.8-1.7,4.5-2.2s3.5-0.7,5.4-0.7
		c1,0,1.9,0,2.9,0.2c1,0.1,1.9,0.3,2.8,0.5s1.7,0.4,2.5,0.7c0.8,0.3,1.4,0.5,1.8,0.8c0.6,0.3,1,0.7,1.3,1.1c0.3,0.3,0.4,0.8,0.4,1.4
		v2c0,0.9-0.3,1.4-1,1.4c-0.3,0-0.9-0.2-1.6-0.5c-2.5-1.1-5.2-1.7-8.3-1.7c-2.5,0-4.4,0.4-5.7,1.2c-1.3,0.8-2,2.1-2,3.8
		c0,1.2,0.4,2.2,1.3,3.1c0.9,0.8,2.5,1.6,4.7,2.4l6.1,1.9c3.1,1,5.4,2.4,6.7,4.1s2,3.8,2,6c0,1.9-0.4,3.5-1.1,5
		c-0.8,1.5-1.8,2.8-3.1,3.8c-1.3,1.1-2.9,1.9-4.8,2.4S111.5,66.8,109.3,66.8z" fill='#252F3E'/>
	<path class="st1" d="M117.5,87.7c-14.2,10.5-34.8,16.1-52.6,16.1c-24.9,0-47.3-9.2-64.2-24.5c-1.3-1.2-0.1-2.9,1.5-1.9
		c18.3,10.6,40.9,17,64.2,17c15.8,0,33.1-3.3,49-10C117.8,83.4,119.8,86,117.5,87.7z M123.4,81c-1.8-2.3-12-1.1-16.6-0.6
		c-1.4,0.2-1.6-1-0.3-1.9c8.1-5.7,21.4-4.1,23-2.2c1.5,1.9-0.4,15.3-8,21.7c-1.2,1-2.3,0.5-1.8-0.8C121.3,92.9,125.2,83.3,123.4,81z
		" fill='#FF9900'/>
</g>
</svg>
