<?xml version="1.0" encoding="utf-8"?>
<!-- Generator: Adobe Illustrator 25.3.1, SVG Export Plug-In . SVG Version: 6.00 Build 0)  -->
<svg height="512" width="512" xmlns="http://www.w3.org/2000/svg" xmlns:xlink="http://www.w3.org/1999/xlink" x="0px" y="0px"
	 viewBox="0 0 130 130" style="enable-background:new 0 0 130 130;fill='#1254B5;" xml:space="preserve">

<g>
	<g>
		<path fill='none' d="M99.6,29.7V28h-37c-1.2,0-2.2-1-2.2-2.2v-8.7c0-1.2,1-2.2,2.2-2.2h37v-1.6c0-1.2-1-2.2-2.2-2.2H7.2
			c-1.2,0-2.2,1-2.2,2.2v16.3c0,1.2,1,2.2,2.2,2.2h4.3h81.6h4.3C98.6,31.9,99.6,30.9,99.6,29.7z M17.4,28.1c-3.7,0-6.6-3-6.6-6.6
			s3-6.6,6.6-6.6c3.7,0,6.6,3,6.6,6.6S21,28.1,17.4,28.1z M49.2,23.7H31c-1.2,0-2.2-1-2.2-2.2s1-2.2,2.2-2.2h18.1
			c1.2,0,2.2,1,2.2,2.2S50.4,23.7,49.2,23.7z"/>
		<path fill='none' d="M17.4,19.2c-1.3,0-2.3,1-2.3,2.3s1,2.3,2.3,2.3c1.3,0,2.3-1,2.3-2.3S18.6,19.2,17.4,19.2z"/>
		<rect x="64.7" y="19.3" fill='none' width="34.8" height="4.4"/>
		<path fill='none' d="M17.4,95.7c-3.7,0-6.6-3-6.6-6.6c0-3.7,3-6.6,6.6-6.6c3.7,0,6.6,3,6.6,6.6S21,95.7,17.4,95.7z"/>
		<path fill='none' d="M17.4,61.9c-3.7,0-6.6-3-6.6-6.6c0-3.7,3-6.6,6.6-6.6c3.7,0,6.6,3,6.6,6.6S21,61.9,17.4,61.9z M49.2,57.4H31
			c-1.2,0-2.2-1-2.2-2.2s1-2.2,2.2-2.2h18.1c1.2,0,2.2,1,2.2,2.2C51.3,56.5,50.4,57.4,49.2,57.4z"/>
		<path fill='none' d="M17.4,86.7c-1.3,0-2.3,1-2.3,2.3s1,2.3,2.3,2.3c1.3,0,2.3-1,2.3-2.3C19.7,87.8,18.6,86.7,17.4,86.7z"/>
		<path fill='none' d="M17.4,53c-1.3,0-2.3,1-2.3,2.3s1,2.3,2.3,2.3c1.3,0,2.3-1,2.3-2.3C19.7,54,18.6,53,17.4,53z"/>
		<path fill='#1254B5' d="M11.5,31.9H7.2c-1.2,0-2.2-1-2.2-2.2V13.4c0-1.2,1-2.2,2.2-2.2h90.1c1.2,0,2.2,1,2.2,2.2V15h2.2
			c1.2,0,2.2,1,2.2,2.2v-3.8c0-3.6-2.9-6.5-6.5-6.5H7.2c-3.6,0-6.5,2.9-6.5,6.5v16.3c0,3.6,2.9,6.5,6.5,6.5h2.1V34
			C9.3,32.9,10.3,31.9,11.5,31.9z"/>
		<path fill='#1254B5' d="M101.7,28h-2.2v1.6c0,1.2-1,2.2-2.2,2.2H93c1.2,0,2.2,1,2.2,2.2v2.2h2.1c3.6,0,6.5-2.9,6.5-6.5v-3.8
			C103.9,27,102.9,28,101.7,28z"/>
		<path fill='#1254B5' d="M17.4,14.9c-3.7,0-6.6,3-6.6,6.6s3,6.6,6.6,6.6c3.7,0,6.6-3,6.6-6.6S21,14.9,17.4,14.9z M17.4,23.8
			c-1.3,0-2.3-1-2.3-2.3s1-2.3,2.3-2.3c1.3,0,2.3,1,2.3,2.3S18.6,23.8,17.4,23.8z"/>
		<path fill='#1254B5' d="M49.2,19.4H31c-1.2,0-2.2,1-2.2,2.2s1,2.2,2.2,2.2h18.1c1.2,0,2.2-1,2.2-2.2C51.3,20.3,50.4,19.4,49.2,19.4z"
			/>
		<path fill='#1254B5' d="M60.4,17.2v8.7c0,1.2,1,2.2,2.2,2.2h37v-4.3H64.7v-4.4h34.8V15h-37C61.4,15,60.4,16,60.4,17.2z"/>
		<path fill='#1254B5' d="M101.7,15h-2.2v4.3v4.4V28h2.2c1.2,0,2.2-1,2.2-2.2v-8.7C103.9,16,102.9,15,101.7,15z"/>
		<rect x="90.9" y="36.2" fill='#1254B5' width="4.3" height="2.2"/>
		<rect x="9.3" y="36.2" fill='#1254B5' width="4.3" height="4.4"/>
		<path fill='#1254B5' d="M90.9,36.2h4.3V34c0-1.2-1-2.2-2.2-2.2H11.5c-1.2,0-2.2,1-2.2,2.2v2.2h4.3H90.9z"/>
		<path fill='#1254B5' d="M11.5,65.7H7.2C6,65.7,5,64.6,5,63.4V47.1c0-1.2,1-2.2,2.2-2.2h4.3c-1.2,0-2.2-1-2.2-2.2v-2.2H7.2
			c-3.6,0-6.5,2.9-6.5,6.5v16.3c0,3.6,2.9,6.5,6.5,6.5h2.1l1.4-2.2C10.7,66.6,10.3,65.7,11.5,65.7z"/>
		<path fill='#1254B5' d="M17.4,48.6c-3.7,0-6.6,3-6.6,6.6c0,3.7,3,6.6,6.6,6.6c3.7,0,6.6-3,6.6-6.6S21,48.6,17.4,48.6z M17.4,57.6
			c-1.3,0-2.3-1-2.3-2.3s1-2.3,2.3-2.3c1.3,0,2.3,1,2.3,2.3C19.7,56.6,18.6,57.6,17.4,57.6z"/>
		<path fill='#1254B5' d="M49.2,53.1H31c-1.2,0-2.2,1-2.2,2.2s1,2.2,2.2,2.2h18.1c1.2,0,2.2-1,2.2-2.2S50.4,53.1,49.2,53.1z"/>
		<rect x="9.3" y="70" fill='#1254B5' width="4.3" height="4.4"/>
		<path fill='#1254B5' d="M54.1,70l1.5-4.3H11.5c-1.2,0-2.2,1-2.2,2.2V70h4.3H54.1z"/>
		<path fill='#1254B5' d="M11.5,99.4H7.2c-1.2,0-2.2-1-2.2-2.2V80.9c0-1.2,1-2.2,2.2-2.2h4.3c-1.2,0-2.2-1-2.2-2.2v-2.2H7.2
			c-3.6,0-6.5,2.9-6.5,6.5v16.3c0,3.6,2.9,6.5,6.5,6.5h2.1v-2.2C9.3,100.4,10.3,99.4,11.5,99.4z"/>
		<path fill='#1254B5' d="M11.5,78.7h39.7l1.5-4.3h-39H9.3v2.2C9.3,77.7,10.3,78.7,11.5,78.7z"/>
		<path fill='#1254B5' d="M17.4,82.4c-3.7,0-6.6,3-6.6,6.6s3,6.6,6.6,6.6c3.7,0,6.6-3,6.6-6.6S21,82.4,17.4,82.4z M17.4,91.4
			c-1.3,0-2.3-1-2.3-2.3s1-2.3,2.3-2.3c1.3,0,2.3,1,2.3,2.3C19.7,90.3,18.6,91.4,17.4,91.4z"/>
		<path fill='#1254B5' d="M13.6,108.1v-4.4H9.3v6.6c0,1.2,1,2.2,2.2,2.2h28.3l1.5-4.3L13.6,108.1L13.6,108.1z"/>
		<path fill='#1254B5' d="M42.7,103.7l1.5-4.3H11.5c-1.2,0-2.2,1-2.2,2.2v2.2h4.3L42.7,103.7L42.7,103.7z"/>
		<path d="M70.2,38.4L70.2,38.4L70.2,38.4z"/>
		<path d="M70.2,38.4L70.2,38.4L70.2,38.4L70.2,38.4L70.2,38.4L70.2,38.4z"/>
		<path d="M70.2,38.4L70.2,38.4L70.2,38.4z"/>
		<path d="M70.2,38.4L70.2,38.4L70.2,38.4z"/>
		<polygon points="90.9,38.4 95.2,38.4 95.2,38.4 		"/>
	</g>
	<g>
		
			<linearGradient id="SVGID_1_" gradientUnits="userSpaceOnUse" x1="-1022.9158" y1="1.6862" x2="-1039.8121" y2="51.6019" gradientTransform="matrix(1.5625 0 0 1.5625 1679.6875 43.75)">
			<stop  offset="0" style="stop-color:#114A8B"/>
			<stop  offset="1" style="stop-color:#0669BC"/>
		</linearGradient>
		<path fill='url(#SVGID_1_)' d="M72.1,40.4h25.4l-26.4,78.2c-0.6,1.6-2.1,2.8-3.9,2.8H47.5c-2.2,0-4-1.8-4-4c0-0.4,0.1-0.9,0.2-1.3l24.6-72.9
			C68.8,41.5,70.3,40.4,72.1,40.4L72.1,40.4z"/>
		<path fill='#0078D4' d="M109,92.8H68.7c-1,0-1.9,0.8-1.9,1.9c0,0.5,0.2,1,0.6,1.4l25.9,24.2c0.7,0.7,1.7,1.1,2.8,1.1h22.8L109,92.8z"
			/>
		
			<linearGradient id="SVGID_2_" gradientUnits="userSpaceOnUse" x1="-1017.7499" y1="24.9341" x2="-1021.6499" y2="26.2528" gradientTransform="matrix(1.5625 0 0 1.5625 1679.6875 43.75)">
			<stop  offset="0" style="stop-color:#000000;stop-opacity:0.3"/>
			<stop  offset="7.100000e-02" style="stop-color:#000000;stop-opacity:0.2"/>
			<stop  offset="0.321" style="stop-color:#000000;stop-opacity:0.1"/>
			<stop  offset="0.623" style="stop-color:#000000;stop-opacity:5.000000e-02"/>
			<stop  offset="1" style="stop-color:#000000;stop-opacity:0"/>
		</linearGradient>
		<path fill='url(#SVGID_2_)' d="M72.1,40.4L72.1,40.4c-1.8,0-3.3,1.1-3.9,2.8l-24.5,72.7c-0.7,2.1,0.3,4.4,2.4,5.2c0.4,0.2,0.9,0.2,1.4,0.2
			h20.3c1.6-0.3,2.8-1.4,3.3-2.8L76,104l17.5,16.3c0.7,0.6,1.7,0.9,2.6,0.9h22.7l-9.9-28.5H79.8l17.7-52.3"/>
		
			<linearGradient id="SVGID_3_" gradientUnits="userSpaceOnUse" x1="-1019.6924" y1="0.1707" x2="-1001.1456" y2="49.5835" gradientTransform="matrix(1.5625 0 0 1.5625 1679.6875 43.75)">
			<stop  offset="0" style="stop-color:#3CCBF4"/>
			<stop  offset="1" style="stop-color:#2892DF"/>
		</linearGradient>
		<path fill='url(#SVGID_3_)' d="M104.5,43.1c-0.6-1.6-2.1-2.7-3.8-2.7H72.4c1.7,0,3.3,1.1,3.8,2.7l24.6,72.9c0.7,2.1-0.4,4.4-2.5,5.1
			c-0.4,0.1-0.9,0.2-1.3,0.2h28.3c2.2,0,4-1.8,4-4c0-0.4-0.1-0.9-0.2-1.3L104.5,43.1z"/>
	</g>
	<path fill='#1254B5' d="M11.5,44.9c0,0,51.1,0,51.1,0c0.1,0,0.1-0.3,0.1-0.4c0.5-1.4,0.9-2.8,2-3.9c0,0,0.1-0.1,0.1-0.1
		c0,0-51.2,0-51.2,0H9.3v2.2C9.3,44,10.3,44.9,11.5,44.9z"/>
</g>
<path fill='#1254B5' d="M31,86.9c-1.2,0-2.2,1-2.2,2.2s1,2.2,2.2,2.2h15.9l1.5-4.3L31,86.9L31,86.9z"/>
</svg>
