<?xml version="1.0" encoding="utf-8"?>
<!-- Generator: Adobe Illustrator 25.3.1, SVG Export Plug-In . SVG Version: 6.00 Build 0)  -->
<svg height="512" width="512"  xmlns="http://www.w3.org/2000/svg" xmlns:xlink="http://www.w3.org/1999/xlink" x="0px" y="0px"
	 viewBox="0 0 130 130" style="enable-background:new 0 0 130 130;" xml:space="preserve">

<g>
	
		<linearGradient id="SVGID_1_" gradientUnits="userSpaceOnUse" x1="-1038.2074" y1="149.3704" x2="-1063.4644" y2="74.755" gradientTransform="matrix(1.5625 0 0 -1.5625 1679.6875 246.875)">
		<stop  offset="0" style="stop-color:#114A8B"/>
		<stop  offset="1" style="stop-color:#0669BC"/>
	</linearGradient>
	<path d="M43.6,4.5h38L42.2,121.4c-0.8,2.5-3.1,4.1-5.7,4.1H6.8c-3.3,0-6-2.7-6-6c0-0.7,0.1-1.3,0.3-1.9l36.8-109
		C38.7,6.2,41,4.5,43.6,4.5L43.6,4.5z" fill='url(#SVGID_1_)'/>
	<path  d="M98.8,82.9H38.6c-1.5,0-2.8,1.2-2.8,2.8c0,0.8,0.3,1.5,0.9,2l38.7,36.1c1.1,1,2.6,1.6,4.2,1.6h34.1L98.8,82.9z
		" fill='#0078D4'/>
	
		<linearGradient id="SVGID_2_" gradientUnits="userSpaceOnUse" x1="-1030.3457" y1="114.6076" x2="-1036.1879" y2="112.6322" gradientTransform="matrix(1.5625 0 0 -1.5625 1679.6875 246.875)">
		<stop  offset="0" style="stop-color:#000000;stop-opacity:0.3"/>
		<stop  offset="7.100000e-02" style="stop-color:#000000;stop-opacity:0.2"/>
		<stop  offset="0.321" style="stop-color:#000000;stop-opacity:0.1"/>
		<stop  offset="0.623" style="stop-color:#000000;stop-opacity:5.000000e-02"/>
		<stop  offset="1" style="stop-color:#000000;stop-opacity:0"/>
	</linearGradient>
	<path  d="M43.6,4.5c-2.6,0-5,1.7-5.8,4.2L1.1,117.4c-1.1,3.1,0.5,6.6,3.7,7.7c0.7,0.2,1.3,0.4,2.1,0.4h30.3
		c2.3-0.4,4.2-2,5-4.2l7.3-21.6l26.1,24.4c1.1,0.9,2.5,1.4,3.9,1.4h34L98.6,82.9H55.1L81.7,4.5H43.6L43.6,4.5z" fill='url(#SVGID_2_)' />
	
		<linearGradient id="SVGID_3_" gradientUnits="userSpaceOnUse" x1="-1033.3826" y1="151.6222" x2="-1005.6581" y2="77.7589" gradientTransform="matrix(1.5625 0 0 -1.5625 1679.6875 246.875)">
		<stop  offset="0" style="stop-color:#3CCBF4"/>
		<stop  offset="1" style="stop-color:#2892DF"/>
	</linearGradient>
	<path  d="M92.1,8.6c-0.8-2.5-3.1-4.1-5.7-4.1H44c2.6,0,4.9,1.6,5.7,4.1l36.8,108.9c1.1,3.2-0.6,6.6-3.8,7.7
		c-0.6,0.2-1.3,0.3-1.9,0.3h42.3c3.3,0,6-2.7,6-6c0-0.7-0.1-1.3-0.3-1.9L92.1,8.6z" fill='url(#SVGID_3_)'/>
</g>
</svg>
