<?xml version="1.0" encoding="utf-8"?>
<!-- Generator: Adobe Illustrator 25.3.1, SVG Export Plug-In . SVG Version: 6.00 Build 0)  -->
<svg height="512" width="512" xmlns="http://www.w3.org/2000/svg" xmlns:xlink="http://www.w3.org/1999/xlink" x="0px" y="0px"
	 viewBox="0 0 130 130" style="enable-background:new 0 0 130 130; fill:#1254B5;" xml:space="preserve">

<g id="Layer_3">
	<g>
		<g>
			<path  d="M107.1,108.2H26.2C12,108.2,0.4,96.7,0.4,82.5c0-13.9,11.1-25.3,24.8-25.8c0-0.5,0-0.8,0-1.3
				c0-11.9,9.6-21.5,21.5-21.5c3.1,0,6.2,0.7,9.1,2c6-8.8,16.2-14,26.8-14c17.9,0,32.5,14.7,32.5,32.5c0,3.4-0.5,6.7-1.5,9.8
				c9.3,2.8,16,11.6,16,21.5C129.6,98.1,119.5,108.2,107.1,108.2z M26.2,62.1c-11.3,0-20.4,9.1-20.4,20.4s9.1,20.4,20.4,20.4h80.9
				c9.5,0,17.1-7.7,17.1-17.1c0-8.5-6.2-15.7-14.5-17c-0.8-0.2-1.5-0.7-2-1.3c-0.3-0.7-0.5-1.6-0.2-2.3c1.5-3.4,2.1-7,2.1-10.8
				c0-15-12.2-27.1-27.2-27.1c-9.6,0-18.6,5.2-23.5,13.5c-0.3,0.7-1,1.1-1.6,1.3c-0.7,0.2-1.5,0-2.1-0.3c-2.6-1.6-5.5-2.4-8.6-2.4
				c-9,0-16.2,7.2-16.2,16.2c0,1.1,0.2,2.3,0.3,3.4c0.2,0.8,0,1.8-0.7,2.3c-0.5,0.7-1.5,1-2.3,0.8C27.5,62.1,26.8,62.1,26.2,62.1z"
				/>
			<path  d="M100.1,98.4H75.6c-1.6,0-2.9-1.3-2.9-2.9V76.1c0-1.6,1.3-2.9,2.9-2.9h7c0.3,0,0.7,0.2,0.8,0.5l2,3.3h14.7
				c1.6,0,2.9,1.3,2.9,2.9v15.7C102.9,97.1,101.7,98.4,100.1,98.4z M75.6,75.1c-0.5,0-1,0.5-1,1v19.4c0,0.5,0.5,1,1,1h24.5
				c0.5,0,1-0.5,1-1V79.8c0-0.5-0.5-1-1-1H84.9c-0.3,0-0.7-0.2-0.8-0.5l-2-3.3H75.6L75.6,75.1z"/>
			<path  d="M84.9,79H74.1c-0.5,0-1-0.5-1-1c0-0.5,0.5-1,1-1h10.8c0.5,0,1,0.5,1,1C85.9,78.5,85.4,79,84.9,79z"/>
			<path  d="M98.9,95.2H88.7c-0.5,0-1-0.5-1-1v-3.1c0-0.5,0.5-1,1-1h10.3c0.5,0,1,0.5,1,1v3.1
				C99.9,94.9,99.6,95.2,98.9,95.2z M89.6,93.4h8.5v-1.3h-8.5V93.4z"/>
			<path  d="M65.7,73H41.2c-1.6,0-2.9-1.3-2.9-2.9V50.8c0-1.6,1.3-2.9,2.9-2.9h7c0.3,0,0.7,0.2,0.8,0.5l2,3.3h14.7
				c1.6,0,2.9,1.3,2.9,2.9v15.7C68.6,71.7,67.3,73,65.7,73z M41.3,49.8c-0.5,0-1,0.5-1,1v19.4c0,0.5,0.5,1,1,1h24.5c0.5,0,1-0.5,1-1
				V54.6c0-0.5-0.5-1-1-1H50.6c-0.3,0-0.7-0.2-0.8-0.5l-2-3.3H41.3z"/>
			<path  d="M50.5,53.6H39.4c-0.5,0-1-0.5-1-1c0-0.5,0.5-1,1-1h11.1c0.5,0,1,0.5,1,1C51.5,53.1,51,53.6,50.5,53.6z"/>
			<path  d="M64.7,69.9H54.4c-0.5,0-1-0.5-1-1v-3.1c0-0.5,0.5-1,1-1h10.3c0.5,0,1,0.5,1,1v3.1
				C65.7,69.4,65.2,69.9,64.7,69.9z M55.2,67.9h8.5v-1.3h-8.5V67.9z"/>
			<path  d="M89.5,67.9v3.8c0,0.5,0.5,1,1,1c0.5,0,1-0.5,1-1v-3.8c0-0.5-0.5-1-1-1C90,67,89.5,67.4,89.5,67.9z
				 M87.4,62.6c1,0.3,1.6,1,2,2c0.2,0.5,0.7,0.8,1.1,0.5c0.5-0.2,0.8-0.7,0.5-1.1c-0.5-1.5-1.6-2.6-3.1-3.1c-0.5-0.2-1,0.2-1.1,0.7
				C86.5,61.9,86.9,62.4,87.4,62.6z M80.2,62.4h3.8c0.5,0,1-0.5,1-1c0-0.5-0.5-1-1-1h-3.8c-0.5,0-1,0.5-1,1
				C79.4,61.9,79.7,62.4,80.2,62.4z M72.8,62.4h3.8c0.5,0,1-0.5,1-1c0-0.5-0.5-1-1-1h-3.8c-0.5,0-1,0.5-1,1
				C71.9,61.9,72.3,62.4,72.8,62.4z"/>
			<path  d="M52.4,81v-3.8c0-0.5-0.5-1-1-1c-0.5,0-1,0.5-1,1V81c0,0.5,0.5,1,1,1C51.9,82,52.4,81.5,52.4,81z M54.6,86.4
				c-1-0.3-1.6-1-2-2c-0.2-0.5-0.7-0.8-1.1-0.5c-0.5,0.2-0.8,0.7-0.5,1.1c0.5,1.5,1.6,2.6,3.1,3.1c0.5,0.2,1-0.2,1.1-0.7
				C55.2,87,55,86.5,54.6,86.4z M61.6,86.5h-3.8c-0.5,0-1,0.5-1,1s0.5,1,1,1h3.8c0.5,0,1-0.5,1-1S62.2,86.5,61.6,86.5z M69.1,86.5
				h-3.8c-0.5,0-1,0.5-1,1s0.5,1,1,1h3.8c0.5,0,1-0.5,1-1S69.6,86.5,69.1,86.5z"/>
		</g>
	</g>
</g>
</svg>
