<?xml version="1.0" encoding="utf-8"?>
<!-- Generator: Adobe Illustrator 25.3.1, SVG Export Plug-In . SVG Version: 6.00 Build 0)  -->
<svg height="512" width="512" xmlns="http://www.w3.org/2000/svg" xmlns:xlink="http://www.w3.org/1999/xlink" x="0px" y="0px"
	 viewBox="0 0 130 130" style="enable-background:new 0 0 130 130; fill:#1254B5; " xml:space="preserve">

<g>
	<path  d="M98.8,48.3H31.2c-3.3,0-5.9-2.6-5.9-5.9V30.3c0-3.3,2.6-5.9,5.9-5.9h67.7c3.3,0,5.9,2.6,5.9,5.9v12.2
		C104.7,45.7,102.1,48.3,98.8,48.3z M31.2,29.4c-0.5,0-0.8,0.3-0.8,0.8v12.2c0,0.5,0.3,0.8,0.8,0.8h67.7c0.5,0,0.8-0.3,0.8-0.8V30.3
		c0-0.5-0.3-0.8-0.8-0.8H31.2z"/>
	<path  d="M38.8,42.3c-3.3,0-5.9-2.6-5.9-5.9c0-3.3,2.6-5.9,5.9-5.9c1.3,0,2.4,1.1,2.4,2.4c0,1.3-1.1,2.4-2.4,2.4
		c-0.5,0-0.8,0.3-0.8,0.8s0.3,0.8,0.8,0.8c1.3,0,2.4,1.1,2.4,2.4C41.2,41.2,40.1,42.3,38.8,42.3z"/>
	<path  d="M62.7,38.9H49.1c-1.3,0-2.4-1.1-2.4-2.4c0-1.3,1.1-2.4,2.4-2.4h13.7c1.3,0,2.4,1.1,2.4,2.4
		C65.2,37.7,64,38.9,62.7,38.9z"/>
	<path  d="M95.6,58.2H34.4c-1.3,0-2.4-1.1-2.4-2.4v-9.9c0-1.3,1.1-2.4,2.4-2.4h61.3c1.3,0,2.4,1.1,2.4,2.4v9.9
		C98.2,57.1,97.1,58.2,95.6,58.2z M36.8,53.2h56.3v-4.9H36.8V53.2z"/>
	<path  d="M98.8,77H31.2c-3.3,0-5.9-2.6-5.9-5.9V58.9c0-3.3,2.6-5.9,5.9-5.9h67.7c3.3,0,5.9,2.6,5.9,5.9v12.2
		C104.7,74.4,102.1,77,98.8,77z M31.2,58.2c-0.5,0-0.8,0.3-0.8,0.8v12.2c0,0.5,0.3,0.8,0.8,0.8h67.7c0.5,0,0.8-0.3,0.8-0.8V59.1
		c0-0.5-0.3-0.8-0.8-0.8C98.8,58.2,31.2,58.2,31.2,58.2z"/>
	<path  d="M38.8,70.9c-3.3,0-5.9-2.6-5.9-5.9c0-3.3,2.6-5.9,5.9-5.9c1.3,0,2.4,1.1,2.4,2.4c0,1.3-1.1,2.4-2.4,2.4
		c-0.5,0-0.8,0.3-0.8,0.8s0.3,0.8,0.8,0.8c1.3,0,2.4,1.1,2.4,2.4C41.2,69.8,40.1,70.9,38.8,70.9z"/>
	<path  d="M62.7,67.5H49.1c-1.3,0-2.4-1.1-2.4-2.4c0-1.3,1.1-2.4,2.4-2.4h13.7c1.3,0,2.4,1.1,2.4,2.4
		C65.2,66.4,64,67.5,62.7,67.5z"/>
	<path  d="M95.6,86.9H34.4c-1.3,0-2.4-1.1-2.4-2.4v-9.9c0-1.3,1.1-2.4,2.4-2.4h61.3c1.3,0,2.4,1.1,2.4,2.4v9.9
		C98.2,85.7,97.1,86.9,95.6,86.9z M36.8,81.8h56.3V77H36.8V81.8z"/>
	<path  d="M98.8,105.6H31.2c-3.3,0-5.9-2.6-5.9-5.9V87.5c0-3.3,2.6-5.9,5.9-5.9h67.7c3.3,0,5.9,2.6,5.9,5.9v12.2
		C104.7,103,102.1,105.6,98.8,105.6z M31.2,86.9c-0.5,0-0.8,0.3-0.8,0.8v12.2c0,0.5,0.3,0.8,0.8,0.8h67.7c0.5,0,0.8-0.3,0.8-0.8
		V87.7c0-0.5-0.3-0.8-0.8-0.8H31.2z"/>
	<path  d="M38.8,99.6c-3.3,0-5.9-2.6-5.9-5.9c0-3.3,2.6-5.9,5.9-5.9c1.3,0,2.4,1.1,2.4,2.4s-1.1,2.4-2.4,2.4
		c-0.5,0-0.8,0.3-0.8,0.8s0.3,0.8,0.8,0.8c1.3,0,2.4,1.1,2.4,2.4C41.2,98.6,40.1,99.6,38.8,99.6z"/>
	<path  d="M62.7,96.3H49.1c-1.3,0-2.4-1.1-2.4-2.4s1.1-2.4,2.4-2.4h13.7c1.3,0,2.4,1.1,2.4,2.4S64,96.3,62.7,96.3z"/>
	<path  d="M114.1,38.9h-11.9c-1.3,0-2.4-1.1-2.4-2.4c0-1.3,1.1-2.4,2.4-2.4h11.9c1.3,0,2.4,1.1,2.4,2.4
		C116.6,37.7,115.4,38.9,114.1,38.9z"/>
	<path  d="M120,44.7c-4.6,0-8.5-3.7-8.5-8.5s3.7-8.5,8.5-8.5c4.6,0,8.5,3.7,8.5,8.5S124.6,44.7,120,44.7z M120,33
		c-2,0-3.4,1.5-3.4,3.4s1.5,3.4,3.4,3.4c2,0,3.4-1.5,3.4-3.4S121.8,33,120,33z"/>
	<path  d="M114.1,67.8h-11.9c-1.3,0-2.4-1.1-2.4-2.4s1.1-2.4,2.4-2.4h11.9c1.3,0,2.4,1.1,2.4,2.4S115.4,67.8,114.1,67.8z
		"/>
	<path  d="M120,73.7c-4.6,0-8.5-3.7-8.5-8.5c0-4.6,3.7-8.5,8.5-8.5c4.6,0,8.5,3.7,8.5,8.5C128.5,70,124.6,73.7,120,73.7z
		 M120,61.8c-2,0-3.4,1.5-3.4,3.4c0,2,1.5,3.4,3.4,3.4c2,0,3.4-1.5,3.4-3.4C123.4,63.5,121.8,61.8,120,61.8z"/>
	<path  d="M114.1,96.8h-11.9c-1.3,0-2.4-1.1-2.4-2.4s1.1-2.4,2.4-2.4h11.9c1.3,0,2.4,1.1,2.4,2.4S115.4,96.8,114.1,96.8z
		"/>
	<path  d="M120,102.7c-4.6,0-8.5-3.7-8.5-8.5c0-4.6,3.7-8.5,8.5-8.5c4.6,0,8.5,3.7,8.5,8.5
		C128.5,98.9,124.6,102.7,120,102.7z M120,90.8c-2,0-3.4,1.5-3.4,3.4c0,2,1.5,3.4,3.4,3.4c2,0,3.4-1.5,3.4-3.4
		C123.4,92.4,121.8,90.8,120,90.8z"/>
	<path  d="M27.9,38.9H16c-1.3,0-2.4-1.1-2.4-2.4c0-1.3,1.1-2.4,2.4-2.4h11.9c1.3,0,2.4,1.1,2.4,2.4
		C30.3,37.7,29.2,38.9,27.9,38.9z"/>
	<path  d="M10,44.7c-4.7,0-8.5-3.7-8.5-8.5s3.7-8.5,8.5-8.5s8.5,3.7,8.5,8.5S14.6,44.7,10,44.7z M10,33
		c-1.8,0-3.4,1.5-3.4,3.4S8,39.9,10,39.9c1.8,0,3.4-1.5,3.4-3.4S12,33,10,33z"/>
	<path  d="M27.9,67.8H16c-1.3,0-2.4-1.1-2.4-2.4S14.7,63,16,63h11.9c1.3,0,2.4,1.1,2.4,2.4S29.2,67.8,27.9,67.8z"/>
	<path  d="M10,73.7c-4.7,0-8.5-3.7-8.5-8.5c0-4.6,3.7-8.5,8.5-8.5s8.5,3.7,8.5,8.5C18.5,70,14.6,73.7,10,73.7z M10,61.8
		c-1.8,0-3.4,1.5-3.4,3.4c0,2,1.5,3.4,3.4,3.4c1.8,0,3.4-1.5,3.4-3.4C13.4,63.5,12,61.8,10,61.8z"/>
	<path  d="M27.9,96.8H16c-1.3,0-2.4-1.1-2.4-2.4s1.1-2.4,2.4-2.4h11.9c1.3,0,2.4,1.1,2.4,2.4S29.2,96.8,27.9,96.8z"/>
	<path  d="M10,102.7c-4.7,0-8.5-3.7-8.5-8.5c0-4.6,3.7-8.5,8.5-8.5s8.5,3.7,8.5,8.5C18.5,98.9,14.6,102.7,10,102.7z
		 M10,90.8c-1.8,0-3.4,1.5-3.4,3.4c0,2,1.5,3.4,3.4,3.4c1.8,0,3.4-1.5,3.4-3.4C13.4,92.4,12,90.8,10,90.8z"/>
	<path  d="M95.6,29.4H34.4c-0.8,0-1.6-0.5-2.1-1.1c-0.5-0.7-0.5-1.6-0.2-2.4l5-10.3c0.5-0.8,1.3-1.5,2.3-1.5h51.3
		c1,0,1.8,0.5,2.3,1.5l5,10.3c0.3,0.8,0.3,1.6-0.2,2.4C97.4,29,96.6,29.4,95.6,29.4z M38.3,24.4h53.4l-2.6-5.2H40.9L38.3,24.4z"/>
	<path  d="M90.7,115.8H39.3c-1,0-1.8-0.5-2.3-1.5l-5-10.3c-0.3-0.8-0.3-1.6,0.2-2.4c0.5-0.7,1.3-1.1,2.1-1.1h61.3
		c0.8,0,1.6,0.5,2.1,1.1c0.5,0.7,0.5,1.6,0.2,2.4l-5,10.3C92.5,115.4,91.5,115.8,90.7,115.8z M40.9,111h48.2l2.6-5.2H38.3L40.9,111z
		"/>
</g>
</svg>
