<?xml version="1.0" encoding="utf-8"?>
<!-- Generator: Adobe Illustrator 25.3.1, SVG Export Plug-In . SVG Version: 6.00 Build 0)  -->
<svg height="512" width="512"  xmlns="http://www.w3.org/2000/svg" xmlns:xlink="http://www.w3.org/1999/xlink" x="0px" y="0px"
	 viewBox="0 0 130 130" style="enable-background:new 0 0 130 130;" xml:space="preserve">

<g>
	<g>
		<path  d="M45.1,50.5L45.1,50.5c0.3-0.3,0.4-0.5,0.6-0.9s0.2-0.9,0.2-1.5v-1.9h-2.7" fill='none'/>
		<path  d="M70.3,23.4c0.9-0.1,1.7-0.1,2.6-0.2c0.5-0.1,1-0.1,1.5-0.2c0.8-0.1,1.6-0.2,2.4-0.3c0.5-0.1,1.1-0.2,1.6-0.3
			c0.7-0.1,1.5-0.2,2.2-0.4c0.1,0,0.1,0,0.1,0c-3.4-6-8.1-11.3-13.9-15.3v16.8c0.7-0.1,1.4-0.1,2.1-0.1
			C69.4,23.5,69.9,23.5,70.3,23.4z" fill='none'/>
		<path  d="M38.2,19c0.7,0.3,1.4,0.5,2,0.7c0.5,0.2,1.1,0.3,1.6,0.5c0.7,0.2,1.4,0.4,2.1,0.6c0.5,0.1,0.9,0.2,1.4,0.3
			c3.1-5.8,7.4-11.1,12.7-15.3C49.5,7.4,41.8,11.7,36,18.2c0.2,0.1,0.4,0.2,0.6,0.2C37.1,18.6,37.6,18.8,38.2,19z" fill='none'/>
		<path  d="M94.4,38.8c-0.3,0.4-0.8,0.7-1.3,0.8c-0.5,0.1-1,0-1.5-0.3c-0.5-0.4-0.9-0.6-1.4-0.9c0.1,1.1,0.3,2.2,0.3,3.3
			c0.6,0.2,1.1,0.3,1.7,0.6h11.7c-0.4-7.6-2.9-14.8-7.4-21c-0.4,0.2-0.8,0.3-1.3,0.5c-0.6,0.2-1.1,0.5-1.7,0.7
			c-0.7,0.2-1.4,0.5-2.1,0.7c-0.6,0.2-1.2,0.3-1.8,0.6c-0.7,0.2-1.4,0.4-2.1,0.6c-0.4,0.1-0.8,0.3-1.1,0.3c0.9,2,1.5,4,2.1,6
			c0.6,0.1,1.1,0.1,1.7,0.3l0,0l0,0l0,0c0.9,0.2,1.9,0.5,2.8,0.9s1.8,0.9,2.7,1.5" fill='none'/>
		<path  d="M84.8,21.2c0.5-0.1,0.9-0.2,1.4-0.3c0.7-0.2,1.4-0.4,2.1-0.6c0.5-0.2,1.1-0.3,1.6-0.5c0.7-0.2,1.3-0.5,2-0.7
			c0.5-0.2,1-0.3,1.5-0.6c0.2-0.1,0.4-0.2,0.6-0.2C88.2,11.6,80.6,7.4,72.1,5.8C77.4,10,81.7,15.3,84.8,21.2z" fill='none'/>
		<polyline  points="66.9,41.4 67.5,42.3 68.4,42.3 		" fill='none'/>
		<path  d="M78.5,34.7L78.5,34.7L78.5,34.7L78.5,34.7c0.9-1.4,2.2-2.4,3.7-3.1l0,0c0.8-0.3,1.6-0.6,2.5-0.7
			c-0.6-1.8-1.2-3.6-2-5.3c-0.3,0.1-0.6,0.1-0.9,0.2c-0.7,0.2-1.5,0.3-2.3,0.4c-0.6,0.1-1.2,0.2-1.9,0.3c-0.8,0.1-1.6,0.2-2.4,0.3
			c-0.6,0.1-1.2,0.1-1.8,0.2c-0.8,0.1-1.7,0.2-2.5,0.2c-0.6,0-1.1,0.1-1.7,0.1c-0.7,0-1.5,0-2.3,0.1" fill='none'/>
		<path  d="M75.6,42.3h2c-0.3-0.9-0.3-1.8-0.3-2.8v0" fill='none'/>
		<path  d="M8.5,106.5v16.3c0,1.1,0.9,1.9,1.9,1.9h16.4c1.1,0,1.9-0.9,1.9-1.9v-16.3c0-1-0.9-1.9-1.9-1.9H10.5
			C9.4,104.6,8.5,105.5,8.5,106.5z" fill='none'/>
		<path  d="M80.9,66.3c-0.1,0-0.1,0-0.1,0c-0.8-0.2-1.5-0.3-2.3-0.5c-0.5-0.1-1-0.2-1.5-0.2c-0.8-0.1-1.7-0.2-2.5-0.3
			c-0.5-0.1-0.9-0.1-1.4-0.2c-1-0.1-1.9-0.2-2.9-0.2c-0.4,0-0.7-0.1-1.1-0.1c-0.7-0.1-1.4-0.1-2.1-0.1v16.7
			C72.8,77.6,77.5,72.3,80.9,66.3z" fill='none'/>
		<path  d="M91.9,69.4c-0.7-0.2-1.4-0.5-2-0.7c-0.5-0.2-1.1-0.3-1.6-0.5c-0.7-0.2-1.4-0.4-2.1-0.6
			c-0.5-0.1-0.9-0.2-1.4-0.3c-3.1,5.8-7.4,11.1-12.7,15.3c8.4-1.5,16.1-5.8,22-12.3c-0.2-0.1-0.4-0.2-0.7-0.3
			C92.9,69.8,92.4,69.6,91.9,69.4z" fill='none'/>
		<path  d="M91.6,54.2L91.6,54.2L91.6,54.2z" fill='none'/>
		<path  d="M92.7,46.6L92.7,46.6L92.7,46.6z" fill='none'/>
		<path  d="M54.6,106.5v16.3c0,1.1,0.9,1.9,1.9,1.9h16.3c1.1,0,1.9-0.9,1.9-1.9v-16.3c0-1-0.9-1.9-1.9-1.9H56.6
			C55.5,104.6,54.6,105.5,54.6,106.5z" fill='none'/>
		<path  d="M84.8,38.3c-0.2,0.2-0.3,0.3-0.4,0.4c-0.1,0.2-0.1,0.4-0.1,0.7v0c0,0.2,0,0.3,0.1,0.4l0.1,0.1l0,0
			c0.2,0.2,0.5,0.4,0.9,0.5l0,0c0.3,0.1,0.7,0.2,1.2,0.3" fill='none'/>
		<path  d="M45.2,67.2c-0.4,0.1-0.9,0.2-1.3,0.3c-0.7,0.2-1.4,0.4-2.2,0.6c-0.5,0.2-1,0.3-1.5,0.5
			c-0.7,0.2-1.3,0.5-2,0.7c-0.5,0.2-1,0.4-1.5,0.6c-0.2,0.1-0.4,0.2-0.6,0.3c5.8,6.5,13.5,10.8,21.9,12.3
			C52.7,78.3,48.3,73,45.2,67.2z" fill='none'/>
		<path  d="M63.1,64.9c-0.7,0-1.4,0-2.1,0.1c-0.3,0-0.7,0.1-1.1,0.1C59,65,58,65.1,57,65.2c-0.5,0.1-0.9,0.1-1.4,0.2
			c-0.8,0.1-1.7,0.2-2.5,0.3c-0.5,0.1-1,0.2-1.5,0.2c-0.8,0.2-1.6,0.3-2.4,0.5c0,0-0.1,0-0.1,0c3.4,5.9,8.1,11.2,14,15.2V64.9z" fill='none'/>
		<path  d="M49.2,22.1c0,0,0.1,0,0.1,0c0.7,0.2,1.5,0.3,2.2,0.4c0.5,0.1,1,0.2,1.6,0.3c0.8,0.1,1.6,0.2,2.4,0.3
			c0.5,0.1,1,0.1,1.5,0.2c0.9,0.1,1.8,0.1,2.7,0.2c0.4,0.1,0.9,0.1,1.3,0.1c0.7,0,1.4,0,2.1,0.1V6.8C57.3,10.8,52.5,16.1,49.2,22.1z
			" fill='none' />
		<path  d="M71.7,54.4v-2.6c-0.2,0.2-0.5,0.4-0.8,0.5c-0.2,0.1-0.4,0.1-0.6,0.1L71.7,54.4L71.7,54.4z" fill='none'/>
		<path  d="M95.7,54.5L95.7,54.5c-0.9,1.4-2.2,2.4-3.8,3c-1,0.4-2.2,0.7-3.4,0.8c-0.5,1.8-1.2,3.5-1.9,5.2
			c0.4,0.1,0.7,0.2,1.1,0.3c0.7,0.2,1.4,0.4,2.1,0.6c0.6,0.2,1.2,0.4,1.8,0.6c0.7,0.2,1.4,0.5,2.1,0.7c0.6,0.2,1.1,0.5,1.7,0.7
			c0.4,0.2,0.8,0.3,1.3,0.5c4.5-6.1,7-13.3,7.4-21h-7.6c0.5,1.1,0.7,2.3,0.7,3.6v0" fill='none'/>
		<path  d="M86.6,48.1L86.6,48.1l-0.2,0l-0.3,0l0,0c-1.6-0.3-3-0.6-4.1-1c-0.6-0.2-1.2-0.5-1.8-0.9h-4.7" fill='none'/>
		<path  d="M86.1,51.5" fill='none'/>
		<path  d="M78.6,49.9c0.3-0.4,0.8-0.7,1.3-0.7c0.5,0,1,0.1,1.4,0.5" fill='none'/>
		<path  d="M43.3,42.3h2.6v-1.1c0-0.6-0.1-1.1-0.2-1.5s-0.3-0.7-0.6-0.9l0,0c-0.3-0.3-0.6-0.4-1-0.6" fill='none'/>
		<path  d="M58.2,34.8" fill='none'/>
		<polyline  points="63.1,48.2 61.8,46.1 61.5,46.1 		" fill='none'/>
		<path  d="M54.3,46.1h-1.1v1.8" fill='none'/>
		<path  d="M61.5,56.3c0,0.5-0.2,1-0.6,1.4c-0.3,0.4-0.9,0.6-1.4,0.6h-3.3c-0.5,0-1-0.2-1.4-0.6
			c-0.4-0.3-0.6-0.9-0.6-1.4" fill='none'/>
		<path  d="M47.8,53.3L47.8,53.3L47.8,53.3z" fill='none'/>
		<path  d="M32.9,32.8c0-0.5,0.2-1,0.6-1.4c0.4-0.4,0.9-0.6,1.4-0.6h2.2h1.1h3.2c0.6-2.1,1.3-4.2,2.2-6.2
			c-0.4-0.1-0.8-0.2-1.2-0.3c-0.7-0.2-1.4-0.3-2.1-0.6c-0.6-0.2-1.2-0.4-1.7-0.6c-0.7-0.3-1.4-0.5-2.1-0.7c-0.6-0.2-1.1-0.5-1.7-0.7
			c-0.4-0.2-0.9-0.3-1.3-0.5c-4.5,6.2-7,13.4-7.4,21h6.9" fill='none'/>
		<path  d="M32.9,46.1h-6.9c0.4,7.6,2.9,14.8,7.4,21c0.4-0.2,0.9-0.3,1.3-0.5c0.6-0.2,1.1-0.5,1.7-0.7
			c0.7-0.2,1.4-0.5,2.1-0.7c0.6-0.2,1.1-0.4,1.7-0.6c0.7-0.2,1.5-0.5,2.2-0.6c0.3-0.1,0.7-0.2,1.1-0.3c-0.8-1.7-1.4-3.5-1.9-5.3
			h-3.4h-1h-2.2c-0.5,0-1-0.2-1.4-0.6c-0.4-0.3-0.6-0.9-0.6-1.4" fill='none'/>
		<path  d="M63.1,27.4c-0.8-0.1-1.5-0.1-2.3-0.1c-0.5-0.1-1.1-0.1-1.7-0.1c-0.8-0.1-1.7-0.1-2.6-0.2
			c-0.6-0.1-1.2-0.1-1.8-0.2c-0.8-0.1-1.6-0.2-2.4-0.3c-0.6-0.1-1.2-0.2-1.9-0.3c-0.8-0.1-1.5-0.2-2.3-0.4c-0.3-0.1-0.6-0.1-0.9-0.2
			c-0.8,1.8-1.5,3.7-2.1,5.6c1,0.2,1.9,0.5,2.7,0.9l-0.9,1.7l0.9-1.7" fill='none'/>
		<path  d="M53.2,41.3v1h1.1" fill='none'/>
		<path  d="M119.6,104.6h-16.3c-1.1,0-1.9,0.9-1.9,1.9v16.3c0,1.1,0.9,1.9,1.9,1.9h16.3c1.1,0,1.9-0.9,1.9-1.9v-16.3
			C121.5,105.5,120.6,104.6,119.6,104.6z" fill='none'/>
		<path  d="M119.6,100.7h-6.2v-7.1c0-1.1-0.9-1.9-1.9-1.9H66.9V87c12.5-0.6,24-6.4,31.8-16.3c6-7.6,9.2-16.8,9.2-26.5
			c0-9.7-3.2-18.8-9.2-26.4C90.5,7.3,78.2,1.4,65,1.4c-13.2,0-25.5,5.9-33.7,16.4c-6,7.6-9.2,16.8-9.2,26.4c0,9.7,3.2,18.9,9.2,26.5
			c7.8,9.9,19.3,15.7,31.8,16.3v4.7H18.6c-1,0-1.9,0.9-1.9,1.9v7.1h-6.2c-3.2,0-5.8,2.6-5.8,5.8v16.3c0,3.2,2.6,5.8,5.8,5.8h16.4
			c3.2,0,5.8-2.6,5.8-5.8v-16.3c0-3.2-2.6-5.8-5.8-5.8h-6.2v-5.2h42.5v5.2h-6.5c-3.2,0-5.8,2.6-5.8,5.8v16.3c0,3.2,2.6,5.8,5.8,5.8
			h16.3c3.2,0,5.8-2.6,5.8-5.8v-16.3c0-3.2-2.6-5.8-5.8-5.8h-6v-5.2h42.5v5.2h-6.2c-3.2,0-5.8,2.6-5.8,5.8v16.3
			c0,3.2,2.6,5.8,5.8,5.8h16.3c3.2,0,5.8-2.6,5.8-5.8v-16.3C125.4,103.3,122.8,100.7,119.6,100.7z M26.8,104.6
			c1.1,0,1.9,0.9,1.9,1.9v16.3c0,1.1-0.9,1.9-1.9,1.9H10.5c-1.1,0-1.9-0.9-1.9-1.9v-16.3c0-1,0.9-1.9,1.9-1.9H26.8z M72.1,82.5
			c5.3-4.2,9.6-9.5,12.7-15.3c0.5,0.1,0.9,0.2,1.4,0.3c0.7,0.2,1.4,0.4,2.1,0.6c0.5,0.2,1.1,0.3,1.6,0.5c0.7,0.2,1.3,0.5,2,0.7
			c0.5,0.2,1,0.4,1.5,0.6c0.2,0.1,0.4,0.2,0.7,0.3C88.2,76.8,80.5,81,72.1,82.5z M66.9,81.6V64.8c0.7,0,1.4,0,2.1,0.1
			c0.3,0,0.7,0.1,1.1,0.1c0.9,0.1,1.9,0.1,2.9,0.2c0.5,0.1,0.9,0.1,1.4,0.2c0.8,0.1,1.7,0.2,2.5,0.3c0.5,0.1,1,0.2,1.5,0.2
			c0.8,0.2,1.6,0.3,2.3,0.5c0.1,0,0.1,0,0.1,0C77.5,72.3,72.8,77.6,66.9,81.6z M94,18.2c-0.2,0.1-0.4,0.2-0.6,0.2
			c-0.5,0.2-1,0.4-1.5,0.6c-0.7,0.3-1.3,0.5-2,0.7c-0.5,0.2-1.1,0.3-1.6,0.5c-0.7,0.2-1.4,0.4-2.1,0.6c-0.5,0.1-0.9,0.2-1.4,0.3
			c-3.1-5.8-7.4-11.1-12.7-15.3C80.6,7.4,88.2,11.7,94,18.2z M66.9,6.8c5.8,4,10.6,9.3,13.9,15.3c-0.1,0-0.1,0-0.1,0
			c-0.7,0.2-1.5,0.3-2.2,0.4c-0.5,0.1-1.1,0.2-1.6,0.3c-0.8,0.1-1.6,0.2-2.4,0.3c-0.5,0.1-1,0.1-1.5,0.2c-0.9,0.1-1.8,0.1-2.6,0.2
			c-0.5,0.1-0.9,0.1-1.3,0.1c-0.7,0-1.4,0-2.1,0.1C66.9,23.6,66.9,6.8,66.9,6.8z M57.9,5.8c-5.2,4.2-9.5,9.5-12.7,15.3
			c-0.5-0.1-0.9-0.2-1.4-0.3c-0.7-0.2-1.4-0.4-2.1-0.6c-0.5-0.2-1.1-0.3-1.6-0.5c-0.7-0.2-1.3-0.5-2-0.7c-0.5-0.2-1-0.3-1.5-0.6
			c-0.2-0.1-0.4-0.2-0.6-0.2C41.8,11.7,49.5,7.4,57.9,5.8z M63.1,6.8v16.8c-0.7-0.1-1.4-0.1-2.1-0.1c-0.4-0.1-0.9-0.1-1.3-0.1
			c-0.9-0.1-1.8-0.1-2.7-0.2c-0.5-0.1-1-0.1-1.5-0.2c-0.8-0.1-1.6-0.2-2.4-0.3c-0.6-0.1-1.1-0.2-1.6-0.3c-0.7-0.1-1.5-0.2-2.2-0.4
			c-0.1,0-0.1,0-0.1,0C52.5,16.1,57.3,10.8,63.1,6.8z M36,70.2c0.2-0.1,0.4-0.2,0.6-0.3c0.5-0.2,1-0.3,1.5-0.6
			c0.7-0.2,1.4-0.5,2-0.7c0.5-0.2,1-0.3,1.5-0.5c0.7-0.2,1.4-0.4,2.2-0.6c0.5-0.1,0.9-0.2,1.3-0.3C48.4,73,52.7,78.3,58,82.5
			C49.5,81,41.8,76.8,36,70.2z M49.1,66.3c0,0,0.1,0,0.1,0c0.8-0.2,1.6-0.3,2.4-0.5c0.5-0.1,1-0.2,1.5-0.2c0.8-0.1,1.7-0.2,2.5-0.3
			c0.5-0.1,0.9-0.1,1.4-0.2C58,65,59,65,59.9,64.9c0.4,0,0.7-0.1,1.1-0.1c0.7-0.1,1.4-0.1,2.1-0.1v16.7
			C57.3,77.6,52.5,72.3,49.1,66.3z M72.9,104.6c1.1,0,1.9,0.9,1.9,1.9v16.3c0,1.1-0.9,1.9-1.9,1.9H56.6c-1.1,0-1.9-0.9-1.9-1.9
			v-16.3c0-1,0.9-1.9,1.9-1.9H72.9z M63.1,61c-0.8,0-1.5,0-2.3,0.1c-0.6,0-1.1,0.1-1.7,0.1c-0.8,0.1-1.7,0.1-2.6,0.2
			c-0.6,0.1-1.2,0.2-1.8,0.2c-0.8,0.1-1.6,0.2-2.4,0.3c-0.6,0.1-1.2,0.2-1.8,0.3c-0.8,0.1-1.6,0.3-2.3,0.5c-0.3,0-0.6,0.1-0.9,0.2
			c-0.7-1.6-1.3-3.2-1.9-4.8c-1,0.2-2.1,0.3-3.2,0.3h-0.8c0.6,1.8,1.2,3.6,1.9,5.3c-0.4,0.1-0.7,0.2-1.1,0.3
			c-0.7,0.2-1.5,0.4-2.2,0.6c-0.5,0.2-1.1,0.4-1.7,0.6c-0.7,0.2-1.4,0.5-2.1,0.7c-0.6,0.2-1.1,0.5-1.7,0.7c-0.4,0.1-0.9,0.3-1.3,0.5
			c-4.5-6.1-7-13.3-7.4-21h6.9v-3.8h-6.9c0.4-7.6,2.9-14.8,7.4-21c0.4,0.2,0.8,0.3,1.3,0.5c0.5,0.2,1.1,0.5,1.7,0.7
			c0.7,0.2,1.4,0.5,2.1,0.7c0.6,0.2,1.2,0.3,1.7,0.6c0.7,0.2,1.4,0.4,2.1,0.6c0.4,0.1,0.8,0.3,1.2,0.3c-0.9,2-1.6,4.1-2.2,6.2h1
			c1,0,2,0.1,3,0.3c0.6-1.9,1.2-3.8,2.1-5.6c0.3,0.1,0.6,0.1,0.9,0.2c0.8,0.2,1.5,0.3,2.3,0.4c0.6,0.1,1.2,0.2,1.9,0.3
			c0.8,0.1,1.6,0.2,2.4,0.3c0.6,0.1,1.2,0.1,1.8,0.2c0.9,0.1,1.7,0.2,2.6,0.2c0.6,0,1.1,0.1,1.7,0.1c0.8,0,1.5,0,2.3,0.1h3.8
			c0.7-0.1,1.5-0.1,2.3-0.1c0.6-0.1,1.1-0.1,1.7-0.1c0.8-0.1,1.7-0.1,2.5-0.2c0.6-0.1,1.2-0.1,1.8-0.2c0.8-0.1,1.6-0.2,2.4-0.3
			c0.6-0.1,1.2-0.2,1.9-0.3c0.7-0.1,1.5-0.2,2.3-0.4c0.3-0.1,0.6-0.1,0.9-0.2c0.8,1.7,1.4,3.5,2,5.3c0.9-0.2,1.8-0.2,2.8-0.2
			c0.4,0,0.8,0,1.2,0.1c-0.6-2.1-1.3-4.1-2.1-6c0.4-0.1,0.7-0.2,1.1-0.3c0.7-0.2,1.4-0.3,2.1-0.6c0.6-0.2,1.2-0.4,1.8-0.6
			c0.7-0.3,1.4-0.5,2.1-0.7c0.6-0.2,1.1-0.5,1.7-0.7c0.4-0.2,0.8-0.3,1.3-0.5c4.5,6.2,7,13.4,7.4,21H92.2c0.1,0,0.2,0.1,0.3,0.1l0,0
			c1.3,0.5,2.4,1.4,3.2,2.6c0.3,0.3,0.5,0.7,0.6,1.1h7.6c-0.4,7.6-2.9,14.8-7.4,21c-0.4-0.1-0.8-0.3-1.3-0.5
			c-0.5-0.2-1.1-0.5-1.7-0.7c-0.7-0.2-1.4-0.5-2.1-0.7c-0.6-0.2-1.2-0.4-1.8-0.6c-0.7-0.2-1.4-0.4-2.1-0.6c-0.4-0.1-0.7-0.2-1.1-0.3
			c0.7-1.7,1.4-3.4,1.9-5.2c-0.6,0.1-1.3,0.1-2,0.1c-0.7,0-1.4-0.1-2.1-0.1c-0.5,1.5-1.1,2.9-1.7,4.4c-0.3-0.1-0.6-0.2-0.9-0.2
			c-0.7-0.2-1.5-0.3-2.2-0.4c-0.7-0.1-1.3-0.2-1.9-0.3c-0.7-0.1-1.5-0.2-2.3-0.3c-0.6-0.1-1.3-0.2-1.9-0.2c-0.8-0.1-1.6-0.1-2.4-0.2
			c-0.6-0.1-1.2-0.1-1.9-0.1C68.5,61,67.7,61,67,61L63.1,61L63.1,61z M121.5,122.8c0,1.1-0.9,1.9-1.9,1.9h-16.3
			c-1.1,0-1.9-0.9-1.9-1.9v-16.3c0-1,0.9-1.9,1.9-1.9h16.3c1.1,0,1.9,0.9,1.9,1.9V122.8z" fill='#1254B5'/>
		<path  d="M81.7,42.7L81.7,42.7L81.7,42.7z"  fill='#1254B5'/>
		<path  d="M84.2,44.2L84.2,44.2L84.2,44.2z" fill='#1254B5'/>
		<path d="M32.9,46.1"/>
		<path d="M45.3,31.2c-0.9-0.2-1.9-0.3-3-0.3h-1"/>
		<path d="M66.9,54.2"/>
		<polygon points="90.4,31 90.4,31 90.4,31 		"/>
		<path d="M88.6,30.7c-0.4,0-0.8-0.1-1.2-0.1c-1,0-1.9,0.1-2.8,0.2"/>
		<path d="M90.3,38.4"/>
		<path d="M78.5,34.7L78.5,34.7L78.5,34.7z"/>
		<polygon points="79.6,57 79.6,57 79.6,57 		"/>
		<path d="M78.6,44.6L78.6,44.6L78.6,44.6z"/>
	</g>
	<g>
		<path  d="M47.1,33.8c-1.3-0.7-2.9-1-4.8-1h-4.1h-1.1h-2.2v23.5h2.2h1.1h4.1c1.9,0,3.5-0.3,4.8-1
			c1.3-0.7,2.4-1.6,3.1-2.9c0.7-1.3,1-2.8,1-4.6v-6.7c0-1.8-0.3-3.3-1-4.6C49.5,35.5,48.5,34.5,47.1,33.8z M47.9,48.1
			c0,1.6-0.5,2.9-1.4,3.8c-0.9,0.9-2.3,1.4-4,1.4h-4.2V36h4.2c1.7,0,3.1,0.4,4,1.4c0.9,0.9,1.4,2.2,1.4,3.8V48.1z" fill='#1254B5'/>
		<path  d="M94.2,46.1c-0.6-0.9-1.4-1.5-2.4-1.9c-0.9-0.4-2.2-0.7-3.6-1c-0.1,0-0.1,0-0.2,0c-0.1,0-0.1,0-0.2,0
			c0,0-0.1,0-0.1,0s-0.1,0-0.1,0c-1.2-0.2-2.2-0.5-2.8-0.7c-0.7-0.2-1.3-0.6-1.7-1c-0.5-0.5-0.7-1.1-0.7-1.9v0
			c0-1.2,0.4-2.1,1.3-2.7c0.9-0.6,2.1-1,3.7-1c0.9,0,1.8,0.2,2.7,0.5s1.8,0.8,2.7,1.5l1.9-2.6c-0.8-0.5-1.5-1-2.3-1.4
			c-0.8-0.4-1.6-0.6-2.4-0.8c-0.8-0.2-1.6-0.3-2.5-0.3c-1.8,0-3.3,0.3-4.5,0.8c-1.2,0.5-2.2,1.3-2.8,2.3c-0.7,1-1,2.3-1,3.7v0
			c0,1.7,0.3,2.9,1,3.8c0.7,0.9,1.5,1.5,2.5,1.9c1,0.3,2.3,0.6,3.8,0.9l0.3,0c0,0,0.1,0,0.1,0c0,0,0.1,0,0.1,0
			c1.1,0.2,1.9,0.4,2.6,0.6c0.7,0.2,1.2,0.6,1.6,1.1c0.4,0.5,0.6,1.1,0.6,2v0c0,1.1-0.5,2.1-1.4,2.7c-0.9,0.6-2.2,0.9-4,0.9
			c-1.3,0-2.4-0.2-3.5-0.6c-1.1-0.4-2.1-1-3-1.7L78,53.7c0.8,0.6,1.6,1.2,2.5,1.6s1.8,0.8,2.8,1c1,0.2,2.1,0.3,3.2,0.3
			c1.8,0,3.4-0.3,4.7-0.8c1.3-0.5,2.3-1.3,2.9-2.3c0.7-1,1-2.2,1-3.7v0C95.2,48.2,94.8,47,94.2,46.1z" fill='#1254B5'/>
	</g>
	<polyline  points="59.3,32.8 56.3,32.8 56.3,56.3 59.5,56.3 59.5,39 70.6,56.3 73.6,56.3 73.6,32.8 70.4,32.8 
		70.4,50.4 	" fill='#1254B5'/>
	<rect x="63.1" y="57"  width="3.9" height="12.8" fill='#1254B5'/>
	<rect x="63.1" y="17.9"  width="3.9" height="12.8" fill='#1254B5'/>
</g>
</svg>
