<?xml version="1.0" encoding="utf-8"?>
<!-- Generator: Adobe Illustrator 25.3.1, SVG Export Plug-In . SVG Version: 6.00 Build 0)  -->
<svg height="512" width="512" xmlns="http://www.w3.org/2000/svg" xmlns:xlink="http://www.w3.org/1999/xlink" x="0px" y="0px"
	 viewBox="0 0 130 130" style="enable-background:new 0 0 130 130;fill:#1254B5;" xml:space="preserve">

<g>
	<path  d="M128.9,62.3c-0.4-8.5-2.3-16.5-5.6-23.7c-0.9-2.2-2-4.1-3.2-6.3C111.3,17.3,96.7,6.4,79.3,2.4
		C75.5,1.5,71.7,1,67.8,0.8c-0.9,0-1.8,0-2.7,0h-0.2h-0.2c-0.9,0-1.8,0-2.7,0c-4,0.2-7.7,0.7-11.5,1.6c-17.3,4-32,15.1-40.8,29.9
		c-1.3,2-2.3,4.1-3.2,6.3c-3.2,7.2-5.2,15.3-5.6,23.7c0,0.9,0,1.8,0,2.7c0,1.1,0,2.3,0,3.4c0.4,8.3,2.3,16,5.6,23
		c0.9,2.2,2.2,4.1,3.2,6.3c8.8,14.9,23.4,25.9,40.8,29.9c3.8,0.9,7.6,1.4,11.5,1.6c0.9,0,1.8,0,2.7,0h0.2h0.2c0.9,0,1.8,0,2.7,0
		c4-0.2,7.7-0.7,11.5-1.6c17.3-4,32-15.1,40.8-29.9c1.3-2,2.3-4.1,3.2-6.3c3.2-7,5.2-14.9,5.6-23c0-1.1,0.2-2.3,0.2-3.4
		C128.9,64.1,128.9,63.2,128.9,62.3z M86.3,9.6C98,14.1,107.9,22,114.7,32.3H96.4c-2.5-9-6.1-16.7-10.4-22.7c0.2,0,0.4,0.2,0.7,0.4
		C86.5,9.6,86.3,9.6,86.3,9.6z M67.8,85.9H94c-0.4,2-0.7,3.8-1.1,5.6H67.8V85.9z M97.5,80.6H32.4c-8.6,0-15.6-7-15.6-15.6
		s7-15.6,15.6-15.6h65.1c8.6,0,15.6,7,15.6,15.6S106.1,80.6,97.5,80.6z M62,44.1H35.8c0.4-2,0.7-3.8,1.1-5.6h25v5.6H62z M67.8,5.7
		c0.2,0,0.4,0,0.5,0l0,0c2.9,0.2,5.8,0.5,8.6,1.1c3.4,2.9,6.7,7.2,9.5,12.6c2.2,4,3.8,8.3,5.2,12.9H67.8V5.7z M92.8,38.6
		c0.4,1.8,0.7,3.8,1.1,5.6H67.8v-5.6H92.8z M53.4,6.7c2.9-0.5,5.8-0.9,8.6-1.1v26.6H38.7c1.4-4.7,3.2-9,5.2-12.9
		C46.7,13.9,50,9.8,53.4,6.7z M44,9.4c-4.3,5.9-7.9,13.7-10.4,22.7H15.8C22.5,22,32.4,13.9,44,9.4z M12,38.6h19.8
		c-0.4,1.8-0.7,3.8-1.1,5.8c-9.9,0.7-17.8,8.3-19.1,18H5.7C6.3,53.7,8.4,45.8,12,38.6z M5.9,68.4h5.9c1.6,9.4,9.4,16.5,18.9,17.3
		c0.4,2,0.7,3.8,1.1,5.8H12C8.4,84.4,6.3,76.7,5.9,68.4z M15.6,97.7h17.8c2.5,9,6.1,16.7,10.4,22.7C32.4,116.1,22.5,108,15.6,97.7z
		 M62,124.3c-2.9-0.2-5.8-0.5-8.6-1.1c-3.4-2.9-6.7-7.2-9.5-12.6c-2.2-4-3.8-8.3-5.2-12.9H62V124.3z M37,91.4
		c-0.4-1.8-0.9-3.8-1.1-5.6h26.3v5.6H37z M76.4,123.3c-2.9,0.5-5.8,0.9-8.6,1.1V97.7h23.4c-1.4,4.7-3.2,9-5.2,12.9
		C83.1,116.1,79.8,120.2,76.4,123.3z M85.8,120.4c4.3-5.9,7.9-13.7,10.4-22.7H114C107.4,108,97.5,116.1,85.8,120.4z M117.8,91.4H98
		c0.4-1.8,0.7-3.8,1.1-5.8c9.5-0.7,17.4-7.9,19.1-17.3h5.9C123.5,76.7,121.4,84.4,117.8,91.4z M118.1,62.3
		c-1.3-9.7-9.2-17.3-19.1-18c-0.4-2-0.7-3.8-1.1-5.8h19.8c3.6,7.2,5.8,15.3,6.1,23.7H118.1z"/>
	<path  d="M32.7,73.5l-4-16.9h3.6l2.5,11.7l3.1-11.7h4.1l3.1,11.9l2.7-11.9h3.4l-4.1,16.9h-3.6l-3.4-12.6l-3.4,12.6H32.7
		z"/>
	<path  d="M57.9,73.5l-4-16.9h3.6l2.5,11.7l3.1-11.7h4.1l3.1,11.9l2.5-11.9h3.4l-4.1,16.9h-3.6l-3.4-12.6l-3.4,12.8
		L57.9,73.5L57.9,73.5z"/>
	<path  d="M82.9,73.5l-4-16.9h3.4l2.5,11.7l3.1-11.7h4.1l3.1,11.9l2.5-11.9h3.4l-4.1,16.9h-3.6l-3.4-12.6l-3.4,12.6H82.9
		z"/>
</g>
</svg>
