<?xml version="1.0" encoding="utf-8"?>
<!-- Generator: Adobe Illustrator 25.3.1, SVG Export Plug-In . SVG Version: 6.00 Build 0)  -->
<svg height="512" width="512" xmlns="http://www.w3.org/2000/svg" xmlns:xlink="http://www.w3.org/1999/xlink" x="0px" y="0px"
	 viewBox="0 0 130 130" style="enable-background:new 0 0 130 130;" xml:space="preserve">

<g>
	<g>
		<path  d="M2.3,17.3c0-0.1,0.1-0.1,0.1-0.1C2.4,17.2,2.4,17.2,2.3,17.3z" fill='#1254B5'/>
		<path  d="M111.5,16.5c0.1,0.1,0.1,0.1,0.2,0.2C111.6,16.6,111.5,16.5,111.5,16.5z" fill='#1254B5'/>
		<path  d="M2.7,16.7c0.1-0.1,0.1-0.1,0.2-0.2C2.9,16.5,2.8,16.6,2.7,16.7z" fill='#1254B5'/>
		<path  d="M107.8,23v35.7l4.4-1.5V18.1c0,0,0,0,0-0.1c0,0.6-0.2,1.3-0.7,1.7L107.8,23z" fill='#1254B5'/>
		<path  d="M110.8,16.1c0.1,0,0.1,0.1,0.2,0.1C111,16.1,110.9,16.1,110.8,16.1z" fill='#1254B5'/>
		<path  d="M2.8,89.4l3.7-3.6V23l-3.6-3.3c-0.5-0.4-0.7-1.1-0.7-1.7c0,0,0,0,0,0.1V91c0,0.1,0,0.2,0.1,0.3
			C2.1,90.6,2.3,89.9,2.8,89.4z" fill='#1254B5'/>
		<path  d="M64.4,88.8H9.8l-3.9,3.8c-0.4,0.4-1,0.6-1.5,0.6H74l-0.1-0.3L64.4,88.8z" fill='#1254B5'/>
		<path  d="M3.5,93c-0.3-0.1-0.5-0.3-0.7-0.5C3,92.7,3.2,92.9,3.5,93z" fill='#1254B5'/>
		<path  d="M2.6,92.3c-0.1-0.1-0.2-0.3-0.3-0.5C2.4,92,2.5,92.1,2.6,92.3z" fill='#1254B5'/>
		<path  d="M3.4,16.2c0.1,0,0.1-0.1,0.2-0.1C3.5,16.1,3.4,16.1,3.4,16.2z" fill='#1254B5'/>
		<path  d="M112,17.1c0,0.1,0.1,0.1,0.1,0.1C112,17.2,112,17.2,112,17.1z" fill='#1254B5'/>
		<path  d="M3.6,16.1c0.2-0.1,0.5-0.2,0.8-0.2C4.1,15.9,3.8,16,3.6,16.1z" fill='#1254B5'/>
		<path  d="M110,15.9c0.3,0,0.5,0.1,0.8,0.2C110.6,16,110.3,15.9,110,15.9z" fill='#1254B5'/>
		<path  d="M111,16.2c0.2,0.1,0.3,0.2,0.4,0.3C111.3,16.4,111.2,16.3,111,16.2z" fill='#1254B5'/>
		<path  d="M2.3,17.3c-0.1,0.2-0.1,0.5-0.1,0.7C2.2,17.8,2.2,17.5,2.3,17.3L2.3,17.3z" fill='#1254B5'/>
		<path  d="M112.1,17.3L112.1,17.3c0.1,0.2,0.1,0.5,0.1,0.7C112.2,17.8,112.2,17.6,112.1,17.3z" fill='#1254B5'/>
		<path  d="M2.9,16.5c0.1-0.1,0.3-0.2,0.4-0.3C3.2,16.3,3.1,16.4,2.9,16.5z" fill='#1254B5'/>
		<path  d="M111.6,16.7c0.1,0.1,0.2,0.3,0.3,0.5C111.9,17,111.8,16.8,111.6,16.7z" fill='#1254B5'/>
		<path  d="M42,51.6c0.9-0.8,2.2-0.8,3.1,0.1c0.8,0.9,0.8,2.2-0.1,3.1l-1.5,1.4l12.2,10.9c0.4,0.4,0.9,0.6,1.5,0.6
			c0.5,0,1-0.2,1.5-0.6l12.2-10.9l-1.5-1.4c-0.9-0.8-0.9-2.2-0.1-3.1c0.8-0.9,2.2-0.9,3.1-0.1l1.7,1.6L107.9,23v-2.7h-3.5L57.2,62.6
			L10.1,20.3H6.5V23l33.7,30.2L42,51.6z" fill='#1254B5'/>
		<path  d="M2.4,17.1c0.1-0.2,0.2-0.4,0.3-0.5C2.6,16.8,2.5,17,2.4,17.1z" fill='#1254B5'/>
		<path  d="M6.5,23v-2.7H10h94.3h3.5V23l3.6-3.3c0.5-0.4,0.7-1.1,0.7-1.7c0-0.3-0.1-0.5-0.2-0.8c0-0.1-0.1-0.1-0.1-0.1
			c-0.1-0.2-0.2-0.4-0.3-0.5c-0.1-0.1-0.1-0.1-0.2-0.2s-0.3-0.2-0.4-0.3c-0.1,0-0.1-0.1-0.2-0.1c-0.2-0.1-0.5-0.2-0.8-0.2H4.3
			c-0.3,0-0.5,0.1-0.8,0.2c-0.1,0-0.1,0.1-0.2,0.1c-0.2,0.1-0.3,0.2-0.4,0.3c-0.1,0.1-0.1,0.1-0.2,0.2c-0.1,0.1-0.2,0.3-0.3,0.5
			c0,0.1-0.1,0.1-0.1,0.1c-0.1,0.2-0.1,0.5-0.2,0.8c0,0.6,0.2,1.3,0.7,1.7L6.5,23z" fill='#1254B5'/>
		<path  d="M2.3,91.8c-0.1-0.2-0.1-0.4-0.1-0.5C2.2,91.5,2.3,91.6,2.3,91.8z" fill='#1254B5'/>
		<path  d="M4.3,93.2c-0.3,0-0.6-0.1-0.8-0.2C3.8,93.1,4.1,93.2,4.3,93.2z" fill='#1254B5'/>
		<path  d="M2.8,92.5L2.8,92.5c-0.1-0.1-0.1-0.2-0.2-0.2C2.7,92.4,2.7,92.4,2.8,92.5z" fill='#1254B5'/>
		<polygon  points="40.3,53.2 6.5,85.9 6.5,88.8 9.8,88.8 43.5,56.2 		" fill='#1254B5'/>
		<path  d="M9.8,88.8H6.5v-3l-3.7,3.6c-0.5,0.5-0.7,1.2-0.6,1.9c0,0.2,0,0.4,0.1,0.5c0.1,0.2,0.2,0.3,0.3,0.5
			c0.1,0.1,0.1,0.2,0.2,0.2C3,92.7,3.3,92.9,3.5,93c0.3,0.1,0.5,0.2,0.8,0.2c0.5,0,1.1-0.2,1.5-0.6L9.8,88.8z" fill='#1254B5'/>
		<path  d="M45,51.7c-0.8-0.9-2.2-0.9-3.1-0.1l-1.7,1.6l3.3,2.9l1.5-1.4C45.9,53.9,45.9,52.5,45,51.7z" fill='#1254B5'/>
		<polygon  points="74.1,53.2 70.9,56.2 82.6,67.5 87.2,65.9 " fill='#1254B5'/>
		<path  d="M72.4,51.6c-0.9-0.8-2.2-0.8-3.1,0.1c-0.8,0.9-0.8,2.2,0.1,3.1l1.5,1.4l3.3-2.9L72.4,51.6z" fill='#1254B5'/>
		<path  d="M120.1,110.1L120.1,110.1L120.1,110.1z" fill='#1254B5'/>
	</g>
	<path  d="M125.6,57c-0.1-0.2-0.3-0.4-0.6-0.5c0,0,0,0-0.1,0c-0.4-0.2-0.8-0.1-1.1,0.1L58,79.5c-0.5,0.2-0.7,0.6-0.7,1
		c-0.1,0.4,0.2,0.8,0.6,1L77.8,90l5.5,20.1c0.1,0.2,0.2,0.3,0.3,0.5c0,0,0,0,0,0.1c0,0,0,0,0,0c0,0,0.1,0.1,0.1,0.1
		c0.1,0,0.1,0.1,0.2,0.1c0.1,0,0.2,0.1,0.4,0.1c0.1,0,0.1,0,0.2,0c0.2,0,0.3-0.1,0.4-0.2c0.1,0,0.1-0.1,0.2-0.1l11.6-12.7l20,7.7
		c0.1,0.1,0.3,0.1,0.4,0.1c0.2,0,0.4-0.1,0.6-0.1c0.3-0.2,0.5-0.5,0.6-0.8l7.4-46.7C125.8,57.8,125.8,57.4,125.6,57z M117.3,61.2
		L78.7,87.9l-17.3-7.3L117.3,61.2z M80,89.7l37-25.6L90.4,93.3c-0.3,0.1-0.5,0.3-0.7,0.6l-5.2,12.5L80,89.7z M91.4,95.8l3.1,1.2
		l-6.8,7.5L91.4,95.8z M116.2,103l-23.4-9.1l30.1-33L116.2,103z" fill='#1254B5' stroke='#1254B5' stroke-width='2' stroke-linejoin='round' stroke-miterlimit='10'/>
</g>
</svg>
