<?xml version="1.0" encoding="utf-8"?>
<!-- Generator: Adobe Illustrator 25.3.1, SVG Export Plug-In . SVG Version: 6.00 Build 0)  -->
<svg height="512" width="512" xmlns="http://www.w3.org/2000/svg" xmlns:xlink="http://www.w3.org/1999/xlink" x="0px" y="0px"
	 viewBox="0 0 130 130" style="enable-background:new 0 0 130 130;" xml:space="preserve">

<g id="Layer_2_1_">
	<g>
		<path  d="M36.5,115.3h1v6.8h-1V115.3z M37,115.3h3.8v0.9H37V115.3z M37,118.3h3.3v0.9H37V118.3z" fill='#1254B5'/>
		<path  d="M42.5,121.9c-0.3-0.2-0.5-0.4-0.7-0.7s-0.2-0.7-0.2-1.1v-0.8c0-0.4,0.1-0.8,0.2-1.1c0.2-0.3,0.4-0.6,0.7-0.7
			c0.3-0.2,0.7-0.2,1.1-0.2c0.4,0,0.8,0.1,1.1,0.2c0.3,0.2,0.5,0.4,0.7,0.7c0.2,0.3,0.2,0.7,0.2,1.1v0.8c0,0.4-0.1,0.8-0.2,1.1
			c-0.2,0.3-0.4,0.6-0.7,0.7c-0.3,0.2-0.7,0.2-1.1,0.2S42.8,122,42.5,121.9z M44.4,120.9c0.2-0.2,0.3-0.5,0.3-0.9v-0.8
			c0-0.4-0.1-0.7-0.3-0.9c-0.2-0.2-0.4-0.3-0.8-0.3c-0.3,0-0.6,0.1-0.8,0.3c-0.2,0.2-0.3,0.5-0.3,0.9v0.8c0,0.4,0.1,0.7,0.3,0.9
			c0.2,0.2,0.4,0.3,0.8,0.3C43.9,121.2,44.2,121.1,44.4,120.9z" fill='#1254B5'/>
		<path  d="M47,117.2h1v4.9h-1V117.2z M49.3,118.1c-0.1-0.1-0.3-0.1-0.4-0.1c-0.3,0-0.5,0.1-0.7,0.3
			c-0.2,0.2-0.3,0.4-0.3,0.7l-0.1-0.9c0.1-0.3,0.3-0.5,0.6-0.7c0.2-0.2,0.5-0.2,0.8-0.2c0.2,0,0.4,0,0.6,0.1
			c0.2,0.1,0.3,0.2,0.5,0.3l-0.6,0.8C49.6,118.3,49.4,118.2,49.3,118.1z" fill='#1254B5'/>
		<path  d="M51.8,121.9c-0.3-0.2-0.6-0.4-0.7-0.7c-0.2-0.3-0.2-0.7-0.2-1.2v-0.5c0-0.5,0.1-0.9,0.2-1.2
			c0.2-0.3,0.4-0.6,0.7-0.8c0.3-0.2,0.7-0.3,1.1-0.3c0.4,0,0.8,0.1,1,0.3c0.3,0.2,0.5,0.5,0.7,0.9s0.2,0.8,0.2,1.4v0.3h-3.3v-0.8
			h2.4c0-0.4-0.1-0.7-0.3-0.9c-0.2-0.2-0.4-0.3-0.7-0.3c-0.4,0-0.6,0.1-0.8,0.4c-0.2,0.2-0.3,0.6-0.3,1v0.6c0,0.4,0.1,0.7,0.3,0.9
			c0.2,0.2,0.5,0.3,0.9,0.3c0.2,0,0.4,0,0.6-0.1c0.2-0.1,0.4-0.2,0.5-0.3l0.6,0.6c-0.2,0.2-0.5,0.4-0.8,0.5s-0.6,0.2-0.9,0.2
			C52.5,122.1,52.1,122,51.8,121.9z" fill='#1254B5'/>
		<path  d="M56.1,115.3h1v1h-1V115.3z M56.1,117.2h1v4.9h-1V117.2z" fill='#1254B5'/>
		<path  d="M59.1,121.9c-0.3-0.2-0.4-0.4-0.6-0.7c-0.1-0.3-0.2-0.7-0.2-1.1V119c0-0.4,0.1-0.8,0.2-1.1
			c0.1-0.3,0.3-0.5,0.6-0.7c0.2-0.2,0.5-0.2,0.9-0.2c0.3,0,0.5,0.1,0.8,0.2c0.2,0.1,0.4,0.4,0.6,0.6l-0.1,1c0-0.2,0-0.4-0.1-0.5
			S61,118,60.9,118s-0.3-0.1-0.5-0.1c-0.3,0-0.6,0.1-0.7,0.3c-0.2,0.2-0.3,0.5-0.3,0.8v1.1c0,0.4,0.1,0.6,0.3,0.8
			c0.2,0.2,0.4,0.3,0.7,0.3c0.2,0,0.4,0,0.5-0.1s0.3-0.2,0.3-0.3s0.1-0.3,0.1-0.5l0.1,1c-0.1,0.2-0.3,0.4-0.5,0.6s-0.5,0.2-0.8,0.2
			C59.7,122.1,59.4,122.1,59.1,121.9z M59.1,123.8c-0.3-0.1-0.5-0.3-0.7-0.6l0.6-0.6c0.1,0.2,0.3,0.3,0.4,0.4
			c0.2,0.1,0.4,0.1,0.5,0.1c0.4,0,0.6-0.1,0.8-0.3c0.2-0.2,0.3-0.5,0.3-0.9v-4.8h1v4.7c0,0.4-0.1,0.8-0.2,1.1
			c-0.2,0.3-0.4,0.6-0.7,0.7c-0.3,0.2-0.7,0.2-1.1,0.2C59.8,124,59.4,124,59.1,123.8z" fill='#1254B5'/>
		<path  d="M63.7,117.2h1v4.9h-1C63.7,122.1,63.7,117.2,63.7,117.2z M66.6,119.1c0-0.3-0.1-0.6-0.3-0.8
			c-0.2-0.2-0.4-0.3-0.7-0.3c-0.3,0-0.6,0.1-0.7,0.2c-0.2,0.2-0.3,0.4-0.3,0.7l-0.1-0.9c0.1-0.3,0.3-0.5,0.6-0.7
			c0.2-0.2,0.5-0.2,0.8-0.2c0.5,0,0.9,0.2,1.2,0.5c0.3,0.3,0.4,0.8,0.4,1.5v2.9h-1L66.6,119.1L66.6,119.1z" fill='#1254B5'/>
	</g>
</g>
<g id="Layer_3">
	<g>
		<path  d="M71.4,78.6h14.1c0-0.6,0-1.3,0-1.9l0,0c0-0.2,0-0.3,0-0.5c0-0.1,0-0.2,0-0.3h-14V78.6z" fill='none'/>
		<path  d="M75.6,107.6c0-0.4,0.1-0.8,0.1-1.1h-35v2.6h34.9c-0.1-0.4-0.1-0.7-0.1-1C75.6,107.9,75.6,107.8,75.6,107.6z"
			 fill='none'/>
		<path  d="M76.9,103.7c0.3-0.5,0.5-0.9,0.7-1.3l0,0c0.1-0.3,0.2-0.6,0.3-0.9h-7.8c-0.7,0-1.3-0.5-1.3-1.3V95
			c0-0.7,0.5-1.3,1.3-1.3h11.4c0.2-0.2,0.4-0.5,0.6-0.7l0,0c0.4-0.5,0.8-1.1,1.3-1.7H39.4h-2.5c-0.7,0-1.4,0.6-1.4,1.4v9.8
			c0,0.7,0.6,1.4,1.4,1.4h1.8c0.2-0.1,0.4-0.2,0.7-0.2H76.9z M51.2,96.2h10.9c0.7,0,1.3,0.5,1.3,1.3s-0.6,1.3-1.3,1.3H51.2
			c-0.7,0-1.3-0.5-1.3-1.3S50.4,96.2,51.2,96.2z M42.9,93.6c2.2,0,4,1.8,4,4c0,2.2-1.8,4-4,4c-2.2,0-4-1.8-4-4
			C38.9,95.4,40.7,93.6,42.9,93.6z" fill='none'/>
		<rect x="40.7" y="65.9"  width="46.5" height="2.6" fill='none'/>
		<path  d="M42.9,78.6c0.7,0,1.4-0.6,1.4-1.4s-0.5-1.4-1.4-1.4c-0.7,0-1.4,0.6-1.4,1.4S42.1,78.6,42.9,78.6z" fill='none'/>
		<path  d="M85.6,83.4c0-0.7-0.1-1.5-0.1-2.2H70.1c-0.7,0-1.3-0.5-1.3-1.3v-5.3c0-0.7,0.5-1.3,1.3-1.3h15.6
			c0.1-0.8,0.4-1.5,0.7-2.2c0,0,0,0,0-0.1h-47h-2.5c-0.7,0-1.4,0.6-1.4,1.4v9.8c0,0.7,0.6,1.4,1.4,1.4h1.8c0.2-0.1,0.4-0.2,0.7-0.2
			H85.6z M51.2,76h10.9c0.7,0,1.3,0.5,1.3,1.3s-0.6,1.3-1.3,1.3H51.2c-0.7,0-1.3-0.5-1.3-1.3S50.4,76,51.2,76z M42.9,73.3
			c2.2,0,4,1.8,4,4s-1.8,4-4,4c-2.2,0-4-1.8-4-4S40.7,73.3,42.9,73.3z" fill='none'/>
		<path  d="M85.9,87.1c0-0.3,0-0.6-0.1-0.9H40.7v2.6H85c0.2-0.3,0.3-0.5,0.5-0.8C85.7,87.7,85.8,87.3,85.9,87.1z" fill='none'/>
		<path  d="M42.9,55.5c-0.7,0-1.4,0.6-1.4,1.4c0,0.7,0.6,1.4,1.4,1.4c0.7,0,1.4-0.6,1.4-1.4
			C44.3,56.2,43.8,55.5,42.9,55.5z" fill='none'/>
		<path  d="M92.4,61.9v-1H70.1c-0.7,0-1.3-0.5-1.3-1.3v-5.3c0-0.7,0.5-1.3,1.3-1.3h22.3v-0.9c0-0.7-0.6-1.4-1.4-1.4H36.9
			c-0.7,0-1.4,0.6-1.4,1.4v9.8c0,0.7,0.6,1.4,1.4,1.4h1.8c0.2-0.1,0.4-0.2,0.7-0.2h49c0.2,0,0.5,0.1,0.7,0.2H91
			C91.7,63.3,92.4,62.7,92.4,61.9z M42.9,61c-2.2,0-4-1.8-4-4s1.8-4,4-4c2.2,0,4,1.8,4,4S45.1,61,42.9,61z M62.1,58.3H51.2
			c-0.7,0-1.3-0.5-1.3-1.3c0-0.7,0.5-1.3,1.3-1.3h10.9c0.7,0,1.3,0.5,1.3,1.3C63.3,57.7,62.8,58.3,62.1,58.3z" fill='none'/>
		<path  d="M42.9,98.9c0.7,0,1.4-0.6,1.4-1.4c0-0.7-0.5-1.4-1.4-1.4c-0.7,0-1.4,0.6-1.4,1.4S42.1,98.9,42.9,98.9z" fill='none'/>
		<path  d="M80,96.2h-8.6v2.6h7.5c0.2-0.5,0.4-1,0.6-1.5C79.6,96.9,79.8,96.6,80,96.2z" fill='none'/>
		<rect x="71.4" y="55.8"  width="20.9" height="2.5" fill='none'/>
		<polygon  points="72,125.1 72,125.1 72,125.1 		" fill='none'/>
		<polygon  points="69.7,123.1 69.7,123.1 69.7,123.1 		" fill='none'/>
		<path  d="M74.9,5.3c12.2,0,22.2,10,22.2,22.2c0,2.5-0.5,5-1.3,7.4c1.5,0.1,2.9,0.3,4.3,0.7c0.8-2.7,1.3-5.3,1.3-8
			c0-14.5-11.8-26.4-26.4-26.4c-8.6,0-16.7,4.3-21.6,11.4c1.2,0.6,2.4,1.3,3.4,2.1C61,8.9,67.7,5.3,74.9,5.3z" fill='#1254B5'/>
		<path  d="M34.2,21.9c2.3-4.1,6.6-6.8,11.5-6.8c2.5,0,4.9,0.6,7,2c0.2,0.2,0.5,0.3,0.8,0.4c-2.2-1.5-4.8-2.5-7.7-2.5
			C40.7,15,36.4,17.8,34.2,21.9z" fill='#1254B5'/>
		<path  d="M29,33.6c0.1,0,0.3,0,0.4,0c-0.5-1.7-0.8-3.5-0.8-5.3c0-2.9,0.7-5.7,2-8.1c-1.4,2.5-2.1,5.3-2.1,8.3
			c0,0.4,0,0.7,0,1.1C17.3,29.9,8.3,39.1,8.3,50.4c0,10.4,7.5,19,17.6,20.6h0.4c1,0,1.9-0.7,2-2c0.2-1.1-0.6-2.2-1.8-2.4
			c-7.9-1.2-14-8.2-14-16.4C12.5,41,19.9,33.6,29,33.6z" fill='#1254B5'/>
		<path  d="M106.6,41.6c-0.7,0.9-2.1,1.1-3,0.4c-1.3-1-2.7-1.7-4.2-2.2c5.5,1.9,9.5,7.2,9.5,13.2c0,4.2-1.8,8.2-5.1,10.8
			c-0.9,0.7-1,2.1-0.3,3c0.7,0.9,2.1,1,3,0.3c4.2-3.4,6.6-8.6,6.6-14c0-5.4-2.4-10.3-6.3-13.7C107.1,40.1,107.1,40.9,106.6,41.6z" fill='#1254B5'/>
		<path  d="M106.8,39.4c-0.1-0.3-0.3-0.6-0.6-0.8c-1.9-1.4-3.9-2.4-6.1-3c0,0,0,0.1,0,0.1
			C102.6,36.5,104.9,37.8,106.8,39.4z" fill='#1254B5'/>
		<path  d="M95.4,38.1c-0.4-0.6-0.4-1.3-0.1-1.9c0.2-0.4,0.3-0.8,0.5-1.3c-0.2,0-0.4,0-0.7,0c-4.4,0-8.5,1.5-11.8,4.3
			c-0.9,0.7-1,2.1-0.3,3c0.4,0.4,1,0.7,1.6,0.7c0.5,0,0.9-0.1,1.5-0.3c2.6-2.2,5.8-3.4,9.1-3.4c1.5,0,2.9,0.2,4.2,0.6
			c-0.8-0.3-1.7-0.5-2.5-0.6C96.3,39.1,95.7,38.7,95.4,38.1z" fill='#1254B5'/>
		<path  d="M95.3,36.2c-0.3,0.6-0.3,1.3,0.1,1.9c0.3,0.6,0.9,1,1.5,1.1c0.9,0.1,1.7,0.3,2.5,0.6c1.5,0.5,2.9,1.2,4.2,2.2
			c0.9,0.7,2.3,0.5,3-0.4c0.5-0.7,0.5-1.5,0.2-2.2c-1.9-1.7-4.2-3-6.7-3.7c0,0,0-0.1,0-0.1c-1.4-0.4-2.9-0.6-4.3-0.7
			C95.6,35.4,95.5,35.8,95.3,36.2z" fill='#1254B5'/>
		<path  d="M32.9,31.1c0.2,0.6,0,1.4-0.5,1.9s-1.1,0.7-1.8,0.7c-0.4-0.1-0.8-0.1-1.2-0.1c1.3,4.3,4.3,8,8.5,10.2
			c0.4,0.2,0.6,0.3,1,0.3c0.7,0,1.4-0.3,1.7-1.4c0.5-1,0.1-2.3-0.9-2.8c-4.4-2.3-7.1-6.7-7.1-11.7c0-2.3,0.6-4.4,1.6-6.3
			c-1.1,1.9-1.7,4.1-1.7,6.4C32.5,29.2,32.6,30.2,32.9,31.1z" fill='#1254B5'/>
		<path  d="M54.3,17.4c-0.2,0.1-0.5,0.1-0.8,0.1c3.4,2.4,5.6,6.3,5.6,10.7c0,1.8-0.3,3.6-1,5.2c-0.5,1.1,0,2.3,1.1,2.8
			c1.1,0.5,2.3,0,2.8-1.1c0.9-2.2,1.4-4.4,1.4-6.8c0-5.5-2.6-10.4-6.6-13.6c-0.4,0.6-0.8,1.1-1.1,1.7C55.4,16.9,55,17.2,54.3,17.4z" fill='#1254B5'/>
		<path  d="M45.9,11.1c2.5,0,5.1,0.5,7.4,1.6c0,0,0.1-0.1,0.1-0.1c-2.2-1.1-4.7-1.7-7.4-1.7c-6.7,0-12.5,3.8-15.4,9.3
			C33.6,14.8,39.3,11.1,45.9,11.1z" fill='#1254B5'/>
		<path  d="M29.4,33.6c0.4,0,0.8,0,1.2,0.1c0.7,0,1.3-0.2,1.8-0.7s0.7-1.3,0.5-1.9c-0.3-0.9-0.4-1.9-0.4-2.8
			c0-2.3,0.6-4.5,1.7-6.4c2.2-4.1,6.5-6.9,11.6-6.9c2.9,0,5.6,0.9,7.7,2.5c0.3,0,0.5,0,0.8-0.1c0.7-0.2,1.1-0.5,1.4-1
			c0.3-0.6,0.7-1.2,1.1-1.7c-1-0.8-2.2-1.5-3.4-2.1c0,0-0.1,0.1-0.1,0.1c-2.3-1.1-4.9-1.6-7.4-1.6c-6.6,0-12.3,3.7-15.3,9.1
			c-1.3,2.4-2,5.2-2,8.1C28.6,30.1,28.9,31.9,29.4,33.6z" fill='#1254B5'/>
		<path  d="M38.7,63.3h-1.8c-0.8,0-1.4-0.7-1.4-1.4v-9.8c0-0.8,0.7-1.4,1.4-1.4H91c0.8,0,1.4,0.7,1.4,1.4V53h1.3
			c0.5,0,1,0.3,1.2,0.8v-1.7c0-2.1-1.7-3.9-3.9-3.9H36.9c-2.1,0-3.9,1.7-3.9,3.9v9.8c0,2.1,1.7,3.9,3.9,3.9h1.2v-1.4
			C38.1,63.9,38.3,63.5,38.7,63.3z" fill='#1254B5'/>
		<path  d="M93.7,60.9h-1.3v1c0,0.8-0.7,1.4-1.4,1.4h-1.9c0.4,0.2,0.6,0.6,0.6,1.1v1.4H91c2.2,0,3.9-1.7,3.9-3.9v-2
			C94.7,60.5,94.3,60.9,93.7,60.9z" fill='#1254B5'/>
		<path  d="M42.9,53c-2.2,0-4,1.8-4,4s1.8,4,4,4c2.2,0,4-1.8,4-4S45.1,53,42.9,53z M42.9,58.3c-0.8,0-1.4-0.7-1.4-1.4
			c0-0.8,0.7-1.4,1.4-1.4c0.9,0,1.4,0.7,1.4,1.4C44.3,57.7,43.6,58.3,42.9,58.3z" fill='#1254B5'/>
		<path  d="M62.1,55.7H51.2c-0.8,0-1.3,0.6-1.3,1.3c0,0.8,0.6,1.3,1.3,1.3h10.9c0.7,0,1.2-0.6,1.3-1.3
			C63.4,56.2,62.8,55.7,62.1,55.7z" fill='#1254B5'/>
		<path  d="M68.8,54.3v5.3c0,0.8,0.6,1.3,1.3,1.3h22.3V53H70.1C69.3,53,68.8,53.6,68.8,54.3z M71.4,55.8h20.9v2.5H71.4
			V55.8z" fill='#1254B5'/>
		<path  d="M95,59.6v-5.3c0-0.2,0-0.4-0.1-0.5v6.2C94.9,59.8,95,59.7,95,59.6z" fill='#1254B5'/>
		<path  d="M93.7,53h-1.3v7.9h1.3c0.6,0,1-0.4,1.2-1v-6.2C94.7,53.3,94.2,53,93.7,53z" fill='#1254B5'/>
		<path  d="M39.4,63.1c-0.3,0-0.5,0.1-0.7,0.2h50.4c-0.2-0.1-0.4-0.2-0.7-0.2H39.4z" fill='#1254B5'/>
		<path  d="M40.7,65.9h46.5v2.6h1c0.4-0.4,1-0.8,1.5-1.2v-1.5H38.1v2.7h2.6V65.9z" fill='#1254B5'/>
		<path  d="M89.7,64.4c0-0.5-0.3-0.9-0.6-1.1H38.7c-0.4,0.2-0.6,0.6-0.6,1.1v1.4h51.6V64.4z" fill='#1254B5'/>
		<path  d="M38.7,83.6h-1.8c-0.8,0-1.4-0.7-1.4-1.4v-9.8c0-0.8,0.7-1.4,1.4-1.4h2.5c-0.7,0-1.3-0.5-1.3-1.3v-1.2h-1.2
			c-2.1,0-3.9,1.7-3.9,3.9v9.8c0,2.1,1.7,3.9,3.9,3.9h1.2v-1.4C38.1,84.2,38.3,83.8,38.7,83.6z" fill='#1254B5'/>
		<path  d="M39.4,71h47c0.4-0.9,1-1.7,1.8-2.5h-1H40.7h-2.6v1.2C38.1,70.5,38.7,71,39.4,71z" fill='#1254B5'/>
		<path  d="M42.9,81.3c2.2,0,4-1.8,4-4s-1.8-4-4-4c-2.2,0-4,1.8-4,4S40.7,81.3,42.9,81.3z M42.9,75.8
			c0.9,0,1.4,0.6,1.4,1.4s-0.7,1.4-1.4,1.4c-0.8,0-1.4-0.6-1.4-1.4S42.2,75.8,42.9,75.8z" fill='#1254B5'/>
		<path  d="M51.2,78.6h10.9c0.7,0,1.3-0.5,1.3-1.3S62.8,76,62.1,76H51.2c-0.8,0-1.3,0.5-1.3,1.3S50.5,78.6,51.2,78.6z" fill='#1254B5'/>
		<path  d="M71.4,78.6V76h14c0-0.9,0.1-1.8,0.2-2.7H70.1c-0.8,0-1.3,0.6-1.3,1.3v5.3c0,0.8,0.6,1.3,1.3,1.3h15.4
			c0-0.9-0.1-1.8-0.1-2.6H71.4z" fill='#1254B5'/>
		<path  d="M39.4,83.4c-0.3,0-0.5,0.1-0.7,0.2h46.9c0-0.1,0-0.1,0-0.2H39.4z" fill='#1254B5'/>
		<path  d="M40.7,86.2h45.2c0,0,0-0.1,0-0.1H38.1v2.7h2.6V86.2z" fill='#1254B5'/>
		<path  d="M85.7,83.6H38.7c-0.4,0.2-0.6,0.6-0.6,1.1v1.4h47.7C85.8,85.3,85.7,84.4,85.7,83.6z" fill='#1254B5'/>
		<path  d="M38.7,103.9h-1.8c-0.8,0-1.4-0.7-1.4-1.4v-9.8c0-0.8,0.7-1.4,1.4-1.4h2.5c-0.7,0-1.3-0.5-1.3-1.3v-1.2h-1.2
			c-2.1,0-3.9,1.7-3.9,3.9v9.8c0,2.1,1.7,3.9,3.9,3.9h1.2V105C38.1,104.5,38.3,104.1,38.7,103.9z" fill='#1254B5'/>
		<path  d="M39.4,91.3h43.9c0.6-0.8,1.2-1.7,1.7-2.5H40.7h-2.6V90C38.1,90.8,38.7,91.3,39.4,91.3z" fill='#1254B5'/>
		<path  d="M42.9,101.6c2.2,0,4-1.8,4-4c0-2.2-1.8-4-4-4c-2.2,0-4,1.8-4,4C38.9,99.8,40.7,101.6,42.9,101.6z M42.9,96.1
			c0.9,0,1.4,0.7,1.4,1.4c0,0.8-0.7,1.4-1.4,1.4c-0.8,0-1.4-0.6-1.4-1.4S42.2,96.1,42.9,96.1z" fill='#1254B5'/>
		<path  d="M51.2,98.8h10.9c0.7,0,1.3-0.5,1.3-1.3s-0.6-1.3-1.3-1.3H51.2c-0.8,0-1.3,0.5-1.3,1.3S50.5,98.8,51.2,98.8z"
			 fill='#1254B5'/>
		<path  d="M71.4,98.8v-2.6H80c0.4-0.9,0.9-1.7,1.5-2.5H70.1c-0.8,0-1.3,0.6-1.3,1.3v5.2c0,0.8,0.6,1.3,1.3,1.3h7.8
			c0.3-0.9,0.6-1.8,1-2.7H71.4z" fill='#1254B5'/>
		<path  d="M39.4,103.7c-0.3,0-0.5,0.1-0.7,0.2h38.1c0-0.1,0.1-0.1,0.1-0.2H39.4z" fill='#1254B5'/>
		<path  d="M75.1,110.6c0-0.5,0.2-0.9,0.6-1.1c0,0,0-0.1,0-0.1c0-0.1,0-0.2,0-0.2H40.7v-2.6h35c0,0,0-0.1,0-0.1H38.1v3.9
			c0,0.8,0.6,1.3,1.3,1.3h35.5c0.1-0.1,0.1-0.2,0.2-0.4C75.1,111.1,75.1,110.9,75.1,110.6z" fill='#1254B5'/>
		<path  d="M76.5,104.4c0.1-0.2,0.2-0.3,0.3-0.5H38.7c-0.4,0.2-0.6,0.6-0.6,1.1v1.4h37.6
			C75.9,105.6,76.2,104.9,76.5,104.4z" fill='#1254B5'/>
		<polygon  points="68.9,124.1 68.9,124.1 68.9,124.1 " fill='#FFFFFF'/>
		<path  d="M69.7,123.1C69.7,123.1,69.7,123.1,69.7,123.1C69.7,123.1,69.7,123.1,69.7,123.1L69.7,123.1z M72,125.1
			C72,125.1,72,125.1,72,125.1C72,125.1,72,125.1,72,125.1L72,125.1z" fill='#FFFFFF' />
	</g>
</g>
<g id="Layer_4">
	<path  d="M88.1,119.2c2.2-0.2,2.5-2.5,1.4-3.5c-0.8-0.8-5.5-4.3-6.7-5.7c-0.6-0.6-1.3-0.9-1.7-1.7
		c-0.7-1.6-1.3-4-0.3-5.6c0.2-0.3,0.3-0.2,0.2,0.5c-0.7,3.6,1.6,6.5,2.1,5c0.4-1,0-2.9,0.2-4.4c0.3-2.6,2.7-7.6,3.7-7.9
		c-1.6-3,1.9-5.3,1.8-7.9c0-1.7,1.5,2.1,3,2.9c1.7,0.9,3.6-1.7,6.2-3c0.8-0.4,1.7-0.8,1.7-1.1c-0.3-1.5-3.5,1.9-6.3,2
		c-1.3,0.1-1.8-0.3-2.3-0.7c-1.5-1.5,0.2-0.2,2.4-0.6c1-0.2,1.3-0.3,2.4-0.8c1.1-0.4,2.3-1.1,3.5-1.4c0.8-0.2,0.8-0.9,0.4-1
		c-0.2-0.1-0.5-0.1-0.7,0.3c-0.5,0.9-2.9,1.4-3.7,1.6c-1,0.3-2,0.6-3.5,0.5c-2.2-0.1-1.7-1.1-3.2-2c-0.5-0.3-0.3-0.9,0.3-1.5
		c0.3-0.3,1.2-0.5,1.6-1.2c0.1-0.1,0.6-0.7,1-1c0.2-0.1,0.2-2.7-1.2-2.8c-1.2,0-1.5,0.8-1.4,1.7c0,0.9,0.5,1.6,0.8,1.6
		c0.6,0,0,0.7-0.3,0.8c-0.5,0.2-1.2-2-1.1-3c0.1-1.1,0.6-3,2-2.9c1.2,0,2.1,1.6,2.1,4.2c0,0.4,2-0.2,2.6,0.5c0.5,0.5-1.6-4.7,3.1-5
		c1.2,0.2,2.4,0.6,2.9,3.5c-0.2,0.3,0.3,2.3-0.5,2.5c-0.9,0.3-1.5,0-1-0.9c0.4-0.9,0-3.1-1.9-3c-1.9,0.1-1.6,3.5-1.1,3.5
		c0.5,0.1,1.8,1,2.7,1.2c3,0.6,0.8,2.3,1.2,4.3c0.4,2.3,2,1.7,3.4,7.9c0.3,0.4,1.4,0.7,2.5,5.5c1,4.3-0.4,7.4,2,7.1
		c0.5-0.1,1.3-0.2,1.7-1.4c0.9-3.2-0.5-6.9-1.8-9.5c-0.8-1.5-1.5-2.5-1.9-2.8c1.6,0.9,3.6,3.9,4,6.1c0.6,2.9,1,4.1,0.1,7.2
		c0.5,0.3,1.8,0.8,1.8,1.5c-1.4-1.1-5.6-1.3-5.7,1.4c-0.7,0-1.3,0.1-1.7,0.6c-1.7,2-0.1,6-0.3,8.2c-0.2,1.9-0.7,3.8-1,5.7
		c-1,0-0.9-0.8-0.6-1.8c0.3-0.9,0.7-2.1,0.8-3.1c0-1-0.1-1.6-0.3-1.8c-0.3-0.2-0.6,0.2-1.2,1c-1.2,1.9-3.7,2.7-6,3
		c-2.3,0.3-4.5,0.1-5.7-1.2c-0.4-0.4-1,0.1-1.1,0.2c-0.1,0.2,0.4,0.5,0.7,1.1c0.5,1,1,2.5-0.2,3.1C90.3,121.5,89.2,121.3,88.1,119.2
		L88.1,119.2z M87.2,119.1c0.8,1.3,3.8,6.9-1.4,7.6c-1.7,0.2-4.5-1-7.2-1.7c-2.4-0.6-4.9-0.9-6.3-1.3c-0.8-0.2-1.2-0.5-1.2-0.9
		c-0.2-0.9,1-2.2,1.1-3.3c0.1-1.1-0.4-1.7-0.8-2.5c-0.4-0.9-0.5-1.6-0.2-1.9c0.2-0.3,0.7-0.4,1.5-0.3c1,0.1,2.2-0.1,2.8-0.5
		c1.1-0.7,1.6-2,1.1-3.6c0,1.6-0.5,2.2-1.8,2.9c-1.2,0.7-3.1,0.1-4,0.9c-1,0.9,0.4,3.2,0.3,5c-0.1,1.3-1.5,2.8-0.9,4.1
		c0.6,1.3,3.5,1.5,6.5,2.1c4.3,0.9,6.8,2.4,8.7,2.5c2.9,0.1,3.3-2.8,7.8-2.9c1.3-0.1,2.6-0.1,3.9-0.1c1.5,0,2.9,0,4.4,0
		c3,0.1,2,1.6,3.9,2.6c1.6,0.8,4.6,0.5,5.3-0.2c1-0.9,3.5-3.1,5.5-4.1c2.5-1.2,8.2-3.4,4-6c-1-0.6-3.3-1.2-3.5-5.7
		c-0.9,0.8-0.8,4.9,1.7,5.7c2.7,0.9,4.4,2.4-0.6,4.2c-3.4,1.1-3.9,1.5-6.6,3.7c-2.7,2.2-6.7,1.3-6-3.4c0.4-2.5,0.6-4.5,0-6.6
		c-0.3-1-0.4-2.4-0.2-3.3c0.4-1.8,1.4-2.4,2.3-0.6c0.6,1.1,0.8,2.4,3,2.5c3.4,0.2,4.1-3.3,5.2-3.5c0.7-0.1,1.5-2.2,0.9-5.5
		c-0.6-3.6-2.7-9.2-5.4-12c-2.2-2.4-3.6-4.5-4.5-7.4c-0.7-2.5-1.2-4.9-1-7.2c0.2-3-1.5-7.2-4.1-9.2c-1.7-1.2-4.3-1.9-6.6-1.9
		c-1.3,0-2.6,0.2-3.5,0.7c-3.9,2.1-4.5,5.2-4.4,8.7c0.1,3.3,0.2,7,0.5,10.6c-0.4,1.6-2.7,4.7-4.2,6.6c-2,1.9-3,5.7-4.2,9
		c-0.7,1.8-1.8,2.5-1.9,4.8c0,0.6,0,2.3,0.6,1.8C80,107.7,82.9,112.2,87.2,119.1L87.2,119.1z M99.2,71.9c-0.1,0.4-0.6,0.7-0.3,0.9
		c0.3,0.3,0.5-0.4,1.2-0.6c0.2-0.1,1,0,1.1-0.3c0.1-0.2-0.4-0.3-0.7-0.6c-0.3-0.3-0.6-0.5-0.8-0.5C99,70.8,99.3,71.6,99.2,71.9
		L99.2,71.9z M103.2,85.5c0.2-0.3,0.4,0.4,1,0.9c0.5,0.3,1,0.1,1.2,0.7c0.1,0.5-0.2,1-0.6,0.9C104.1,87.9,102.5,86.2,103.2,85.5
		L103.2,85.5z M92.4,81.3c-1.1-0.1-1.2,0.7-0.8,0.7C92,82,91.7,81.4,92.4,81.3L92.4,81.3z M90.5,79.3c0.1,0,0.3,0.2,0.3,0.5
		c-0.1,0.4,0,0.7,0.2,0.7c0,0,0.1,0,0.1-0.1c0.1-0.8-0.3-1.5-0.5-1.5C90.3,78.7,90.3,79.3,90.5,79.3L90.5,79.3z M98.4,78.9
		c0.3,0.1,0.5,0.6,0.6,1.1c0,0,0.4-0.1,0.4-0.2c0-0.8-0.7-1.2-0.9-1.2C98.1,78.7,98.2,78.9,98.4,78.9L98.4,78.9z M94.4,81.4
		c1-0.5,1.3,0.3,1,0.4C95,81.9,95,81.2,94.4,81.4L94.4,81.4z M82.5,98.1c-0.5-0.1,0.1-0.4,0.4-0.8c0.3-0.5,0.2-1.1,0.5-1
		c0.3,0.1,0.1,0.4-0.1,1C83.2,97.7,82.7,98.1,82.5,98.1L82.5,98.1z" fill-rule='evenodd' clip-rule='evenodd' fill='#1254B5'/>
</g>
</svg>
