<?xml version="1.0" encoding="utf-8"?>
<!-- Generator: Adobe Illustrator 25.3.1, SVG Export Plug-In . SVG Version: 6.00 Build 0)  -->
<svg height="512" width="512" xmlns="http://www.w3.org/2000/svg" xmlns:xlink="http://www.w3.org/1999/xlink" x="0px" y="0px"
	 viewBox="0 0 130 130" style="enable-background:new 0 0 130 130;" xml:space="preserve">

<symbol  id="A" viewBox="-31.3 -32 62.5 64">
	<path  d="M-28-14.2C-22.8-24.8-11.9-32,0.7-32c8.1,0,15.4,3.1,21.1,8l-9.3,9.3c-3.2-2.6-7.3-4.2-11.8-4.2
		c-8.4,0-15.5,5.4-18,13" fill-rule='evenodd' clip-rule='evenodd' fill='#EA4335'/>
	<g>
		<path  d="M-28-14.2c-2.1,4.3-3.3,9.1-3.3,14.2s1.2,9.9,3.3,14.2L-17.2,6c-0.6-1.9-1-3.9-1-5.9s0.3-4,1-5.9 M-17.2-5.9
			L-28-14.2L-17.2-5.9z" fill-rule='evenodd' clip-rule='evenodd' fill='#FBBC05'/>
		<path  d="M21.6,24l-10.2-7.9c3.3-2.1,5.7-5.4,6.5-9.6H0.7V-5.8h29.8C31-3.9,31.3-1.9,31.3,0
			C31.3,10.4,27.5,18.6,21.6,24z" fill-rule='evenodd' clip-rule='evenodd' fill='#4285F4'/>
		<path  d="M21.6,24C16,29.2,8.5,32,0.7,32c-12.6,0-23.5-7.2-28.7-17.8l10.8-8.2c2.5,7.6,9.6,13,18,13
			c4.1,0,7.8-1,10.6-2.8L21.6,24z" fill-rule='evenodd' clip-rule='evenodd' fill='#34A853'/>
	</g>
</symbol>
<g>
	<defs>
		<rect id="SVGID_1_" x="2.6" y="1.1" width="124.8" height="127.7"/>
	</defs>
	<clipPath id="SVGID_2_">
		<use xlink:href="#SVGID_1_"  style="overflow:visible;"/>
	</clipPath>
	<g style="clip-path:url(#SVGID_2_);">
		
			<use xlink:href="#A"  width="62.5" height="64" x="-31.3" y="-32" transform="matrix(1.9957 0 0 1.9957 65 65)" style="overflow:visible;"/>
	</g>
</g>
</svg>
