<?xml version="1.0" encoding="utf-8"?>
<!-- Generator: Adobe Illustrator 25.3.1, SVG Export Plug-In . SVG Version: 6.00 Build 0)  -->
<svg height="512" width="512" xmlns="http://www.w3.org/2000/svg" xmlns:xlink="http://www.w3.org/1999/xlink" x="0px" y="0px"
	 viewBox="0 0 130 130" style="enable-background:new 0 0 130 130; fill:#1254B5;" xml:space="preserve">

<g>
	<path  d="M122.3,7.9H7.7c-3.4,0-6.2,2.8-6.2,6.2v78.8c0,3.4,2.8,6.2,6.2,6.2H45c-0.4,7.3-2.9,9.3-3.6,9.7H21.7
		c-1.2,0-2.2,1-2.2,2.2v9c0,1.2,1,2.2,2.2,2.2h86.6c1.2,0,2.2-1,2.2-2.2v-9c0-1.2-1-2.2-2.2-2.2H88.6c-0.7-0.4-3.2-2.5-3.6-9.7h37.3
		c3.4,0,6.2-2.8,6.2-6.2V14C128.5,10.6,125.7,7.9,122.3,7.9z M7.7,12.3h114.6c0.9,0,1.7,0.7,1.7,1.7v62.6h-5.2V19.8
		c0-1.2-1-2.2-2.2-2.2H13.5c-1.2,0-2.2,1-2.2,2.2v56.7H6V14C6,13.1,6.8,12.3,7.7,12.3z M15.7,76.6V22.1h98.6v54.5H15.7z
		 M106.1,117.7H23.9v-4.5h17.9l0,0l0,0h46.3l0,0l0,0h17.9L106.1,117.7L106.1,117.7z M82.9,108.7H47.1c1.1-2.1,2.1-5.2,2.4-9.7h31.1
		C80.8,103.5,81.8,106.6,82.9,108.7z M122.3,94.5H7.7c-0.9,0-1.7-0.7-1.7-1.7V81h118v11.8C124,93.7,123.2,94.5,122.3,94.5z"/>
	<path  d="M115.8,84.8c-1.6,0-3,1.3-3,3c0,1.6,1.3,3,3,3s3-1.3,3-3C118.8,86.1,117.4,84.8,115.8,84.8z"/>
	<g>
		<path  d="M23.2,58.1h-2.6V39.4h2.6V58.1z"/>
		<path  d="M27.5,44.8h2.6v13.3h-2.6V44.8z M35.6,50c0-0.9-0.2-1.7-0.7-2.2S33.7,47,32.8,47c-0.9,0-1.5,0.2-2,0.7
			c-0.5,0.5-0.7,1.1-0.7,1.9l-0.3-2.6c0.4-0.8,0.9-1.4,1.6-1.9s1.4-0.7,2.2-0.7c1.4,0,2.6,0.5,3.4,1.4c0.8,0.9,1.2,2.3,1.2,4v8.1
			h-2.6L35.6,50L35.6,50z"/>
		<path  d="M41.2,44.8h6v2.4h-6V44.8z M43.3,57.2c-0.5-0.6-0.7-1.5-0.7-2.6V40.9h2.6v13.8c0,0.3,0.1,0.6,0.2,0.7
			c0.1,0.2,0.3,0.3,0.6,0.3h1.2v2.5h-1.5C44.6,58.1,43.8,57.8,43.3,57.2z"/>
		<path  d="M53.1,57.6c-0.9-0.5-1.5-1.1-2-2s-0.7-2-0.7-3.2v-1.5c0-1.3,0.2-2.5,0.7-3.4s1.1-1.6,1.9-2.1
			c0.9-0.5,1.8-0.7,3-0.7c1.1,0,2.1,0.3,2.8,0.8c0.8,0.5,1.4,1.4,1.8,2.4c0.4,1.1,0.6,2.3,0.6,3.8v0.9h-9v-2.1h6.5
			c-0.1-1.1-0.4-1.9-0.8-2.5c-0.5-0.6-1.1-0.9-2-0.9c-1,0-1.8,0.3-2.3,1s-0.8,1.6-0.8,2.8v1.7c0,1.1,0.3,2,0.9,2.5
			c0.6,0.6,1.4,0.9,2.5,0.9c0.5,0,1.1-0.1,1.6-0.3c0.5-0.2,1-0.5,1.4-0.9l1.7,1.7c-0.7,0.6-1.4,1.1-2.2,1.5s-1.6,0.5-2.5,0.5
			C55,58.3,54,58,53.1,57.6z"/>
		<path  d="M64.9,44.8h2.6v13.3h-2.6V44.8z M71.4,47.3C71,47.1,70.6,47,70.1,47c-0.8,0-1.5,0.2-1.9,0.7
			c-0.5,0.5-0.7,1.1-0.7,1.9l-0.3-2.6c0.4-0.8,0.9-1.4,1.6-1.9s1.4-0.7,2.1-0.7c0.6,0,1.2,0.1,1.6,0.3c0.5,0.2,0.9,0.4,1.3,0.8
			l-1.7,2.3C72,47.6,71.7,47.4,71.4,47.3z"/>
		<path  d="M76.1,44.8h2.6v13.3h-2.6V44.8z M84.2,50c0-0.9-0.2-1.7-0.7-2.2C83,47.3,82.3,47,81.4,47
			c-0.9,0-1.5,0.2-2,0.7c-0.5,0.5-0.7,1.1-0.7,1.9l-0.3-2.6c0.4-0.8,0.9-1.4,1.6-1.9c0.7-0.4,1.4-0.7,2.2-0.7c1.4,0,2.6,0.5,3.4,1.4
			c0.8,0.9,1.2,2.3,1.2,4v8.1h-2.6L84.2,50L84.2,50z"/>
		<path  d="M91.4,57.2c-0.8-0.7-1.2-1.7-1.2-3.1c0-1.3,0.4-2.3,1.1-3s1.9-1,3.4-1h3.8l0.2,2.1h-3.9
			c-0.7,0-1.2,0.2-1.5,0.5c-0.3,0.3-0.5,0.8-0.5,1.4c0,0.7,0.2,1.2,0.7,1.5s1.1,0.5,2,0.5c1,0,1.8-0.1,2.2-0.3
			c0.5-0.2,0.7-0.5,0.7-1l0.3,1.9c-0.2,0.4-0.5,0.7-0.9,0.9c-0.3,0.2-0.7,0.4-1.2,0.5c-0.5,0.1-0.9,0.2-1.5,0.2
			C93.4,58.3,92.2,57.9,91.4,57.2z M98.3,49.6c0-0.9-0.2-1.6-0.7-2c-0.5-0.5-1.1-0.7-2-0.7c-0.5,0-1.1,0.1-1.6,0.2
			c-0.5,0.2-1,0.4-1.4,0.7l-1.9-1.3c0.5-0.6,1.2-1.1,2-1.4c0.8-0.4,1.8-0.5,2.8-0.5c1.1,0,2.1,0.2,2.8,0.6c0.8,0.4,1.4,1,1.8,1.7
			s0.6,1.6,0.6,2.7v8.6h-2.5L98.3,49.6L98.3,49.6z"/>
		<path  d="M107.4,54.6c0,0.3,0.1,0.6,0.2,0.7c0.2,0.2,0.4,0.3,0.6,0.3h1.2v2.5h-1.5c-1,0-1.8-0.3-2.3-0.9
			c-0.5-0.6-0.8-1.5-0.8-2.6V39.4h2.6L107.4,54.6L107.4,54.6z"/>
	</g>
</g>
</svg>
