<?xml version="1.0" encoding="utf-8"?>
<!-- Generator: Adobe Illustrator 25.3.1, SVG Export Plug-In . SVG Version: 6.00 Build 0)  -->
<svg height="512" width="512" xmlns="http://www.w3.org/2000/svg" xmlns:xlink="http://www.w3.org/1999/xlink" x="0px" y="0px"
	 viewBox="0 0 130 130" style="enable-background:new 0 0 130 130;" xml:space="preserve">

<g>
	<path  d="M129.3,62.3c-0.4-8.5-2.4-16.6-5.6-23.9c-0.9-2.2-2-4.2-3.3-6.3c-8.9-15-23.5-26-41-30
		c-3.8-0.9-7.6-1.4-11.6-1.6c-0.9,0-1.8,0-2.7,0h-0.2h-0.2c-0.9,0-1.8,0-2.7,0c-4,0.2-7.8,0.7-11.6,1.6c-17.4,4-32.2,15.2-41,30
		c-1.3,2-2.4,4.2-3.3,6.3c-3.3,7.2-5.2,15.4-5.6,23.9c0,0.9,0,1.8,0,2.7c0,1.1,0,2.4,0,3.4c0.4,8.3,2.4,16.1,5.6,23.1
		c0.9,2.2,2.2,4.2,3.3,6.3c8.9,15,23.5,26,41,30c3.8,0.9,7.6,1.4,11.6,1.6c0.9,0,1.8,0,2.7,0h0.2h0.2c0.9,0,1.8,0,2.7,0
		c4-0.2,7.8-0.7,11.6-1.6c17.4-4,32.2-15.2,41-30c1.3-2,2.4-4.2,3.3-6.3c3.3-7.1,5.2-15,5.6-23.1c0-1.1,0.2-2.4,0.2-3.4
		C129.3,64.1,129.3,63.2,129.3,62.3z M86.4,9.3c11.8,4.5,21.7,12.5,28.6,22.8H96.6c-2.5-9-6.1-16.8-10.5-22.8c0.2,0,0.4,0.2,0.7,0.4
		C86.6,9.3,86.4,9.3,86.4,9.3z M67.8,86h26.4c-0.4,2-0.7,3.8-1.1,5.6H67.8V86z M97.6,80.7H32.2c-8.7,0-15.7-7.1-15.7-15.7
		s7.1-15.7,15.7-15.7h65.5c8.7,0,15.7,7.1,15.7,15.7S106.3,80.7,97.6,80.7z M62,44H35.6c0.4-2,0.7-3.8,1.1-5.6h25.1V44H62z
		 M67.8,5.3c0.2,0,0.4,0,0.5,0l0,0c2.9,0.2,5.8,0.5,8.7,1.1c3.4,2.9,6.7,7.2,9.6,12.7c2.2,4,3.8,8.3,5.2,13h-24V5.3z M92.9,38.4
		c0.4,1.8,0.7,3.8,1.1,5.6H67.8v-5.6H92.9z M53.3,6.4c2.9-0.5,5.8-0.9,8.7-1.1v26.8H38.5c1.4-4.7,3.3-9,5.2-13
		C46.6,13.7,49.9,9.5,53.3,6.4z M43.9,9.1c-4.3,6-8,13.7-10.5,22.8H15.5C22.2,21.8,32.2,13.7,43.9,9.1z M11.8,38.4h19.9
		c-0.4,1.8-0.7,3.8-1.1,5.8c-9.9,0.7-17.9,8.3-19.2,18.1h-6C6,53.6,8.1,45.7,11.8,38.4z M5.6,68.4h6c1.6,9.4,9.4,16.6,19,17.4
		c0.4,2,0.7,3.8,1.1,5.8H11.8C8.1,84.5,6,76.8,5.6,68.4z M15.4,97.9h17.9c2.5,9,6.1,16.8,10.5,22.8C32.2,116.3,22.2,108.2,15.4,97.9
		z M62,124.7c-2.9-0.2-5.8-0.5-8.7-1.1c-3.4-2.9-6.7-7.2-9.6-12.7c-2.2-4-3.8-8.3-5.2-13H62V124.7z M36.9,91.6
		c-0.4-1.8-0.9-3.8-1.1-5.6h26.4v5.6H36.9z M76.5,123.6c-2.9,0.5-5.8,0.9-8.7,1.1V97.9h23.5c-1.4,4.7-3.3,9-5.2,13
		C83.2,116.3,79.9,120.5,76.5,123.6z M85.9,120.7c4.3-6,8-13.7,10.5-22.8h17.9C107.6,108.2,97.6,116.3,85.9,120.7z M118.1,91.6H98.2
		c0.4-1.8,0.7-3.8,1.1-5.8c9.6-0.7,17.5-8,19.2-17.4h6C123.9,76.8,121.7,84.5,118.1,91.6z M118.4,62.3c-1.3-9.8-9.2-17.4-19.2-18.1
		c-0.4-2-0.7-3.8-1.1-5.8h19.9c3.6,7.2,5.8,15.4,6.1,23.9H118.4z"  fill='#1254B5'/>
	<text transform="matrix(1 0 0 1 40.1069 76.8422)" fill='#1254B5' font-family='Corbel-Bold' font-size='33.4299px' >Intl</text>
</g>
</svg>
