<?xml version="1.0" encoding="utf-8"?>
<!-- Generator: Adobe Illustrator 25.3.1, SVG Export Plug-In . SVG Version: 6.00 Build 0)  -->
<svg height="512" width="512" xmlns="http://www.w3.org/2000/svg" xmlns:xlink="http://www.w3.org/1999/xlink" x="0px" y="0px"
	 viewBox="0 0 130 130" style="enable-background:new 0 0 130 130;" xml:space="preserve">

	

<g id="Layer_2_1_">
	<g>
		<path fill='none' d="M6.4,65.5c-0.1,0-0.3,0-0.4,0C6.1,65.5,6.3,65.5,6.4,65.5z"/>
		<path fill='none' d="M4.6,64.3c0-0.1-0.1-0.2-0.1-0.3C4.6,64.1,4.6,64.2,4.6,64.3z"/>
		<path fill='none' d="M4.6,49.2C4.6,49.2,4.6,49.2,4.6,49.2C4.6,49.2,4.6,49.2,4.6,49.2z"/>
		<path fill='none' d="M4.8,64.6c-0.1-0.1-0.1-0.2-0.1-0.3C4.7,64.4,4.7,64.5,4.8,64.6z"/>
		<path fill='none' d="M5.2,65c0,0-0.1-0.1-0.1-0.1C5.1,65,5.1,65,5.2,65z"/>
		<path fill='none' d="M5.4,65.2C5.4,65.2,5.4,65.2,5.4,65.2C5.4,65.2,5.4,65.2,5.4,65.2z"/>
		<path fill='none' d="M5.7,65.4C5.7,65.4,5.7,65.4,5.7,65.4C5.7,65.4,5.7,65.4,5.7,65.4z"/>
		<path fill='none' d="M4.8,48.9C4.8,48.9,4.8,48.9,4.8,48.9C4.8,48.9,4.8,48.9,4.8,48.9z"/>
		<path fill='none' d="M5,64.8c-0.1-0.1-0.1-0.1-0.1-0.2C4.9,64.7,4.9,64.8,5,64.8z"/>
		<path fill='none' d="M4.5,49.9c0-0.1,0-0.3,0-0.4C4.5,49.6,4.5,49.8,4.5,49.9z"/>
		<path fill='none' d="M9.4,56.8c0-3.1,2.5-5.5,5.6-5.5c3,0,5.5,2.5,5.6,5.5c0,0,0,0,0,0c0-3.1-2.5-5.6-5.6-5.6S9.4,53.6,9.4,56.8
			C9.4,56.7,9.4,56.7,9.4,56.8z"/>
		<path fill='none' d="M4.6,20.8C4.6,20.8,4.6,20.8,4.6,20.8C4.6,20.8,4.6,20.8,4.6,20.8z"/>
		<path fill='none' d="M4.5,21.5c0-0.1,0-0.3,0-0.4C4.5,21.2,4.5,21.4,4.5,21.5z"/>
		<path fill='none' d="M4.8,20.5C4.8,20.5,4.8,20.5,4.8,20.5C4.8,20.5,4.8,20.5,4.8,20.5z"/>
		<path fill='none' d="M5,48.7c0,0,0.1-0.1,0.1-0.1C5,48.6,5,48.6,5,48.7z"/>
		<path fill='none' d="M5.4,48.3c0.1-0.1,0.2-0.1,0.3-0.1C5.6,48.2,5.5,48.2,5.4,48.3z"/>
		<path fill='none' d="M5.2,48.5c0.1-0.1,0.1-0.1,0.2-0.1C5.3,48.4,5.2,48.4,5.2,48.5z"/>
		<path fill='none' d="M5.7,48.1c0.1,0,0.2-0.1,0.3-0.1C5.9,48.1,5.8,48.1,5.7,48.1z"/>
		<path fill='none' d="M15,58.6c-1,0-1.9-0.8-1.9-1.8c0,0,0,0,0,0c0,1,0.8,1.9,1.9,1.9c1,0,1.9-0.9,1.9-1.9c0,0,0,0,0,0
			C16.9,57.7,16,58.6,15,58.6z"/>
		<path fill='none' d="M5,20.3c0,0,0.1-0.1,0.1-0.1C5,20.2,5,20.2,5,20.3z"/>
		<path fill='none' d="M5.7,76.5c0.1,0,0.2-0.1,0.3-0.1C5.9,76.5,5.8,76.5,5.7,76.5z"/>
		<path fill='none' d="M15,79.5c3,0,5.5,2.5,5.6,5.6C20.6,82,18.1,79.5,15,79.5z"/>
		<path fill='none' d="M5.4,76.7c0.1-0.1,0.2-0.1,0.3-0.1C5.6,76.6,5.5,76.6,5.4,76.7z"/>
		<path fill='none' d="M15,86.9c-1,0-1.9-0.8-1.9-1.9c0,0,0,0,0,0C13.1,86.1,13.9,87,15,86.9c1,0.1,1.9-0.7,1.9-1.8c0,0,0,0,0,0
			C16.9,86,16,86.9,15,86.9z"/>
		<path fill='none' d="M5.2,76.9c0.1-0.1,0.1-0.1,0.2-0.1C5.3,76.8,5.2,76.8,5.2,76.9z"/>
		<path fill='none' d="M4.6,77.6C4.6,77.6,4.6,77.6,4.6,77.6C4.6,77.6,4.6,77.6,4.6,77.6z"/>
		<path fill='none' d="M4.5,78.3c0-0.1,0-0.3,0-0.4C4.5,78,4.5,78.2,4.5,78.3z"/>
		<path fill='none' d="M5,77.1C5,77,5,77,5.1,77C5,77,5,77,5,77.1z"/>
		<path fill='none' d="M4.8,77.3C4.8,77.3,4.8,77.3,4.8,77.3C4.8,77.3,4.8,77.3,4.8,77.3z"/>
		<path fill='none' d="M82.1,19.6c0.1,0,0.3,0,0.4,0C82.4,19.6,82.2,19.6,82.1,19.6z"/>
		<path fill='none' d="M15,22.7c-3.1,0-5.6,2.5-5.6,5.6c0,0,0,0,0,0C9.4,25.3,11.9,22.8,15,22.7c3,0.1,5.6,2.6,5.6,5.6c0,0,0,0,0,0
			C20.6,25.2,18.1,22.7,15,22.7z"/>
		<path fill='none' d="M15,30.2c-1,0-1.9-0.9-1.9-1.9c0,0,0,0,0,0.1C13.1,29.4,13.9,30.3,15,30.2c1,0.1,1.9-0.8,1.9-1.8
			c0,0,0,0,0-0.1C16.9,29.3,16,30.2,15,30.2z"/>
		<path fill='none' d="M5.7,19.7c0.1,0,0.2-0.1,0.3-0.1C5.9,19.7,5.8,19.7,5.7,19.7z"/>
		<path fill='none' d="M82.8,19.7C82.8,19.7,82.8,19.7,82.8,19.7C82.8,19.7,82.8,19.7,82.8,19.7z"/>
		<path fill='none' d="M83.7,20.5c0.1,0.1,0.1,0.2,0.1,0.3C83.8,20.7,83.8,20.6,83.7,20.5z"/>
		<path fill='none' d="M83.1,19.9C83.1,19.9,83.1,19.9,83.1,19.9C83.1,19.9,83.1,19.9,83.1,19.9z"/>
		<path fill='none' d="M83.9,20.8c0,0.1,0.1,0.2,0.1,0.3C83.9,21,83.9,20.9,83.9,20.8z"/>
		<path fill='none' d="M83.3,20.1c0,0,0.1,0.1,0.1,0.1C83.4,20.1,83.4,20.1,83.3,20.1z"/>
		<path fill='none' d="M83.5,20.3c0.1,0.1,0.1,0.1,0.1,0.2C83.6,20.4,83.6,20.3,83.5,20.3z"/>
		<polygon fill='none' points="65.8,109.5 65.8,109.5 65.8,109.5 		"/>
		<path fill='none' d="M5.2,20.1C5.2,20,5.3,20,5.4,19.9C5.3,20,5.2,20,5.2,20.1z"/>
		<path fill='none' d="M5.4,19.9c0.1-0.1,0.2-0.1,0.3-0.1C5.6,19.8,5.5,19.8,5.4,19.9z"/>
		<path fill='none' d="M15,83.2c-1,0-1.9,0.8-1.9,1.8c0,1.1,0.9,1.9,1.9,1.9c1,0,1.9-0.9,1.9-1.9C16.9,84.1,16,83.2,15,83.2z"/>
		<path fill='none' d="M10,76.4H6.4c-0.1,0-0.3,0-0.4,0c-0.1,0-0.2,0.1-0.3,0.1c0,0,0,0,0,0c-0.1,0-0.2,0.1-0.3,0.1c0,0,0,0-0.1,0
			c-0.1,0-0.1,0.1-0.2,0.1c0,0-0.1,0.1-0.1,0.1C5,77,5,77,5,77.1c-0.1,0.1-0.1,0.1-0.1,0.2c0,0,0,0,0,0.1c-0.1,0.1-0.1,0.2-0.1,0.3
			c0,0,0,0,0,0c0,0.1-0.1,0.2-0.1,0.3c0,0.1,0,0.2,0,0.4v13.6c0,1.1,0.9,1.9,1.9,1.9H10h31.4c-0.6-0.5-1.1-0.9-1.7-1.5
			c-1.5-1.7-2.8-3.4-3.9-5.4h-9.3c-1,0-1.8-0.8-1.8-1.8s0.8-1.8,1.7-1.8h0.1h7.7h0.1c-0.7-2.2-1.1-4.5-1.2-6.9v0H10z M15,90.7
			c-3.1,0-5.6-2.5-5.6-5.6c0-3.1,2.5-5.6,5.6-5.6s5.6,2.5,5.6,5.6C20.6,88.2,18.1,90.7,15,90.7z"/>
		<path fill='none' d="M6.4,48c-0.1,0-0.3,0-0.4,0c-0.1,0-0.2,0.1-0.3,0.1c0,0,0,0,0,0c-0.1,0-0.2,0.1-0.3,0.1c0,0,0,0-0.1,0
			c-0.1,0-0.1,0.1-0.2,0.1c0,0-0.1,0.1-0.1,0.1c0,0-0.1,0.1-0.1,0.1c-0.1,0.1-0.1,0.1-0.1,0.2c0,0,0,0,0,0.1
			c-0.1,0.1-0.1,0.2-0.1,0.3c0,0,0,0,0,0c0,0.1-0.1,0.2-0.1,0.3c0,0.1,0,0.2,0,0.4v13.7c0,0.1,0,0.3,0,0.4c0,0.1,0.1,0.2,0.1,0.3
			c0,0,0,0,0,0c0,0.1,0.1,0.2,0.1,0.3c0,0,0,0,0,0.1c0,0.1,0.1,0.1,0.1,0.2c0,0,0.1,0.1,0.1,0.1c0,0,0.1,0.1,0.1,0.1
			c0.1,0.1,0.1,0.1,0.2,0.1c0,0,0,0,0.1,0c0.1,0.1,0.2,0.1,0.3,0.1c0,0,0,0,0,0c0.1,0,0.2,0.1,0.3,0.1c0.1,0,0.2,0,0.4,0H10h25.7
			c0.9-1.7,2-3.3,3.3-4.7c0.7-0.8,1.5-1.6,2.3-2.3H26.5c-1,0-1.8-0.8-1.8-1.8s0.8-1.8,1.8-1.8h15.2c1,0,1.8,0.8,1.9,1.7
			c0,0.1,0,0.2,0,0.3c0,0-0.1,0-0.1,0.1c0,0,0,0,0,0c2-1.3,4.3-2.3,6.7-3c0-0.1,0.1-0.2,0.1-0.4c0.1-0.4,0.2-0.7,0.3-1
			c0.1-0.3,0.2-0.6,0.2-0.9c0.1-0.3,0.2-0.7,0.4-1c0.1-0.3,0.2-0.6,0.3-0.8c0.1-0.3,0.3-0.6,0.5-0.9c0.1-0.3,0.3-0.5,0.4-0.8
			c0-0.1,0.1-0.1,0.1-0.2h-0.1H10H6.4z M15,51.1c3.1,0,5.6,2.5,5.6,5.6c0,0,0,0,0,0c0,0,0,0,0,0c0,3.1-2.5,5.6-5.6,5.6
			s-5.6-2.5-5.6-5.6c0,0,0,0,0,0c0,0,0,0,0,0C9.4,53.6,11.9,51.1,15,51.1z"/>
		<path fill='none' d="M15,54.9c-1,0-1.9,0.9-1.9,1.9c0,1.1,0.9,1.8,1.9,1.8c1,0,1.9-0.9,1.9-1.8C16.9,55.8,16,54.9,15,54.9z"/>
		<path fill='none' d="M15,26.5c-1,0-1.9,0.8-1.9,1.8c0,1,0.9,1.9,1.9,1.9c1,0,1.9-0.9,1.9-1.9C16.9,27.4,16,26.5,15,26.5z"/>
		<rect x="54.8" y="26.5" fill='none' width="29.2" height="3.7"/>
		<path fill='none' d="M51.1,32v-7.3c0-1,0.8-1.8,1.8-1.8H84v-1.4c0-0.1,0-0.3,0-0.4c0-0.1-0.1-0.2-0.1-0.3c0,0,0,0,0,0
			c0-0.1-0.1-0.2-0.1-0.3c0,0,0,0,0-0.1c0-0.1-0.1-0.1-0.1-0.2c0,0-0.1-0.1-0.1-0.1c0,0-0.1-0.1-0.1-0.1c-0.1-0.1-0.1-0.1-0.2-0.1
			c0,0,0,0-0.1,0c-0.1-0.1-0.2-0.1-0.3-0.1c0,0,0,0,0,0c-0.1,0-0.2-0.1-0.3-0.1c-0.1,0-0.2,0-0.4,0H6.4c-0.1,0-0.3,0-0.4,0
			c-0.1,0-0.2,0.1-0.3,0.1c0,0,0,0,0,0c-0.1,0-0.2,0.1-0.3,0.1c0,0,0,0-0.1,0c-0.1,0-0.1,0.1-0.2,0.1c0,0-0.1,0.1-0.1,0.1
			c0,0-0.1,0.1-0.1,0.1c-0.1,0.1-0.1,0.1-0.1,0.2c0,0,0,0,0,0.1c-0.1,0.1-0.1,0.2-0.1,0.3c0,0,0,0,0,0c0,0.1-0.1,0.2-0.1,0.3
			c0,0.1,0,0.2,0,0.4V35c0,1.1,0.9,1.9,1.9,1.9H10h65.6c-0.1,0.1-0.2,0.1-0.2,0.2h0c1.3-1.2,2.8-2.3,4.3-3.3H52.9
			C51.9,33.8,51.1,33,51.1,32z M20.6,28.4c0,3.1-2.5,5.6-5.6,5.6s-5.6-2.5-5.6-5.6c0,0,0,0,0-0.1c0,0,0,0,0,0c0-3.1,2.5-5.6,5.6-5.6
			s5.6,2.5,5.6,5.6C20.6,28.3,20.6,28.3,20.6,28.4C20.6,28.4,20.6,28.4,20.6,28.4z M41.7,30.2H26.5c-1,0-1.8-0.8-1.8-1.8
			s0.8-1.8,1.8-1.8h15.2c1,0,1.8,0.8,1.8,1.8S42.7,30.2,41.7,30.2z"/>
		<path fill='none' d="M11.8,97.4v3.7H65c0-0.3,0.1-0.7,0.2-1.1c0.1-0.4,0.4-0.8,0.7-1.2h-10c-2.8,0-5.5-0.5-7.9-1.5h-0.2
			c0.1,0,0.2,0.1,0.2,0.1H11.8z"/>
		<path fill='none' d="M11.8,72.8h21.5c0.2-1.3,0.5-2.5,0.9-3.7H11.8V72.8z"/>
		<path fill='none' d="M55,44.3c-0.1,0.1-0.1,0.1-0.2,0.2h0.3c0,0,0,0,0.1-0.1c0.1-0.2,0.3-0.5,0.5-0.6c0,0,0-0.1,0-0.1s0,0,0,0.1
			c0,0,0.1-0.1,0.1-0.1s0,0-0.1,0.1c0.3-0.3,0.6-0.5,0.8-0.7c0.2-0.2,0.4-0.4,0.7-0.6s0.5-0.4,0.8-0.6c0.2-0.2,0.5-0.4,0.7-0.5
			c0.3-0.2,0.6-0.4,0.9-0.5c0,0,0.1,0,0.1-0.1H11.8v3.5H55z"/>
		<path fill='#1254B5' d="M65.2,102.8c-0.1-0.4-0.1-0.8-0.2-1.4c0-0.1,0-0.2,0-0.3H11.8v-3.7v-0.1h36c-2.2-0.9-4.3-2.1-6.2-3.5h-0.2
			c0,0,0.1,0.1,0.1,0.1H10H6.4c-1.1,0-1.9-0.9-1.9-1.9v-0.1V78.3c0-0.1,0-0.3,0-0.4c0-0.1,0.1-0.2,0.1-0.3c0,0,0,0,0,0
			c0-0.1,0.1-0.2,0.1-0.3c0,0,0,0,0-0.1c0-0.1,0.1-0.1,0.1-0.2C5,77,5,77,5.1,77c0,0,0.1-0.1,0.1-0.1c0.1-0.1,0.1-0.1,0.2-0.1
			c0,0,0,0,0.1,0c0.1-0.1,0.2-0.1,0.3-0.1c0,0,0,0,0,0c0.1,0,0.2-0.1,0.3-0.1c0.1,0,0.2,0,0.4,0H10h23.1c0-0.1,0-0.2,0-0.3
			c0-1.1,0.1-2.2,0.3-3.3h-0.1H11.8v-3.7h22.4c0.4-1.3,0.9-2.5,1.5-3.6H10H6.4c-0.1,0-0.3,0-0.4,0c-0.1,0-0.2-0.1-0.3-0.1
			c0,0,0,0,0,0c-0.1,0-0.2-0.1-0.3-0.1c0,0,0,0-0.1,0c-0.1,0-0.1-0.1-0.2-0.1c0,0-0.1-0.1-0.1-0.1c0,0-0.1-0.1-0.1-0.1
			c-0.1-0.1-0.1-0.1-0.1-0.2c0,0,0,0,0-0.1c-0.1-0.1-0.1-0.2-0.1-0.3c0,0,0,0,0,0c0-0.1-0.1-0.2-0.1-0.3c0-0.1,0-0.2,0-0.4V49.9
			c0-0.1,0-0.3,0-0.4c0-0.1,0.1-0.2,0.1-0.3c0,0,0,0,0,0c0-0.1,0.1-0.2,0.1-0.3c0,0,0,0,0-0.1c0-0.1,0.1-0.1,0.1-0.2
			c0,0,0.1-0.1,0.1-0.1c0,0,0.1-0.1,0.1-0.1c0.1-0.1,0.1-0.1,0.2-0.1c0,0,0,0,0.1,0c0.1-0.1,0.2-0.1,0.3-0.1c0,0,0,0,0,0
			c0.1,0,0.2-0.1,0.3-0.1c0.1,0,0.2,0,0.4,0H10h42.4c0.1-0.2,0.3-0.4,0.4-0.7c0.2-0.3,0.3-0.5,0.5-0.8s0.4-0.5,0.6-0.8
			c0.2-0.2,0.4-0.5,0.5-0.7c0.1-0.1,0.3-0.3,0.4-0.5h-43v-0.2v-3.5v-0.2h47.8c0.2-0.1,0.4-0.3,0.7-0.4c0.3-0.2,0.6-0.3,1-0.5
			c0.3-0.1,0.5-0.3,0.8-0.4c0.3-0.1,0.7-0.3,1-0.4c0.3-0.1,0.5-0.2,0.8-0.3c0.4-0.1,0.8-0.2,1.2-0.3c0.3-0.1,0.5-0.1,0.8-0.2
			c0.4-0.1,0.9-0.1,1.3-0.2c0.2,0,0.4-0.1,0.7-0.1c0.7-0.1,1.3-0.1,2-0.1c0.6,0,1.3,0,1.9,0.1c0.3,0,0.6,0.1,0.9,0.1
			c0.3,0.1,0.7,0.1,1,0.2c0.2,0,0.3,0.1,0.5,0.1c0.3-0.4,0.7-0.8,1.2-1.1H10H6.4c-1.1,0-1.9-0.9-1.9-1.9V35V21.5c0-0.1,0-0.3,0-0.4
			c0-0.1,0.1-0.2,0.1-0.3c0,0,0,0,0,0c0-0.1,0.1-0.2,0.1-0.3c0,0,0,0,0-0.1c0-0.1,0.1-0.1,0.1-0.2c0,0,0.1-0.1,0.1-0.1
			c0,0,0.1-0.1,0.1-0.1C5.2,20,5.3,20,5.4,19.9c0,0,0,0,0.1,0c0.1-0.1,0.2-0.1,0.3-0.1c0,0,0,0,0,0c0.1,0,0.2-0.1,0.3-0.1
			c0.1,0,0.2,0,0.4,0h75.7c0.1,0,0.3,0,0.4,0c0.1,0,0.2,0.1,0.3,0.1c0,0,0,0,0,0c0.1,0,0.2,0.1,0.3,0.1c0,0,0,0,0.1,0
			c0.1,0,0.1,0.1,0.2,0.1c0,0,0.1,0.1,0.1,0.1c0,0,0.1,0.1,0.1,0.1c0.1,0.1,0.1,0.1,0.1,0.2c0,0,0,0,0,0.1c0.1,0.1,0.1,0.2,0.1,0.3
			c0,0,0,0,0,0c0,0.1,0.1,0.2,0.1,0.3c0,0.1,0,0.2,0,0.4v1.4H52.9c-1,0-1.8,0.8-1.8,1.8V32c0,1,0.8,1.8,1.8,1.8h26.8
			c2.5-1.5,5.1-2.6,7.9-3.3v-5.8v-3.2c0-3-2.5-5.5-5.5-5.5H6.4c-3,0-5.5,2.5-5.5,5.5v13.7c0,3,2.5,5.5,5.5,5.5h1.8v3.7H6.4
			c-3,0-5.5,2.5-5.5,5.5v13.7c0,3,2.5,5.5,5.5,5.5h1.8v3.7H6.4c-3,0-5.5,2.5-5.5,5.5V92c0,3,2.5,5.5,5.5,5.5h1.8v5.5
			c0,1,0.8,1.8,1.8,1.8h55.6c0-0.1-0.1-0.3-0.1-0.5C65.4,103.9,65.3,103.3,65.2,102.8z M84.1,30.2L84.1,30.2H54.8v-3.7H84h0.1V30.2z
			"/>
		<path fill='#1254B5' d="M4.6,77.6c0-0.1,0.1-0.2,0.1-0.3C4.7,77.4,4.7,77.5,4.6,77.6z"/>
		<path fill='#1254B5' d="M4.8,77.3c0-0.1,0.1-0.1,0.1-0.2C4.9,77.1,4.9,77.2,4.8,77.3z"/>
		<path fill='#1254B5' d="M5.4,76.7C5.4,76.7,5.4,76.7,5.4,76.7C5.4,76.7,5.4,76.7,5.4,76.7z"/>
		<path fill='#1254B5' d="M5.7,76.5C5.7,76.5,5.7,76.5,5.7,76.5C5.7,76.5,5.7,76.5,5.7,76.5z"/>
		<path fill='#1254B5' d="M4.5,77.9c0-0.1,0.1-0.2,0.1-0.3C4.6,77.7,4.6,77.8,4.5,77.9z"/>
		<path fill='#1254B5' d="M6.4,76.4c-0.1,0-0.3,0-0.4,0C6.1,76.4,6.3,76.4,6.4,76.4l3.6,0h23.1v0H10H6.4z"/>
		<path fill='#1254B5' d="M6.4,93.8c-1,0-1.9-0.8-1.9-1.9V92c0,1,0.8,1.9,1.9,1.9H10h31.5c0,0-0.1-0.1-0.1-0.1H10H6.4z"/>
		<path fill='#1254B5' d="M5.1,77c0,0,0.1-0.1,0.1-0.1C5.1,76.9,5.1,76.9,5.1,77z"/>
		<path fill='#1254B5' d="M5.7,65.4c-0.1,0-0.2-0.1-0.3-0.1C5.5,65.3,5.6,65.3,5.7,65.4z"/>
		<path fill='#1254B5' d="M4.6,49.2c0-0.1,0.1-0.2,0.1-0.3C4.7,49,4.7,49.1,4.6,49.2z"/>
		<path fill='#1254B5' d="M6,65.5c-0.1,0-0.2-0.1-0.3-0.1C5.8,65.4,5.9,65.4,6,65.5z"/>
		<path fill='#1254B5' d="M4.8,48.9c0-0.1,0.1-0.1,0.1-0.2C4.9,48.7,4.9,48.8,4.8,48.9z"/>
		<path fill='#1254B5' d="M5.7,48.1C5.7,48.1,5.7,48.1,5.7,48.1C5.7,48.1,5.7,48.1,5.7,48.1z"/>
		<path fill='#1254B5' d="M5.4,48.3C5.4,48.3,5.4,48.3,5.4,48.3C5.4,48.3,5.4,48.3,5.4,48.3z"/>
		<path fill='#1254B5' d="M5.1,48.6c0,0,0.1-0.1,0.1-0.1C5.1,48.5,5.1,48.5,5.1,48.6z"/>
		<path fill='#1254B5' d="M5.4,65.2c-0.1,0-0.1-0.1-0.2-0.1C5.2,65.1,5.3,65.1,5.4,65.2z"/>
		<path fill='#1254B5' d="M4.8,64.6C4.8,64.6,4.8,64.6,4.8,64.6C4.8,64.6,4.8,64.6,4.8,64.6z"/>
		<path fill='#1254B5' d="M5.1,64.9c0,0-0.1-0.1-0.1-0.1C5,64.9,5,64.9,5.1,64.9z"/>
		<path fill='#1254B5' d="M6,48c0.1,0,0.2,0,0.4,0C6.3,48,6.1,48,6,48z"/>
		<path fill='#1254B5' d="M4.5,64c0-0.1,0-0.2,0-0.4C4.5,63.7,4.5,63.9,4.5,64z"/>
		<path fill='#1254B5' d="M4.6,64.3C4.6,64.3,4.6,64.3,4.6,64.3C4.6,64.3,4.6,64.3,4.6,64.3z"/>
		<path fill='#1254B5' d="M4.5,49.5c0-0.1,0.1-0.2,0.1-0.3C4.6,49.3,4.6,49.4,4.5,49.5z"/>
		<rect x="84" y="26.5" fill='#1254B5' width="0.1" height="3.7"/>
		<path fill='#1254B5' d="M84,21.1c0,0.1,0,0.2,0,0.4C84,21.4,84,21.2,84,21.1z"/>
		<path fill='#1254B5' d="M10,36.9H6.4c-1,0-1.9-0.8-1.9-1.9v0.2c0,1,0.8,1.9,1.9,1.9H10h65.4c0.1-0.1,0.2-0.1,0.2-0.2H10z"/>
		<path fill='#1254B5' d="M83.7,20.5C83.7,20.5,83.7,20.5,83.7,20.5C83.7,20.5,83.7,20.5,83.7,20.5z"/>
		<path fill='#1254B5' d="M83.1,19.9c0.1,0,0.1,0.1,0.2,0.1C83.3,20,83.2,20,83.1,19.9z"/>
		<path fill='#1254B5' d="M5.7,19.7C5.7,19.7,5.7,19.7,5.7,19.7C5.7,19.7,5.7,19.7,5.7,19.7z"/>
		<path fill='#1254B5' d="M6,19.6c0.1,0,0.2,0,0.4,0C6.3,19.6,6.1,19.6,6,19.6z"/>
		<path fill='#1254B5' d="M82.8,19.7c0.1,0,0.2,0.1,0.3,0.1C83,19.8,82.9,19.8,82.8,19.7z"/>
		<path fill='#1254B5' d="M82.5,19.6c0.1,0,0.2,0.1,0.3,0.1C82.7,19.7,82.6,19.7,82.5,19.6z"/>
		<path fill='#1254B5' d="M5.4,19.9C5.4,19.9,5.4,19.9,5.4,19.9C5.4,19.9,5.4,19.9,5.4,19.9z"/>
		<path fill='#1254B5' d="M4.6,20.8c0-0.1,0.1-0.2,0.1-0.3C4.7,20.6,4.7,20.7,4.6,20.8z"/>
		<path fill='#1254B5' d="M4.5,21.1c0-0.1,0.1-0.2,0.1-0.3C4.6,20.9,4.6,21,4.5,21.1z"/>
		<path fill='#1254B5' d="M5.1,20.2c0,0,0.1-0.1,0.1-0.1C5.1,20.1,5.1,20.1,5.1,20.2z"/>
		<path fill='#1254B5' d="M4.8,20.5c0-0.1,0.1-0.1,0.1-0.2C4.9,20.3,4.9,20.4,4.8,20.5z"/>
		<path fill='#1254B5' d="M83.9,20.8C83.9,20.8,83.9,20.8,83.9,20.8C83.9,20.8,83.9,20.8,83.9,20.8z"/>
		<path fill='#1254B5' d="M83.4,20.2c0,0,0.1,0.1,0.1,0.1C83.5,20.2,83.5,20.2,83.4,20.2z"/>
		<path fill='#1254B5' d="M11.8,97.4H48c-0.1,0-0.2-0.1-0.2-0.1h-36V97.4z"/>
		<path fill='#1254B5' d="M11.8,44.3v0.2h43c0.1-0.1,0.1-0.1,0.2-0.2H11.8z"/>
		<path fill='#1254B5' d="M15,22.8c-3.1,0-5.6,2.5-5.6,5.5c0,3.1,2.5,5.6,5.6,5.6c3,0,5.6-2.5,5.6-5.6C20.6,25.3,18,22.8,15,22.8z
			 M16.9,28.4c0,1-0.9,1.9-1.9,1.9c-1.1,0-1.9-0.9-1.9-1.9c0,0,0,0,0-0.1c0,0,0,0,0,0c0-1,0.8-1.9,1.9-1.9c1,0,1.9,0.9,1.9,1.9
			C16.9,28.3,16.9,28.3,16.9,28.4C16.9,28.4,16.9,28.4,16.9,28.4z"/>
		<path fill='#1254B5' d="M15,26.4c-1.1,0-1.9,0.9-1.9,1.9c0,0,0,0,0,0C13.1,27.3,14,26.5,15,26.4c1,0.1,1.9,1,1.9,1.9c0,0,0,0,0,0
			C16.9,27.3,16,26.4,15,26.4z"/>
		<path fill='#1254B5' d="M15,33.9c-3.1,0-5.6-2.5-5.6-5.6c0,0,0,0,0,0.1C9.4,31.5,11.9,34,15,33.9c3.1,0.1,5.6-2.4,5.6-5.5
			c0,0,0,0,0-0.1C20.6,31.4,18,33.9,15,33.9z"/>
		<path fill='#1254B5' d="M41.7,26.6H26.5c-1,0-1.8,0.8-1.8,1.8s0.8,1.8,1.8,1.8h15.2c1,0,1.8-0.8,1.8-1.8S42.7,26.6,41.7,26.6z"/>
		<path fill='#1254B5' d="M15,51.2c-3.1,0-5.6,2.5-5.6,5.5c0,3.1,2.5,5.5,5.6,5.5c3,0,5.5-2.5,5.6-5.5C20.5,53.7,18,51.2,15,51.2z
			 M16.9,56.8c0,1-0.9,1.9-1.9,1.9c-1.1,0-1.9-0.9-1.9-1.9c0,0,0,0,0,0c0,0,0,0,0-0.1c0-1,0.8-1.9,1.9-1.9
			C16,54.8,16.9,55.7,16.9,56.8C16.9,56.7,16.9,56.7,16.9,56.8C16.9,56.8,16.9,56.8,16.9,56.8z"/>
		<path fill='#1254B5' d="M15,62.3c-3.1,0-5.6-2.5-5.6-5.5c0,0,0,0,0,0c0,3.1,2.5,5.6,5.6,5.6s5.6-2.5,5.6-5.6c0,0,0,0,0,0
			C20.5,59.8,18,62.3,15,62.3z"/>
		<path fill='#1254B5' d="M15,54.8c-1.1,0-1.9,0.9-1.9,1.9c0,0,0,0,0,0.1c0-1,0.9-1.9,1.9-1.9c1,0,1.9,0.9,1.9,1.8c0,0,0,0,0,0
			C16.9,55.7,16,54.8,15,54.8z"/>
		<path fill='#1254B5' d="M43.5,57C43.5,57,43.5,57,43.5,57C43.5,56.9,43.5,56.9,43.5,57C43.5,56.9,43.5,57,43.5,57z"/>
		<path fill='#1254B5' d="M43.5,56.7c0-1-0.8-1.8-1.8-1.8H26.5c-1,0-1.8,0.8-1.8,1.8s0.8,1.8,1.8,1.8h14.8c0.7-0.6,1.5-1.1,2.2-1.6
			C43.5,56.8,43.5,56.8,43.5,56.7z"/>
		<path fill='#1254B5' d="M43.6,56.6c-0.1-0.9-0.9-1.7-1.9-1.7c1,0,1.8,0.8,1.8,1.8c0,0.1,0,0.1,0,0.2c0,0,0,0,0,0.1c0,0,0.1,0,0.1-0.1
			C43.6,56.8,43.6,56.7,43.6,56.6z"/>
		<path d="M41.7,58.5c0.9,0,1.6-0.7,1.8-1.5c-0.7,0.5-1.4,1-2.1,1.5H41.7z"/>
		<path d="M41.3,58.5h0.1c0.7-0.6,1.3-1,2.1-1.5c0,0,0-0.1,0-0.1C42.8,57.4,42,57.9,41.3,58.5z"/>
		<path fill='#1254B5' d="M15,79.5c-3.1,0-5.6,2.5-5.6,5.6c0,3.1,2.5,5.6,5.6,5.6c3,0,5.5-2.5,5.6-5.6C20.5,82,18,79.5,15,79.5z
			 M16.9,85.1c0,1.1-0.9,1.9-1.9,1.9c-1.1,0-1.9-0.9-1.9-1.9c0,0,0,0,0,0c0,0,0,0,0,0c0-1,0.8-1.9,1.9-1.9
			C16,83.1,16.9,84,16.9,85.1C16.9,85,16.9,85,16.9,85.1C16.9,85.1,16.9,85.1,16.9,85.1z"/>
		<path fill='#1254B5' d="M15,83.1c-1.1,0-1.9,0.9-1.9,1.9c0,0,0,0,0,0c0-1.1,0.9-1.8,1.9-1.8c1,0,1.9,0.9,1.9,1.8c0,0,0,0,0,0
			C16.9,84,16,83.1,15,83.1z"/>
		<path fill='#1254B5' d="M15,90.7c3.1,0,5.6-2.5,5.6-5.6C20.5,88.2,18,90.7,15,90.7z"/>
		<path fill='#1254B5' d="M24.7,85.1c0,1,0.8,1.8,1.8,1.8h9.3c-0.6-1.2-1.1-2.4-1.6-3.6h-7.7C25.5,83.3,24.7,84.1,24.7,85.1z"/>
		<path fill='#1254B5' d="M26.5,83.3L26.5,83.3c-1,0-1.8,0.8-1.8,1.8C24.7,84.1,25.5,83.3,26.5,83.3z"/>
		<path fill='#1254B5' d="M75.8,49.2c-0.8-0.5-1.7-0.9-2.6-1.2C74.1,48.3,74.9,48.7,75.8,49.2C75.7,49.2,75.8,49.2,75.8,49.2z"/>
		<path fill='#1254B5' d="M71.7,94c0-0.2,0-0.3,0-0.5c0-1.2,0.3-2.2,0.7-3c0.3-0.6,0.6-1.1,0.8-1.5h-17c-7.1,0-12.8-5.7-12.8-12.8
			c0-6.8,5.2-12.3,11.9-12.8c-0.7-1.9-1.1-3.9-1.1-5.9c0-0.3,0-0.7,0.1-1c0,0.2,0,0.5-0.1,0.7c-9.6,1-17.1,9.1-17.1,19
			c0,10.5,8.6,19.1,19.1,19.1h15.3c0.1-0.1,0.1-0.2,0.2-0.3C71.8,94.6,71.7,94.3,71.7,94z"/>
		<path fill='#1254B5' d="M70.5,47.7c0.4,0,0.8,0,1.2,0.1C71.3,47.7,70.9,47.7,70.5,47.7z"/>
		<path fill='#1254B5' d="M54.4,55.7c0-0.2,0.1-0.4,0.1-0.5C54.5,55.3,54.4,55.5,54.4,55.7z"/>
		<path fill='#1254B5' d="M72,47.8c0.4,0.1,0.7,0.1,1.1,0.2C72.8,48,72.4,47.9,72,47.8z"/>
		<path fill='#1254B5' d="M54.7,54c0-0.1,0-0.2,0.1-0.2C54.7,53.9,54.7,54,54.7,54z"/>
		<path fill='#1254B5' d="M60.7,59.1c0-0.1,0-0.2,0-0.3C60.7,58.9,60.7,59,60.7,59.1z"/>
		<path fill='#1254B5' d="M123.1,69.5c-1,1.4-3,1.6-4.4,0.6c-1.5-1.1-3.2-1.8-5.1-2c0,0,0,0,0.1,0c5.1,0.8,9,5.2,9,10.4
			c0,4.3-2.6,8.1-6.4,9.7c0.2,0.8,0.4,1.6,0.5,2.3l0,0c0.2,1,0.2,1.9,0.2,2.7c0,0.5,0,1-0.1,1.4c7-2,12.1-8.4,12-16
			c0-4.9-2.2-9.3-5.6-12.5C123.9,67.2,123.8,68.5,123.1,69.5z"/>
		<polygon fill='#1254B5' points="73.3,93.5 73.3,93.4 73.3,93.4 		"/>
		<path fill='#1254B5' d="M95.2,39.3c9.7,0,17.5,7.9,17.5,17.5c0,1.7-0.3,3.3-0.7,4.9c0.1,0,0.2,0,0.3,0c2.1,0,4,0.4,5.9,1.1
			c0.5-2,0.8-3.9,0.8-5.9c0-13.1-10.7-23.8-23.8-23.8c-7.4,0-14.3,3.5-18.8,9.3c2,0.8,3.8,1.9,5.3,3.4C85,41.7,89.9,39.3,95.2,39.3z
			"/>
		<path fill='#1254B5' d="M123.4,66.1c-0.2-0.4-0.5-0.8-0.9-1c-1.3-1-2.8-1.7-4.3-2.3c0,0,0,0.1,0,0.1
			C120.1,63.7,121.9,64.8,123.4,66.1z"/>
		<path fill='#1254B5' d="M105.8,63.2c0,0.2,0,0.4,0,0.7c0,0.3,0,0.5,0,0.8c0,1.5,0.3,3.2,0.8,4.9c2.1-1.4,4.7-1.9,7.1-1.6
			c-1-0.1-1.7-0.7-2.2-1.6c-0.5-0.8-0.5-1.9-0.1-2.8c0.3-0.7,0.5-1.3,0.7-2c-2.1,0-4.3,0.5-6.2,1.3
			C105.8,63.1,105.8,63.2,105.8,63.2z"/>
		<path fill='#1254B5' d="M112,61.7c-0.2,0.7-0.4,1.3-0.7,2c-0.4,0.9-0.4,2,0.1,2.8c0.5,0.9,1.3,1.5,2.2,1.6c1.8,0.2,3.6,0.9,5.1,2
			c1.4,1,3.4,0.8,4.4-0.6c0.7-1,0.8-2.3,0.3-3.4c-1.5-1.4-3.3-2.5-5.2-3.2c0,0,0-0.1,0-0.1c-1.9-0.7-3.9-1.1-5.9-1.1
			C112.2,61.7,112.1,61.7,112,61.7z"/>
		<path fill='#1254B5' d="M71.7,47.8c0.1,0,0.2,0,0.3,0C71.9,47.8,71.8,47.8,71.7,47.8z"/>
		<path fill='#1254B5' d="M73.1,48.1C73.1,48.1,73.2,48.1,73.1,48.1C73.2,48.1,73.1,48.1,73.1,48.1z"/>
		<path fill='#1254B5' d="M60.7,58.8c0-0.4-0.1-0.8-0.1-1.2C60.6,58,60.6,58.4,60.7,58.8z"/>
		<path fill='#1254B5' d="M54.5,55.1c0.1-0.4,0.1-0.7,0.2-1.1C54.6,54.4,54.5,54.8,54.5,55.1z"/>
		<path fill='#1254B5' d="M54.4,56.5c0-0.3,0-0.6,0.1-0.8C54.4,55.9,54.4,56.2,54.4,56.5z"/>
		<path fill='#1254B5' d="M80.4,57.6c0,1.3-0.3,2.6-0.8,3.8c-0.7,1.6,0.1,3.4,1.7,4.1c0.2,0.1,0.4,0.1,0.5,0.2c0-1.2-0.1-2.4-0.1-3.5v0
			c0-0.2,0-0.3,0-0.5c0-1.4,0.1-2.8,0.5-4.3c0.4-1.4,1.2-2.9,2.4-4.1c0.4-0.4,0.7-0.7,1.2-1c-0.8-2.5-2.3-4.7-4.1-6.4
			c-0.6,0.7-1.1,1.5-1.6,2.3c-0.4,0.7-1.1,1.3-2,1.5c-0.8,0.2-1.6,0.1-2.3-0.4C78.6,51,80.4,54.1,80.4,57.6z"/>
		<path fill='#1254B5' d="M70.5,41.4c2,0,4,0.4,5.8,1.1c0,0,0.1-0.1,0.1-0.1c-1.8-0.7-3.8-1.1-5.9-1.1c-7.7,0-14.1,5.4-15.8,12.5
			C56.4,46.7,62.8,41.4,70.5,41.4z"/>
		<path fill='#1254B5' d="M63,71.8c0.5,0.3,1,0.4,1.5,0.4c1.2,0,2.3-0.6,2.7-1.6c0.8-1.5,0.2-3.4-1.3-4.2c-2.8-1.5-4.7-4.2-5.2-7.3
			c0,0.2,0,0.4,0.1,0.6c0.2,1-0.1,2-0.7,2.8c-0.7,0.7-1.6,1.1-2.7,1c-0.3,0-0.7-0.1-1.1-0.1c-0.3,0-0.6,0-0.9,0
			C56.8,67,59.5,70,63,71.8z"/>
		<path fill='#1254B5' d="M55.4,63.4c0.3,0,0.6,0,0.9,0c0.4,0,0.8,0.1,1.1,0.1c1.1,0.1,2-0.3,2.7-1c0.6-0.8,0.9-1.8,0.7-2.8
			c0-0.2-0.1-0.4-0.1-0.6c0-0.1,0-0.2,0-0.3c0-0.4-0.1-0.8-0.1-1.2c0-5.5,4.5-9.9,9.9-9.9c0.4,0,0.8,0,1.2,0.1c0.1,0,0.2,0,0.3,0
			c0.4,0.1,0.8,0.1,1.1,0.2c0,0,0.1,0,0.1,0c0.9,0.3,1.8,0.7,2.6,1.2c0.7,0.5,1.6,0.6,2.3,0.4c0.9-0.2,1.6-0.8,2-1.5
			c0.5-0.8,1-1.6,1.6-2.3c-1.5-1.5-3.3-2.6-5.3-3.4c0,0-0.1,0.1-0.1,0.1c-1.8-0.7-3.8-1.1-5.8-1.1c-7.7,0-14.1,5.3-15.8,12.4
			c0,0.1,0,0.2-0.1,0.2c-0.1,0.4-0.1,0.7-0.2,1.1c0,0.2-0.1,0.4-0.1,0.5c0,0.3,0,0.5-0.1,0.8c0,0.3-0.1,0.7-0.1,1
			C54.3,59.6,54.7,61.6,55.4,63.4z"/>
		<path fill='#FFFFFF' d="M73.3,93.5L73.3,93.5L73.3,93.5C73.3,93.5,73.3,93.5,73.3,93.5z"/>
	</g>
</g>
<g id="Layer_3">
	<path fill-rule='evenodd' clip-rule='evenodd' fill='#1254B5' d="M85.4,105.3c2.2-0.2,2.5-2.6,1.5-3.6c-0.9-0.8-5.6-4.4-6.8-5.8c-0.6-0.6-1.4-1-1.7-1.7c-0.8-1.7-1.3-4-0.3-5.7
		c0.2-0.3,0.3-0.2,0.2,0.5c-0.8,3.6,1.6,6.6,2.1,5.1c0.4-1.1,0-2.9,0.2-4.4c0.3-2.6,2.7-7.7,3.8-8c-1.6-3,1.9-5.4,1.9-8
		c0-1.7,1.5,2.1,3.1,2.9c1.7,0.9,3.6-1.7,6.3-3c0.8-0.4,1.7-0.8,1.7-1.1c-0.3-1.5-3.5,1.9-6.4,2c-1.3,0.1-1.8-0.3-2.3-0.7
		C87,72.1,88.7,73.4,91,73c1-0.2,1.4-0.4,2.4-0.8c1.1-0.4,2.3-1.1,3.5-1.4c0.8-0.2,0.8-0.9,0.4-1.1c-0.2-0.1-0.5-0.1-0.7,0.3
		c-0.5,0.9-3,1.4-3.8,1.7c-1,0.3-2.1,0.6-3.5,0.5c-2.2-0.1-1.7-1.1-3.3-2c-0.5-0.3-0.3-1,0.3-1.6c0.3-0.3,1.2-0.5,1.6-1.2
		c0.1-0.1,0.6-0.7,1.1-1c0.2-0.1,0.2-2.8-1.2-2.8c-1.2,0-1.5,0.9-1.5,1.8c0,0.9,0.5,1.7,0.8,1.6c0.6,0,0,0.7-0.3,0.8
		c-0.5,0.2-1.2-2-1.1-3.1c0.1-1.1,0.7-3,2-3c1.2,0,2.1,1.6,2.1,4.3c0,0.5,2-0.2,2.7,0.5c0.5,0.5-1.7-4.8,3.1-5.1
		c1.3,0.2,2.5,0.7,3,3.5c-0.2,0.3,0.3,2.3-0.5,2.6c-0.9,0.3-1.5,0-1-0.9c0.4-0.9,0-3.2-1.9-3.1c-1.9,0.1-1.7,3.5-1.1,3.6
		c0.5,0.1,1.8,1,2.8,1.2c3,0.6,0.8,2.3,1.2,4.4c0.4,2.4,2,1.7,3.4,8c0.3,0.4,1.5,0.7,2.6,5.6c1,4.3-0.4,7.5,2,7.2
		c0.6-0.1,1.4-0.2,1.7-1.4c0.9-3.2-0.5-7-1.8-9.6c-0.8-1.5-1.6-2.5-2-2.9c1.6,0.9,3.6,3.9,4.1,6.2c0.6,2.9,1.1,4.2,0.1,7.3
		c0.5,0.3,1.9,0.8,1.9,1.5c-1.4-1.1-5.7-1.4-5.8,1.4c-0.7,0-1.3,0.1-1.7,0.6c-1.7,2-0.1,6.1-0.3,8.3c-0.2,1.9-0.7,3.8-1,5.8
		c-1,0-0.9-0.8-0.6-1.8c0.3-0.9,0.8-2.1,0.8-3.2c0-1-0.1-1.6-0.3-1.8c-0.3-0.2-0.7,0.2-1.2,1c-1.2,1.9-3.7,2.7-6.1,3
		c-2.4,0.3-4.6,0.1-5.7-1.2c-0.4-0.4-1.1,0.1-1.1,0.2c-0.1,0.2,0.4,0.5,0.8,1.1c0.5,1,1.1,2.5-0.2,3.2
		C87.7,107.6,86.6,107.4,85.4,105.3L85.4,105.3z M84.6,105.2c0.9,1.3,3.8,7-1.4,7.7c-1.8,0.2-4.6-1-7.3-1.7c-2.5-0.6-5-1-6.4-1.4
		c-0.8-0.2-1.2-0.5-1.3-0.9c-0.2-0.9,1-2.2,1.1-3.4c0.1-1.1-0.4-1.7-0.8-2.6c-0.4-0.9-0.5-1.6-0.2-2c0.2-0.3,0.7-0.4,1.5-0.4
		c1,0.1,2.2-0.1,2.8-0.5c1.1-0.7,1.6-2,1.1-3.7c0,1.6-0.5,2.2-1.8,2.9c-1.2,0.7-3.2,0.1-4,0.9c-1.1,0.9,0.4,3.3,0.3,5
		c-0.1,1.3-1.5,2.9-0.9,4.2c0.6,1.4,3.6,1.5,6.6,2.1c4.3,0.9,6.9,2.5,8.9,2.6c2.9,0.1,3.4-2.9,8-2.9c1.3-0.1,2.7-0.1,4-0.1
		c1.5,0,3,0,4.5,0c3.1,0.1,2,1.7,4,2.7c1.7,0.9,4.7,0.5,5.4-0.2c1-0.9,3.6-3.2,5.6-4.2c2.5-1.3,8.4-3.4,4.1-6.1
		c-1-0.6-3.3-1.3-3.5-5.8c-0.9,0.8-0.8,5,1.7,5.8c2.8,0.9,4.5,2.5-0.6,4.2c-3.4,1.2-4,1.5-6.7,3.8c-2.7,2.3-6.8,1.4-6.1-3.4
		c0.4-2.5,0.6-4.6,0-6.7c-0.3-1.1-0.5-2.4-0.2-3.4c0.4-1.9,1.4-2.4,2.4-0.6c0.6,1.1,0.8,2.4,3,2.5c3.5,0.2,4.2-3.4,5.3-3.5
		c0.7-0.1,1.5-2.2,0.9-5.6c-0.6-3.6-2.7-9.3-5.5-12.3c-2.3-2.4-3.7-4.5-4.6-7.5c-0.8-2.5-1.2-5-1-7.4c0.2-3.1-1.5-7.3-4.2-9.3
		c-1.7-1.3-4.3-1.9-6.7-1.9c-1.3,0-2.6,0.2-3.6,0.7c-4,2.2-4.6,5.3-4.5,8.8c0.1,3.3,0.2,7.1,0.5,10.7c-0.4,1.7-2.8,4.8-4.3,6.7
		c-2,2-3,5.8-4.3,9.2c-0.7,1.8-1.9,2.6-2,4.9c0,0.6,0,2.3,0.6,1.8C77.2,93.6,80.1,98.2,84.6,105.2L84.6,105.2z M96.8,57.2
		c-0.1,0.4-0.6,0.7-0.3,1c0.3,0.3,0.5-0.4,1.2-0.6c0.2-0.1,1,0,1.1-0.4c0.1-0.2-0.4-0.4-0.7-0.6c-0.3-0.3-0.6-0.5-0.8-0.5
		C96.5,56.1,96.9,56.9,96.8,57.2L96.8,57.2z M100.8,71c0.2-0.3,0.4,0.4,1,0.9c0.5,0.3,1,0.1,1.2,0.8c0.1,0.5-0.2,1-0.6,0.9
		C101.7,73.4,100.1,71.8,100.8,71L100.8,71z M89.8,66.7c-1.1-0.1-1.2,0.7-0.8,0.7C89.4,67.4,89.2,66.8,89.8,66.7L89.8,66.7z
		 M88,64.7c0.1,0,0.3,0.2,0.3,0.5c-0.1,0.4,0,0.7,0.3,0.7c0,0,0.1,0,0.1-0.1c0.1-0.9-0.3-1.5-0.5-1.5C87.7,64.1,87.7,64.8,88,64.7
		L88,64.7z M95.9,64.3c0.3,0.1,0.5,0.6,0.6,1.1c0,0,0.4-0.1,0.4-0.2c0-0.8-0.7-1.2-0.9-1.2C95.6,64.1,95.7,64.3,95.9,64.3L95.9,64.3
		z M91.8,66.8c1-0.5,1.3,0.3,1,0.4C92.5,67.3,92.5,66.7,91.8,66.8L91.8,66.8z M79.8,83.8c-0.5-0.1,0.1-0.4,0.4-0.9
		c0.3-0.5,0.2-1.1,0.5-1c0.3,0.1,0.1,0.4-0.1,1C80.5,83.4,80,83.9,79.8,83.8L79.8,83.8z"/>
</g>
</svg>
