<?xml version="1.0" encoding="utf-8"?>
<!-- Generator: Adobe Illustrator 25.3.1, SVG Export Plug-In . SVG Version: 6.00 Build 0)  -->
<svg height="512" width="512" xmlns="http://www.w3.org/2000/svg" xmlns:xlink="http://www.w3.org/1999/xlink" x="0px" y="0px"
	 viewBox="0 0 130 130" style="enable-background:new 0 0 130 130;" xml:space="preserve">

<g id="Layer_2_1_">
</g>
<g id="Layer_4">
	<g>
		<path d="M46.4,116.3L46.4,116.3l0-0.1c0-0.3-0.1-0.9-0.2-1.5c-0.1-0.6-0.3-1.3-0.5-2c-0.1-0.5-0.2-0.9-0.2-1.5h-0.1
			v4.5c0,0.5-0.1,0.9-0.2,1.4h0.9c0-0.1,0.1-0.1,0.1-0.2C46.3,116.6,46.4,116.4,46.4,116.3z" fill='none'/>
		<rect x="52.7" y="18.8" width="36.7" height="3.7" fill='none'/>
		<path d="M47.8,16.3c0-1.4,1.1-2.4,2.4-2.4h41.6c1.4,0,2.4,1.1,2.4,2.4v8.6c0.1,1.4-1,2.4-2.4,2.4H50.2
			c-1.4,0-2.4-1.1-2.4-2.4V16.3z M37.3,75.4c0,1.3-1.1,2.4-2.4,2.4c-1.4,0-2.4-1.1-2.4-2.4v-5.7c0-1.4,1.1-2.4,2.4-2.4
			c1.3,0,2.4,1.1,2.4,2.4V75.4z M37.3,58.4c0,1.3-1.1,2.4-2.4,2.4c-1.4,0-2.4-1.1-2.4-2.4v-5.7c0-1.4,1.1-2.4,2.4-2.4
			c1.3,0,2.4,1.1,2.4,2.4V58.4z M37.3,41.4c0,1.3-1.1,2.4-2.4,2.4c-1.4,0-2.4-1.1-2.4-2.4v-5.7c0-1.4,1.1-2.4,2.4-2.4
			c1.3,0,2.4,1.1,2.4,2.4V41.4z M37.3,21.1v0.1v3.2c0,1.3-1.1,2.4-2.4,2.4c-1.4,0-2.4-1.1-2.4-2.4v-3.2v-0.1v-2.3H27v75h5.5V90v-3.3
			c0-1.4,1.1-2.4,2.4-2.4c1.3,0,2.4,1.1,2.4,2.4V90v6.3c0,1.2-1.1,2.3-2.4,2.3H24.5c-1.4,0-2.4-1.1-2.4-2.4V16.3
			c0-1.4,1.1-2.4,2.4-2.4h10.4c1.4,0,2.4,1.1,2.4,2.4V21.1z" fill='none'/>
		<rect x="52.7" y="36.7" width="36.7" height="3.7" fill='none'/>
		<path d="M28.2,115.7c0,0.7,0.6,1.3,1.3,1.3h9.8c0.7,0,1.3-0.6,1.3-1.3v-4.5H28.2V115.7z" fill='none'/>
		<path fill='#1254B5' d="M25.7,106.4H43c1.4,0,2.4,1.1,2.4,2.4v2.4h0.1c0,0,0-0.1,0-0.1c0-0.4,0.1-0.9,0.2-1.4c0.2-0.5,0.5-1,1-1.4
			c0.5-0.4,1-0.7,1.5-0.8c0.5-0.1,0.9-0.2,1.4-0.2c0.8-0.1,1.6-0.1,2.1-0.2c0.4-0.1,0.6-0.1,0.7-0.2l0,0c0.4-0.2,0.7-0.4,0.9-0.6
			H21.9c-2.3,0-4.2-1.9-4.2-4.2V10.3c0-2.3,1.9-4.2,4.2-4.2c0,0,72.7,0,72.6,0.1c2.3,0,4.2,1.9,4.2,4.2v60.9
			c0.5,1.4,1.1,2.6,1.8,3.8c0.8,1.3,1.8,2.6,3.1,4V10.4c0-5-4.1-9.1-9.1-9.1H21.9c-5,0-9.1,4.1-9.1,9.1v91.7c0,5,4.1,9.1,9.1,9.1
			h1.4v-2.4C23.3,107.4,24.4,106.4,25.7,106.4z"/>
		<path fill='#1254B5' d="M34.9,87.6c1.3,0,2.4,1.1,2.4,2.4v-3.3c0-1.3-1.1-2.4-2.4-2.4c-1.3,0-2.4,1-2.4,2.4V90
			C32.5,88.6,33.6,87.6,34.9,87.6z"/>
		<path fill='#1254B5' d="M34.9,67.3c-1.3,0-2.4,1-2.4,2.4v5.7c0,1.3,1,2.4,2.4,2.4c1.3,0,2.4-1.1,2.4-2.4v-5.7
			C37.3,68.4,36.2,67.3,34.9,67.3z"/>
		<path fill='#1254B5' d="M34.9,50.3c-1.3,0-2.4,1-2.4,2.4v5.7c0,1.3,1,2.4,2.4,2.4c1.3,0,2.4-1.1,2.4-2.4v-5.7
			C37.3,51.4,36.2,50.3,34.9,50.3z"/>
		<path fill='#1254B5' d="M34.9,33.3c-1.3,0-2.4,1-2.4,2.4v5.7c0,1.3,1,2.4,2.4,2.4c1.3,0,2.4-1.1,2.4-2.4v-5.7
			C37.3,34.4,36.2,33.3,34.9,33.3z"/>
		<path fill='#1254B5' d="M34.9,23.6c-1.3,0-2.4-1.1-2.4-2.4v3.2c0,1.3,1,2.4,2.4,2.4c1.3,0,2.4-1.1,2.4-2.4v-3.2
			C37.3,22.6,36.2,23.6,34.9,23.6z"/>
		<path fill='#1254B5' d="M34.9,13.9H24.5c-1.3,0-2.4,1-2.4,2.4v79.9c0,1.3,1,2.4,2.4,2.4h10.4c1.3,0,2.4-1.1,2.4-2.3V90
			c0,1.3-1.1,2.4-2.4,2.4c-1.4,0-2.4-1.1-2.4-2.4v3.8H27v-75h5.5v2.3c0-1.4,1.1-2.4,2.4-2.4c1.3,0,2.4,1.1,2.4,2.4v-4.8
			C37.3,15,36.3,13.9,34.9,13.9z"/>
		<path fill='#1254B5' d="M34.9,92.4c1.3,0,2.4-1.1,2.4-2.4s-1.1-2.4-2.4-2.4c-1.3,0-2.4,1-2.4,2.4C32.5,91.3,33.5,92.4,34.9,92.4z"/>
		<path fill='#1254B5' d="M34.9,18.7c-1.3,0-2.4,1-2.4,2.4v0.1c0,1.3,1.1,2.4,2.4,2.4c1.3,0,2.4-1,2.4-2.4v-0.1
			C37.3,19.8,36.2,18.7,34.9,18.7z"/>
		<path fill='#1254B5' d="M50.2,27.3h41.6c1.4,0,2.5-1,2.4-2.4v-8.6c0-1.3-1-2.4-2.4-2.4H50.2c-1.3,0-2.4,1-2.4,2.4v8.6
			C47.8,26.2,48.8,27.3,50.2,27.3z M52.7,18.8h36.7v3.7H52.7V18.8z"/>
		<path fill='#1254B5' d="M80.5,44.1l0.2,0c1.8,0,3.6,0.2,5.3,0.7c0.5,0.1,0.9,0.3,1.4,0.5h4.4c1.4,0,2.5-1.1,2.4-2.4v-8.6
			c0-1.3-1-2.4-2.4-2.4H50.2c-1.3,0-2.4,1-2.4,2.4v8.6c0,1.3,1,2.4,2.4,2.4h24.7C76.6,44.4,78.6,44.2,80.5,44.1L80.5,44.1z
			 M52.7,36.7h36.7v3.7H52.7V36.7z"/>
		<path fill='#1254B5' d="M67.8,58.3H52.7v-3.7H68c0.1-0.6,0.2-1.1,0.4-1.7c0.3-1.1,0.8-2.1,1.4-3.1H50.2c-1.3,0-2.4,1-2.4,2.4v8.6
			c0,1.3,1,2.4,2.4,2.4h17.7c0-1.5-0.1-2.9-0.1-4.3C67.8,58.7,67.8,58.5,67.8,58.3z"/>
		<path fill='#1254B5' d="M63.2,80.8c0.7-0.9,1.6-2.1,2.5-3.3c0.3-0.5,0.6-0.9,0.9-1.4H52.7v-3.7h15.7c-0.2-1.6-0.3-3.3-0.4-4.9H50.2
			c-1.3,0-2.4,1-2.4,2.4v8.7c0,1.3,1,2.4,2.4,2.4H63C63.1,81,63.2,80.9,63.2,80.8L63.2,80.8z"/>
		<path fill='#1254B5' d="M57.1,93.8h-7.7c-1.3,0-2.4,1-2.4,2.4c0,1.3,1,2.4,2.4,2.4h5.4c0.2-0.9,0.6-1.7,0.9-2.3
			C56.3,95.3,56.7,94.6,57.1,93.8z"/>
		<path fill='#1254B5' d="M45.4,115.7v-4.5h-4.8v4.5c0,0.7-0.6,1.3-1.3,1.3h-9.8c-0.7,0-1.3-0.6-1.3-1.3v-4.5h-4.9v4.5
			c0,0.5,0.1,0.9,0.2,1.4h21.8C45.3,116.6,45.4,116.2,45.4,115.7z"/>
		<path fill='#1254B5' d="M40.6,111.2h4.8v-2.4c0-1.3-1-2.4-2.4-2.4H25.7c-1.3,0-2.4,1-2.4,2.4v2.4h4.9H40.6z"/>
		<polygon fill='#1254B5' points="46.5,121.6 46.5,121.6 46.5,121.6 		"/>
		<path fill='#1254B5' d="M45.5,118.6c0.2-0.6,0.5-1.1,0.6-1.5h-0.9c-0.6,2.7-3,4.8-5.9,4.8h5.8c-0.1-0.3-0.1-0.6-0.1-0.8
			C45,120.1,45.3,119.3,45.5,118.6z"/>
		<path fill='#1254B5' d="M23.5,117.1h-8.2c-1.3,0-2.4,1-2.4,2.4c0,1.3,1,2.4,2.4,2.4h14.2C26.6,121.9,24.1,119.8,23.5,117.1z"/>
		<path fill='#1254B5' d="M45.2,117.1H23.5c0.6,2.7,3.1,4.8,6,4.8h9.8C42.2,121.9,44.6,119.8,45.2,117.1z"/>
		<polygon fill='#FFFFFF'  points="45.4,122.9 45.4,122.9 45.4,122.9 		"/>
		<path fill='#FFFFFF'  d="M46.5,121.6C46.5,121.6,46.5,121.6,46.5,121.6C46.5,121.6,46.5,121.6,46.5,121.6L46.5,121.6z"/>
	</g>
</g>
<g id="Layer_3">
	<path  fill-rule='evenodd' clip-rule='evenodd' fill='#1254B5' d="M71.3,116.3c2.9-0.3,3.3-3.4,1.9-4.8c-1.1-1.1-7.5-5.8-9.1-7.6c-0.8-0.9-1.8-1.3-2.2-2.2
		c-1-2.2-1.7-5.4-0.4-7.6c0.2-0.4,0.4-0.2,0.2,0.6c-1,4.8,2.1,8.8,2.8,6.8c0.5-1.4,0-3.9,0.3-5.9c0.5-3.5,3.7-10.3,5.1-10.7
		c-2.2-4,2.5-7.2,2.5-10.7c0-2.3,2,2.8,4.1,3.9c2.3,1.2,4.8-2.3,8.4-4.1c1-0.5,2.3-1.1,2.2-1.5c-0.4-2.1-4.7,2.5-8.6,2.7
		c-1.8,0.1-2.4-0.3-3.1-1c-2-2,0.2-0.3,3.2-0.9c1.4-0.2,1.8-0.5,3.2-1c1.4-0.6,3.1-1.4,4.7-1.9c1.1-0.3,1-1.2,0.6-1.4
		c-0.3-0.1-0.6-0.1-0.9,0.4c-0.7,1.2-4,1.9-5,2.2c-1.3,0.4-2.8,0.8-4.7,0.7c-2.9-0.1-2.2-1.5-4.3-2.7c-0.6-0.4-0.4-1.3,0.4-2.1
		c0.4-0.4,1.6-0.7,2.2-1.6c0.1-0.1,0.8-0.9,1.4-1.3c0.2-0.1,0.2-3.7-1.6-3.8c-1.6-0.1-2,1.1-1.9,2.3c0.1,1.2,0.7,2.2,1.1,2.2
		c0.8,0,0.1,0.9-0.4,1c-0.7,0.2-1.6-2.7-1.5-4.1c0.1-1.5,0.9-4,2.7-4c1.7,0,2.9,2.1,2.8,5.7c0,0.6,2.7-0.3,3.6,0.7
		c0.6,0.7-2.2-6.3,4.1-6.8c1.7,0.3,3.3,0.9,3.9,4.7c-0.2,0.4,0.4,3.1-0.6,3.4c-1.3,0.4-2-0.1-1.3-1.3c0.5-1.2,0-4.3-2.5-4.1
		c-2.5,0.2-2.2,4.7-1.5,4.8c0.7,0.1,2.5,1.3,3.7,1.6c4,0.8,1.1,3.1,1.6,5.9c0.6,3.2,2.7,2.3,4.5,10.7c0.4,0.5,1.9,1,3.4,7.4
		c1.4,5.8-0.6,10,2.7,9.6c0.7-0.1,1.8-0.3,2.3-1.9c1.2-4.3-0.6-9.4-2.5-12.8c-1.1-2-2.1-3.4-2.6-3.8c2.1,1.3,4.8,5.3,5.5,8.2
		c0.8,3.9,1.4,5.5,0.2,9.7c0.7,0.4,2.5,1.1,2.5,2c-1.9-1.5-7.5-1.8-7.7,1.9c-1,0-1.7,0.1-2.3,0.8c-2.3,2.7-0.2,8.2-0.4,11.1
		c-0.2,2.6-0.9,5.1-1.3,7.7c-1.4-0.1-1.2-1-0.8-2.4c0.4-1.2,1-2.8,1-4.3c0-1.3-0.1-2.2-0.4-2.4c-0.3-0.2-0.9,0.2-1.6,1.4
		c-1.6,2.5-4.9,3.6-8.1,4c-3.2,0.4-6.1,0.1-7.6-1.7c-0.5-0.6-1.4,0.2-1.5,0.3c-0.1,0.2,0.5,0.6,1,1.5c0.7,1.3,1.4,3.3-0.3,4.2
		C74.3,119.4,72.8,119.1,71.3,116.3L71.3,116.3z M70.2,116.2c1.1,1.8,5.1,9.3-1.9,10.3c-2.3,0.3-6.1-1.4-9.8-2.3
		c-3.3-0.8-6.6-1.3-8.5-1.8c-1.1-0.3-1.6-0.7-1.7-1.2c-0.3-1.2,1.4-3,1.4-4.5c0.1-1.5-0.5-2.2-1-3.4c-0.5-1.2-0.6-2.1-0.2-2.6
		c0.3-0.4,1-0.6,2-0.5c1.3,0.1,2.9-0.1,3.8-0.7c1.4-0.9,2.1-2.7,1.5-4.9c0,2.1-0.7,2.9-2.5,3.9c-1.7,0.9-4.2,0.2-5.4,1.2
		c-1.4,1.2,0.5,4.4,0.3,6.7c-0.1,1.8-2,3.8-1.2,5.6c0.8,1.8,4.7,2,8.8,2.8c5.8,1.2,9.1,3.3,11.8,3.4c3.9,0.1,4.5-3.9,10.6-3.9
		c1.8-0.1,3.5-0.1,5.3-0.2c2,0,3.9,0,6,0c4.1,0.1,2.7,2.2,5.3,3.6c2.2,1.1,6.2,0.7,7.2-0.2c1.3-1.2,4.8-4.2,7.4-5.6
		c3.3-1.7,11.1-4.6,5.5-8.1c-1.3-0.8-4.4-1.7-4.7-7.7c-1.2,1.1-1,6.6,2.3,7.7c3.7,1.2,6,3.3-0.9,5.7c-4.5,1.6-5.3,2-8.9,5
		c-3.6,3-9,1.8-8.1-4.5c0.5-3.3,0.8-6.1-0.1-8.9c-0.4-1.4-0.6-3.2-0.3-4.5c0.5-2.5,1.9-3.2,3.2-0.8c0.8,1.5,1.1,3.2,4,3.4
		c4.6,0.2,5.5-4.5,7-4.7c1-0.1,2-2.9,1.2-7.4c-0.8-4.8-3.6-12.4-7.3-16.3c-3-3.2-4.9-6-6.1-10c-1-3.4-1.6-6.7-1.4-9.8
		c0.3-4.1-2-9.7-5.6-12.4c-2.2-1.7-5.8-2.6-9-2.5c-1.8,0-3.5,0.3-4.8,1c-5.3,2.9-6.1,7-6,11.7c0.1,4.4,0.2,9.5,0.7,14.3
		c-0.6,2.2-3.7,6.4-5.7,8.9c-2.7,2.6-4,7.7-5.7,12.2c-0.9,2.4-2.5,3.4-2.6,6.5c0,0.9,0,3.1,0.8,2.4
		C60.4,100.8,64.3,106.9,70.2,116.2L70.2,116.2z M86.4,52.3c-0.2,0.5-0.9,0.9-0.4,1.3c0.4,0.4,0.7-0.5,1.6-0.8
		c0.2-0.1,1.3,0,1.5-0.5c0.1-0.2-0.5-0.5-0.9-0.8c-0.4-0.4-0.7-0.7-1.1-0.7C86.1,50.9,86.6,51.9,86.4,52.3L86.4,52.3z M91.8,70.7
		c0.3-0.3,0.5,0.6,1.4,1.2c0.7,0.4,1.4,0.1,1.6,1c0.1,0.6-0.3,1.3-0.8,1.3C93,74,90.9,71.7,91.8,70.7L91.8,70.7z M77.2,65
		c-1.5-0.1-1.6,0.9-1.1,0.9C76.6,65.9,76.3,65.1,77.2,65L77.2,65z M74.7,62.3c0.2,0,0.4,0.3,0.3,0.7c-0.1,0.6-0.1,0.9,0.3,0.9
		c0.1,0,0.1,0,0.2-0.2c0.2-1.1-0.4-2-0.6-2C74.3,61.6,74.4,62.4,74.7,62.3L74.7,62.3z M85.3,61.8c0.4,0.1,0.7,0.8,0.8,1.4
		c0,0.1,0.5-0.1,0.5-0.3c0-1.1-0.9-1.6-1.2-1.6C84.9,61.5,85,61.8,85.3,61.8L85.3,61.8z M79.9,65.2c1.3-0.6,1.8,0.3,1.3,0.5
		C80.7,65.8,80.7,64.9,79.9,65.2L79.9,65.2z M63.8,87.8c-0.6-0.1,0.2-0.5,0.5-1.1c0.4-0.7,0.3-1.5,0.7-1.3c0.4,0.1,0.2,0.6-0.1,1.3
		C64.7,87.3,64.1,87.8,63.8,87.8L63.8,87.8z"/>
</g>
</svg>
