<?xml version="1.0" encoding="utf-8"?>
<!-- Generator: Adobe Illustrator 25.3.1, SVG Export Plug-In . SVG Version: 6.00 Build 0)  -->
<svg height="512" width="512" xmlns="http://www.w3.org/2000/svg" xmlns:xlink="http://www.w3.org/1999/xlink" x="0px" y="0px"
	 viewBox="0 0 130 130" style="enable-background:new 0 0 130 130;" xml:space="preserve">

<g id="Layer_2_1_">
</g>
<g id="Layer_4">
	<g>
		<path fill='none' d="M70,119.3l0-0.1c0-0.4-0.1-1.1-0.3-1.8c0-0.1-0.1-0.3-0.1-0.4H38.2v2.9h31.7C70,119.6,70,119.5,70,119.3
			L70,119.3z"/>
		<circle fill='none' cx="40.7" cy="107.2" r="1.5"/>
		<path fill='none' d="M40.7,111.7c-2.4,0-4.4-2-4.4-4.4s2-4.4,4.4-4.4c2.4,0,4.4,2,4.4,4.4S43.1,111.7,40.7,111.7z M61.8,108.7h-12
			c-0.8,0-1.4-0.6-1.4-1.4s0.6-1.4,1.4-1.4h12c0.8,0,1.4,0.6,1.4,1.4C63.3,108,62.6,108.7,61.8,108.7z"/>
		<path fill='none' d="M81.2,94.6h-43v2.9h41.9c0.3-0.9,0.6-1.8,1-2.7C81.1,94.8,81.2,94.7,81.2,94.6z"/>
		<circle fill='none' cx="40.7" cy="84.8" r="1.5"/>
		<path fill='none' d="M70.7,66.7c-0.8,0-1.4-0.6-1.4-1.4v-5.8c0-0.8,0.6-1.4,1.4-1.4h24.6V57c0-0.8-0.7-1.5-1.5-1.5H33.9
			c-0.8,0-1.5,0.7-1.5,1.5v10.8c0,0.8,0.7,1.5,1.5,1.5h2.9h51c0.1-0.9,0.2-1.7,0.5-2.6H70.7z M40.7,66.8c-2.4,0-4.4-2-4.4-4.4
			c0-2.4,2-4.4,4.4-4.4c2.4,0,4.4,2,4.4,4.4C45.1,64.8,43.1,66.8,40.7,66.8z M61.8,63.8h-12c-0.8,0-1.4-0.6-1.4-1.4
			c0-0.8,0.6-1.4,1.4-1.4h12c0.8,0,1.4,0.6,1.4,1.4C63.3,63.2,62.6,63.8,61.8,63.8z"/>
		<circle fill='none' cx="40.7" cy="62.3" r="1.5"/>
		<path fill='none' d="M38.2,72.2v2.9h49.7c0-1-0.1-2-0.1-2.9H38.2z"/>
		<path fill='none' d="M72.2,86.3h14.5c0.4-0.7,0.8-1.3,1.2-1.9c0.2-0.4,0.4-0.8,0.5-1H72.2V86.3z"/>
		<path fill='none' d="M40.7,89.2c-2.4,0-4.4-2-4.4-4.4s2-4.4,4.4-4.4c2.4,0,4.4,2,4.4,4.4C45.1,87.3,43.1,89.2,40.7,89.2z
			 M61.8,86.3h-12c-0.8,0-1.4-0.6-1.4-1.4c0-0.8,0.6-1.4,1.4-1.4h12c0.8,0,1.4,0.6,1.4,1.4C63.2,85.7,62.6,86.3,61.8,86.3z"/>
		<polygon fill='none' points="70.1,123.7 70.1,123.7 70.1,123.7 		"/>
		<path  fill='#1254B5' d="M29.1,30.7c0,1.5,0.2,2.9,0.6,4.2c0.1-0.3,0.1-0.6,0-0.9c-0.3-1.1-0.4-2.2-0.4-3.2c0-8.1,6.6-14.6,14.6-14.6
			c1.6,0,3.2,0.2,4.7,0.7c-1.5-0.5-3.2-0.8-4.9-0.8C35.6,16.1,29.1,22.6,29.1,30.7z"/>
		<path  fill='#1254B5' d="M105.3,29.9c0-16.1-13.1-29.2-29.2-29.2c-9.6,0-18.6,4.8-24,12.7c-2-0.9-4.2-1.5-6.3-1.7
			c3.8,0.4,7.4,1.9,10.2,4.2C60.5,9.3,68.1,5.3,76.1,5.3c13.5,0,24.5,11,24.5,24.5c0,2.8-0.5,5.5-1.4,8.1c1.6,0.1,3.2,0.3,4.7,0.8
			C104.8,35.9,105.3,32.9,105.3,29.9z"/>
		<path  fill='#1254B5' d="M2.4,55.1c0,11.5,8.2,21,19.5,22.8h0.4c1.1,0,2.1-0.8,2.3-1.9c0.2-1.3-0.7-2.5-2-2.7
			c-8.8-1.4-15.5-9.2-15.5-18.2c0-10.1,8.2-18.4,18.3-18.3c0.1,0,0.1,0,0.2,0c-0.5-1.5-0.8-3.1-0.9-4.8C12.4,32.4,2.4,42.6,2.4,55.1
			z"/>
		<path  fill='#1254B5' d="M49.4,17.3c0,0-0.1,0-0.1-0.1C49.3,17.2,49.4,17.3,49.4,17.3z"/>
		<path  fill='#1254B5' d="M118.3,58.1c0-6.2-2.9-11.9-7.5-15.6c0.6,0.8,0.6,1.9,0,2.8c-0.8,1-2.3,1.2-3.3,0.4c-2.3-1.8-4.9-2.8-7.7-3.1
			c0.2,0.1,0.4,0.2,0.6,0.2c7.5,1.1,13.2,7.7,13.2,15.3c0,3.4-1.1,6.6-3.1,9.3c0.8,1.8,1.2,3.8,1.2,5.6
			C115.9,69.1,118.3,63.8,118.3,58.1z"/>
		<path  fill='#1254B5' d="M43.9,11.6C43.9,11.6,43.9,11.6,43.9,11.6c0.5,0,1.1,0,1.6,0.1C45,11.6,44.4,11.6,43.9,11.6z"/>
		<path  fill='#1254B5' d="M110.8,42.5c-0.1-0.2-0.3-0.3-0.4-0.5c-2-1.5-4.2-2.6-6.5-3.3c0,0,0,0,0,0.1
			C106.5,39.6,108.8,40.8,110.8,42.5z"/>
		<path  fill='#1254B5' d="M98.7,41.6c-0.4-0.6-0.4-1.4-0.1-2.1c0.2-0.5,0.4-1,0.6-1.6c-0.3,0-0.7,0-1,0c-4.8,0-9.4,1.7-13,4.8
			c-1,0.8-1.1,2.3-0.3,3.3c0.5,0.5,1.1,0.8,1.8,0.8c0.5,0,1.1-0.1,1.4-0.6c2.8-2.4,6.4-3.7,10-3.7c0.6,0,1.1,0,1.7,0.1
			C99.3,42.4,99,42.1,98.7,41.6z"/>
		<path  fill='#1254B5' d="M110.8,45.3c0.7-0.9,0.6-2,0-2.8c-2-1.6-4.4-2.9-6.9-3.7c0,0,0,0,0-0.1c-1.5-0.4-3.1-0.7-4.7-0.8
			c-0.2,0.5-0.4,1-0.6,1.6c-0.3,0.7-0.3,1.5,0.1,2.1c0.3,0.5,0.6,0.8,1.1,1c2.9,0.3,5.5,1.3,7.7,3.1C108.5,46.5,110,46.3,110.8,45.3
			z"/>
		<path  fill='#1254B5' d="M53.4,18.7c-0.6,0.2-1.3,0.1-1.8-0.3c-0.7-0.4-1.4-0.8-2.2-1.1c5.2,2.2,8.9,7.4,8.9,13.4c0,2-0.3,3.9-1.1,5.7
			c-0.6,1.2,0,2.6,1.2,3.1c1.2,0.6,2.6,0,3.1-1.2c1-2.4,1.5-4.9,1.5-7.5c0-6-2.7-11.3-7-14.9c-0.4,0.5-0.7,1.1-1.1,1.7
			C54.6,18.2,54.1,18.5,53.4,18.7z"/>
		<path  fill='#1254B5' d="M27.2,36.9c-0.5-0.1-1.1-0.1-1.6-0.1c1.5,4.7,4.9,8.7,9.4,11.1c0.4,0.2,0.7,0.3,1.1,0.3
			c0.9,0,1.7-0.5,1.9-1.4c0.6-1.2,0.1-2.6-1-3.2c-3.6-1.8-6.2-5-7.3-8.7c-0.1,0.4-0.2,0.8-0.5,1.2C28.7,36.7,28,36.9,27.2,36.9z"/>
		<path  fill='#1254B5' d="M49.3,17.2c-0.2-0.1-0.5-0.2-0.7-0.3C48.8,17,49.1,17.1,49.3,17.2z"/>
		<path  fill='#1254B5' d="M24.7,30.8c0-10.6,8.6-19.2,19.2-19.2c0,0,0,0-0.1,0c-10.6,0-19.2,8.6-19.2,19.2c0,0.4,0,0.8,0,1.2
			c0,0,0,0,0.1,0C24.7,31.6,24.7,31.2,24.7,30.8z"/>
		<path  fill='#1254B5' d="M45.5,11.7c0.1,0,0.2,0,0.2,0C45.7,11.7,45.6,11.7,45.5,11.7z"/>
		<path  fill='#1254B5' d="M45.5,11.7c-0.6,0-1.1-0.1-1.7-0.1c-10.6,0-19.2,8.6-19.2,19.2c0,0.4,0,0.8,0,1.2c0,0,0,0-0.1,0
			c0.1,1.7,0.4,3.3,0.9,4.8c0.5,0,1.1,0,1.6,0.1c0.8,0,1.5-0.2,2-0.8c0.3-0.3,0.5-0.7,0.5-1.2c-0.4-1.4-0.6-2.8-0.6-4.2
			c0-8.1,6.5-14.6,14.6-14.6c1.7,0,3.3,0.3,4.9,0.8c0.3,0.1,0.5,0.2,0.7,0.3c0,0,0.1,0,0.1,0.1c0.7,0.3,1.5,0.7,2.2,1.1
			c0.5,0.4,1.2,0.5,1.8,0.3c0.7-0.2,1.2-0.5,1.5-1.1c0.3-0.6,0.7-1.1,1.1-1.7c-2.8-2.3-6.3-3.9-10.2-4.2
			C45.7,11.7,45.6,11.7,45.5,11.7z"/>
		<path  fill='#1254B5' d="M36.8,69.3h-2.9c-0.8,0-1.5-0.7-1.5-1.5V57c0-0.8,0.7-1.5,1.5-1.5h59.9c0.8,0,1.5,0.7,1.5,1.5v1.1h1.4
			c0.8,0,1.4,0.6,1.4,1.4v0.1c0,0,0,0,0,0V57c0-2.3-1.9-4.3-4.3-4.3H33.9c-2.3,0-4.3,1.9-4.3,4.3v10.8c0,2.3,1.9,4.3,4.3,4.3h1.5
			v-1.4C35.4,69.9,36,69.3,36.8,69.3z"/>
		<path  fill='#1254B5' d="M40.7,58c-2.4,0-4.4,2-4.4,4.4c0,2.4,2,4.4,4.4,4.4c2.4,0,4.4-2,4.4-4.4C45.1,60,43.1,58,40.7,58z M40.7,63.8
			c-0.8,0-1.5-0.7-1.5-1.5s0.7-1.5,1.5-1.5s1.5,0.7,1.5,1.5S41.5,63.8,40.7,63.8z"/>
		<path  fill='#1254B5' d="M61.8,61h-12c-0.8,0-1.4,0.6-1.4,1.4c0,0.8,0.6,1.4,1.4,1.4h12c0.8,0,1.5-0.6,1.4-1.4
			C63.2,61.6,62.6,61,61.8,61z"/>
		<path  fill='#1254B5' d="M69.3,59.5v5.8c0,0.8,0.6,1.4,1.4,1.4h17.6c0.1-0.4,0.3-0.9,0.5-1.3c0.2-0.5,0.6-1.1,0.9-1.6H72.2v-2.9H93
			c0.2-0.1,0.3-0.2,0.5-0.3c0.6-0.3,1.2-0.5,1.8-0.7v-1.9H70.7C69.9,58.1,69.3,58.7,69.3,59.5z"/>
		<path  fill='#1254B5' d="M98.1,59.6v-0.1c0-0.8-0.6-1.4-1.4-1.4h-1.4V60C96.2,59.7,97.2,59.6,98.1,59.6z"/>
		<path  fill='#1254B5' d="M38.2,72.2h49.6c0,0,0-0.1,0-0.1H35.4v3h2.8V72.2z"/>
		<path  fill='#1254B5' d="M87.8,71.7L87.8,71.7c0-0.2,0-0.4,0-0.5c0-0.6,0-1.2,0.1-1.8h-51c-0.8,0-1.4,0.6-1.4,1.4v1.4h52.4
			C87.8,72,87.8,71.8,87.8,71.7z"/>
		<path  fill='#1254B5' d="M36.8,91.8h45.8c0,0,0-0.1,0.1-0.1H33.9c-0.8,0-1.5-0.7-1.5-1.5V79.4c0-0.8,0.7-1.5,1.5-1.5h2.9
			c-0.8,0-1.4-0.6-1.4-1.4v-1.4h-1.5c-2.3,0-4.3,1.9-4.3,4.3v10.9c0,2.3,1.9,4.3,4.3,4.3h1.5v-1.4C35.4,92.4,36,91.8,36.8,91.8z"/>
		<path  fill='#1254B5' d="M36.8,77.9H88c0-0.9-0.1-1.9-0.1-2.8H38.2h-2.8v1.4C35.4,77.3,36,77.9,36.8,77.9z"/>
		<path  fill='#1254B5' d="M40.7,80.4c-2.4,0-4.4,2-4.4,4.4s2,4.4,4.4,4.4c2.4,0,4.4-1.9,4.4-4.4C45.1,82.4,43.1,80.4,40.7,80.4z
			 M40.7,86.3c-0.8,0-1.5-0.7-1.5-1.5s0.7-1.5,1.5-1.5s1.5,0.7,1.5,1.5S41.5,86.3,40.7,86.3z"/>
		<path  fill='#1254B5' d="M61.8,83.5h-12c-0.8,0-1.4,0.6-1.4,1.4c0,0.8,0.6,1.4,1.4,1.4h12c0.8,0,1.4-0.6,1.4-1.4
			C63.2,84.1,62.6,83.5,61.8,83.5z"/>
		<path  fill='#1254B5' d="M72.2,86.3v-2.9h16.1c0,0,0,0,0-0.1c-0.1-0.9-0.2-1.9-0.2-2.8H70.7c-0.8,0-1.4,0.6-1.4,1.4v5.8
			c0,0.8,0.6,1.4,1.4,1.4h14c0.7-0.9,1.4-1.8,2-2.8H72.2z"/>
		<path  fill='#1254B5' d="M80.1,97.5H38.2v-2.9h-2.8v3L80.1,97.5C80.1,97.6,80.1,97.5,80.1,97.5z"/>
		<path  fill='#1254B5' d="M81.2,94.6c0.4-1,0.9-1.9,1.4-2.8H36.8c-0.8,0-1.4,0.6-1.4,1.4v1.4h2.8H81.2z"/>
		<path  fill='#1254B5' d="M36.8,114.2h-2.9c-0.8,0-1.5-0.7-1.5-1.5v-10.8c0-0.8,0.7-1.5,1.5-1.5h2.9c-0.8,0-1.4-0.6-1.4-1.4v-1.4h-1.5
			c-2.3,0-4.3,1.9-4.3,4.3v10.8c0,2.3,1.9,4.3,4.3,4.3h1.5v-1.4C35.4,114.8,36,114.2,36.8,114.2z"/>
		<path  fill='#1254B5' d="M36.8,100.4H79c0.3-0.9,0.7-1.8,1-2.8H35.4V99C35.4,99.8,36,100.4,36.8,100.4z"/>
		<path  fill='#1254B5' d="M40.7,102.9c-2.4,0-4.4,2-4.4,4.4s2,4.4,4.4,4.4c2.4,0,4.4-2,4.4-4.4S43.1,102.9,40.7,102.9z M40.7,108.7
			c-0.8,0-1.5-0.7-1.5-1.5c0-0.8,0.7-1.5,1.5-1.5s1.5,0.7,1.5,1.5S41.5,108.7,40.7,108.7z"/>
		<path  fill='#1254B5' d="M61.8,105.9h-12c-0.8,0-1.4,0.6-1.4,1.4s0.6,1.4,1.4,1.4h12c0.8,0,1.5-0.7,1.4-1.4
			C63.2,106.5,62.6,105.9,61.8,105.9z"/>
		<path  fill='#1254B5' d="M75,111.6c0.5-0.3,0.8-0.5,0.9-0.6c0.1-0.2,0.2-0.2,0.3-0.5c0-0.2,0.1-0.4,0.1-0.8c0-0.4,0.1-0.7,0.4-0.9
			h-4.4v-2.9h4.6c0.1-1.1,0.5-2.1,0.9-2.8h-7c-0.8,0-1.4,0.6-1.4,1.4v5.8c0,0.8,0.6,1.4,1.4,1.4L75,111.6
			C74.9,111.6,75,111.6,75,111.6L75,111.6z"/>
		<path  fill='#1254B5' d="M69.9,119.9H38.2V117h-2.8v4.4c0,0.8,0.6,1.4,1.4,1.4h32.1c0.1-0.8,0.4-1.5,0.6-2.1
			C69.7,120.4,69.8,120.1,69.9,119.9z"/>
		<path  fill='#1254B5' d="M69.6,117c-0.2-0.6-0.3-1.3-0.3-2c0-0.3,0-0.5,0.1-0.8H36.8c-0.8,0-1.4,0.6-1.4,1.4v1.4h2.8H69.6z"/>
		<polygon fill='#FFFFFF' points="69.2,124.7 69.2,124.7 69.2,124.7 		"/>
		<path fill='#FFFFFF' d="M70.1,123.7L70.1,123.7C70.1,123.7,70.1,123.7,70.1,123.7C70.1,123.7,70.1,123.7,70.1,123.7z"/>
		<path fill='#FFFFFF' d="M95.3,60c-0.6,0.2-1.2,0.3-1.8,0.7c-0.2,0.1-0.3,0.2-0.5,0.3h2.3V60z"/>
	</g>
</g>
<g id="Layer_3">
	<path fill-rule='evenodd' clip-rule='evenodd' fill='#1254B5'  d="M90.6,119.3c2.4-0.3,2.8-2.8,1.6-4c-0.9-0.9-6.2-4.8-7.5-6.3c-0.6-0.7-1.5-1.1-1.9-1.9
		c-0.8-1.8-1.4-4.4-0.4-6.3c0.2-0.3,0.3-0.2,0.2,0.5c-0.8,4,1.8,7.3,2.4,5.6c0.4-1.2,0-3.2,0.2-4.9c0.4-2.9,3-8.5,4.2-8.8
		c-1.8-3.3,2.1-5.9,2.1-8.9c0-1.9,1.7,2.3,3.4,3.2c1.9,1,4-1.9,7-3.4c0.8-0.4,1.9-0.9,1.9-1.2c-0.3-1.7-3.9,2.1-7.1,2.2
		c-1.5,0.1-2-0.3-2.6-0.8c-1.7-1.6,0.2-0.3,2.7-0.7c1.1-0.2,1.5-0.4,2.7-0.9c1.2-0.5,2.5-1.2,3.9-1.6c0.9-0.3,0.9-1,0.5-1.2
		c-0.2-0.1-0.5-0.1-0.8,0.3c-0.6,1-3.3,1.6-4.1,1.8c-1.1,0.3-2.3,0.6-3.9,0.6c-2.4-0.1-1.9-1.2-3.6-2.2c-0.5-0.3-0.4-1.1,0.3-1.7
		c0.4-0.4,1.3-0.6,1.8-1.4c0.1-0.1,0.7-0.8,1.2-1.1c0.2-0.1,0.2-3.1-1.3-3.1c-1.3-0.1-1.7,1-1.6,1.9c0.1,1,0.6,1.8,0.9,1.8
		c0.7,0,0,0.7-0.3,0.9c-0.6,0.2-1.3-2.2-1.2-3.4c0.1-1.2,0.7-3.3,2.2-3.3c1.4,0,2.4,1.8,2.3,4.7c0,0.5,2.2-0.2,3,0.5
		c0.5,0.6-1.8-5.3,3.4-5.7c1.4,0.3,2.7,0.7,3.3,3.9c-0.2,0.3,0.3,2.6-0.5,2.8c-1,0.3-1.7,0-1.1-1c0.4-1,0-3.5-2.1-3.4
		c-2.1,0.2-1.8,3.9-1.3,4c0.6,0.1,2,1.1,3.1,1.3c3.3,0.6,0.9,2.6,1.3,4.9c0.5,2.6,2.2,1.9,3.8,8.9c0.3,0.4,1.6,0.8,2.9,6.1
		c1.1,4.8-0.5,8.3,2.2,8c0.6-0.1,1.5-0.2,1.9-1.6c1-3.5-0.5-7.8-2-10.6c-0.9-1.7-1.7-2.8-2.2-3.2c1.8,1,4,4.4,4.5,6.8
		c0.7,3.2,1.2,4.6,0.1,8c0.6,0.3,2.1,0.9,2.1,1.6c-1.5-1.3-6.3-1.5-6.4,1.5c-0.8,0-1.4,0.1-1.9,0.7c-1.9,2.2-0.1,6.8-0.3,9.2
		c-0.2,2.1-0.8,4.2-1.1,6.4c-1.1,0-1-0.9-0.7-2c0.3-1,0.8-2.3,0.9-3.5c0-1.1-0.1-1.8-0.4-2c-0.3-0.2-0.7,0.2-1.3,1.2
		c-1.3,2.1-4.1,3-6.7,3.3c-2.6,0.3-5.1,0.1-6.3-1.4c-0.4-0.5-1.2,0.1-1.3,0.3c-0.1,0.2,0.4,0.5,0.8,1.3c0.6,1.1,1.2,2.8-0.3,3.5
		C93,121.9,91.8,121.7,90.6,119.3L90.6,119.3z M89.6,119.2c0.9,1.5,4.2,7.7-1.6,8.5c-1.9,0.3-5.1-1.1-8.1-1.9
		c-2.7-0.7-5.5-1.1-7-1.5c-0.9-0.3-1.3-0.6-1.4-1c-0.2-1,1.1-2.5,1.2-3.7c0.1-1.2-0.4-1.9-0.9-2.9c-0.4-1-0.5-1.7-0.2-2.2
		c0.3-0.3,0.8-0.5,1.7-0.4c1.1,0.1,2.4-0.1,3.1-0.6c1.2-0.7,1.8-2.2,1.2-4c0,1.8-0.6,2.4-2,3.3c-1.4,0.8-3.5,0.1-4.5,1
		c-1.2,1,0.4,3.6,0.3,5.6c-0.1,1.5-1.6,3.1-1,4.6c0.7,1.5,3.9,1.7,7.3,2.4c4.8,1,7.6,2.7,9.8,2.8c3.2,0.1,3.7-3.2,8.8-3.2
		c1.5-0.1,2.9-0.1,4.4-0.1c1.6,0,3.3,0,5,0c3.4,0.1,2.2,1.8,4.4,3c1.8,0.9,5.2,0.6,6-0.2c1.1-1,4-3.5,6.2-4.6
		c2.8-1.4,9.2-3.8,4.5-6.7c-1.1-0.7-3.7-1.4-3.9-6.4c-1,0.9-0.9,5.5,1.9,6.4c3.1,1,5,2.7-0.7,4.7c-3.8,1.3-4.4,1.7-7.4,4.2
		c-3,2.5-7.5,1.5-6.7-3.8c0.4-2.8,0.6-5,0-7.4c-0.3-1.2-0.5-2.7-0.3-3.7c0.4-2,1.6-2.7,2.6-0.7c0.7,1.2,0.9,2.7,3.4,2.8
		c3.8,0.2,4.6-3.7,5.8-3.9c0.8-0.1,1.6-2.4,1-6.2c-0.7-4-3-10.3-6-13.5c-2.5-2.7-4.1-5-5.1-8.3c-0.8-2.8-1.3-5.5-1.1-8.1
		c0.2-3.4-1.6-8.1-4.6-10.3c-1.9-1.4-4.8-2.1-7.4-2.1c-1.5,0-2.9,0.2-4,0.8c-4.4,2.4-5,5.8-5,9.7c0.1,3.7,0.2,7.9,0.6,11.9
		c-0.5,1.8-3.1,5.3-4.7,7.4c-2.2,2.2-3.3,6.4-4.8,10.1c-0.8,2-2.1,2.9-2.2,5.4c0,0.7,0,2.5,0.7,2C81.5,106.4,84.7,111.5,89.6,119.2
		L89.6,119.2z M103.1,66.2c-0.1,0.4-0.7,0.8-0.3,1.1c0.4,0.3,0.6-0.4,1.3-0.7c0.2-0.1,1.1,0,1.2-0.4c0.1-0.2-0.5-0.4-0.8-0.7
		c-0.3-0.3-0.6-0.6-0.9-0.5C102.8,65.1,103.2,65.9,103.1,66.2L103.1,66.2z M107.6,81.5c0.3-0.3,0.4,0.5,1.1,1
		c0.6,0.4,1.1,0.1,1.3,0.8c0.1,0.5-0.2,1.1-0.7,1C108.6,84.2,106.8,82.3,107.6,81.5L107.6,81.5z M95.4,76.8
		c-1.2-0.1-1.3,0.8-0.9,0.8C94.9,77.5,94.7,76.9,95.4,76.8L95.4,76.8z M93.4,74.5c0.1,0,0.3,0.2,0.3,0.6c-0.1,0.5,0,0.8,0.3,0.8
		c0.1,0,0.1,0,0.1-0.1c0.2-0.9-0.3-1.6-0.5-1.7C93,73.9,93.1,74.6,93.4,74.5L93.4,74.5z M102.2,74.1c0.3,0.1,0.6,0.6,0.7,1.2
		c0,0.1,0.4-0.1,0.4-0.2c0-0.9-0.8-1.4-1-1.3C101.8,73.8,101.9,74.1,102.2,74.1L102.2,74.1z M97.6,76.9c1.1-0.5,1.5,0.3,1.1,0.4
		C98.4,77.4,98.4,76.7,97.6,76.9L97.6,76.9z M84.3,95.7c-0.5-0.1,0.2-0.5,0.4-0.9c0.3-0.5,0.3-1.2,0.6-1.1c0.3,0.1,0.1,0.5-0.1,1.1
		C85.1,95.2,84.5,95.7,84.3,95.7L84.3,95.7z"/>
</g>
</svg>
