<?xml version="1.0" encoding="utf-8"?>
<!-- Generator: Adobe Illustrator 25.3.1, SVG Export Plug-In . SVG Version: 6.00 Build 0)  -->
<svg height="512" width="512" xmlns="http://www.w3.org/2000/svg" xmlns:xlink="http://www.w3.org/1999/xlink" x="0px" y="0px"
	 viewBox="0 0 130 130" style="enable-background:new 0 0 130 130;" xml:space="preserve">

<g id="Layer_2_1_">
	<g>
		<path fill='#1254B5' d="M55.9,112.2l-5.7-15.8c-0.1-0.2-0.2-0.5-0.2-0.8c0-0.7,0.6-1.3,1.4-1.3c0.7,0,1.2,0.5,1.4,1.2l4.7,13.6
			l4.7-13.7c0.2-0.7,0.7-1.1,1.4-1.1h0.1c0.8,0,1.2,0.5,1.5,1.1l4.7,13.7l4.8-13.7c0.2-0.6,0.6-1.1,1.3-1.1c0.8,0,1.4,0.6,1.4,1.3
			c0,0.2-0.1,0.5-0.2,0.8l-5.7,15.8c-0.3,0.8-0.9,1.3-1.5,1.3h-0.1c-0.7,0-1.3-0.4-1.5-1.3l-4.7-13.4L59,112.2
			c-0.2,0.8-0.8,1.3-1.5,1.3h-0.1C56.7,113.5,56.2,113.1,55.9,112.2"/>
		<path fill='#1254B5' d="M97.2,95.7c0-0.8,0.6-1.4,1.4-1.4s1.4,0.6,1.4,1.4v3.2c1.4-3.1,4.4-4.6,6.4-4.6c0.8,0,1.4,0.6,1.4,1.4
			s-0.5,1.3-1.2,1.4c-3.6,0.4-6.6,3.1-6.6,8.5v6.3c0,0.8-0.6,1.4-1.4,1.4s-1.4-0.6-1.4-1.4L97.2,95.7"/>
		<path fill='#1254B5' d="M116.8,113.6c-5,0-9.2-3.9-9.2-9.6v-0.1c0-5.3,3.7-9.6,8.8-9.6c5.4,0,8.5,4.5,8.5,9.4c0,0.8-0.6,1.3-1.3,1.3
			h-13.3c0.4,4,3.2,6.3,6.5,6.3c2.3,0,3.9-0.9,5.3-2.1c0.2-0.2,0.5-0.3,0.8-0.3c0.7,0,1.2,0.5,1.2,1.2c0,0.3-0.1,0.6-0.4,0.9
			C122,112.5,119.9,113.6,116.8,113.6 M122.2,102.9c-0.3-3.4-2.2-6.3-5.8-6.3c-3.2,0-5.6,2.7-6,6.3H122.2z"/>
		<path fill='#1254B5' d="M77.5,107.8L77.5,107.8c0-4,3.3-6.1,8-6.1c2.4,0,4.1,0.3,5.7,0.8v-0.7c0-3.4-2.1-5.1-5.6-5.1
			c-1.9,0-3,0.2-4.3,0.9c-0.2,0.1-0.4,0.1-0.5,0.1c-0.7,0-1.2-0.5-1.2-1.2c0-0.6,0.2-0.9,0.8-1.2c1.8-0.8,3.2-1.1,5.6-1.1
			c2.6,0,4.7,0.7,6,2.1c1.3,1.3,1.9,3.1,1.9,5.5v10.3c0,0.8-0.6,1.4-1.3,1.4c-0.8,0-1.3-0.6-1.3-1.3v-1.8c-1.3,1.7-3.5,3.2-6.7,3.2
			C81,113.7,77.5,111.7,77.5,107.8 M91.2,106.4v-1.8c-1.4-0.4-3.2-0.8-5.5-0.8c-3.5,0-5.5,1.5-5.5,3.9v0.1c0,2.4,2.2,3.7,4.7,3.7
			C88.4,111.4,91.2,109.4,91.2,106.4"/>
		<path fill='#1254B5' d="M5.3,95.5c-0.6-1.3-2.1-1.9-3.5-1.3s-1.9,2.2-1.3,3.5l5.9,12.9c0.9,2,1.9,3.1,3.8,3.1c2,0,2.8-1.1,3.8-3.1
			c0,0,5.2-11.2,5.2-11.4c0.1-0.1,0.2-0.5,0.7-0.5c0.4,0,0.8,0.4,0.8,0.8v11c0,1.7,0.9,3.1,2.7,3.1c1.8,0,2.8-1.4,2.8-3.1v-9
			c0-1.7,1.2-2.9,2.9-2.9s2.8,1.2,2.8,2.9v9c0,1.7,0.9,3.1,2.7,3.1s2.8-1.4,2.8-3.1v-9c0-1.7,1.2-2.9,2.9-2.9s2.8,1.2,2.8,2.9v9
			c0,1.7,0.9,3.1,2.8,3.1c1.8,0,2.8-1.4,2.8-3.1v-10.2c0-3.8-3-6.4-6.7-6.4s-5.9,2.5-5.9,2.5c-1.2-1.6-2.9-2.5-5.7-2.5
			c-3,0-5.6,2.5-5.6,2.5c-1.2-1.6-3.3-2.5-5-2.5c-2.6,0-4.7,1.2-6,4.1l-3.8,8.9L5.3,95.5"/>
		<path fill='#1254B5' d="M125.2,96.6L125.2,96.6c0-1.3,1-2.3,2.3-2.3s2.3,1,2.3,2.3l0,0c0,1.3-1,2.3-2.3,2.3S125.2,97.9,125.2,96.6
			 M129.4,96.6L129.4,96.6c0-1-0.8-1.9-1.9-1.9s-1.9,0.9-1.9,1.9l0,0c0,1,0.8,1.9,1.9,1.9C128.5,98.5,129.4,97.6,129.4,96.6"/>
		<path fill='#1254B5' d="M126.6,95.7c0-0.1,0.1-0.2,0.2-0.2h0.8c0.3,0,0.5,0.1,0.7,0.2c0.1,0.1,0.2,0.3,0.2,0.5l0,0
			c0,0.3-0.2,0.6-0.4,0.7l0.3,0.4c0,0.1,0.1,0.1,0.1,0.2s-0.1,0.2-0.2,0.2c-0.1,0-0.2-0.1-0.2-0.1l-0.5-0.6h-0.4v0.5
			c0,0.1-0.1,0.2-0.2,0.2s-0.2-0.1-0.2-0.2L126.6,95.7L126.6,95.7z M127.6,96.5c0.2,0,0.4-0.1,0.4-0.3l0,0c0-0.2-0.1-0.3-0.4-0.3
			h-0.5v0.6C127.1,96.5,127.6,96.5,127.6,96.5z"/>
	</g>
</g>
<g id="Layer_3">
	<g>
		<path fill='none' d="M51.5,33.4c0-3.5,2.8-6.3,6.3-6.3h26.9v-5.5c0-1.2-0.5-2.2-1.3-3c-0.8-0.8-1.9-1.3-3-1.3h-34
			c-1.2,0-2.2,0.5-3,1.3c-0.8,0.8-1.3,1.9-1.3,3v15.9h9.4V33.4z"/>
		<path fill='none' d="M43.4,58.6c0.8,0.8,1.9,1.3,3,1.3h5.1V39.5h-9.4v16.1C42.1,56.8,42.6,57.8,43.4,58.6z"/>
		<polygon fill='none' points="93,43.9 93,43.9 93,43.9 		"/>
		<polygon fill='none' points="91.5,43.8 91.5,43.9 91.5,43.8 		"/>
		<path fill='none' d="M73.9,43.8c0-1.2-0.5-2.2-1.3-3c-0.8-0.8-1.9-1.3-3-1.3H53.5v20.4h20.4V43.8z"/>
		<path fill='#1254B5' d="M65.7,82.1H35.6c-1.2,0-2.2-0.5-3-1.3c-0.8-0.8-1.3-1.9-1.3-3v-34c0-1.2,0.5-2.2,1.3-3c0.8-0.8,1.9-1.3,3-1.3
			h4.5v-2h-4.5c-3.5,0-6.3,2.8-6.3,6.3v34c0,3.5,2.8,6.3,6.3,6.3h29.7c0-0.1,0-0.2,0-0.2C65.3,83.1,65.6,82.5,65.7,82.1z"/>
		<path fill='#1254B5' d="M69.6,39.5c1.2,0,2.2,0.5,3,1.3c0.8,0.8,1.3,1.9,1.3,3v16.1h2V43.8c0-3.5-2.8-6.3-6.3-6.3H53.5v2H69.6z"/>
		<rect x="42.1" y="37.5" fill='#1254B5' width="9.4" height="2"/>
		<path fill='#1254B5' d="M73.9,63.8c0-0.1,0.1-0.2,0.1-0.3c0.2-0.6,0.5-1.1,0.8-1.6h-0.9V63.8z"/>
		<path fill='#1254B5' d="M86.5,38.2L86.5,38.2l0.1,0c0,0,0,0,0,0v-9.1h-2v9.3C85.3,38.3,85.9,38.2,86.5,38.2z"/>
		<rect x="53.5" y="59.9" fill='#1254B5' width="20.4" height="2"/>
		<path fill='#1254B5' d="M46.4,61.9h5.1v-2h-5.1c-1.2,0-2.2-0.5-3-1.3c-0.8-0.8-1.3-1.9-1.3-3V39.5h-2v16.1
			C40.1,59.1,42.9,61.9,46.4,61.9z"/>
		<path fill='#1254B5' d="M42.1,21.6c0-1.2,0.5-2.2,1.3-3c0.8-0.8,1.9-1.3,3-1.3h34c1.2,0,2.2,0.5,3,1.3c0.8,0.8,1.3,1.9,1.3,3v5.5h2
			v-5.5c0-3.5-2.8-6.3-6.3-6.3h-34c-3.5,0-6.3,2.8-6.3,6.3v15.9h2V21.6z"/>
		<rect x="40.1" y="37.5" fill='#1254B5' width="2" height="2"/>
		<path fill='#1254B5' d="M73.9,61.9h0.9c0.3-0.6,0.7-1.1,1.1-1.6v-0.4h-2V61.9z"/>
		<rect x="51.5" y="39.5" fill='#1254B5' width="2" height="20.4"/>
		<path fill='#1254B5' d="M70.9,72.2c0-0.1,0-0.2,0-0.3c0-0.1,0-0.1,0-0.2H57.8c-1.2,0-2.2-0.5-3-1.3c-0.8-0.8-1.3-1.9-1.3-3v-5.5h-2
			v5.5c0,3.5,2.8,6.3,6.3,6.3h12.8c0.1-0.2,0.2-0.4,0.3-0.5C70.9,72.8,70.9,72.5,70.9,72.2z"/>
		<path fill='#1254B5' d="M51.5,33.4v4.1h2v-4.1c0-1.2,0.5-2.2,1.3-3c0.8-0.8,1.9-1.3,3-1.3h26.9v-2H57.8
			C54.3,27.1,51.5,29.9,51.5,33.4z"/>
		<path fill='#1254B5' d="M91.8,29.1c1.2,0,2.2,0.5,3,1.3c0.8,0.8,1.3,1.9,1.3,3V45c0.3,1,0.5,2.1,0.5,3.1c0,0.2,0,0.3,0,0.5
			c0,0.2,0,0.4,0,0.7c0,1.4,0.3,3,0.8,4.6c0.2,0.7,0.4,1.3,0.7,1.8l0-22.3c0-3.5-2.8-6.3-6.3-6.3h-5.1v2H91.8z"/>
		<rect x="51.5" y="37.5" fill='#1254B5' width="2" height="2"/>
		<rect x="84.7" y="27.1" fill='#1254B5' width="2" height="2"/>
		<rect x="51.5" y="59.9" fill='#1254B5' width="2" height="2"/>
		<path fill='#FFFFFF' d="M66.2,84.3C66.2,84.3,66.2,84.3,66.2,84.3C66.2,84.3,66.2,84.3,66.2,84.3S66.2,84.3,66.2,84.3
			C66.2,84.3,66.2,84.3,66.2,84.3z M68.2,86.1C68.2,86.1,68.2,86.1,68.2,86.1L68.2,86.1C68.2,86.1,68.2,86.1,68.2,86.1z"/>
		<polygon fill='#FFFFFF' points="68.2,86.1 68.2,86.1 68.2,86.1 		"/>
		<path fill='#FFFFFF' d="M93,43.9C93,43.9,93,43.9,93,43.9L93,43.9C93,43.9,93,43.9,93,43.9z M91.5,43.8
			C91.5,43.8,91.5,43.8,91.5,43.8L91.5,43.8C91.5,43.9,91.5,43.9,91.5,43.8z M93.2,56.1L93.2,56.1L93.2,56.1
			C93.2,56.1,93.2,56.1,93.2,56.1z"/>
		<polygon fill='#FFFFFF' points="93.2,56.1 93.2,56.1 93.2,56.1 		"/>
	</g>
</g>
<g id="Layer_4">
	<path fill-rule='evenodd' clip-rule='evenodd' fill='#1254B5' d="M81.1,81.1c1.7-0.2,2-2,1.1-2.8c-0.7-0.7-4.4-3.4-5.4-4.5c-0.5-0.5-1.1-0.8-1.3-1.3c-0.6-1.3-1-3.2-0.3-4.5
		c0.1-0.2,0.2-0.1,0.1,0.4c-0.6,2.8,1.3,5.2,1.7,4c0.3-0.8,0-2.3,0.2-3.5c0.3-2.1,2.2-6.1,3-6.3c-1.3-2.4,1.5-4.2,1.5-6.3
		c0-1.4,1.2,1.7,2.4,2.3c1.4,0.7,2.8-1.3,5-2.4c0.6-0.3,1.4-0.6,1.3-0.9c-0.2-1.2-2.8,1.5-5,1.6c-1,0-1.4-0.2-1.8-0.6
		c-1.2-1.2,0.1-0.2,1.9-0.5c0.8-0.1,1.1-0.3,1.9-0.6c0.8-0.3,1.8-0.8,2.8-1.1c0.7-0.2,0.6-0.7,0.4-0.8c-0.1-0.1-0.4-0.1-0.5,0.2
		c-0.4,0.7-2.3,1.1-2.9,1.3c-0.8,0.2-1.6,0.5-2.8,0.4c-1.7-0.1-1.3-0.9-2.6-1.6c-0.4-0.2-0.3-0.8,0.2-1.2c0.3-0.3,0.9-0.4,1.3-1
		c0-0.1,0.5-0.5,0.8-0.8c0.1-0.1,0.1-2.2-1-2.2c-0.9,0-1.2,0.7-1.1,1.4c0,0.7,0.4,1.3,0.7,1.3c0.5,0,0,0.5-0.2,0.6
		c-0.4,0.1-1-1.6-0.9-2.4c0.1-0.9,0.5-2.4,1.6-2.3c1,0,1.7,1.2,1.6,3.4c0,0.4,1.6-0.2,2.1,0.4c0.4,0.4-1.3-3.7,2.4-4
		c1,0.2,1.9,0.5,2.3,2.8c-0.1,0.2,0.2,1.8-0.4,2c-0.7,0.2-1.2,0-0.8-0.7c0.3-0.7,0-2.5-1.5-2.4c-1.5,0.1-1.3,2.8-0.9,2.8
		c0.4,0.1,1.4,0.8,2.2,0.9c2.4,0.5,0.6,1.8,0.9,3.5c0.3,1.9,1.6,1.4,2.7,6.3c0.2,0.3,1.1,0.6,2,4.4c0.8,3.4-0.3,5.9,1.6,5.7
		c0.4,0,1.1-0.2,1.3-1.1c0.7-2.5-0.4-5.5-1.4-7.5c-0.6-1.2-1.2-2-1.5-2.3c1.2,0.7,2.8,3.1,3.2,4.8c0.5,2.3,0.8,3.3,0.1,5.7
		c0.4,0.2,1.5,0.7,1.5,1.2c-1.1-0.9-4.4-1.1-4.5,1.1c-0.6,0-1,0.1-1.4,0.5c-1.3,1.6-0.1,4.8-0.2,6.5c-0.1,1.5-0.5,3-0.8,4.5
		c-0.8,0-0.7-0.6-0.5-1.4c0.2-0.7,0.6-1.6,0.6-2.5c0-0.8-0.1-1.3-0.3-1.4c-0.2-0.1-0.5,0.1-0.9,0.8c-0.9,1.5-2.9,2.1-4.8,2.4
		c-1.9,0.2-3.6,0-4.5-1c-0.3-0.4-0.8,0.1-0.9,0.2c-0.1,0.1,0.3,0.4,0.6,0.9c0.4,0.8,0.8,2-0.2,2.5C82.9,82.9,82,82.7,81.1,81.1
		L81.1,81.1z M80.5,81c0.7,1,3,5.5-1.1,6c-1.4,0.2-3.6-0.8-5.7-1.3c-1.9-0.5-3.9-0.8-5-1.1c-0.7-0.2-0.9-0.4-1-0.7
		c-0.2-0.7,0.8-1.8,0.9-2.6c0-0.9-0.3-1.3-0.6-2c-0.3-0.7-0.4-1.2-0.1-1.5c0.2-0.2,0.6-0.3,1.2-0.3c0.8,0.1,1.7-0.1,2.2-0.4
		c0.9-0.5,1.3-1.6,0.9-2.9c0,1.3-0.4,1.7-1.4,2.3c-1,0.5-2.5,0.1-3.2,0.7c-0.8,0.7,0.3,2.6,0.2,4c-0.1,1.1-1.2,2.2-0.7,3.3
		c0.5,1.1,2.8,1.2,5.2,1.7c3.4,0.7,5.4,2,7,2c2.3,0.1,2.6-2.3,6.2-2.3c1.1-0.1,2.1-0.1,3.1-0.1c1.2,0,2.3,0,3.5,0
		c2.4,0.1,1.6,1.3,3.1,2.1c1.3,0.7,3.7,0.4,4.2-0.1c0.8-0.7,2.8-2.5,4.4-3.3c2-1,6.6-2.7,3.2-4.8c-0.8-0.5-2.6-1-2.8-4.5
		c-0.7,0.6-0.6,3.9,1.3,4.6c2.2,0.7,3.5,2-0.5,3.3c-2.7,0.9-3.1,1.2-5.2,3c-2.1,1.8-5.3,1.1-4.8-2.7c0.3-2,0.5-3.6,0-5.3
		c-0.2-0.8-0.4-1.9-0.2-2.6c0.3-1.5,1.1-1.9,1.9-0.5c0.5,0.9,0.7,1.9,2.4,2c2.7,0.1,3.3-2.6,4.1-2.8c0.6-0.1,1.2-1.7,0.7-4.4
		c-0.5-2.8-2.1-7.3-4.3-9.6c-1.8-1.9-2.9-3.5-3.6-5.9c-0.6-2-0.9-3.9-0.8-5.8c0.2-2.4-1.2-5.7-3.3-7.3c-1.3-1-3.4-1.5-5.3-1.5
		c-1.1,0-2,0.2-2.8,0.6c-3.1,1.7-3.6,4.1-3.5,6.9c0,2.6,0.1,5.6,0.4,8.4c-0.4,1.3-2.2,3.8-3.3,5.3c-1.6,1.6-2.4,4.6-3.4,7.2
		c-0.5,1.4-1.5,2-1.5,3.8c0,0.5,0,1.8,0.5,1.4C74.7,71.9,77,75.5,80.5,81L80.5,81z M90,43.4c-0.1,0.3-0.5,0.5-0.2,0.8
		c0.3,0.2,0.4-0.3,0.9-0.5c0.1,0,0.8,0,0.9-0.3c0.1-0.1-0.3-0.3-0.5-0.5c-0.2-0.2-0.4-0.4-0.7-0.4C89.9,42.5,90.1,43.1,90,43.4
		L90,43.4z M93.2,54.2c0.2-0.2,0.3,0.4,0.8,0.7c0.4,0.3,0.8,0.1,0.9,0.6c0.1,0.4-0.2,0.8-0.5,0.7C93.9,56.1,92.7,54.8,93.2,54.2
		L93.2,54.2z M84.6,50.9c-0.9-0.1-0.9,0.6-0.6,0.5C84.3,51.4,84.1,50.9,84.6,50.9L84.6,50.9z M83.1,49.3c0.1,0,0.2,0.2,0.2,0.4
		c-0.1,0.3,0,0.5,0.2,0.5c0,0,0.1,0,0.1-0.1c0.1-0.7-0.2-1.2-0.4-1.2C82.9,48.8,82.9,49.3,83.1,49.3L83.1,49.3z M89.4,49
		c0.2,0.1,0.4,0.4,0.5,0.9c0,0,0.3-0.1,0.3-0.1c0-0.7-0.5-1-0.7-1C89.1,48.8,89.2,48.9,89.4,49L89.4,49z M86.2,50.9
		c0.8-0.4,1.1,0.2,0.8,0.3C86.7,51.3,86.7,50.8,86.2,50.9L86.2,50.9z M76.7,64.3c-0.4,0,0.1-0.3,0.3-0.7c0.2-0.4,0.2-0.9,0.4-0.8
		c0.2,0.1,0.1,0.3-0.1,0.8C77.3,64,76.9,64.3,76.7,64.3L76.7,64.3z"/>
</g>
</svg>
