<?xml version="1.0" encoding="utf-8"?>
<!-- Generator: Adobe Illustrator 25.3.1, SVG Export Plug-In . SVG Version: 6.00 Build 0)  -->
<svg height="512" width="512"  xmlns="http://www.w3.org/2000/svg" xmlns:xlink="http://www.w3.org/1999/xlink" x="0px" y="0px"
	 viewBox="0 0 130 130" style="enable-background:new 0 0 130 130;fill:#1254B5;" xml:space="preserve">

<g>
	<path  d="M116.2,71.4l0.1,1.5l10.5-0.8c0.4,0,0.8-0.2,1.1-0.5c0.3-0.3,0.4-0.7,0.4-1.1l-1.5-20.3
		c-0.1-0.8-0.8-1.5-1.6-1.4l-10.4,0.8l0.1,1.5l1.5-0.4c-1.6-5.9-4.2-11.3-7.6-16.2l-1.3,0.9l1.1,1.1l7.2-7.5
		c0.6-0.6,0.6-1.6-0.1-2.2l-14.8-14.1c-0.3-0.3-0.7-0.4-1.1-0.4c-0.4,0-0.8,0.2-1.1,0.5l-7.1,7.4l1.1,1.1l0.8-1.3
		c-5.4-3.5-11.5-6-18.1-7.3l-0.3,1.5h1.5V3.8c0-0.4-0.2-0.8-0.4-1.1c-0.3-0.3-0.7-0.4-1.1-0.4H54.8c-0.4,0-0.8,0.2-1.1,0.4
		c-0.3,0.3-0.4,0.7-0.4,1.1v10.2h1.5l-0.3-1.5c-8.2,1.6-15.8,5.2-22.2,10.2l0.9,1.2l1-1.2l-7.8-6.7c-0.3-0.3-0.7-0.4-1.1-0.4
		c-0.4,0-0.8,0.2-1.1,0.5L11,31.6c-0.3,0.3-0.4,0.7-0.4,1.1c0,0.4,0.2,0.8,0.5,1.1l7.8,6.8l1-1.2l-1.3-0.8c-3.4,6-5.6,12.7-6.4,19.8
		l1.5,0.2l-0.1-1.5L3.1,57.9c-0.8,0.1-1.5,0.8-1.4,1.6l1.5,20.3c0,0.4,0.2,0.8,0.5,1.1c0.3,0.3,0.7,0.4,1.1,0.4l10.6-0.8L15.4,79
		l-1.5,0.4c1.7,5.8,4.3,11.2,7.7,16l1.3-0.9l-1.1-1.1l-7.4,7.7c-0.3,0.3-0.4,0.7-0.4,1.1s0.2,0.8,0.5,1.1l14.8,14.1
		c0.6,0.6,1.6,0.6,2.2-0.1l7.4-7.8l-1.1-1.1l-0.8,1.3c5.3,3.3,11.3,5.8,17.7,7.1l0.3-1.5h-1.5v10.8c0,0.4,0.2,0.8,0.4,1.1
		c0.3,0.3,0.7,0.4,1.1,0.4h20.4c0.4,0,0.8-0.2,1.1-0.4s0.4-0.7,0.4-1.1v-10.8h-1.6l0.3,1.5c8.1-1.6,15.5-5.1,21.8-9.9l-0.9-1.2
		l-1,1.2l8.1,7c0.6,0.6,1.6,0.5,2.2-0.2l13.4-15.4c0.3-0.3,0.4-0.7,0.4-1.1c0-0.4-0.2-0.8-0.5-1.1l-8.1-7l-1,1.2l1.3,0.8
		c3.4-5.9,5.7-12.5,6.6-19.6L116.2,71.4l0.1,1.5L116.2,71.4l-1.5-0.2c-0.9,6.6-3,12.9-6.2,18.4c-0.4,0.6-0.2,1.4,0.3,1.9l6.9,6
		l-11.4,13.1l-7-6c-0.6-0.5-1.4-0.5-1.9-0.1c-6,4.6-12.9,7.8-20.6,9.3c-0.7,0.1-1.2,0.8-1.2,1.5v9.3H56.4v-9.3
		c0-0.7-0.5-1.4-1.2-1.5c-6-1.2-11.7-3.5-16.7-6.7c-0.6-0.4-1.4-0.3-1.9,0.2l-6.4,6.7l-12.5-11.9l6.3-6.6c0.5-0.5,0.6-1.4,0.1-1.9
		c-3.2-4.5-5.7-9.6-7.2-15c-0.2-0.7-0.9-1.2-1.6-1.1l-9,0.7L4.9,60.9l8.9-0.7c0.7-0.1,1.3-0.6,1.4-1.4c0.8-6.7,2.9-13,6.1-18.6
		c0.4-0.6,0.2-1.4-0.3-1.9l-6.7-5.8l11.3-13.1l6.6,5.7c0.6,0.5,1.4,0.5,1.9,0.1c6-4.7,13.1-8,20.9-9.6c0.7-0.1,1.2-0.8,1.2-1.5V5.4
		h17.3v8.7c0,0.7,0.5,1.4,1.2,1.5c6.2,1.2,11.9,3.6,17,6.9c0.6,0.4,1.4,0.3,1.9-0.2l6-6.3l12.5,11.9l-6.1,6.4
		c-0.5,0.5-0.6,1.3-0.1,1.9c3.2,4.6,5.6,9.7,7.1,15.3c0.2,0.7,0.9,1.2,1.6,1.1l8.9-0.7l1.3,17.3l-9,0.7c-0.7,0.1-1.3,0.6-1.4,1.3
		L116.2,71.4z"/>
	<path  d="M116.2,71.4l-0.9,0.1l0.1,1.5l0.1,0.9l11.4-0.9l0,0c0.6-0.1,1.2-0.4,1.6-0.8c0.4-0.5,0.6-1.1,0.6-1.6l0-0.1
		l0,0l-1.5-20.4l0,0c-0.1-1.3-1.1-2.2-2.4-2.2l-0.2,0l0.1,0.9l-0.1-0.9l-11.3,0.9l0.2,3.5l3.4-0.9l-0.2-0.9
		c-1.6-6-4.3-11.5-7.7-16.5l-0.5-0.7l-2.9,2l2.6,2.4l7.8-8.1l0,0c0.5-0.5,0.7-1.1,0.7-1.7c0-0.6-0.3-1.3-0.8-1.8l0,0L101.5,12
		l-0.6,0.6l0.6-0.6c-0.5-0.5-1.1-0.7-1.7-0.7h0l0,0c-0.6,0-1.2,0.3-1.7,0.8l0.7,0.6L98.1,12l-7.7,8.1l2.5,2.4l1.9-3l-0.7-0.5
		c-5.5-3.5-11.7-6.1-18.4-7.4l-0.9-0.2L74.1,15h3.5V3.8c0-0.6-0.3-1.3-0.7-1.7c-0.5-0.5-1.1-0.7-1.7-0.7H54.8
		c-0.6,0-1.3,0.3-1.7,0.7c-0.5,0.5-0.7,1.1-0.7,1.7V15h3.5l-0.7-3.4l-0.9,0.2C45.9,13.4,38.3,17,31.8,22l-0.7,0.5l2.2,2.8l2.3-2.7
		l-8.5-7.3l0,0c-0.5-0.4-1.1-0.6-1.6-0.6l-0.1,0l0,0l0,0c-0.6,0.1-1.2,0.3-1.6,0.8l0,0L10.3,31l0,0c-0.4,0.5-0.6,1.1-0.6,1.6l0,0.1
		l0,0l0,0c0.1,0.6,0.3,1.2,0.8,1.6l0,0l8.5,7.4l2.3-2.7l-3.1-1.7l-0.4,0.8c-3.4,6.1-5.7,12.9-6.5,20.1l-0.1,0.9l3.5,0.4l-0.2-3.5
		L3.1,57l0,0c-1.3,0.1-2.2,1.1-2.2,2.4l0,0.2l0,0L2.4,80l0,0c0.1,0.6,0.4,1.2,0.8,1.6c0.5,0.4,1.1,0.6,1.6,0.6l0.1,0l0,0l11.5-0.9
		l-0.2-3.5l-3.4,1l0.2,0.9c1.7,5.9,4.3,11.3,7.8,16.2l0.5,0.7l2.9-2l-2.5-2.4l-8,8.4l0.6,0.6l-0.6-0.6c-0.5,0.5-0.7,1.1-0.7,1.7
		c0,0.7,0.3,1.3,0.8,1.7l0.6-0.7l-0.6,0.6L28.5,118l0,0c0.5,0.5,1.1,0.7,1.7,0.7c0.6,0,1.3-0.3,1.8-0.8l0,0l8.1-8.4l-2.5-2.4l-1.9,3
		l0.8,0.5c5.4,3.4,11.5,5.9,18,7.2l0.9,0.2l0.7-3.4h-3.5v11.7c0,0.6,0.3,1.3,0.7,1.7c0.5,0.5,1.1,0.7,1.7,0.7h20.4
		c0.6,0,1.3-0.3,1.7-0.7c0.5-0.5,0.7-1.1,0.7-1.7v-11.7h-3.5l0.7,3.4l0.9-0.2c8.2-1.7,15.8-5.2,22.2-10.1l0.7-0.5l-2.1-2.8l-2.3,2.7
		l8.8,7.6l0,0c0.5,0.4,1,0.6,1.6,0.6c0.7,0,1.4-0.3,1.8-0.8l0,0L119.7,99l0,0c0.4-0.5,0.6-1.1,0.6-1.6l0-0.1l0,0l0,0
		c-0.1-0.6-0.3-1.2-0.8-1.6l0,0l-8.7-7.6l-2.3,2.7l3.1,1.8l0.4-0.8c3.5-6,5.8-12.8,6.7-19.9l0.1-0.9l-3.5-0.4l0.2,2.6l1.8-0.1
		l-0.1-1.5l-0.1-0.7l-3.1-0.4l-0.1,0.9c-0.8,6.5-3,12.6-6.1,18.1l0,0l0,0c-0.2,0.4-0.3,0.8-0.3,1.2c0,0.7,0.3,1.4,0.8,1.8l0,0
		l6.2,5.4l-10.2,11.7l-6.3-5.5l0,0c-0.4-0.4-1-0.6-1.6-0.6c-0.5,0-1.1,0.2-1.5,0.5l0,0l0,0c-5.9,4.5-12.7,7.7-20.2,9.2
		c-1.1,0.2-2,1.2-2,2.4v8.4H57.2v-8.4c0-1.2-0.8-2.2-2-2.4l0,0c-5.9-1.2-11.5-3.4-16.4-6.5l0,0c-0.4-0.3-0.9-0.4-1.3-0.4
		c-0.6,0-1.3,0.3-1.8,0.7l0,0l-5.8,6l-11.2-10.7l5.7-6l0,0c0.4-0.5,0.7-1.1,0.7-1.7c0-0.5-0.1-1-0.5-1.4l-0.7,0.5l0.7-0.5
		c-3.1-4.4-5.6-9.4-7.1-14.8l0,0c-0.3-1.1-1.3-1.8-2.3-1.8l-0.2,0l-8.1,0.6L5.9,61.7l8-0.6l0,0c1.2-0.1,2.1-1,2.2-2.1l0,0l0,0
		c0.8-6.6,2.8-12.8,6-18.3l0,0l0,0c0.2-0.4,0.3-0.8,0.3-1.2c0-0.7-0.3-1.4-0.9-1.8L21,38.3l0.6-0.7l-6-5.2l10.2-11.7l5.9,5.2l0,0
		c0.5,0.4,1,0.6,1.6,0.6c0.5,0,1.1-0.2,1.5-0.5l0,0c5.9-4.6,12.9-7.9,20.5-9.4c1.1-0.2,2-1.2,2-2.4V6.3h15.5v7.8
		c0,1.2,0.8,2.2,2,2.4l0,0c6,1.2,11.7,3.5,16.7,6.7l0,0l0,0c0.4,0.3,0.9,0.4,1.3,0.4c0.6,0,1.3-0.3,1.8-0.7l0,0l5.4-5.7l11.2,10.7
		l-5.5,5.7l0,0c-0.4,0.5-0.7,1.1-0.7,1.7c0,0.5,0.1,1,0.4,1.4l0,0c3.1,4.5,5.5,9.6,7,15c0.3,1.1,1.3,1.8,2.4,1.8l0.2,0l0,0l8-0.6
		l1.2,15.5L116,69l0,0c-1.2,0.1-2.1,1-2.2,2.1l-0.1,0.9l2.4,0.3L116.2,71.4l-0.9,0.1L116.2,71.4l0.1-0.9l-1.5-0.2l-0.1,0.9l0.9,0.1
		c0-0.3,0.3-0.5,0.6-0.6l9.9-0.7l-1.4-19l-9.8,0.7l0,0l-0.1,0c-0.3,0-0.5-0.2-0.6-0.5c-1.5-5.6-4-10.9-7.3-15.5l0,0l0,0l-0.1-0.4
		l0.2-0.5l-0.7-0.6l0.6,0.6l6.7-7L99.9,14.7l-6.6,7l0,0c-0.1,0.1-0.3,0.2-0.5,0.2l-0.4-0.1l0,0c-5.2-3.3-11.1-5.7-17.3-7l0,0
		c-0.3-0.1-0.5-0.3-0.5-0.6V4.5H55.5v9.6c0,0.3-0.2,0.6-0.5,0.6c-7.9,1.6-15.1,5-21.3,9.8l0,0l0,0l-0.4,0.1l-0.4-0.2l-7.3-6.3
		L13.1,32.6l7.4,6.4l0,0c0.1,0.1,0.2,0.3,0.2,0.5l-0.1,0.3l0,0c-3.2,5.7-5.4,12.1-6.2,19l0,0c0,0.3-0.3,0.6-0.6,0.6L4,60l1.4,19
		l9.9-0.7l0,0l0,0c0.3,0,0.6,0.2,0.6,0.5l0,0c1.6,5.5,4.1,10.7,7.3,15.3l0,0l0,0l0.1,0.3c0,0.2-0.1,0.3-0.2,0.5l0.7,0.6l-0.6-0.6
		l-7,7.3l13.8,13.2l7-7.3l0,0c0.1-0.1,0.3-0.2,0.5-0.2L38,108l0,0c5.1,3.2,10.9,5.5,17,6.8l0,0c0.3,0.1,0.5,0.3,0.5,0.6v10.2h19.1
		v-10.2c0-0.3,0.2-0.6,0.5-0.6c7.8-1.5,14.9-4.9,20.9-9.5l0,0l0.4-0.1l0.4,0.2l7.6,6.6L117,97.5l-7.6-6.6l0,0
		c-0.1-0.1-0.2-0.3-0.2-0.5l0.1-0.3l-0.8-0.4l0.8,0.4c3.3-5.7,5.4-12,6.3-18.8l-0.9-0.1l-0.1,0.9l0.8,0.1l0.1,0.8l1.8-0.1l0-0.5
		l0.5,0.1l0.1-0.9l-0.9-0.1c-0.9,6.9-3.1,13.5-6.5,19.3l0.8,0.4l0.4-0.8l-0.4-0.2l0.3-0.3l-0.7-0.6l-0.6,0.7l8.1,7l0,0
		c0.1,0.1,0.2,0.3,0.2,0.5l0.9-0.1l-0.9,0l0,0c0,0.2-0.1,0.4-0.2,0.5l0,0L105,113.2l0.7,0.6l-0.7-0.6c-0.1,0.2-0.3,0.2-0.5,0.2
		l-0.4-0.2l-7.4-6.5l0.4-0.5l-0.7-0.6l-0.7,0.5l0.9,1.2l0.7-0.5l-0.5-0.7c-6.2,4.7-13.5,8.1-21.5,9.7l0.2,0.9l0.9-0.2l-0.1-0.4h0.5
		v-0.9h-0.9v10.8c0,0.2-0.1,0.3-0.2,0.5c-0.1,0.1-0.3,0.2-0.5,0.2H54.8c-0.2,0-0.3-0.1-0.5-0.2c-0.1-0.1-0.2-0.3-0.2-0.5v-9.9l0.6,0
		v-0.9l-0.9-0.2l-0.3,1.5l0.9,0.2l0.2-0.9c-6.3-1.3-12.2-3.7-17.4-6.9l-0.5,0.8l0.8,0.5l0.2-0.4l0.3,0.3l0.6-0.6l-0.6-0.6l-7.4,7.8
		l0,0c-0.1,0.1-0.3,0.2-0.5,0.2c-0.2,0-0.3-0.1-0.5-0.2l0,0L15,102.7l0,0l-0.2-0.4c0-0.2,0.1-0.4,0.2-0.5l0,0l6.8-7.1l0.5,0.4
		l0.6-0.6l-0.5-0.7L21,94.6l0.5,0.7l0.7-0.5c-3.3-4.7-5.9-10-7.5-15.7l-0.9,0.2l0.2,0.9l0.4-0.1l0,0.4l0.9-0.1l-0.1-0.9L4.8,80.4
		l0.1,0.9l0-0.9l0,0c-0.2,0-0.4-0.1-0.5-0.2c-0.1-0.1-0.2-0.3-0.2-0.5l-0.9,0.1l0.9-0.1L2.6,59.5l0,0l0-0.1c0-0.3,0.3-0.6,0.6-0.6
		l0,0l9.6-0.7l0,0.6l0.9-0.1l0.1-0.9l-1.5-0.2l-0.1,0.9l0.9,0.1c0.8-7,3-13.6,6.3-19.5l-0.8-0.4l-0.4,0.8l0.4,0.2L18.3,40l0.7,0.6
		l0.6-0.7l-7.8-6.8l0,0c-0.1-0.1-0.2-0.3-0.2-0.5l-0.9,0.1l0.9,0l0,0c0-0.2,0.1-0.4,0.2-0.5l0,0L25,16.8l0,0
		c0.1-0.1,0.3-0.2,0.5-0.2l-0.1-0.9l0,0.9l0,0c0.2,0,0.4,0.1,0.5,0.2l0,0l7.1,6.2l-0.4,0.5l0.7,0.6l0.7-0.5L33,22.2l-0.7,0.5
		l0.5,0.7c6.3-4.9,13.7-8.4,21.8-10l-0.2-0.9l-0.9,0.2l0.1,0.4h-0.4v0.9h0.9V3.8c0-0.2,0.1-0.3,0.2-0.5c0.1-0.1,0.3-0.2,0.5-0.2
		h20.4c0.2,0,0.3,0.1,0.5,0.2c0.1,0.1,0.2,0.3,0.2,0.5v9.3h-0.6v0.9l0.9,0.2l0.3-1.5l-0.9-0.2l-0.2,0.9c6.4,1.3,12.4,3.8,17.8,7.2
		l0.5-0.8l-0.8-0.5l-0.2,0.4l-0.3-0.3l-0.6,0.6l0.6,0.6l7.1-7.5l0,0c0.1-0.1,0.2-0.2,0.4-0.2l0-0.9v0.9c0.2,0,0.4,0.1,0.5,0.2l0,0
		L115,27.3l0,0c0.1,0.1,0.2,0.3,0.2,0.5c0,0.2-0.1,0.3-0.2,0.5l0,0l-6.5,6.9l-0.5-0.4l-0.6,0.6l0.5,0.7l1.3-0.9l-0.5-0.7l-0.7,0.5
		c3.3,4.8,5.9,10.2,7.5,15.9l0.9-0.2l-0.2-0.9l-0.4,0.1l0-0.4l-0.9,0.1l0.1,0.9l10.4-0.8l0,0l0.1,0c0.3,0,0.6,0.3,0.6,0.6l0,0
		l1.5,20.3l0.9-0.1l-0.9,0l0,0c0,0.2-0.1,0.4-0.2,0.5c-0.1,0.1-0.3,0.2-0.5,0.2l0.1,0.9l-0.1-0.9l-9.6,0.7l0-0.6l-0.1-0.7l-0.7-0.1
		L116.2,71.4z"/>
	<path  d="M97.5,65h-1.5c0,8.5-3.5,16.3-9.1,21.9c-5.6,5.6-13.3,9.1-21.9,9.1c-8.5,0-16.3-3.5-21.9-9.1
		S34.1,73.5,34.1,65c0-8.5,3.5-16.3,9.1-21.9s13.3-9.1,21.9-9.1c8.5,0,16.3,3.5,21.9,9.1s9.1,13.3,9.1,21.9H97.5H99
		c0-9.4-3.8-17.9-10-24S74.4,31,65,31s-17.9,3.8-24,10c-6.2,6.2-10,14.6-10,24s3.8,17.9,10,24c6.2,6.2,14.6,10,24,10s17.9-3.8,24-10
		c6.2-6.2,10-14.6,10-24H97.5z"/>
	<path  d="M65,24.1c10.9,0,21.1,4.4,28.6,11.7s12.3,17.5,12.3,29.2c0,0.9,0.7,1.5,1.5,1.5c0.9,0,1.5-0.7,1.5-1.5
		c0-12.6-5.2-23.6-13.2-31.5C87.7,25.7,76.7,21,65,21c-0.9,0-1.5,0.7-1.5,1.5C63.5,23.4,64.2,24.1,65,24.1z"/>
	<path  d="M66.3,61.2l-6.8-6.8l-0.4-0.4C58.9,54,58.7,54,58.5,54c-0.2,0.1-0.3,0.2-0.4,0.4l0.6,0.3l-0.4,0.5l0.3,0.2
		l6.8,6.8"/>
	<path  d="M66.8,63.6l8.4,8.4l0.4-0.4l-0.3-0.6c-0.9,0.4-1.8,0.9-2.5,1.7c-0.8,0.8-1.3,1.6-1.7,2.5l0.6,0.3l0.4-0.4
		L55.6,58.4l-0.2-0.3l-0.5,0.4l0.3,0.6c0.9-0.4,1.8-0.9,2.5-1.7c0.7-0.7,1.3-1.6,1.7-2.5l-0.6-0.3l-0.4,0.5l0.4-0.5l-0.6-0.3
		c-0.3,0.8-0.8,1.5-1.4,2.1c-0.6,0.6-1.3,1.1-2.1,1.4c-0.2,0.1-0.3,0.2-0.4,0.4c-0.1,0.2,0,0.4,0.1,0.5l0.4,0.4l16.6,16.6
		c0.1,0.1,0.4,0.2,0.6,0.2c0.2,0,0.4-0.2,0.5-0.4c0.3-0.8,0.8-1.5,1.4-2.1c0.6-0.6,1.3-1.1,2.1-1.4c0.2-0.1,0.3-0.3,0.4-0.5
		c0-0.2,0-0.4-0.2-0.6l-8.2-8.2"/>
	<path  d="M49.3,45l-0.4,0.4l4.3,4.3L50,52.9l-4.3-4.3c-0.2-0.2-0.4-0.2-0.6-0.2c-0.2,0-0.4,0.2-0.5,0.4
		c-0.4,0.9-0.6,1.9-0.6,2.9c0,2,0.8,4.1,2.3,5.6s3.6,2.3,5.6,2.3c2,0,4.1-0.8,5.6-2.3c1.6-1.6,2.3-3.6,2.3-5.6c0-2-0.8-4.1-2.3-5.6
		c-1.5-1.6-3.6-2.3-5.6-2.3c-1,0-2,0.2-2.9,0.6c-0.2,0.1-0.3,0.3-0.4,0.5c0,0.2,0,0.4,0.2,0.6L49.3,45l0.2,0.6
		c0.8-0.3,1.6-0.5,2.5-0.5c1.7,0,3.4,0.6,4.7,1.9c1.3,1.3,1.9,3,1.9,4.7s-0.6,3.4-1.9,4.7c-1.3,1.3-3,1.9-4.7,1.9
		c-1.7,0-3.4-0.6-4.7-1.9c-1.3-1.3-1.9-3-1.9-4.7c0-0.8,0.2-1.7,0.5-2.5l-0.6-0.2l-0.4,0.4l4.7,4.7c0.3,0.3,0.7,0.3,0.9,0l4.1-4.1
		l0.2-0.4c0-0.2-0.1-0.3-0.2-0.4l-4.7-4.7L49.3,45l0.2,0.6L49.3,45z"/>
	<path  d="M54.7,48.5c0.9,0.9,1.3,2.1,1.3,3.2c0,1.2-0.5,2.5-1.4,3.4c-0.3,0.3-0.3,0.6,0,0.9c0.3,0.3,0.6,0.3,0.9,0
		c1.2-1.2,1.9-2.8,1.9-4.3c0-1.5-0.6-3-1.6-4.1c-0.3-0.3-0.6-0.3-0.9,0C54.5,47.8,54.5,48.2,54.7,48.5z"/>
	<path  d="M81.1,85l0.4-0.4l-4.3-4.3l3.2-3.2l4.3,4.3c0.2,0.2,0.4,0.2,0.6,0.2c0.2,0,0.4-0.2,0.5-0.4
		c0.4-0.9,0.6-1.9,0.6-2.9c0-2-0.8-4.1-2.3-5.6c-1.6-1.6-3.6-2.3-5.6-2.3c-2,0-4.1,0.8-5.6,2.3s-2.3,3.6-2.3,5.6
		c0,2,0.8,4.1,2.3,5.6c1.5,1.6,3.6,2.3,5.6,2.3c1,0,2-0.2,2.9-0.6c0.2-0.1,0.3-0.3,0.4-0.5c0-0.2,0-0.4-0.2-0.6L81.1,85l-0.2-0.6
		c-0.8,0.3-1.6,0.5-2.5,0.5c-1.7,0-3.4-0.6-4.7-1.9c-1.3-1.3-1.9-3-1.9-4.7s0.6-3.4,1.9-4.7c1.3-1.3,3-1.9,4.7-1.9s3.4,0.6,4.7,1.9
		c1.3,1.3,1.9,3,1.9,4.7c0,0.8-0.2,1.7-0.5,2.5l0.6,0.2l0.4-0.4l-4.7-4.7l-0.4-0.2l-0.4,0.2l-4.1,4.1l-0.2,0.4l0.2,0.4l4.7,4.7
		L81.1,85l-0.2-0.6L81.1,85z"/>
	<path  d="M75.5,81.4c-0.9-0.9-1.3-2.1-1.3-3.2c0-1.2,0.5-2.5,1.4-3.4c0.3-0.3,0.3-0.6,0-0.9c-0.3-0.3-0.6-0.3-0.9,0
		c-1.2,1.2-1.9,2.8-1.9,4.3c0,1.5,0.6,3,1.6,4.1c0.3,0.3,0.6,0.3,0.9,0C75.7,82.1,75.7,81.7,75.5,81.4z"/>
	<path  d="M62.6,66.4l-0.4,0.4l3,3L64,71.1l-0.7-0.7c-0.1-0.1-0.3-0.2-0.4-0.2c-0.2,0-0.3,0.1-0.4,0.2L49.1,83.7l0.3,0.3
		l-0.3-0.3l0.3,0.3l-0.3-0.3l0,0l0,0l0,0l0,0c0,0-0.1,0.1-0.4,0.3c-0.2,0.1-0.5,0.2-0.9,0.2c-0.3,0-0.5-0.1-0.8-0.2
		c-0.3-0.1-0.7-0.4-1.1-0.8c-0.4-0.4-0.6-0.8-0.8-1.1C45,81.8,45,81.5,45,81.2c0-0.4,0.1-0.7,0.3-0.9l0.2-0.3l0.1-0.1l0,0l0,0l0,0
		l0,0l0,0l-0.3-0.3l0.3,0.3l-0.3-0.3l0.3,0.3l13.3-13.3l0.2-0.4l-0.2-0.4L58,65.1l1.2-1.2l3,3L62.6,66.4l0.4-0.4l-3.5-3.5
		c-0.1-0.1-0.3-0.2-0.4-0.2c-0.2,0-0.3,0.1-0.4,0.2l-2.1,2.1c-0.3,0.3-0.3,0.7,0,0.9l0.7,0.7L44.5,79.1c0,0-0.2,0.2-0.4,0.6
		c-0.2,0.4-0.4,0.9-0.4,1.6c0,0.4,0.1,0.9,0.3,1.4c0.2,0.5,0.6,1,1.1,1.5c0.5,0.5,1,0.8,1.5,1.1c0.5,0.2,0.9,0.3,1.4,0.3
		c0.7,0,1.2-0.2,1.6-0.4c0.4-0.2,0.6-0.4,0.6-0.4l12.8-12.8l0.7,0.7c0.3,0.3,0.7,0.3,0.9,0l2.1-2.1l0.2-0.4l-0.2-0.4L63.1,66
		L62.6,66.4z"/>
	<path  d="M83.7,48.2l0.4-0.4l-1.5-1.5l-1.5-1.5c-0.2-0.2-0.6-0.3-0.9,0c0,0-0.7,0.6-1.4,1.5c-0.4,0.4-0.7,0.9-1,1.5
		c-0.1,0.3-0.3,0.6-0.4,0.9c-0.1,0.3-0.1,0.6-0.1,0.9v0.1l0.6,0l-0.5-0.4L61.4,65.3l-0.2,0.4l0.2,0.4l1.4,1.4c0.3,0.3,0.7,0.3,0.9,0
		l16.1-16.1L79.4,51l0,0.6h0.1c0.3,0,0.6-0.1,0.9-0.1c0.5-0.2,1-0.4,1.5-0.7c0.7-0.4,1.3-1,1.7-1.4c0.4-0.4,0.7-0.7,0.7-0.7
		c0.2-0.3,0.2-0.6,0-0.9L83.7,48.2l-0.5-0.4l0.2,0.1l-0.2-0.1l0.2,0.1l-0.2-0.1c0,0-0.6,0.7-1.4,1.3c-0.4,0.3-0.8,0.6-1.3,0.9
		c-0.2,0.1-0.4,0.2-0.6,0.3c-0.2,0.1-0.4,0.1-0.6,0.1h0c-0.2,0-0.3,0.1-0.5,0.2L63.3,66.2l-0.5-0.5L78.4,50c0.1-0.1,0.2-0.3,0.2-0.5
		v0c0-0.2,0-0.4,0.1-0.6c0.1-0.4,0.3-0.8,0.6-1.1c0.4-0.6,0.9-1.1,1.2-1.5c0.2-0.2,0.4-0.4,0.5-0.5l0.1-0.1l0,0L81,45.6l0.1,0.1
		L81,45.6l0.1,0.1l-0.4-0.5l-0.4,0.4l1.5,1.5l1.5,1.5L83.7,48.2l-0.5-0.4L83.7,48.2z"/>
	<path  d="M60.4,69.3L48.3,81.3c-0.3,0.3-0.3,0.7,0,0.9c0.3,0.3,0.7,0.3,0.9,0l12.1-12.1c0.3-0.3,0.3-0.7,0-0.9
		C61,69,60.6,69,60.4,69.3"/>
	<path  d="M58.9,67.8L46.8,79.9c-0.3,0.3-0.3,0.7,0,0.9c0.3,0.3,0.7,0.3,0.9,0l12.1-12.1c0.3-0.3,0.3-0.7,0-0.9
		C59.5,67.5,59.1,67.5,58.9,67.8"/>
</g>
</svg>
