<?xml version="1.0" encoding="utf-8"?>
<!-- Generator: Adobe Illustrator 25.3.1, SVG Export Plug-In . SVG Version: 6.00 Build 0)  -->
<svg height="512" width="512"  xmlns="http://www.w3.org/2000/svg" xmlns:xlink="http://www.w3.org/1999/xlink" x="0px" y="0px"
	 viewBox="0 0 130 130" style="enable-background:new 0 0 130 130; fill:#1254B5;" xml:space="preserve">

<g>
	<path  d="M26.8,116.2v1.2h17.9h40.5h17.9l0.1,0.1v2.8l0,0.1l-0.1,0.1H26.8l-0.1-0.1v-2.8l0.1-0.1V116.2v-1.2
		c-0.7,0-1.3,0.3-1.8,0.8c-0.5,0.5-0.8,1.1-0.8,1.8v2.8c0,1.4,1.1,2.6,2.6,2.6h76.3c1.4,0,2.6-1.1,2.6-2.6v-2.8
		c0-0.7-0.3-1.4-0.8-1.8c-0.5-0.5-1.1-0.8-1.8-0.7H85.3H44.7H26.8V116.2z"/>
	<path  d="M79.3,102.6l-1.1,0.5l5.2,11.8H46.6l4.9-11.1h27.8V102.6l-1.1,0.5L79.3,102.6v-1.2H50.7
		c-0.5,0-0.9,0.3-1.1,0.7l-6,13.5c-0.2,0.4-0.1,0.8,0.1,1.2c0.2,0.3,0.6,0.6,1,0.6h40.5c0.4,0,0.8-0.2,1-0.5
		c0.2-0.3,0.3-0.8,0.1-1.2l-5.9-13.5c-0.2-0.5-0.6-0.7-1.1-0.7L79.3,102.6L79.3,102.6z"/>
	<path  d="M65,98v1.2c2.1,0,3.9-1.7,3.9-3.9c0-2.1-1.7-3.9-3.9-3.9c-2.1,0-3.9,1.7-3.9,3.9c0,2.1,1.7,3.8,3.9,3.9V98
		v-1.2c-0.8,0-1.4-0.6-1.4-1.4c0-0.8,0.6-1.4,1.4-1.4s1.4,0.6,1.4,1.4c0,0.8-0.6,1.4-1.4,1.4V98z M9.2,102.6v-1.2
		c-1.6,0-3-0.6-4.1-1.7c-1.1-1.1-1.7-2.5-1.7-4.1V82.2c0-0.3-0.1-0.6-0.4-0.9C2.8,81.1,2.5,81,2.2,81c-0.3,0-0.6,0.1-0.9,0.4
		C1.1,81.6,1,81.9,1,82.2c0,3.9,3.2,7.1,7.1,7.1h113.8c3.9,0,7.1-3.2,7.1-7.1c0-0.3-0.1-0.6-0.4-0.9c-0.2-0.2-0.5-0.4-0.9-0.4
		c-0.3,0-0.6,0.1-0.9,0.4c-0.2,0.2-0.4,0.5-0.4,0.9v13.4c0,1.6-0.6,3-1.7,4.1c-1.1,1.1-2.5,1.7-4.1,1.7H79.3H50.7H38.6H9.2V102.6
		v1.2h29.4h12.1h28.6h41.5c4.5,0,8.2-3.7,8.2-8.2V82.2c0-0.3-0.1-0.6-0.4-0.9s-0.5-0.4-0.9-0.4c-0.3,0-0.6,0.1-0.9,0.4
		c-0.2,0.2-0.4,0.5-0.4,0.9c0,1.3-0.5,2.4-1.4,3.3c-0.9,0.8-2,1.4-3.3,1.4H8.1c-1.3,0-2.4-0.5-3.3-1.4c-0.8-0.8-1.4-2-1.4-3.3
		c0-0.3-0.1-0.6-0.4-0.9C2.8,81.1,2.5,81,2.2,81c-0.3,0-0.6,0.1-0.9,0.4C1.1,81.6,1,81.9,1,82.2v13.4c0,4.5,3.7,8.2,8.2,8.2
		C9.2,103.9,9.2,102.6,9.2,102.6z"/>
	<path  d="M50.7,101.4H38.6H9.2c-1.6,0-3-0.6-4.1-1.7c-1.1-1.1-1.7-2.5-1.7-4.1V82.2c0-0.7-0.5-1.2-1.2-1.2
		C1.5,81,1,81.5,1,82.2v13.4c0,4.5,3.7,8.2,8.2,8.2h29.4h12.1c0.7,0,1.2-0.5,1.2-1.2C51.9,102,51.4,101.4,50.7,101.4L50.7,101.4z"/>
	<path  d="M126.6,82.2v13.4c0,1.6-0.6,3-1.7,4.1c-1.1,1.1-2.5,1.7-4.1,1.7H79.3c-0.7,0-1.2,0.5-1.2,1.2s0.5,1.2,1.2,1.2
		h41.5c4.5,0,8.2-3.7,8.2-8.2V82.2c0-0.7-0.5-1.2-1.2-1.2C127.1,81,126.6,81.5,126.6,82.2L126.6,82.2z"/>
	<path  d="M120.8,9.5c1.6,0,3,0.6,4.1,1.7c1.1,1.1,1.7,2.5,1.7,4.1c0,0.7,0.5,1.2,1.2,1.2s1.2-0.5,1.2-1.2
		c0-4.5-3.7-8.2-8.2-8.2c-0.7,0-1.2,0.5-1.2,1.2C119.6,9,120.2,9.5,120.8,9.5L120.8,9.5z"/>
	<path  d="M45.3,9.5h8.8h19.1h11.2c0.7,0,1.2-0.5,1.2-1.2s-0.5-1.2-1.2-1.2H73.2H54.1h-8.8c-0.7,0-1.2,0.5-1.2,1.2
		S44.6,9.5,45.3,9.5L45.3,9.5z"/>
	<path  d="M3.4,15.3c0-1.6,0.6-3,1.7-4.1s2.5-1.7,4.1-1.7c0.7,0,1.2-0.5,1.2-1.2S9.8,7.1,9.2,7.1C4.7,7.1,1,10.8,1,15.3
		c0,0.7,0.5,1.2,1.2,1.2S3.4,16,3.4,15.3L3.4,15.3z"/>
	<path  d="M45.9,116.7l5.6-12.8h27l5.6,12.8c0.3,0.6,1,0.9,1.6,0.6c0.6-0.3,0.9-1,0.6-1.6l-5.9-13.5
		c-0.2-0.5-0.6-0.7-1.1-0.7H50.7c-0.5,0-0.9,0.3-1.1,0.7l-6,13.5c-0.3,0.6,0,1.3,0.6,1.6C44.9,117.6,45.6,117.3,45.9,116.7
		L45.9,116.7z"/>
	<path  d="M85.2,116.2v1.2h17.9l0.1,0.1v2.8l0,0.1l-0.1,0.1H26.8l-0.1-0.1v-2.8l0.1-0.1h17.9h40.5L85.2,116.2l0-1.2H44.7
		H26.8c-0.7,0-1.3,0.3-1.8,0.8c-0.5,0.5-0.8,1.1-0.8,1.8v2.8c0,1.4,1.1,2.6,2.6,2.6h76.3c1.4,0,2.6-1.1,2.6-2.6v-2.8
		c0-0.7-0.3-1.4-0.8-1.8c-0.5-0.5-1.1-0.8-1.8-0.7H85.3L85.2,116.2L85.2,116.2z"/>
	<path  d="M120.6,81v-1.2H10.3V49.5V25.3v-8.7h43.8h19.1h46.2v23.2V81L120.6,81v-1.2V81h1.2V39.8V15.4
		c0-0.3-0.1-0.6-0.4-0.9c-0.2-0.2-0.5-0.4-0.9-0.4H73.2H54.1H9.1c-0.3,0-0.6,0.1-0.9,0.4c-0.2,0.2-0.4,0.5-0.4,0.9v9.9v24.2V81
		c0,0.3,0.1,0.6,0.4,0.9c0.2,0.2,0.5,0.4,0.9,0.4h111.6c0.3,0,0.6-0.1,0.9-0.4c0.2-0.2,0.4-0.5,0.4-0.9C121.9,81,120.6,81,120.6,81z
		"/>
	<path  d="M65,92.8V94c0.8,0,1.4,0.6,1.4,1.4c0,0.8-0.6,1.4-1.4,1.4c-0.8,0-1.4-0.6-1.4-1.4c0-0.8,0.6-1.4,1.4-1.4V92.8
		v-1.2c-2.1,0-3.9,1.7-3.9,3.9c0,2.1,1.7,3.8,3.9,3.9c2.1,0,3.9-1.7,3.9-3.9c0-2.1-1.7-3.9-3.9-3.9V92.8z"/>
	<path  d="M3.4,49.1v-0.6V25.6v-1.2v-9.2v-1.1c0-1.3,0.5-2.4,1.4-3.3c0.8-0.8,2-1.4,3.3-1.4h1.1h36.1
		c0.7,0,1.2-0.5,1.2-1.2S46,7.1,45.3,7.1H9.2H8.1C4.2,7.1,1,10.3,1,14.2v1.1v9.2v1.2v22.9v0.6c0,0.7,0.5,1.2,1.2,1.2
		C2.9,50.3,3.4,49.8,3.4,49.1L3.4,49.1z"/>
	<path  d="M84.4,9.5h36.4h1.1c1.3,0,2.4,0.5,3.3,1.4c0.8,0.8,1.4,2,1.4,3.3v1.1v66.9c0,1.3-0.5,2.4-1.4,3.3
		c-0.9,0.8-2,1.4-3.3,1.4H8.1c-1.3,0-2.4-0.5-3.3-1.4c-0.8-0.8-1.4-2-1.4-3.3V49.1c0-0.7-0.5-1.2-1.2-1.2c-0.7,0-1.2,0.5-1.2,1.2
		v33.1c0,3.9,3.2,7.1,7.1,7.1h113.8c3.9,0,7.1-3.2,7.1-7.1V15.3v-1.1c0-3.9-3.2-7.1-7.1-7.1h-1.1H84.4c-0.7,0-1.2,0.5-1.2,1.2
		C83.2,9,83.8,9.5,84.4,9.5L84.4,9.5z"/>
	<path  d="M59,48.2h-1.2c0,4.8-2,9.2-5.1,12.3c-3.2,3.2-7.5,5.1-12.3,5.1s-9.2-2-12.3-5.1c-3.2-3.2-5.1-7.5-5.1-12.3
		s2-9.2,5.1-12.3c3.2-3.2,7.5-5.1,12.3-5.1s9.2,2,12.3,5.1c3.2,3.2,5.1,7.5,5.1,12.3L59,48.2l1.2,0c0-11-8.9-19.9-19.9-19.9
		s-19.9,8.9-19.9,19.9s8.9,19.9,19.9,19.9s19.9-8.9,19.9-19.9H59z"/>
	<path  d="M39.1,30.2v17.4L25,58c-0.5,0.4-0.7,1.2-0.3,1.7c0.4,0.5,1.2,0.7,1.7,0.3L41,49.2c0.3-0.2,0.5-0.6,0.5-1v-18
		c0-0.7-0.5-1.2-1.2-1.2C39.6,29,39.1,29.5,39.1,30.2L39.1,30.2z"/>
	<path  d="M105.5,41.3H72.3c-1.4,0-2.5-1.1-2.5-2.5s1.1-2.5,2.5-2.5h33.3c1.4,0,2.5,1.1,2.5,2.5S106.9,41.3,105.5,41.3z"
		/>
	<path  d="M105.5,50.6H72.3c-1.4,0-2.5-1.1-2.5-2.5s1.1-2.5,2.5-2.5h33.3c1.4,0,2.5,1.1,2.5,2.5S106.9,50.6,105.5,50.6z"
		/>
	<path  d="M105.5,59.9H72.3c-1.4,0-2.5-1.1-2.5-2.5s1.1-2.5,2.5-2.5h33.3c1.4,0,2.5,1.1,2.5,2.5S106.9,59.9,105.5,59.9z"
		/>
</g>
</svg>
