<?xml version="1.0" encoding="utf-8"?>
<!-- Generator: Adobe Illustrator 25.3.1, SVG Export Plug-In . SVG Version: 6.00 Build 0)  -->
<svg height="512" width="512"  xmlns="http://www.w3.org/2000/svg" xmlns:xlink="http://www.w3.org/1999/xlink" x="0px" y="0px"
	 viewBox="0 0 130 130" style="enable-background:new 0 0 130 130;" xml:space="preserve">

<g>
	<path fill='#F25022' d="M0.9,0.9h61c0,20.3,0,40.7,0,61c-20.3,0-40.7,0-61,0V0.9L0.9,0.9z"/>
	<path fill='#FEFEFE' d="M129.1,129.1c0-20.3,0-40.7,0-61c-20.3,0-40.7,0-61,0c0,20.3,0,40.7,0,61h-6.2c0-20.3,0-40.7,0-61
		c-20.3,0-40.7,0-61,0v-6.2c20.3,0,40.7,0,61,0c0-20.3,0-40.7,0-61l0,0h6.2c0,20.3,0,40.7,0,61c20.3,0,40.7,0,61,0
		c0-20.3,0-40.7,0-61"/>
	<path fill='#80BA01' d="M68.1,0.9h61c0,20.3,0,40.7,0,61c-20.3,0-40.7,0-61,0C68.1,41.5,68.1,21.2,68.1,0.9L68.1,0.9z"/>
	<path fill='#02A4EF' d="M0.9,68.1c20.3,0,40.7,0,61,0c0,20.3,0,40.7,0,61h-61V68.1L0.9,68.1z"/>
	<path fill='#FFB902' d="M68.1,68.1c20.3,0,40.7,0,61,0c0,20.3,0,40.7,0,61h-61C68.1,108.8,68.1,88.5,68.1,68.1L68.1,68.1z"/>
</g>
</svg>
