<?xml version="1.0" encoding="utf-8"?>
<!-- Generator: Adobe Illustrator 25.3.1, SVG Export Plug-In . SVG Version: 6.00 Build 0)  -->
<svg height="512" width="512"  xmlns="http://www.w3.org/2000/svg" xmlns:xlink="http://www.w3.org/1999/xlink" x="0px" y="0px"
	 viewBox="0 0 130 130" style="enable-background:new 0 0 130 130;" xml:space="preserve">

<g>
	<g>
		<path fill='#1C155C' d="M92.3,23.7v82.6h-7.9c-1.2,0-2.2-0.2-3.1-0.6c-0.8-0.4-1.6-1.1-2.4-2L35.8,48.6c0.2,2.5,0.3,4.8,0.3,7v50.7
			H22.6V23.7h8.1c0.7,0,1.2,0,1.7,0.1c0.5,0.1,0.9,0.2,1.3,0.3c0.4,0.2,0.7,0.4,1.1,0.7c0.3,0.3,0.7,0.8,1.1,1.3l43.3,55.3
			c-0.1-1.3-0.2-2.6-0.3-3.9c-0.1-1.3-0.1-2.5-0.1-3.6V23.7H92.3z"/>
	</g>
	
		<linearGradient id="SVGID_1_" gradientUnits="userSpaceOnUse" x1="1.5274" y1="66.7667" x2="128.4726" y2="66.7667" gradientTransform="matrix(1 0 0 -1 0 130)">
		<stop  offset="0" style="stop-color:#CCCCCC"/>
		<stop  offset="0.7515" style="stop-color:#1B1464"/>
	</linearGradient>
	<path opacity='0.8' fill='url(#SVGID_1_)' enable-background='new' d="M78.5,73.8c0.9-0.5,29.5-27,16-32.1c-13.5-5.1-74.7,23.9-81,41.8C7.1,101.3,22,97.2,22,97.2S6,104.9,2,96.7
		S20.6,58,67.6,40.2s66.4-18.8,59.6-3.1C120.3,52.9,78.5,73.8,78.5,73.8z"/>
	<path fill='#FFFFFF' stroke='#000000' stroke-miterlimit='10' d="M101.8,73"/>
</g>
</svg>
