<?xml version="1.0" encoding="utf-8"?>
<!-- Generator: Adobe Illustrator 25.3.1, SVG Export Plug-In . SVG Version: 6.00 Build 0)  -->
<svg height="512" width="512"  xmlns="http://www.w3.org/2000/svg" xmlns:xlink="http://www.w3.org/1999/xlink" x="0px" y="0px"
	 viewBox="0 0 130 130" style="enable-background:new 0 0 130 130; fill:#1254B5;" xml:space="preserve">

<g>
	<g>
		<path  d="M111.1,58.4l2-10c0.2-0.5,0.2-1.1,0.2-1.6l0,0v-0.2c0-4.1-3-7.5-7.1-8.2c-0.5-0.2-1.2-0.2-1.8-0.2h-3.4V27.8
			l0,0c-0.4-2.3-2.3-4.3-4.8-4.3h-10v-3.7c0-2.3-2-4.5-4.3-4.5H59.2c-2.3,0-4.5,2-4.5,4.5v3.7h-49c-2.7,0-4.6,2.1-4.6,4.8v76.6
			c0,2.3,0.7,4.3,2,5.9c0.9,1.6,2.5,2.8,4.3,3.6l0.9,0.2l83.3,0.2c1.2-0.2,2.5-0.5,3.6-1.1c1.2-0.7,2.3-1.4,3.2-2.8l-3.4-0.7
			c-0.2,0.4-0.9,0.5-1.1,0.7c-0.5,0.4-1.1,0.5-1.8,0.7c-0.5,0.2-0.9,0.2-1.4,0.4c-1.8,0.2-3.6,0-5.3,0c-15.3,0-30.5-0.2-45.8-0.4
			c-8.9,0-17.8-0.2-26.7-0.2c-3.4,0-7.3-1.4-7.3-5.3c0-0.4,0-0.7,0.2-1.1l11-49.9l2.1-10c0-0.4,0.2-0.5,0.4-0.9l0,0c0,0,0,0,0-0.2
			c0.2-0.4,0.4-0.5,0.7-0.7c0.4-0.4,0.7-0.5,1.2-0.9l0.4-0.2c0.2,0,0.2-0.2,0.2-0.2c0.2-0.2,0.4-0.2,0.7-0.4c0.5-0.2,1.2-0.4,2-0.4
			h17.1h6.8h7.8H63h36.7h4.5c0.4,0,0.9,0,1.2,0.2c2.7,0.5,4.5,2.7,4.5,5l-1.4,9.4l-0.7,5.1L111.1,58.4z M5.6,26.9h50.9h28h11.8
			c0.7,0,1.6,0.7,1.6,1.4c0,0.2,0,0.4,0,0.4v9.6l-73.7-0.2c-0.9,0-1.8,0.2-2.5,0.4h-0.5L21,38.6c-1.2,0.4-2.3,1.1-3.2,2
			c-0.2,0-0.2,0-0.4,0L17.2,41l0,0c-0.7,0.9-1.4,2-1.6,3.2c-0.2,0-0.4,0.2-0.4,0.4v0.4l-2.1,10L4.2,95.1V28.3
			C4.2,27.4,4.9,26.9,5.6,26.9z M58.2,19.8c0-0.5,0.5-1.1,1.1-1.1h22.6c0.5,0,1.1,0.5,1.1,1.1v3.7H58.2V19.8z M90.8,113.8
			C90.8,113.8,90.8,113.6,90.8,113.8L90.8,113.8L90.8,113.8L90.8,113.8z"/>
	</g>
	<g>
		<path  d="M70.1,82.2c0.1,0.3,1.8,0.8,4.6,1.2c0,1.1,0.1,2.1,0.3,3.2c-2.3,0.7-3.7,1.1-3.9,1.2
			c-0.9,0.3,0.1,4.8,1.1,5.8c0.3,0.3,2,0,4.7-0.7c0.4,0.9,0.9,1.8,1.4,2.7c-1.9,1.5-3,2.5-3.1,2.6c-0.7,0.6,2,4.4,3.2,5
			c0.3,0.2,1.8-0.8,4.1-2.4c0.8,0.7,1.6,1.4,2.4,2c-1.1,2.1-1.8,3.4-1.9,3.6c-0.4,0.8,3.5,3.3,4.9,3.3c0.4,0,1.4-1.4,2.8-3.8
			c0.9,0.4,1.9,0.7,2.9,0.9c-0.2,2.4-0.4,3.9-0.4,4c-0.1,0.9,4.5,1.7,5.8,1.2c0.3-0.1,0.8-1.8,1.2-4.6c1.3,0,2.6-0.2,3.8-0.4
			c0.6,1.9,1.1,3.2,1.1,3.4c0.4,1.5,5.9,0.2,5.7-1.4c0-0.2-0.4-1.6-1-3.8c1.1-0.5,2.1-1,3.1-1.7c1.3,1.6,2.2,2.5,2.3,2.7
			c1,1.2,5.5-2.1,4.8-3.5c-0.1-0.2-1-1.4-2.4-3.2c0.8-0.9,1.6-1.8,2.3-2.8c1.8,0.9,3,1.5,3.2,1.6c1.4,0.7,4.3-4,3.1-5
			c-0.2-0.2-1.4-0.9-3.4-2c0.4-1.1,0.8-2.2,1-3.4c2,0.2,3.3,0.3,3.5,0.3c1.5,0.2,2.4-5.3,0.9-5.8c-0.2-0.1-1.7-0.3-3.9-0.5
			c0-1.2-0.2-2.5-0.4-3.7c1.9-0.6,3.2-1.1,3.4-1.1c1.5-0.4,0.2-5.9-1.4-5.7c-0.2,0-1.6,0.4-3.8,1c-0.5-1.1-1-2.1-1.7-3.1
			c1.6-1.3,2.5-2.2,2.7-2.3c1.2-1-2.1-5.5-3.5-4.8c-0.2,0.1-1.4,1-3.2,2.4c-0.9-0.8-1.8-1.6-2.8-2.3c0.9-1.8,1.5-3,1.6-3.2
			c0.7-1.4-4-4.3-5-3.1c-0.2,0.2-0.9,1.4-2,3.5c-1.1-0.4-2.2-0.8-3.4-1c0.2-2,0.3-3.3,0.3-3.5c0.2-1.5-5.3-2.4-5.8-0.9
			c-0.1,0.2-0.3,1.7-0.5,3.9c-1,0-2,0.1-3,0.3c-0.7-2.3-1.1-3.7-1.2-3.9c-0.3-0.9-4.8,0.1-5.8,1.1c-0.3,0.3,0,2,0.7,4.7
			c-0.9,0.4-1.8,0.9-2.7,1.4c-1.5-1.9-2.5-3-2.6-3.1c-0.6-0.7-4.4,2-5,3.2c-0.2,0.3,0.8,1.8,2.4,4.1c-0.7,0.8-1.4,1.6-2,2.4
			c-2.1-1.1-3.4-1.8-3.6-1.9c-0.8-0.4-3.3,3.5-3.3,4.9c0,0.4,1.4,1.4,3.8,2.8c-0.4,0.9-0.7,1.9-0.9,2.9c-2.4-0.2-3.9-0.4-4-0.4
			C70.5,76.3,69.7,80.9,70.1,82.2z M101.4,63.7c10.5,1.1,18.1,10.6,17,21.1c-1.1,10.5-10.6,18.1-21.1,17s-18.1-10.6-17-21.1
			C81.5,70.2,90.9,62.5,101.4,63.7z"/>
		<path  d="M98.1,94.5c6.5,0.7,12.3-4,13-10.5c0.7-6.5-4-12.3-10.5-13c-6.5-0.7-12.3,4-13,10.5
			C86.9,88,91.6,93.8,98.1,94.5z M100.2,74.9c4.3,0.5,7.4,4.3,6.9,8.6c-0.5,4.3-4.3,7.4-8.6,6.9c-4.3-0.5-7.4-4.3-6.9-8.6
			C92.1,77.6,95.9,74.5,100.2,74.9z"/>
	</g>
</g>
</svg>
