<?xml version="1.0" encoding="utf-8"?>
<!-- Generator: Adobe Illustrator 25.3.1, SVG Export Plug-In . SVG Version: 6.00 Build 0)  -->
<svg height="512" width="512"  xmlns="http://www.w3.org/2000/svg" xmlns:xlink="http://www.w3.org/1999/xlink" x="0px" y="0px"
	 viewBox="0 0 130 130" style="enable-background:new 0 0 130 130;" xml:space="preserve">

<g>
	<path fill='#1254B5' d="M129.1,62.3c-0.4-8.5-2.3-16.6-5.6-23.8c-0.9-2.2-2-4.1-3.2-6.3c-8.8-15-23.4-25.9-40.9-29.9
		c-3.8-0.9-7.6-1.4-11.5-1.6c-0.9,0-1.8,0-2.7,0h-0.2h-0.2c-0.9,0-1.8,0-2.7,0c-4,0.2-7.7,0.7-11.5,1.6c-17.3,4-32.1,15.1-40.9,29.9
		c-1.3,2-2.3,4.1-3.2,6.3c-3.2,7.2-5.2,15.3-5.6,23.8c0,0.9,0,1.8,0,2.7c0,1.1,0,2.3,0,3.4c0.4,8.3,2.3,16,5.6,23.1
		c0.9,2.2,2.2,4.1,3.2,6.3c8.8,15,23.4,25.9,40.9,29.9c3.8,0.9,7.6,1.4,11.5,1.6c0.9,0,1.8,0,2.7,0h0.2h0.2c0.9,0,1.8,0,2.7,0
		c4-0.2,7.7-0.7,11.5-1.6c17.3-4,32.1-15.1,40.9-29.9c1.3-2,2.3-4.1,3.2-6.3c3.2-7,5.2-15,5.6-23.1c0-1.1,0.2-2.3,0.2-3.4
		C129.1,64.1,129.1,63.2,129.1,62.3z M86.4,9.5C98.1,14,108,21.9,114.8,32.2H96.4c-2.5-9-6.1-16.8-10.5-22.7c0.2,0,0.4,0.2,0.7,0.4
		C86.5,9.5,86.4,9.5,86.4,9.5z M67.8,85.9h26.3c-0.4,2-0.7,3.8-1.1,5.6H67.8V85.9z M97.5,80.7H32.3c-8.6,0-15.7-7-15.7-15.7
		s7-15.7,15.7-15.7h65.2c8.6,0,15.7,7,15.7,15.7S106.2,80.7,97.5,80.7z M62,44.1H35.7c0.4-2,0.7-3.8,1.1-5.6h25v5.6H62z M67.8,5.5
		c0.2,0,0.4,0,0.5,0l0,0c2.9,0.2,5.8,0.5,8.6,1.1c3.4,2.9,6.7,7.2,9.6,12.6c2.2,4,3.8,8.3,5.2,13h-24V5.5z M92.8,38.5
		c0.4,1.8,0.7,3.8,1.1,5.6H67.8v-5.6H92.8z M53.4,6.6c2.9-0.5,5.8-0.9,8.6-1.1v26.7H38.6c1.4-4.7,3.2-9,5.2-13
		C46.7,13.8,50,9.7,53.4,6.6z M44,9.3C39.7,15.3,36.1,23,33.6,32H15.7C22.4,21.9,32.3,13.8,44,9.3z M11.9,38.5h19.8
		c-0.4,1.8-0.7,3.8-1.1,5.8c-9.9,0.7-17.8,8.3-19.1,18H5.6C6.2,53.6,8.3,45.7,11.9,38.5z M5.8,68.4h5.9c1.6,9.4,9.4,16.6,18.9,17.3
		c0.4,2,0.7,3.8,1.1,5.8H11.9C8.3,84.5,6.2,76.7,5.8,68.4z M15.5,97.8h17.8c2.5,9,6.1,16.8,10.5,22.7
		C32.3,116.2,22.4,108.1,15.5,97.8z M62,124.5c-2.9-0.2-5.8-0.5-8.6-1.1c-3.4-2.9-6.7-7.2-9.6-12.6c-2.2-4-3.8-8.3-5.2-13H62V124.5z
		 M37,91.5c-0.4-1.8-0.9-3.8-1.1-5.6h26.3v5.6H37z M76.4,123.4c-2.9,0.5-5.8,0.9-8.6,1.1V97.8h23.4c-1.4,4.7-3.2,9-5.2,13
		C83.1,116.2,79.9,120.3,76.4,123.4z M85.8,120.5c4.3-5.9,7.9-13.7,10.5-22.7h17.8C107.4,108.1,97.5,116.2,85.8,120.5z M117.9,91.5
		H98.1c0.4-1.8,0.7-3.8,1.1-5.8c9.6-0.7,17.5-7.9,19.1-17.3h5.9C123.7,76.7,121.5,84.5,117.9,91.5z M118.2,62.3
		c-1.3-9.7-9.2-17.3-19.1-18c-0.4-2-0.7-3.8-1.1-5.8h19.8c3.6,7.2,5.8,15.3,6.1,23.8H118.2z"/>
	<text transform="matrix(1 0 0 1 27.0728 72.4528)" fill='#1254B5' font-family='Corbel-Bold' font-size='22.6038px' >Reseller</text>
</g>
</svg>
