<?xml version="1.0" encoding="utf-8"?>
<!-- Generator: Adobe Illustrator 25.3.1, SVG Export Plug-In . SVG Version: 6.00 Build 0)  -->
<svg height="512" width="512"  xmlns="http://www.w3.org/2000/svg" xmlns:xlink="http://www.w3.org/1999/xlink" x="0px" y="0px"
	 viewBox="0 0 130 130" style="enable-background:new 0 0 130 130;" xml:space="preserve">

<g>
	<path fill='#1254B5' d="M129.2,62.3c-0.4-8.5-2.3-16.6-5.6-23.8c-0.9-2.2-2-4.2-3.2-6.3c-8.8-15-23.5-26-41-30
		c-3.8-0.9-7.6-1.4-11.6-1.6c-0.9,0-1.8,0-2.7,0h-0.2h-0.2c-0.9,0-1.8,0-2.7,0c-4,0.2-7.8,0.7-11.6,1.6c-17.3,4-32.1,15.2-41,30
		c-1.3,2-2.3,4.2-3.2,6.3C3,45.7,1,53.8,0.6,62.3c0,0.9,0,1.8,0,2.7c0,1.1,0,2.3,0,3.4C1,76.7,3,84.5,6.2,91.5
		c0.9,2.2,2.2,4.2,3.2,6.3c8.8,15,23.5,26,41,30c3.8,0.9,7.6,1.4,11.6,1.6c0.9,0,1.8,0,2.7,0h0.2h0.2c0.9,0,1.8,0,2.7,0
		c4-0.2,7.8-0.7,11.6-1.6c17.3-4,32.1-15.2,41-30c1.3-2,2.3-4.2,3.2-6.3c3.2-7,5.2-15,5.6-23.1c0-1.1,0.2-2.3,0.2-3.4
		C129.2,64.1,129.2,63.2,129.2,62.3z M86.4,9.4c11.7,4.5,21.7,12.5,28.5,22.7H96.5C94,23.1,90.4,15.3,86,9.4c0.2,0,0.4,0.2,0.7,0.4
		C86.6,9.4,86.4,9.4,86.4,9.4z M67.8,85.9h26.4c-0.4,2-0.7,3.8-1.1,5.6H67.8V85.9z M97.6,80.7H32.2c-8.7,0-15.7-7-15.7-15.7
		s7-15.7,15.7-15.7h65.4c8.7,0,15.7,7,15.7,15.7S106.3,80.7,97.6,80.7z M62,44.1H35.7c0.4-2,0.7-3.8,1.1-5.6h25.1v5.6H62z M67.8,5.4
		c0.2,0,0.4,0,0.5,0l0,0C71.2,5.6,74.1,6,77,6.5c3.4,2.9,6.7,7.2,9.6,12.6c2.2,4,3.8,8.3,5.2,13h-24V5.4z M92.9,38.5
		c0.4,1.8,0.7,3.8,1.1,5.6H67.8v-5.6H92.9z M53.4,6.5C56.2,6,59.1,5.6,62,5.4v26.7H38.5c1.4-4.7,3.2-9,5.2-13
		C46.7,13.7,49.9,9.6,53.4,6.5z M44,9.2c-4.3,6-7.9,13.7-10.5,22.7H15.6C22.3,21.8,32.2,13.7,44,9.2z M11.8,38.5h19.9
		c-0.4,1.8-0.7,3.8-1.1,5.8c-9.9,0.7-17.9,8.3-19.1,18.1h-6C6.1,53.6,8.2,45.7,11.8,38.5z M5.7,68.4h6c1.6,9.4,9.4,16.6,19,17.3
		c0.4,2,0.7,3.8,1.1,5.8H11.8C8.2,84.5,6.1,76.7,5.7,68.4z M15.4,97.9h17.9c2.5,9,6.1,16.8,10.5,22.7
		C32.2,116.3,22.3,108.2,15.4,97.9z M62,124.6c-2.9-0.2-5.8-0.5-8.7-1.1c-3.4-2.9-6.7-7.2-9.6-12.6c-2.2-4-3.8-8.3-5.2-13H62V124.6z
		 M36.9,91.5c-0.4-1.8-0.9-3.8-1.1-5.6h26.4v5.6H36.9z M76.5,123.5c-2.9,0.5-5.8,0.9-8.7,1.1V97.9h23.5c-1.4,4.7-3.2,9-5.2,13
		C83.1,116.3,79.9,120.4,76.5,123.5z M85.9,120.6c4.3-6,7.9-13.7,10.5-22.7h17.9C107.5,108.2,97.6,116.3,85.9,120.6z M118,91.5H98.1
		c0.4-1.8,0.7-3.8,1.1-5.8c9.6-0.7,17.5-7.9,19.1-17.3h6C123.8,76.7,121.6,84.5,118,91.5z M118.4,62.3c-1.3-9.7-9.2-17.3-19.1-18.1
		c-0.4-2-0.7-3.8-1.1-5.8H118c3.6,7.2,5.8,15.3,6.1,23.8H118.4z"/>
	<text transform="matrix(1 0 0 1 28.2612 72.466)" fill='#1254B5' font-family='Corbel-Bold' font-size='22.6038px'>Restore</text>
</g>
</svg>
