<?xml version="1.0" encoding="utf-8"?>
<!-- Generator: Adobe Illustrator 25.3.1, SVG Export Plug-In . SVG Version: 6.00 Build 0)  -->
<svg height="512" width="512"  xmlns="http://www.w3.org/2000/svg" xmlns:xlink="http://www.w3.org/1999/xlink" x="0px" y="0px"
	 viewBox="0 0 130 130" style="enable-background:new 0 0 130 130; fill:#1254B5;stroke:#1254B5;stroke-linecap:round;stroke-linejoin:round;stroke-miterlimit:10;" xml:space="preserve">

<g>
	<path  d="M46.1,51.7l0.8-0.7l-0.8-0.7h-1.8H40v-7.9c0-2.7,2-4.9,4.5-5.2C45.6,37,47,37,49,37s3.4,0,4.5,0.1
		c1.4,0.2,2.7,1.1,3.6,2.2c-1.1,1-1.9,2.3-2.2,3.8c0,0,0,0.1,0,0.1c0,0.2-0.1,0.3-0.1,0.5c0,0.2,0,0.4,0,0.6v6h-1.1L53,51l0.7,0.7
		h1.1V53l0.7,0.7H75l1.2-0.7v-1.3h0.6l0.7-0.7l-0.7-0.7h-0.6v-6c0-2-0.9-3.8-2.4-5c0.9-1.1,2.1-1.7,3.3-1.9c1.1-0.2,2.5-0.2,4.5-0.2
		c1.8,0,3.2,0,4.3,0.2c2.5,0.3,4.5,2.5,4.5,5v7.9h-4.2h-0.1h-1.7L83.6,51l0.8,0.7h1.8h5l0.9-0.7v-8.6c0-3.3-2.6-6.1-6-6.5
		c-1.3-0.2-2.7-0.2-4.7-0.2c-2-0.1-3.6,0-4.5,0.4c-1.8,0.1-3.3,1-4.4,2.4c-0.7-0.3-1.5-0.6-2.3-0.7c-1.3-0.2-2.7-0.2-4.7-0.2
		s-3.6,0-4.7,0.2c-0.9,0.1-1.7,0.4-2.5,0.8c-1-1.6-2.7-2.6-4.7-2.8c-0.9-0.2-2.5-0.2-4.5-0.2s-3.4,0-4.5,0.2c-3.5,0.4-6,3.3-6,6.5
		V51l0.7,0.7h5H46.1z M60.9,39.4c1.1-0.2,2.5-0.2,4.5-0.2c1.8,0,3.2,0,4.3,0.2c2.5,0.3,4.5,2.5,4.5,5v7.9h-18l0.2-7.9
		C56.4,41.9,58.4,39.8,60.9,39.4z"/>
	<path  d="M65.2,36.4c3.1,0,5.5-2.5,5.4-5.4c0-3.1-2.3-5.4-5.4-5.4c-2.9,0-5.4,2.3-5.4,5.4S62.1,36.4,65.2,36.4z
		 M65.2,27c2.2,0,4,1.8,4,4s-1.8,4-4,4s-4-1.8-4-4S63,27,65.2,27z"/>
	<path  d="M81.5,34.4c2.9,0,5.4-2.3,5.4-5.4s-2.3-5.4-5.4-5.4c-2.9,0-5.4,2.3-5.4,5.4S78.4,34.4,81.5,34.4z M81.5,25.1
		c2.1,0,4,1.8,4,4c0,2.2-1.8,4-4,4s-4-1.8-4-4C77.5,26.9,79.3,25.1,81.5,25.1z"/>
	<path  d="M49,34.4c3.1,0,5.6-2.3,5.4-5.4c0-3.1-2.3-5.4-5.4-5.4c-2.9,0-5.4,2.3-5.4,5.4S45.9,34.4,49,34.4z M49,25.1
		c2.2,0,4,1.8,4,4c0,2.2-1.8,4-4,4s-4-1.8-4-4C45,26.9,46.8,25.1,49,25.1z"/>
	<polygon  points="49.1,50.3 48.3,51 49.1,51.7 50.9,51.7 51.6,51 50.9,50.3 	"/>
	<polygon  points="79.7,50.3 78.9,51 79.7,51.7 81.5,51.7 82.2,51 81.5,50.3 	"/>
	<path  d="M120.3,82c-2.3-1.9-5.2-2.1-7.9-0.5l-24,15c-0.3,0-0.5,0.2-0.7,0.4l-0.9,0.7c2-2,3.8-9.4-5.4-11.2l-21.8-2.9
		C56,82.6,52.4,82.7,49,84l-21.6,6.6L27,87.7c-0.4-1.9-1.3-3.7-2.9-5c-1.6-1-3.6-1.6-5.6-1.4L12,82c-3.2,0.6-5.4,3.5-5,6.7l4.3,34.2
		c0.2,1.7,0.9,3.1,2.2,4c1.1,0.9,2.3,1.3,3.6,1.3L18,128l6.5-0.8c3.6-0.5,6.2-3.4,6.5-6.8l49.8-0.2c3.4,0,6.5-0.9,9.2-2.9l21.3-15.1
		c1.2-0.7,2.3-1.6,3.4-2.7l1.3-1.1c1.3-1.1,2.5-2.2,3.6-3.6c1.3-1.5,2.2-3.1,2.9-4.9C123.5,87,122.6,84,120.3,82z M24.1,124.2
		l-6.5,0.7c-0.9,0.2-1.6,0-2.3-0.5c-0.8-0.6-1.1-1.3-1.3-2L9.7,88.1c-0.2-1.6,1.1-3.2,2.7-3.4l6.5-0.7h0.5c1.1,0,2,0.4,2.9,0.9
		c1.1,0.8,1.6,1.8,1.8,3.1l0.5,4.3c0,0.1,0,0.2,0,0.3l3.4,26.5c0,0.1,0.1,0.2,0.1,0.4C28.1,121.8,26.4,123.8,24.1,124.2z
		 M120.7,89.4c-0.5,1.5-1.4,2.7-2.3,4c-0.9,1.2-1.9,2.1-3.2,3.2l-1.3,1.1c-0.9,0.9-2,1.8-3.1,2.5l-21.3,15.1
		c-2.4,1.4-4.9,2.3-7.6,2.3h-51l-3.1-24.2l22.6-6.2c3.1-1,6.2-1.2,9.4-0.5l21.8,2.9c4.5,0.9,4.9,3.6,4.9,4.1c0,1.1-0.1,2.9-1.3,4.4
		l-19.7-2.2c-0.9,0-1.4,0.6-1.6,1.3c0,0.9,0.6,1.4,1.3,1.6l18.2,2c0.8,0.5,2.1,0.8,2.9,0.4l28.5-17.1c1.6-0.9,3.3-0.7,4.7,0.4
		C120.5,85.4,121.4,87.2,120.7,89.4z"/>
	<path  d="M65.2,73.6c10.1,0,19.1-4,25.6-10.5s10.6-15.5,10.6-25.4c0-9.9-3.9-18.9-10.4-25.4S75.3,1.8,65.4,1.8
		c-9.9,0-19.3,4-25.8,10.5S29,27.8,29,37.7c0,9.9,4.1,18.9,10.6,25.4S55.1,73.6,65.2,73.6z M41.3,14.3c6.1-5.9,14.4-9.7,23.8-9.7
		c9.4,0,17.7,3.8,23.8,9.7c6.1,6,9.9,14.2,9.9,23.4S95,55.2,88.9,61.1c-6.1,5.9-14.4,9.7-23.8,9.7c-9.4,0-17.7-3.8-23.8-9.7
		c-6.1-5.9-9.9-14.2-9.9-23.4C31.4,28.5,35.2,20.2,41.3,14.3z"/>
</g>
</svg>
