<?xml version="1.0" encoding="utf-8"?>
<!-- Generator: Adobe Illustrator 25.3.1, SVG Export Plug-In . SVG Version: 6.00 Build 0)  -->
<svg height="512" width="512"  xmlns="http://www.w3.org/2000/svg" xmlns:xlink="http://www.w3.org/1999/xlink" x="0px" y="0px"
	 viewBox="0 0 130 130" style="enable-background:new 0 0 130 130;" xml:space="preserve">

<g>
	<polyline fill='#186FAA' points="77,116.5 57.6,116.5 60.9,102.1 74,102.1 77,116.5 	"/>
	<g>
		<g>
			<g>
				<g>
					<g>
						<defs>
							<polyline id="SVGID_1_" points="77,116.5 57.6,116.5 60.9,102.1 74,102.1 77,116.5 							"/>
						</defs>
						<clipPath id="SVGID_2_">
							<use xlink:href="#SVGID_1_"  style="overflow:visible;"/>
						</clipPath>
						<polyline clip-path='url(#SVGID_2_)' fill='#00334F' points="74.5,104.5 60.4,104.5 59.8,107.2 75.1,107.2 74.5,104.5 						"/>
					</g>
				</g>
			</g>
		</g>
	</g>
	<path fill='#05385B' d="M83.7,117.4L83.7,117.4c0-1.4-0.9-2.6-1.9-2.6H52.8c-1,0-1.9,1.1-1.9,2.6c0,0,0,0,0,0.1L83.7,117.4L83.7,117.4
		z"/>
	<path fill='#186FAA' d="M112.3,104.8H22.1c-1.9,0-3.3-1.6-3.3-3.3V48.1c0-1.9,1.4-3.3,3.3-3.3h90.2c1.9,0,3.3,1.4,3.3,3.3v53.4
		C115.8,103.2,114.2,104.8,112.3,104.8z"/>
	<rect x="23.3" y="48.8" fill='#FFFFFF' width="87.9" height="45.8"/>
	<path fill='#05385B' d="M19,98.4v3.3c0,1.7,1.4,3,3.3,3h90.2c1.9,0,3.3-1.3,3.3-3v-3.3H19z"/>
	<g>
		<g>
			<g>
				<g>
					<g>
						<defs>
							<polyline id="SVGID_3_" points="111.2,94.5 23.3,94.5 23.3,48.8 111.2,48.8 111.2,94.5 							"/>
						</defs>
						<clipPath id="SVGID_4_">
							<use xlink:href="#SVGID_3_"  style="overflow:visible;"/>
						</clipPath>
						<rect x="23.3" y="48.8" clip-path='url(#SVGID_4_)' fill='#FFFFFF' width="87.9" height="45.8"/>
					</g>
				</g>
			</g>
		</g>
		<g>
			<g>
				<g>
					<g>
						<defs>
							<polyline id="SVGID_5_" points="111.2,94.5 23.3,94.5 23.3,48.8 111.2,48.8 111.2,94.5 							"/>
						</defs>
						<clipPath id="SVGID_6_">
							<use xlink:href="#SVGID_5_"  style="overflow:visible;"/>
						</clipPath>
						<path clip-path='url(#SVGID_6_)' fill='#1254B5' d="M68.9,92.1c-0.1-0.1-1.1-0.3-2.9-0.4c-0.1-0.7-0.3-1.3-0.4-1.9c1.3-0.6,2.3-1,2.3-1c0.6-0.3-0.4-3-1-3.4
							c-0.1-0.1-1.1,0.1-2.9,0.7c-0.3-0.6-0.7-1-1-1.6c1-1,1.7-1.7,1.7-1.7c0.4-0.4-1.4-2.6-2.3-2.9c-0.3-0.1-1.1,0.6-2.3,1.7
							c-0.6-0.4-1-0.7-1.6-1.1c0.6-1.4,0.9-2.3,1-2.3c0.3-0.6-2.4-1.9-3.1-1.7c-0.3,0-0.7,1-1.4,2.6c-0.6-0.1-1.1-0.3-1.9-0.3
							c0-1.4,0-2.4,0-2.4c0-0.6-2.9-0.7-3.6-0.4c-0.1,0.1-0.3,1.1-0.4,2.9c-0.7,0.1-1.6,0.3-2.3,0.4c-0.6-1.1-0.9-1.9-0.9-2
							c-0.4-0.9-3.6,0.3-3.4,1.3c0,0.1,0.3,1,0.9,2.3c-0.6,0.4-1.3,0.7-1.7,1.3c-1-0.9-1.4-1.4-1.6-1.6c-0.7-0.7-3.3,1.6-2.7,2.4
							c0.1,0.1,0.7,0.7,1.7,1.7c-0.4,0.6-0.9,1.3-1.3,1.9c-1.1-0.4-1.9-0.7-2-0.7c-0.9-0.3-2.4,2.7-1.6,3.3c0.1,0.1,1,0.4,2.3,1
							c-0.1,0.7-0.3,1.4-0.4,2.1c-1.3,0-2,0-2.1,0c-1,0-1.1,3.4-0.1,3.6c0.1,0,1,0,2.4,0c0.1,0.7,0.3,1.6,0.4,2.3
							c-1.1,0.6-1.9,0.9-2,0.9c-0.9,0.4,0.3,3.6,1.3,3.4c0.1,0,1-0.3,2.3-0.9c0.4,0.6,0.7,1.3,1.3,1.7c-0.9,1-1.4,1.6-1.6,1.6
							c-0.7,0.7,1.6,3.3,2.4,2.7c0.1-0.1,0.7-0.7,1.7-1.7c0.6,0.4,1.3,0.9,1.9,1.3c-0.4,1.1-0.7,1.9-0.7,2c-0.3,0.9,2.7,2.4,3.3,1.6
							c0.1-0.1,0.4-1,1-2.3c0.7,0.1,1.4,0.3,2.1,0.4c0,1.3,0,2,0,2.1c0,1,3.4,1.1,3.6,0.1c0-0.1,0-1,0-2.4c0.6-0.1,1.3-0.3,1.9-0.4
							c0.6,1.4,1,2.3,1,2.3c0.3,0.6,3-0.4,3.6-1c0.1-0.1-0.1-1.1-0.7-2.9c0.6-0.3,1-0.7,1.6-1c1,1,1.7,1.7,1.7,1.7
							c0.4,0.4,2.6-1.4,2.9-2.3c0.1-0.3-0.6-1.1-1.7-2.3c0.4-0.6,0.7-1,1.1-1.6c1.4,0.6,2.3,0.9,2.3,1c0.6,0.3,1.9-2.4,1.7-3.1
							c0-0.3-1-0.7-2.4-1.4c0.1-0.6,0.3-1.1,0.3-1.9c1.4,0,2.4,0,2.4,0C69.2,95.8,69.4,92.9,68.9,92.1z M51,100.9
							c-4,0-7.3-3.3-7.3-7.3c0-4,3.3-7.3,7.3-7.3s7.3,3.3,7.3,7.3C58.2,97.6,54.9,100.9,51,100.9z"/>
					</g>
				</g>
			</g>
		</g>
	</g>
	<path fill='#1254B5' d="M47.3,55.7c-0.1-0.3-1.4-0.4-3.6-0.6c-0.1-0.9-0.3-1.6-0.4-2.4c1.7-0.7,2.7-1.1,2.9-1.1
		c0.7-0.3-0.4-3.6-1.3-4.3c-0.3-0.1-1.4,0.1-3.4,0.9c-0.4-0.7-0.9-1.3-1.3-1.9c1.3-1.3,2.1-2.1,2.1-2.1c0.4-0.4-1.9-3.2-2.9-3.6
		c-0.3-0.1-1.3,0.7-2.9,2.1c-0.7-0.4-1.3-1-2-1.3c0.7-1.7,1.1-2.7,1.1-2.9c0.3-0.7-2.9-2.1-4-2.1c-0.3,0-1,1.1-1.9,3.2
		c-0.7-0.1-1.4-0.3-2.3-0.4c0-1.9,0-3,0-3.2c0-0.7-3.6-1-4.4-0.4c-0.3,0.1-0.4,1.4-0.6,3.6c-1,0.1-1.9,0.3-2.9,0.6
		c-0.7-1.4-1-2.3-1.1-2.4c-0.4-1.1-4.4,0.3-4.3,1.6c0,0.1,0.4,1.1,1.1,2.9c-0.7,0.4-1.6,1-2.1,1.6c-1.1-1.1-1.9-1.7-2-1.9
		c-0.9-0.9-4,2-3.3,3c0.1,0.1,0.9,1,2.1,2.1c-0.6,0.7-1.1,1.6-1.6,2.3c-1.4-0.6-2.4-0.9-2.6-1c-1.1-0.4-2.9,3.4-2,4
		c0.1,0.1,1.1,0.6,2.7,1.3c-0.1,0.9-0.4,1.7-0.6,2.6c-1.6,0-2.6,0-2.7,0c-1.1,0-1.4,4.3-0.3,4.4c0.1,0,1.3,0,3,0
		c0.1,1,0.3,1.9,0.6,2.7c-1.4,0.7-2.3,1-2.4,1.1c-1.1,0.4,0.3,4.4,1.6,4.3c0.1,0,1.3-0.4,2.9-1.1c0.4,0.7,1,1.6,1.6,2.3
		c-1.1,1.1-1.7,1.9-1.9,2c-0.9,0.9,2,4,3,3.3c0.1-0.1,1-0.9,2.1-2.1c0.7,0.6,1.6,1.1,2.3,1.6c-0.6,1.4-0.9,2.4-1,2.6
		c-0.4,1.1,3.4,3,4,1.9c0.1-0.1,0.6-1.1,1.3-2.7c0.9,0.3,1.7,0.4,2.6,0.4c0,1.6,0,2.6,0,2.7c0,1.1,4.3,1.4,4.4,0.3c0-0.1,0-1.3,0-3
		c0.7-0.1,1.6-0.3,2.3-0.4c0.7,1.7,1.1,2.7,1.1,2.9c0.3,0.7,3.6-0.4,4.3-1.3c0.1-0.3-0.1-1.6-0.9-3.4c0.7-0.4,1.3-0.9,1.9-1.3
		c1.3,1.3,2.1,2.1,2.1,2.1c0.4,0.4,3.1-1.9,3.6-2.9c0.1-0.3-0.7-1.3-2.1-2.9c0.4-0.6,1-1.3,1.3-2c1.7,0.7,2.7,1.1,2.9,1.1
		c0.7,0.3,2.1-2.9,2.1-4c0-0.3-1.1-1-3.2-1.9c0.1-0.7,0.3-1.4,0.4-2.3c1.9,0,3,0,3.2,0C47.5,60.3,47.8,56.7,47.3,55.7z"/>
	<path fill='#FFFFFF' d="M36.7,47.5h-5.4c-0.9,0-1.6,0.7-1.6,1.6v0.6h-5.3H13.5c-1.1,0-2,0.9-2,2V66c0,1.1,0.9,2,2,2h10.9h11.7
		c1.1,0,2-0.9,2-2V52.8v-1.1v-2.6C38.3,48.2,37.6,47.5,36.7,47.5z"/>
	<circle fill='#1254B5' cx="91.6" cy="48.7" r="14.6"/>
	<polygon fill='#FFFFFF' points="95.6,57.4 95.6,57.1 84.8,57.1 84.8,40.4 98.3,40.4 98.3,54 95.4,57.1 95.6,57.4 95.6,57.1 95.6,57.4 
		95.9,57.6 99,54.3 99,39.7 84.1,39.7 84.1,57.7 95.7,57.7 95.9,57.6 	"/>
	<path fill='#FFFFFF' d="M98.6,54.1v-0.3h-3c-0.1,0-0.1,0-0.3,0.1c-0.1,0.1-0.1,0.1-0.1,0.3v3.3c0,0.1,0.1,0.3,0.1,0.3
		c0.1,0,0.3,0,0.3-0.1l3-3.3C98.7,54.3,98.7,54.1,98.6,54.1S98.4,54,98.3,54L98.6,54.1l-0.3-0.3l-2.4,2.6v-2.1L98.6,54.1L98.6,54.1
		l-0.3-0.3L98.6,54.1z"/>
	<path fill='#FFFFFF' d="M96.7,42.8h-10c-0.3,0-0.4-0.3-0.4-0.4c0-0.3,0.3-0.4,0.4-0.4h10c0.3,0,0.4,0.3,0.4,0.4S96.9,42.8,96.7,42.8z"
		/>
	<path fill='#FFFFFF' d="M96.7,45.1h-10c-0.3,0-0.4-0.3-0.4-0.4c0-0.3,0.3-0.4,0.4-0.4h10c0.3,0,0.4,0.3,0.4,0.4
		C97.2,44.8,96.9,45.1,96.7,45.1z"/>
	<path fill='#FFFFFF' d="M96.7,47.4h-10c-0.3,0-0.4-0.3-0.4-0.4c0-0.3,0.3-0.4,0.4-0.4h10c0.3,0,0.4,0.3,0.4,0.4
		C97.2,47.1,96.9,47.4,96.7,47.4z"/>
	<path fill='#FFFFFF' d="M96.7,49.5h-10c-0.3,0-0.4-0.3-0.4-0.4s0.3-0.4,0.4-0.4h10c0.3,0,0.4,0.3,0.4,0.4S96.9,49.5,96.7,49.5z"/>
	<path fill='#FFFFFF' d="M96.7,51.8h-10c-0.3,0-0.4-0.3-0.4-0.4l0,0c0-0.3,0.3-0.4,0.4-0.4h10c0.3,0,0.4,0.3,0.4,0.4l0,0
		C97.2,51.7,96.9,51.8,96.7,51.8z"/>
	<path fill='#040404' d="M82.3,82.9L82.3,82.9L82.3,82.9z"/>
	<path fill='#040404' d="M56.3,53L56.3,53L56.3,53z"/>
	<path fill='#040404' d="M64.5,70.2L64.5,70.2L64.5,70.2z"/>
	<path fill='#040404' d="M83.3,82L83.3,82L83.3,82z"/>
	<path fill='#040404' d="M112.6,76.6L112.6,76.6L112.6,76.6z"/>
	<path fill='#040404' d="M95.9,83.9L95.9,83.9L95.9,83.9z"/>
	<path fill='#040404' d="M83.3,82L83.3,82L83.3,82z"/>
	<path fill='#1254B5' d="M127.6,46.7L127.6,46.7c-0.1-0.6-0.1-1-0.4-1.4l0,0l0,0c-0.1-0.1-0.1-0.3-0.3-0.4c-0.1-0.1-0.1-0.1-0.3-0.1
		l0,0c-0.3-0.1-0.6-0.3-1-0.3l0,0c-0.6-0.1-1.1-0.1-2-0.3c-0.6,0-1.3-0.1-2-0.1c-0.1-0.7-0.3-1.4-0.4-2.1c2.1-0.9,3.4-1.4,3.6-1.6
		l0,0c0.3-0.1,0.4-0.3,0.6-0.4l0,0c0.1-0.3,0.3-0.4,0.3-0.7l0,0c0-0.3,0.1-0.4,0.1-0.7l0,0c0-0.6-0.1-1.1-0.3-1.7l0,0
		c-0.3-1-0.6-1.9-1-2.9l0,0c-0.1-0.4-0.4-0.9-0.7-1.1l0,0c-0.3-0.3-0.4-0.7-0.9-1l0,0c-0.1-0.1-0.4-0.3-0.6-0.3l0,0
		c-0.1,0-0.3,0-0.4,0l0,0c-0.3,0-0.6,0-1,0.1l0,0c-0.9,0.1-2.1,0.6-3.7,1.1c-0.3-0.6-0.7-1.1-1.1-1.6c1.7-1.7,2.6-2.7,2.7-2.7l0,0
		c0.1-0.1,0.3-0.3,0.3-0.6c0-0.1,0.1-0.3,0.1-0.6l0,0c0-0.3-0.1-0.7-0.3-1l0,0c-0.3-0.4-0.6-1-0.9-1.6l0,0c-0.6-0.7-1.3-1.6-2-2.1
		l0,0c-0.3-0.3-0.7-0.6-1.1-0.9l0,0c-0.3-0.3-0.7-0.4-1.1-0.6l0,0c-0.1,0-0.3,0-0.4,0l0,0c-0.3,0-0.4,0-0.6,0.1l0,0
		c-0.3,0.1-0.6,0.3-0.9,0.4l0,0c-0.7,0.6-1.7,1.3-3,2.4c-0.6-0.4-1.1-0.9-1.7-1.1c0.9-2.1,1.4-3.4,1.4-3.6l0,0
		c0.1-0.1,0.1-0.3,0.1-0.4l0,0l0,0l0,0l0,0l0,0c0-0.3,0-0.4-0.1-0.6l0,0c-0.1-0.3-0.3-0.6-0.6-0.7l0,0c-0.4-0.4-0.9-0.7-1.3-1l0,0
		c-0.9-0.4-1.7-0.9-2.6-1.3l0,0c-0.4-0.1-0.9-0.3-1.3-0.4l0,0c-0.4-0.1-0.9-0.1-1.1-0.1l0,0c-0.1,0-0.1,0-0.1,0l0,0l0,0l0,0l0,0l0,0
		l0,0l0,0l0,0l0,0c-0.1,0-0.3,0-0.4,0.1c-0.1,0-0.3,0.1-0.3,0.1l0,0c-0.3,0.1-0.4,0.4-0.7,0.7l0,0c-0.3,0.4-0.6,1-1,1.7l0,0
		c-0.3,0.6-0.6,1.1-0.9,1.7c-0.6-0.1-1.3-0.3-1.9-0.4c0-2.3,0-3.7,0-4l0,0l0,0c0-0.1,0-0.4-0.1-0.6c-0.1-0.1-0.1-0.3-0.3-0.4l0,0
		c-0.1-0.1-0.3-0.3-0.4-0.4c-0.1-0.1-0.3-0.1-0.6-0.3l0,0c-0.6-0.1-1.1-0.3-1.9-0.4l0,0c-0.7-0.1-1.4-0.1-2.1-0.1
		c-0.6,0-1.1,0-1.7,0.1l0,0c-0.6,0-1,0.1-1.4,0.4l0,0c-0.1,0.1-0.3,0.1-0.4,0.3c-0.1,0.1-0.1,0.1-0.1,0.3l0,0
		c-0.1,0.3-0.3,0.6-0.3,1l0,0c-0.1,0.6-0.1,1.1-0.3,2c0,0.6-0.1,1.3-0.1,2c-1,0.1-1.9,0.3-2.9,0.6c-0.3-0.7-0.6-1.4-0.9-1.9
		c-0.1-0.3-0.3-0.6-0.3-0.7c-0.1-0.1-0.1-0.3-0.1-0.4l0,0c-0.1-0.3-0.3-0.4-0.4-0.7c-0.3-0.3-0.6-0.4-1-0.4l0,0
		c-0.3-0.1-0.6-0.1-1-0.1l0,0c-0.6,0-1.3,0.1-1.9,0.3l0,0c-1,0.3-2,0.7-2.7,1.3l0,0c-0.4,0.3-0.7,0.6-1,0.9l0,0
		c-0.1,0.1-0.3,0.4-0.4,0.6c-0.1,0.1-0.1,0.4-0.1,0.7l0,0l0,0l0,0l0,0l0,0c0,0.1,0,0.3,0,0.4l0,0l0,0l0,0l0,0l0,0l0,0
		c0,0.1,0,0.1,0.1,0.3l0,0c0.1,0.3,0.3,0.9,0.6,1.6l0,0c0.3,0.6,0.4,1.1,0.7,2c-0.7,0.4-1.4,1-2.1,1.4c-0.6-0.6-1.1-1-1.4-1.4
		c-0.3-0.3-0.4-0.4-0.6-0.6c-0.1,0-0.1-0.1-0.1-0.1L70.8,22l0,0l0,0l0,0c-0.1-0.1-0.4-0.3-0.7-0.4s-0.4-0.1-0.7-0.1l0,0
		c-0.3,0-0.7,0-1,0.1c-0.3,0.1-0.6,0.3-1,0.4l0,0c-0.9,0.6-1.9,1.3-2.6,2.1l0,0c-0.3,0.4-0.7,0.9-0.9,1.3l0,0
		c-0.3,0.6-0.4,1-0.4,1.6l0,0l0,0c0,0.3,0.1,0.7,0.3,1.1l0,0c0,0.1,0.1,0.1,0.1,0.3l0,0c0.3,0.3,0.6,0.7,1.1,1.1
		c0.4,0.4,0.9,0.9,1.4,1.4c-0.6,0.7-1,1.4-1.6,2.3c-0.7-0.3-1.4-0.6-1.9-0.7c-0.3-0.1-0.6-0.3-0.9-0.3c-0.1,0-0.1,0-0.3-0.1h-0.1
		l0,0l0,0l0,0l0,0l0,0c0.1-0.1-0.1-0.1-0.3-0.1l0,0c-0.4,0-0.7,0.1-1,0.3l0,0c-0.4,0.3-0.9,0.7-1.3,1.1l0,0c-0.6,0.7-1,1.4-1.3,2.3
		l0,0c-0.3,0.9-0.6,1.7-0.6,2.6l0,0c0,0.3,0,0.7,0.1,1s0.4,0.7,0.7,1l0,0l0,0l0,0l0,0l0,0l0,0c0.1,0,0.1,0.1,0.3,0.1l0,0
		c0.3,0.1,0.7,0.4,1.4,0.7c0.6,0.3,1.1,0.4,1.9,0.9c-0.1,0.9-0.3,1.7-0.4,2.4c-0.9,0-1.4,0-2,0c-0.3,0-0.7,0-0.9,0
		c-0.3,0-0.3,0-0.4,0l0,0l0,0c-0.3,0-0.6,0-0.9,0.3l0,0c-0.4,0.3-0.7,0.6-1,0.9l0,0c-0.3,0.6-0.6,1.1-0.7,1.7l0,0
		c-0.1,0.7-0.1,1.3-0.1,2l0,0c0,0.9,0.1,1.7,0.3,2.4l0,0c0.1,0.4,0.3,0.7,0.6,1c0.1,0.1,0.3,0.3,0.4,0.4c0.1,0.1,0.4,0.3,0.7,0.3
		l0,0c0.1,0,0.1,0,0.3,0l0,0c0.3,0,0.9,0,1.7,0c0.6,0,1.3,0,2.1,0c0.1,0.9,0.3,1.7,0.6,2.7c-0.7,0.3-1.4,0.6-1.9,0.9
		c-0.3,0.1-0.6,0.3-0.7,0.3s-0.1,0.1-0.3,0.1h-0.1l0,0l0,0l0,0c-0.3,0.1-0.4,0.3-0.7,0.4c-0.3,0.3-0.4,0.6-0.4,1l0,0
		c-0.1,0.3-0.1,0.7-0.1,1l0,0c0,0.6,0.1,1.3,0.3,1.9l0,0c0.3,1,0.7,2,1.1,2.7l0,0c0.3,0.4,0.6,0.7,1,1l0,0c0.1,0.1,0.4,0.3,0.6,0.4
		c0.1,0.1,0.4,0.1,0.7,0.1l0,0l0,0c0.1,0,0.3,0,0.3,0l0,0l0,0l0,0c0.1,0,0.1,0,0.3-0.1l0,0c0.3-0.1,0.9-0.3,1.6-0.6
		c0.6-0.3,1.1-0.4,2-0.7c0.4,0.7,1,1.4,1.4,2.1c-0.6,0.6-1,1.1-1.4,1.4c-0.3,0.3-0.4,0.4-0.6,0.6c0,0.4,0,0.4-0.1,0.6
		c-0.1,0.1-0.1,0.1-0.1,0.1l0,0l0,0l0,0l0,0l0,0l0,0l0,0c-0.1,0.1-0.3,0.4-0.4,0.7c-0.1,0.3-0.1,0.4-0.1,0.7l0,0
		c0,0.3,0.1,0.7,0.1,1c0.1,0.3,0.3,0.6,0.4,1l0,0c0.6,0.9,1.3,1.9,2.1,2.6l0,0c0.4,0.3,0.9,0.7,1.3,0.9l0,0c0.4,0.3,1,0.4,1.4,0.4
		l0,0l0,0c0.3,0,0.7-0.1,1.1-0.3l0,0l0,0l0,0l0,0l0,0l0,0c0.1,0,0.1-0.1,0.1-0.1l0,0c0.3-0.3,0.6-0.6,1.1-1.1
		c0.4-0.4,0.9-0.9,1.6-1.4c0.7,0.6,1.4,1,2.3,1.6c-0.3,0.7-0.6,1.4-0.7,1.9c-0.1,0.3-0.3,0.6-0.3,0.9c-0.1,0.1-0.1,0.3-0.1,0.4l0,0
		l0,0l0,0c-0.1,0.3-0.1,0.4-0.1,0.7l0,0l0,0l0,0l0,0l0,0c0,0.4,0.1,0.7,0.3,1l0,0c0.3,0.4,0.7,0.9,1.1,1.3l0,0
		c0.7,0.6,1.6,1,2.3,1.3l0,0c0.9,0.3,1.7,0.6,2.6,0.6l0,0c0.3,0,0.7,0,1-0.1c0.3-0.1,0.7-0.4,1-0.7l0,0c0-0.1,0.1-0.1,0.1-0.3l0,0
		c0.1-0.3,0.4-0.9,0.7-1.6c0.3-0.6,0.4-1.1,0.9-1.9c0.9,0.1,1.7,0.3,2.4,0.4c0,0.9,0,1.6,0,2c0,0.3,0,0.6,0,0.9c0,0.3,0,0.3,0,0.4
		l0,0l0,0l0,0l0,0l0,0c0,0.3,0.1,0.6,0.3,0.9l0,0c0.3,0.4,0.6,0.7,0.9,1l0,0c0.6,0.3,1.1,0.6,1.7,0.7l0,0c0.6,0.1,1.3,0.1,2,0.1l0,0
		c0.9,0,1.7-0.1,2.4-0.3l0,0c0.4-0.1,0.7-0.3,1-0.6c0.1-0.1,0.3-0.3,0.4-0.4c0.1-0.1,0.3-0.4,0.3-0.7l0,0c0-0.1,0-0.1,0-0.3l0,0
		c0-0.3,0-0.9,0-1.7c0-0.6,0-1.3,0-2.1c0.6-0.1,1.3-0.3,1.9-0.4c0.9,2.1,1.4,3.4,1.6,3.6l0,0l0,0l0,0l0,0l0,0l0,0l0,0
		c0.1,0.3,0.3,0.4,0.4,0.6c0.3,0.1,0.4,0.3,0.7,0.3l0,0c0.3,0,0.4,0.1,0.6,0.1l0,0c0.6,0,1.1-0.1,1.7-0.3l0,0c1-0.3,1.9-0.6,2.9-1
		c0.4-0.1,0.9-0.4,1.1-0.7l0,0c0.3-0.3,0.7-0.4,1-0.9l0,0c0.1-0.1,0.3-0.4,0.3-0.6l0,0c0-0.1,0-0.3,0-0.4l0,0c0-0.3,0-0.6-0.1-1l0,0
		c-0.1-0.9-0.6-2.1-1.1-3.7c0.6-0.3,1.1-0.7,1.6-1.1c0.7,0.7,1.3,1.3,1.7,1.7c0.6,0.6,1,0.9,1,1l0,0l0,0l0,0
		c0.1,0.1,0.3,0.3,0.6,0.3c0.1,0,0.3,0.1,0.6,0.1l0,0c0.3,0,0.7-0.1,1-0.3l0,0c0.4-0.3,1-0.6,1.6-0.9l0,0c0.7-0.6,1.6-1.3,2.3-2
		c0.3-0.3,0.6-0.7,0.9-1.1l0,0c0.3-0.3,0.4-0.7,0.6-1.1l0,0c0-0.1,0-0.3,0-0.4l0,0c0-0.3-0.1-0.4-0.1-0.6l0,0
		c-0.1-0.3-0.3-0.6-0.4-0.9l0,0c-0.6-0.7-1.3-1.7-2.4-3c0.4-0.6,0.9-1.1,1.1-1.7c2.1,0.9,3.4,1.4,3.6,1.4l0,0l0,0l0,0
		c0.1,0.1,0.3,0.1,0.6,0.1l0,0l0,0l0,0l0,0l0,0c0.3,0,0.4,0,0.6-0.1l0,0c0.3-0.1,0.6-0.3,0.7-0.6l0,0c0.4-0.4,0.7-0.9,1-1.3l0,0
		c0.4-0.7,0.9-1.7,1.3-2.6c0.1-0.4,0.3-0.9,0.4-1.3l0,0c0.1-0.4,0.1-0.9,0.1-1.1l0,0v-0.1l0,0c0-0.1-0.1-0.3-0.1-0.4
		s-0.1-0.3-0.1-0.3l0,0c-0.3-0.3-0.4-0.4-0.7-0.7l0,0c-0.4-0.3-1-0.7-1.7-1c-0.6-0.3-1.1-0.6-1.7-0.9c0.1-0.6,0.3-1.3,0.4-1.9
		c2.3,0,3.7,0,3.9,0l0,0c0.1,0,0.4,0,0.6-0.1c0.1-0.1,0.3-0.1,0.4-0.3l0,0c0.1-0.1,0.3-0.3,0.4-0.4c0.1-0.1,0.1-0.3,0.3-0.6l0,0
		c0.1-0.6,0.3-1.1,0.4-1.9l0,0c0.1-0.7,0.1-1.4,0.1-2.1C127.6,47.7,127.6,47.1,127.6,46.7z M125.6,48.2L125.6,48.2
		c0,1-0.1,2-0.3,2.7l0,0c0,0.1-0.1,0.3-0.1,0.4v0.1c-0.7,0-2.3,0-4.4,0c-0.6,0-1,0.4-1,0.9c-0.1,1.1-0.4,2.3-0.7,3.4
		c0,0.1,0,0.1,0,0.3c0,0.4,0.3,0.7,0.6,1c1.4,0.7,2.6,1.3,3.4,1.7l0,0c0.3,0.1,0.6,0.4,0.7,0.4c0,0.1,0,0.1,0,0.3
		c0,0.3-0.1,0.4-0.3,0.7l0,0c-0.3,0.9-0.9,2-1.3,2.7l0,0c-0.3,0.4-0.4,0.7-0.7,0.9l0,0l0,0c-0.6-0.3-2-0.9-4.2-1.7
		c-0.1,0-0.3,0-0.4,0c-0.3,0-0.7,0.1-0.9,0.6c-0.6,1-1.3,2-2,3c-0.1,0.1-0.3,0.4-0.3,0.6c0,0.3,0.1,0.4,0.3,0.7
		c1,1.1,1.9,2.1,2.4,2.9c0.3,0.3,0.4,0.6,0.6,0.9l0,0l0,0c0,0,0,0.1-0.1,0.1l0,0c-0.1,0.3-0.6,0.7-0.9,1.1c-0.3,0.4-0.9,0.9-1.3,1.1
		l0,0c-0.4,0.4-0.9,0.7-1.3,0.9l0,0c-0.1,0.1-0.3,0.1-0.4,0.1c-0.1-0.1-0.4-0.4-0.7-0.7c-0.6-0.6-1.4-1.4-2.4-2.4
		c-0.1-0.1-0.4-0.3-0.7-0.3c-0.3,0-0.4,0.1-0.6,0.3c-0.9,0.7-1.9,1.3-2.9,1.9c-0.3,0.1-0.6,0.6-0.6,0.9c0,0.1,0,0.3,0,0.3
		c0.4,1.3,0.9,2.3,1,3.1c0.1,0.4,0.3,0.7,0.3,1l0,0c0,0.1,0,0.3,0,0.3l0,0c-0.1,0.1-0.3,0.3-0.6,0.4l0,0c-0.6,0.3-1.4,0.7-2.3,1l0,0
		c-0.4,0.1-0.9,0.3-1.1,0.3c-0.3,0-0.4,0.6-0.6,0.6c-0.3-0.6-0.9-2-1.7-4.2c-0.1-0.4-0.6-0.6-1-0.6c-0.1,0-0.1,0-0.3,0
		c-1.1,0.3-2.3,0.6-3.4,0.7c-0.6,0.1-0.9,0.4-0.9,1c0,1.3,0,2.4,0,3.3c0,0.4,0,0.7,0,1c0,0.1,0,0.1,0,0.3l0,0c0,0-0.1,0.1-0.3,0.1
		s-0.3,0.1-0.4,0.1l0,0c-0.4,0.1-0.9,0.1-1.4,0.1l0,0l0,0l0,0c-0.4,0-0.9,0-1.3-0.1c-0.4,0-0.7-0.1-1-0.3l0,0
		c-0.1,0-0.3-0.1-0.3-0.1L89.7,82l0,0c0-0.3,0-0.6,0-1.3c0-0.7,0-1.7-0.1-3c0-0.6-0.4-1-1-1c-1.3-0.1-2.7-0.4-4-0.7
		c-0.1,0-0.1,0-0.3,0c-0.4,0-0.9,0.3-1,0.6c-0.6,1.3-1,2.3-1.3,3c-0.1,0.4-0.3,0.7-0.4,0.9c0,0.1-0.1,0.1-0.1,0.3l0,0c0,0,0,0-0.1,0
		h-0.1l0,0l0,0c-0.3,0-0.9-0.1-1.3-0.3l0,0c-0.7-0.3-1.6-0.7-2.1-1.1l0,0c-0.3-0.3-0.6-0.4-0.6-0.6l0,0L77,78.6
		c0-0.1,0.1-0.1,0.1-0.3c0.3-0.6,0.7-1.9,1.3-3.6c0-0.1,0.1-0.3,0.1-0.4c0-0.4-0.1-0.7-0.6-0.9c-1.3-0.7-2.4-1.4-3.6-2.3
		c-0.1-0.1-0.4-0.3-0.6-0.3c-0.3,0-0.6,0.1-0.7,0.3c-1,1-1.7,1.7-2.3,2.3c-0.3,0.3-0.6,0.4-0.7,0.6s-0.1,0.1-0.1,0.1l0,0
		c0,0,0,0-0.1,0c-0.1,0-0.4-0.1-0.7-0.3l0,0c-0.6-0.4-1.3-1-1.9-1.7l0,0c-0.3-0.3-0.4-0.7-0.6-1l0,0c0-0.1-0.1-0.3-0.1-0.4
		c0-0.1,0-0.1,0-0.1s0.1-0.1,0.3-0.3c0.4-0.4,1.3-1.4,2.6-2.7c0.1-0.1,0.3-0.4,0.3-0.7c0-0.3-0.1-0.4-0.3-0.7
		c-0.9-1-1.6-2.1-2.3-3.3c-0.1-0.3-0.6-0.6-0.9-0.6c-0.1,0-0.3,0-0.4,0c-1.3,0.6-2.3,0.9-3,1.3c-0.4,0.1-0.7,0.3-0.9,0.3
		c-0.1,0-0.1,0.1-0.3,0.1l0,0l0,0l0,0c0,0-0.1-0.1-0.3-0.1c-0.1-0.1-0.1-0.3-0.3-0.3l0,0c-0.3-0.4-0.7-1.1-0.9-1.7l0,0
		c-0.3-0.7-0.3-1.4-0.3-1.9l0,0l0,0l0,0c0-0.1,0-0.3,0-0.3v-0.1c0.1,0,0.1-0.1,0.3-0.1c0.6-0.3,1.9-0.9,3.4-1.6
		c0.4-0.1,0.6-0.6,0.6-1c0-0.1,0-0.1,0-0.3c-0.4-1.3-0.7-2.7-0.9-4.2c0-0.6-0.4-0.9-1-0.9c-1.4,0-2.4,0-3.3,0c-0.4,0-0.7,0-1,0
		c-0.1,0-0.1,0-0.3,0l0,0c0,0-0.1-0.1-0.1-0.3c0-0.1-0.1-0.3-0.1-0.4l0,0c-0.1-0.4-0.1-0.9-0.1-1.4l0,0l0,0l0,0l0,0
		c0-0.4,0-0.9,0.1-1.3c0-0.4,0.1-0.7,0.3-1l0,0c0-0.1,0.1-0.3,0.1-0.3l0.1-0.1l0,0c0.3,0,0.6,0,1.3,0s1.7,0,2.9-0.1c0.6,0,1-0.4,1-1
		c0.1-1.3,0.4-2.7,0.7-4c0-0.1,0-0.1,0-0.3c0-0.4-0.3-0.9-0.7-1c-1.3-0.6-2.3-1-3-1.3c-0.4-0.1-0.7-0.3-0.9-0.4
		c-0.1,0-0.1-0.1-0.3-0.1l0,0c0,0,0,0,0-0.1v-0.1l0,0l0,0l0,0c0-0.3,0.1-0.7,0.3-1.3l0,0c0.3-0.7,0.7-1.6,1.1-2.1l0,0
		c0.3-0.3,0.4-0.6,0.6-0.6l0,0c0,0,0.1,0,0.1-0.1c0.1,0,0.1,0,0.3,0.1c0.6,0.3,1.9,0.7,3.6,1.3c0.1,0,0.3,0,0.4,0
		c0.4,0,0.7-0.1,0.9-0.6c0.7-1.3,1.4-2.4,2.3-3.6c0.1-0.1,0.3-0.4,0.3-0.6c0-0.3-0.1-0.6-0.3-0.7c-1-1-1.7-1.7-2.3-2.3
		c-0.3-0.3-0.4-0.6-0.6-0.7c-0.1-0.1-0.1-0.1-0.1-0.1l0,0l0,0c0-0.1,0.1-0.4,0.3-0.7l0,0c0.4-0.6,1-1.3,1.7-1.9l0,0
		c0.3-0.3,0.7-0.4,1-0.6l0,0c0.1,0,0.3-0.1,0.4-0.1c0.1,0,0.1,0,0.1,0s0.1,0.1,0.3,0.3c0.4,0.4,1.4,1.4,2.7,2.6
		c0.1,0.1,0.4,0.3,0.7,0.3c0.3,0,0.4,0,0.7-0.3c1-0.9,2.1-1.6,3.3-2.3c0.3-0.1,0.6-0.6,0.6-0.9c0-0.1,0-0.3-0.1-0.4
		c-0.6-1.3-1-2.3-1.1-3C76.1,19.3,76,19,76,18.9c0-0.1-0.1-0.1-0.1-0.3l0,0l0,0l0,0c0,0,0.1-0.1,0.1-0.3c0.1-0.1,0.3-0.1,0.3-0.3
		l0,0c0.4-0.3,1.1-0.7,1.7-0.9l0,0c0.7-0.3,1.4-0.3,1.9-0.3l0,0l0,0l0,0c0.1,0,0.3,0,0.3,0c0.1,0,0.1,0,0.1,0c0,0.1,0.1,0.1,0.1,0.3
		c0.3,0.6,0.9,1.9,1.6,3.4c0.1,0.4,0.6,0.6,1,0.6c0.1,0,0.1,0,0.3,0c1.4-0.4,2.9-0.7,4.3-0.9c0.4,0,0.9-0.4,0.9-1
		c0.1-1.6,0.1-2.9,0.3-3.9l0,0c0-0.4,0.1-0.7,0.1-0.9c0.1,0,0.3,0,0.6-0.1l0,0c0.4,0,0.9-0.1,1.4-0.1l0,0l0,0l0,0c1,0,2,0.1,2.7,0.3
		l0,0c0.1,0,0.3,0.1,0.4,0.1h0.1c0,0.7,0,2.3,0,4.4c0,0.6,0.4,1,0.9,1c1.1,0.1,2.3,0.4,3.4,0.7c0.1,0,0.1,0,0.3,0
		c0.4,0,0.7-0.3,1-0.6c0.7-1.4,1.3-2.6,1.7-3.4l0,0c0.1-0.3,0.4-0.6,0.4-0.7c0.1,0,0.1,0,0.3,0c0.3,0,0.4,0.1,0.9,0.3l0,0
		c0.9,0.3,2,0.7,2.7,1.3l0,0c0.4,0.3,0.7,0.4,0.9,0.7l0,0l0,0c-0.3,0.6-0.9,2.1-1.7,4.2c0,0.1-0.1,0.3-0.1,0.4
		c0,0.3,0.1,0.7,0.6,0.9c1,0.6,2,1.3,3,2c0.7,0.4,1,0.4,1.1,0.4c0.3,0,0.4-0.1,0.7-0.3c1.1-1,2.1-1.9,2.9-2.4l0,0
		c0.3-0.3,0.6-0.4,0.9-0.6l0,0l0,0c0,0,0.1,0,0.1,0.1l0,0c0.3,0.1,0.7,0.6,1.1,0.9c0.4,0.3,0.9,0.9,1.1,1.3l0,0
		c0.4,0.4,0.7,0.9,0.9,1.3l0,0c0.1,0.1,0.1,0.3,0.1,0.4c-0.4,0.4-1.6,1.6-3.1,3.1c-0.1,0.1-0.3,0.4-0.3,0.7c0,0.3,0.1,0.4,0.3,0.6
		c0.7,0.9,1.3,1.9,1.9,2.9c0.1,0.3,0.6,0.6,0.9,0.6c0.1,0,0.3,0,0.3,0c1.3-0.4,2.3-0.9,3.1-1c0.4-0.1,0.7-0.3,1-0.3l0,0
		c0.1,0,0.3,0,0.3,0l0,0c0.1,0.1,0.3,0.3,0.4,0.6l0,0c0.3,0.6,0.7,1.4,1,2.3l0,0c0.1,0.4,0.3,0.9,0.3,1.1s0.1,0.7,0.1,0.9
		c-0.6,0.3-2,0.9-4.2,1.7c-0.4,0.1-0.6,0.6-0.6,1c0,0.1,0,0.1,0,0.3l0,0c0.3,1.1,0.6,2.3,0.7,3.6c0.1,0.4,0.4,0.9,1,0.9
		c1.6,0.1,3,0.1,3.9,0.3l0,0c0.4,0,0.7,0.1,0.9,0.1c0,0.1,0.1,0.3,0.1,0.6l0,0C125.6,47.2,125.6,47.8,125.6,48.2L125.6,48.2
		L125.6,48.2L125.6,48.2z"/>
	<path fill='#040404' d="M82,15.6L82,15.6L82,15.6z"/>
	<path fill='#040404' d="M119.5,27.6L119.5,27.6L119.5,27.6z"/>
	<path fill='#1254B5' d="M91.6,24.9c-13.2,0-23.9,10.7-23.9,23.9s10.7,23.9,23.9,23.9l0,0l0,0c13.2,0,23.9-10.7,23.9-23.9
		C115.5,35.5,104.7,24.9,91.6,24.9z M91.6,70.4c-6,0-11.5-2.4-15.5-6.3s-6.3-9.3-6.3-15.5s2.4-11.5,6.3-15.5s9.4-6.4,15.5-6.4
		s11.5,2.4,15.5,6.4s6.3,9.3,6.3,15.5s-2.4,11.5-6.3,15.5C103.2,68.1,97.6,70.4,91.6,70.4z"/>
	<path fill='#040404' d="M57.5,39.4L57.5,39.4L57.5,39.4z"/>
	<path fill='#040404' d="M61.5,32.1L61.5,32.1L61.5,32.1z"/>
	<path fill='#040404' d="M70.1,21.6L70.1,21.6L70.1,21.6z"/>
</g>
</svg>
