<?xml version="1.0" encoding="utf-8"?>
<!-- Generator: Adobe Illustrator 25.3.1, SVG Export Plug-In . SVG Version: 6.00 Build 0)  -->
<svg height="512" width="512"  xmlns="http://www.w3.org/2000/svg" xmlns:xlink="http://www.w3.org/1999/xlink" x="0px" y="0px"
	 viewBox="0 0 130 130" style="enable-background:new 0 0 130 130; fill:#1254B5;" xml:space="preserve">

<g>
	<path  d="M82.9,114.9c-11.3,9.7-21.1,13.4-21.4,13.6c-0.3,0.2-0.5,0.2-0.8,0.2c-0.3,0-0.5,0-0.8-0.2
		C59.3,128.3,5.2,107.8,4.4,35c0-0.8,0.5-1.7,1.2-2L59.4,1.7c0.7-0.5,1.7-0.5,2.4,0l53.9,31.2c0.7,0.5,1.2,1.2,1.2,2
		c-0.2,14.1-2.4,26.2-5.7,36.6l-4-2.2c3-9.4,4.9-20.5,5.2-33.3L60.8,6.4L9.2,36.1c1.3,63.7,45,84.6,51.5,87.3
		c2.5-1,10.3-4.5,18.9-11.9L82.9,114.9z"/>
	<path  d="M72.4,90.7H43.9c-3,0-5.4-2.4-5.4-5.4V57.5c0-3,2.4-5.4,5.4-5.4h33.5c3,0,5.4,2.4,5.4,5.4v15.5
		C78.1,76.9,73.3,85.3,72.4,90.7z M43.9,55.8c-0.8,0-1.7,0.8-1.7,1.7v28c0,1,0.8,1.7,1.7,1.7h29.1l0.8-4.4c1,0,2-2,2-3l3.2-2.4v-20
		c0-0.8-0.7-1.7-1.7-1.7H43.9z"/>
	<path  d="M61.5,84.8h-1.5c-2.5,0-4.5-2-4.5-4.5v-5.5c-2.9-2-4.4-5.4-3.9-8.9c0.5-4,3.9-7.4,8.1-7.7
		c2.7-0.3,5.2,0.5,7.2,2.2c2,1.7,3,4.2,3,6.9c0,3-1.5,5.9-3.9,7.6v5.5C66,82.8,64,84.8,61.5,84.8z M60.8,61.7c-0.2,0-0.5,0-0.7,0
		c-2.5,0.3-4.5,2.2-4.9,4.7c-0.3,2.4,0.8,4.5,2.9,5.7c0.7,0.3,1,1,1,1.7v6.7c0,0.5,0.3,0.8,0.8,0.8h1.5c0.5,0,0.8-0.3,0.8-0.8v-6.7
		c0-0.7,0.3-1.3,1-1.7c1.9-1,3-2.9,3-4.9c0-1.5-0.7-3-1.9-4.2C63.5,62.2,62.1,61.7,60.8,61.7z"/>
	<path  d="M75.4,55.8H69c-1,0-1.9-0.8-1.9-1.8v-5.4c0-3.5-2.9-6.4-6.4-6.4c-3.5,0-6.4,2.9-6.4,6.4v5.4
		c0,1-0.8,1.8-1.9,1.8h-6.4c-1,0-1.9-0.8-1.9-1.8v-5.4c0-9.1,7.4-16.5,16.5-16.5s16.5,7.4,16.5,16.5v5.4
		C77.3,54.9,76.5,55.8,75.4,55.8z M70.9,52.1h2.7v-3.5c0-7.1-5.7-12.8-12.8-12.8S48,41.5,48,48.6v3.5h2.7v-3.5
		c0-5.5,4.5-10.1,10.1-10.1S70.9,43,70.9,48.6V52.1z"/>
	<g>
		<path  d="M123.8,93.7h-1.9c0,6.6-2.7,12.6-7.1,17c-4.4,4.4-10.3,7.1-17,7.1c-6.7,0-12.6-2.7-17-7.1s-7.1-10.2-7.1-17
			s2.7-12.6,7.1-17s10.3-7.1,17-7.1c6.7,0,12.6,2.7,17,7.1c4.4,4.4,7.1,10.2,7.1,17H123.8h1.9c0-15.3-12.3-27.5-27.6-27.5
			S70.4,78.5,70.4,93.7s12.3,27.5,27.6,27.5s27.6-12.3,27.6-27.5H123.8z"/>
		<path  d="M79.8,94.7l-1.3,1.3l12.8,12.8c0.7,0.7,1.9,0.7,2.5,0l23.4-21.7c0.7-0.7,0.8-1.8,0.2-2.5l-5.6-6
			c-0.3-0.3-0.8-0.5-1.3-0.5c-0.5,0-1,0.2-1.3,0.5L93,93.9l-6.1-6c-0.7-0.7-1.9-0.7-2.5,0l-5.9,5.9c-0.7,0.7-0.7,1.8,0,2.5
			L79.8,94.7l1.3,1.3l4.5-4.5l6.1,6c0.7,0.7,1.9,0.7,2.5,0l16-15.1l3,3.4l-20.6,19.3L81.2,93.6L79.8,94.7l1.3,1.3L79.8,94.7z"/>
	</g>
</g>
</svg>
