<?xml version="1.0" encoding="utf-8"?>
<!-- Generator: Adobe Illustrator 25.3.1, SVG Export Plug-In . SVG Version: 6.00 Build 0)  -->
<svg height="512" width="512" xmlns="http://www.w3.org/2000/svg" xmlns:xlink="http://www.w3.org/1999/xlink" x="0px" y="0px"
	 viewBox="0 0 130 130" style="enable-background:new 0 0 130 130; fill:#1254B5;" xml:space="preserve">

<g>
	<g>
		<path  d="M51.3,39.9c0.7,0.2,1.4,0.4,2.1,0.7C52.6,40.4,52,40.1,51.3,39.9z"/>
		<path  d="M49.3,39.5c0.6,0.1,1.2,0.2,1.8,0.4C50.5,39.7,49.9,39.6,49.3,39.5z"/>
		<path  d="M111.7,69.3c0.5,0.2,1.1,0.3,1.6,0.5C112.8,69.6,112.3,69.4,111.7,69.3z"/>
		<path  d="M114.3,70.2c0.5,0.2,1,0.5,1.5,0.8C115.4,70.8,114.8,70.5,114.3,70.2z"/>
		<path  d="M110.6,69c-0.3-0.1-0.7-0.1-1-0.2c0,0,0,0,0,0C109.9,68.8,110.2,68.9,110.6,69z"/>
		<path  d="M53.4,40.7c0.7,0.3,1.3,0.6,1.9,1C54.6,41.4,54,41,53.4,40.7z"/>
		<path  d="M82.6,27.2c15,0,27.1,12.2,27.1,27.1c0,3-0.5,6-1.5,8.9c1.8,0.1,3.6,0.4,5.4,0.9c1-3.2,1.5-6.4,1.5-9.8
			c0-17.9-14.6-32.5-32.5-32.5c-10.7,0-20.7,5.3-26.7,14.1c0,0-0.1,0-0.2-0.1c1.7,0.8,3.3,1.8,4.8,3C65.5,31.7,73.7,27.2,82.6,27.2z
			"/>
		<path  d="M46.8,39.3c0.7,0,1.4,0.1,2.1,0.1C48.1,39.3,47.5,39.3,46.8,39.3z"/>
		<path  d="M51.3,34.4c0.1,0,0.3,0.1,0.4,0.1C51.6,34.5,51.5,34.5,51.3,34.4z"/>
		<path  d="M120.9,68c1,0.9,1.1,2.4,0.3,3.5c-0.9,1.2-2.6,1.4-3.7,0.5c-0.2-0.1-0.4-0.3-0.6-0.4c4.5,3.1,7.3,8.3,7.3,14
			c0,9.4-7.7,17.1-17.1,17.1H26.2c-11.2,0-20.4-9.1-20.4-20.4C5.8,71.2,15,62,26.2,62c0,0,0.1,0,0.2,0c-0.7-2.1-1.1-4.3-1.1-6.6
			c0,0.4,0,0.9,0,1.3C11.6,57.2,0.5,68.5,0.5,82.4c0,14.2,11.5,25.7,25.7,25.7h80.9c12.4,0,22.4-10.1,22.4-22.4
			C129.5,78.6,126.1,72.2,120.9,68z"/>
		<path  d="M49.1,34.1c0.1,0,0.3,0,0.4,0.1C49.3,34.1,49.2,34.1,49.1,34.1z"/>
		<path  d="M30.9,58.3c-0.1-0.3-0.1-0.6-0.2-0.9C30.8,57.7,30.9,58,30.9,58.3z"/>
		<path  d="M53.5,35c0.1,0,0.3,0.1,0.4,0.2C53.8,35.1,53.7,35.1,53.5,35z"/>
		<path  d="M110.6,69c0.4,0.1,0.8,0.2,1.2,0.3C111.4,69.2,111,69.1,110.6,69z"/>
		<path  d="M113.3,69.8c0.3,0.1,0.7,0.3,1,0.4C114,70.1,113.7,70,113.3,69.8z"/>
		<path  d="M116.8,71.7c-0.3-0.2-0.6-0.4-1-0.6C116.2,71.3,116.5,71.5,116.8,71.7z"/>
		<path  d="M120.9,68c-0.1-0.1-0.1-0.2-0.2-0.2c-2.2-1.7-4.6-2.9-7.1-3.6v0C116.2,65,118.7,66.3,120.9,68z"/>
		<path  d="M99.2,64.6v1.1l0,0c0,1.2-0.4,2.3-1.2,3.1c0.4,0.5,0.8,1.1,1,1.8c2.5-1.3,5.2-2,8.1-2c0.8,0,1.7,0.1,2.5,0.2
			c-0.8-0.1-1.5-0.6-1.9-1.3c-0.4-0.7-0.4-1.6-0.1-2.4c0.3-0.6,0.5-1.2,0.7-1.8c-0.4,0-0.7,0-1.1,0C104.4,63.2,101.7,63.7,99.2,64.6
			z"/>
		<path  d="M107.5,65.1c-0.3,0.8-0.3,1.6,0.1,2.4c0.4,0.7,1.1,1.2,1.9,1.3c0.4,0,0.7,0.1,1,0.2c0.4,0.1,0.8,0.2,1.2,0.3
			c0.5,0.2,1.1,0.3,1.6,0.5c0.3,0.1,0.7,0.3,1,0.4c0.5,0.2,1,0.5,1.5,0.8c0.3,0.2,0.6,0.4,1,0.6c0.2,0.1,0.4,0.2,0.6,0.4
			c1.2,0.9,2.9,0.7,3.7-0.5c0.8-1.1,0.7-2.6-0.3-3.5c-2.2-1.7-4.6-3-7.3-3.8v0c-1.7-0.5-3.5-0.8-5.4-0.9
			C108,63.9,107.7,64.5,107.5,65.1z"/>
		<path  d="M54,35.2c0.6,0.2,1.1,0.4,1.7,0.7C55.1,35.6,54.5,35.4,54,35.2z"/>
		<path  d="M36.9,74.5c0.4,0.2,0.8,0.3,1.2,0.3c1,0,1.9-0.5,2.4-1.4c0.7-1.3,0.2-2.9-1.1-3.6c-4.5-2.3-7.5-6.6-8.4-11.4
			c0,0.2,0.1,0.4,0.1,0.6c0.2,0.8,0,1.7-0.6,2.3c-0.6,0.6-1.4,1-2.3,0.9c-0.6-0.1-1.2-0.1-1.8-0.1C28.1,67.3,31.8,71.8,36.9,74.5z"
			/>
		<path  d="M46.8,33.9c0.8,0,1.5,0,2.3,0.1C48.3,34,47.5,33.9,46.8,33.9z"/>
		<path  d="M30.8,57.4c-0.1-0.6-0.1-1.3-0.1-1.9C30.6,56,30.7,56.7,30.8,57.4z"/>
		<path  d="M49.5,34.1c0.6,0.1,1.2,0.2,1.8,0.3C50.7,34.3,50.1,34.2,49.5,34.1z"/>
		<path  d="M51.8,34.5c0.6,0.1,1.2,0.3,1.8,0.5C53,34.8,52.4,34.7,51.8,34.5z"/>
		<path  d="M53.3,40.7C53.3,40.7,53.3,40.7,53.3,40.7C53.3,40.7,53.3,40.7,53.3,40.7z"/>
		<path  d="M51.1,39.9c0.1,0,0.1,0,0.2,0C51.2,39.9,51.1,39.9,51.1,39.9z"/>
		<path  d="M48.8,39.4c0.2,0,0.3,0,0.5,0.1C49.1,39.5,49,39.5,48.8,39.4z"/>
		<path  d="M61.6,49.3c0.8,0.1,1.5,0.5,2,1.1c0.1-0.1,0.3-0.3,0.4-0.4c0.1-1.5,0.9-2.8,2.1-3.6c-1.4-2.9-3.3-5.4-5.8-7.5
			c-0.5,0.7-0.9,1.3-1.3,2c-0.4,0.6-1,1.1-1.7,1.3c-0.7,0.2-1.5,0-2.1-0.3c0,0,0,0-0.1,0C58.1,43.5,60.4,46.1,61.6,49.3z"/>
		<path  d="M28.2,62.1c0.9,0.1,1.7-0.3,2.3-0.9c0.6-0.6,0.8-1.5,0.6-2.3c0-0.2-0.1-0.4-0.1-0.6c-0.1-0.3-0.1-0.6-0.2-0.9
			c-0.1-0.7-0.1-1.3-0.1-1.9c0-8.9,7.2-16.1,16.1-16.1c0.7,0,1.4,0.1,2.1,0.1c0.2,0,0.3,0,0.5,0.1c0.6,0.1,1.2,0.2,1.8,0.4
			c0.1,0,0.1,0,0.2,0c0.7,0.2,1.4,0.5,2.1,0.7c0,0,0,0,0,0c0.7,0.3,1.3,0.6,1.9,1c0,0,0,0,0.1,0c0.6,0.4,1.4,0.5,2.1,0.3
			c0.7-0.2,1.3-0.6,1.7-1.3c0.4-0.7,0.9-1.3,1.3-2c-1.4-1.2-3-2.2-4.8-3c-0.6-0.3-1.1-0.5-1.7-0.7c-0.1,0-0.3-0.1-0.4-0.2
			c-0.6-0.2-1.2-0.4-1.8-0.5c-0.1,0-0.3-0.1-0.4-0.1c-0.6-0.1-1.2-0.2-1.8-0.3c-0.1,0-0.3,0-0.4-0.1c-0.8-0.1-1.5-0.1-2.3-0.1
			c-11.8,0-21.5,9.6-21.5,21.5c0,2.3,0.4,4.5,1.1,6.6C27,62,27.6,62.1,28.2,62.1z"/>
		<path  d="M99,70.6c-0.2-0.7-0.5-1.3-1-1.8c0.7-0.8,1.2-1.9,1.2-3.1l0,0v-1.1"/>
	</g>
	<g>
		<path  d="M64.7,82.4h4.9c0.7,0,1.3-0.6,1.3-1.3s-0.6-1.3-1.3-1.3h-4.9c-0.7,0-1.3,0.6-1.3,1.3S64,82.4,64.7,82.4z"/>
		<path  d="M55.1,82.5h5.2c0.7,0,1.3-0.6,1.3-1.3s-0.6-1.3-1.3-1.3h-5.2c-0.7,0-1.3,0.6-1.3,1.3
			C53.8,81.9,54.4,82.5,55.1,82.5z"/>
		<path  d="M93.5,48.9H68.9c-1.4,0-2.5,1.1-2.5,2.5v1.1h0c-0.7,0-1.3,0.6-1.3,1.3c0,0.7,0.6,1.3,1.3,1.3h0v0.7
			c0,1.3,1.1,2.4,2.4,2.5v1c-1.3,0.1-2.3,1.1-2.4,2.5v2.6c0,0.7,0.6,1.3,1.3,1.3c0.7,0,1.3-0.6,1.3-1.3v-2.4l0,0h1h22.2h1l0,0v4.2
			l0,0H76.8c-0.7,0-1.3,0.6-1.3,1.3s0.6,1.3,1.3,1.3H91v1H76.2c-0.7,0-1.3,0.6-1.3,1.3s0.6,1.3,1.3,1.3h17.1l0,0v0.8H76.2
			c-0.7,0-1.3,0.6-1.3,1.3c0,0.7,0.6,1.3,1.3,1.3h17.1v0.8l0,0H76.2c-0.7,0-1.3,0.6-1.3,1.3s0.6,1.3,1.3,1.3h3.9v0
			c0,0.7,0.6,1.3,1.3,1.3s1.3-0.6,1.3-1.3v0h10.7c1.4,0,2.5-1.1,2.5-2.5v-4.4c0-1.3-1.1-2.4-2.4-2.5v-1c1.3-0.1,2.3-1.1,2.4-2.5
			v-4.4c0-1.3-1.1-2.4-2.4-2.5v-1c1.3-0.1,2.3-1.1,2.4-2.5v-4.4C96,50,94.8,48.9,93.5,48.9z M69,53.8L69,53.8
			C69,53.8,69,53.8,69,53.8v-2.2l0,0h24.3l0,0v0.9H76.2c-0.7,0-1.3,0.6-1.3,1.3c0,0.7,0.6,1.3,1.3,1.3h17.1v0.6l0,0h-1H70.1h-1l0,0
			L69,53.8L69,53.8z M71.4,58.3H91v1H71.4V58.3z"/>
		<path  d="M90.8,65.2c0.7,0,1.3-0.6,1.3-1.3c0-0.7-0.6-1.3-1.3-1.3h-4.9c-0.7,0-1.3,0.6-1.3,1.3c0,0.7,0.6,1.3,1.3,1.3
			H90.8z"/>
		<path  d="M76.2,65.3h5.2c0.7,0,1.3-0.6,1.3-1.3c0-0.7-0.6-1.3-1.3-1.3h-5.2c-0.7,0-1.3,0.6-1.3,1.3
			C74.9,64.7,75.5,65.3,76.2,65.3z"/>
		<path  d="M75.8,90.3h-1v-0.9c0-1.3-1.1-2.4-2.4-2.5v-1c1.3-0.1,2.4-1.1,2.4-2.5V79c0-1.3-1.1-2.4-2.4-2.5v-1
			c1.3-0.1,2.4-1.1,2.4-2.5v-4.4c0-1.4-1.1-2.5-2.5-2.5h-11v0c0-0.7-0.6-1.3-1.3-1.3c-0.7,0-1.3,0.6-1.3,1.3v0h-11
			c-1.4,0-2.5,1.1-2.5,2.5V73c0,1.3,1.1,2.4,2.4,2.5v1c-1.3,0.1-2.3,1.1-2.4,2.5v4.4c0,1.3,1.1,2.4,2.4,2.5v1
			c-1.3,0.1-2.3,1.1-2.4,2.5v4.4c0,1.4,1.1,2.5,2.5,2.5h24.5c1.4,0,2.5-1.1,2.5-2.5v-0.9h1c0.7,0,1.3-0.6,1.3-1.3
			C77.1,90.9,76.5,90.3,75.8,90.3z M47.9,89.5L47.9,89.5l1,0h22.2h1l0,0v0.8H55.1c-0.7,0-1.3,0.6-1.3,1.3s0.6,1.3,1.3,1.3h17.1v0.8
			l0,0H47.9l0,0C47.9,93.7,47.9,89.5,47.9,89.5z M69.9,86v1H50.3v-1H69.9z M47.9,79.1L47.9,79.1l1,0h22.2h1l0,0v4.2l0,0h-1H49h-1
			l0,0C47.9,83.3,47.9,79.1,47.9,79.1z M69.9,75.5v1H50.3v-1H69.9z M47.9,68.7L47.9,68.7l24.3,0l0,0v0.9H55.1
			c-0.7,0-1.3,0.6-1.3,1.3s0.6,1.3,1.3,1.3h17.1v0.6l0,0h-1H49h-1l0,0C47.9,72.9,47.9,68.7,47.9,68.7z"/>
		<path  d="M81.5,89c-0.7,0-1.3,0.6-1.3,1.3v0h0c-0.7,0-1.3,0.6-1.3,1.3s0.6,1.3,1.3,1.3h1.3c0.7,0,1.3-0.6,1.3-1.3v-1.3
			C82.8,89.6,82.2,89,81.5,89z"/>
		<path  d="M81.5,82.3c-0.7,0-1.3,0.6-1.3,1.3v2.2c0,0.7,0.6,1.3,1.3,1.3s1.3-0.6,1.3-1.3v-2.2
			C82.8,82.9,82.2,82.3,81.5,82.3z"/>
		<path  d="M60.1,56.4c0.7,0,1.3-0.6,1.3-1.3v0h0c0.7,0,1.3-0.6,1.3-1.3c0-0.7-0.6-1.3-1.3-1.3h-1.3
			c-0.7,0-1.3,0.6-1.3,1.3v1.3C58.8,55.8,59.4,56.4,60.1,56.4z"/>
		<path  d="M60.1,63c0.7,0,1.3-0.6,1.3-1.3v-2.2c0-0.7-0.6-1.3-1.3-1.3c-0.7,0-1.3,0.6-1.3,1.3v2.2
			C58.8,62.4,59.4,63,60.1,63z"/>
	</g>
</g>
</svg>
