<?xml version="1.0" encoding="utf-8"?>
<!-- Generator: Adobe Illustrator 25.3.1, SVG Export Plug-In . SVG Version: 6.00 Build 0)  -->
<svg height="512" width="512"  xmlns="http://www.w3.org/2000/svg" xmlns:xlink="http://www.w3.org/1999/xlink" x="0px" y="0px"
	 viewBox="0 0 130 130" style="enable-background:new 0 0 130 130;" xml:space="preserve">

<g>
	<path fill='none' d="M15.7,89.9c1.1,0,2-0.9,2-2s-0.9-2-2-2s-2,0.9-2,2C13.7,89,14.6,89.9,15.7,89.9z"/>
	<path fill='none' d="M7,78.9c-1.1,0-1.9,0.9-1.9,1.9v14c0,1.1,0.9,1.9,1.9,1.9h3.7h32.4c-0.6-0.5-1.3-1.1-1.8-1.7
		c-1.6-1.6-3-3.4-4.1-5.4h-9.6c-1,0-1.9-0.8-1.9-1.9c0-1,0.8-1.9,1.9-1.9h8c-0.7-2.2-1.2-4.6-1.2-7.1H10.7H7V78.9z M15.7,82.2
		c3.1,0,5.7,2.6,5.7,5.7s-2.6,5.7-5.7,5.7c-3.2,0-5.7-2.6-5.7-5.7C10,84.7,12.6,82.2,15.7,82.2z"/>
	<path fill='none' d="M7,49.8c-1.1,0-1.9,0.9-1.9,1.9v14c0,1.1,0.9,1.9,1.9,1.9h3.7h26.4c0.9-1.7,2.1-3.4,3.4-4.8
		c0.7-0.8,1.5-1.6,2.4-2.3H27.6c-1,0-1.9-0.8-1.9-1.9c0-1,0.8-1.9,1.9-1.9h15.6c1,0,1.9,0.8,1.9,1.9c0,0.1,0,0.2,0,0.3
		c2.1-1.4,4.4-2.4,6.9-3c0-0.1,0.1-0.2,0.1-0.4c0.1-0.4,0.2-0.7,0.3-1.1c0.1-0.3,0.2-0.6,0.2-0.9c0.1-0.3,0.2-0.7,0.4-1
		c0.1-0.3,0.2-0.6,0.3-0.9c0.1-0.3,0.3-0.6,0.5-1c0.1-0.3,0.3-0.6,0.4-0.8c0-0.1,0.1-0.1,0.1-0.2H10.7L7,49.8L7,49.8z M15.7,53
		c3.1,0,5.7,2.6,5.7,5.7s-2.6,5.7-5.7,5.7c-3.2,0-5.7-2.6-5.7-5.7S12.6,53,15.7,53z"/>
	<path fill='none' d="M15.7,60.8c1.1,0,2-0.9,2-2s-0.9-2-2-2s-2,0.9-2,2S14.6,60.8,15.7,60.8z"/>
	<path fill='none' d="M15.7,27.6c-1.1,0-2,0.9-2,2s0.9,2,2,2s2-0.9,2-2S16.8,27.6,15.7,27.6z"/>
	<rect x="56.6" y="27.7" fill='none' width="30.1" height="3.8"/>
	<path fill='none' d="M52.9,33.4v-7.5c0-1,0.8-1.9,1.9-1.9h31.9v-1.4c0-1.1-0.9-1.9-1.9-1.9H7c-1.1,0-1.9,0.9-1.9,1.9v14
		c0,1.1,0.9,1.9,1.9,1.9h3.7h67.2c1.4-1.3,2.8-2.4,4.4-3.3H54.7C53.7,35.2,52.9,34.4,52.9,33.4z M15.7,35.3c-3.2,0-5.7-2.6-5.7-5.7
		s2.6-5.7,5.7-5.7s5.7,2.6,5.7,5.7S18.9,35.3,15.7,35.3z M43.2,31.5H27.6c-1,0-1.9-0.8-1.9-1.9c0-1,0.8-1.9,1.9-1.9h15.6
		c1,0,1.9,0.8,1.9,1.9C45.1,30.6,44.2,31.5,43.2,31.5z"/>
	<path fill='none' d="M12.5,104.4h63.3V102h-18c-2.9,0-5.6-0.5-8.1-1.5H12.5V104.4z"/>
	<path fill='none' d="M12.5,75.2h22.1c0.2-1.3,0.5-2.6,0.9-3.8h-23V75.2z"/>
	<path fill='none' d="M12.5,46.1H57c0,0,0,0,0.1-0.1c0.2-0.2,0.3-0.4,0.6-0.6c0,0,0.1,0,0.1-0.1c0,0,0-0.1,0.1-0.1
		c0.2-0.2,0.5-0.4,0.7-0.6c0.2-0.2,0.5-0.4,0.7-0.6c0.3-0.2,0.6-0.4,0.8-0.6c0.2-0.2,0.5-0.4,0.7-0.5c0.3-0.2,0.6-0.4,0.9-0.6
		c0,0,0.1,0,0.1-0.1H12.5V46.1z"/>
	<path fill='#1254B5' d="M75.8,106v-1.7H12.5v-3.8h37.1c-2.4-0.9-4.6-2.2-6.6-3.7H10.7H7c-1.1,0-1.9-0.9-1.9-1.9v-14
		C5.1,79.8,6,79,7,79h3.7h23.7c0-0.1,0-0.2,0-0.3c0-1.2,0.1-2.3,0.3-3.4H12.5v-3.8h23c0.4-1.3,0.9-2.5,1.6-3.7H10.7H7
		c-1.1,0-1.9-0.9-1.9-1.9v-14C5.1,50.8,6,50,7,50h3.7h43.6c0.1-0.2,0.3-0.5,0.4-0.7c0.2-0.3,0.3-0.5,0.5-0.8s0.4-0.6,0.6-0.8
		c0.2-0.2,0.4-0.5,0.6-0.7c0.2-0.2,0.4-0.5,0.6-0.7H12.5v-3.8h49.1c0.2-0.1,0.5-0.3,0.7-0.4c0.3-0.2,0.7-0.3,1-0.5
		c0.3-0.1,0.5-0.3,0.8-0.4c0.3-0.1,0.7-0.3,1.1-0.4c0.3-0.1,0.5-0.2,0.8-0.3c0.4-0.1,0.8-0.2,1.2-0.3c0.3-0.1,0.5-0.1,0.8-0.2
		c0.4-0.1,0.9-0.1,1.3-0.2c0.2,0,0.5-0.1,0.7-0.1c0.7-0.1,1.4-0.1,2.1-0.1s1.3,0,2,0.1c0.3,0,0.6,0.1,0.9,0.1c0.3,0.1,0.7,0.1,1,0.2
		c0.2,0,0.3,0.1,0.5,0.1c0.5-0.5,0.9-0.9,1.4-1.4H10.7H7c-1.1,0-1.9-0.9-1.9-1.9v-14c0-1.1,0.9-1.9,1.9-1.9h77.8
		c1.1,0,1.9,0.9,1.9,1.9V24h-32c-1,0-1.9,0.8-1.9,1.9v7.5c0,1,0.8,1.9,1.9,1.9h27.5c2.5-1.5,5.3-2.7,8.2-3.4v-6v-3.3
		c0-3.1-2.5-5.7-5.7-5.7H7c-3.1,0-5.7,2.5-5.7,5.7v14c0,3.1,2.5,5.7,5.7,5.7h1.8v3.8H7c-3.1,0-5.7,2.5-5.7,5.7v14
		c0,3.1,2.5,5.7,5.7,5.7h1.8v3.8H7c-3.1,0-5.7,2.5-5.7,5.7v14c0,3.1,2.5,5.7,5.7,5.7h1.8v5.7c0,1,0.8,1.9,1.9,1.9h66.2
		C76.2,107.6,75.8,106.9,75.8,106z M86.7,31.5H56.6v-3.8h30.1V31.5z"/>
	<path fill='#1254B5' d="M15.7,23.9c-3.2,0-5.7,2.6-5.7,5.7s2.6,5.7,5.7,5.7s5.7-2.6,5.7-5.7S18.9,23.9,15.7,23.9z M15.7,31.6
		c-1.1,0-2-0.9-2-2s0.9-2,2-2s2,0.9,2,2S16.8,31.6,15.7,31.6z"/>
	<path fill='#1254B5' d="M43.2,27.8H27.6c-1,0-1.9,0.8-1.9,1.9c0,1,0.8,1.9,1.9,1.9h15.6c1,0,1.9-0.8,1.9-1.9
		C45.1,28.6,44.2,27.8,43.2,27.8z"/>
	<path fill='#1254B5' d="M43.2,56.7H27.6c-1,0-1.9,0.8-1.9,1.9c0,1,0.8,1.9,1.9,1.9h15.6c1,0,1.9-0.8,1.9-1.9
		C45.1,57.5,44.2,56.7,43.2,56.7z"/>
	<path fill='#1254B5' d="M15.7,64.5c3.1,0,5.7-2.6,5.7-5.7c0-3.1-2.6-5.7-5.7-5.7c-3.2,0-5.7,2.6-5.7,5.7S12.6,64.5,15.7,64.5z
		 M15.7,56.8c1.1,0,2,0.9,2,2s-0.9,2-2,2s-2-0.9-2-2C13.7,57.6,14.6,56.8,15.7,56.8z"/>
	<path fill='#1254B5' d="M15.7,93.6c3.1,0,5.7-2.6,5.7-5.7c0-3.2-2.6-5.7-5.7-5.7c-3.2,0-5.7,2.6-5.7,5.7S12.6,93.6,15.7,93.6z
		 M15.7,85.9c1.1,0,2,0.9,2,2s-0.9,2-2,2s-2-0.9-2-2C13.7,86.8,14.6,85.9,15.7,85.9z"/>
	<path fill='#1254B5' d="M25.7,87.9c0,1,0.8,1.9,1.9,1.9h9.6c-0.6-1.2-1.2-2.4-1.6-3.7h-8C26.5,86,25.7,86.9,25.7,87.9z"/>
	<path fill='#2E76BB' d="M126.7,64.1L126.7,64.1L126.7,64.1L126.7,64.1z"/>
	<path fill='#2E76BB' d="M100.2,64.8L100.2,64.8L100.2,64.8L100.2,64.8z"/>
	<path fill='#2E76BB' d="M126.7,64.1L126.7,64.1L126.7,64.1z"/>
	<path fill='#2E76BB' d="M100.2,64.8L100.2,64.8L100.2,64.8z"/>
	<g>
		<path id="path5" fill='#2E76BB' d="M101.4,66.6c9.1-1.4,18.2-2.7,27.2-4c0,8,0,15.9,0,23.9c-9.1,0-18.2,0.2-27.2,0.2
			C101.4,80,101.4,73.3,101.4,66.6L101.4,66.6z"/>
		<path id="path7" fill='#2E76BB' d="M78.4,69.8c6.8-1,13.7-1.9,20.5-2.8c0,6.6,0,13.2,0,19.8c-6.8,0-13.7,0.1-20.5,0.1V69.8L78.4,69.8
			z"/>
		<path id="path29" fill='#2E76BB' d="M78.4,88.9c6.8,0,13.7,0.1,20.5,0.1c0,6.6,0,13.2,0,19.9c-6.8-1-13.7-1.9-20.5-2.8V88.9z"/>
		<path id="path31" fill='#2E76BB' d="M101.4,89.2c9.1,0,18.2,0,27.3,0c0,7.9,0,15.9,0,23.8c-9.1-1.4-18.2-2.6-27.2-3.9
			C101.4,102.5,101.4,95.9,101.4,89.2z"/>
	</g>
</g>
<path fill='#1254B5' d="M75.7,92c0,2.1,0,4.3,0,6.4c-6.3,0-12.6,0-18.9,0c-0.1,0-0.1,0-0.2,0c-0.9,0-2.2-0.1-4.5-1
	c-1-0.4-2.4-0.8-4-1.8c-3.8-2.3-5.9-5.3-6.5-6.3c-1-1.5-2.5-4.3-2.9-8.1c-0.2-1.7-0.4-4.9,0.8-8.6c1.2-3.8,3.3-6.3,4.7-7.7
	c1.3-1.3,3.5-3.2,6.8-4.5c2-0.8,3.9-1.1,5.1-1.2c0-0.4,0-1,0.1-1.8c0.1-0.5,0.3-2.9,1.7-5.5c1.6-3.1,4-5.1,5.5-6.1
	c4.1-2.7,8.1-2.9,8.9-2.9c2.9-0.1,5.2,0.7,6.5,1.2c0.7-0.9,1.6-2,2.9-3.2c1.1-1,3.2-2.8,6.3-4.2c4.2-2,7.9-2.2,9.5-2.3
	c5.6-0.2,9.9,1.7,11.9,2.7c1.7,0.9,6,3.3,9.3,8.3c2.5,3.8,3.3,7.4,3.6,9.1c0.4,2.5,0.4,4.7,0.3,6.3c-2.2,0.3-4.4,0.6-6.6,0.9
	c0.1-0.6,0.2-1.3,0.3-2.2c0-0.5,0.1-2.4-0.5-4.9c-0.5-1.9-1.2-3.4-1.6-4.3c-1-1.9-2.2-3.3-3.3-4.4c-1.2-1.2-3.4-2.9-6.5-4.1
	c-2.4-0.9-4.5-1-5.5-1c-3.5-0.1-6.2,0.9-7.7,1.6c-3.5,1.6-5.7,3.9-6.7,5.2c0.3,0.2,0.6,0.6,0.9,1c0.9,1.1,1.5,2,1.9,2.6
	c0.8,1.3,1.2,2.5,1.4,3.1c0.3,0.8,0.6,2,0.8,3.4c0.1,0.9,0.2,2.2,0,3.7c-0.2,1.8-0.7,3.2-1.1,4.3c-2.3,0.3-4.6,0.6-6.9,0.9
	c0.2-1.3,0.5-2.3,0.8-3c0.2-0.6,0.4-1,0.6-1.8c0.2-0.9,0.3-1.6,0.3-2c0-0.4,0-1.2-0.2-2.2c-0.1-0.5-0.3-1.2-0.7-2.1
	c-0.2-0.4-0.4-0.9-0.9-1.6c-0.3-0.4-0.7-1.1-1.5-1.8c-0.2-0.2-1.1-1-2.5-1.6c-1.6-0.7-3-0.8-3.8-0.8c-0.8,0-2.2-0.1-3.9,0.5
	c-2.2,0.7-3.5,2-4.2,2.7c-1.7,1.8-2.2,3.7-2.4,4.4c-0.1,0.6-0.4,2-0.2,3.7c0,0,0.5,3.5,3,6c0.7,0.7,1.9,1.5,2.1,1.6
	c0,0,0.1,0.1,0.3,0.2c0.2,0.1,0.4,0.2,0.4,0.2c0.3,0.2,0.6,0.5,0.9,0.8c0.1,0.2,0.3,0.5,0.4,0.9c0.2,0.7,0.1,1.2,0.1,1.5
	c-0.1,0.6-0.4,1.1-0.5,1.2c-0.6,0.8-1.4,1.1-1.8,1.2c-0.2,0.1-0.6,0.2-1.1,0.1c-0.3,0-0.6-0.1-0.8-0.2c-0.3-0.1-0.5-0.2-0.7-0.3
	c0,0-0.2-0.1-0.4-0.2c-0.4-0.2-0.6-0.4-0.7-0.4c-0.5-0.4-1.1-0.7-1.3-0.8c-0.8-0.5-1.9-1.7-2.9-2.9c-0.7-0.9-1.6-2.3-2.4-4.1
	c-0.3,0-0.6,0.1-1.1,0.1c-1.6,0.2-2.9,0.7-3.3,0.9c-0.7,0.3-2.3,1-3.8,2.5c-1.4,1.4-2.3,2.7-2.7,3.5c-0.5,1-1.1,2.4-1.4,4.2
	c-0.3,2,0,3.7,0.2,4.6c0.2,0.9,0.7,2.7,2,4.6c0,0,2.4,3.5,6.4,5c2,0.7,4.1,0.8,4.2,0.8c0.2,0,0.4,0,0.4,0
	C59.7,91.9,64.5,91.9,75.7,92z"/>
</svg>
