<?xml version="1.0" encoding="utf-8"?>
<!-- Generator: Adobe Illustrator 25.3.1, SVG Export Plug-In . SVG Version: 6.00 Build 0)  -->
<svg height="512" width="512"  xmlns="http://www.w3.org/2000/svg" xmlns:xlink="http://www.w3.org/1999/xlink" x="0px" y="0px"
	 viewBox="0 0 130 130" style="enable-background:new 0 0 130 130;" xml:space="preserve">

<g>
	<g>
		<path fill='#1254B5' d="M21.1,81.1h-0.4C9.4,79.3,1.1,69.7,1.1,58.1c0-12.5,10-22.8,22.5-23.2c0-0.4,0-0.8,0-1.2
			c0-10.7,8.7-19.4,19.4-19.4c2.8,0,5.7,0.6,8.2,1.8C56.6,8.3,65.7,3.5,75.3,3.5c16.2,0,29.3,13.2,29.3,29.3c0,3.1-0.5,6.1-1.4,8.9
			c8.4,2.5,14.5,10.4,14.5,19.4c0,6.1-2.7,11.7-7.4,15.6c-1,0.8-2.5,0.7-3.3-0.3s-0.7-2.5,0.3-3.3c3.6-3,5.6-7.3,5.6-12
			c0-7.6-5.7-14.2-13.3-15.3c-0.7-0.1-1.4-0.5-1.7-1.2s-0.4-1.4-0.1-2.1c1.3-3.1,2-6.3,2-9.7c0-13.6-11.1-24.6-24.6-24.6
			c-8.7,0-16.9,4.7-21.3,12.3c-0.3,0.6-0.8,0.9-1.5,1.1c-0.6,0.2-1.3,0.1-1.8-0.3c-2.3-1.5-5-2.3-7.8-2.3c-8.1,0-14.7,6.6-14.7,14.7
			c0,1,0.1,2.1,0.4,3.2c0.2,0.7,0,1.5-0.5,2.1s-1.2,0.8-2,0.8c-0.6-0.1-1.2-0.1-1.8-0.1C14,39.7,5.7,48,5.7,58.2
			c0,9,6.7,16.9,15.6,18.3c1.3,0.2,2.2,1.4,2,2.7C23.3,80.3,22.3,81.1,21.1,81.1z"/>
		<path fill='#1254B5' d="M86,49.8c-0.7,0-1.3-0.3-1.8-0.8c-0.8-1-0.7-2.5,0.3-3.3c3.6-3.1,8.3-4.8,13.1-4.8c4.5,0,8.7,1.4,12.3,4.1
			c1,0.8,1.2,2.3,0.4,3.3c-0.8,1-2.3,1.2-3.3,0.4c-2.7-2.1-6-3.2-9.4-3.2c-3.7,0-7.2,1.3-10,3.7C87,49.6,86.5,49.8,86,49.8z"/>
		<path fill='#1254B5' d="M35.1,51.2c-0.4,0-0.7-0.1-1.1-0.3c-6.4-3.4-10.4-9.9-10.4-17.2c0-10.7,8.7-19.4,19.4-19.4S62.3,23,62.3,33.7
			c0,2.6-0.5,5.2-1.5,7.5c-0.5,1.2-1.9,1.8-3.1,1.3c-1.2-0.5-1.8-1.9-1.3-3.1c0.8-1.8,1.2-3.7,1.2-5.7C57.6,25.6,51,19,42.9,19
			s-14.7,6.6-14.7,14.7c0,5.5,3,10.5,7.9,13c1.2,0.6,1.6,2,1,3.2C36.8,50.7,35.9,51.2,35.1,51.2z"/>
	</g>
	<g>
		<path fill='#1254B5' d="M93.1,75.3H32.9c-2.4,0-4.4-2-4.4-4.4V60c0-2.4,2-4.4,4.4-4.4h60.2c2.4,0,4.4,2,4.4,4.4v10.9
			C97.5,73.3,95.5,75.3,93.1,75.3z M32.9,58.5c-0.8,0-1.5,0.7-1.5,1.5v10.9c0,0.8,0.7,1.5,1.5,1.5h60.2c0.8,0,1.5-0.7,1.5-1.5V60
			c0-0.8-0.7-1.5-1.5-1.5H32.9z"/>
		<path fill='#1254B5' d="M39.6,69.9c-2.4,0-4.4-2-4.4-4.4s2-4.4,4.4-4.4s4.4,2,4.4,4.4C44.1,67.9,42.1,69.9,39.6,69.9z M39.6,63.9
			c-0.8,0-1.5,0.7-1.5,1.5s0.7,1.5,1.5,1.5s1.5-0.7,1.5-1.5S40.5,63.9,39.6,63.9z"/>
		<path fill='#1254B5' d="M60.9,66.9H48.8c-0.8,0-1.4-0.6-1.4-1.4s0.6-1.4,1.4-1.4h12.1c0.8,0,1.4,0.6,1.4,1.4
			C62.4,66.3,61.7,66.9,60.9,66.9z"/>
		<path fill='#1254B5' d="M96,69.8H69.8c-0.8,0-1.4-0.6-1.4-1.4v-5.8c0-0.8,0.6-1.4,1.4-1.4H96c0.8,0,1.4,0.6,1.4,1.4v5.8
			C97.5,69.2,96.8,69.8,96,69.8z M71.3,66.9h23.3V64H71.3V66.9z"/>
		<path fill='#1254B5' d="M90.2,81.1H35.7c-0.8,0-1.4-0.6-1.4-1.4v-5.8c0-0.8,0.6-1.4,1.4-1.4h54.5c0.8,0,1.4,0.6,1.4,1.4v5.8
			C91.7,80.4,91,81.1,90.2,81.1z M37.2,78.2h51.6v-2.9H37.2V78.2z"/>
		<path fill='#1254B5' d="M39.6,92.5c-2.4,0-4.4-2-4.4-4.4s2-4.4,4.4-4.4s4.4,2,4.4,4.4C44.1,90.5,42.1,92.5,39.6,92.5z M39.6,86.5
			c-0.8,0-1.5,0.7-1.5,1.5s0.7,1.5,1.5,1.5s1.5-0.7,1.5-1.5S40.5,86.5,39.6,86.5z"/>
		<path fill='#1254B5' d="M60.9,89.5H48.8c-0.8,0-1.4-0.6-1.4-1.4s0.6-1.4,1.4-1.4h12.1c0.8,0,1.4,0.6,1.4,1.4S61.7,89.5,60.9,89.5z"/>
		<path fill='#1254B5' d="M77.6,86.6h-6.3v2.9h6.4v2.9h-7.8c-0.8,0-1.4-0.6-1.4-1.4v-5.8c0-0.8,0.6-1.4,1.4-1.4h7.8L77.6,86.6z"/>
		<path fill='#1254B5' d="M77.6,109.1h-6.3v2.9h6.4v2.9h-7.8c-0.8,0-1.4-0.6-1.4-1.4v-5.8c0-0.8,0.6-1.4,1.4-1.4h7.8L77.6,109.1z"/>
		<path fill='#1254B5' d="M35.7,103.7c-0.8,0-1.4-0.6-1.4-1.4v-5.8c0-0.8,0.6-1.4,1.4-1.4h41.8V98H37.2v2.9"/>
		<path fill='#1254B5' d="M37.2,120.4v2.9h51.6v2.9H35.7c-0.8,0-1.4-0.6-1.4-1.4V119c0-0.8,0.6-1.4,1.4-1.4"/>
		<path fill='#1254B5' d="M77.7,120.4H32.9c-2.4,0-4.4-2-4.4-4.4v-10.9c0-2.4,2-4.4,4.4-4.4h44.8v2.9H32.9c-0.8,0-1.5,0.7-1.5,1.5V116
			c0,0.8,0.7,1.5,1.5,1.5h44.8V120.4z"/>
		<path fill='#1254B5' d="M39.6,115c-2.4,0-4.4-2-4.4-4.4s2-4.4,4.4-4.4s4.4,2,4.4,4.4C44.1,113,42.1,115,39.6,115z M39.6,109
			c-0.8,0-1.5,0.7-1.5,1.5s0.7,1.5,1.5,1.5s1.5-0.7,1.5-1.5C41.2,109.7,40.5,109,39.6,109z"/>
		<path fill='#1254B5' d="M60.9,112H48.8c-0.8,0-1.4-0.6-1.4-1.4s0.6-1.4,1.4-1.4h12.1c0.8,0,1.4,0.6,1.4,1.4S61.7,112,60.9,112z"/>
	</g>
	<g>
		<path id="path5" fill='#2E76BB' d="M102.4,81.4c8.8-1.3,17.6-2.6,26.5-3.8c0,7.7,0,15.5,0,23.2c-8.8,0-17.6,0.2-26.5,0.2
			C102.4,94.5,102.4,87.9,102.4,81.4L102.4,81.4z"/>
		<path id="path7" fill='#2E76BB' d="M80,84.6c6.6-1,13.3-1.9,20-2.7c0,6.4,0,12.8,0,19.2c-6.7,0-13.3,0.1-20,0.1V84.6L80,84.6z"/>
		<path id="path29" fill='#2E76BB' d="M80,103.1c6.6,0,13.3,0.1,20,0.1c0,6.4,0,12.9,0,19.3c-6.6-1-13.3-1.8-20-2.7V103.1z"/>
		<path id="path31" fill='#2E76BB' d="M102.3,103.4c8.8,0,17.7,0,26.5,0c0,7.7,0,15.4,0,23.1c-8.8-1.3-17.6-2.5-26.5-3.7
			C102.4,116.3,102.4,109.9,102.3,103.4z"/>
	</g>
</g>
</svg>
