<?xml version="1.0" encoding="utf-8"?>
<!-- Generator: Adobe Illustrator 25.3.1, SVG Export Plug-In . SVG Version: 6.00 Build 0)  -->
<svg height="512" width="512"  xmlns="http://www.w3.org/2000/svg" xmlns:xlink="http://www.w3.org/1999/xlink" x="0px" y="0px"
	 viewBox="0 0 130 130" style="enable-background:new 0 0 130 130;" xml:space="preserve">

<g>
	<g>
		<path fill='none' d="M45.7,103.4h-3.1c-1.4,0-2.5-1.1-2.5-2.5c0-1.4,1.1-2.5,2.5-2.5h3.1v-8.2c0-0.6,0.2-1.1,0.5-1.6
			c-0.3-0.5-0.5-1-0.5-1.6v-1.7h-2.3c-1.4,0-2.5-1.1-2.5-2.5v-9c0-1.4,1.1-2.5,2.5-2.5h2.3v-4.5h-2.3c-1.4,0-2.5-1.1-2.5-2.5v-9
			c0-1.4,1.1-2.5,2.5-2.5h41c3.1-0.5,6.2-0.9,9.3-1.4V12c0-2.4-1.9-4.4-4.4-4.4H14.1c-2.4,0-4.4,1.9-4.4,4.4v95
			c0,2.4,1.9,4.4,4.4,4.4h4h17.9h9.8V103.4z M40.9,18.1c0-1.4,1.1-2.5,2.5-2.5h43.1c1.4,0,2.5,1.1,2.5,2.5v9c0,1.4-1.1,2.5-2.5,2.5
			H43.4c-1.4,0-2.5-1.1-2.5-2.5V18.1z M40.9,36.6c0-1.4,1.1-2.5,2.5-2.5h43.1c1.4,0,2.5,1.1,2.5,2.5v9c0,1.4-1.1,2.5-2.5,2.5H43.4
			c-1.4,0-2.5-1.1-2.5-2.5V36.6z M30.1,79.3c0,1.4-1.1,2.5-2.5,2.5S25,80.6,25,79.3v-5.9c0-1.4,1.1-2.5,2.5-2.5s2.5,1.1,2.5,2.5
			V79.3z M30.1,61.7c0,1.4-1.1,2.5-2.5,2.5S25,63.1,25,61.7v-5.9c0-1.4,1.1-2.5,2.5-2.5s2.5,1.1,2.5,2.5V61.7z M30.1,44.1
			c0,1.4-1.1,2.5-2.5,2.5S25,45.5,25,44.1v-5.9c0-1.4,1.1-2.5,2.5-2.5s2.5,1.1,2.5,2.5V44.1z M30.1,23.1v3.4c0,1.4-1.1,2.5-2.5,2.5
			S25,27.9,25,26.5v-3.4v-2.5h-5.7v77.7H25v-4V91c0-1.4,1.1-2.5,2.5-2.5s2.5,1.1,2.5,2.5v3.4v6.5c0,1.4-1.1,2.5-2.5,2.5H16.8
			c-1.4,0-2.5-1.1-2.5-2.5V18.1c0-1.4,1.1-2.5,2.5-2.5h10.8c1.4,0,2.5,1.1,2.5,2.5V23.1z"/>
		<path fill='none' d="M33.4,121.1v-4.6H20.6v4.6c0,0.7,0.6,1.3,1.3,1.3h10.1C32.8,122.4,33.4,121.8,33.4,121.1z"/>
		<path fill='none' d="M48.3,119.4c-1.5-0.2-2.6-1.5-2.6-3l0,0h-7.2v4.6c0,0.5-0.1,0.9-0.1,1.3h26.8c0-0.2-0.1-0.5-0.1-0.7
			C59.5,120.9,53.9,120.2,48.3,119.4z"/>
		<rect x="45.9" y="39.2" fill='none' width="38" height="3.9"/>
		<path fill='none' d="M48.3,57.8c0.1,0,0.3,0,0.4-0.1h-2.7v1.9C46.3,58.7,47.2,57.9,48.3,57.8z"/>
		<path fill='none' d="M77.3,59.8c-4.4,0.6-8.8,1.1-13.2,1.7h13.2C77.3,61,77.3,60.4,77.3,59.8z"/>
		<rect x="45.9" y="20.6" fill='none' width="38" height="3.9"/>
		<path fill='#1254B5' d="M18.1,111.3h-4c-2.4,0-4.4-1.9-4.4-4.4V12c0-2.4,1.9-4.4,4.4-4.4h75.2c2.4,0,4.4,1.9,4.4,4.4v39.3
			c1.7-0.3,3.4-0.5,5.1-0.8V12c0-5.2-4.2-9.4-9.4-9.4H14.1c-5.2,0-9.4,4.2-9.4,9.4v95c0,5.2,4.2,9.4,9.4,9.4h1.4v-2.5
			C15.5,112.5,16.7,111.3,18.1,111.3z"/>
		<path fill='#1254B5' d="M45.7,111.3h-9.8c1.4,0,2.5,1.1,2.5,2.5v2.5h7.3V111.3z"/>
		<path fill='#1254B5' d="M27.5,91.8c1.4,0,2.5,1.1,2.5,2.5V91c0-1.4-1.1-2.5-2.5-2.5S25,89.6,25,91v3.4C25,93,26.1,91.8,27.5,91.8z"/>
		<path fill='#1254B5' d="M27.5,35.7c-1.4,0-2.5,1.1-2.5,2.5v5.9c0,1.4,1.1,2.5,2.5,2.5s2.5-1.1,2.5-2.5v-5.9
			C30.1,36.8,28.9,35.7,27.5,35.7z"/>
		<path fill='#1254B5' d="M27.5,70.9c-1.4,0-2.5,1.1-2.5,2.5v5.9c0,1.4,1.1,2.5,2.5,2.5s2.5-1.1,2.5-2.5v-5.9
			C30.1,72,28.9,70.9,27.5,70.9z"/>
		<path fill='#1254B5' d="M27.5,53.3c-1.4,0-2.5,1.1-2.5,2.5v5.9c0,1.4,1.1,2.5,2.5,2.5s2.5-1.1,2.5-2.5v-5.9
			C30.1,54.4,28.9,53.3,27.5,53.3z"/>
		<path fill='#1254B5' d="M27.5,25.7c-1.4,0-2.5-1.1-2.5-2.5v3.4c0,1.4,1.1,2.5,2.5,2.5s2.5-1.1,2.5-2.5v-3.4
			C30.1,24.5,28.9,25.7,27.5,25.7z"/>
		<path fill='#1254B5' d="M27.5,15.6H16.8c-1.4,0-2.5,1.1-2.5,2.5v82.8c0,1.4,1.1,2.5,2.5,2.5h10.8c1.4,0,2.5-1.1,2.5-2.5v-6.5
			c0,1.4-1.1,2.5-2.5,2.5S25,95.8,25,94.4v4h-5.7V20.6H25v2.5c0-1.4,1.1-2.5,2.5-2.5s2.5,1.1,2.5,2.5v-5
			C30.1,16.7,28.9,15.6,27.5,15.6z"/>
		<path fill='#1254B5' d="M27.5,96.9c1.4,0,2.5-1.1,2.5-2.5c0-1.4-1.1-2.5-2.5-2.5S25,93,25,94.4C25,95.8,26.1,96.9,27.5,96.9z"/>
		<path fill='#1254B5' d="M27.5,20.6c-1.4,0-2.5,1.1-2.5,2.5c0,1.4,1.1,2.5,2.5,2.5s2.5-1.1,2.5-2.5C30.1,21.7,28.9,20.6,27.5,20.6z"/>
		<path fill='#1254B5' d="M43.4,29.6h43.1c1.4,0,2.5-1.1,2.5-2.5v-9c0-1.4-1.1-2.5-2.5-2.5H43.4c-1.4,0-2.5,1.1-2.5,2.5v9
			C40.9,28.4,42,29.6,43.4,29.6z M45.9,20.6h38v3.9h-38V20.6z"/>
		<path fill='#1254B5' d="M43.4,48.1h43.1c1.4,0,2.5-1.1,2.5-2.5v-9c0-1.4-1.1-2.5-2.5-2.5H43.4c-1.4,0-2.5,1.1-2.5,2.5v9
			C40.9,47,42,48.1,43.4,48.1z M45.9,39.2h38V43h-38V39.2z"/>
		<path fill='#1254B5' d="M45.9,59.6v-1.9h2.7c10.4-1.6,20.8-3,31.2-4.3c0.5-0.1,1,0,1.5,0.2c0.1-0.1,0.3-0.2,0.4-0.3
			c0.1-0.1,0.2-0.1,0.3-0.2c0.1,0,0.1-0.1,0.2-0.1c0.1-0.1,0.3-0.1,0.4-0.1c0.1,0,0.1,0,0.2,0c0,0,0.1,0,0.1,0l0,0
			c0.4-0.1,0.9-0.1,1.3-0.2h-41c-1.4,0-2.5,1.1-2.5,2.5v9c0,1.4,1.1,2.5,2.5,2.5h2.3v-5.9C45.7,60.3,45.8,60,45.9,59.6z"/>
		<path fill='#1254B5' d="M43.4,71.2c-1.4,0-2.5,1.1-2.5,2.5v9c0,1.4,1.1,2.5,2.5,2.5h2.3v-14L43.4,71.2L43.4,71.2z"/>
		<path fill='#1254B5' d="M42.6,98.3c-1.4,0-2.5,1.1-2.5,2.5c0,1.4,1.1,2.5,2.5,2.5h3.1v-5.1L42.6,98.3L42.6,98.3z"/>
		<path fill='#1254B5' d="M38.5,116.4h-5.1v4.6c0,0.7-0.6,1.3-1.3,1.3h6.3c0.1-0.4,0.1-0.9,0.1-1.3V116.4z"/>
		<path fill='#1254B5' d="M20.6,121.1v-4.6h-5.1v4.6c0,0.5,0.1,0.9,0.1,1.3h6.3C21.2,122.4,20.6,121.8,20.6,121.1z"/>
		<path fill='#1254B5' d="M33.4,116.4h5.1v-2.5c0-1.4-1.1-2.5-2.5-2.5H18.1c-1.4,0-2.5,1.1-2.5,2.5v2.5h5.1H33.4z"/>
		<path fill='#1254B5' d="M65.1,122.4h5c-1.7-0.2-3.4-0.5-5.1-0.7C65.1,121.9,65.1,122.1,65.1,122.4z"/>
		<path fill='#1254B5' d="M15.7,122.4H7.2c-1.4,0-2.5,1.1-2.5,2.5c0,1.4,1.1,2.5,2.5,2.5h14.7C18.8,127.5,16.3,125.3,15.7,122.4z"/>
		<path fill='#1254B5' d="M65.1,122.4H38.3c-0.6,2.9-3.2,5.1-6.3,5.1h39.3C68.3,127.5,65.8,125.3,65.1,122.4z"/>
		<path fill='#1254B5' d="M81.5,127.5h14.7c1.1,0,2-0.6,2.3-1.6c-3.9-0.5-7.7-1.1-11.5-1.6C85.9,126.2,83.9,127.5,81.5,127.5z"/>
		<path fill='#1254B5' d="M38.3,122.4h-6.3H21.9h-6.3c0.6,2.9,3.2,5.1,6.3,5.1h10.1C35.1,127.5,37.7,125.3,38.3,122.4z"/>
		<path fill='#1254B5' d="M87,124.3c-1.3-0.2-2.6-0.4-4-0.5c-0.4-0.1-0.8-0.2-1.2-0.5c-0.6,0.4-1.3,0.6-2.1,0.5
			c-3.2-0.5-6.4-0.9-9.7-1.4h-5c0.6,2.9,3.2,5.1,6.3,5.1h10.1C83.9,127.5,85.9,126.2,87,124.3z"/>
	</g>
	<g>
		<path id="path5" fill='#2E76BB' d="M83.5,55.8c13.9-2.1,27.9-4.1,41.8-6.1c0,12.2,0,24.4,0,36.7c-14,0.1-27.9,0.3-41.8,0.3
			C83.5,76.4,83.5,66.1,83.5,55.8L83.5,55.8z"/>
		<path id="path7" fill='#2E76BB' d="M48.1,60.7c10.5-1.6,21-3,31.6-4.3c0,10.1,0,20.3,0,30.4c-10.5,0-21,0.1-31.6,0.1V60.7L48.1,60.7z
			"/>
		<path id="path29" fill='#2E76BB' d="M48.1,90.2c10.5,0,21,0.1,31.5,0.1c0,10.2,0,20.3,0,30.5c-10.5-1.6-21-2.9-31.6-4.3L48.1,90.2
			L48.1,90.2z"/>
		<path id="path31" fill='#2E76BB' d="M83.4,90.6c14,0,27.9,0,41.9,0c0,12.2,0,24.4,0,36.6c-13.9-2.1-27.9-4-41.8-5.9
			C83.5,111,83.4,100.8,83.4,90.6z"/>
	</g>
</g>
</svg>
