<?xml version="1.0" encoding="utf-8"?>
<!-- Generator: Adobe Illustrator 25.3.1, SVG Export Plug-In . SVG Version: 6.00 Build 0)  -->
<svg  height="512" width="512"  xmlns="http://www.w3.org/2000/svg" xmlns:xlink="http://www.w3.org/1999/xlink" x="0px" y="0px"
	 viewBox="0 0 130 130" style="enable-background:new 0 0 130 130;" xml:space="preserve">

<g>
	<g>
		<path fill='#1254B5' d="M55.9,112.6l-5.6-15.7c-0.1-0.2-0.2-0.5-0.2-0.7c0-0.7,0.6-1.3,1.4-1.3c0.7,0,1.2,0.5,1.4,1.2l4.7,13.5
			L62.3,96c0.2-0.6,0.6-1.1,1.4-1.1h0.1c0.7,0,1.2,0.5,1.4,1.1l4.7,13.6L74.6,96c0.2-0.6,0.6-1.1,1.3-1.1c0.8,0,1.4,0.6,1.4,1.3
			c0,0.2-0.1,0.5-0.2,0.7l-5.7,15.7c-0.3,0.8-0.9,1.3-1.5,1.3h-0.1c-0.7,0-1.3-0.4-1.5-1.3l-4.6-13.3L59,112.6
			c-0.2,0.8-0.8,1.3-1.5,1.3h-0.1C56.8,113.9,56.2,113.4,55.9,112.6"/>
		<path fill='#1254B5' d="M97,96.2c0-0.7,0.6-1.4,1.4-1.4s1.4,0.6,1.4,1.4v3.2c1.4-3.1,4.4-4.6,6.4-4.6c0.8,0,1.4,0.6,1.4,1.4
			c0,0.7-0.5,1.3-1.2,1.4c-3.6,0.4-6.5,3.1-6.5,8.5v6.3c0,0.7-0.6,1.4-1.4,1.4s-1.4-0.6-1.4-1.4V96.2"/>
		<path fill='#1254B5' d="M116.4,114c-5,0-9.1-3.9-9.1-9.6v-0.1c0-5.3,3.7-9.6,8.7-9.6c5.4,0,8.5,4.4,8.5,9.3c0,0.7-0.6,1.3-1.3,1.3
			H110c0.4,4,3.2,6.2,6.4,6.2c2.2,0,3.9-0.9,5.2-2.1c0.2-0.2,0.5-0.3,0.8-0.3c0.7,0,1.2,0.5,1.2,1.2c0,0.3-0.1,0.6-0.4,0.9
			C121.6,112.9,119.5,114,116.4,114 M121.8,103.4c-0.3-3.3-2.2-6.3-5.8-6.3c-3.2,0-5.6,2.7-5.9,6.3H121.8z"/>
		<path fill='#1254B5' d="M77.4,108.3L77.4,108.3c0-4,3.2-6.1,7.9-6.1c2.4,0,4.1,0.3,5.7,0.8v-0.6c0-3.3-2-5.1-5.5-5.1
			c-1.9,0-3,0.2-4.3,0.9c-0.2,0.1-0.4,0.1-0.5,0.1c-0.6,0-1.2-0.5-1.2-1.2c0-0.6,0.2-0.9,0.7-1.2c1.8-0.8,3.2-1.1,5.6-1.1
			c2.6,0,4.6,0.7,6,2c1.3,1.3,1.9,3,1.9,5.4v10.2c0,0.8-0.6,1.4-1.3,1.4c-0.8,0-1.3-0.6-1.3-1.3v-1.8c-1.3,1.7-3.4,3.2-6.7,3.2
			C80.9,114,77.4,112.1,77.4,108.3 M91,106.8V105c-1.4-0.4-3.2-0.8-5.4-0.8c-3.5,0-5.4,1.5-5.4,3.8v0.1c0,2.3,2.1,3.7,4.7,3.7
			C88.2,111.8,91,109.8,91,106.8"/>
		<path fill='#1254B5' d="M5.7,96c-0.6-1.3-2.1-1.9-3.5-1.3s-1.9,2.2-1.3,3.5L6.8,111c0.9,2,1.9,3.1,3.7,3.1c2,0,2.8-1.1,3.7-3.1
			c0,0,5.1-11.2,5.2-11.3c0.1-0.1,0.2-0.5,0.7-0.5c0.4,0,0.8,0.4,0.8,0.8v11c0,1.7,0.9,3.1,2.7,3.1c1.8,0,2.8-1.4,2.8-3.1v-8.9
			c0-1.7,1.2-2.8,2.9-2.8s2.8,1.2,2.8,2.8v8.9c0,1.7,0.9,3.1,2.7,3.1s2.8-1.4,2.8-3.1v-8.9c0-1.7,1.2-2.8,2.9-2.8s2.8,1.2,2.8,2.8
			v8.9c0,1.7,0.9,3.1,2.7,3.1s2.8-1.4,2.8-3.1v-10.2c0-3.7-3-6.4-6.6-6.4S36.4,97,36.4,97c-1.2-1.6-2.9-2.5-5.7-2.5
			c-3,0-5.5,2.5-5.5,2.5c-1.2-1.6-3.3-2.5-4.9-2.5c-2.6,0-4.7,1.2-6,4.1l-3.8,8.9L5.7,96"/>
		<path fill='#1254B5' d="M124.8,97.1L124.8,97.1c0-1.3,1-2.3,2.3-2.3s2.3,1,2.3,2.3l0,0c0,1.3-1,2.3-2.3,2.3S124.8,98.4,124.8,97.1
			 M128.9,97.1L128.9,97.1c0-1-0.8-1.9-1.9-1.9s-1.9,0.9-1.9,1.9l0,0c0,1,0.8,1.9,1.9,1.9C128.1,99,128.9,98.1,128.9,97.1"/>
		<path fill='#1254B5' d="M126.2,96.2c0-0.1,0.1-0.2,0.2-0.2h0.8c0.3,0,0.5,0.1,0.6,0.2s0.2,0.3,0.2,0.5l0,0c0,0.3-0.2,0.6-0.4,0.7
			l0.3,0.4c0,0.1,0.1,0.1,0.1,0.2s-0.1,0.2-0.2,0.2s-0.2-0.1-0.2-0.1l-0.5-0.6h-0.4V98c0,0.1-0.1,0.2-0.2,0.2s-0.2-0.1-0.2-0.2
			L126.2,96.2C126.1,96.2,126.2,96.2,126.2,96.2z M127.2,97c0.2,0,0.4-0.1,0.4-0.3l0,0c0-0.2-0.1-0.3-0.4-0.3h-0.5V97H127.2z"/>
	</g>
	<g>
		<path fill='#1254B5' d="M110.2,43.1L110.2,43.1L110.2,43.1z"/>
		<path fill='#1254B5' d="M69.5,40.9c2.1,0,3.7,1.6,3.8,3.7c1-0.1,1.9-0.3,2.8-0.4C75.8,40.7,73,38,69.5,38H54.1v2.9H69.5L69.5,40.9z"
			/>
		<rect x="42.8" y="38" fill='#1254B5' width="8.5" height="2.9"/>
		<path fill='#1254B5' d="M69.5,82.3H35.8c-2.1,0-3.8-1.7-3.8-3.8V44.7c0-2.1,1.7-3.8,3.8-3.8h4.1V38h-4.1c-3.7,0-6.7,3-6.7,6.7v33.7
			c0,3.7,3,6.7,6.7,6.7h33.7v-1.4V82.3z"/>
		<path fill='#1254B5' d="M69.5,82.3v1.4v1.4c2.6,0,4.9-1.5,6-3.8c-1.1-0.1-2.1-0.3-3.1-0.4C71.7,81.8,70.7,82.3,69.5,82.3z"/>
		<path fill='#1254B5' d="M84.6,43.1c0.8-0.1,1.6-0.2,2.4-0.3V30.6h-2.9v12.7C84.3,43.2,84.5,43.1,84.6,43.1z"/>
		<path fill='#1254B5' d="M63.9,62.9c-0.1-0.3-0.2-0.5-0.2-0.9v-1.9h-9.6V63h9.7L63.9,62.9z"/>
		<path fill='#1254B5' d="M46.6,63.1h4.6v-2.9h-4.6c-2.1,0-3.8-1.7-3.8-3.8V40.9h-2.9v15.4C39.9,60.1,42.9,63.1,46.6,63.1z"/>
		<path fill='#1254B5' d="M42.8,22.6c0-2.1,1.7-3.8,3.8-3.8h33.7c2.1,0,3.8,1.7,3.8,3.8v5H87v-5c0-3.7-3-6.7-6.7-6.7H46.6
			c-3.7,0-6.7,3-6.7,6.7V38h2.9V22.6z"/>
		<rect x="39.9" y="38" fill='#1254B5' width="2.9" height="2.9"/>
		<path fill='#1254B5' d="M57.9,71.9c-2.1,0-3.8-1.7-3.8-3.8v-5h-2.9v5c0,3.7,3,6.7,6.7,6.7h5.8v-2.9C63.7,71.9,57.9,71.9,57.9,71.9z"
			/>
		<path fill='#1254B5' d="M91.7,30.5c2.1,0,3.8,1.7,3.8,3.8v7.1c1-0.1,1.9-0.3,2.9-0.4v-6.7c0-3.7-3-6.7-6.7-6.7H87v2.9
			C87,30.5,91.7,30.5,91.7,30.5z"/>
		<rect x="51.2" y="40.9" fill='#1254B5' width="2.9" height="19.2"/>
		<path fill='#1254B5' d="M51.2,34.4V38h2.9v-3.7c0-2.1,1.7-3.8,3.8-3.8h26.2v-2.9H57.9C54.2,27.7,51.2,30.7,51.2,34.4z"/>
		<rect x="51.2" y="38" fill='#1254B5' width="2.9" height="2.9"/>
		<rect x="84.1" y="27.7" fill='#1254B5' width="2.9" height="2.9"/>
		<rect x="51.2" y="60.2" fill='#1254B5' width="2.9" height="2.9"/>
		<path fill='#1254B5' d="M88.3,43.7L88.3,43.7L88.3,43.7L88.3,43.7z"/>
		<path fill='#1254B5' d="M88.3,43.7L88.3,43.7L88.3,43.7z"/>
	</g>
	<g>
		<path id="path5" fill='#2E76BB' d="M85,45.2c7.5-1.1,15-2.2,22.6-3.3c0,6.6,0,13.2,0,19.8c-7.5,0-15,0.1-22.6,0.2
			C84.9,56.3,84.9,50.8,85,45.2L85,45.2z"/>
		<path id="path7" fill='#2E76BB' d="M65.9,47.9c5.7-0.9,11.3-1.6,17-2.3c0,5.5,0,10.9,0,16.4c-5.7,0-11.4,0.1-17,0.1V47.9L65.9,47.9z"
			/>
		<path id="path29" fill='#2E76BB' d="M65.9,63.7c5.7,0,11.3,0.1,17,0.1c0,5.5,0,11,0,16.5c-5.7-0.8-11.3-1.6-17-2.3V63.7z"/>
		<path id="path31" fill='#2E76BB' d="M84.9,64c7.5,0,15.1,0,22.6,0c0,6.6,0,13.2,0,19.7c-7.5-1.1-15-2.2-22.6-3.2
			C84.9,75,84.9,69.5,84.9,64z"/>
	</g>
</g>
</svg>
